<svg xmlns="http://www.w3.org/2000/svg" width="360" height="166.616" viewBox="0 0 360 166.616">
  <g id="訴求" transform="translate(-468 -746)">
    <rect id="bg" width="360" height="166.616" transform="translate(468 746)" fill="#173449"/>
    <g id="情報">
      <path id="パス_32323" data-name="パス 32323" d="M22.016,18.152a5.147,5.147,0,0,1,1.248.336,9.061,9.061,0,0,1,1.744.816q.784.48.784,1.024a.748.748,0,0,1-.192.528,3.763,3.763,0,0,1-.544.464,1.8,1.8,0,0,0-.64.7q-.576,1.7-1.76,7.264v.16q0,.448.576.608,1.28.288,1.28,1.152,0,.32-.464.544a2.949,2.949,0,0,1-1.264.224l-.928-.064q-.448-.032-1.424-.08t-1.648-.048a31.944,31.944,0,0,0-9.312,1.248,1.624,1.624,0,0,1-.448.064,2.422,2.422,0,0,1-1.248-.384A3.94,3.94,0,0,1,6.7,31.784a1.685,1.685,0,0,1-.432-1.024q0-.544.288-.544a.737.737,0,0,1,.288.1,4.6,4.6,0,0,0,1.04.464,5.394,5.394,0,0,0,1.424.144,24.567,24.567,0,0,0,3.072-.32l2.816-.352q2.176-.256,5.056-.352a.644.644,0,0,0,.7-.608q.32-1.664.544-3.76a33.992,33.992,0,0,0,.224-3.5,2.529,2.529,0,0,0-.128-1.008q-.128-.24-.64-.24-.832.064-3.088.3t-4.7.56a21.109,21.109,0,0,0-3.312.608,7.242,7.242,0,0,1-1.952.416,1.9,1.9,0,0,1-1.232-.4A4.032,4.032,0,0,1,5.7,20.84a1.031,1.031,0,0,1-.128-.448q0-.256.32-.256a1.579,1.579,0,0,1,.48.1,5.661,5.661,0,0,0,1.44.224q1.6,0,6.32-.384a33.512,33.512,0,0,0,5.712-.736,4.614,4.614,0,0,0,1.1-.544q.4-.288.464-.32A1.109,1.109,0,0,1,22.016,18.152Zm22.528,2.3q-.9,0-1.728-1.28A6.142,6.142,0,0,0,40.9,17.32a9.935,9.935,0,0,0-2.528-1.12,3.322,3.322,0,0,1-.416-.128q-.16-.064-.16-.16,0-.288,1.472-.288a12.447,12.447,0,0,1,2.8.336,6.216,6.216,0,0,1,2.416,1.072A2.708,2.708,0,0,1,45.7,19.144a1.433,1.433,0,0,1-.3.944A1.039,1.039,0,0,1,44.544,20.456Zm-6.112,12.1a4.085,4.085,0,0,1-.128-.992,1.82,1.82,0,0,1,.112-.688q.112-.272.208-.272t.288.352a2.957,2.957,0,0,0,.512.672,3.733,3.733,0,0,0,.592.5,1.447,1.447,0,0,0,.784.176q1.152,0,4.192-1.856a61.654,61.654,0,0,0,7.088-5.232,90.229,90.229,0,0,0,8.112-7.728q.288-.352.512-.352a.113.113,0,0,1,.128.128,1.582,1.582,0,0,1-.32.672A56.475,56.475,0,0,1,55.328,24.1Q52.32,27.24,49.52,29.688t-4.432,3.6a4.459,4.459,0,0,1-.64.416q-.288.192-.576.416a5.384,5.384,0,0,0-.64.608A2,2,0,0,1,41.7,35.5a3.015,3.015,0,0,1-2.032-.88A3.827,3.827,0,0,1,38.432,32.552Zm51.584-11.9a2.99,2.99,0,0,1-2.176-.88,3.052,3.052,0,0,1,0-4.32,2.99,2.99,0,0,1,2.176-.88,2.91,2.91,0,0,1,2.16.9,2.952,2.952,0,0,1,.88,2.144,2.91,2.91,0,0,1-.9,2.16A2.952,2.952,0,0,1,90.016,20.648Zm0-.832a2.106,2.106,0,0,0,1.568-.656,2.221,2.221,0,0,0-.016-3.136,2.122,2.122,0,0,0-1.552-.656,2.24,2.24,0,0,0-2.24,2.24,2.106,2.106,0,0,0,.656,1.568A2.186,2.186,0,0,0,90.016,19.816ZM90.88,30.76a.8.8,0,0,1-.64-.3,3.88,3.88,0,0,1-.544-1.072,20.952,20.952,0,0,0-2.512-4.56,20.473,20.473,0,0,0-4.272-4.336q-.288-.224-.288-.384t.192-.16a.8.8,0,0,1,.352.1,20.492,20.492,0,0,1,3.888,2.32,24.2,24.2,0,0,1,3.792,3.36,4.908,4.908,0,0,1,1.568,2.9,2.388,2.388,0,0,1-.48,1.552A1.363,1.363,0,0,1,90.88,30.76ZM64.544,32.648q-.224,0-.224-.128,0-.256.48-.544a31.3,31.3,0,0,0,4.992-3.648,26.456,26.456,0,0,0,3.536-3.76,5.319,5.319,0,0,0,1.3-2.608q0-.512-.7-.864l-.32-.128a1.252,1.252,0,0,1-.288-.16.258.258,0,0,1-.128-.192q0-.224.448-.288a8.138,8.138,0,0,1,1.12-.064,3.583,3.583,0,0,1,2.24.64,2.128,2.128,0,0,1,1.024,1.664,1.316,1.316,0,0,1-.288.8,29.282,29.282,0,0,1-5.536,5.008,38.524,38.524,0,0,1-7.2,4.144A1.467,1.467,0,0,1,64.544,32.648Zm54.72-15.872a2.366,2.366,0,0,1,1.056.432,6.182,6.182,0,0,1,1.264,1.024,1.653,1.653,0,0,1,.56,1.04.844.844,0,0,1-.24.624,4.395,4.395,0,0,1-.752.56,7.755,7.755,0,0,0-.72.512,2.716,2.716,0,0,0-.5.544,39.219,39.219,0,0,1-9.216,9.952A29.673,29.673,0,0,1,99.744,36.84a1.8,1.8,0,0,1-.352.032q-.288,0-.288-.16,0-.128.448-.32a38.615,38.615,0,0,0,10.24-6.208,41.083,41.083,0,0,0,8.48-10.624,1.29,1.29,0,0,0,.192-.576q0-.32-.384-.32a2.218,2.218,0,0,0-.448.064q-1.6.416-2.432.576a8.793,8.793,0,0,1-1.664.16,4.909,4.909,0,0,1-1.184-.128L112.1,19.3a.879.879,0,0,0-.672.32,39.323,39.323,0,0,1-4.912,4.416,22.4,22.4,0,0,1-4.4,2.816,1.546,1.546,0,0,1-.416.128q-.128,0-.128-.1a.312.312,0,0,1,.112-.208,1.62,1.62,0,0,1,.336-.24,26.723,26.723,0,0,0,3.664-3.184,39.639,39.639,0,0,0,3.808-4.368,6.651,6.651,0,0,0,1.616-3.232q0-.9-1.152-1.408-.32-.128-.32-.288,0-.192.288-.32a2.617,2.617,0,0,1,1.088-.192,3,3,0,0,1,1.5.4,3.747,3.747,0,0,1,1.136.96,1.7,1.7,0,0,1,.432.976,1.874,1.874,0,0,1-.32.832l-.512.8a1.428,1.428,0,0,0-.288.576q-.032.224.16.224a17.921,17.921,0,0,0,2.752-.224,6.562,6.562,0,0,0,1.952-.512l.56-.352a3.548,3.548,0,0,1,.5-.272A.992.992,0,0,1,119.264,16.776Zm23.168,4.16a.7.7,0,0,0,.608.768,20.685,20.685,0,0,1,5.552,2.048q2.416,1.344,2.416,3.1a1.423,1.423,0,0,1-.272.9.835.835,0,0,1-.688.352q-.864,0-2.272-1.728a14.553,14.553,0,0,0-4.544-3.84,1.079,1.079,0,0,0-.48-.128q-.32,0-.32.288l-.032,5.248a60.893,60.893,0,0,0,.16,6.24q.032.224.192,1.008a6.566,6.566,0,0,1,.16,1.232,1.718,1.718,0,0,1-.416,1.136,1.111,1.111,0,0,1-.768.5q-.448,0-.848-.72a7.554,7.554,0,0,1-.656-1.632,5.648,5.648,0,0,1-.256-1.264,4.76,4.76,0,0,1,.128-.784,11.115,11.115,0,0,0,.192-1.552l.1-2.592q.064-.96.1-1.872t.064-1.712q.1-2.144.1-6.528,0-3.52-.128-4.64a2.168,2.168,0,0,0-.384-1.04,3.218,3.218,0,0,0-.56-.576q-.272-.208-.368-.272-.256-.192-.256-.32,0-.384.608-.512a5.6,5.6,0,0,1,1.152-.128,2.428,2.428,0,0,1,1.792.7,1.138,1.138,0,0,1,.352.832,1.988,1.988,0,0,1-.032.384q-.032.16-.064.288-.032.16-.144.9a10.9,10.9,0,0,0-.112,1.632q0,.224-.032,1.472T142.432,20.936ZM183.3,18.728a4.252,4.252,0,0,1,1.328.672,15.409,15.409,0,0,1,1.968,1.456q.9.784.9,1.3a.544.544,0,0,1-.352.576,3.217,3.217,0,0,1-.9.16,3.663,3.663,0,0,0-1.024.16,4.649,4.649,0,0,0-1.056.672q-2.112,1.7-3.312,2.624a21.911,21.911,0,0,1-2.352,1.6.54.54,0,0,0-.32.448.685.685,0,0,0,.288.448q1.984,1.536,1.984,3.072a1.676,1.676,0,0,1-.368,1.072,1.122,1.122,0,0,1-.912.464q-1.088,0-1.824-1.6a12.947,12.947,0,0,0-2.064-2.992,10.106,10.106,0,0,0-3.216-2.544q-.448-.224-.448-.384,0-.128.256-.128a8.018,8.018,0,0,1,1.952.576,20.568,20.568,0,0,1,2.944,1.376.848.848,0,0,0,.416.128.7.7,0,0,0,.512-.224q4.8-4.416,4.8-6.528,0-.448-.512-.448-.448,0-5.408.656t-7.04,1.1a15.371,15.371,0,0,0-2.656.8,2.452,2.452,0,0,1-.768.192,2.618,2.618,0,0,1-1.7-.7,3.927,3.927,0,0,1-1.12-1.376,1.079,1.079,0,0,1-.128-.48q0-.224.128-.224a1.042,1.042,0,0,1,.288.1q.224.1.416.16a5.448,5.448,0,0,0,1.728.256q.288,0,1.056-.064a8.973,8.973,0,0,1,.96-.064q1.7-.1,7.584-.784a58.646,58.646,0,0,0,6.976-1.04,1.91,1.91,0,0,0,.544-.288A.79.79,0,0,1,183.3,18.728Zm21.248,1.728q-.9,0-1.728-1.28a6.142,6.142,0,0,0-1.92-1.856,9.935,9.935,0,0,0-2.528-1.12,3.322,3.322,0,0,1-.416-.128q-.16-.064-.16-.16,0-.288,1.472-.288a12.447,12.447,0,0,1,2.8.336,6.216,6.216,0,0,1,2.416,1.072,2.708,2.708,0,0,1,1.216,2.112,1.433,1.433,0,0,1-.3.944A1.039,1.039,0,0,1,204.544,20.456Zm-6.112,12.1a4.084,4.084,0,0,1-.128-.992,1.82,1.82,0,0,1,.112-.688q.112-.272.208-.272t.288.352a2.957,2.957,0,0,0,.512.672,3.733,3.733,0,0,0,.592.5,1.447,1.447,0,0,0,.784.176q1.152,0,4.192-1.856a61.654,61.654,0,0,0,7.088-5.232,90.228,90.228,0,0,0,8.112-7.728q.288-.352.512-.352a.113.113,0,0,1,.128.128,1.582,1.582,0,0,1-.32.672,56.476,56.476,0,0,1-5.184,6.176q-3.008,3.136-5.808,5.584t-4.432,3.6a4.459,4.459,0,0,1-.64.416q-.288.192-.576.416a5.384,5.384,0,0,0-.64.608,2,2,0,0,1-1.536.768,3.015,3.015,0,0,1-2.032-.88A3.827,3.827,0,0,1,198.432,32.552Zm39.584-12.8a1.624,1.624,0,0,1-.672-.16,1.242,1.242,0,0,1-.512-.384,12.33,12.33,0,0,0-1.424-1.488,11.038,11.038,0,0,0-1.456-1.008,7.422,7.422,0,0,0-.88-.432,4.958,4.958,0,0,1-.592-.272.77.77,0,0,1-.192-.08.238.238,0,0,1-.16-.208q0-.288,1.088-.288a10.519,10.519,0,0,1,2.64.352,6.225,6.225,0,0,1,2.272,1.056,2.061,2.061,0,0,1,.912,1.664,1.439,1.439,0,0,1-.272.88A.883.883,0,0,1,238.016,19.752ZM233.024,36.52a.968.968,0,0,1-.736-.448,8.617,8.617,0,0,1-1.2-2.24,6.7,6.7,0,0,1-.56-2.08q0-.544.32-.544.128,0,.352.288l.448.576a2.259,2.259,0,0,0,1.76.7,4.018,4.018,0,0,0,1.76-.416,46.011,46.011,0,0,0,9.008-5.616,44.091,44.091,0,0,0,7.952-7.856q.288-.416.544-.416a.17.17,0,0,1,.192.192,1.189,1.189,0,0,1-.224.608,41.973,41.973,0,0,1-5.5,6.608,58.266,58.266,0,0,1-6.384,5.488,49.676,49.676,0,0,1-5.68,3.68,5.657,5.657,0,0,0-1.024.8,4.98,4.98,0,0,1-.576.512A.767.767,0,0,1,233.024,36.52Zm1.632-10.176a1.267,1.267,0,0,1-.592-.16,2.039,2.039,0,0,1-.5-.352,10.545,10.545,0,0,0-1.248-1.152q-.48-.352-1.216-.8a8.116,8.116,0,0,0-1.36-.656q-.592-.208-.752-.272-.256-.1-.256-.224,0-.192.688-.272a11.5,11.5,0,0,1,1.328-.08,7.107,7.107,0,0,1,3.392.784,2.371,2.371,0,0,1,1.472,2.128,1.145,1.145,0,0,1-.256.736A.852.852,0,0,1,234.656,26.344ZM276.9,23.08a1.648,1.648,0,0,1,.8.416,6.2,6.2,0,0,1,.976.928,1.518,1.518,0,0,1,.432.736.707.707,0,0,1-.144.4,3.066,3.066,0,0,0-.176.272,3.262,3.262,0,0,0-.448.832q-.1.416-.24,2.848T277.92,32.9v1.408a8.749,8.749,0,0,1-.032.96,1.578,1.578,0,0,1-.48,1.056,1.376,1.376,0,0,1-.832.256.585.585,0,0,1-.56-.4,2.161,2.161,0,0,1-.176-.88q0-.352-.416-.352l-.416.032q-5.184.32-6.336.48l-.768.128a3.721,3.721,0,0,1-.96.16,1.12,1.12,0,0,1-.752-.4,5.1,5.1,0,0,1-.688-.848,1.4,1.4,0,0,1-.256-.608q0-.224.192-.224a1.783,1.783,0,0,1,.384.128,4.125,4.125,0,0,0,1.44.384q.9-.032,3.264-.128t4.7-.224a.633.633,0,0,0,.64-.7l.064-.864.1-1.376V30.76q0-.576-.352-.576l-.384.032q-4.928.192-5.856.192a8.526,8.526,0,0,0-1.408.16,2.821,2.821,0,0,1-.672.1,1.8,1.8,0,0,1-1.168-.512,2.3,2.3,0,0,1-.752-1.056.709.709,0,0,1-.032-.224q0-.256.192-.256a1.007,1.007,0,0,1,.352.128,5.333,5.333,0,0,0,.512.224,4.365,4.365,0,0,0,.928.16q.96-.032,3.392-.128t4.8-.224a.656.656,0,0,0,.672-.672l.224-2.784a.312.312,0,0,0-.064-.224.436.436,0,0,0-.288-.064q-1.056.032-3.712.144t-3.52.208a8,8,0,0,0-1.056.16,8.06,8.06,0,0,1-.992.128,1.444,1.444,0,0,1-.944-.4,3.992,3.992,0,0,1-.784-.912,1.35,1.35,0,0,1-.224-.544.323.323,0,0,1,.064-.208.2.2,0,0,1,.16-.08.677.677,0,0,1,.32.112q.192.112.288.176a4.929,4.929,0,0,0,2.112.32q1.792,0,4.528-.112a13.37,13.37,0,0,0,3.216-.336,6.8,6.8,0,0,0,.72-.384A1.248,1.248,0,0,1,276.9,23.08Zm23.648-2.624q-.9,0-1.728-1.28a6.143,6.143,0,0,0-1.92-1.856,9.935,9.935,0,0,0-2.528-1.12,3.321,3.321,0,0,1-.416-.128q-.16-.064-.16-.16,0-.288,1.472-.288a12.447,12.447,0,0,1,2.8.336,6.216,6.216,0,0,1,2.416,1.072,2.708,2.708,0,0,1,1.216,2.112,1.433,1.433,0,0,1-.3.944A1.039,1.039,0,0,1,300.544,20.456Zm-6.112,12.1a4.084,4.084,0,0,1-.128-.992,1.82,1.82,0,0,1,.112-.688q.112-.272.208-.272t.288.352a2.957,2.957,0,0,0,.512.672,3.732,3.732,0,0,0,.592.5,1.447,1.447,0,0,0,.784.176q1.152,0,4.192-1.856a61.65,61.65,0,0,0,7.088-5.232,90.226,90.226,0,0,0,8.112-7.728q.288-.352.512-.352a.113.113,0,0,1,.128.128,1.582,1.582,0,0,1-.32.672,56.472,56.472,0,0,1-5.184,6.176q-3.008,3.136-5.808,5.584t-4.432,3.6a4.459,4.459,0,0,1-.64.416q-.288.192-.576.416a5.382,5.382,0,0,0-.64.608,2,2,0,0,1-1.536.768,3.015,3.015,0,0,1-2.032-.88A3.827,3.827,0,0,1,294.432,32.552ZM112.544,52.7a13.981,13.981,0,0,1,5.344,1.1,10.671,10.671,0,0,1,4.528,3.552,10.128,10.128,0,0,1,1.84,6.256q0,4.992-3.056,7.616a15.081,15.081,0,0,1-6.528,3.408,27.255,27.255,0,0,1-5.808.784q-.448,0-.448-.16,0-.192,1.28-.416a19.461,19.461,0,0,0,8.9-3.68,9.245,9.245,0,0,0,3.424-7.68A9.9,9.9,0,0,0,120.56,57.9a8.659,8.659,0,0,0-3.7-3.2,11.262,11.262,0,0,0-4.672-1.008.99.99,0,0,0-.4.352.531.531,0,0,0-.08.448,11.408,11.408,0,0,1,.4,1.728,10.966,10.966,0,0,1,.144,1.664,15.772,15.772,0,0,1-1.152,5.44,25.11,25.11,0,0,1-2.416,4.944,14.524,14.524,0,0,1-2.624,3.168,3.626,3.626,0,0,1-2.032,1.072,2.894,2.894,0,0,1-2.16-1.136,8.2,8.2,0,0,1-1.6-2.992A12.664,12.664,0,0,1,99.68,64.5a10.758,10.758,0,0,1,1.824-6.16,12.218,12.218,0,0,1,4.8-4.176A13.9,13.9,0,0,1,112.544,52.7Zm-1.312,3.584a8.993,8.993,0,0,0-.192-1.888.6.6,0,0,0-.768-.512,10.957,10.957,0,0,0-4.352,1.856,10.377,10.377,0,0,0-3.168,3.616,10.26,10.26,0,0,0-1.184,4.928,9.484,9.484,0,0,0,.464,3.2,5.47,5.47,0,0,0,1.04,1.888q.576.608.928.608a2.966,2.966,0,0,0,1.9-1.2,18.521,18.521,0,0,0,2.032-2.672,22.163,22.163,0,0,0,2.544-5.136A15.322,15.322,0,0,0,111.232,56.28Zm42.144-5.056a.92.92,0,0,0,.8-.416l.384-.512q.1-.128.3-.4a4.252,4.252,0,0,1,.336-.4.369.369,0,0,1,.256-.128,2,2,0,0,1,.8.48,11.581,11.581,0,0,1,1.136,1.024q.528.544.528.768-.032.512-.8.512h-7.3a.612.612,0,0,0-.672.672v.928q0,.128-.5.32a3.727,3.727,0,0,1-1.168.224.391.391,0,0,1-.352-.224.8.8,0,0,1-.1-.352,2.7,2.7,0,0,1,.064-.448l.064-.384v-.064a.612.612,0,0,0-.672-.672h-5.12q-.672,0-.672.576a3.654,3.654,0,0,1,.032.512V53.5a.674.674,0,0,1-.256.576,2.935,2.935,0,0,1-1.44.32.371.371,0,0,1-.32-.224.8.8,0,0,1-.1-.352,4.2,4.2,0,0,1,.064-.48V53.3a2.133,2.133,0,0,0,.064-.768.322.322,0,0,0-.176-.272.923.923,0,0,0-.5-.112h-2.688a34.469,34.469,0,0,0-4.224.352h-.192a.658.658,0,0,1-.64-.448l-.128-.224a.8.8,0,0,1-.1-.352q0-.48.64-.416,1.088.1,3.328.16h4a.594.594,0,0,0,.672-.672l-.1-1.7v-.064q0-.576.48-.576l.288.064a12.7,12.7,0,0,1,1.616.624q.464.24.464.432,0,.16-.256.32l-.1.064a.9.9,0,0,0-.448.8v.032a.612.612,0,0,0,.672.672h5.12a.594.594,0,0,0,.672-.672l-.1-1.7v-.064q0-.576.48-.576l.288.064a13.508,13.508,0,0,1,1.664.624q.48.24.48.432,0,.16-.288.32l-.1.064a.9.9,0,0,0-.448.8v.032a.612.612,0,0,0,.672.672Zm.256,13.568a.92.92,0,0,0,.8-.416l.32-.448q.128-.16.3-.4a3.272,3.272,0,0,1,.3-.368.369.369,0,0,1,.256-.128,2.784,2.784,0,0,1,1.088.64,7.589,7.589,0,0,1,1.248,1.152.7.7,0,0,1,.16.384.458.458,0,0,1-.192.352.955.955,0,0,1-.576.128h-7.008a.773.773,0,0,0-.448.112.326.326,0,0,0-.16.272.54.54,0,0,0,.32.448,22.113,22.113,0,0,0,3.664,1.792,30.863,30.863,0,0,0,4.112,1.28q.608.16.608.288-.032.1-.224.192a2.108,2.108,0,0,0-.32.192,1.942,1.942,0,0,0-.8.9q-.192.48-.576.48a1.016,1.016,0,0,1-.288-.064,24.8,24.8,0,0,1-3.616-1.792.6.6,0,0,0-.384-.128q-.416,0-.416.576v1.536q.1,2.912.16,4.288v.16a.687.687,0,0,1-.32.64,3.31,3.31,0,0,1-.752.384,2.217,2.217,0,0,1-.752.16.257.257,0,0,1-.24-.176,1.231,1.231,0,0,1-.08-.5v-.256a.612.612,0,0,0-.672-.672h-10.24a.612.612,0,0,0-.672.672v.32q0,.192-.48.464a2.233,2.233,0,0,1-1.12.272.531.531,0,0,1-.4-.192.642.642,0,0,1-.176-.448q.192-2.5.256-4.992V70.04a.71.71,0,0,0-.112-.416.326.326,0,0,0-.272-.16.856.856,0,0,0-.416.16,21.435,21.435,0,0,1-4.832,2.56,1.062,1.062,0,0,1-.416.1.337.337,0,0,1-.288-.128.13.13,0,0,1-.032-.1q0-.224.512-.448a25.235,25.235,0,0,0,6.592-5.088.645.645,0,0,0,.224-.448.326.326,0,0,0-.16-.272.773.773,0,0,0-.448-.112h-1.44a34.469,34.469,0,0,0-4.224.352h-.192a.658.658,0,0,1-.64-.416l-.128-.224a.852.852,0,0,1-.1-.384.352.352,0,0,1,.16-.3.644.644,0,0,1,.448-.08q1.088.1,3.3.16h4.16a.92.92,0,0,0,.8-.416,5.949,5.949,0,0,0,.432-.608,4.073,4.073,0,0,1,.336-.48.6.6,0,0,0,.128-.384q0-.416-.608-.416h-1.216q-.672,0-.672.576,0,.16-.56.4a2.86,2.86,0,0,1-1.136.24.4.4,0,0,1-.352-.192.789.789,0,0,1-.128-.448q.1-.9.128-1.792l.032-.864V58.744q0-2.272-.192-4.192v-.128a.516.516,0,0,1,.112-.352.349.349,0,0,1,.272-.128.8.8,0,0,1,.352.1l1.28.576a1.971,1.971,0,0,0,.832.192h11.968a.92.92,0,0,0,.8-.416l.16-.192q.1-.1.3-.352a.558.558,0,0,1,.4-.256,2.307,2.307,0,0,1,.912.5,7.224,7.224,0,0,1,1.072.912.707.707,0,0,1,.16.32.475.475,0,0,1-.32.416l-.16.1a.8.8,0,0,0-.544.736v1.76q.1,2.72.16,3.968v.16a.687.687,0,0,1-.32.64,2.64,2.64,0,0,1-.736.384,2.414,2.414,0,0,1-.8.16.256.256,0,0,1-.24-.16.932.932,0,0,1-.08-.416.536.536,0,0,0-.176-.416.711.711,0,0,0-.5-.16h-5.856a.9.9,0,0,0-.448.128,3.192,3.192,0,0,1-.384.192,1.446,1.446,0,0,1-.448.128,1.1,1.1,0,0,0-.8.448l-.448.576a.691.691,0,0,0-.192.448q0,.384.576.384Zm-3.712-6.624a.612.612,0,0,0,.672-.672V56.408a.612.612,0,0,0-.672-.672H137.888a.612.612,0,0,0-.672.672V57.5a.612.612,0,0,0,.672.672Zm.672,1.632a.612.612,0,0,0-.672-.672H137.888a.612.612,0,0,0-.672.672v1.056a.612.612,0,0,0,.672.672H149.92a.612.612,0,0,0,.672-.672Zm-12,7.36a1.308,1.308,0,0,0-.368.464q-.08.208.08.272a1.581,1.581,0,0,0,.768.16h10.08q.512,0,.608-.128V67.9q0-.128-.416-.544a8.226,8.226,0,0,1-1.152-1.248,1,1,0,0,0-.832-.416h-6.816a1.036,1.036,0,0,0-.8.352Zm-.352,3.616a.612.612,0,0,0,.672.672h10.24a.612.612,0,0,0,.672-.672v-1.12a.612.612,0,0,0-.672-.672h-10.24a.612.612,0,0,0-.672.672Zm.672,1.632a.612.612,0,0,0-.672.672V74.2a.612.612,0,0,0,.672.672h10.24a.612.612,0,0,0,.672-.672V73.08a.612.612,0,0,0-.672-.672Zm32.7,3.744q-.416,0-.416-.192a.229.229,0,0,1,.176-.224,3.475,3.475,0,0,1,.528-.128,18.8,18.8,0,0,0,7.728-2.752,5.718,5.718,0,0,0,2.64-4.832,4.286,4.286,0,0,0-.848-2.816,2.96,2.96,0,0,0-2.416-1.024,3.848,3.848,0,0,0-2.672,1.152,19.664,19.664,0,0,0-2.768,3.488,2.525,2.525,0,0,1-.848.784,1.909,1.909,0,0,1-.88.336q-2.976,0-2.976-3.552,0-1.5.352-5.792.192-2.5.192-2.592,0-.192-.1-.96a2.016,2.016,0,0,1-.1-.64,1.54,1.54,0,0,1,.288-.976,8.155,8.155,0,0,1,.928-.944,5.721,5.721,0,0,1,1.088-.736q.608-.32,1.568-.736a10.572,10.572,0,0,0,1.312-.592q.416-.24.416-.5,0-.32-.544-.8a7.166,7.166,0,0,0-1.152-.832,2,2,0,0,0-.272-.144q-.176-.08-.176-.176t.4-.144a5.587,5.587,0,0,1,.624-.048,4.646,4.646,0,0,1,2.192.5,3.891,3.891,0,0,1,1.584,1.712,2.027,2.027,0,0,1,.256,1.024,1.513,1.513,0,0,1-.32.976.884.884,0,0,1-.672.4.8.8,0,0,1-.464-.144,3.064,3.064,0,0,0-.272-.176,3.145,3.145,0,0,0-.672-.384,2.272,2.272,0,0,0-.832-.128,5.766,5.766,0,0,0-3.2,1.152,1.651,1.651,0,0,0-.576.64,1.7,1.7,0,0,0-.192.768,1.383,1.383,0,0,0,.224.672,2.725,2.725,0,0,1,.32,1.216q0,.352-.224,2.208-.448,3.744-.448,4.544a4.581,4.581,0,0,0,.272,1.6q.272.736.72.736a1.334,1.334,0,0,0,.624-.208q.368-.208.784-.5t.608-.416a23.823,23.823,0,0,1,3.12-1.952,6.47,6.47,0,0,1,2.96-.7,4.355,4.355,0,0,1,2.56.784,5.368,5.368,0,0,1,1.744,2.032,5.727,5.727,0,0,1,.624,2.592,5.991,5.991,0,0,1-.624,2.656q-.624,1.28-3.328,2.624a27.665,27.665,0,0,1-8.24,2.08A3.917,3.917,0,0,1,171.616,76.152Zm35.616-.512a7.021,7.021,0,0,1-4.08-1.04,5.439,5.439,0,0,1-2.08-3.008,17.732,17.732,0,0,1-.592-5.008q0-3.04.416-7.136.256-2.688.256-3.552a9.915,9.915,0,0,0-.24-2.48,2.311,2.311,0,0,0-1.072-1.392q-.256-.16-.256-.352,0-.352.9-.352a2.56,2.56,0,0,1,2.288.928,4.477,4.477,0,0,1,.624,2.528q0,1.056-.448,4.8a61.889,61.889,0,0,0-.512,7.2,13.913,13.913,0,0,0,.5,4.208,3.643,3.643,0,0,0,1.68,2.144,6.944,6.944,0,0,0,3.328.656q3.84,0,10.176-4.64.064-.032.3-.192a.769.769,0,0,1,.368-.16q.1,0,.1.128,0,.224-.416.64a28.6,28.6,0,0,1-5.552,4.416A11.007,11.007,0,0,1,207.232,75.64Z" transform="translate(488 803.088)" fill="#fff"/>
      <g id="グループ_81" data-name="グループ 81">
        <path id="パス_32325" data-name="パス 32325" d="M14.5,0A14.5,14.5,0,1,1,0,14.5,14.5,14.5,0,0,1,14.5,0Z" transform="translate(695 778)" fill="#fff"/>
        <path id="パス_32324" data-name="パス 32324" d="M30.9,19.736a.336.336,0,0,1,.112.24.307.307,0,0,1-.1.224.363.363,0,0,1-.24.1.336.336,0,0,1-.24-.112L16.352,6.1a.43.43,0,0,1-.112-.24.323.323,0,0,1,.112-.224.307.307,0,0,1,.224-.1.336.336,0,0,1,.24.112Zm14.5-12.16a.46.46,0,0,0,.4-.208l.192-.272q.08-.1.16-.208a2.187,2.187,0,0,1,.16-.2.216.216,0,0,1,.144-.088,1.562,1.562,0,0,1,.584.368,4.623,4.623,0,0,1,.664.624.245.245,0,0,1,.08.176.229.229,0,0,1-.1.176.514.514,0,0,1-.3.08H38.3a.46.46,0,0,0-.4.208,11.317,11.317,0,0,1-2.9,2.9q-.256.192-.352.064a.092.092,0,0,1-.032-.064q0-.1.176-.272a11.712,11.712,0,0,0,1.712-2.192,10.6,10.6,0,0,0,.736-1.408,10.11,10.11,0,0,0,.544-1.5q.08-.24.272-.24a.4.4,0,0,1,.176.032q1.2.48,1.2.656,0,.064-.16.112l-.048.016a.663.663,0,0,0-.352.3l-.288.544a.3.3,0,0,0-.064.192q0,.208.288.208Zm.656,5.824a.46.46,0,0,0,.4-.208l.16-.24a2.3,2.3,0,0,0,.136-.192,1.149,1.149,0,0,1,.152-.192.221.221,0,0,1,.144-.08q.128,0,.52.344a3.5,3.5,0,0,1,.568.6.352.352,0,0,1,.08.192.229.229,0,0,1-.1.176.456.456,0,0,1-.272.08H45.776a.317.317,0,0,0-.352.32q-.176,1.52-.352,2.448v.08q0,.288.3.288h.448a.46.46,0,0,0,.4-.208l.16-.24q.048-.064.136-.2a1.267,1.267,0,0,1,.152-.2A.184.184,0,0,1,46.8,16.1q.128,0,.528.344a3.39,3.39,0,0,1,.576.6.352.352,0,0,1,.08.192.229.229,0,0,1-.1.176.532.532,0,0,1-.288.08H45.2a.38.38,0,0,0-.384.3,4.558,4.558,0,0,1-.8,1.792,2.339,2.339,0,0,1-1.536.688q-.272,0-.352-.32a.63.63,0,0,0-.1-.256,1.343,1.343,0,0,0-.32-.24,4.413,4.413,0,0,0-.96-.288q-.3-.064-.3-.208,0-.064.1-.088a.775.775,0,0,1,.256-.008q1.472.144,1.808.144a1.1,1.1,0,0,0,.368-.048.959.959,0,0,0,.288-.192,1.98,1.98,0,0,0,.48-.9.416.416,0,0,0,.016-.128q0-.256-.3-.256h-6.32a.338.338,0,0,0-.368.288l-.08.32a.452.452,0,0,1-.272.336,1.348,1.348,0,0,1-.24.032,1.367,1.367,0,0,1-.32-.048.292.292,0,0,1-.24-.4q.512-1.92.944-3.776a.275.275,0,0,0,.016-.112q0-.256-.3-.256H35.84a8.551,8.551,0,0,0-1.184.144.355.355,0,0,1-.112.016.318.318,0,0,1-.3-.208l-.064-.128a.426.426,0,0,1-.048-.192.176.176,0,0,1,.08-.152.322.322,0,0,1,.224-.04q.48.048,1.44.08h.592a.338.338,0,0,0,.368-.288,6.171,6.171,0,0,1,.16-.688,23.88,23.88,0,0,0,.416-2.72q.032-.272.224-.272a.4.4,0,0,1,.176.048l.736.352a1.062,1.062,0,0,0,.416.1H44.3a.5.5,0,0,0,.416-.208l.112-.144q.032-.048.112-.152a.806.806,0,0,1,.144-.152.213.213,0,0,1,.128-.048,1.106,1.106,0,0,1,.456.288,3.385,3.385,0,0,1,.536.544.217.217,0,0,1,.064.16.248.248,0,0,1-.176.224l-.112.032a.342.342,0,0,0-.32.352q-.032.416-.032.624-.064,1.04-.112,1.6V13.1q0,.3.32.3Zm-8.208-.272a.244.244,0,0,0,.088.2.355.355,0,0,0,.232.072h2.048a.322.322,0,0,0,.352-.3q.128-.7.384-2.352V10.68q0-.288-.32-.288h-1.9q-.3,0-.352.224l-.512,2.416Zm3.728-.016q0,.288.3.288h2.3a.317.317,0,0,0,.352-.32q.08-.864.16-2.336v-.032q0-.32-.336-.32H42.3a.322.322,0,0,0-.352.3l-.384,2.336Zm-4.56,3.632a.244.244,0,0,0,.088.2.355.355,0,0,0,.232.072h2.224a.338.338,0,0,0,.368-.288l.352-1.824q.08-.48.112-.656v-.08q0-.288-.3-.288H37.968a.338.338,0,0,0-.368.288l-.576,2.48Zm7.392-2.56q0-.3-.32-.3H41.728a.322.322,0,0,0-.352.3q-.24,1.424-.464,2.464l-.016.1a.244.244,0,0,0,.088.2.355.355,0,0,0,.232.072h2.448q.3,0,.352-.208a20.631,20.631,0,0,0,.384-2.576ZM55.3,18.7a.306.306,0,0,0-.336.336q.016.16.016.352l.016.176a.362.362,0,0,1-.08.24.921.921,0,0,1-.336.232,1.18,1.18,0,0,1-.464.088.321.321,0,0,1-.232-.1.306.306,0,0,1-.1-.216q.064-.944.112-1.832t.064-2.328V9.816a24.606,24.606,0,0,0-.144-2.8V6.952a.291.291,0,0,1,.056-.184A.167.167,0,0,1,54,6.7a.4.4,0,0,1,.176.048l.688.336a.856.856,0,0,0,.416.1h6.432a.46.46,0,0,0,.4-.208l.112-.144q.032-.048.112-.152a.806.806,0,0,1,.144-.152.213.213,0,0,1,.128-.048,1.319,1.319,0,0,1,.5.288A3.366,3.366,0,0,1,63.7,7.3a.275.275,0,0,1,.064.176.263.263,0,0,1-.144.208,1.242,1.242,0,0,1-.16.064.393.393,0,0,0-.288.384v7.648q.032,1.744.112,3.52v.08a.343.343,0,0,1-.16.32,1.614,1.614,0,0,1-.408.24,1.152,1.152,0,0,1-.44.1.176.176,0,0,1-.176-.128.262.262,0,0,1-.032-.144,2.1,2.1,0,0,1,.032-.24q0-.032.032-.384v-.112a.306.306,0,0,0-.336-.336Zm6.5-6.1a.306.306,0,0,0,.336-.336V7.976a.306.306,0,0,0-.336-.336H55.3a.306.306,0,0,0-.336.336v4.288a.306.306,0,0,0,.336.336Zm-6.5.464a.306.306,0,0,0-.336.336v4.5a.306.306,0,0,0,.336.336h6.5a.306.306,0,0,0,.336-.336V13.4a.306.306,0,0,0-.336-.336ZM76.224,7.848A6.99,6.99,0,0,1,78.9,8.4a5.335,5.335,0,0,1,2.264,1.776,5.064,5.064,0,0,1,.92,3.128,4.743,4.743,0,0,1-1.528,3.808,7.541,7.541,0,0,1-3.264,1.7,13.628,13.628,0,0,1-2.9.392q-.224,0-.224-.08,0-.1.64-.208a9.731,9.731,0,0,0,4.448-1.84,4.623,4.623,0,0,0,1.712-3.84,4.949,4.949,0,0,0-.728-2.792,4.329,4.329,0,0,0-1.848-1.6,5.631,5.631,0,0,0-2.336-.5.5.5,0,0,0-.2.176.265.265,0,0,0-.04.224,5.7,5.7,0,0,1,.2.864,5.483,5.483,0,0,1,.072.832,7.886,7.886,0,0,1-.576,2.72A12.555,12.555,0,0,1,74.3,15.632a7.262,7.262,0,0,1-1.312,1.584,1.813,1.813,0,0,1-1.016.536,1.447,1.447,0,0,1-1.08-.568,4.1,4.1,0,0,1-.8-1.5,6.332,6.332,0,0,1-.3-1.936,5.379,5.379,0,0,1,.912-3.08,6.109,6.109,0,0,1,2.4-2.088A6.95,6.95,0,0,1,76.224,7.848ZM75.568,9.64a4.5,4.5,0,0,0-.1-.944.3.3,0,0,0-.384-.256,5.478,5.478,0,0,0-2.176.928,5.188,5.188,0,0,0-1.584,1.808,5.13,5.13,0,0,0-.592,2.464,4.742,4.742,0,0,0,.232,1.6,2.735,2.735,0,0,0,.52.944q.288.3.464.3a1.483,1.483,0,0,0,.952-.6,9.261,9.261,0,0,0,1.016-1.336,11.081,11.081,0,0,0,1.272-2.568A7.661,7.661,0,0,0,75.568,9.64ZM98.08,7.112a.46.46,0,0,0,.4-.208l.192-.256.152-.2a2.126,2.126,0,0,1,.168-.2.184.184,0,0,1,.128-.064,1,1,0,0,1,.4.24,5.79,5.79,0,0,1,.568.512q.264.272.264.384-.016.256-.4.256H96.3a.306.306,0,0,0-.336.336v.464q0,.064-.248.16a1.864,1.864,0,0,1-.584.112.2.2,0,0,1-.176-.112.4.4,0,0,1-.048-.176,1.348,1.348,0,0,1,.032-.224l.032-.192V7.912a.306.306,0,0,0-.336-.336H92.08q-.336,0-.336.288a1.826,1.826,0,0,1,.016.256v.128a.337.337,0,0,1-.128.288,1.467,1.467,0,0,1-.72.16.186.186,0,0,1-.16-.112.4.4,0,0,1-.048-.176,2.1,2.1,0,0,1,.032-.24V8.152a1.066,1.066,0,0,0,.032-.384.161.161,0,0,0-.088-.136.462.462,0,0,0-.248-.056H89.088a17.235,17.235,0,0,0-2.112.176h-.1a.329.329,0,0,1-.32-.224L86.5,7.416a.4.4,0,0,1-.048-.176q0-.24.32-.208.544.048,1.664.08h2a.3.3,0,0,0,.336-.336l-.048-.848V5.9q0-.288.24-.288l.144.032a6.352,6.352,0,0,1,.808.312q.232.12.232.216,0,.08-.128.16l-.048.032a.451.451,0,0,0-.224.4v.016a.306.306,0,0,0,.336.336h2.56a.3.3,0,0,0,.336-.336l-.048-.848V5.9q0-.288.24-.288l.144.032a6.754,6.754,0,0,1,.832.312q.24.12.24.216,0,.08-.144.16l-.048.032a.451.451,0,0,0-.224.4v.016a.306.306,0,0,0,.336.336Zm.128,6.784a.46.46,0,0,0,.4-.208l.16-.224q.064-.08.152-.2a1.636,1.636,0,0,1,.152-.184.184.184,0,0,1,.128-.064,1.392,1.392,0,0,1,.544.32,3.794,3.794,0,0,1,.624.576.352.352,0,0,1,.08.192.229.229,0,0,1-.1.176.477.477,0,0,1-.288.064h-3.5a.386.386,0,0,0-.224.056.163.163,0,0,0-.08.136.27.27,0,0,0,.16.224,11.057,11.057,0,0,0,1.832.9,15.431,15.431,0,0,0,2.056.64q.3.08.3.144-.016.048-.112.1a1.054,1.054,0,0,0-.16.1.971.971,0,0,0-.4.448q-.1.24-.288.24a.508.508,0,0,1-.144-.032,12.4,12.4,0,0,1-1.808-.9.3.3,0,0,0-.192-.064q-.208,0-.208.288v.768q.048,1.456.08,2.144v.08a.344.344,0,0,1-.16.32,1.655,1.655,0,0,1-.376.192,1.108,1.108,0,0,1-.376.08.128.128,0,0,1-.12-.088.616.616,0,0,1-.04-.248v-.128a.306.306,0,0,0-.336-.336h-5.12a.306.306,0,0,0-.336.336v.16q0,.1-.24.232a1.117,1.117,0,0,1-.56.136.266.266,0,0,1-.2-.1.321.321,0,0,1-.088-.224q.1-1.248.128-2.5V16.52a.355.355,0,0,0-.056-.208.163.163,0,0,0-.136-.08.428.428,0,0,0-.208.08,10.717,10.717,0,0,1-2.416,1.28.531.531,0,0,1-.208.048.169.169,0,0,1-.144-.064.065.065,0,0,1-.016-.048q0-.112.256-.224a12.617,12.617,0,0,0,3.3-2.544.323.323,0,0,0,.112-.224.163.163,0,0,0-.08-.136.386.386,0,0,0-.224-.056h-.72a17.235,17.235,0,0,0-2.112.176h-.1a.329.329,0,0,1-.32-.208l-.064-.112a.426.426,0,0,1-.048-.192.176.176,0,0,1,.08-.152.322.322,0,0,1,.224-.04q.544.048,1.648.08H90.4a.46.46,0,0,0,.4-.208,2.974,2.974,0,0,0,.216-.3,2.036,2.036,0,0,1,.168-.24.3.3,0,0,0,.064-.192q0-.208-.3-.208h-.608q-.336,0-.336.288,0,.08-.28.2a1.43,1.43,0,0,1-.568.12.2.2,0,0,1-.176-.1.394.394,0,0,1-.064-.224q.048-.448.064-.9l.016-.432v-.832q0-1.136-.1-2.1V8.712a.258.258,0,0,1,.056-.176.174.174,0,0,1,.136-.064.4.4,0,0,1,.176.048l.64.288a.985.985,0,0,0,.416.1H96.3a.46.46,0,0,0,.4-.208l.08-.1q.048-.048.152-.176a.279.279,0,0,1,.2-.128,1.154,1.154,0,0,1,.456.248A3.612,3.612,0,0,1,98.128,9a.354.354,0,0,1,.08.16.238.238,0,0,1-.16.208l-.08.048a.4.4,0,0,0-.272.368v.88q.048,1.36.08,1.984v.08a.344.344,0,0,1-.16.32,1.32,1.32,0,0,1-.368.192,1.207,1.207,0,0,1-.4.08.128.128,0,0,1-.12-.08.466.466,0,0,1-.04-.208.268.268,0,0,0-.088-.208.356.356,0,0,0-.248-.08H93.424a.448.448,0,0,0-.224.064,1.6,1.6,0,0,1-.192.1.723.723,0,0,1-.224.064.552.552,0,0,0-.4.224l-.224.288a.346.346,0,0,0-.1.224q0,.192.288.192Zm-1.856-3.312a.306.306,0,0,0,.336-.336V9.7a.306.306,0,0,0-.336-.336H90.336A.306.306,0,0,0,90,9.7v.544a.306.306,0,0,0,.336.336Zm.336.816a.306.306,0,0,0-.336-.336H90.336A.306.306,0,0,0,90,11.4v.528a.306.306,0,0,0,.336.336h6.016a.306.306,0,0,0,.336-.336Zm-6,3.68a.654.654,0,0,0-.184.232q-.04.1.04.136a.791.791,0,0,0,.384.08h5.04q.256,0,.3-.064v-.016q0-.064-.208-.272a4.113,4.113,0,0,1-.576-.624.5.5,0,0,0-.416-.208H91.664a.518.518,0,0,0-.4.176Zm-.176,1.808a.306.306,0,0,0,.336.336h5.12a.306.306,0,0,0,.336-.336v-.56a.306.306,0,0,0-.336-.336h-5.12a.306.306,0,0,0-.336.336Zm.336.816a.306.306,0,0,0-.336.336v.56a.306.306,0,0,0,.336.336h5.12A.306.306,0,0,0,96.3,18.6v-.56a.306.306,0,0,0-.336-.336Zm17.792,1.872q-.208,0-.208-.1a.115.115,0,0,1,.088-.112,1.738,1.738,0,0,1,.264-.064,9.4,9.4,0,0,0,3.864-1.376,2.859,2.859,0,0,0,1.32-2.416,2.143,2.143,0,0,0-.424-1.408,1.48,1.48,0,0,0-1.208-.512,1.924,1.924,0,0,0-1.336.576,9.832,9.832,0,0,0-1.384,1.744,1.263,1.263,0,0,1-.424.392.955.955,0,0,1-.44.168q-1.488,0-1.488-1.776,0-.752.176-2.9.1-1.248.1-1.3,0-.1-.048-.48a1.008,1.008,0,0,1-.048-.32.77.77,0,0,1,.144-.488,4.078,4.078,0,0,1,.464-.472,2.86,2.86,0,0,1,.544-.368q.3-.16.784-.368a5.286,5.286,0,0,0,.656-.3q.208-.12.208-.248,0-.16-.272-.4a3.583,3.583,0,0,0-.576-.416,1,1,0,0,0-.136-.072q-.088-.04-.088-.088t.2-.072a2.793,2.793,0,0,1,.312-.024,2.323,2.323,0,0,1,1.1.248,1.946,1.946,0,0,1,.792.856,1.013,1.013,0,0,1,.128.512.757.757,0,0,1-.16.488.442.442,0,0,1-.336.2.4.4,0,0,1-.232-.072,1.532,1.532,0,0,0-.136-.088,1.573,1.573,0,0,0-.336-.192,1.136,1.136,0,0,0-.416-.064,2.883,2.883,0,0,0-1.6.576.826.826,0,0,0-.288.32.852.852,0,0,0-.1.384.691.691,0,0,0,.112.336,1.362,1.362,0,0,1,.16.608q0,.176-.112,1.1-.224,1.872-.224,2.272a2.29,2.29,0,0,0,.136.8q.136.368.36.368a.667.667,0,0,0,.312-.1q.184-.1.392-.248t.3-.208a11.912,11.912,0,0,1,1.56-.976,3.235,3.235,0,0,1,1.48-.352,2.177,2.177,0,0,1,1.28.392,2.684,2.684,0,0,1,.872,1.016,2.863,2.863,0,0,1,.312,1.3,3,3,0,0,1-.312,1.328,3.57,3.57,0,0,1-1.664,1.312,13.833,13.833,0,0,1-4.12,1.04A1.959,1.959,0,0,1,108.64,19.576Zm19.248-.256a3.51,3.51,0,0,1-2.04-.52,2.72,2.72,0,0,1-1.04-1.5,8.866,8.866,0,0,1-.3-2.5q0-1.52.208-3.568.128-1.344.128-1.776a4.957,4.957,0,0,0-.12-1.24,1.156,1.156,0,0,0-.536-.7q-.128-.08-.128-.176,0-.176.448-.176a1.28,1.28,0,0,1,1.144.464,2.239,2.239,0,0,1,.312,1.264q0,.528-.224,2.4a30.945,30.945,0,0,0-.256,3.6,6.956,6.956,0,0,0,.248,2.1,1.822,1.822,0,0,0,.84,1.072,3.472,3.472,0,0,0,1.664.328q1.92,0,5.088-2.32.032-.016.152-.1a.384.384,0,0,1,.184-.08q.048,0,.048.064,0,.112-.208.32a14.3,14.3,0,0,1-2.776,2.208A5.5,5.5,0,0,1,127.888,19.32Zm22-9.44a1.431,1.431,0,0,1,.936.336,1.1,1.1,0,0,1,.408.9,1.523,1.523,0,0,1-.624,1.224,7.391,7.391,0,0,1-1.7.968l-1.216.48q-.3.128-.632.256t-.68.272a.444.444,0,0,0-.272.384q-.016.256-.016.784,0,1.136-.016,1.28a.588.588,0,0,1-.2.408.574.574,0,0,1-.392.168.425.425,0,0,1-.336-.176.615.615,0,0,1-.144-.4,5.5,5.5,0,0,1,.048-.576l.064-.768v-.032q0-.288-.208-.288a.3.3,0,0,0-.192.064,4.255,4.255,0,0,0-1.136.952,1.748,1.748,0,0,0-.4,1.112q0,1.216,2.432,1.216a4.57,4.57,0,0,0,.752-.064q.384-.064.72-.144a4.865,4.865,0,0,1,.992-.144q.624,0,.624.432,0,.48-.9.672a8.913,8.913,0,0,1-1.872.192,4.205,4.205,0,0,1-2.672-.6,1.89,1.89,0,0,1-.672-1.464,2.126,2.126,0,0,1,.616-1.512,6.987,6.987,0,0,1,1.736-1.256.456.456,0,0,0,.256-.384v-.24q0-1.68-.992-1.68a1.736,1.736,0,0,0-1.208.688,16.823,16.823,0,0,0-1.224,1.5q-.048.064-.224.328a2.8,2.8,0,0,1-.336.424.437.437,0,0,1-.272.16.475.475,0,0,1-.416-.208.85.85,0,0,1-.144-.5.827.827,0,0,1,.176-.576l.288-.256q.512-.48.88-.864a4.61,4.61,0,0,0,.656-.88,15.052,15.052,0,0,0,1.168-2.528.485.485,0,0,0,.016-.144q0-.24-.336-.192a6.791,6.791,0,0,1-.768.064,2.065,2.065,0,0,1-.9-.176,5.041,5.041,0,0,1-.88-.576.129.129,0,0,1-.064-.1q0-.064.08-.064a.932.932,0,0,1,.224.048,3.073,3.073,0,0,0,1.088.192,5.642,5.642,0,0,0,1.664-.272.484.484,0,0,0,.32-.352,3.692,3.692,0,0,0,.048-.528,1.274,1.274,0,0,0-.5-1.04.173.173,0,0,1-.08-.128.229.229,0,0,1,.256-.24,2.875,2.875,0,0,1,.544.1.925.925,0,0,1,.5.224.568.568,0,0,1,.08.352v.032q0,.336.224.416a1.915,1.915,0,0,0,.432.048.9.9,0,0,0,.336-.048,1.628,1.628,0,0,1,.32-.032q.368,0,.368.272a.715.715,0,0,1-.248.464,2.383,2.383,0,0,1-.616.448,7.9,7.9,0,0,1-1.088.5.584.584,0,0,0-.32.336q-.384,1.248-.848,2.384a.486.486,0,0,0-.048.176.113.113,0,0,0,.128.128l.144-.032a1.729,1.729,0,0,1,.48-.08,1.658,1.658,0,0,1,1.712,1.232q.08.176.128.176.064,0,.128-.16a7.117,7.117,0,0,1,1.28-1.84,4.394,4.394,0,0,1,1.184-.88A2.905,2.905,0,0,1,149.888,9.88Zm-5.04-2.5q-.064,0-.144.256,0,.256.1.192l.16-.1q.112-.064.112-.128t-.128-.16l-.08-.064Zm3.68,5.344a5.244,5.244,0,0,0,1.272-1.016,1.561,1.561,0,0,0,.488-.9q0-.464-.608-.464a2.136,2.136,0,0,0-.992.3,4.517,4.517,0,0,0-1.04.784,4.563,4.563,0,0,0-.656.864,9.349,9.349,0,0,0-.56,1.072l-.192.512V13.9l.208-.1.336-.16Q148.08,13,148.528,12.728Zm14.96-.736a6.8,6.8,0,0,1,2.7,2.024,4.212,4.212,0,0,1,.968,2.6,2.9,2.9,0,0,1-.488,1.664,3.2,3.2,0,0,1-1.288,1.1,3.905,3.905,0,0,1-1.712.384,2.531,2.531,0,0,1-2.28-1,4.652,4.652,0,0,1-.664-2.616v-.784a.342.342,0,0,0-.256-.336q-.976-.432-.976-1.1,0-.912,1.44-2.208a.71.71,0,0,0,.224-.384l.176-1.008a.275.275,0,0,0,.016-.112.35.35,0,0,0-.24-.32,6.744,6.744,0,0,1-.832-.424,3.149,3.149,0,0,1-.592-.44l-.1-.1a.176.176,0,0,1-.064-.112.085.085,0,0,1,.1-.1,1.338,1.338,0,0,1,.224.064,5.429,5.429,0,0,0,.776.208q.472.1.6.128a.275.275,0,0,0,.112.016q.24,0,.288-.288a7.416,7.416,0,0,0,.144-1.344,2.492,2.492,0,0,0-.176-.976,1.992,1.992,0,0,0-.384-.608.262.262,0,0,1-.1-.16q0-.112.176-.112a1.123,1.123,0,0,1,.432.112,1.916,1.916,0,0,1,.48.3,1.385,1.385,0,0,1,.576,1.072,1.521,1.521,0,0,1-.064.416q-.064.224-.208.592-.144.352-.288.816a.485.485,0,0,0-.016.144q0,.224.256.272a6.521,6.521,0,0,1,.64.208.961.961,0,0,1,.456.368.869.869,0,0,1,.152.464.434.434,0,0,1-.128.32.467.467,0,0,1-.288.144,3.525,3.525,0,0,0-1.424.448.589.589,0,0,0-.256.368,23.3,23.3,0,0,0-.288,2.336l-.016.128q0,.192.144.224a9.106,9.106,0,0,0,1.2.064,1.8,1.8,0,0,1,.7.112.44.44,0,0,1,.256.448.346.346,0,0,1-.248.368,1.849,1.849,0,0,1-.568.08,7.459,7.459,0,0,1-1.168-.112.76.76,0,0,0-.176-.016q-.192,0-.192.1a5.556,5.556,0,0,0,.472,2.544,1.891,1.891,0,0,0,1.848.9,2.644,2.644,0,0,0,1.28-.312,2.341,2.341,0,0,0,.92-.9,2.689,2.689,0,0,0,.344-1.376,3.825,3.825,0,0,0-.784-2.168,7.475,7.475,0,0,0-2-1.944q-.192-.128-.192-.208,0-.048.08-.048A.635.635,0,0,1,163.488,11.992Zm-1.584-1.76-.032.128a.759.759,0,0,0-.016.176.41.41,0,0,0,.064.256.106.106,0,0,0,.16.016q.256-.224.256-.32,0-.064-.1-.12a.771.771,0,0,0-.184-.08.754.754,0,0,1-.12-.04Zm-1.84,3.36a.543.543,0,0,0,.336.5.377.377,0,0,0,.16.048q.224,0,.256-.3.032-.448.128-1.152.032-.224-.16-.224-.208,0-.432.336A1.528,1.528,0,0,0,160.064,13.592ZM178.8,19.32a.17.17,0,0,1-.112-.04.114.114,0,0,1-.048-.088q0-.144.208-.16a7.936,7.936,0,0,0,2.752-.72,5.659,5.659,0,0,0,1.976-1.472,2.872,2.872,0,0,0,.728-1.856,2.266,2.266,0,0,0-.328-1.248,2.152,2.152,0,0,0-.848-.776,2.357,2.357,0,0,0-1.08-.264,4.245,4.245,0,0,0-2.184.664,11.41,11.41,0,0,0-1.72,1.208,8.614,8.614,0,0,1-.808.624,1.28,1.28,0,0,1-.712.24,2.181,2.181,0,0,1-1.248-.624q-.224-.176-.224-.3,0-.144.176-.144a2.787,2.787,0,0,1,.328.032,3.226,3.226,0,0,0,.44.032,1.624,1.624,0,0,0,.712-.184q.376-.184,1.112-.6a15.05,15.05,0,0,1,2.008-1.048,5.011,5.011,0,0,1,1.944-.376,3.745,3.745,0,0,1,1.592.36,3.121,3.121,0,0,1,1.264,1.056,2.811,2.811,0,0,1,.488,1.656,3.461,3.461,0,0,1-.384,1.464,4.036,4.036,0,0,1-1.752,1.576,10,10,0,0,1-4.008.976Zm19.952.032a5.813,5.813,0,0,1-2.648-.576,2.162,2.162,0,0,1-1.144-2.128,3.969,3.969,0,0,1,2.032-3.28.27.27,0,0,0,.16-.224.351.351,0,0,0-.128-.224,2.409,2.409,0,0,1-.664-.944,3.731,3.731,0,0,1-.2-1.312,8.7,8.7,0,0,1,.224-1.84,6.5,6.5,0,0,0,.176-1.36,1.741,1.741,0,0,0-.08-.576,1.123,1.123,0,0,0-.272-.416q-.112-.112-.216-.2t-.1-.12q0-.1.224-.1a1.623,1.623,0,0,1,.384.056,1.884,1.884,0,0,1,.384.136,1.394,1.394,0,0,1,.584.48,1.393,1.393,0,0,1,.168.736,2.266,2.266,0,0,1-.064.536q-.064.264-.144.5t-.112.312q-.016.048-.128.352a3.719,3.719,0,0,0-.24.7,3.857,3.857,0,0,0-.08.856,2.75,2.75,0,0,0,.152.9,2.2,2.2,0,0,0,.392.72.669.669,0,0,0,.5.28,1.494,1.494,0,0,0,.48-.112q.3-.112.608-.256a2.68,2.68,0,0,1,.848-.3,1.126,1.126,0,0,1,.6.184q.3.184.3.376a.442.442,0,0,1-.224.416,2.231,2.231,0,0,1-.7.208,9.678,9.678,0,0,0-2.752.944,2.4,2.4,0,0,0-1.328,2.32,1.815,1.815,0,0,0,.608,1.392,2.611,2.611,0,0,0,1.824.56,5.464,5.464,0,0,0,.832-.064q.416-.064.5-.08a7.07,7.07,0,0,1,1.04-.128q.9,0,.9.528,0,.368-.72.56A7.881,7.881,0,0,1,198.752,19.352Zm23.44-11.936a.451.451,0,0,0,.4-.224l.1-.144.16-.216q.112-.152.208-.152a1.181,1.181,0,0,1,.472.3,4.041,4.041,0,0,1,.568.552.275.275,0,0,1,.064.176.263.263,0,0,1-.144.208.627.627,0,0,0-.144.064.367.367,0,0,0-.288.368V9.752q.048,2.048.1,3.04v.08a.336.336,0,0,1-.176.32,1.708,1.708,0,0,1-.368.192,1.044,1.044,0,0,1-.368.08.128.128,0,0,1-.12-.088.615.615,0,0,1-.04-.248.306.306,0,0,0-.336-.336h-2.448a.306.306,0,0,0-.336.336v.144q0,.08-.264.208a1.217,1.217,0,0,1-.536.128.242.242,0,0,1-.192-.1.339.339,0,0,1-.08-.224q.064-.736.112-2V10.12a25.033,25.033,0,0,0-.144-2.816V7.24a.258.258,0,0,1,.056-.176A.174.174,0,0,1,218.576,7a.4.4,0,0,1,.176.048l.624.272a1.062,1.062,0,0,0,.416.1h.128a.343.343,0,0,0,.368-.3,8.129,8.129,0,0,0,.16-1.328q0-.368.384-.288,1.2.224,1.2.416,0,.064-.144.144l-.08.048a.874.874,0,0,0-.32.272q-.128.208-.448.624a.428.428,0,0,0-.08.208.176.176,0,0,0,.08.152.355.355,0,0,0,.208.056Zm3.76-.688a.288.288,0,0,1,.256-.192.366.366,0,0,1,.208.08l.4.3q.032.032.352.24.448.272.448.384,0,.064-.16.064h-.08a.726.726,0,0,0-.368.128q-.624.5-2.528,1.792a.513.513,0,0,1-.208.1q-.1.016-.128-.032a.13.13,0,0,1-.032-.1.245.245,0,0,1,.08-.176l.144-.176q.448-.544.888-1.2A12.357,12.357,0,0,0,225.952,6.728Zm-11.088.416q-.208-.192-.208-.288,0-.064.112-.064a.79.79,0,0,1,.24.048,4.7,4.7,0,0,1,1.96,1.024,1.746,1.746,0,0,1,.632,1.184.652.652,0,0,1-.136.424.44.44,0,0,1-.36.168.446.446,0,0,1-.192-.032.474.474,0,0,1-.288-.272,4.974,4.974,0,0,0-.712-1.112A8.388,8.388,0,0,0,214.864,7.144Zm7.408,2.688a.306.306,0,0,0,.336-.336V8.216a.306.306,0,0,0-.336-.336h-2.448a.306.306,0,0,0-.336.336V9.5a.306.306,0,0,0,.336.336Zm-2.448.464a.306.306,0,0,0-.336.336v1.36a.306.306,0,0,0,.336.336h2.448a.306.306,0,0,0,.336-.336v-1.36a.306.306,0,0,0-.336-.336Zm4.352.432q-.288-.176-.24-.272a.23.23,0,0,1,.192-.064.673.673,0,0,1,.16.016,7.712,7.712,0,0,1,2.072.656,3.706,3.706,0,0,1,1.176.864,1.355,1.355,0,0,1,.368.832.514.514,0,0,1-.136.368.453.453,0,0,1-.344.144h-.08a.441.441,0,0,1-.184-.064.745.745,0,0,1-.152-.144,6.508,6.508,0,0,0-1.216-1.216A13.76,13.76,0,0,0,224.176,10.728Zm-9.872,1.92a.428.428,0,0,1-.08-.208q0-.16.208-.256,1.312-.528,3.5-1.632.3-.176.352-.064l.016.048q0,.112-.192.256-1.36,1.152-2.72,2.176-.192.144-.208.208a.178.178,0,0,1-.016.08.188.188,0,0,1-.192.144.248.248,0,0,1-.136-.048.483.483,0,0,1-.12-.112l-.208-.288Zm11.312,2.3a.46.46,0,0,0,.4-.208l.208-.288q.064-.08.168-.216a2.159,2.159,0,0,1,.176-.208.2.2,0,0,1,.136-.072,1.593,1.593,0,0,1,.592.384,4.394,4.394,0,0,1,.672.656.346.346,0,0,1,.08.176.245.245,0,0,1-.08.176.562.562,0,0,1-.3.08h-4.992a.386.386,0,0,0-.224.056.163.163,0,0,0-.08.136.351.351,0,0,0,.128.224,10.6,10.6,0,0,0,2.48,1.64,15.4,15.4,0,0,0,2.96,1.1q.3.1.3.16a.168.168,0,0,1-.112.1q-.1.04-.16.072a1,1,0,0,0-.512.512q-.1.24-.288.24a.508.508,0,0,1-.144-.032A12.05,12.05,0,0,1,224.072,18a10.3,10.3,0,0,1-2.28-2.344q-.128-.224-.192-.224h-.048V16.92q.048,1.776.1,2.64v.1a.394.394,0,0,1-.144.3,1.187,1.187,0,0,1-.368.184,1.41,1.41,0,0,1-.432.072.326.326,0,0,1-.24-.1.307.307,0,0,1-.1-.224q.1-1.312.128-2.656v-.9q0-.272-.176-.272a.309.309,0,0,0-.224.128,11.894,11.894,0,0,1-2.552,2.024,17.177,17.177,0,0,1-3.24,1.5.768.768,0,0,1-.224.048q-.112,0-.128-.064v-.032q0-.112.24-.24a16.189,16.189,0,0,0,2.64-1.616,13.562,13.562,0,0,0,2.128-1.968.4.4,0,0,0,.1-.224q0-.192-.288-.192H216.7a17.235,17.235,0,0,0-2.112.176h-.1a.329.329,0,0,1-.32-.208l-.08-.144a.4.4,0,0,1-.048-.176q0-.24.32-.208.544.048,1.648.08h4.144a.3.3,0,0,0,.336-.336l-.048-.864V13.72q0-.272.224-.272a.356.356,0,0,1,.16.032,5.968,5.968,0,0,1,.872.32q.248.128.248.224,0,.08-.128.16l-.048.032a.451.451,0,0,0-.224.4.306.306,0,0,0,.336.336Zm18.048,4.368a3.51,3.51,0,0,1-2.04-.52,2.72,2.72,0,0,1-1.04-1.5,8.866,8.866,0,0,1-.3-2.5q0-1.52.208-3.568.128-1.344.128-1.776a4.957,4.957,0,0,0-.12-1.24,1.156,1.156,0,0,0-.536-.7q-.128-.08-.128-.176,0-.176.448-.176a1.28,1.28,0,0,1,1.144.464,2.239,2.239,0,0,1,.312,1.264q0,.528-.224,2.4a30.943,30.943,0,0,0-.256,3.6,6.956,6.956,0,0,0,.248,2.1,1.822,1.822,0,0,0,.84,1.072,3.472,3.472,0,0,0,1.664.328q1.92,0,5.088-2.32.032-.016.152-.1a.384.384,0,0,1,.184-.08q.048,0,.048.064,0,.112-.208.32a14.3,14.3,0,0,1-2.776,2.208A5.5,5.5,0,0,1,243.664,19.32Zm18.624.432a.553.553,0,0,1-.512-.344,8.028,8.028,0,0,1-.416-1.08,18.927,18.927,0,0,0-.832-2.248,14.923,14.923,0,0,0-.88-1.544q-.08-.128-.352-.544a3.891,3.891,0,0,1-.368-.664,1.273,1.273,0,0,1-.1-.456,1.5,1.5,0,0,1,.152-.608,7.844,7.844,0,0,1,.52-.912,24.549,24.549,0,0,0,1.92-3.568,1.988,1.988,0,0,0,.16-.672.584.584,0,0,0-.16-.432,2.116,2.116,0,0,0-.28-.224q-.184-.128-.184-.192,0-.1.208-.1a1.953,1.953,0,0,1,.608.136,2.633,2.633,0,0,1,.688.36.766.766,0,0,1,.352.64,1.6,1.6,0,0,1-.128.528,7.809,7.809,0,0,1-.488.992,8.955,8.955,0,0,1-.808,1.1q-1.168,1.424-1.872,2.432a.85.85,0,0,0-.176.512.782.782,0,0,0,.224.512A20.832,20.832,0,0,1,261.7,16.24a5.638,5.638,0,0,1,1.048,2.888.821.821,0,0,1-.112.448A.387.387,0,0,1,262.288,19.752Zm14.688-3.328a.185.185,0,0,1-.136-.056.228.228,0,0,1-.056-.168.755.755,0,0,1,.1-.32q.944-1.792,1.552-3.128t1.2-2.776q.448-1.072.736-1.7a13.207,13.207,0,0,1,.64-1.216,1.747,1.747,0,0,1,.56-.6,1.2,1.2,0,0,1,.64-.2.876.876,0,0,1,.672.3,1.079,1.079,0,0,1,.272.76,1.713,1.713,0,0,1-.24.832q-.288.5-.68,1.056t-.672.928q-.28.368-.424.56-1.072,1.392-1.9,2.552t-1.912,2.888Q277.152,16.424,276.976,16.424Zm-1.3,3.152a.976.976,0,0,1-.728-.3,1.016,1.016,0,0,1-.3-.736,1.036,1.036,0,0,1,.3-.752.976.976,0,0,1,.728-.3,1.038,1.038,0,0,1,1.056,1.056,1,1,0,0,1-.3.736A1.021,1.021,0,0,1,275.68,19.576ZM303.648,5.64a.307.307,0,0,1,.1.224.336.336,0,0,1-.112.24l-14.08,14.08a.336.336,0,0,1-.24.112.307.307,0,0,1-.224-.1.323.323,0,0,1-.112-.224.43.43,0,0,1,.112-.24l14.08-14.08a.336.336,0,0,1,.24-.112A.363.363,0,0,1,303.648,5.64Z" transform="translate(488 780)" fill="#fff"/>
        <path id="パス_32326" data-name="パス 32326" d="M222.192,7.416a.451.451,0,0,0,.4-.224l.1-.144.16-.216q.112-.152.208-.152a1.181,1.181,0,0,1,.472.3,4.041,4.041,0,0,1,.568.552.275.275,0,0,1,.064.176.263.263,0,0,1-.144.208.627.627,0,0,0-.144.064.367.367,0,0,0-.288.368V9.752q.048,2.048.1,3.04v.08a.336.336,0,0,1-.176.32,1.708,1.708,0,0,1-.368.192,1.044,1.044,0,0,1-.368.08.128.128,0,0,1-.12-.088.615.615,0,0,1-.04-.248.306.306,0,0,0-.336-.336h-2.448a.306.306,0,0,0-.336.336v.144q0,.08-.264.208a1.217,1.217,0,0,1-.536.128.242.242,0,0,1-.192-.1.339.339,0,0,1-.08-.224q.064-.736.112-2V10.12a25.033,25.033,0,0,0-.144-2.816V7.24a.258.258,0,0,1,.056-.176A.174.174,0,0,1,218.576,7a.4.4,0,0,1,.176.048l.624.272a1.062,1.062,0,0,0,.416.1h.128a.343.343,0,0,0,.368-.3,8.129,8.129,0,0,0,.16-1.328q0-.368.384-.288,1.2.224,1.2.416,0,.064-.144.144l-.08.048a.874.874,0,0,0-.32.272q-.128.208-.448.624a.428.428,0,0,0-.08.208.176.176,0,0,0,.08.152.355.355,0,0,0,.208.056Zm3.76-.688a.288.288,0,0,1,.256-.192.366.366,0,0,1,.208.08l.4.3q.032.032.352.24.448.272.448.384,0,.064-.16.064h-.08a.726.726,0,0,0-.368.128q-.624.5-2.528,1.792a.513.513,0,0,1-.208.1q-.1.016-.128-.032a.13.13,0,0,1-.032-.1.245.245,0,0,1,.08-.176l.144-.176q.448-.544.888-1.2A12.357,12.357,0,0,0,225.952,6.728Zm-11.088.416q-.208-.192-.208-.288,0-.064.112-.064a.79.79,0,0,1,.24.048,4.7,4.7,0,0,1,1.96,1.024,1.746,1.746,0,0,1,.632,1.184.652.652,0,0,1-.136.424.44.44,0,0,1-.36.168.446.446,0,0,1-.192-.032.474.474,0,0,1-.288-.272,4.974,4.974,0,0,0-.712-1.112A8.388,8.388,0,0,0,214.864,7.144Zm7.408,2.688a.306.306,0,0,0,.336-.336V8.216a.306.306,0,0,0-.336-.336h-2.448a.306.306,0,0,0-.336.336V9.5a.306.306,0,0,0,.336.336Zm-2.448.464a.306.306,0,0,0-.336.336v1.36a.306.306,0,0,0,.336.336h2.448a.306.306,0,0,0,.336-.336v-1.36a.306.306,0,0,0-.336-.336Zm4.352.432q-.288-.176-.24-.272a.23.23,0,0,1,.192-.064.673.673,0,0,1,.16.016,7.712,7.712,0,0,1,2.072.656,3.706,3.706,0,0,1,1.176.864,1.355,1.355,0,0,1,.368.832.514.514,0,0,1-.136.368.453.453,0,0,1-.344.144h-.08a.441.441,0,0,1-.184-.064.745.745,0,0,1-.152-.144,6.508,6.508,0,0,0-1.216-1.216A13.76,13.76,0,0,0,224.176,10.728Zm-9.872,1.92a.428.428,0,0,1-.08-.208q0-.16.208-.256,1.312-.528,3.5-1.632.3-.176.352-.064l.016.048q0,.112-.192.256-1.36,1.152-2.72,2.176-.192.144-.208.208a.178.178,0,0,1-.016.08.188.188,0,0,1-.192.144.248.248,0,0,1-.136-.048.483.483,0,0,1-.12-.112l-.208-.288Zm11.312,2.3a.46.46,0,0,0,.4-.208l.208-.288q.064-.08.168-.216a2.159,2.159,0,0,1,.176-.208.2.2,0,0,1,.136-.072,1.593,1.593,0,0,1,.592.384,4.394,4.394,0,0,1,.672.656.346.346,0,0,1,.08.176.245.245,0,0,1-.08.176.562.562,0,0,1-.3.08h-4.992a.386.386,0,0,0-.224.056.163.163,0,0,0-.08.136.351.351,0,0,0,.128.224,10.6,10.6,0,0,0,2.48,1.64,15.4,15.4,0,0,0,2.96,1.1q.3.1.3.16a.168.168,0,0,1-.112.1q-.1.04-.16.072a1,1,0,0,0-.512.512q-.1.24-.288.24a.508.508,0,0,1-.144-.032A12.05,12.05,0,0,1,224.072,18a10.3,10.3,0,0,1-2.28-2.344q-.128-.224-.192-.224h-.048V16.92q.048,1.776.1,2.64v.1a.394.394,0,0,1-.144.3,1.187,1.187,0,0,1-.368.184,1.41,1.41,0,0,1-.432.072.326.326,0,0,1-.24-.1.307.307,0,0,1-.1-.224q.1-1.312.128-2.656v-.9q0-.272-.176-.272a.309.309,0,0,0-.224.128,11.894,11.894,0,0,1-2.552,2.024,17.177,17.177,0,0,1-3.24,1.5.768.768,0,0,1-.224.048q-.112,0-.128-.064v-.032q0-.112.24-.24a16.189,16.189,0,0,0,2.64-1.616,13.562,13.562,0,0,0,2.128-1.968.4.4,0,0,0,.1-.224q0-.192-.288-.192H216.7a17.235,17.235,0,0,0-2.112.176h-.1a.329.329,0,0,1-.32-.208l-.08-.144a.4.4,0,0,1-.048-.176q0-.24.32-.208.544.048,1.648.08h4.144a.3.3,0,0,0,.336-.336l-.048-.864V13.72q0-.272.224-.272a.356.356,0,0,1,.16.032,5.968,5.968,0,0,1,.872.32q.248.128.248.224,0,.08-.128.16l-.048.032a.451.451,0,0,0-.224.4.306.306,0,0,0,.336.336Z" transform="translate(488 780)" fill="#183349"/>
      </g>
    </g>
  </g>
</svg>
