<svg xmlns="http://www.w3.org/2000/svg" width="1600" height="150" viewBox="0 0 1600 150">
  <g id="訴求" transform="translate(0 -750)">
    <rect id="bg" width="1600" height="150" transform="translate(0 750)" fill="#173449"/>
    <g id="情報" transform="translate(-1)">
      <path id="パス_32321" data-name="パス 32321" d="M-282.626-28.272a7.72,7.72,0,0,1,1.872.5,13.592,13.592,0,0,1,2.616,1.224q1.176.72,1.176,1.536a1.122,1.122,0,0,1-.288.792,5.643,5.643,0,0,1-.816.7,2.7,2.7,0,0,0-.96,1.056q-.864,2.544-2.64,10.9v.24q0,.672.864.912,1.92.432,1.92,1.728,0,.48-.7.816a4.423,4.423,0,0,1-1.9.336l-1.392-.1q-.672-.048-2.136-.12t-2.472-.072a47.916,47.916,0,0,0-13.968,1.872,2.436,2.436,0,0,1-.672.1,3.632,3.632,0,0,1-1.872-.576,5.911,5.911,0,0,1-1.608-1.392,2.528,2.528,0,0,1-.648-1.536q0-.816.432-.816a1.105,1.105,0,0,1,.432.144,6.9,6.9,0,0,0,1.56.7,8.091,8.091,0,0,0,2.136.216,36.85,36.85,0,0,0,4.608-.48l4.224-.528q3.264-.384,7.584-.528a.966.966,0,0,0,1.056-.912q.48-2.5.816-5.64a50.989,50.989,0,0,0,.336-5.256,3.793,3.793,0,0,0-.192-1.512q-.192-.36-.96-.36-1.248.1-4.632.456t-7.056.84a31.663,31.663,0,0,0-4.968.912,10.862,10.862,0,0,1-2.928.624,2.849,2.849,0,0,1-1.848-.6,6.048,6.048,0,0,1-1.464-2.136,1.547,1.547,0,0,1-.192-.672q0-.384.48-.384a2.369,2.369,0,0,1,.72.144,8.492,8.492,0,0,0,2.16.336q2.4,0,9.48-.576t8.568-1.1a6.92,6.92,0,0,0,1.656-.816q.6-.432.7-.48A1.664,1.664,0,0,1-282.626-28.272Zm31.392,3.456q-1.344,0-2.592-1.92a9.213,9.213,0,0,0-2.88-2.784A14.9,14.9,0,0,0-260.5-31.2a4.982,4.982,0,0,1-.624-.192q-.24-.1-.24-.24,0-.432,2.208-.432a18.671,18.671,0,0,1,4.2.5,9.323,9.323,0,0,1,3.624,1.608,4.062,4.062,0,0,1,1.824,3.168,2.15,2.15,0,0,1-.456,1.416A1.559,1.559,0,0,1-251.234-24.816ZM-260.4-6.672a6.126,6.126,0,0,1-.192-1.488,2.73,2.73,0,0,1,.168-1.032q.168-.408.312-.408t.432.528a4.435,4.435,0,0,0,.768,1.008,5.6,5.6,0,0,0,.888.744,2.17,2.17,0,0,0,1.176.264q1.728,0,6.288-2.784a92.479,92.479,0,0,0,10.632-7.848A135.342,135.342,0,0,0-227.762-29.28q.432-.528.768-.528a.17.17,0,0,1,.192.192,2.373,2.373,0,0,1-.48,1.008,84.714,84.714,0,0,1-7.776,9.264q-4.512,4.7-8.712,8.376t-6.648,5.4a6.689,6.689,0,0,1-.96.624q-.432.288-.864.624a8.077,8.077,0,0,0-.96.912,3,3,0,0,1-2.3,1.152,4.523,4.523,0,0,1-3.048-1.32A5.741,5.741,0,0,1-260.4-6.672Zm74.976-17.856a4.485,4.485,0,0,1-3.264-1.32,4.365,4.365,0,0,1-1.344-3.24,4.365,4.365,0,0,1,1.344-3.24,4.485,4.485,0,0,1,3.264-1.32,4.365,4.365,0,0,1,3.24,1.344,4.428,4.428,0,0,1,1.32,3.216,4.365,4.365,0,0,1-1.344,3.24A4.428,4.428,0,0,1-185.426-24.528Zm0-1.248a3.159,3.159,0,0,0,2.352-.984,3.222,3.222,0,0,0,.96-2.328,3.237,3.237,0,0,0-.984-2.376,3.182,3.182,0,0,0-2.328-.984,3.238,3.238,0,0,0-2.376.984,3.237,3.237,0,0,0-.984,2.376,3.159,3.159,0,0,0,.984,2.352A3.279,3.279,0,0,0-185.426-25.776Zm1.3,16.416a1.2,1.2,0,0,1-.96-.456,5.821,5.821,0,0,1-.816-1.608,31.429,31.429,0,0,0-3.768-6.84,30.709,30.709,0,0,0-6.408-6.5q-.432-.336-.432-.576t.288-.24a1.2,1.2,0,0,1,.528.144,30.738,30.738,0,0,1,5.832,3.48,36.308,36.308,0,0,1,5.688,5.04q2.352,2.616,2.352,4.344a3.582,3.582,0,0,1-.72,2.328A2.044,2.044,0,0,1-184.13-9.36Zm-39.5,2.832q-.336,0-.336-.192,0-.384.72-.816a46.943,46.943,0,0,0,7.488-5.472,39.683,39.683,0,0,0,5.3-5.64q1.944-2.616,1.944-3.912,0-.768-1.056-1.3l-.48-.192a1.879,1.879,0,0,1-.432-.24.387.387,0,0,1-.192-.288q0-.336.672-.432a12.207,12.207,0,0,1,1.68-.1,5.374,5.374,0,0,1,3.36.96,3.192,3.192,0,0,1,1.536,2.5,1.974,1.974,0,0,1-.432,1.2,43.922,43.922,0,0,1-8.3,7.512,57.786,57.786,0,0,1-10.8,6.216A2.2,2.2,0,0,1-223.634-6.528Zm79.68-23.808a3.549,3.549,0,0,1,1.584.648,9.273,9.273,0,0,1,1.9,1.536,2.479,2.479,0,0,1,.84,1.56,1.266,1.266,0,0,1-.36.936,6.592,6.592,0,0,1-1.128.84,11.633,11.633,0,0,0-1.08.768,4.075,4.075,0,0,0-.744.816A58.829,58.829,0,0,1-156.77-8.3,44.51,44.51,0,0,1-173.234-.24a2.7,2.7,0,0,1-.528.048q-.432,0-.432-.24,0-.192.672-.48a57.923,57.923,0,0,0,15.36-9.312q6.72-5.712,12.72-15.936a1.935,1.935,0,0,0,.288-.864q0-.48-.576-.48a3.327,3.327,0,0,0-.672.1q-2.4.624-3.648.864a13.189,13.189,0,0,1-2.5.24,7.363,7.363,0,0,1-1.776-.192l-.384-.048a1.319,1.319,0,0,0-1.008.48,58.984,58.984,0,0,1-7.368,6.624,33.606,33.606,0,0,1-6.6,4.224,2.318,2.318,0,0,1-.624.192q-.192,0-.192-.144a.468.468,0,0,1,.168-.312,2.429,2.429,0,0,1,.5-.36,40.084,40.084,0,0,0,5.5-4.776,59.458,59.458,0,0,0,5.712-6.552q2.424-3.264,2.424-4.848,0-1.344-1.728-2.112-.48-.192-.48-.432,0-.288.432-.48a3.926,3.926,0,0,1,1.632-.288,4.494,4.494,0,0,1,2.256.6,5.62,5.62,0,0,1,1.7,1.44,2.551,2.551,0,0,1,.648,1.464,2.811,2.811,0,0,1-.48,1.248l-.768,1.2a2.141,2.141,0,0,0-.432.864q-.048.336.24.336a26.881,26.881,0,0,0,4.128-.336,9.843,9.843,0,0,0,2.928-.768l.84-.528a5.322,5.322,0,0,1,.744-.408A1.487,1.487,0,0,1-143.954-30.336ZM-111.6-24.1a1.055,1.055,0,0,0,.912,1.152,31.027,31.027,0,0,1,8.328,3.072q3.624,2.016,3.624,4.656a2.134,2.134,0,0,1-.408,1.344,1.253,1.253,0,0,1-1.032.528q-1.3,0-3.408-2.592A21.83,21.83,0,0,0-110.4-21.7a1.619,1.619,0,0,0-.72-.192q-.48,0-.48.432l-.048,7.872a91.347,91.347,0,0,0,.24,9.36q.048.336.288,1.512a9.851,9.851,0,0,1,.24,1.848,2.576,2.576,0,0,1-.624,1.7,1.666,1.666,0,0,1-1.152.744q-.672,0-1.272-1.08a11.331,11.331,0,0,1-.984-2.448,8.473,8.473,0,0,1-.384-1.9,7.14,7.14,0,0,1,.192-1.176,16.675,16.675,0,0,0,.288-2.328l.144-3.888q.1-1.44.144-2.808t.1-2.568q.144-3.216.144-9.792,0-5.28-.192-6.96a3.253,3.253,0,0,0-.576-1.56,4.827,4.827,0,0,0-.84-.864q-.408-.312-.552-.408-.384-.288-.384-.48,0-.576.912-.768a8.4,8.4,0,0,1,1.728-.192,3.641,3.641,0,0,1,2.688,1.056,1.706,1.706,0,0,1,.528,1.248,2.981,2.981,0,0,1-.048.576q-.048.24-.1.432-.048.24-.216,1.344a16.346,16.346,0,0,0-.168,2.448q0,.336-.048,2.208T-111.6-24.1Zm58.9-3.312A6.379,6.379,0,0,1-50.714-26.4a23.115,23.115,0,0,1,2.952,2.184q1.344,1.176,1.344,1.944a.817.817,0,0,1-.528.864,4.825,4.825,0,0,1-1.344.24,5.5,5.5,0,0,0-1.536.24A6.974,6.974,0,0,0-51.41-19.92q-3.168,2.544-4.968,3.936a32.864,32.864,0,0,1-3.528,2.4.81.81,0,0,0-.48.672,1.027,1.027,0,0,0,.432.672q2.976,2.3,2.976,4.608a2.514,2.514,0,0,1-.552,1.608,1.683,1.683,0,0,1-1.368.7q-1.632,0-2.736-2.4a19.421,19.421,0,0,0-3.1-4.488,15.159,15.159,0,0,0-4.824-3.816q-.672-.336-.672-.576,0-.192.384-.192a12.027,12.027,0,0,1,2.928.864A30.851,30.851,0,0,1-62.5-13.872a1.272,1.272,0,0,0,.624.192,1.057,1.057,0,0,0,.768-.336q7.2-6.624,7.2-9.792,0-.672-.768-.672-.672,0-8.112.984t-10.56,1.656a23.057,23.057,0,0,0-3.984,1.2,3.679,3.679,0,0,1-1.152.288,3.926,3.926,0,0,1-2.544-1.056,5.891,5.891,0,0,1-1.68-2.064,1.619,1.619,0,0,1-.192-.72q0-.336.192-.336a1.563,1.563,0,0,1,.432.144q.336.144.624.24a8.171,8.171,0,0,0,2.592.384q.432,0,1.584-.1a13.459,13.459,0,0,1,1.44-.1q2.544-.144,11.376-1.176a87.97,87.97,0,0,0,10.464-1.56,2.865,2.865,0,0,0,.816-.432A1.185,1.185,0,0,1-52.706-27.408Zm29.472,2.592q-1.344,0-2.592-1.92a9.213,9.213,0,0,0-2.88-2.784A14.9,14.9,0,0,0-32.5-31.2a4.983,4.983,0,0,1-.624-.192q-.24-.1-.24-.24,0-.432,2.208-.432a18.671,18.671,0,0,1,4.2.5,9.323,9.323,0,0,1,3.624,1.608,4.062,4.062,0,0,1,1.824,3.168,2.15,2.15,0,0,1-.456,1.416A1.559,1.559,0,0,1-23.234-24.816ZM-32.4-6.672a6.127,6.127,0,0,1-.192-1.488,2.73,2.73,0,0,1,.168-1.032q.168-.408.312-.408t.432.528a4.435,4.435,0,0,0,.768,1.008,5.6,5.6,0,0,0,.888.744,2.17,2.17,0,0,0,1.176.264q1.728,0,6.288-2.784A92.479,92.479,0,0,0-11.93-17.688,135.343,135.343,0,0,0,.238-29.28q.432-.528.768-.528a.17.17,0,0,1,.192.192,2.373,2.373,0,0,1-.48,1.008,84.712,84.712,0,0,1-7.776,9.264q-4.512,4.7-8.712,8.376t-6.648,5.4a6.689,6.689,0,0,1-.96.624q-.432.288-.864.624a8.076,8.076,0,0,0-.96.912,3,3,0,0,1-2.3,1.152,4.523,4.523,0,0,1-3.048-1.32A5.741,5.741,0,0,1-32.4-6.672Zm56.976-19.2a2.436,2.436,0,0,1-1.008-.24,1.863,1.863,0,0,1-.768-.576,18.494,18.494,0,0,0-2.136-2.232,16.558,16.558,0,0,0-2.184-1.512,11.133,11.133,0,0,0-1.32-.648,7.437,7.437,0,0,1-.888-.408,1.155,1.155,0,0,1-.288-.12.357.357,0,0,1-.24-.312q0-.432,1.632-.432a15.779,15.779,0,0,1,3.96.528,9.338,9.338,0,0,1,3.408,1.584,3.091,3.091,0,0,1,1.368,2.5,2.159,2.159,0,0,1-.408,1.32A1.325,1.325,0,0,1,24.574-25.872ZM17.086-.72a1.451,1.451,0,0,1-1.1-.672,12.926,12.926,0,0,1-1.8-3.36,10.051,10.051,0,0,1-.84-3.12q0-.816.48-.816.192,0,.528.432l.672.864a3.388,3.388,0,0,0,2.64,1.056A6.026,6.026,0,0,0,20.3-6.96a69.016,69.016,0,0,0,13.512-8.424A66.136,66.136,0,0,0,45.742-27.168q.432-.624.816-.624a.255.255,0,0,1,.288.288,1.784,1.784,0,0,1-.336.912,62.959,62.959,0,0,1-8.256,9.912,87.4,87.4,0,0,1-9.576,8.232,74.512,74.512,0,0,1-8.52,5.52,8.485,8.485,0,0,0-1.536,1.2,7.471,7.471,0,0,1-.864.768A1.151,1.151,0,0,1,17.086-.72Zm2.448-15.264a1.9,1.9,0,0,1-.888-.24,3.058,3.058,0,0,1-.744-.528A15.817,15.817,0,0,0,16.03-18.48q-.72-.528-1.824-1.2a12.174,12.174,0,0,0-2.04-.984q-.888-.312-1.128-.408-.384-.144-.384-.336,0-.288,1.032-.408a17.255,17.255,0,0,1,1.992-.12,10.66,10.66,0,0,1,5.088,1.176,3.556,3.556,0,0,1,2.208,3.192,1.717,1.717,0,0,1-.384,1.1A1.278,1.278,0,0,1,19.534-15.984Zm60.96-4.9a2.473,2.473,0,0,1,1.2.624,9.3,9.3,0,0,1,1.464,1.392,2.278,2.278,0,0,1,.648,1.1,1.061,1.061,0,0,1-.216.6,4.591,4.591,0,0,0-.264.408,4.892,4.892,0,0,0-.672,1.248q-.144.624-.36,4.272T82.03-6.144v2.112a13.122,13.122,0,0,1-.048,1.44,2.367,2.367,0,0,1-.72,1.584,2.065,2.065,0,0,1-1.248.384.878.878,0,0,1-.84-.6,3.242,3.242,0,0,1-.264-1.32q0-.528-.624-.528l-.624.048q-7.776.48-9.5.72l-1.152.192a5.582,5.582,0,0,1-1.44.24,1.68,1.68,0,0,1-1.128-.6,7.65,7.65,0,0,1-1.032-1.272,2.1,2.1,0,0,1-.384-.912q0-.336.288-.336a2.674,2.674,0,0,1,.576.192,6.187,6.187,0,0,0,2.16.576q1.344-.048,4.9-.192T78-4.752a.95.95,0,0,0,.96-1.056l.1-1.3L79.2-9.168V-9.36q0-.864-.528-.864l-.576.048q-7.392.288-8.784.288a12.789,12.789,0,0,0-2.112.24A4.231,4.231,0,0,1,66.19-9.5a2.706,2.706,0,0,1-1.752-.768,3.448,3.448,0,0,1-1.128-1.584,1.064,1.064,0,0,1-.048-.336q0-.384.288-.384a1.51,1.51,0,0,1,.528.192,7.994,7.994,0,0,0,.768.336,6.548,6.548,0,0,0,1.392.24q1.44-.048,5.088-.192t7.2-.336a.984.984,0,0,0,1.008-1.008l.336-4.176a.468.468,0,0,0-.1-.336.653.653,0,0,0-.432-.1q-1.584.048-5.568.216t-5.28.312a11.993,11.993,0,0,0-1.584.24,12.089,12.089,0,0,1-1.488.192,2.166,2.166,0,0,1-1.416-.6A5.988,5.988,0,0,1,62.83-18.96a2.025,2.025,0,0,1-.336-.816.484.484,0,0,1,.1-.312.3.3,0,0,1,.24-.12,1.015,1.015,0,0,1,.48.168q.288.168.432.264a7.394,7.394,0,0,0,3.168.48q2.688,0,6.792-.168a20.056,20.056,0,0,0,4.824-.5,10.206,10.206,0,0,0,1.08-.576A1.873,1.873,0,0,1,80.494-20.88Zm33.072-3.936q-1.344,0-2.592-1.92a9.213,9.213,0,0,0-2.88-2.784A14.9,14.9,0,0,0,104.3-31.2a4.982,4.982,0,0,1-.624-.192q-.24-.1-.24-.24,0-.432,2.208-.432a18.671,18.671,0,0,1,4.2.5,9.323,9.323,0,0,1,3.624,1.608,4.062,4.062,0,0,1,1.824,3.168,2.15,2.15,0,0,1-.456,1.416A1.559,1.559,0,0,1,113.566-24.816ZM104.4-6.672a6.127,6.127,0,0,1-.192-1.488,2.73,2.73,0,0,1,.168-1.032q.168-.408.312-.408t.432.528a4.435,4.435,0,0,0,.768,1.008,5.6,5.6,0,0,0,.888.744,2.17,2.17,0,0,0,1.176.264q1.728,0,6.288-2.784a92.479,92.479,0,0,0,10.632-7.848A135.342,135.342,0,0,0,137.038-29.28q.432-.528.768-.528a.17.17,0,0,1,.192.192,2.373,2.373,0,0,1-.48,1.008,84.714,84.714,0,0,1-7.776,9.264q-4.512,4.7-8.712,8.376t-6.648,5.4a6.689,6.689,0,0,1-.96.624q-.432.288-.864.624a8.076,8.076,0,0,0-.96.912,3,3,0,0,1-2.3,1.152,4.523,4.523,0,0,1-3.048-1.32A5.741,5.741,0,0,1,104.4-6.672ZM160-26.486a16.6,16.6,0,0,1,6.346,1.311,12.672,12.672,0,0,1,5.377,4.218,12.028,12.028,0,0,1,2.185,7.429q0,5.928-3.629,9.044a17.909,17.909,0,0,1-7.752,4.047,32.366,32.366,0,0,1-6.9.931q-.532,0-.532-.19,0-.228,1.52-.494a23.11,23.11,0,0,0,10.564-4.37,10.979,10.979,0,0,0,4.066-9.12,11.753,11.753,0,0,0-1.729-6.631,10.282,10.282,0,0,0-4.389-3.8,13.374,13.374,0,0,0-5.548-1.2,1.175,1.175,0,0,0-.475.418.63.63,0,0,0-.1.532,13.547,13.547,0,0,1,.475,2.052,13.022,13.022,0,0,1,.171,1.976,18.729,18.729,0,0,1-1.368,6.46A29.818,29.818,0,0,1,155.417-8,17.248,17.248,0,0,1,152.3-4.237a4.306,4.306,0,0,1-2.413,1.273,3.436,3.436,0,0,1-2.565-1.349,9.742,9.742,0,0,1-1.9-3.553,15.038,15.038,0,0,1-.7-4.6,12.776,12.776,0,0,1,2.166-7.315,14.508,14.508,0,0,1,5.7-4.959A16.506,16.506,0,0,1,160-26.486Zm-1.558,4.256a10.679,10.679,0,0,0-.228-2.242.711.711,0,0,0-.912-.608,13.011,13.011,0,0,0-5.168,2.2,12.322,12.322,0,0,0-3.762,4.294,12.184,12.184,0,0,0-1.406,5.852,11.262,11.262,0,0,0,.551,3.8,6.5,6.5,0,0,0,1.235,2.242q.684.722,1.1.722a3.522,3.522,0,0,0,2.261-1.425,21.994,21.994,0,0,0,2.413-3.173,26.318,26.318,0,0,0,3.021-6.1A18.2,18.2,0,0,0,158.438-22.23Zm56.076-13.434a1.379,1.379,0,0,0,1.2-.624l.576-.768q.144-.192.456-.6a6.374,6.374,0,0,1,.5-.6.553.553,0,0,1,.384-.192,3,3,0,0,1,1.2.72,17.37,17.37,0,0,1,1.7,1.536q.792.816.792,1.152-.048.768-1.2.768H209.186a1.006,1.006,0,0,0-.744.264,1.006,1.006,0,0,0-.264.744v1.392q0,.192-.744.48a5.591,5.591,0,0,1-1.752.336.587.587,0,0,1-.528-.336,1.2,1.2,0,0,1-.144-.528,4.044,4.044,0,0,1,.1-.672l.1-.576v-.1a1.006,1.006,0,0,0-.264-.744,1.006,1.006,0,0,0-.744-.264h-7.68q-1.008,0-1.008.864a5.48,5.48,0,0,1,.048.768v.384a1.011,1.011,0,0,1-.384.864,4.4,4.4,0,0,1-2.16.48.557.557,0,0,1-.48-.336,1.2,1.2,0,0,1-.144-.528,6.3,6.3,0,0,1,.1-.72v-.048a3.2,3.2,0,0,0,.1-1.152.483.483,0,0,0-.264-.408,1.385,1.385,0,0,0-.744-.168h-4.032a51.7,51.7,0,0,0-6.336.528h-.288a.987.987,0,0,1-.96-.672l-.192-.336a1.2,1.2,0,0,1-.144-.528q0-.72.96-.624,1.632.144,4.992.24h6a.891.891,0,0,0,1.008-1.008l-.144-2.544v-.1q0-.864.72-.864l.432.1a19.058,19.058,0,0,1,2.424.936q.7.36.7.648,0,.24-.384.48l-.144.1a1.354,1.354,0,0,0-.672,1.2v.048a1.006,1.006,0,0,0,.264.744,1.006,1.006,0,0,0,.744.264h7.68a.891.891,0,0,0,1.008-1.008l-.144-2.544v-.1q0-.864.72-.864l.432.1a20.263,20.263,0,0,1,2.5.936q.72.36.72.648,0,.24-.432.48l-.144.1a1.354,1.354,0,0,0-.672,1.2v.048a1.006,1.006,0,0,0,.264.744,1.006,1.006,0,0,0,.744.264Zm.384,20.352a1.379,1.379,0,0,0,1.2-.624l.48-.672q.192-.24.456-.6a4.909,4.909,0,0,1,.456-.552.553.553,0,0,1,.384-.192,4.177,4.177,0,0,1,1.632.96,11.384,11.384,0,0,1,1.872,1.728,1.057,1.057,0,0,1,.24.576.686.686,0,0,1-.288.528,1.432,1.432,0,0,1-.864.192H209.954a1.159,1.159,0,0,0-.672.168.489.489,0,0,0-.24.408.81.81,0,0,0,.48.672,33.17,33.17,0,0,0,5.5,2.688,46.3,46.3,0,0,0,6.168,1.92q.912.24.912.432-.048.144-.336.288a3.161,3.161,0,0,0-.48.288,2.914,2.914,0,0,0-1.2,1.344q-.288.72-.864.72a1.524,1.524,0,0,1-.432-.1,37.2,37.2,0,0,1-5.424-2.688.893.893,0,0,0-.576-.192q-.624,0-.624.864v2.3q.144,4.368.24,6.432v.24a1.031,1.031,0,0,1-.48.96,4.966,4.966,0,0,1-1.128.576,3.325,3.325,0,0,1-1.128.24.385.385,0,0,1-.36-.264,1.847,1.847,0,0,1-.12-.744V2.208a1.006,1.006,0,0,0-.264-.744,1.006,1.006,0,0,0-.744-.264h-15.36a1.006,1.006,0,0,0-.744.264,1.006,1.006,0,0,0-.264.744v.48q0,.288-.72.7a3.35,3.35,0,0,1-1.68.408.8.8,0,0,1-.6-.288.963.963,0,0,1-.264-.672q.288-3.744.384-7.488V-7.44a1.065,1.065,0,0,0-.168-.624.489.489,0,0,0-.408-.24,1.284,1.284,0,0,0-.624.24,32.152,32.152,0,0,1-7.248,3.84,1.593,1.593,0,0,1-.624.144.506.506,0,0,1-.432-.192.2.2,0,0,1-.048-.144q0-.336.768-.672a37.852,37.852,0,0,0,9.888-7.632.968.968,0,0,0,.336-.672.489.489,0,0,0-.24-.408,1.159,1.159,0,0,0-.672-.168H187.3a51.7,51.7,0,0,0-6.336.528h-.288a.986.986,0,0,1-.96-.624l-.192-.336a1.278,1.278,0,0,1-.144-.576.528.528,0,0,1,.24-.456.966.966,0,0,1,.672-.12q1.632.144,4.944.24h6.24a1.379,1.379,0,0,0,1.2-.624,8.925,8.925,0,0,0,.648-.912,6.113,6.113,0,0,1,.5-.72.893.893,0,0,0,.192-.576q0-.624-.912-.624h-1.824q-1.008,0-1.008.864,0,.24-.84.6a4.29,4.29,0,0,1-1.7.36.6.6,0,0,1-.528-.288,1.183,1.183,0,0,1-.192-.672q.144-1.344.192-2.688l.048-1.3v-2.5q0-3.408-.288-6.288v-.192a.775.775,0,0,1,.168-.528.523.523,0,0,1,.408-.192,1.2,1.2,0,0,1,.528.144l1.92.864a2.956,2.956,0,0,0,1.248.288h17.952a1.379,1.379,0,0,0,1.2-.624l.24-.288q.144-.144.456-.528a.837.837,0,0,1,.6-.384,3.461,3.461,0,0,1,1.368.744A10.835,10.835,0,0,1,214.658-30a1.061,1.061,0,0,1,.24.48.713.713,0,0,1-.48.624l-.24.144a1.2,1.2,0,0,0-.816,1.1v2.64q.144,4.08.24,5.952v.24a1.03,1.03,0,0,1-.48.96,3.96,3.96,0,0,1-1.1.576,3.62,3.62,0,0,1-1.2.24.384.384,0,0,1-.36-.24,1.4,1.4,0,0,1-.12-.624.8.8,0,0,0-.264-.624,1.067,1.067,0,0,0-.744-.24h-8.784a1.344,1.344,0,0,0-.672.192,4.787,4.787,0,0,1-.576.288,2.169,2.169,0,0,1-.672.192,1.655,1.655,0,0,0-1.2.672l-.672.864a1.037,1.037,0,0,0-.288.672q0,.576.864.576Zm-5.568-9.936a1.006,1.006,0,0,0,.744-.264,1.006,1.006,0,0,0,.264-.744v-1.632a1.006,1.006,0,0,0-.264-.744,1.006,1.006,0,0,0-.744-.264H191.282a1.006,1.006,0,0,0-.744.264,1.006,1.006,0,0,0-.264.744v1.632a1.006,1.006,0,0,0,.264.744,1.006,1.006,0,0,0,.744.264Zm1.008,2.448a1.006,1.006,0,0,0-.264-.744,1.006,1.006,0,0,0-.744-.264H191.282a1.006,1.006,0,0,0-.744.264,1.006,1.006,0,0,0-.264.744v1.584a1.006,1.006,0,0,0,.264.744,1.006,1.006,0,0,0,.744.264H209.33a1.006,1.006,0,0,0,.744-.264,1.006,1.006,0,0,0,.264-.744Zm-18,11.04a1.962,1.962,0,0,0-.552.7q-.12.312.12.408a2.372,2.372,0,0,0,1.152.24h15.12q.768,0,.912-.192v-.048q0-.192-.624-.816a12.339,12.339,0,0,1-1.728-1.872,1.5,1.5,0,0,0-1.248-.624H195.266a1.554,1.554,0,0,0-1.2.528Zm-.528,5.424a1.006,1.006,0,0,0,.264.744,1.006,1.006,0,0,0,.744.264h15.36a1.006,1.006,0,0,0,.744-.264,1.006,1.006,0,0,0,.264-.744v-1.68a1.006,1.006,0,0,0-.264-.744,1.006,1.006,0,0,0-.744-.264h-15.36a1.006,1.006,0,0,0-.744.264,1.006,1.006,0,0,0-.264.744Zm1.008,2.448a1.006,1.006,0,0,0-.744.264,1.006,1.006,0,0,0-.264.744V-1.2a1.006,1.006,0,0,0,.264.744,1.006,1.006,0,0,0,.744.264h15.36a1.006,1.006,0,0,0,.744-.264,1.006,1.006,0,0,0,.264-.744V-2.88a1.006,1.006,0,0,0-.264-.744,1.006,1.006,0,0,0-.744-.264Zm46.656,5.616q-.624,0-.624-.288a.344.344,0,0,1,.264-.336,5.215,5.215,0,0,1,.792-.192q7.632-1.3,11.592-4.128a8.577,8.577,0,0,0,3.96-7.248,6.43,6.43,0,0,0-1.272-4.224,4.44,4.44,0,0,0-3.624-1.536,5.772,5.772,0,0,0-4.008,1.728A29.5,29.5,0,0,0,242.4-9.264a3.788,3.788,0,0,1-1.272,1.176,2.864,2.864,0,0,1-1.32.5q-4.464,0-4.464-5.328,0-2.256.528-8.688.288-3.744.288-3.888,0-.288-.144-1.44a3.023,3.023,0,0,1-.144-.96,2.31,2.31,0,0,1,.432-1.464,12.235,12.235,0,0,1,1.392-1.416,8.582,8.582,0,0,1,1.632-1.1q.912-.48,2.352-1.1a15.86,15.86,0,0,0,1.968-.888q.624-.36.624-.744,0-.48-.816-1.2a10.749,10.749,0,0,0-1.728-1.248,3.005,3.005,0,0,0-.408-.216q-.264-.12-.264-.264t.6-.216a8.381,8.381,0,0,1,.936-.072,6.969,6.969,0,0,1,3.288.744,5.837,5.837,0,0,1,2.376,2.568,3.041,3.041,0,0,1,.384,1.536,2.27,2.27,0,0,1-.48,1.464,1.327,1.327,0,0,1-1.008.6,1.2,1.2,0,0,1-.7-.216,4.594,4.594,0,0,0-.408-.264,4.718,4.718,0,0,0-1.008-.576,3.408,3.408,0,0,0-1.248-.192,8.648,8.648,0,0,0-4.8,1.728,2.477,2.477,0,0,0-.864.96,2.556,2.556,0,0,0-.288,1.152,2.074,2.074,0,0,0,.336,1.008,4.087,4.087,0,0,1,.48,1.824q0,.528-.336,3.312-.672,5.616-.672,6.816a6.872,6.872,0,0,0,.408,2.4q.408,1.1,1.08,1.1a2,2,0,0,0,.936-.312q.552-.312,1.176-.744t.912-.624a35.736,35.736,0,0,1,4.68-2.928,9.7,9.7,0,0,1,4.44-1.056,6.532,6.532,0,0,1,3.84,1.176,8.052,8.052,0,0,1,2.616,3.048,8.591,8.591,0,0,1,.936,3.888,8.987,8.987,0,0,1-.936,3.984q-.936,1.92-4.992,3.936t-12.36,3.12A5.876,5.876,0,0,1,239.474,1.728ZM290.5.96a10.531,10.531,0,0,1-6.12-1.56,8.159,8.159,0,0,1-3.12-4.512,26.6,26.6,0,0,1-.888-7.512q0-4.56.624-10.7.384-4.032.384-5.328a14.873,14.873,0,0,0-.36-3.72,3.467,3.467,0,0,0-1.608-2.088q-.384-.24-.384-.528,0-.528,1.344-.528,2.5,0,3.432,1.392a6.716,6.716,0,0,1,.936,3.792q0,1.584-.672,7.2a92.832,92.832,0,0,0-.768,10.8,20.868,20.868,0,0,0,.744,6.312,5.465,5.465,0,0,0,2.52,3.216,10.416,10.416,0,0,0,4.992.984q5.76,0,15.264-6.96.1-.048.456-.288a1.153,1.153,0,0,1,.552-.24q.144,0,.144.192,0,.336-.624.96a42.9,42.9,0,0,1-8.328,6.624A16.511,16.511,0,0,1,290.5.96Z" transform="translate(801 864)" fill="#fff"/>
      <g id="text" transform="translate(0 4)">
        <path id="パス_32320" data-name="パス 32320" d="M17,0A17,17,0,1,1,0,17,17,17,0,0,1,17,0Z" transform="translate(868 776)" fill="#fff"/>
        <path id="パス_32319" data-name="パス 32319" d="M-177.518,1.012a.462.462,0,0,1,.154.33.422.422,0,0,1-.132.308.5.5,0,0,1-.33.132.462.462,0,0,1-.33-.154l-19.36-19.36a.591.591,0,0,1-.154-.33.444.444,0,0,1,.154-.308.422.422,0,0,1,.308-.132.463.463,0,0,1,.33.154Zm19.932-16.72a.632.632,0,0,0,.55-.286l.264-.374q.11-.132.22-.286a3.007,3.007,0,0,1,.22-.275.3.3,0,0,1,.2-.121,2.147,2.147,0,0,1,.8.506,6.357,6.357,0,0,1,.913.858.336.336,0,0,1,.11.242.315.315,0,0,1-.132.242.706.706,0,0,1-.418.11h-12.474a.632.632,0,0,0-.55.286,15.56,15.56,0,0,1-3.982,3.982q-.352.264-.484.088a.127.127,0,0,1-.044-.088q0-.132.242-.374a16.1,16.1,0,0,0,2.354-3.014,14.581,14.581,0,0,0,1.012-1.936,13.9,13.9,0,0,0,.748-2.068q.11-.33.374-.33a.549.549,0,0,1,.242.044q1.65.66,1.65.9,0,.088-.22.154l-.066.022a.911.911,0,0,0-.484.418l-.4.748a.409.409,0,0,0-.088.264q0,.286.4.286Zm.9,8.008a.632.632,0,0,0,.55-.286l.22-.33a3.166,3.166,0,0,0,.187-.264,1.579,1.579,0,0,1,.209-.264.3.3,0,0,1,.2-.11q.176,0,.715.473a4.807,4.807,0,0,1,.781.825.484.484,0,0,1,.11.264.315.315,0,0,1-.132.242.627.627,0,0,1-.374.11h-2.838a.435.435,0,0,0-.484.44q-.242,2.09-.484,3.366v.11q0,.4.418.4h.616a.632.632,0,0,0,.55-.286l.22-.33q.066-.088.187-.275a1.742,1.742,0,0,1,.209-.275.254.254,0,0,1,.176-.088q.176,0,.726.473a4.661,4.661,0,0,1,.792.825.484.484,0,0,1,.11.264.315.315,0,0,1-.132.242.732.732,0,0,1-.4.11h-3.3a.522.522,0,0,0-.528.418,6.268,6.268,0,0,1-1.1,2.464,3.217,3.217,0,0,1-2.112.946q-.374,0-.484-.44a.867.867,0,0,0-.132-.352,1.847,1.847,0,0,0-.44-.33,6.069,6.069,0,0,0-1.32-.4q-.418-.088-.418-.286,0-.088.132-.121a1.066,1.066,0,0,1,.352-.011q2.024.2,2.486.2a1.506,1.506,0,0,0,.506-.066,1.319,1.319,0,0,0,.4-.264,2.722,2.722,0,0,0,.66-1.232.572.572,0,0,0,.022-.176q0-.352-.418-.352h-8.69a.465.465,0,0,0-.506.4l-.11.44a.621.621,0,0,1-.374.462,1.853,1.853,0,0,1-.33.044,1.88,1.88,0,0,1-.44-.066.4.4,0,0,1-.33-.55q.7-2.64,1.3-5.192a.378.378,0,0,0,.022-.154q0-.352-.418-.352h-.594a11.758,11.758,0,0,0-1.628.2.487.487,0,0,1-.154.022.437.437,0,0,1-.418-.286l-.088-.176a.586.586,0,0,1-.066-.264.242.242,0,0,1,.11-.209.443.443,0,0,1,.308-.055q.66.066,1.98.11h.814a.465.465,0,0,0,.506-.4,8.485,8.485,0,0,1,.22-.946,32.836,32.836,0,0,0,.572-3.74q.044-.374.308-.374a.548.548,0,0,1,.242.066l1.012.484a1.461,1.461,0,0,0,.572.132h7.348a.689.689,0,0,0,.572-.286l.154-.2q.044-.066.154-.209a1.108,1.108,0,0,1,.2-.209.293.293,0,0,1,.176-.066,1.521,1.521,0,0,1,.627.4,4.654,4.654,0,0,1,.737.748.3.3,0,0,1,.088.22.341.341,0,0,1-.242.308l-.154.044a.567.567,0,0,0-.319.154.568.568,0,0,0-.121.33q-.044.572-.044.858-.088,1.43-.154,2.2v.066q0,.418.44.418Zm-11.286-.374a.336.336,0,0,0,.121.275.488.488,0,0,0,.319.1h2.816a.443.443,0,0,0,.484-.418q.176-.968.528-3.234v-.088q0-.4-.44-.4h-2.618q-.418,0-.484.308l-.7,3.322Zm5.126-.022q0,.4.418.4h3.168a.435.435,0,0,0,.484-.44q.11-1.188.22-3.212V-11.4q0-.44-.462-.44h-2.816a.443.443,0,0,0-.484.418l-.528,3.212Zm-6.27,4.994a.336.336,0,0,0,.121.275.488.488,0,0,0,.319.1h3.058a.465.465,0,0,0,.506-.4l.484-2.508q.11-.66.154-.9v-.11q0-.4-.418-.4h-2.9a.465.465,0,0,0-.506.4l-.792,3.41Zm10.164-3.52q0-.418-.44-.418h-3.234a.443.443,0,0,0-.484.418q-.33,1.958-.638,3.388l-.022.132a.336.336,0,0,0,.121.275.488.488,0,0,0,.319.1h3.366q.418,0,.484-.286a28.368,28.368,0,0,0,.528-3.542Zm14.982,6.2a.461.461,0,0,0-.341.121.461.461,0,0,0-.121.341q.022.22.022.484l.022.242a.5.5,0,0,1-.11.33,1.266,1.266,0,0,1-.462.319,1.622,1.622,0,0,1-.638.121.442.442,0,0,1-.319-.143.421.421,0,0,1-.143-.3q.088-1.3.154-2.519t.088-3.2v-8.008a33.831,33.831,0,0,0-.2-3.85v-.088a.4.4,0,0,1,.077-.253.23.23,0,0,1,.187-.1.548.548,0,0,1,.242.066l.946.462a1.177,1.177,0,0,0,.572.132h8.844a.632.632,0,0,0,.55-.286l.154-.2q.044-.066.154-.209a1.108,1.108,0,0,1,.2-.209.293.293,0,0,1,.176-.066,1.814,1.814,0,0,1,.682.4,4.628,4.628,0,0,1,.814.748.379.379,0,0,1,.088.242.361.361,0,0,1-.2.286,1.707,1.707,0,0,1-.22.088.541.541,0,0,0-.4.528V-4.422q.044,2.4.154,4.84v.11a.472.472,0,0,1-.22.44,2.219,2.219,0,0,1-.561.33,1.584,1.584,0,0,1-.6.132.242.242,0,0,1-.242-.176.36.36,0,0,1-.044-.2,2.887,2.887,0,0,1,.044-.33q0-.044.044-.528V.044a.461.461,0,0,0-.121-.341.461.461,0,0,0-.341-.121Zm8.932-8.382a.461.461,0,0,0,.341-.121.461.461,0,0,0,.121-.341v-5.9a.461.461,0,0,0-.121-.341.461.461,0,0,0-.341-.121h-8.932a.461.461,0,0,0-.341.121.461.461,0,0,0-.121.341v5.9a.461.461,0,0,0,.121.341.461.461,0,0,0,.341.121Zm-8.932.638a.461.461,0,0,0-.341.121.461.461,0,0,0-.121.341v6.182a.461.461,0,0,0,.121.341.461.461,0,0,0,.341.121h8.932a.461.461,0,0,0,.341-.121.461.461,0,0,0,.121-.341V-7.7a.461.461,0,0,0-.121-.341.461.461,0,0,0-.341-.121Zm28.776-7.172a9.612,9.612,0,0,1,3.674.759,7.336,7.336,0,0,1,3.113,2.442,6.963,6.963,0,0,1,1.265,4.3,6.522,6.522,0,0,1-2.1,5.236,10.368,10.368,0,0,1-4.488,2.343,18.738,18.738,0,0,1-3.993.539q-.308,0-.308-.11,0-.132.88-.286a13.38,13.38,0,0,0,6.116-2.53,6.356,6.356,0,0,0,2.354-5.28,6.8,6.8,0,0,0-1-3.839,5.953,5.953,0,0,0-2.541-2.2,7.743,7.743,0,0,0-3.212-.693.681.681,0,0,0-.275.242.365.365,0,0,0-.055.308,7.844,7.844,0,0,1,.275,1.188,7.539,7.539,0,0,1,.1,1.144,10.843,10.843,0,0,1-.792,3.74,17.264,17.264,0,0,1-1.661,3.4,9.985,9.985,0,0,1-1.8,2.178,2.493,2.493,0,0,1-1.4.737,1.99,1.99,0,0,1-1.485-.781,5.64,5.64,0,0,1-1.1-2.057,8.707,8.707,0,0,1-.407-2.662,7.4,7.4,0,0,1,1.254-4.235,8.4,8.4,0,0,1,3.3-2.871A9.556,9.556,0,0,1-115.192-15.334Zm-.9,2.464a6.182,6.182,0,0,0-.132-1.3.411.411,0,0,0-.528-.352,7.533,7.533,0,0,0-2.992,1.276,7.134,7.134,0,0,0-2.178,2.486,7.054,7.054,0,0,0-.814,3.388,6.52,6.52,0,0,0,.319,2.2,3.761,3.761,0,0,0,.715,1.3q.4.418.638.418a2.039,2.039,0,0,0,1.309-.825,12.733,12.733,0,0,0,1.4-1.837,15.237,15.237,0,0,0,1.749-3.531A10.534,10.534,0,0,0-116.094-12.87Zm30.954-3.476a.632.632,0,0,0,.55-.286l.264-.352.209-.275a2.923,2.923,0,0,1,.231-.275.254.254,0,0,1,.176-.088,1.377,1.377,0,0,1,.55.33,7.961,7.961,0,0,1,.781.7q.363.374.363.528-.022.352-.55.352h-5.016a.461.461,0,0,0-.341.121.461.461,0,0,0-.121.341v.638q0,.088-.341.22a2.562,2.562,0,0,1-.8.154.269.269,0,0,1-.242-.154.548.548,0,0,1-.066-.242,1.854,1.854,0,0,1,.044-.308l.044-.264v-.044a.461.461,0,0,0-.121-.341.461.461,0,0,0-.341-.121h-3.52q-.462,0-.462.4a2.512,2.512,0,0,1,.022.352v.176a.463.463,0,0,1-.176.4,2.018,2.018,0,0,1-.99.22.255.255,0,0,1-.22-.154.548.548,0,0,1-.066-.242,2.886,2.886,0,0,1,.044-.33v-.022a1.466,1.466,0,0,0,.044-.528.221.221,0,0,0-.121-.187.635.635,0,0,0-.341-.077H-97.5a23.7,23.7,0,0,0-2.9.242h-.132a.452.452,0,0,1-.44-.308l-.088-.154a.548.548,0,0,1-.066-.242q0-.33.44-.286.748.066,2.288.11h2.75a.408.408,0,0,0,.462-.462l-.066-1.166v-.044q0-.4.33-.4l.2.044a8.735,8.735,0,0,1,1.111.429q.319.165.319.3,0,.11-.176.22l-.066.044a.621.621,0,0,0-.308.55v.022a.461.461,0,0,0,.121.341.461.461,0,0,0,.341.121h3.52a.408.408,0,0,0,.462-.462l-.066-1.166v-.044q0-.4.33-.4l.2.044a9.286,9.286,0,0,1,1.144.429q.33.165.33.3,0,.11-.2.22l-.066.044a.621.621,0,0,0-.308.55v.022a.461.461,0,0,0,.121.341.461.461,0,0,0,.341.121Zm.176,9.328a.632.632,0,0,0,.55-.286l.22-.308q.088-.11.209-.275a2.251,2.251,0,0,1,.209-.253.254.254,0,0,1,.176-.088,1.914,1.914,0,0,1,.748.44A5.217,5.217,0,0,1-81.994-7a.484.484,0,0,1,.11.264.315.315,0,0,1-.132.242.656.656,0,0,1-.4.088H-87.23a.531.531,0,0,0-.308.077.224.224,0,0,0-.11.187.371.371,0,0,0,.22.308A15.2,15.2,0,0,0-84.909-4.6a21.219,21.219,0,0,0,2.827.88q.418.11.418.2-.022.066-.154.132a1.449,1.449,0,0,0-.22.132,1.335,1.335,0,0,0-.55.616q-.132.33-.4.33a.7.7,0,0,1-.2-.044,17.052,17.052,0,0,1-2.486-1.232.409.409,0,0,0-.264-.088q-.286,0-.286.4v1.056q.066,2,.11,2.948v.11a.472.472,0,0,1-.22.44,2.276,2.276,0,0,1-.517.264,1.524,1.524,0,0,1-.517.11.177.177,0,0,1-.165-.121.846.846,0,0,1-.055-.341V1.012A.461.461,0,0,0-87.7.671.461.461,0,0,0-88.044.55h-7.04a.461.461,0,0,0-.341.121.461.461,0,0,0-.121.341v.22q0,.132-.33.319a1.535,1.535,0,0,1-.77.187.365.365,0,0,1-.275-.132.441.441,0,0,1-.121-.308q.132-1.716.176-3.432V-3.41a.488.488,0,0,0-.077-.286.224.224,0,0,0-.187-.11.589.589,0,0,0-.286.11,14.736,14.736,0,0,1-3.322,1.76.73.73,0,0,1-.286.066.232.232,0,0,1-.2-.088.09.09,0,0,1-.022-.066q0-.154.352-.308a17.349,17.349,0,0,0,4.532-3.5.444.444,0,0,0,.154-.308.224.224,0,0,0-.11-.187.531.531,0,0,0-.308-.077h-.99a23.7,23.7,0,0,0-2.9.242h-.132a.452.452,0,0,1-.44-.286l-.088-.154a.586.586,0,0,1-.066-.264.242.242,0,0,1,.11-.209.443.443,0,0,1,.308-.055q.748.066,2.266.11h2.86a.632.632,0,0,0,.55-.286,4.091,4.091,0,0,0,.3-.418,2.8,2.8,0,0,1,.231-.33.409.409,0,0,0,.088-.264q0-.286-.418-.286h-.836q-.462,0-.462.4,0,.11-.385.275a1.966,1.966,0,0,1-.781.165.276.276,0,0,1-.242-.132.542.542,0,0,1-.088-.308q.066-.616.088-1.232l.022-.594v-1.144q0-1.562-.132-2.882v-.088a.355.355,0,0,1,.077-.242.24.24,0,0,1,.187-.088.548.548,0,0,1,.242.066l.88.4a1.355,1.355,0,0,0,.572.132h8.228a.632.632,0,0,0,.55-.286l.11-.132q.066-.066.209-.242a.384.384,0,0,1,.275-.176,1.586,1.586,0,0,1,.627.341,4.966,4.966,0,0,1,.737.627.486.486,0,0,1,.11.22.327.327,0,0,1-.22.286l-.11.066a.551.551,0,0,0-.374.506v1.21q.066,1.87.11,2.728v.11a.472.472,0,0,1-.22.44,1.815,1.815,0,0,1-.506.264,1.659,1.659,0,0,1-.55.11A.176.176,0,0,1-87-7.92a.641.641,0,0,1-.055-.286.369.369,0,0,0-.121-.286.489.489,0,0,0-.341-.11h-4.026a.616.616,0,0,0-.308.088,2.194,2.194,0,0,1-.264.132.994.994,0,0,1-.308.088.758.758,0,0,0-.55.308l-.308.4a.475.475,0,0,0-.132.308q0,.264.4.264Zm-2.552-4.554a.461.461,0,0,0,.341-.121.461.461,0,0,0,.121-.341v-.748a.461.461,0,0,0-.121-.341.461.461,0,0,0-.341-.121h-8.272a.461.461,0,0,0-.341.121.461.461,0,0,0-.121.341v.748a.461.461,0,0,0,.121.341.461.461,0,0,0,.341.121Zm.462,1.122a.461.461,0,0,0-.121-.341.461.461,0,0,0-.341-.121h-8.272a.461.461,0,0,0-.341.121.461.461,0,0,0-.121.341v.726a.461.461,0,0,0,.121.341.461.461,0,0,0,.341.121h8.272a.461.461,0,0,0,.341-.121.461.461,0,0,0,.121-.341ZM-95.3-5.39a.9.9,0,0,0-.253.319q-.055.143.055.187a1.087,1.087,0,0,0,.528.11h6.93q.352,0,.418-.088v-.022q0-.088-.286-.374a5.655,5.655,0,0,1-.792-.858.689.689,0,0,0-.572-.286h-4.686a.712.712,0,0,0-.55.242ZM-95.546-2.9a.461.461,0,0,0,.121.341.461.461,0,0,0,.341.121h7.04a.461.461,0,0,0,.341-.121.461.461,0,0,0,.121-.341v-.77a.461.461,0,0,0-.121-.341.461.461,0,0,0-.341-.121h-7.04a.461.461,0,0,0-.341.121.461.461,0,0,0-.121.341Zm.462,1.122a.461.461,0,0,0-.341.121.461.461,0,0,0-.121.341v.77a.461.461,0,0,0,.121.341.461.461,0,0,0,.341.121h7.04A.461.461,0,0,0-87.7-.209a.461.461,0,0,0,.121-.341v-.77a.461.461,0,0,0-.121-.341.461.461,0,0,0-.341-.121ZM-70.62.792q-.286,0-.286-.132a.158.158,0,0,1,.121-.154,2.39,2.39,0,0,1,.363-.088,12.926,12.926,0,0,0,5.313-1.892A3.931,3.931,0,0,0-63.294-4.8a2.947,2.947,0,0,0-.583-1.936,2.035,2.035,0,0,0-1.661-.7,2.646,2.646,0,0,0-1.837.792,13.519,13.519,0,0,0-1.9,2.4,1.736,1.736,0,0,1-.583.539,1.312,1.312,0,0,1-.605.231q-2.046,0-2.046-2.442,0-1.034.242-3.982.132-1.716.132-1.782,0-.132-.066-.66a1.386,1.386,0,0,1-.066-.44,1.059,1.059,0,0,1,.2-.671,5.608,5.608,0,0,1,.638-.649,3.933,3.933,0,0,1,.748-.506q.418-.22,1.078-.506a7.269,7.269,0,0,0,.9-.407q.286-.165.286-.341,0-.22-.374-.55a4.927,4.927,0,0,0-.792-.572,1.377,1.377,0,0,0-.187-.1q-.121-.055-.121-.121t.275-.1a3.841,3.841,0,0,1,.429-.033,3.194,3.194,0,0,1,1.507.341,2.675,2.675,0,0,1,1.089,1.177,1.394,1.394,0,0,1,.176.7,1.04,1.04,0,0,1-.22.671.608.608,0,0,1-.462.275.548.548,0,0,1-.319-.1,2.1,2.1,0,0,0-.187-.121,2.162,2.162,0,0,0-.462-.264,1.562,1.562,0,0,0-.572-.088,3.964,3.964,0,0,0-2.2.792,1.135,1.135,0,0,0-.4.44,1.172,1.172,0,0,0-.132.528.951.951,0,0,0,.154.462,1.873,1.873,0,0,1,.22.836q0,.242-.154,1.518-.308,2.574-.308,3.124a3.149,3.149,0,0,0,.187,1.1q.187.506.5.506a.917.917,0,0,0,.429-.143q.253-.143.539-.341t.418-.286a16.379,16.379,0,0,1,2.145-1.342,4.448,4.448,0,0,1,2.035-.484,2.994,2.994,0,0,1,1.76.539,3.691,3.691,0,0,1,1.2,1.4,3.937,3.937,0,0,1,.429,1.782,4.119,4.119,0,0,1-.429,1.826,4.909,4.909,0,0,1-2.288,1.8A19.02,19.02,0,0,1-70.2.748,2.693,2.693,0,0,1-70.62.792ZM-44.154.44a4.827,4.827,0,0,1-2.805-.715,3.74,3.74,0,0,1-1.43-2.068A12.191,12.191,0,0,1-48.8-5.786q0-2.09.286-4.906.176-1.848.176-2.442a6.817,6.817,0,0,0-.165-1.7,1.589,1.589,0,0,0-.737-.957q-.176-.11-.176-.242,0-.242.616-.242a1.76,1.76,0,0,1,1.573.638,3.078,3.078,0,0,1,.429,1.738q0,.726-.308,3.3a42.547,42.547,0,0,0-.352,4.95,9.565,9.565,0,0,0,.341,2.893,2.5,2.5,0,0,0,1.155,1.474,4.774,4.774,0,0,0,2.288.451q2.64,0,7-3.19.044-.022.209-.132a.528.528,0,0,1,.253-.11q.066,0,.066.088,0,.154-.286.44A19.664,19.664,0,0,1-40.249-.7,7.568,7.568,0,0,1-44.154.44ZM-13.9-12.54a1.967,1.967,0,0,1,1.287.462,1.515,1.515,0,0,1,.561,1.232,2.1,2.1,0,0,1-.858,1.683,10.162,10.162,0,0,1-2.332,1.331l-1.672.66q-.418.176-.869.352t-.935.374a.61.61,0,0,0-.374.528q-.022.352-.022,1.078,0,1.562-.022,1.76a.809.809,0,0,1-.275.561.789.789,0,0,1-.539.231.584.584,0,0,1-.462-.242.845.845,0,0,1-.2-.55,7.559,7.559,0,0,1,.066-.792l.088-1.056v-.044q0-.4-.286-.4a.409.409,0,0,0-.264.088,5.85,5.85,0,0,0-1.562,1.309,2.4,2.4,0,0,0-.55,1.529q0,1.672,3.344,1.672a6.284,6.284,0,0,0,1.034-.088q.528-.088.99-.2a6.69,6.69,0,0,1,1.364-.2q.858,0,.858.594,0,.66-1.232.924a12.256,12.256,0,0,1-2.574.264q-2.75,0-3.674-.825a2.6,2.6,0,0,1-.924-2.013,2.923,2.923,0,0,1,.847-2.079A9.608,9.608,0,0,1-20.7-6.116a.627.627,0,0,0,.352-.528v-.33q0-2.31-1.364-2.31a2.387,2.387,0,0,0-1.661.946A23.13,23.13,0,0,0-25.058-6.27q-.066.088-.308.451a3.847,3.847,0,0,1-.462.583.6.6,0,0,1-.374.22.653.653,0,0,1-.572-.286,1.168,1.168,0,0,1-.2-.682,1.137,1.137,0,0,1,.242-.792l.4-.352q.7-.66,1.21-1.188a6.339,6.339,0,0,0,.9-1.21A20.7,20.7,0,0,0-22.616-13a.667.667,0,0,0,.022-.2q0-.33-.462-.264a9.337,9.337,0,0,1-1.056.088,2.839,2.839,0,0,1-1.232-.242,6.931,6.931,0,0,1-1.21-.792.177.177,0,0,1-.088-.132q0-.088.11-.088a1.281,1.281,0,0,1,.308.066,4.225,4.225,0,0,0,1.5.264,7.757,7.757,0,0,0,2.288-.374.666.666,0,0,0,.44-.484,5.076,5.076,0,0,0,.066-.726,1.751,1.751,0,0,0-.682-1.43.238.238,0,0,1-.11-.176.314.314,0,0,1,.352-.33,3.953,3.953,0,0,1,.748.132,1.272,1.272,0,0,1,.682.308.781.781,0,0,1,.11.484v.044q0,.462.308.572a2.634,2.634,0,0,0,.594.066,1.232,1.232,0,0,0,.462-.066,2.239,2.239,0,0,1,.44-.044q.506,0,.506.374a.983.983,0,0,1-.341.638,3.276,3.276,0,0,1-.847.616,10.866,10.866,0,0,1-1.5.682.8.8,0,0,0-.44.462q-.528,1.716-1.166,3.278a.668.668,0,0,0-.066.242.156.156,0,0,0,.176.176l.2-.044a2.378,2.378,0,0,1,.66-.11,2.28,2.28,0,0,1,2.354,1.694q.11.242.176.242.088,0,.176-.22a9.785,9.785,0,0,1,1.76-2.53,6.041,6.041,0,0,1,1.628-1.21A4,4,0,0,1-13.9-12.54Zm-6.93-3.432q-.088,0-.2.352,0,.352.132.264l.22-.132q.154-.088.154-.176t-.176-.22l-.11-.088Zm5.06,7.348a7.211,7.211,0,0,0,1.749-1.4,2.146,2.146,0,0,0,.671-1.243q0-.638-.836-.638a2.937,2.937,0,0,0-1.364.418,6.211,6.211,0,0,0-1.43,1.078,6.274,6.274,0,0,0-.9,1.188,12.853,12.853,0,0,0-.77,1.474l-.264.7v.022l.286-.132.462-.22Q-16.39-8.25-15.774-8.624ZM4.8-9.636A9.356,9.356,0,0,1,8.5-6.853,5.792,5.792,0,0,1,9.834-3.278,3.98,3.98,0,0,1,9.163-.99,4.4,4.4,0,0,1,7.392.528a5.37,5.37,0,0,1-2.354.528A3.48,3.48,0,0,1,1.9-.319a6.4,6.4,0,0,1-.913-3.6V-4.994a.471.471,0,0,0-.352-.462Q-.7-6.05-.7-6.974q0-1.254,1.98-3.036a.976.976,0,0,0,.308-.528l.242-1.386a.378.378,0,0,0,.022-.154.481.481,0,0,0-.33-.44A9.273,9.273,0,0,1,.374-13.1a4.33,4.33,0,0,1-.814-.605l-.132-.132a.241.241,0,0,1-.088-.154.117.117,0,0,1,.132-.132,1.839,1.839,0,0,1,.308.088,7.465,7.465,0,0,0,1.067.286q.649.132.825.176a.378.378,0,0,0,.154.022q.33,0,.4-.4a10.2,10.2,0,0,0,.2-1.848,3.426,3.426,0,0,0-.242-1.342,2.738,2.738,0,0,0-.528-.836.36.36,0,0,1-.132-.22q0-.154.242-.154a1.544,1.544,0,0,1,.594.154,2.634,2.634,0,0,1,.66.418A1.9,1.9,0,0,1,3.806-16.3a2.091,2.091,0,0,1-.088.572q-.088.308-.286.814-.2.484-.4,1.122a.667.667,0,0,0-.022.2q0,.308.352.374a8.964,8.964,0,0,1,.88.286,1.322,1.322,0,0,1,.627.506,1.2,1.2,0,0,1,.209.638.6.6,0,0,1-.176.44.642.642,0,0,1-.4.2,4.847,4.847,0,0,0-1.958.616.81.81,0,0,0-.352.506A32.041,32.041,0,0,0,1.8-6.82l-.022.176q0,.264.2.308a12.52,12.52,0,0,0,1.65.088,2.47,2.47,0,0,1,.968.154.6.6,0,0,1,.352.616.475.475,0,0,1-.341.506,2.543,2.543,0,0,1-.781.11,10.257,10.257,0,0,1-1.606-.154,1.044,1.044,0,0,0-.242-.022q-.264,0-.264.132a7.64,7.64,0,0,0,.649,3.5A2.6,2.6,0,0,0,4.906-.176a3.635,3.635,0,0,0,1.76-.429A3.219,3.219,0,0,0,7.931-1.848,3.7,3.7,0,0,0,8.4-3.74,5.259,5.259,0,0,0,7.326-6.721a10.278,10.278,0,0,0-2.75-2.673q-.264-.176-.264-.286,0-.066.11-.066A.873.873,0,0,1,4.8-9.636Zm-2.178-2.42-.044.176a1.044,1.044,0,0,0-.022.242.564.564,0,0,0,.088.352.146.146,0,0,0,.22.022q.352-.308.352-.44,0-.088-.132-.165a1.06,1.06,0,0,0-.253-.11,1.036,1.036,0,0,1-.165-.055ZM.088-7.436a.747.747,0,0,0,.462.682.519.519,0,0,0,.22.066q.308,0,.352-.418.044-.616.176-1.584Q1.342-9,1.078-9q-.286,0-.594.462A2.1,2.1,0,0,0,.088-7.436ZM25.85.44A.233.233,0,0,1,25.7.385.157.157,0,0,1,25.63.264q0-.2.286-.22A10.913,10.913,0,0,0,29.7-.946,7.781,7.781,0,0,0,32.417-2.97a3.949,3.949,0,0,0,1-2.552,3.116,3.116,0,0,0-.451-1.716A2.96,2.96,0,0,0,31.8-8.305a3.241,3.241,0,0,0-1.485-.363,5.837,5.837,0,0,0-3,.913,15.688,15.688,0,0,0-2.365,1.661,11.845,11.845,0,0,1-1.111.858,1.759,1.759,0,0,1-.979.33,3,3,0,0,1-1.716-.858q-.308-.242-.308-.418,0-.2.242-.2a3.832,3.832,0,0,1,.451.044,4.436,4.436,0,0,0,.605.044,2.233,2.233,0,0,0,.979-.253q.517-.253,1.529-.825A20.693,20.693,0,0,1,27.4-8.811a6.89,6.89,0,0,1,2.673-.517,5.149,5.149,0,0,1,2.189.495A4.291,4.291,0,0,1,34-7.381,3.865,3.865,0,0,1,34.672-5.1a4.758,4.758,0,0,1-.528,2.013A5.55,5.55,0,0,1,31.735-.924,13.747,13.747,0,0,1,26.224.418ZM53.284.484a7.993,7.993,0,0,1-3.641-.792A2.973,2.973,0,0,1,48.07-3.234q0-2.6,2.794-4.51a.371.371,0,0,0,.22-.308.483.483,0,0,0-.176-.308A3.312,3.312,0,0,1,50-9.658a5.13,5.13,0,0,1-.275-1.8,11.963,11.963,0,0,1,.308-2.53,8.939,8.939,0,0,0,.242-1.87,2.394,2.394,0,0,0-.11-.792,1.544,1.544,0,0,0-.374-.572q-.154-.154-.3-.275t-.143-.165q0-.132.308-.132a2.231,2.231,0,0,1,.528.077,2.591,2.591,0,0,1,.528.187,1.916,1.916,0,0,1,.8.66,1.915,1.915,0,0,1,.231,1.012,3.117,3.117,0,0,1-.088.737q-.088.363-.2.682t-.154.429q-.022.066-.176.484a5.113,5.113,0,0,0-.33.957,5.3,5.3,0,0,0-.11,1.177,3.781,3.781,0,0,0,.209,1.243,3.02,3.02,0,0,0,.539.99.92.92,0,0,0,.682.385,2.054,2.054,0,0,0,.66-.154q.418-.154.836-.352A3.685,3.685,0,0,1,54.78-9.7a1.548,1.548,0,0,1,.825.253q.407.253.407.517a.608.608,0,0,1-.308.572,3.068,3.068,0,0,1-.968.286,13.307,13.307,0,0,0-3.784,1.3,3.306,3.306,0,0,0-1.826,3.19,2.5,2.5,0,0,0,.836,1.914A3.59,3.59,0,0,0,52.47-.9,7.513,7.513,0,0,0,53.614-.99q.572-.088.682-.11a9.721,9.721,0,0,1,1.43-.176q1.232,0,1.232.726,0,.506-.99.77A10.837,10.837,0,0,1,53.284.484Zm32.23-16.412a.621.621,0,0,0,.55-.308l.132-.2.22-.3q.154-.209.286-.209a1.624,1.624,0,0,1,.649.407,5.555,5.555,0,0,1,.781.759.379.379,0,0,1,.088.242.361.361,0,0,1-.2.286.862.862,0,0,0-.2.088.5.5,0,0,0-.4.506v1.936q.066,2.816.132,4.18v.11a.461.461,0,0,1-.242.44,2.348,2.348,0,0,1-.506.264,1.436,1.436,0,0,1-.506.11.177.177,0,0,1-.165-.121.846.846,0,0,1-.055-.341.461.461,0,0,0-.121-.341.461.461,0,0,0-.341-.121H82.258a.461.461,0,0,0-.341.121.461.461,0,0,0-.121.341v.2q0,.11-.363.286a1.673,1.673,0,0,1-.737.176.333.333,0,0,1-.264-.132.467.467,0,0,1-.11-.308q.088-1.012.154-2.75V-12.21a34.425,34.425,0,0,0-.2-3.872v-.088a.355.355,0,0,1,.077-.242.24.24,0,0,1,.187-.088.548.548,0,0,1,.242.066l.858.374a1.461,1.461,0,0,0,.572.132h.176a.471.471,0,0,0,.506-.418,11.177,11.177,0,0,0,.22-1.826q0-.506.528-.4,1.65.308,1.65.572,0,.088-.2.2l-.11.066a1.2,1.2,0,0,0-.44.374q-.176.286-.616.858a.589.589,0,0,0-.11.286.242.242,0,0,0,.11.209.488.488,0,0,0,.286.077Zm5.17-.946a.4.4,0,0,1,.352-.264.5.5,0,0,1,.286.11l.55.418q.044.044.484.33.616.374.616.528,0,.088-.22.088h-.11a1,1,0,0,0-.506.176q-.858.682-3.476,2.464a.705.705,0,0,1-.286.132q-.132.022-.176-.044a.179.179,0,0,1-.044-.132.336.336,0,0,1,.11-.242l.2-.242q.616-.748,1.221-1.65A16.986,16.986,0,0,0,90.684-16.874ZM75.438-16.3q-.286-.264-.286-.4,0-.088.154-.088a1.086,1.086,0,0,1,.33.066,6.46,6.46,0,0,1,2.695,1.408,2.4,2.4,0,0,1,.869,1.628.9.9,0,0,1-.187.583.605.605,0,0,1-.5.231.613.613,0,0,1-.264-.044.652.652,0,0,1-.4-.374,6.838,6.838,0,0,0-.979-1.529A11.535,11.535,0,0,0,75.438-16.3Zm10.186,3.7a.461.461,0,0,0,.341-.121.461.461,0,0,0,.121-.341v-1.76a.461.461,0,0,0-.121-.341.461.461,0,0,0-.341-.121H82.258a.461.461,0,0,0-.341.121.461.461,0,0,0-.121.341v1.76a.461.461,0,0,0,.121.341.461.461,0,0,0,.341.121Zm-3.366.638a.461.461,0,0,0-.341.121.461.461,0,0,0-.121.341v1.87a.461.461,0,0,0,.121.341.461.461,0,0,0,.341.121h3.366a.461.461,0,0,0,.341-.121.461.461,0,0,0,.121-.341v-1.87a.461.461,0,0,0-.121-.341.461.461,0,0,0-.341-.121Zm5.984.594q-.4-.242-.33-.374a.316.316,0,0,1,.264-.088.926.926,0,0,1,.22.022,10.6,10.6,0,0,1,2.849.9,5.1,5.1,0,0,1,1.617,1.188,1.863,1.863,0,0,1,.506,1.144.707.707,0,0,1-.187.506.623.623,0,0,1-.473.2H92.6a.606.606,0,0,1-.253-.088,1.023,1.023,0,0,1-.209-.2,8.949,8.949,0,0,0-1.672-1.672A18.917,18.917,0,0,0,88.242-11.374ZM74.668-8.734a.589.589,0,0,1-.11-.286q0-.22.286-.352,1.8-.726,4.818-2.244.418-.242.484-.088l.022.066q0,.154-.264.352-1.87,1.584-3.74,2.992-.264.2-.286.286a.245.245,0,0,1-.022.11.259.259,0,0,1-.264.2.341.341,0,0,1-.187-.066.664.664,0,0,1-.165-.154l-.286-.4ZM90.222-5.566a.632.632,0,0,0,.55-.286l.286-.4q.088-.11.231-.3a2.971,2.971,0,0,1,.242-.286.278.278,0,0,1,.187-.1,2.19,2.19,0,0,1,.814.528,6.043,6.043,0,0,1,.924.9.476.476,0,0,1,.11.242.336.336,0,0,1-.11.242.773.773,0,0,1-.418.11H86.174a.531.531,0,0,0-.308.077.224.224,0,0,0-.11.187.483.483,0,0,0,.176.308,14.572,14.572,0,0,0,3.41,2.255,21.176,21.176,0,0,0,4.07,1.507q.418.132.418.22a.232.232,0,0,1-.154.143q-.132.055-.22.1a1.373,1.373,0,0,0-.7.7q-.132.33-.4.33a.7.7,0,0,1-.2-.044A16.569,16.569,0,0,1,88.1-1.375,14.166,14.166,0,0,1,84.964-4.6q-.176-.308-.264-.308h-.066V-2.86Q84.7-.418,84.766.77V.9a.542.542,0,0,1-.2.418,1.632,1.632,0,0,1-.506.253,1.938,1.938,0,0,1-.594.1.448.448,0,0,1-.33-.132.422.422,0,0,1-.132-.308q.132-1.8.176-3.652V-3.652q0-.374-.242-.374a.425.425,0,0,0-.308.176,16.354,16.354,0,0,1-3.509,2.783A23.618,23.618,0,0,1,74.668.99a1.055,1.055,0,0,1-.308.066q-.154,0-.176-.088V.924q0-.154.33-.33a22.26,22.26,0,0,0,3.63-2.222A18.648,18.648,0,0,0,81.07-4.334a.543.543,0,0,0,.132-.308q0-.264-.4-.264H77.968a23.7,23.7,0,0,0-2.9.242h-.132a.452.452,0,0,1-.44-.286l-.11-.2a.548.548,0,0,1-.066-.242q0-.33.44-.286.748.066,2.266.11h5.7a.408.408,0,0,0,.462-.462l-.066-1.188V-7.26q0-.374.308-.374a.49.49,0,0,1,.22.044,8.206,8.206,0,0,1,1.2.44q.341.176.341.308,0,.11-.176.22l-.066.044a.621.621,0,0,0-.308.55.461.461,0,0,0,.121.341.461.461,0,0,0,.341.121ZM115.038.44a4.827,4.827,0,0,1-2.805-.715,3.74,3.74,0,0,1-1.43-2.068,12.191,12.191,0,0,1-.407-3.443q0-2.09.286-4.906.176-1.848.176-2.442a6.817,6.817,0,0,0-.165-1.7,1.589,1.589,0,0,0-.737-.957q-.176-.11-.176-.242,0-.242.616-.242a1.76,1.76,0,0,1,1.573.638A3.078,3.078,0,0,1,112.4-13.9q0,.726-.308,3.3a42.546,42.546,0,0,0-.352,4.95,9.565,9.565,0,0,0,.341,2.893,2.5,2.5,0,0,0,1.155,1.474,4.774,4.774,0,0,0,2.288.451q2.64,0,7-3.19.044-.022.209-.132a.529.529,0,0,1,.253-.11q.066,0,.066.088,0,.154-.286.44A19.664,19.664,0,0,1,118.943-.7,7.568,7.568,0,0,1,115.038.44Zm25.608.594a.761.761,0,0,1-.7-.473,11.039,11.039,0,0,1-.572-1.485,26.027,26.027,0,0,0-1.144-3.091,20.52,20.52,0,0,0-1.21-2.123q-.11-.176-.484-.748a5.349,5.349,0,0,1-.506-.913,1.75,1.75,0,0,1-.132-.627,2.057,2.057,0,0,1,.209-.836,10.783,10.783,0,0,1,.715-1.254,33.759,33.759,0,0,0,2.64-4.906,2.734,2.734,0,0,0,.22-.924.8.8,0,0,0-.22-.594,2.908,2.908,0,0,0-.385-.308q-.253-.176-.253-.264,0-.132.286-.132a2.686,2.686,0,0,1,.836.187,3.621,3.621,0,0,1,.946.5,1.053,1.053,0,0,1,.484.88,2.2,2.2,0,0,1-.176.726,10.741,10.741,0,0,1-.671,1.364,12.314,12.314,0,0,1-1.111,1.518q-1.606,1.958-2.574,3.344a1.169,1.169,0,0,0-.242.7,1.075,1.075,0,0,0,.308.7A28.644,28.644,0,0,1,139.843-3.8,7.752,7.752,0,0,1,141.284.176a1.128,1.128,0,0,1-.154.616A.532.532,0,0,1,140.646,1.034Zm20.2-4.576a.255.255,0,0,1-.187-.077.314.314,0,0,1-.077-.231,1.038,1.038,0,0,1,.132-.44q1.3-2.464,2.134-4.3t1.65-3.817q.616-1.474,1.012-2.332a18.154,18.154,0,0,1,.88-1.672,2.4,2.4,0,0,1,.77-.825,1.649,1.649,0,0,1,.88-.275,1.2,1.2,0,0,1,.924.407,1.484,1.484,0,0,1,.374,1.045,2.356,2.356,0,0,1-.33,1.144q-.4.682-.935,1.452t-.924,1.276q-.385.506-.583.77-1.474,1.914-2.607,3.509t-2.629,3.971Q161.084-3.542,160.842-3.542ZM159.06.792a1.342,1.342,0,0,1-1-.418,1.4,1.4,0,0,1-.407-1.012,1.424,1.424,0,0,1,.407-1.034,1.342,1.342,0,0,1,1-.418,1.4,1.4,0,0,1,1.034.418,1.4,1.4,0,0,1,.418,1.034,1.378,1.378,0,0,1-.418,1.012A1.4,1.4,0,0,1,159.06.792ZM197.516-18.37a.422.422,0,0,1,.132.308.462.462,0,0,1-.154.33l-19.36,19.36a.463.463,0,0,1-.33.154.422.422,0,0,1-.308-.132.444.444,0,0,1-.154-.308.591.591,0,0,1,.154-.33l19.36-19.36a.462.462,0,0,1,.33-.154A.5.5,0,0,1,197.516-18.37Z" transform="translate(801 802)" fill="#fff"/>
        <path id="パス_32322" data-name="パス 32322" d="M85.514-15.928a.621.621,0,0,0,.55-.308l.132-.2.22-.3q.154-.209.286-.209a1.624,1.624,0,0,1,.649.407,5.555,5.555,0,0,1,.781.759.379.379,0,0,1,.088.242.361.361,0,0,1-.2.286.862.862,0,0,0-.2.088.5.5,0,0,0-.4.506v1.936q.066,2.816.132,4.18v.11a.461.461,0,0,1-.242.44,2.348,2.348,0,0,1-.506.264,1.436,1.436,0,0,1-.506.11.177.177,0,0,1-.165-.121.846.846,0,0,1-.055-.341.461.461,0,0,0-.121-.341.461.461,0,0,0-.341-.121H82.258a.461.461,0,0,0-.341.121.461.461,0,0,0-.121.341v.2q0,.11-.363.286a1.673,1.673,0,0,1-.737.176.333.333,0,0,1-.264-.132.467.467,0,0,1-.11-.308q.088-1.012.154-2.75V-12.21a34.425,34.425,0,0,0-.2-3.872v-.088a.355.355,0,0,1,.077-.242.24.24,0,0,1,.187-.088.548.548,0,0,1,.242.066l.858.374a1.461,1.461,0,0,0,.572.132h.176a.471.471,0,0,0,.506-.418,11.177,11.177,0,0,0,.22-1.826q0-.506.528-.4,1.65.308,1.65.572,0,.088-.2.2l-.11.066a1.2,1.2,0,0,0-.44.374q-.176.286-.616.858a.589.589,0,0,0-.11.286.242.242,0,0,0,.11.209.488.488,0,0,0,.286.077Zm5.17-.946a.4.4,0,0,1,.352-.264.5.5,0,0,1,.286.11l.55.418q.044.044.484.33.616.374.616.528,0,.088-.22.088h-.11a1,1,0,0,0-.506.176q-.858.682-3.476,2.464a.705.705,0,0,1-.286.132q-.132.022-.176-.044a.179.179,0,0,1-.044-.132.336.336,0,0,1,.11-.242l.2-.242q.616-.748,1.221-1.65A16.986,16.986,0,0,0,90.684-16.874ZM75.438-16.3q-.286-.264-.286-.4,0-.088.154-.088a1.086,1.086,0,0,1,.33.066,6.46,6.46,0,0,1,2.695,1.408,2.4,2.4,0,0,1,.869,1.628.9.9,0,0,1-.187.583.605.605,0,0,1-.5.231.613.613,0,0,1-.264-.044.652.652,0,0,1-.4-.374,6.838,6.838,0,0,0-.979-1.529A11.535,11.535,0,0,0,75.438-16.3Zm10.186,3.7a.461.461,0,0,0,.341-.121.461.461,0,0,0,.121-.341v-1.76a.461.461,0,0,0-.121-.341.461.461,0,0,0-.341-.121H82.258a.461.461,0,0,0-.341.121.461.461,0,0,0-.121.341v1.76a.461.461,0,0,0,.121.341.461.461,0,0,0,.341.121Zm-3.366.638a.461.461,0,0,0-.341.121.461.461,0,0,0-.121.341v1.87a.461.461,0,0,0,.121.341.461.461,0,0,0,.341.121h3.366a.461.461,0,0,0,.341-.121.461.461,0,0,0,.121-.341v-1.87a.461.461,0,0,0-.121-.341.461.461,0,0,0-.341-.121Zm5.984.594q-.4-.242-.33-.374a.316.316,0,0,1,.264-.088.926.926,0,0,1,.22.022,10.6,10.6,0,0,1,2.849.9,5.1,5.1,0,0,1,1.617,1.188,1.863,1.863,0,0,1,.506,1.144.707.707,0,0,1-.187.506.623.623,0,0,1-.473.2H92.6a.606.606,0,0,1-.253-.088,1.023,1.023,0,0,1-.209-.2,8.949,8.949,0,0,0-1.672-1.672A18.917,18.917,0,0,0,88.242-11.374ZM74.668-8.734a.589.589,0,0,1-.11-.286q0-.22.286-.352,1.8-.726,4.818-2.244.418-.242.484-.088l.022.066q0,.154-.264.352-1.87,1.584-3.74,2.992-.264.2-.286.286a.245.245,0,0,1-.022.11.259.259,0,0,1-.264.2.341.341,0,0,1-.187-.066.664.664,0,0,1-.165-.154l-.286-.4ZM90.222-5.566a.632.632,0,0,0,.55-.286l.286-.4q.088-.11.231-.3a2.971,2.971,0,0,1,.242-.286.278.278,0,0,1,.187-.1,2.19,2.19,0,0,1,.814.528,6.043,6.043,0,0,1,.924.9.476.476,0,0,1,.11.242.336.336,0,0,1-.11.242.773.773,0,0,1-.418.11H86.174a.531.531,0,0,0-.308.077.224.224,0,0,0-.11.187.483.483,0,0,0,.176.308,14.572,14.572,0,0,0,3.41,2.255,21.176,21.176,0,0,0,4.07,1.507q.418.132.418.22a.232.232,0,0,1-.154.143q-.132.055-.22.1a1.373,1.373,0,0,0-.7.7q-.132.33-.4.33a.7.7,0,0,1-.2-.044A16.569,16.569,0,0,1,88.1-1.375,14.166,14.166,0,0,1,84.964-4.6q-.176-.308-.264-.308h-.066V-2.86Q84.7-.418,84.766.77V.9a.542.542,0,0,1-.2.418,1.632,1.632,0,0,1-.506.253,1.938,1.938,0,0,1-.594.1.448.448,0,0,1-.33-.132.422.422,0,0,1-.132-.308q.132-1.8.176-3.652V-3.652q0-.374-.242-.374a.425.425,0,0,0-.308.176,16.354,16.354,0,0,1-3.509,2.783A23.618,23.618,0,0,1,74.668.99a1.055,1.055,0,0,1-.308.066q-.154,0-.176-.088V.924q0-.154.33-.33a22.26,22.26,0,0,0,3.63-2.222A18.648,18.648,0,0,0,81.07-4.334a.543.543,0,0,0,.132-.308q0-.264-.4-.264H77.968a23.7,23.7,0,0,0-2.9.242h-.132a.452.452,0,0,1-.44-.286l-.11-.2a.548.548,0,0,1-.066-.242q0-.33.44-.286.748.066,2.266.11h5.7a.408.408,0,0,0,.462-.462l-.066-1.188V-7.26q0-.374.308-.374a.49.49,0,0,1,.22.044,8.206,8.206,0,0,1,1.2.44q.341.176.341.308,0,.11-.176.22l-.066.044a.621.621,0,0,0-.308.55.461.461,0,0,0,.121.341.461.461,0,0,0,.341.121Z" transform="translate(801 802)" fill="#183349"/>
      </g>
    </g>
  </g>
</svg>
