<svg xmlns="http://www.w3.org/2000/svg" width="575.892" height="161.426" viewBox="0 0 575.892 161.426">
  <g id="text" transform="translate(93.578 -2881.134)">
    <path id="パス_32350" data-name="パス 32350" d="M-70.12-2.4a.838.838,0,0,1-.22.62.838.838,0,0,1-.62.22h-.12a.838.838,0,0,1-.62-.22.838.838,0,0,1-.22-.62V-33.12a.838.838,0,0,1,.22-.62.838.838,0,0,1,.62-.22h11.76a.838.838,0,0,1,.62.22.838.838,0,0,1,.22.62V-33a.838.838,0,0,1-.22.62.838.838,0,0,1-.62.22h-9.96a.838.838,0,0,0-.62.22.838.838,0,0,0-.22.62Zm22.04-11.76q0-.72-.4-.72-.28,0-.56.52a32.994,32.994,0,0,1-5.88,8.52,1.981,1.981,0,0,1-.5.4.285.285,0,0,1-.34-.08.326.326,0,0,1-.08-.24,1.25,1.25,0,0,1,.28-.64,38.074,38.074,0,0,0,3.96-7.26,53.2,53.2,0,0,0,2.72-8.5l.04-.24a.61.61,0,0,0-.22-.5.887.887,0,0,0-.58-.18h-1.2a19.17,19.17,0,0,0-3.12.4h-.24a.822.822,0,0,1-.8-.52l-.16-.32a1.065,1.065,0,0,1-.12-.48.44.44,0,0,1,.2-.38.8.8,0,0,1,.56-.1q1.32.12,4,.2h1.6a.838.838,0,0,0,.62-.22.838.838,0,0,0,.22-.62v-.36a62.726,62.726,0,0,0-.36-7.12v-.16q0-.68.6-.68a1.27,1.27,0,0,1,.36.08q2.88.96,2.88,1.44,0,.2-.32.4l-.12.08a1.128,1.128,0,0,0-.56,1v5.32a.838.838,0,0,0,.22.62.838.838,0,0,0,.62.22h.84a1.149,1.149,0,0,0,1-.52l.44-.6a5.761,5.761,0,0,0,.34-.48,2.872,2.872,0,0,1,.38-.48.552.552,0,0,1,.36-.2q.28,0,1.3.86a8.757,8.757,0,0,1,1.5,1.54.6.6,0,0,1,.16.44.612.612,0,0,1-.2.44,1.4,1.4,0,0,1-.76.2h-5.36a.838.838,0,0,0-.62.22.838.838,0,0,0-.22.62v2.28a.978.978,0,0,0,.68.96,11.753,11.753,0,0,1,4.22,2.94,4.859,4.859,0,0,1,1.34,2.98,1.778,1.778,0,0,1-.34,1.12,1.082,1.082,0,0,1-.9.44,1.146,1.146,0,0,1-.52-.12,1.237,1.237,0,0,1-.68-.84,17.639,17.639,0,0,0-2.76-4.8.773.773,0,0,0-.56-.32q-.48,0-.48.72v9.36q.08,4.32.28,8.84v.24a1.038,1.038,0,0,1-.32.76,2.847,2.847,0,0,1-.88.52,2.781,2.781,0,0,1-1,.2,1.088,1.088,0,0,1-.7-.24.7.7,0,0,1-.3-.56q.16-2.36.28-4.58t.16-5.82Zm12.04-10.6a65.183,65.183,0,0,0-.36-7.16v-.16a.667.667,0,0,1,.16-.46.558.558,0,0,1,.44-.18,1.27,1.27,0,0,1,.36.08q3,.92,3,1.4,0,.2-.32.4l-.12.08a1.128,1.128,0,0,0-.56,1V-1.88a1.335,1.335,0,0,0,.38,1.1,2.694,2.694,0,0,0,1.54.3h3.68q3.04,0,3.64-.08a.95.95,0,0,0,.44-.16,1.246,1.246,0,0,0,.32-.44A43.973,43.973,0,0,0-22.2-6.92q.12-.76.4-.76.24,0,.24.84l.12,5.28a1.232,1.232,0,0,0,.64,1,.958.958,0,0,1,.52.84,1.065,1.065,0,0,1-.64.98,6.415,6.415,0,0,1-2.24.48q-1.6.14-4.76.14h-4a5.434,5.434,0,0,1-3.24-.7,3.091,3.091,0,0,1-.88-2.54Zm27.8-1.8a1.128,1.128,0,0,0,1-.56l.16-.28q.08-.12.24-.38a2.152,2.152,0,0,1,.28-.38.384.384,0,0,1,.28-.12,2.886,2.886,0,0,1,1.16.7,10.572,10.572,0,0,1,1.4,1.3.543.543,0,0,1,.16.4.678.678,0,0,1-.36.56,3.1,3.1,0,0,1-.4.16.941.941,0,0,0-.72.96V-8.84a5.438,5.438,0,0,1-.32,2.12,1.907,1.907,0,0,1-1.36,1A.686.686,0,0,1-7-5.68q-.56,0-.68-.76A2.466,2.466,0,0,0-8-7.28a1.676,1.676,0,0,0-.64-.52,2.354,2.354,0,0,1-.52-.26q-.2-.14-.2-.26,0-.2.6-.2l1.08.04q.48,0,.48-.6V-24.52a.838.838,0,0,0-.22-.62.838.838,0,0,0-.62-.22h-.92a.838.838,0,0,0-.62.22.838.838,0,0,0-.22.62V-7.4q.08,4.36.28,8.8v.16a.958.958,0,0,1-.4.84,2.934,2.934,0,0,1-1.72.64.765.765,0,0,1-.54-.26.765.765,0,0,1-.26-.54q.16-2.36.28-4.58T-12-8.16V-24.52a.838.838,0,0,0-.22-.62.838.838,0,0,0-.62-.22h-.56a.838.838,0,0,0-.62.22.838.838,0,0,0-.22.62v9.4q.08,4.36.28,8.8v.2a.859.859,0,0,1-.4.8,2.648,2.648,0,0,1-1.68.6.765.765,0,0,1-.54-.26.765.765,0,0,1-.26-.54q.16-2.08.26-4.1t.14-5.1v-5.04a61.512,61.512,0,0,0-.36-7v-.16a.727.727,0,0,1,.14-.46.418.418,0,0,1,.34-.18,1,1,0,0,1,.44.12l1.32.64a2.14,2.14,0,0,0,1.04.24h.64a.742.742,0,0,0,.84-.84q-.08-3.08-.28-5.04v-.16a.667.667,0,0,1,.16-.46.558.558,0,0,1,.44-.18,1.27,1.27,0,0,1,.36.08q2.68.84,2.68,1.36,0,.2-.32.4l-.12.08a1.128,1.128,0,0,0-.56,1v2.92a.838.838,0,0,0,.22.62.838.838,0,0,0,.62.22Zm19.72-5.12a1.128,1.128,0,0,0,1-.56l.2-.28q.12-.16.28-.4a2.433,2.433,0,0,1,.28-.36.384.384,0,0,1,.28-.12,2.564,2.564,0,0,1,1.08.62,7.127,7.127,0,0,1,1.24,1.18.543.543,0,0,1,.16.4.616.616,0,0,1-.4.56l-.2.08a.983.983,0,0,0-.72.96v2.8q.12,4.16.2,6.32v.2a.859.859,0,0,1-.4.8,3.231,3.231,0,0,1-1.8.52q-.44,0-.44-.72,0-.68-.84-.68H.84a.838.838,0,0,0-.62.22.838.838,0,0,0-.22.62v.16q0,.24-.58.52a3.146,3.146,0,0,1-1.38.28.552.552,0,0,1-.46-.24.908.908,0,0,1-.18-.56q.16-1.56.24-4v-2.4A58.84,58.84,0,0,0-2.68-32v-.16q0-.6.52-.6a.891.891,0,0,1,.4.08L0-31.92a2.463,2.463,0,0,0,1.04.24Zm-.08,4.96a.838.838,0,0,0,.62-.22.838.838,0,0,0,.22-.62v-2.12a.838.838,0,0,0-.22-.62.838.838,0,0,0-.62-.22H.84a.838.838,0,0,0-.62.22.838.838,0,0,0-.22.62v2.12a.838.838,0,0,0,.22.62.838.838,0,0,0,.62.22ZM.84-25.56a.838.838,0,0,0-.62.22.838.838,0,0,0-.22.62v2.32a.838.838,0,0,0,.22.62.838.838,0,0,0,.62.22H11.4a.838.838,0,0,0,.62-.22.838.838,0,0,0,.22-.62v-2.32a.838.838,0,0,0-.22-.62.838.838,0,0,0-.62-.22ZM12.4-10.84a1.149,1.149,0,0,0,1-.52l.4-.56q.12-.16.34-.48a3.529,3.529,0,0,1,.38-.48.461.461,0,0,1,.32-.16q.32,0,1.3.84a8.273,8.273,0,0,1,1.42,1.48.6.6,0,0,1,.16.44.612.612,0,0,1-.2.44,1.21,1.21,0,0,1-.72.2H10.6a.838.838,0,0,0-.62.22.838.838,0,0,0-.22.62V-.44a.54.54,0,0,0,.18.48,1.75,1.75,0,0,0,.82.12h4.08a.892.892,0,0,0,.32-.12.827.827,0,0,0,.24-.36,33.477,33.477,0,0,0,.84-4.08q.16-.76.44-.76.12,0,.2.22a1.887,1.887,0,0,1,.08.62l.08,3.44a1,1,0,0,0,.12.52,3.015,3.015,0,0,0,.44.52,1.039,1.039,0,0,1,.24.76q0,.8-1.06,1.18a13.938,13.938,0,0,1-4.02.38H10.12A3.337,3.337,0,0,1,7.9,1.96,2.507,2.507,0,0,1,7.36.12V-8.8a.838.838,0,0,0-.22-.62.838.838,0,0,0-.62-.22H4.68a.792.792,0,0,0-.88.8A14.667,14.667,0,0,1,.84-1.42a14.949,14.949,0,0,1-6.96,4.3A1.919,1.919,0,0,1-6.68,3,.311.311,0,0,1-7,2.8V2.68q0-.24.6-.56A13.647,13.647,0,0,0-1.02-2.24,14.656,14.656,0,0,0,1.16-8.76v-.12q0-.76-.8-.76h-1a13.409,13.409,0,0,0-2.44.36,1.041,1.041,0,0,1-.32.04.8.8,0,0,1-.76-.52l-.16-.32a1,1,0,0,1-.12-.44.479.479,0,0,1,.2-.42.8.8,0,0,1,.56-.1q1.44.12,4.16.2H3.72q.84,0,.84-.6a62.726,62.726,0,0,0-.36-7.12v-.16q0-.64.56-.64a2.4,2.4,0,0,1,.4.08q2.68.84,2.68,1.28,0,.16-.32.36l-.04.04a1.192,1.192,0,0,0-.56,1v4.92a.838.838,0,0,0,.22.62.838.838,0,0,0,.62.22Zm-.96-7q.2-.56.6-.56a1.065,1.065,0,0,1,.48.12l.8.44a5.8,5.8,0,0,0,.96.4q1,.44,1,.72,0,.2-.44.32l-.16.04a1.916,1.916,0,0,0-.92.6,28.942,28.942,0,0,1-3.68,3.56q-.56.44-.88.2a.346.346,0,0,1-.12-.24,1.687,1.687,0,0,1,.28-.68A24.4,24.4,0,0,0,11.44-17.84Zm-13.8.76a2.968,2.968,0,0,1-.32-.58q-.08-.22,0-.3A.232.232,0,0,1-2.52-18a2.572,2.572,0,0,1,.68.2,9.01,9.01,0,0,1,3.1,2.26,3.76,3.76,0,0,1,.98,2.3,1.713,1.713,0,0,1-.34,1.08,1.044,1.044,0,0,1-.86.44,1.63,1.63,0,0,1-.56-.12,1.153,1.153,0,0,1-.6-.84,11.385,11.385,0,0,0-.9-2.24A15.288,15.288,0,0,0-2.36-17.08Zm49.64-3.44a1.162,1.162,0,0,0,1.04-.56l.2-.36q.12-.16.28-.42a2.152,2.152,0,0,1,.28-.38.384.384,0,0,1,.28-.12,3.454,3.454,0,0,1,1.28.78,9.518,9.518,0,0,1,1.52,1.42.688.688,0,0,1,.16.44.665.665,0,0,1-.32.52.944.944,0,0,1-.44.2.983.983,0,0,0-.72.96V-5.2a3.883,3.883,0,0,1-.66,2.44A4.278,4.278,0,0,1,47.44-1.6h-.2a.8.8,0,0,1-.8-.68,2.43,2.43,0,0,0-.68-1.04,6.14,6.14,0,0,0-2.72-.92q-.8-.12-.8-.44,0-.24.88-.24,3.72.24,4.2.24a1.264,1.264,0,0,0,.78-.18.761.761,0,0,0,.22-.62v-13a.838.838,0,0,0-.22-.62.838.838,0,0,0-.62-.22H40.12a.838.838,0,0,0-.62.22.838.838,0,0,0-.22.62V-7.92q.08,4.32.28,8.84v.24a1.038,1.038,0,0,1-.32.76,3.651,3.651,0,0,1-1,.62,2.757,2.757,0,0,1-1.08.26,1.009,1.009,0,0,1-.68-.24A.719.719,0,0,1,36.2,2q.16-2.36.28-4.58t.16-5.82V-18.48a.838.838,0,0,0-.22-.62.838.838,0,0,0-.62-.22H28.56a.838.838,0,0,0-.62.22.838.838,0,0,0-.22.62v6.64q.08,4.36.28,8.8v.2a.89.89,0,0,1-.36.8,3.3,3.3,0,0,1-2,.68.7.7,0,0,1-.54-.24.8.8,0,0,1-.22-.56q.24-3.72.32-7.48V-13.8a62.589,62.589,0,0,0-.36-7.04V-21q0-.6.52-.6a.891.891,0,0,1,.4.08l1.68.76a2.656,2.656,0,0,0,1.04.24H35.8a.838.838,0,0,0,.62-.22.838.838,0,0,0,.22-.62V-25.6a.838.838,0,0,0-.22-.62.838.838,0,0,0-.62-.22H27.24a43.086,43.086,0,0,0-5.28.44h-.24a.822.822,0,0,1-.8-.52l-.2-.36a1,1,0,0,1-.12-.44q0-.6.8-.52,1.36.12,4.12.2H35.8a.742.742,0,0,0,.84-.84q-.08-2.44-.24-4.28v-.08q0-.72.6-.72l.36.08q2.88.88,2.88,1.4,0,.2-.32.4l-.12.08a1.149,1.149,0,0,0-.52,1v2.12a.838.838,0,0,0,.22.62.838.838,0,0,0,.62.22h9.2a1.149,1.149,0,0,0,1-.52l.52-.72q.12-.16.4-.54a5.174,5.174,0,0,1,.46-.56.5.5,0,0,1,.34-.18,4.205,4.205,0,0,1,1.52.96,12.3,12.3,0,0,1,1.76,1.64.88.88,0,0,1,.2.48.572.572,0,0,1-.24.44,1.4,1.4,0,0,1-.76.2H40.4a1.615,1.615,0,0,0-.82.16q-.26.16.06.32.56.4.56.68,0,.24-.36.48l-.04.04a1.216,1.216,0,0,0-.52,1v2.4a.838.838,0,0,0,.22.62.838.838,0,0,0,.62.22Zm23-7.48a.838.838,0,0,1,.22-.62.838.838,0,0,1,.62-.22h.12a.838.838,0,0,1,.62.22.838.838,0,0,1,.22.62V2.72a.838.838,0,0,1-.22.62.838.838,0,0,1-.62.22H59.48a.838.838,0,0,1-.62-.22.838.838,0,0,1-.22-.62V2.6a.838.838,0,0,1,.22-.62.838.838,0,0,1,.62-.22h9.96a.838.838,0,0,0,.62-.22.838.838,0,0,0,.22-.62Z" transform="translate(196 3039)" fill="#3f3f3f"/>
    <path id="パス_32349" data-name="パス 32349" d="M-263.942-21.25a1.554,1.554,0,0,0,.408-.442l.238-.34q.068-.1.221-.323a2.519,2.519,0,0,1,.272-.34.357.357,0,0,1,.255-.119,2.351,2.351,0,0,1,.969.612,6.032,6.032,0,0,1,1.1,1.156.585.585,0,0,1,.136.374.408.408,0,0,1-.34.408.522.522,0,0,1-.2.068.856.856,0,0,0-.612.85q-.1,6.358-.442,9.129A7.313,7.313,0,0,1-263.024-6.6a3.02,3.02,0,0,1-2.006,1.02l-.17.034q-.442,0-.578-.68a1.4,1.4,0,0,0-.34-.85,2.649,2.649,0,0,0-1.054-.51q-.646-.136-.646-.442,0-.136.2-.2a1.342,1.342,0,0,1,.544-.034,16.854,16.854,0,0,0,1.7.1,1.6,1.6,0,0,0,.527-.068.73.73,0,0,0,.323-.238,6.773,6.773,0,0,0,.663-3.009q.221-2.5.323-7.9,0-.68-.544-.68a1.079,1.079,0,0,0-.306.068l-3.6,1.428a.935.935,0,0,0-.425.323.907.907,0,0,0-.119.493v5.406q.068,3.706.238,7.48v.17a.965.965,0,0,1-.272.714,3.3,3.3,0,0,1-.782.459,2.178,2.178,0,0,1-.85.187.71.71,0,0,1-.493-.2.629.629,0,0,1-.221-.476q.136-1.972.221-3.91t.119-4.9v-3.876a.686.686,0,0,0-.136-.442.453.453,0,0,0-.374-.17l-.306.068-2.992,1.19a.831.831,0,0,0-.578.816V-2.006A1.2,1.2,0,0,0-274.5-.9a4.249,4.249,0,0,0,1.955.289h4.862q3.57,0,4.624-.1a1.6,1.6,0,0,0,.612-.2.721.721,0,0,0,.272-.306,3.114,3.114,0,0,0,.17-.408,35.495,35.495,0,0,0,.952-4.114q.136-.646.374-.646.2,0,.2.714l.068,3.978a.937.937,0,0,0,.578.85,1,1,0,0,1,.408.357.948.948,0,0,1,.1.459,1,1,0,0,1-.663.952,7.969,7.969,0,0,1-2.414.442q-1.751.136-5.355.136h-4.964a9.736,9.736,0,0,1-2.6-.272,2.174,2.174,0,0,1-1.326-.918,3.648,3.648,0,0,1-.391-1.87V-14.178a.686.686,0,0,0-.136-.442.453.453,0,0,0-.374-.17l-.306.068L-280.5-13.7a1.874,1.874,0,0,1-.374.068.644.644,0,0,1-.51-.238.522.522,0,0,1-.068-.2q0-.306.544-.51l3.332-1.326a.935.935,0,0,0,.425-.323.907.907,0,0,0,.119-.493v-4.284a38.115,38.115,0,0,0-.2-4.114v-.068q0-.612.51-.612a2.045,2.045,0,0,1,.34.068,15.078,15.078,0,0,1,1.785.7q.493.255.493.493,0,.17-.272.34l-.1.068a.959.959,0,0,0-.476.85v5.474a.744.744,0,0,0,.136.476.453.453,0,0,0,.374.17,1.079,1.079,0,0,0,.306-.068l2.992-1.19a.831.831,0,0,0,.578-.816v-4.318a39.7,39.7,0,0,0-.2-4.148v-.068q0-.612.51-.612a2.045,2.045,0,0,1,.34.068,11.5,11.5,0,0,1,1.717.68q.493.272.493.476t-.272.374l-.1.068a.977.977,0,0,0-.442.85v5.542a.686.686,0,0,0,.136.442.453.453,0,0,0,.374.17l.306-.068,3.6-1.394Zm-18.836,3.026a.959.959,0,0,0,.85-.476l.306-.51a4.761,4.761,0,0,0,.306-.442,3.313,3.313,0,0,1,.289-.408.34.34,0,0,1,.255-.136q.238,0,1.054.731a6.916,6.916,0,0,1,1.19,1.309,1.044,1.044,0,0,1,.136.408.486.486,0,0,1-.2.374.968.968,0,0,1-.578.17h-3.468a.713.713,0,0,0-.527.187.713.713,0,0,0-.187.527v9.146a.744.744,0,0,0,.136.476.453.453,0,0,0,.374.17.8.8,0,0,0,.34-.1l3.434-1.6a1.675,1.675,0,0,1,.493-.153.255.255,0,0,1,.255.085V-8.4q0,.2-.442.544.136-.1-2.55,1.734-3.672,2.516-6.12,4.046-.442.272-.476.374l-.034.1a.381.381,0,0,1-.374.306.518.518,0,0,1-.323-.119.662.662,0,0,1-.221-.323l-.612-1.36a.8.8,0,0,1-.1-.34.6.6,0,0,1,.476-.578q1.9-.714,3.128-1.258a.83.83,0,0,0,.544-.816v-10.4a.713.713,0,0,0-.187-.527.713.713,0,0,0-.527-.187h-.612a6.868,6.868,0,0,0-1.53.272.885.885,0,0,1-.272.034.742.742,0,0,1-.68-.442l-.1-.238a.846.846,0,0,1-.1-.374q0-.476.68-.408t1.972.136h.646a.713.713,0,0,0,.527-.187.713.713,0,0,0,.187-.527v-2.04a54.235,54.235,0,0,0-.306-6.086V-27.2a.567.567,0,0,1,.136-.391.475.475,0,0,1,.374-.153,1.079,1.079,0,0,1,.306.068,13.418,13.418,0,0,1,1.9.68q.544.272.544.476,0,.17-.306.34l-.1.068a.911.911,0,0,0-.476.85v6.324Q-283.356-18.224-282.778-18.224Zm29.138,3.468a.851.851,0,0,0-.1-.442.307.307,0,0,0-.272-.17q-.2,0-.476.374a30.786,30.786,0,0,1-2.414,3.06q-.442.51-.68.306a.294.294,0,0,1-.1-.2,1.5,1.5,0,0,1,.238-.544,52.1,52.1,0,0,0,4.42-9.078q.51-1.428,1-3.264a28.71,28.71,0,0,0,.7-3.23q.1-.578.578-.578a2.045,2.045,0,0,1,.34.068q2.618.884,2.618,1.292,0,.136-.306.238l-.1.034a.94.94,0,0,0-.68.68q-1.292,3.4-2.686,6.222a.905.905,0,0,0-.1.408.882.882,0,0,0,.306.612q.544.51.544.782,0,.2-.306.374a.794.794,0,0,0-.51.816V-6.256q.068,3.706.238,7.48V1.36a.814.814,0,0,1-.34.714,2.8,2.8,0,0,1-1.53.544.771.771,0,0,1-.51-.2.612.612,0,0,1-.238-.476q.136-2.006.238-3.893t.136-4.947Zm21.42-10.132a.977.977,0,0,0,.85-.442l.442-.612q.1-.136.34-.459a4.4,4.4,0,0,1,.391-.476.429.429,0,0,1,.289-.153,3.493,3.493,0,0,1,1.275.8,8.632,8.632,0,0,1,1.445,1.377.748.748,0,0,1,.17.408.486.486,0,0,1-.2.374.941.941,0,0,1-.578.136h-5.984a.713.713,0,0,0-.527.187.713.713,0,0,0-.187.527v4.658a.713.713,0,0,0,.187.527.713.713,0,0,0,.527.187h2.652a.959.959,0,0,0,.85-.476l.136-.2a2.069,2.069,0,0,0,.238-.306,1.392,1.392,0,0,1,.238-.289.361.361,0,0,1,.238-.085,2.293,2.293,0,0,1,.935.51,6.544,6.544,0,0,1,1.1.986.585.585,0,0,1,.136.374.5.5,0,0,1-.306.442l-.238.1a.78.78,0,0,0-.612.782v9.18q.068,3.74.238,7.446V.748a.822.822,0,0,1-.374.748,2.684,2.684,0,0,1-1.6.51.374.374,0,0,1-.374-.272.556.556,0,0,1-.068-.306,4.46,4.46,0,0,1,.068-.51q0-.068.068-.816V-.136a.713.713,0,0,0-.187-.527.713.713,0,0,0-.527-.187h-14.246a.713.713,0,0,0-.527.187.713.713,0,0,0-.187.527v.068l.068.884v.272a.762.762,0,0,1-.238.612,2.195,2.195,0,0,1-1.5.476.683.683,0,0,1-.493-.221.651.651,0,0,1-.221-.459q.136-2.006.238-3.893t.136-4.947V-12.1a52.628,52.628,0,0,0-.306-5.984v-.136q0-.51.442-.51a.757.757,0,0,1,.34.068l1.5.646a2.033,2.033,0,0,0,.85.17h2.176a.713.713,0,0,0,.527-.187.713.713,0,0,0,.187-.527v-4.658a.713.713,0,0,0-.187-.527.713.713,0,0,0-.527-.187h-1.258a18.938,18.938,0,0,0-2.856.34.583.583,0,0,1-.238.034.678.678,0,0,1-.646-.476l-.1-.2a.905.905,0,0,1-.1-.408.374.374,0,0,1,.17-.323.684.684,0,0,1,.476-.085q1.156.1,3.5.17Zm-8.194,6.324a.713.713,0,0,0,.187.527.713.713,0,0,0,.527.187h2.482a.713.713,0,0,0,.527-.187.713.713,0,0,0,.187-.527v-4.658a.713.713,0,0,0-.187-.527.713.713,0,0,0-.527-.187H-239.7a.713.713,0,0,0-.527.187.713.713,0,0,0-.187.527Zm-2.006,2.414a.713.713,0,0,0-.187-.527.713.713,0,0,0-.527-.187h-2.278a.713.713,0,0,0-.527.187.713.713,0,0,0-.187.527V-2.516a.713.713,0,0,0,.187.527.713.713,0,0,0,.527.187h2.278a.713.713,0,0,0,.527-.187.713.713,0,0,0,.187-.527Zm5.916,0a.713.713,0,0,0-.187-.527.713.713,0,0,0-.527-.187H-239.7a.713.713,0,0,0-.527.187.713.713,0,0,0-.187.527V-2.516a.713.713,0,0,0,.187.527.713.713,0,0,0,.527.187h2.482a.713.713,0,0,0,.527-.187.713.713,0,0,0,.187-.527ZM-231.166-1.8a.713.713,0,0,0,.527-.187.713.713,0,0,0,.187-.527V-16.15a.713.713,0,0,0-.187-.527.713.713,0,0,0-.527-.187h-2.618a.713.713,0,0,0-.527.187.713.713,0,0,0-.187.527V-2.516a.713.713,0,0,0,.187.527.713.713,0,0,0,.527.187ZM-202.81-15.81a.977.977,0,0,0,.85-.442l.476-.646q.136-.17.357-.493a3.485,3.485,0,0,1,.374-.476.429.429,0,0,1,.289-.153,3.585,3.585,0,0,1,1.224.833,11.9,11.9,0,0,1,1.462,1.411.748.748,0,0,1,.17.408.486.486,0,0,1-.2.374.968.968,0,0,1-.578.17h-10.676a.713.713,0,0,0-.527.187.713.713,0,0,0-.187.527V-.85a.713.713,0,0,0,.187.527.713.713,0,0,0,.527.187h8.772a.977.977,0,0,0,.85-.442l.476-.646q.1-.136.34-.459a4.4,4.4,0,0,1,.391-.476.429.429,0,0,1,.289-.153,3.657,3.657,0,0,1,1.309.833A9.062,9.062,0,0,1-195.16-.068a.748.748,0,0,1,.17.408.427.427,0,0,1-.2.374,1.028,1.028,0,0,1-.612.17H-219.2a36.623,36.623,0,0,0-4.488.374h-.2a.7.7,0,0,1-.68-.442l-.17-.306a.846.846,0,0,1-.1-.374q0-.51.68-.442,1.156.1,3.5.17h7.956a.713.713,0,0,0,.527-.187.713.713,0,0,0,.187-.527v-20.5a54.235,54.235,0,0,0-.306-6.086v-.136q0-.544.476-.544a2.044,2.044,0,0,1,.34.068q2.55.748,2.55,1.19,0,.17-.272.34l-.1.068a.959.959,0,0,0-.476.85v9.078a.713.713,0,0,0,.187.527.713.713,0,0,0,.527.187Zm32.4-10.642a.977.977,0,0,0,.85-.442l.238-.34q.1-.136.357-.459t.459-.323a2.689,2.689,0,0,1,1.037.629,7.9,7.9,0,0,1,1.241,1.173.461.461,0,0,1,.136.34.577.577,0,0,1-.306.476l-.408.2a.835.835,0,0,0-.612.816v2.72q.1,4.08.2,5.984v.17a.713.713,0,0,1-.374.68,5.03,5.03,0,0,1-.782.374,2.288,2.288,0,0,1-.816.17.273.273,0,0,1-.255-.187,1.308,1.308,0,0,1-.085-.527v-.272a.713.713,0,0,0-.187-.527.713.713,0,0,0-.527-.187H-184.79a.713.713,0,0,0-.527.187.713.713,0,0,0-.187.527v.714q0,.17-.6.442a2.806,2.806,0,0,1-1.173.272.469.469,0,0,1-.391-.2.771.771,0,0,1-.153-.476q.136-1.564.2-3.91V-20.74a53.784,53.784,0,0,0-.306-5.984v-.136a.549.549,0,0,1,.119-.374.37.37,0,0,1,.289-.136.846.846,0,0,1,.374.1l1.394.612a2.257,2.257,0,0,0,.884.2Zm.17,4.692a.713.713,0,0,0,.527-.187.713.713,0,0,0,.187-.527v-2.278a.713.713,0,0,0-.187-.527.713.713,0,0,0-.527-.187H-184.79a.713.713,0,0,0-.527.187.713.713,0,0,0-.187.527v2.278a.713.713,0,0,0,.187.527.713.713,0,0,0,.527.187Zm-14.552.952a.713.713,0,0,0-.527.187.713.713,0,0,0-.187.527v2.414a.713.713,0,0,0,.187.527.713.713,0,0,0,.527.187h14.552a.713.713,0,0,0,.527-.187.713.713,0,0,0,.187-.527v-2.414a.713.713,0,0,0-.187-.527.713.713,0,0,0-.527-.187Zm.884,13.294a.713.713,0,0,0,.527-.187.713.713,0,0,0,.187-.527V-10.54q0-.748-.782-.646-3.4.612-5.95.816h-.17q-.442,0-.544-.272v-.068q0-.2.646-.374a55.245,55.245,0,0,0,6.392-1.632,21.26,21.26,0,0,0,5.2-2.346.935.935,0,0,1,.476-.17.754.754,0,0,1,.544.306q1.666,1.7,1.666,2.074,0,.2-.476.136l-.34-.034-.306-.034a1.83,1.83,0,0,0-.578.1q-1.122.34-3.06.816a.719.719,0,0,0-.612.782v2.856a.713.713,0,0,0,.187.527.713.713,0,0,0,.527.187h6.222q.714,0,.714-.068V-7.65a54.239,54.239,0,0,0-.306-6.086v-.136q0-.544.476-.544a2.044,2.044,0,0,1,.34.068q2.55.748,2.55,1.19,0,.17-.306.34l-.1.068a.959.959,0,0,0-.476.85v3.672a.713.713,0,0,0,.187.527.713.713,0,0,0,.527.187h2.618a.977.977,0,0,0,.85-.442l.408-.612q.17-.2.34-.442a4.647,4.647,0,0,1,.34-.425.458.458,0,0,1,.306-.187q.272,0,1.207.8A9.717,9.717,0,0,1-163.1-7.446a.52.52,0,0,1,.17.374.486.486,0,0,1-.2.374,1.092,1.092,0,0,1-.646.17h-6.766a.713.713,0,0,0-.527.187.713.713,0,0,0-.187.527V-3.74q.1,3.23.17,4.93v.2a.883.883,0,0,1-.272.646,3.629,3.629,0,0,1-.782.408,2.447,2.447,0,0,1-.884.17.637.637,0,0,1-.493-.2.682.682,0,0,1-.187-.476q.2-2.72.272-5.406V-5.814a.713.713,0,0,0-.187-.527.713.713,0,0,0-.527-.187h-6.358a.757.757,0,0,0-.782.646,8.606,8.606,0,0,1-2.584,4.828q-2.142,2.108-7,3.536l-.442.068a.365.365,0,0,1-.34-.17.139.139,0,0,1-.034-.1q0-.2.612-.476a15.066,15.066,0,0,0,5.44-3.366,8.65,8.65,0,0,0,2.21-4.216l.034-.2a.483.483,0,0,0-.187-.391.754.754,0,0,0-.493-.153h-2.584a35.225,35.225,0,0,0-4.488.374h-.17a.766.766,0,0,1-.714-.442l-.136-.272a1.894,1.894,0,0,1-.136-.408.374.374,0,0,1,.17-.323.684.684,0,0,1,.476-.085q1.156.1,3.5.17Zm47.43-16.592a.977.977,0,0,0,.85-.442l.442-.612q.1-.136.34-.459a4.4,4.4,0,0,1,.391-.476.429.429,0,0,1,.289-.153,3.591,3.591,0,0,1,1.292.8,9.886,9.886,0,0,1,1.5,1.377.52.52,0,0,1,.17.374.486.486,0,0,1-.2.374,1.194,1.194,0,0,1-.646.17H-144.67a1.2,1.2,0,0,0-.493.085q-.187.085-.187.187,0,.17.272.306.85.476.85.714,0,.136-.34.238l-.136.034a2.071,2.071,0,0,0-.782.476q-1.122,1.156-1.972,1.9a.66.66,0,0,0-.306.51.914.914,0,0,0,.238.51,2.461,2.461,0,0,1,.646,1.564,1.318,1.318,0,0,1-.289.884.918.918,0,0,1-.731.34,1.614,1.614,0,0,1-.374-.034.96.96,0,0,1-.578-.714,8.235,8.235,0,0,0-.935-1.785,12.867,12.867,0,0,0-1.377-1.717q-.544-.544-.374-.646a.332.332,0,0,1,.238-.068,1.129,1.129,0,0,1,.442.1,12.561,12.561,0,0,1,1.428.578.905.905,0,0,0,.408.1.567.567,0,0,0,.544-.374q.952-1.938,1.156-2.346l.068-.306q0-.544-.646-.544h-5.78a35.224,35.224,0,0,0-4.488.374h-.17a.792.792,0,0,1-.748-.442l-.136-.238a.905.905,0,0,1-.1-.408.374.374,0,0,1,.17-.323.684.684,0,0,1,.476-.085q1.156.1,3.5.17h7.956a.631.631,0,0,0,.714-.714q-.068-2.074-.17-2.958v-.068a.636.636,0,0,1,.153-.442.5.5,0,0,1,.391-.17l.306.068q2.278.748,2.278,1.156,0,.136-.238.306l-.034.034a1.013,1.013,0,0,0-.476.85v1.224a.713.713,0,0,0,.187.527.713.713,0,0,0,.527.187Zm.816,2.04q.238-.442.544-.442a.705.705,0,0,1,.442.2l.68.578q.068.068.748.51.782.476.782.714,0,.17-.408.238l-.17.034a1.611,1.611,0,0,0-.85.34,29.368,29.368,0,0,1-4.284,3.026q-.544.306-.748.068a.231.231,0,0,1-.068-.17,1.048,1.048,0,0,1,.34-.612A18.9,18.9,0,0,0-137-19.737,20.247,20.247,0,0,0-135.66-22.066Zm-22.032,1.054q-.374-.442-.374-.578,0-.17.238-.17a2.4,2.4,0,0,1,.51.136,8.991,8.991,0,0,1,3.383,2.176,3.621,3.621,0,0,1,1.071,2.312,1.511,1.511,0,0,1-.289.952.919.919,0,0,1-.765.374,1.86,1.86,0,0,1-.408-.068,1.162,1.162,0,0,1-.578-.714,9.743,9.743,0,0,0-1.1-2.244A15.42,15.42,0,0,0-157.692-21.012Zm10.744,8.16a.657.657,0,0,0-.272.476.355.355,0,0,0,.153.289.624.624,0,0,0,.459.085l4.182-.238a.864.864,0,0,0,.442-.17.419.419,0,0,0,.17-.34.846.846,0,0,0-.1-.374,12.447,12.447,0,0,0-1.02-1.394,1.048,1.048,0,0,1-.34-.612q0-.136.17-.136a1.865,1.865,0,0,1,.544.17,8.27,8.27,0,0,1,3.094,2.176,3.771,3.771,0,0,1,.986,2.312,1.636,1.636,0,0,1-.306,1.037.951.951,0,0,1-.782.391,1.207,1.207,0,0,1-.544-.136.721.721,0,0,1-.306-.272,2.348,2.348,0,0,1-.2-.51l-.238-.85a.713.713,0,0,0-.884-.476q-1.9.442-7.786,1.53-.544.1-.646.272a.278.278,0,0,1-.1.17.419.419,0,0,1-.34.17q-.34,0-.578-.442l-.646-1.224a.846.846,0,0,1-.1-.374q0-.408.578-.476l1.768-.068a1.094,1.094,0,0,0,.85-.442q-.1.1,1.19-1.5.68-.884.748-.952a27.343,27.343,0,0,0,1.785-2.635,19.7,19.7,0,0,0,1.377-2.7q.238-.442.544-.442a1.642,1.642,0,0,1,.442.136q2.21,1.088,2.21,1.462,0,.1-.374.238l-.2.034a1.369,1.369,0,0,0-.748.408A48.5,48.5,0,0,1-146.948-12.852Zm-12.376,2.482a.633.633,0,0,1-.136-.408.632.632,0,0,1,.408-.578q.952-.442,5.644-2.89.714-.408,1.326-.714t1.088-.578q.646-.374.748-.136l.034.068q-.034.2-.442.544-.17.136-.408.34t-.578.442q-3.876,3.162-5.508,4.386-.408.306-.408.408a.139.139,0,0,0-.034.1q-.1.374-.408.374a.737.737,0,0,1-.544-.34l-.374-.476Zm20.2-4.692q-.68-.442-.544-.578a.416.416,0,0,1,.306-.1l.442.068a16.228,16.228,0,0,1,4.233,1.547,7.8,7.8,0,0,1,2.4,1.921,3.055,3.055,0,0,1,.748,1.768,1.1,1.1,0,0,1-.238.748.855.855,0,0,1-.68.272h-.17a.909.909,0,0,1-.68-.51A15.205,15.205,0,0,0-135.8-12.58,25.377,25.377,0,0,0-139.128-15.062Zm3.434,8.6a.977.977,0,0,0,.85-.442l.442-.612q.1-.136.34-.459a4.4,4.4,0,0,1,.391-.476.429.429,0,0,1,.289-.153,3.561,3.561,0,0,1,1.292.833,9.3,9.3,0,0,1,1.462,1.411.748.748,0,0,1,.17.408.49.49,0,0,1-.17.34,1.194,1.194,0,0,1-.646.17h-12.308a.713.713,0,0,0-.527.187.713.713,0,0,0-.187.527v1.734q.1,2.822.17,4.182v.2a.883.883,0,0,1-.272.646,2.522,2.522,0,0,1-.782.391,2.9,2.9,0,0,1-.884.153.637.637,0,0,1-.493-.2.682.682,0,0,1-.187-.476q.136-1.734.238-4.658V-4.726a.713.713,0,0,0-.187-.527.713.713,0,0,0-.527-.187H-154.6a36.624,36.624,0,0,0-4.488.374h-.2a.7.7,0,0,1-.68-.442l-.17-.306a.846.846,0,0,1-.1-.374q0-.51.68-.442,1.156.1,3.5.17h8.84a.631.631,0,0,0,.714-.714l-.1-1.9v-.068q0-.578.476-.578a.757.757,0,0,1,.34.068q2.244.714,2.244,1.088,0,.136-.238.306l-.034.034a1.013,1.013,0,0,0-.476.85v.2a.713.713,0,0,0,.187.527.713.713,0,0,0,.527.187Zm35.122-20.026a9.223,9.223,0,0,1,2.992.51,1.861,1.861,0,0,1,1.5,1.8.882.882,0,0,1-.289.7.9.9,0,0,1-.6.255,1.454,1.454,0,0,1-1.19-.544,6.431,6.431,0,0,0-1.1-1.156,5.491,5.491,0,0,0-1.445-.748,3.625,3.625,0,0,0-.51-.153,2.024,2.024,0,0,1-.391-.119.219.219,0,0,1-.153-.2Q-101.762-26.486-100.572-26.486Zm-12.58,8.092a3.427,3.427,0,0,1,3.009,1.377,6.561,6.561,0,0,1,.969,3.825,22.682,22.682,0,0,1-.374,3.468A26.291,26.291,0,0,1-110.7-5.27,8.9,8.9,0,0,1-112.642-1.9,7.307,7.307,0,0,1-113.9-.884a2.231,2.231,0,0,1-1.156.408.9.9,0,0,1-.765-.34,3.223,3.223,0,0,1-.425-.782q-.17-.442-.238-.578a10.868,10.868,0,0,0-1.632-2.584,1.349,1.349,0,0,1-.374-.612q0-.068.1-.068a5.841,5.841,0,0,1,1.326.748l.612.408a6.252,6.252,0,0,0,.884.578,1.509,1.509,0,0,0,.68.17q1.156,0,2.057-1.836a18.124,18.124,0,0,0,1.411-4.267,20.165,20.165,0,0,0,.51-3.961q0-3.57-2.21-3.57a9.754,9.754,0,0,0-3.5.986,1.127,1.127,0,0,0-.612.748A39.938,39.938,0,0,1-122.2-3.2a4.463,4.463,0,0,1-.952,1.173,1.564,1.564,0,0,1-.986.425.883.883,0,0,1-.646-.272.923.923,0,0,1-.272-.68,5.192,5.192,0,0,1,1.326-2.686,26.673,26.673,0,0,0,4.42-8.772.884.884,0,0,0,.034-.272q0-.476-.442-.476a.846.846,0,0,0-.374.1,12.474,12.474,0,0,1-3.094,1.02,2.779,2.779,0,0,1-1.445-.442,4.036,4.036,0,0,1-1.207-1.1,2.167,2.167,0,0,1-.476-1.241q0-.306.17-.306a1.159,1.159,0,0,1,.425.136q.289.136.459.2a4.957,4.957,0,0,0,1.972.408,9.664,9.664,0,0,0,2.091-.255q.867-.221,2.125-.663a.946.946,0,0,0,.612-.748,14.773,14.773,0,0,0,.374-3.162,3.95,3.95,0,0,0-.714-2.584q-.238-.272-.629-.68t-.391-.544q0-.2.289-.306a2.226,2.226,0,0,1,.731-.1,4.952,4.952,0,0,1,1.36.2,3.456,3.456,0,0,1,1.122.51,1.352,1.352,0,0,1,.544,1.088,5.718,5.718,0,0,1-.2,1.088q-.17.68-.272,1.326-.034.272-.1.782t-.2,1.36l-.034.238A.464.464,0,0,0-116.4-18a.639.639,0,0,0,.493.051A10.3,10.3,0,0,1-113.152-18.394Zm9.452-4.522q-.1-.034-.357-.1a1.2,1.2,0,0,1-.374-.153.26.26,0,0,1-.119-.221q0-.34,1.088-.34a7.521,7.521,0,0,1,3.111.663,2.112,2.112,0,0,1,1.479,1.955.888.888,0,0,1-.323.714,1.15,1.15,0,0,1-.765.272,1.2,1.2,0,0,1-1.088-.612,6.52,6.52,0,0,0-1.139-1.377A3.928,3.928,0,0,0-103.7-22.916Zm-2.074,4.216a9.739,9.739,0,0,1,4.3,1.02,6.262,6.262,0,0,1,2.431,2.142,4.424,4.424,0,0,1,.748,2.278,3.147,3.147,0,0,1-.663,2.023,1.822,1.822,0,0,1-1.377.833,1.219,1.219,0,0,1-.748-.255,4.748,4.748,0,0,0-.408-.289,3.082,3.082,0,0,0-1.292-.476q-.816-.136-1.938-.272-.476-.068-.476-.2,0-.17.408-.2,2.21-.238,2.312-.238a3.693,3.693,0,0,0,1.275-.408.87.87,0,0,0,.357-.782,3.97,3.97,0,0,0-1.53-2.992,8.035,8.035,0,0,0-3.5-1.836q-.306-.068-.306-.2T-105.774-18.7Zm34.408-5.95a1.009,1.009,0,0,0,.884-.442l.442-.612q.1-.136.34-.459a4.4,4.4,0,0,1,.391-.476.429.429,0,0,1,.289-.153,3.575,3.575,0,0,1,1.292.816,10.452,10.452,0,0,1,1.5,1.394.585.585,0,0,1,.136.374.486.486,0,0,1-.2.374,1.131,1.131,0,0,1-.612.17h-22.61a36.624,36.624,0,0,0-4.488.374h-.2a.7.7,0,0,1-.68-.442L-95.03-24a.846.846,0,0,1-.1-.374.407.407,0,0,1,.17-.357.684.684,0,0,1,.476-.085q1.224.1,3.536.17h8.3a.631.631,0,0,0,.714-.714q-.068-1.7-.136-2.38v-.068q0-.612.51-.612l.306.068q2.346.748,2.346,1.156,0,.17-.272.34l-.1.068a.959.959,0,0,0-.476.85v.578a.713.713,0,0,0,.187.527.713.713,0,0,0,.527.187Zm-4.488,3.6a.977.977,0,0,0,.85-.442l.238-.306q.1-.136.357-.459t.459-.323a2.6,2.6,0,0,1,1.02.629,8.22,8.22,0,0,1,1.224,1.173.585.585,0,0,1,.136.374.559.559,0,0,1-.306.442.858.858,0,0,1-.2.1,1.319,1.319,0,0,0-.17.068.78.78,0,0,0-.612.782v1.19l.068,1.36q0,.578.068,1.53a1.634,1.634,0,0,1-.068.51.655.655,0,0,1-.272.34,4.167,4.167,0,0,1-.782.357,2.432,2.432,0,0,1-.782.153.273.273,0,0,1-.255-.187,1.308,1.308,0,0,1-.085-.527v-.068a.713.713,0,0,0-.187-.527.713.713,0,0,0-.527-.187H-85.85a.713.713,0,0,0-.527.187.713.713,0,0,0-.187.527v.272q0,.17-.595.442a2.806,2.806,0,0,1-1.173.272.4.4,0,0,1-.34-.2.838.838,0,0,1-.136-.476q.1-.748.136-1.5l.034-.714v-1.462q0-2.04-.136-3.536v-.136a.549.549,0,0,1,.119-.374.37.37,0,0,1,.289-.136.846.846,0,0,1,.374.1l1.19.544a2.094,2.094,0,0,0,.884.2Zm-10,1.02a.713.713,0,0,0-.527.187.713.713,0,0,0-.187.527v2.55a.713.713,0,0,0,.187.527.713.713,0,0,0,.527.187h10.166a.713.713,0,0,0,.527-.187.713.713,0,0,0,.187-.527v-2.55a.713.713,0,0,0-.187-.527.713.713,0,0,0-.527-.187Zm-4.794,9.01a.713.713,0,0,0-.527.187.713.713,0,0,0-.187.527v3.978q.068,3.706.238,7.48v.17a.73.73,0,0,1-.34.68,2.708,2.708,0,0,1-1.632.578.515.515,0,0,1-.408-.2.721.721,0,0,1-.17-.476q.136-1.938.238-5.236V-6.324a53.2,53.2,0,0,0-.306-5.984v-.136q0-.51.442-.51a.757.757,0,0,1,.34.068l1.428.646a2.094,2.094,0,0,0,.884.2h19.652a.977.977,0,0,0,.85-.442l.17-.238a2.069,2.069,0,0,0,.238-.306,1.392,1.392,0,0,1,.238-.289.361.361,0,0,1,.238-.085,3.064,3.064,0,0,1,1.088.578,6.719,6.719,0,0,1,1.292,1.088.735.735,0,0,1,.17.374.5.5,0,0,1-.306.442,1.316,1.316,0,0,1-.374.136A.8.8,0,0,0-68-9.962v9.52a3.4,3.4,0,0,1-.51,2.023,3.215,3.215,0,0,1-2.108.969l-.2.034q-.476,0-.646-.612a1.469,1.469,0,0,0-.544-.85A4.914,4.914,0,0,0-73.984.408q-.68-.1-.68-.34,0-.2.544-.2.578,0,1.105.034t.935.068l1.224.068a.793.793,0,0,0,.6-.17.8.8,0,0,0,.153-.544V-10.3a.713.713,0,0,0-.187-.527.713.713,0,0,0-.527-.187Zm13.158,2.652a.959.959,0,0,0,.85-.476l.17-.238a3.862,3.862,0,0,0,.323-.408q.221-.306.425-.306a2.3,2.3,0,0,1,.952.578,7.4,7.4,0,0,1,1.122,1.088.585.585,0,0,1,.136.374.559.559,0,0,1-.306.442.522.522,0,0,1-.2.068.8.8,0,0,0-.612.816v1.258l.068,1.462q0,.578.068,1.666v.2a.837.837,0,0,1-.306.646,3.829,3.829,0,0,1-.748.374,2.219,2.219,0,0,1-.782.17.273.273,0,0,1-.255-.187,1.308,1.308,0,0,1-.085-.527v-.034a.713.713,0,0,0-.187-.527.713.713,0,0,0-.527-.187h-6.834a.713.713,0,0,0-.527.187.713.713,0,0,0-.187.527v.612q0,.136-.6.408A2.739,2.739,0,0,1-86.666-.1a.4.4,0,0,1-.34-.2.838.838,0,0,1-.136-.476q.1-.782.136-1.6a7.328,7.328,0,0,1,.034-.782V-4.726q0-1.836-.17-3.808V-8.67a.549.549,0,0,1,.119-.374.37.37,0,0,1,.289-.136.846.846,0,0,1,.374.1l1.156.51a2.257,2.257,0,0,0,.884.2Zm-6.732,1.02a.713.713,0,0,0-.527.187.713.713,0,0,0-.187.527v2.822a.713.713,0,0,0,.187.527.713.713,0,0,0,.527.187h6.834a.713.713,0,0,0,.527-.187.713.713,0,0,0,.187-.527V-6.63a.713.713,0,0,0-.187-.527.713.713,0,0,0-.527-.187ZM-46.75,1.6A1.176,1.176,0,0,1-47.838.867a17.06,17.06,0,0,1-.884-2.295A40.223,40.223,0,0,0-50.49-6.2a31.713,31.713,0,0,0-1.87-3.281q-.17-.272-.748-1.156a8.268,8.268,0,0,1-.782-1.411,2.7,2.7,0,0,1-.2-.969,3.179,3.179,0,0,1,.323-1.292,16.663,16.663,0,0,1,1.1-1.938,52.17,52.17,0,0,0,4.08-7.582,4.225,4.225,0,0,0,.34-1.428,1.24,1.24,0,0,0-.34-.918,4.494,4.494,0,0,0-.595-.476q-.391-.272-.391-.408,0-.2.442-.2a4.151,4.151,0,0,1,1.292.289,5.6,5.6,0,0,1,1.462.765,1.628,1.628,0,0,1,.748,1.36,3.407,3.407,0,0,1-.272,1.122,16.6,16.6,0,0,1-1.037,2.108,19.03,19.03,0,0,1-1.717,2.346q-2.482,3.026-3.978,5.168a1.807,1.807,0,0,0-.374,1.088,1.662,1.662,0,0,0,.476,1.088,44.268,44.268,0,0,1,4.539,6.069A11.981,11.981,0,0,1-45.764.272,1.744,1.744,0,0,1-46,1.224.822.822,0,0,1-46.75,1.6ZM-6.936-19.754q-.408.2-.408.51a.577.577,0,0,0,.306.476A23.65,23.65,0,0,0-1.36-15.776q.612.272.578.408t-.272.221q-.238.085-.34.119a2.307,2.307,0,0,0-1.122,1.054.754.754,0,0,1-.612.442.8.8,0,0,1-.34-.1,23.984,23.984,0,0,1-7.157-5.695,23.815,23.815,0,0,1-4.539-8.245,1.331,1.331,0,0,1-.1-.442.365.365,0,0,1,.17-.34.139.139,0,0,1,.1-.034q.238,0,.442.612a18.487,18.487,0,0,0,2.312,4.012.737.737,0,0,0,.544.34.746.746,0,0,0,.476-.272,19.6,19.6,0,0,0,2.992-3.876.611.611,0,0,1,.544-.374.721.721,0,0,1,.476.17q1.972,1.326,1.972,1.666,0,.17-.34.17h-.1a1.611,1.611,0,0,0-.85.34,33.469,33.469,0,0,1-4.012,2.686.592.592,0,0,0-.374.51.839.839,0,0,0,.2.476q.714.748,1.734,1.666a.839.839,0,0,0,.476.2.715.715,0,0,0,.51-.238,21.478,21.478,0,0,0,3.264-3.876.611.611,0,0,1,.544-.374.935.935,0,0,1,.476.17Q-1.7-23.052-1.7-22.644q0,.1-.306.17h-.136a1.76,1.76,0,0,0-.782.238A25.4,25.4,0,0,1-6.936-19.754Zm-.782,10.71a.977.977,0,0,0,.85-.442l.374-.544q.1-.136.306-.425a3.48,3.48,0,0,1,.357-.442.429.429,0,0,1,.289-.153,2.983,2.983,0,0,1,1.173.748A10,10,0,0,1-3.026-9.01a.748.748,0,0,1,.17.408.486.486,0,0,1-.2.374,1.028,1.028,0,0,1-.612.17h-7.276a.713.713,0,0,0-.527.187.713.713,0,0,0-.187.527V-1.02a.725.725,0,0,0,.221.629,2.393,2.393,0,0,0,1.1.153H-7.48l2.754-.034a.611.611,0,0,0,.374-.1.621.621,0,0,0,.306-.391,2.218,2.218,0,0,1,.1-.323l.374-1.7.306-1.394q.136-.646.34-.646t.2.714l.068,2.958A.759.759,0,0,0-2.516-.7a1.732,1.732,0,0,0,.442.391A.816.816,0,0,1-1.785,0,.99.99,0,0,1-1.7.442a.9.9,0,0,1-.459.8,4.44,4.44,0,0,1-1.717.425Q-5.134,1.8-7.548,1.8h-3.2a6.224,6.224,0,0,1-1.9-.221,1.449,1.449,0,0,1-.884-.7A3.213,3.213,0,0,1-13.77-.51V-7.344a.713.713,0,0,0-.187-.527.713.713,0,0,0-.527-.187h-3.74a.7.7,0,0,0-.782.646A11.066,11.066,0,0,1-21.794-1.8,17.288,17.288,0,0,1-29,2.414a1.631,1.631,0,0,1-.476.1.334.334,0,0,1-.306-.17.139.139,0,0,1-.034-.1q0-.2.578-.51A17.306,17.306,0,0,0-23.545-2.38a10.67,10.67,0,0,0,2.4-4.93v-.136q0-.612-.68-.612H-23.8a35.225,35.225,0,0,0-4.488.374h-.17a.766.766,0,0,1-.714-.442l-.136-.272a1.894,1.894,0,0,1-.136-.408.374.374,0,0,1,.17-.323.684.684,0,0,1,.476-.085q1.156.1,3.5.17h3.672q.714,0,.714-.612a4.8,4.8,0,0,0,.034-.646V-14.11a.713.713,0,0,0-.187-.527.713.713,0,0,0-.527-.187h-2.482q-.646,0-.748-.476a.218.218,0,0,0-.238-.2,1.078,1.078,0,0,0-.578.238,27.121,27.121,0,0,1-4.658,2.482,1.631,1.631,0,0,1-.476.1.368.368,0,0,1-.272-.1.139.139,0,0,1-.034-.1q0-.2.544-.51a26.922,26.922,0,0,0,6.171-4.862,24.106,24.106,0,0,0,4.3-6.154.846.846,0,0,0,.1-.374q0-.476-.646-.476h-1.7a30.291,30.291,0,0,0-4.148.374h-.2a.742.742,0,0,1-.68-.442l-.136-.272a1.894,1.894,0,0,1-.136-.408.374.374,0,0,1,.17-.323.684.684,0,0,1,.476-.085q1.156.1,3.5.17h3.3a1.139,1.139,0,0,0,.884-.374l.272-.306.425-.425a.79.79,0,0,1,.493-.289,2.28,2.28,0,0,1,.952.6,6.994,6.994,0,0,1,1.122,1.139.585.585,0,0,1,.136.374.408.408,0,0,1-.34.408l-.408.1a.9.9,0,0,0-.816.544A23.777,23.777,0,0,1-23.8-16.626a.642.642,0,0,0-.306.476.307.307,0,0,0,.17.272.851.851,0,0,0,.442.1h11.662a.959.959,0,0,0,.85-.476l.306-.442q.1-.17.289-.425t.306-.391a.34.34,0,0,1,.255-.136,2.537,2.537,0,0,1,1.071.663,6.331,6.331,0,0,1,1.173,1.207.748.748,0,0,1,.17.408.486.486,0,0,1-.2.374,1.028,1.028,0,0,1-.612.17h-2.72a.713.713,0,0,0-.527.187.713.713,0,0,0-.187.527v4.352a.713.713,0,0,0,.187.527.713.713,0,0,0,.527.187Zm-20.4-13.736q-.578-.51-.442-.646a.332.332,0,0,1,.238-.068,1.507,1.507,0,0,1,.476.068,6.94,6.94,0,0,1,3.247,1.5,2.79,2.79,0,0,1,1.037,1.972,1.271,1.271,0,0,1-.306.884,1,1,0,0,1-.782.34.725.725,0,0,1-.374-.068.667.667,0,0,1-.357-.221,1.631,1.631,0,0,1-.221-.425,6.5,6.5,0,0,0-1-1.751A10.055,10.055,0,0,0-28.118-22.78Zm10.064,7.956a.713.713,0,0,0-.527.187.713.713,0,0,0-.187.527v4.352q0,.714.68.714h3.6a.713.713,0,0,0,.527-.187.713.713,0,0,0,.187-.527V-14.11a.713.713,0,0,0-.187-.527.713.713,0,0,0-.527-.187ZM23.222-3.6q-.442.2-.442.51a.574.574,0,0,0,.34.476A21.862,21.862,0,0,0,30.7.238q.68.17.68.34-.034.1-.238.187T30.8.918a2.182,2.182,0,0,0-1.02,1.088.771.771,0,0,1-.646.476.884.884,0,0,1-.272-.034,19.059,19.059,0,0,1-7.072-3.74A15.358,15.358,0,0,1,17.578-7.65a.8.8,0,0,0-.816-.578H14.314a.713.713,0,0,0-.527.187.713.713,0,0,0-.187.527v5.542a.643.643,0,0,0,.221.544.666.666,0,0,0,.561.1l5.27-.952a1.812,1.812,0,0,1,.408-.034q.306,0,.374.17v.034q0,.272-.578.476Q13.532.476,8.976,1.768q-.51.136-.544.306l-.1.136a.394.394,0,0,1-.34.238q-.34,0-.578-.442L6.732.748a.846.846,0,0,1-.1-.374q0-.476.544-.51,1.564-.2,3.74-.612A.684.684,0,0,0,11.56-1.5V-7.514a.713.713,0,0,0-.187-.527.713.713,0,0,0-.527-.187h-3.6q-.612,0-.714-.34-.034-.068-.17.391t-.272.969A22.248,22.248,0,0,1,1.9,2.04q-.408.578-.646.374a.326.326,0,0,1-.1-.238,1.3,1.3,0,0,1,.17-.51A28.7,28.7,0,0,0,4.233-7.429a75.971,75.971,0,0,0,.731-11.1v-4.59q0-2.21-.136-3.74V-27q0-.51.442-.51a.757.757,0,0,1,.34.068l1.5.646a2.257,2.257,0,0,0,.884.2H25.466A1.1,1.1,0,0,0,26.35-27l.17-.238q.1-.136.34-.391a.65.65,0,0,1,.442-.255,2.785,2.785,0,0,1,1.037.561,7.928,7.928,0,0,1,1.241,1.037.585.585,0,0,1,.136.374.559.559,0,0,1-.306.442l-.34.17a.78.78,0,0,0-.612.782v1.292l.068,1.462q0,.646.068,1.666v.17a.73.73,0,0,1-.34.68,4.028,4.028,0,0,1-.8.357,2.583,2.583,0,0,1-.8.153.251.251,0,0,1-.221-.153.882.882,0,0,1-.085-.425q0-.578-.714-.578H7.786a.713.713,0,0,0-.527.187.713.713,0,0,0-.187.527v3.162a.627.627,0,0,0,.646.68q1.122.136,3.332.2h1.258a.631.631,0,0,0,.714-.714q-.068-1.836-.136-2.618v-.068q0-.578.51-.578a2.045,2.045,0,0,1,.34.068q2.074.714,2.074,1.088,0,.136-.238.306h-.034a.94.94,0,0,0-.476.884v.918a.713.713,0,0,0,.187.527.713.713,0,0,0,.527.187h4.556a.631.631,0,0,0,.714-.714q-.068-1.836-.136-2.584V-18.5q0-.578.476-.578a2.044,2.044,0,0,1,.34.068q2.142.68,2.142,1.088,0,.136-.272.306h-.034a.94.94,0,0,0-.476.884v.884a.713.713,0,0,0,.187.527.713.713,0,0,0,.527.187h1.9a.977.977,0,0,0,.85-.442l.34-.51q.136-.17.323-.425a3.478,3.478,0,0,1,.323-.391.392.392,0,0,1,.272-.136,2.985,2.985,0,0,1,1.1.714,7.868,7.868,0,0,1,1.275,1.258.748.748,0,0,1,.17.408.486.486,0,0,1-.2.374,1.194,1.194,0,0,1-.646.17H23.8a.713.713,0,0,0-.527.187.713.713,0,0,0-.187.527v3.434a.713.713,0,0,0,.187.527.713.713,0,0,0,.527.187h2.754a.959.959,0,0,0,.85-.476l.306-.476q.1-.136.289-.425a2.692,2.692,0,0,1,.323-.425.392.392,0,0,1,.272-.136q.272,0,1.139.731A8.341,8.341,0,0,1,31.008-9.18a.748.748,0,0,1,.17.408.486.486,0,0,1-.2.374.968.968,0,0,1-.578.17H19.074a.686.686,0,0,0-.442.136.419.419,0,0,0-.17.34.846.846,0,0,0,.1.374,11.912,11.912,0,0,0,2.584,3.264.932.932,0,0,0,.544.238.91.91,0,0,0,.442-.17,29.98,29.98,0,0,0,4.148-3.6.784.784,0,0,1,.544-.272.715.715,0,0,1,.51.238Q29.07-6.324,29.07-5.95q0,.17-.34.17h-.136a1.6,1.6,0,0,0-.782.17Q26.214-4.794,23.222-3.6Zm3.128-21.25a.713.713,0,0,0-.187-.527.713.713,0,0,0-.527-.187H7.786a.713.713,0,0,0-.527.187.713.713,0,0,0-.187.527v3.23a.713.713,0,0,0,.187.527.713.713,0,0,0,.527.187h17.85a.713.713,0,0,0,.527-.187.713.713,0,0,0,.187-.527ZM6.6-9.86q0,.612.68.612h5.032a.713.713,0,0,0,.527-.187.713.713,0,0,0,.187-.527V-13.4a.713.713,0,0,0-.187-.527.713.713,0,0,0-.527-.187h-1.19a15.907,15.907,0,0,0-2.72.34h-.2a.7.7,0,0,1-.68-.442q-.1-.136-.17-.136-.136,0-.255.221a1.566,1.566,0,0,0-.153.6Q6.834-11.56,6.6-10Zm9.18-4.25a.713.713,0,0,0-.527.187.713.713,0,0,0-.187.527v3.434a.713.713,0,0,0,.187.527.713.713,0,0,0,.527.187h4.556a.713.713,0,0,0,.527-.187.713.713,0,0,0,.187-.527V-13.4a.713.713,0,0,0-.187-.527.713.713,0,0,0-.527-.187Zm22.542-7.616a55.407,55.407,0,0,0-.306-6.086v-.136a.567.567,0,0,1,.136-.391.475.475,0,0,1,.374-.153,1.079,1.079,0,0,1,.306.068,14.069,14.069,0,0,1,1.921.714q.527.272.527.51,0,.17-.306.34l-.1.068a.959.959,0,0,0-.476.85V-6.358q.068,3.672.238,7.514v.2a.883.883,0,0,1-.272.646,2.7,2.7,0,0,1-.748.459,2.178,2.178,0,0,1-.85.187.858.858,0,0,1-.578-.2.612.612,0,0,1-.238-.476q.136-2.006.238-3.893t.136-4.947ZM57.324-10.574a.959.959,0,0,0,.85-.476l.374-.544q.1-.136.306-.425a3.48,3.48,0,0,1,.357-.442.429.429,0,0,1,.289-.153q.238,0,1.139.765a7.8,7.8,0,0,1,1.309,1.343,1.044,1.044,0,0,1,.136.408.486.486,0,0,1-.2.374,1.014,1.014,0,0,1-.612.136H54.944a.713.713,0,0,0-.527.187.713.713,0,0,0-.187.527v8.6a.713.713,0,0,0,.187.527.713.713,0,0,0,.527.187h4.148a.959.959,0,0,0,.85-.476l.374-.544q.1-.136.306-.425a3.48,3.48,0,0,1,.357-.442.429.429,0,0,1,.289-.153,3.059,3.059,0,0,1,1.19.765A7.592,7.592,0,0,1,63.784.51a.735.735,0,0,1,.17.374.352.352,0,0,1-.2.34.968.968,0,0,1-.578.17H48.518a36.624,36.624,0,0,0-4.488.374h-.2a.7.7,0,0,1-.68-.442l-.136-.238a.905.905,0,0,1-.1-.408.374.374,0,0,1,.17-.323.684.684,0,0,1,.476-.085q1.156.1,3.5.17h4.352a.713.713,0,0,0,.527-.187.713.713,0,0,0,.187-.527v-8.6a.713.713,0,0,0-.187-.527.713.713,0,0,0-.527-.187H49.946a26.8,26.8,0,0,0-3.4.34.584.584,0,0,1-.238.034.678.678,0,0,1-.646-.476l-.136-.238a.846.846,0,0,1-.1-.374q0-.51.68-.442,1.156.1,3.5.17h1.8a.713.713,0,0,0,.527-.187.713.713,0,0,0,.187-.527v-6.8a.713.713,0,0,0-.187-.527.713.713,0,0,0-.527-.187H47.736a.854.854,0,0,0-.85.544,23.032,23.032,0,0,1-2.924,5.372q-.408.578-.646.374a.323.323,0,0,1-.136-.272,1.3,1.3,0,0,1,.17-.51,39.5,39.5,0,0,0,2.074-5.814q.374-1.462.68-3.315a23.91,23.91,0,0,0,.34-3.281q0-.646.544-.646a1.079,1.079,0,0,1,.306.068q2.448.646,2.448,1.054,0,.1-.272.272l-.1.034a1.268,1.268,0,0,0-.612.748,29,29,0,0,1-1.02,3.536,1.079,1.079,0,0,0-.068.306.453.453,0,0,0,.17.374.744.744,0,0,0,.476.136h3.094a.713.713,0,0,0,.527-.187.713.713,0,0,0,.187-.527v-.918a54.238,54.238,0,0,0-.306-6.086v-.136a.567.567,0,0,1,.136-.391.475.475,0,0,1,.374-.153,1.079,1.079,0,0,1,.306.068,11.788,11.788,0,0,1,1.836.68q.51.272.51.476,0,.136-.238.306l-.034.034a1.013,1.013,0,0,0-.476.85v5.27a.713.713,0,0,0,.187.527.713.713,0,0,0,.527.187h3.23a.977.977,0,0,0,.85-.442l.408-.544q.1-.136.306-.425a3.48,3.48,0,0,1,.357-.442.429.429,0,0,1,.289-.153,3.15,3.15,0,0,1,1.139.748,7.413,7.413,0,0,1,1.309,1.326.748.748,0,0,1,.17.408.486.486,0,0,1-.2.374,1.028,1.028,0,0,1-.612.17H54.944a.713.713,0,0,0-.527.187.713.713,0,0,0-.187.527v6.8a.713.713,0,0,0,.187.527.713.713,0,0,0,.527.187ZM41.276-21.828q-.306-.646-.1-.748l.1-.034a1.146,1.146,0,0,1,.578.272,7.349,7.349,0,0,1,2.04,2.023,3.731,3.731,0,0,1,.646,1.955,1.71,1.71,0,0,1-.306,1.054.909.909,0,0,1-.748.408,1.386,1.386,0,0,1-.476-.1.586.586,0,0,1-.323-.289,1.652,1.652,0,0,1-.119-.493A11.775,11.775,0,0,0,41.276-21.828Zm-5.372.986q0-.714.306-.714t.408.646a14.619,14.619,0,0,1,.272,2.652,10.1,10.1,0,0,1-.289,2.516,6.129,6.129,0,0,1-.731,1.8,1.73,1.73,0,0,1-.663.646,1.7,1.7,0,0,1-.833.238.91.91,0,0,1-.714-.306,1.194,1.194,0,0,1-.17-.646,1.984,1.984,0,0,1,.578-1.326,7.212,7.212,0,0,0,1.19-2.329A12.106,12.106,0,0,0,35.9-20.842ZM72.726.2a1.6,1.6,0,0,1-1.037-.527,2.968,2.968,0,0,1-.8-1.241,24.193,24.193,0,0,1-1.258-8.4,22.133,22.133,0,0,1,.34-4.08,37.315,37.315,0,0,1,.918-3.74q.238-.918.442-1.8a6.947,6.947,0,0,0,.2-1.53A4,4,0,0,0,71.3-22.44a3.111,3.111,0,0,0-.612-1.088,1.212,1.212,0,0,1-.272-.51q0-.17.136-.17a1.163,1.163,0,0,1,.544.2,5.975,5.975,0,0,1,1.785,1.7,4.419,4.419,0,0,1,.663,2.516,4.6,4.6,0,0,1-.2,1.326,13.154,13.154,0,0,1-.476,1.326q-.272.646-.34.85a18.09,18.09,0,0,0-1.054,2.89,10.772,10.772,0,0,0-.34,2.686,9.428,9.428,0,0,0,.136,1.649q.136.765.408.765.17,0,.578-.68l.612-1.258,1.156-2.312q.238-.374.34-.374t.1.136l-.1.408q-.442,1.19-.986,3.077a11.785,11.785,0,0,0-.544,3.145A24.362,24.362,0,0,0,73.406-1.8a10.166,10.166,0,0,1,.17,1.088.855.855,0,0,1-.272.68A.866.866,0,0,1,72.726.2ZM85.034-18.938a9.124,9.124,0,0,1-2.448-.272,6.766,6.766,0,0,1-1.989-.884,3.311,3.311,0,0,1-1.173-1.19,1.044,1.044,0,0,1-.136-.408.09.09,0,0,1,.1-.1.84.84,0,0,1,.357.17,3.089,3.089,0,0,0,.493.272,6.453,6.453,0,0,0,2.448.442,22.456,22.456,0,0,0,2.6-.2q1.649-.2,2.737-.442a2.187,2.187,0,0,1,.646-.136,2,2,0,0,1,1.19.391,1.069,1.069,0,0,1,.544.833q0,.782-1.734,1.156A17.216,17.216,0,0,1,85.034-18.938Zm1.19,17.544a13.763,13.763,0,0,1-4.59-.7,4.535,4.535,0,0,1-2.788-2.771,2.841,2.841,0,0,1-.2-.612.12.12,0,0,1,.136-.136.457.457,0,0,1,.255.119q.153.119.255.187a7.97,7.97,0,0,0,2.958,1.428,10,10,0,0,0,2.346.2,32.642,32.642,0,0,0,4.522-.408l1.156-.136a1.934,1.934,0,0,1,1.275.408,1.155,1.155,0,0,1,.493.884q0,.918-1.615,1.224A23.346,23.346,0,0,1,86.224-1.394Zm39.27-13.736a2.887,2.887,0,0,1,1.054.561,7.65,7.65,0,0,1,1.258,1.037.735.735,0,0,1,.17.374.5.5,0,0,1-.306.442,2.259,2.259,0,0,1-.408.17.835.835,0,0,0-.612.816V-.408a3.523,3.523,0,0,1-.459,1.972,2.9,2.9,0,0,1-1.955.952l-.2.034q-.442,0-.68-.612a1.859,1.859,0,0,0-.51-.85,4.9,4.9,0,0,0-1.87-.714q-.68-.1-.68-.374,0-.2.544-.2-.034,0,2.006.1L124-.034a.791.791,0,0,0,.561-.153.732.732,0,0,0,.153-.527V-12.07a.713.713,0,0,0-.187-.527.713.713,0,0,0-.527-.187h-5.746a.713.713,0,0,0-.527.187.713.713,0,0,0-.187.527v6.9a.713.713,0,0,0,.187.527.713.713,0,0,0,.527.187h1.53a.631.631,0,0,0,.714-.714q-.068-2.516-.272-4.862v-.136q0-.51.476-.51a2.044,2.044,0,0,1,.34.068,10.035,10.035,0,0,1,1.36.6q.374.221.374.425,0,.1-.17.2a.908.908,0,0,0-.374.782v1.258q.1,2.822.17,4.25v.2a.837.837,0,0,1-.306.646,1.982,1.982,0,0,1-1.292.476q-.136,0-.221-.187a1.308,1.308,0,0,1-.085-.527v-.272a.713.713,0,0,0-.187-.527.713.713,0,0,0-.527-.187h-6.29a.713.713,0,0,0-.527.187.713.713,0,0,0-.187.527v.714q0,.2-.442.459a1.7,1.7,0,0,1-.85.255.427.427,0,0,1-.374-.2.838.838,0,0,1-.136-.476q.1-.85.136-1.666l.034-.782v-1.6a35.8,35.8,0,0,0-.2-3.944v-.068q0-.612.476-.612a.846.846,0,0,1,.374.1q1.564.612,1.564.952,0,.1-.2.238a.908.908,0,0,0-.374.782v3.434a.713.713,0,0,0,.187.527.713.713,0,0,0,.527.187h1.462a.713.713,0,0,0,.527-.187.713.713,0,0,0,.187-.527v-6.9a.713.713,0,0,0-.187-.527.713.713,0,0,0-.527-.187h-5.44a.713.713,0,0,0-.527.187.713.713,0,0,0-.187.527v5.78q.068,3.706.238,7.48v.17a.73.73,0,0,1-.34.68,2.386,2.386,0,0,1-1.53.544.564.564,0,0,1-.425-.2.682.682,0,0,1-.187-.476q.2-3.162.272-6.392v-3.57a52.285,52.285,0,0,0-.306-5.95v-.136q0-.51.442-.51a.757.757,0,0,1,.34.068l1.292.578a2.257,2.257,0,0,0,.884.2h5.372a.713.713,0,0,0,.527-.187.713.713,0,0,0,.187-.527v-2.006a.713.713,0,0,0-.187-.527.713.713,0,0,0-.527-.187h-3.094a36.624,36.624,0,0,0-4.488.374h-.2a.7.7,0,0,1-.68-.476.33.33,0,0,0-.306-.238q-.306,0-.51.612l-2.72,8.432a14.9,14.9,0,0,0-.442,2.924,9.374,9.374,0,0,0,.34,1.87,14.791,14.791,0,0,1,.51,3.5A4.121,4.121,0,0,1,102.8,1.9a1.481,1.481,0,0,1-1.343.748.735.735,0,0,1-.6-.34,2.134,2.134,0,0,1-.357-.918,2.331,2.331,0,0,1-.034-.442A2.331,2.331,0,0,1,100.5.51a26.163,26.163,0,0,0,.2-3.094q0-2.72-.714-3.162a2.244,2.244,0,0,0-.884-.408q-.68-.17-.68-.476,0-.374.714-.374h.714a.747.747,0,0,0,.442-.1,1.589,1.589,0,0,0,.34-.544q.306-.68,3.264-7.888l2.312-5.712q.2-.612.51-.612.238,0,.238.374a1.1,1.1,0,0,1-.068.408l-.578,1.836a.884.884,0,0,0-.034.272q0,.476.578.544,1.02.1,3.06.17h1.19a.713.713,0,0,0,.527-.187.713.713,0,0,0,.187-.527v-3.06a.713.713,0,0,0-.187-.527.713.713,0,0,0-.527-.187h-1.054a14.852,14.852,0,0,0-2.584.34h-.2a.7.7,0,0,1-.68-.442l-.136-.238a.846.846,0,0,1-.1-.374.407.407,0,0,1,.187-.34.685.685,0,0,1,.493-.1q.986.1,2.924.17h1.156a.631.631,0,0,0,.714-.714q-.068-1.8-.2-3.23v-.068q0-.612.51-.612l.306.068q2.346.714,2.346,1.156,0,.17-.272.34l-.1.068a.959.959,0,0,0-.476.85v1.428a.713.713,0,0,0,.187.527.713.713,0,0,0,.527.187h3.876a.631.631,0,0,0,.714-.714q-.068-1.8-.2-3.23v-.068q0-.578.51-.578a2.045,2.045,0,0,1,.34.068,14.354,14.354,0,0,1,1.768.663q.51.255.51.459,0,.17-.306.34l-.1.068a.959.959,0,0,0-.476.85v1.428a.713.713,0,0,0,.187.527.713.713,0,0,0,.527.187h1.088a.977.977,0,0,0,.85-.442l.34-.51a4.9,4.9,0,0,0,.289-.408,2.441,2.441,0,0,1,.323-.408.469.469,0,0,1,.306-.17,3.08,3.08,0,0,1,1.122.714A7.634,7.634,0,0,1,127.6-23.7a.748.748,0,0,1,.17.408.486.486,0,0,1-.2.374,1.194,1.194,0,0,1-.646.17h-4.93a.713.713,0,0,0-.527.187.713.713,0,0,0-.187.527v3.06a.713.713,0,0,0,.187.527.713.713,0,0,0,.527.187h1.394a.959.959,0,0,0,.85-.476l.34-.51a4.9,4.9,0,0,0,.289-.408,2.441,2.441,0,0,1,.323-.408.469.469,0,0,1,.306-.17q.272,0,1.156.748a8.554,8.554,0,0,1,1.292,1.292.748.748,0,0,1,.17.408.486.486,0,0,1-.2.374.968.968,0,0,1-.578.17h-9.01a.713.713,0,0,0-.527.187.713.713,0,0,0-.187.527v2.006a.713.713,0,0,0,.187.527.713.713,0,0,0,.527.187h5.508a.977.977,0,0,0,.85-.442l.136-.2q.068-.1.2-.289a2.491,2.491,0,0,1,.238-.289A.326.326,0,0,1,125.494-15.13Zm-22.066-8.3a1.172,1.172,0,0,1-.578-.612,10.074,10.074,0,0,0-1.224-1.785,13.766,13.766,0,0,0-1.666-1.683q-.544-.442-.442-.612a.394.394,0,0,1,.272-.068,2.331,2.331,0,0,1,.442.034,7.36,7.36,0,0,1,3.553,1.513,2.884,2.884,0,0,1,1.139,2.057,1.271,1.271,0,0,1-.306.884,1,1,0,0,1-.782.34A1.86,1.86,0,0,1,103.428-23.426Zm11.22.68a.713.713,0,0,0-.527.187.713.713,0,0,0-.187.527v3.06a.713.713,0,0,0,.187.527.713.713,0,0,0,.527.187h3.876a.713.713,0,0,0,.527-.187.713.713,0,0,0,.187-.527v-3.06a.713.713,0,0,0-.187-.527.713.713,0,0,0-.527-.187Zm-13.09,7.412a1.175,1.175,0,0,1-.578-.68,6.711,6.711,0,0,0-1.02-1.6A11.135,11.135,0,0,0,98.5-19.074q-.578-.51-.442-.646a.394.394,0,0,1,.272-.068,2.331,2.331,0,0,1,.442.034,6.586,6.586,0,0,1,3.23,1.36,2.651,2.651,0,0,1,1.054,1.9,1.318,1.318,0,0,1-.289.884.954.954,0,0,1-.765.34A1.911,1.911,0,0,1,101.558-15.334Zm47.022,2.89a5.663,5.663,0,0,1,4.216,1.581A5.8,5.8,0,0,1,154.36-6.6a6.835,6.835,0,0,1-3.213,5.933Q147.934,1.53,141.78,1.9h-.2q-.442,0-.442-.2t.544-.272a16.056,16.056,0,0,0,7.565-2.635,6.775,6.775,0,0,0,2.839-5.831,4.982,4.982,0,0,0-.918-3.128,3.261,3.261,0,0,0-2.754-1.19,5.526,5.526,0,0,0-2.89.816,9.329,9.329,0,0,0-2.329,1.955,10,10,0,0,0-1.411,2.057q-.544,1.156-1.258,1.156a1.124,1.124,0,0,1-.85-.51,3.58,3.58,0,0,1-.748-1.6,11.105,11.105,0,0,1-.17-2.074,26.114,26.114,0,0,1,.272-3.3q.272-2.04.85-5.508a1.179,1.179,0,0,0-.153-.442.565.565,0,0,0-.459-.34A5.459,5.459,0,0,1,134.572-22a1.044,1.044,0,0,1-.136-.408q0-.306.238-.306a1.511,1.511,0,0,1,.646.374A5.945,5.945,0,0,0,139.2-20.91h.442a.7.7,0,0,0,.748-.68,27.764,27.764,0,0,0,.442-3.434,2,2,0,0,0-.782-1.6q-.136-.1-.272-.187a1.247,1.247,0,0,1-.221-.17.26.26,0,0,1-.085-.187q0-.238.578-.374a4.76,4.76,0,0,1,1.088-.136,3.246,3.246,0,0,1,1.615.357,1.185,1.185,0,0,1,.629,1.1,4.693,4.693,0,0,1-.238,1.02,1.079,1.079,0,0,0-.068.306.776.776,0,0,0,.408.646A6.243,6.243,0,0,0,146-23.188q.952.1,1.36.187a.843.843,0,0,1,.578.357.611.611,0,0,1,.1.374,1.843,1.843,0,0,1-.7,1.275,5.2,5.2,0,0,1-1.785,1.071,15.042,15.042,0,0,1-3.5.748.715.715,0,0,0-.748.646,38.879,38.879,0,0,0-.782,6.868q0,2.312.578,2.312a2.077,2.077,0,0,0,.884-.476,13.755,13.755,0,0,1,3.145-1.836A8.748,8.748,0,0,1,148.58-12.444Zm-5.236-11.118a.846.846,0,0,0-.374-.1q-.374,0-.544.476l-.408,1.224a.885.885,0,0,0-.034.272.428.428,0,0,0,.187.391.823.823,0,0,0,.527.085,7.292,7.292,0,0,0,1.768-.51q.544-.238.544-.442a.837.837,0,0,0-.17-.306,3.356,3.356,0,0,0-.578-.493A9.77,9.77,0,0,0,143.344-23.562Zm32.028,1.87a4.012,4.012,0,0,1,.833.374.606.606,0,0,1,.255.544,1.452,1.452,0,0,1-.714,1.054,23.224,23.224,0,0,1-3.876,2.278.946.946,0,0,0-.612.748q-2.89,13.4-3.332,14.79a6.055,6.055,0,0,1-.714,1.581.969.969,0,0,1-.782.459,1.333,1.333,0,0,1-.952-.391,1.413,1.413,0,0,1-.408-1.071,2.351,2.351,0,0,1,.272-1.054,57.386,57.386,0,0,0,4.182-13.294l.034-.2a.45.45,0,0,0-.2-.425.848.848,0,0,0-.578-.051,9.155,9.155,0,0,1-2.074.272,4.762,4.762,0,0,1-3.23-1.632.651.651,0,0,1-.238-.408.18.18,0,0,1,.2-.2,1.3,1.3,0,0,1,.51.17,4.836,4.836,0,0,0,1.9.374,7.189,7.189,0,0,0,2.074-.34,16.686,16.686,0,0,0,1.632-.544.946.946,0,0,0,.612-.748L170.51-22a8.5,8.5,0,0,0,.068-1.054,2.963,2.963,0,0,0-.289-1.513,4.464,4.464,0,0,0-1.241-1.1q-.272-.17-.272-.34,0-.2.442-.2a4.55,4.55,0,0,1,.969.136,5.3,5.3,0,0,1,1.037.34,4.351,4.351,0,0,1,1.122.748,1.575,1.575,0,0,1,.374,1.156,1.289,1.289,0,0,0,.306.918,5.694,5.694,0,0,0,1.054.748A10.729,10.729,0,0,0,175.372-21.692Zm-3.2.748a.754.754,0,0,0-.034.238.618.618,0,0,0,.119.391.355.355,0,0,0,.289.153.544.544,0,0,0,.34-.136q.68-.51.68-.782a1.1,1.1,0,0,0-.238-.612.684.684,0,0,0-.578-.374q-.34,0-.442.408Zm15.708,1.734a3.473,3.473,0,0,1,1.071,1.19,2.628,2.628,0,0,1,.391,1.19q0,.68-1.326.986a8.7,8.7,0,0,1-.952.17,8.819,8.819,0,0,0-1.224.272,8.68,8.68,0,0,0-1.122.476,5.738,5.738,0,0,0-.918.544.861.861,0,0,1-.408.136q-.17,0-.17-.136a.609.609,0,0,1,.17-.374q.17-.17.918-.748,1.87-1.36,1.87-1.972,0-.34-.476-.68a5.063,5.063,0,0,0-1.564-.782,5.285,5.285,0,0,0-1.462-.238,3.782,3.782,0,0,0-.68.051q-.272.051-.306.051-.476,0-.476-.272,0-.238.442-.408a7.45,7.45,0,0,1,2.55-.442,7.711,7.711,0,0,1,2.091.272A5,5,0,0,1,187.884-19.21Zm-1.156,16.8a2.548,2.548,0,0,1,1.292.238,1.084,1.084,0,0,1,.442.646,1.191,1.191,0,0,1,.068.374,1.2,1.2,0,0,1-1,1.19A9.736,9.736,0,0,1,184.79.34a12.17,12.17,0,0,1-5.916-1.275,4.363,4.363,0,0,1-2.312-4.131,5.571,5.571,0,0,1,.119-1.19A3.64,3.64,0,0,1,176.9-7a3.853,3.853,0,0,1,.306-.612q.17-.272.34-.272.136,0,.136.238l-.068.612a3.883,3.883,0,0,0-.034.544,4.766,4.766,0,0,0,.272,1.5,3.541,3.541,0,0,0,1.02,1.5,4.621,4.621,0,0,0,1.785.952,8.9,8.9,0,0,0,2.7.374q.374,0,1.8-.136.476-.034.884-.068T186.728-2.414Zm34.1-6.732a4.014,4.014,0,0,1,1.241.34,6.209,6.209,0,0,1,1.564.884,1.485,1.485,0,0,1,.7,1.122q0,.884-1.156.884a4.863,4.863,0,0,1-1.02-.1,38.878,38.878,0,0,0-7.548-.646q-1.972,0-4.624.2a63.366,63.366,0,0,0-8.228,1.292,8.342,8.342,0,0,0-.816.272,7.155,7.155,0,0,1-.833.306,3.046,3.046,0,0,1-.833.1,4.015,4.015,0,0,1-1.649-.391,4.653,4.653,0,0,1-1.445-.986,1.748,1.748,0,0,1-.578-1.207.2.2,0,0,1,.068-.136.2.2,0,0,1,.136-.068,1.16,1.16,0,0,1,.425.136,3.54,3.54,0,0,0,.527.2,4.612,4.612,0,0,0,1.53.238q.442,0,7.242-.714l2.448-.272a.7.7,0,0,0,.714-.714q.374-4.352.374-6.222a3.959,3.959,0,0,0-.034-.646,3.348,3.348,0,0,0-.85-1.564,1.065,1.065,0,0,0-.952-.238q-1.428.2-2.142.374a15.9,15.9,0,0,0-1.7.408,2.708,2.708,0,0,1-.782.17,2.37,2.37,0,0,1-1.36-.442,3.4,3.4,0,0,1-.986-.986,1.58,1.58,0,0,1-.306-.68q0-.272.2-.272a1.631,1.631,0,0,1,.476.1q.1.034.629.153a7.088,7.088,0,0,0,1.479.119q1.122,0,5.372-.544a31.8,31.8,0,0,0,5.44-.986,12.333,12.333,0,0,1,1.649-.51,5.284,5.284,0,0,1,1-.1,3.863,3.863,0,0,1,1.479.272,3.129,3.129,0,0,1,1.037.646,1.022,1.022,0,0,1,.374.612.441.441,0,0,1-.323.408,1.778,1.778,0,0,1-.7.136h-.646a51.681,51.681,0,0,0-6.29.51q-.51.034-.51.34,0,.2.374.476.884.714.884,1.19a1.739,1.739,0,0,1-.272.646,2.2,2.2,0,0,0-.374.782q-.068.34-.255,2.108t-.289,3.4v.068a.655.655,0,0,0,.187.51.653.653,0,0,0,.527.136q3.4-.34,4.692-.34a18.519,18.519,0,0,0,2.482-.17,5.646,5.646,0,0,0,1.224-.34A4.8,4.8,0,0,1,220.83-9.146Zm13.7,10.676q-.17,0-.17-.136t.578-.442A22.85,22.85,0,0,0,241.723-4.5a16.052,16.052,0,0,0,3.128-6.358,36.179,36.179,0,0,0,.8-8.143q0-1.428-.136-3.6a2.888,2.888,0,0,0-.714-2.074,2.8,2.8,0,0,0-.714-.493,3.08,3.08,0,0,1-.459-.238.293.293,0,0,1-.119-.255q0-.476,1.326-.476a6.724,6.724,0,0,1,.952.068,4.627,4.627,0,0,1,1.8.986q.952.782.952,1.326a1.836,1.836,0,0,1-.238.748q-.034.068-.187.476a2.6,2.6,0,0,0-.153.918q0,1.462-.068,3.434a32.135,32.135,0,0,1-1.428,9.078,14.3,14.3,0,0,1-3.927,6.035,25.979,25.979,0,0,1-7.5,4.471A1.545,1.545,0,0,1,234.532,1.53Zm3.978-11.662q-.408,0-.816-.68a3.115,3.115,0,0,1-.408-1.632q0-.1.1-1.343t.1-2.159a31.05,31.05,0,0,0-.272-4.93,3.579,3.579,0,0,0-.289-1.02,1.43,1.43,0,0,0-.629-.612q-.306-.17-.51-.306a.378.378,0,0,1-.2-.306q0-.238.442-.425a2.507,2.507,0,0,1,.986-.187,1.936,1.936,0,0,1,.782.136,4.19,4.19,0,0,1,1.547.85,1.468,1.468,0,0,1,.425,1.054,4.727,4.727,0,0,1-.1.918,23.537,23.537,0,0,0-.17,3.536l.034,2.652q0,.68.068,1.632.068.816.068,1.02a2.549,2.549,0,0,1-.306,1.241A.938.938,0,0,1,238.51-10.132Zm44.642-15.1q1.394,1.19,2.278,2.023t.884,1.173a.56.56,0,0,1-.238.408,3.459,3.459,0,0,1-.986.544l-.918.51q-1.054.612-3.366,1.785T276.624-16.8a1.029,1.029,0,0,0-.646.714,14.675,14.675,0,0,1-.442,1.734q-.85,2.516-1.887,4.828a27.094,27.094,0,0,1-3.417,5.355A19.286,19.286,0,0,1,264.282.85a1.183,1.183,0,0,1-.476.2q-.2,0-.2-.17,0-.1.2-.272t.238-.2A19.668,19.668,0,0,0,269.5-5.644a34.64,34.64,0,0,0,3.264-7.072,18.827,18.827,0,0,0,1.071-4.59,2.51,2.51,0,0,0-.527-1.717,3.1,3.1,0,0,0-1.615-.867q-.2-.068-.2-.2,0-.238.527-.357a5.69,5.69,0,0,1,1.241-.119,4.243,4.243,0,0,1,1.819.374,3.674,3.674,0,0,1,1.241.884,1.466,1.466,0,0,1,.442.884q.2.408.51.408a.5.5,0,0,0,.306-.1,15.073,15.073,0,0,0,4.284-3.944,2.231,2.231,0,0,0,.442-.986q0-.646-1.292-.646a34.294,34.294,0,0,0-3.621.493q-2.975.493-4.675.833-1.02.2-2.754.646-1.19.306-2.329.561a8.61,8.61,0,0,1-1.683.255,3.214,3.214,0,0,1-1.666-.612,3.613,3.613,0,0,1-1.292-1.258,1.393,1.393,0,0,1-.17-.612q0-.374.238-.374a1.231,1.231,0,0,1,.408.153,3.229,3.229,0,0,0,.544.221,6.679,6.679,0,0,0,1.972.238,17.913,17.913,0,0,0,1.836-.1q1.462-.136,6.307-.816t5.831-.952a12.438,12.438,0,0,1,2.448-.612A1.521,1.521,0,0,1,283.152-25.228Z" transform="translate(196 2983)" fill="#3f3f3f"/>
    <path id="パス_32322" data-name="パス 32322" d="M-1848.245,1077l117.451.622,0,15.378,15.916-15.059,116.629-.319" transform="translate(1916.244 1843)" fill="none" stroke="#173449" stroke-width="1"/>
    <path id="パス_32348" data-name="パス 32348" d="M-95.642-25.806q-.2-.374-.476-.374a.574.574,0,0,0-.476.34A38.3,38.3,0,0,1-103-18.734a42.49,42.49,0,0,1-8.143,5.746,1.675,1.675,0,0,1-.493.153.255.255,0,0,1-.255-.085v-.068q0-.238.442-.544a35.034,35.034,0,0,0,5.406-4.369,46.02,46.02,0,0,0,4.862-5.491A14.9,14.9,0,0,0-98.6-28.356a.629.629,0,0,1,.612-.51.884.884,0,0,1,.272.034l2.652.85a1.018,1.018,0,0,1,.408.221.416.416,0,0,1,.17.289q0,.17-.238.272a.756.756,0,0,0-.34.578.61.61,0,0,0,.1.306,25.771,25.771,0,0,0,5.525,5.372,43.934,43.934,0,0,0,7.5,4.42q.544.306.544.476,0,.1-.17.221a2.273,2.273,0,0,1-.408.221,2.783,2.783,0,0,0-1.19,1.02q-.238.408-.544.408a1.894,1.894,0,0,1-.408-.136,36.054,36.054,0,0,1-6.766-5.2A24.64,24.64,0,0,1-95.642-25.806Zm4.964,17.952a1.009,1.009,0,0,0,.884-.442l.374-.51a3.237,3.237,0,0,0,.34-.408,3.237,3.237,0,0,1,.34-.408.469.469,0,0,1,.306-.17,3.1,3.1,0,0,1,1.19.714,8.538,8.538,0,0,1,1.36,1.258.585.585,0,0,1,.136.374.515.515,0,0,1-.2.408,1.014,1.014,0,0,1-.612.136h-8.6a.713.713,0,0,0-.527.187.713.713,0,0,0-.187.527V-.306a.713.713,0,0,0,.187.527.713.713,0,0,0,.527.187h7.582a.977.977,0,0,0,.85-.442l.442-.612q.1-.136.34-.459a4.4,4.4,0,0,1,.391-.476.429.429,0,0,1,.289-.153A3.493,3.493,0,0,1-84-.935,8.633,8.633,0,0,1-82.552.442a.748.748,0,0,1,.17.408.416.416,0,0,1-.238.374,1.091,1.091,0,0,1-.646.136h-22.066a35.225,35.225,0,0,0-4.488.374h-.17a.792.792,0,0,1-.748-.442l-.136-.238a.905.905,0,0,1-.1-.408.374.374,0,0,1,.17-.323.684.684,0,0,1,.476-.085q1.156.1,3.5.17H-98.8a.713.713,0,0,0,.527-.187.713.713,0,0,0,.187-.527V-6.188a.713.713,0,0,0-.187-.527A.713.713,0,0,0-98.8-6.9h-2.38a36.624,36.624,0,0,0-4.488.374h-.2a.7.7,0,0,1-.68-.442l-.136-.238a.905.905,0,0,1-.1-.408.374.374,0,0,1,.17-.323.684.684,0,0,1,.476-.085q1.156.1,3.5.17H-98.8a.713.713,0,0,0,.527-.187.713.713,0,0,0,.187-.527V-13.6a.713.713,0,0,0-.187-.527.713.713,0,0,0-.527-.187h-1.972a34.886,34.886,0,0,0-4.42.374h-.2a.7.7,0,0,1-.68-.476l-.136-.238a.846.846,0,0,1-.1-.374q0-.51.68-.442,1.156.1,3.536.17h10.438a1.009,1.009,0,0,0,.884-.442l.34-.476q.136-.17.289-.374a3.483,3.483,0,0,1,.323-.374.469.469,0,0,1,.306-.17,2.939,2.939,0,0,1,1.156.7,8.175,8.175,0,0,1,1.292,1.207.52.52,0,0,1,.17.374.566.566,0,0,1-.2.374,1.028,1.028,0,0,1-.612.17h-7.446a.713.713,0,0,0-.527.187.713.713,0,0,0-.187.527v5.032a.713.713,0,0,0,.187.527.713.713,0,0,0,.527.187ZM-74.868.2A.713.713,0,0,0-75.4.391a.713.713,0,0,0-.187.527v.816q0,.272-.527.578a2.23,2.23,0,0,1-1.139.306.812.812,0,0,1-.544-.2.612.612,0,0,1-.238-.476q.136-2.006.238-3.893t.136-4.947V-20.808a52.285,52.285,0,0,0-.306-5.95v-.136q0-.544.408-.544a.846.846,0,0,1,.374.1l1.428.68a2.257,2.257,0,0,0,.884.2h20.332a1.065,1.065,0,0,0,.884-.442l.2-.272.255-.34a1.956,1.956,0,0,1,.272-.306.385.385,0,0,1,.255-.1,2.708,2.708,0,0,1,1.037.612,8.482,8.482,0,0,1,1.241,1.122.751.751,0,0,1,.17.34q0,.238-.34.476a.858.858,0,0,1-.2.1,1.32,1.32,0,0,0-.17.068.78.78,0,0,0-.612.782V-6.6q.068,3.706.238,7.48v.17a.73.73,0,0,1-.34.68,2.936,2.936,0,0,1-.816.51,2.257,2.257,0,0,1-.884.2.394.394,0,0,1-.34-.238.846.846,0,0,1-.1-.374,2.865,2.865,0,0,1,.068-.476l.068-.408V.918a.713.713,0,0,0-.187-.527A.713.713,0,0,0-54.366.2Zm0-25.67a.713.713,0,0,0-.527.187.713.713,0,0,0-.187.527V-1.5a.713.713,0,0,0,.187.527.713.713,0,0,0,.527.187h20.5a.713.713,0,0,0,.527-.187.713.713,0,0,0,.187-.527V-24.752a.713.713,0,0,0-.187-.527.713.713,0,0,0-.527-.187Zm14.11,11.22a.977.977,0,0,0,.85-.442l.306-.442q.1-.136.289-.391a3.408,3.408,0,0,1,.306-.374.357.357,0,0,1,.255-.119q.238,0,1,.663a9.445,9.445,0,0,1,1.173,1.173.633.633,0,0,1,.136.408.52.52,0,0,1-.17.374,1.194,1.194,0,0,1-.646.17h-5.78a.713.713,0,0,0-.527.187.713.713,0,0,0-.187.527v6.12a.713.713,0,0,0,.187.527.713.713,0,0,0,.527.187h3.842a.959.959,0,0,0,.85-.476l.306-.442q.136-.17.272-.374a3.265,3.265,0,0,1,.289-.374.416.416,0,0,1,.289-.17,2.621,2.621,0,0,1,1.088.663,6.158,6.158,0,0,1,1.19,1.207.748.748,0,0,1,.17.408.486.486,0,0,1-.2.374.968.968,0,0,1-.578.17H-68.34a36.624,36.624,0,0,0-4.488.374h-.2a.7.7,0,0,1-.68-.476l-.136-.238a.846.846,0,0,1-.1-.374q0-.51.68-.442,1.156.1,3.536.17h3.2a.713.713,0,0,0,.527-.187.713.713,0,0,0,.187-.527v-6.12a.713.713,0,0,0-.187-.527.713.713,0,0,0-.527-.187H-67.83a20.1,20.1,0,0,0-2.992.34.583.583,0,0,1-.238.034.678.678,0,0,1-.646-.476l-.136-.272a.905.905,0,0,1-.1-.408.374.374,0,0,1,.17-.323.684.684,0,0,1,.476-.085q1.122.1,3.4.17h1.36a.713.713,0,0,0,.527-.187.713.713,0,0,0,.187-.527v-4.692a.713.713,0,0,0-.187-.527.713.713,0,0,0-.527-.187h-1.734a27.222,27.222,0,0,0-3.876.374h-.2a.7.7,0,0,1-.68-.442l-.136-.238a.846.846,0,0,1-.1-.374q0-.51.68-.442,1.156.1,3.5.17h9.044a.977.977,0,0,0,.85-.442l.34-.476q.1-.136.289-.408a3,3,0,0,1,.323-.408.392.392,0,0,1,.272-.136,2.621,2.621,0,0,1,1.088.663,6.158,6.158,0,0,1,1.19,1.207.748.748,0,0,1,.17.408.486.486,0,0,1-.2.374,1.028,1.028,0,0,1-.612.17h-6.7a.713.713,0,0,0-.527.187.713.713,0,0,0-.187.527v4.692a.713.713,0,0,0,.187.527.713.713,0,0,0,.527.187Zm-.714,2.686a1.048,1.048,0,0,1-.34-.612q0-.136.2-.136a1.146,1.146,0,0,1,.51.136,6.984,6.984,0,0,1,2.55,1.768,2.974,2.974,0,0,1,.816,1.836,1.3,1.3,0,0,1-.255.833.806.806,0,0,1-.663.323,1.079,1.079,0,0,1-.306-.068.865.865,0,0,1-.544-.68,9.645,9.645,0,0,0-.8-1.734A10.657,10.657,0,0,0-61.472-11.56Zm39.95-10.812a1.009,1.009,0,0,0,.884-.442l.238-.34a5.734,5.734,0,0,0,.391-.459q.255-.323.459-.323.238,0,1,.646a7.6,7.6,0,0,1,1.173,1.19.585.585,0,0,1,.136.374.408.408,0,0,1-.34.408l-.272.1a.984.984,0,0,0-.493.289.97.97,0,0,0-.187.527A128.349,128.349,0,0,1-19.72-6.171Q-20.57-.714-21.9.782a4.708,4.708,0,0,1-3.264,1.6h-.1q-.51,0-.68-.646a1.45,1.45,0,0,0-.544-.952,6.988,6.988,0,0,0-2.652-.918q-.646-.17-.646-.408a.213.213,0,0,1,.17-.221,1.755,1.755,0,0,1,.578-.017q2.924.34,3.978.34a2.8,2.8,0,0,0,.85-.1A1.489,1.489,0,0,0-23.6-.986q1.054-.952,1.785-6.086t1.139-13.566v-.068a.637.637,0,0,0-.2-.493.726.726,0,0,0-.51-.187h-8.262a.947.947,0,0,0-.85.51,26.557,26.557,0,0,1-4.08,6.12q-.306.34-.51.34a.18.18,0,0,1-.2-.2,1.185,1.185,0,0,1,.2-.578A36.58,36.58,0,0,0-32.2-21.42a27.277,27.277,0,0,0,.935-3.247,25.878,25.878,0,0,0,.561-3.281q.1-.578.612-.578a.885.885,0,0,1,.272.034q2.618.85,2.618,1.224,0,.136-.306.272l-.1.034a1.134,1.134,0,0,0-.646.714q-.85,2.346-1.156,3.06a1.079,1.079,0,0,0-.068.306.453.453,0,0,0,.17.374.744.744,0,0,0,.476.136Zm-17.272.068a1.009,1.009,0,0,0,.884-.442l.17-.238q.1-.136.34-.425a.635.635,0,0,1,.442-.289,2.658,2.658,0,0,1,1.02.578,7.618,7.618,0,0,1,1.224,1.088.585.585,0,0,1,.136.374.559.559,0,0,1-.306.442l-.408.136a.8.8,0,0,0-.612.816V-9.01q.068,3.706.238,7.48v.136a.814.814,0,0,1-.34.714,2.9,2.9,0,0,1-1.6.612q-.2,0-.374-.272a.556.556,0,0,1-.068-.306,4.461,4.461,0,0,1,.068-.51l.068-.544v-.1a.713.713,0,0,0-.187-.527.713.713,0,0,0-.527-.187h-4.454a.713.713,0,0,0-.527.187.713.713,0,0,0-.187.527v.136l.068,1.02.034.306a.787.787,0,0,1-.238.578,1.951,1.951,0,0,1-.663.408,2.4,2.4,0,0,1-.9.17A.651.651,0,0,1-45.951.6a.651.651,0,0,1-.221-.459q.136-2.006.238-3.893T-45.8-8.7v-7.888a52.286,52.286,0,0,0-.306-5.95v-.136a.618.618,0,0,1,.119-.391.355.355,0,0,1,.289-.153.846.846,0,0,1,.374.1l1.258.612a1.819,1.819,0,0,0,.884.2h.1a.692.692,0,0,0,.782-.612,32.093,32.093,0,0,0,.748-5,.675.675,0,0,1,.255-.527.694.694,0,0,1,.595-.051q2.652.646,2.652,1.054,0,.1-.306.272l-.17.068a1.282,1.282,0,0,0-.646.646q-.884,1.666-1.836,3.3a.846.846,0,0,0-.1.374.419.419,0,0,0,.17.34.686.686,0,0,0,.442.136Zm.17,9.146a.713.713,0,0,0,.527-.187.713.713,0,0,0,.187-.527v-6.7A.713.713,0,0,0-38.1-21.1a.713.713,0,0,0-.527-.187h-4.454a.713.713,0,0,0-.527.187.713.713,0,0,0-.187.527v6.7a.713.713,0,0,0,.187.527.713.713,0,0,0,.527.187Zm7.65-2.074q-.374-.374-.374-.578,0-.17.2-.17a1.865,1.865,0,0,1,.544.17,11.949,11.949,0,0,1,4.148,2.992A4.905,4.905,0,0,1-25.126-9.86a1.636,1.636,0,0,1-.306,1.037.951.951,0,0,1-.782.391,1.457,1.457,0,0,1-.51-.1.94.94,0,0,1-.544-.714,12.085,12.085,0,0,0-1.445-3.026A20.762,20.762,0,0,0-30.974-15.232Zm-12.1,3.026a.713.713,0,0,0-.527.187.713.713,0,0,0-.187.527V-4.25a.713.713,0,0,0,.187.527.713.713,0,0,0,.527.187h4.454a.713.713,0,0,0,.527-.187.713.713,0,0,0,.187-.527v-7.242a.713.713,0,0,0-.187-.527.713.713,0,0,0-.527-.187ZM-8.024.2A1.6,1.6,0,0,1-9.061-.323a2.968,2.968,0,0,1-.8-1.241,24.193,24.193,0,0,1-1.258-8.4,22.133,22.133,0,0,1,.34-4.08,37.317,37.317,0,0,1,.918-3.74q.238-.918.442-1.8a6.947,6.947,0,0,0,.2-1.53,4,4,0,0,0-.238-1.326,3.111,3.111,0,0,0-.612-1.088,1.212,1.212,0,0,1-.272-.51q0-.17.136-.17a1.163,1.163,0,0,1,.544.2,5.975,5.975,0,0,1,1.785,1.7,4.419,4.419,0,0,1,.663,2.516,4.6,4.6,0,0,1-.2,1.326,13.156,13.156,0,0,1-.476,1.326q-.272.646-.34.85A18.091,18.091,0,0,0-9.282-13.4a10.773,10.773,0,0,0-.34,2.686,9.428,9.428,0,0,0,.136,1.649q.136.765.408.765.17,0,.578-.68l.612-1.258,1.156-2.312q.238-.374.34-.374t.1.136l-.1.408q-.442,1.19-.986,3.077a11.785,11.785,0,0,0-.544,3.145A24.362,24.362,0,0,0-7.344-1.8a10.165,10.165,0,0,1,.17,1.088.855.855,0,0,1-.272.68A.866.866,0,0,1-8.024.2ZM4.284-18.938a9.124,9.124,0,0,1-2.448-.272,6.766,6.766,0,0,1-1.989-.884,3.311,3.311,0,0,1-1.173-1.19,1.044,1.044,0,0,1-.136-.408.09.09,0,0,1,.1-.1.84.84,0,0,1,.357.17,3.089,3.089,0,0,0,.493.272,6.453,6.453,0,0,0,2.448.442,22.456,22.456,0,0,0,2.6-.2q1.649-.2,2.737-.442a2.187,2.187,0,0,1,.646-.136,2,2,0,0,1,1.19.391,1.069,1.069,0,0,1,.544.833q0,.782-1.734,1.156A17.216,17.216,0,0,1,4.284-18.938ZM5.474-1.394a13.763,13.763,0,0,1-4.59-.7A4.535,4.535,0,0,1-1.9-4.862a2.841,2.841,0,0,1-.2-.612.12.12,0,0,1,.136-.136.457.457,0,0,1,.255.119q.153.119.255.187A7.97,7.97,0,0,0,1.5-3.876a10,10,0,0,0,2.346.2A32.642,32.642,0,0,0,8.364-4.08L9.52-4.216a1.934,1.934,0,0,1,1.275.408,1.155,1.155,0,0,1,.493.884q0,.918-1.615,1.224A23.346,23.346,0,0,1,5.474-1.394Zm33.32-25.16a.977.977,0,0,0,.85-.442l.238-.34q.068-.1.238-.34a2.117,2.117,0,0,1,.306-.357.415.415,0,0,1,.272-.119q.238,0,1.02.663a9.528,9.528,0,0,1,1.224,1.207.585.585,0,0,1,.136.374.559.559,0,0,1-.306.442q-.306.136-.408.17a.872.872,0,0,0-.578.816v8.568q.068,3.706.238,7.48V-8.3a.79.79,0,0,1-.374.714A2.921,2.921,0,0,1,40.018-7a.416.416,0,0,1-.374-.238.556.556,0,0,1-.068-.306,1.191,1.191,0,0,1,.068-.374.754.754,0,0,1,.034-.238.57.57,0,0,0-.187-.442.756.756,0,0,0-.527-.17H37.128a.713.713,0,0,0-.527.187.713.713,0,0,0-.187.527v7.31q0,.408.238.51a3.674,3.674,0,0,0,1.122.1h3.3q2.652,0,3.094-.034a.957.957,0,0,0,.425-.119.771.771,0,0,0,.221-.357A26.1,26.1,0,0,0,45.7-4.624q.1-.646.34-.646.1,0,.17.187a1.6,1.6,0,0,1,.068.527l.068,3.5a.755.755,0,0,0,.119.442,1.614,1.614,0,0,0,.425.374.6.6,0,0,1,.255.289,1.4,1.4,0,0,1,.051.425.959.959,0,0,1-.476.85,4.477,4.477,0,0,1-1.785.442q-1.309.136-3.893.136h-3.6a7.068,7.068,0,0,1-1.955-.2,1.416,1.416,0,0,1-.9-.663A3,3,0,0,1,34.34-.306V-8.058a.713.713,0,0,0-.187-.527.713.713,0,0,0-.527-.187H31.28a.684.684,0,0,0-.748.646,13.2,13.2,0,0,1-2.006,5.185A10.579,10.579,0,0,1,24.6.408a23.828,23.828,0,0,1-6.341,2.04l-.408.068a.314.314,0,0,1-.34-.2V2.278a.294.294,0,0,1,.136-.238,1.625,1.625,0,0,1,.476-.2A21.571,21.571,0,0,0,23.341-.442,10,10,0,0,0,26.5-3.553,12.512,12.512,0,0,0,28.118-7.99v-.136q0-.646-.68-.646h-1.5a.713.713,0,0,0-.527.187.713.713,0,0,0-.187.527v.646q0,.2-.561.476a2.73,2.73,0,0,1-1.207.272.71.71,0,0,1-.493-.2.629.629,0,0,1-.221-.476q.136-1.972.221-3.91t.119-4.862v-4.726a53.2,53.2,0,0,0-.306-5.984v-.136q0-.51.442-.51a.757.757,0,0,1,.34.068l1.428.646a2.094,2.094,0,0,0,.884.2Zm.17,5.508a.713.713,0,0,0,.527-.187.713.713,0,0,0,.187-.527v-3.06a.713.713,0,0,0-.187-.527.713.713,0,0,0-.527-.187H25.942a.713.713,0,0,0-.527.187.713.713,0,0,0-.187.527v3.06a.713.713,0,0,0,.187.527.713.713,0,0,0,.527.187ZM25.228-16.184a.713.713,0,0,0,.187.527.713.713,0,0,0,.527.187H38.964a.713.713,0,0,0,.527-.187.713.713,0,0,0,.187-.527v-3.162a.713.713,0,0,0-.187-.527.713.713,0,0,0-.527-.187H25.942a.713.713,0,0,0-.527.187.713.713,0,0,0-.187.527Zm14.45,2.448a.713.713,0,0,0-.187-.527.713.713,0,0,0-.527-.187H25.942a.713.713,0,0,0-.527.187.713.713,0,0,0-.187.527v3.23a.713.713,0,0,0,.187.527.713.713,0,0,0,.527.187H38.964a.713.713,0,0,0,.527-.187.713.713,0,0,0,.187-.527Zm32.98-10.948a3.991,3.991,0,0,1,2.159.629,1.8,1.8,0,0,1,1,1.513.694.694,0,0,1-.221.561.838.838,0,0,1-.561.187,10.239,10.239,0,0,1-1.9-.238l-.918-.136a7.845,7.845,0,0,0-1.122-.1,7.4,7.4,0,0,0-1.955.255,7.988,7.988,0,0,0-1.343.459,6.489,6.489,0,0,0-2.5,2.992A21.684,21.684,0,0,0,63.6-13.6,22.662,22.662,0,0,0,63-8.84q0,3.434,1.173,4.811a4.41,4.41,0,0,0,3.553,1.377l.952-.068a12.773,12.773,0,0,1,1.564-.136q2.448,0,2.448,1.19,0,.884-1.377,1.173A13.456,13.456,0,0,1,68.544-.2a9.015,9.015,0,0,1-4.437-.918A5.078,5.078,0,0,1,61.812-3.91a14.614,14.614,0,0,1-.68-4.9,18.069,18.069,0,0,1,1.19-6.511,18.786,18.786,0,0,1,3.094-5.389q1.054-1.122.918-1.054l-.136.034a19.34,19.34,0,0,0-2.7.884q-1.751.68-4.471,1.87l-1.462.612q-.272.136-1.19.612-.646.34-1.02.51a1.869,1.869,0,0,1-.782.17,2.973,2.973,0,0,1-1.819-.782,6.952,6.952,0,0,1-1.479-1.564.748.748,0,0,1-.17-.408.326.326,0,0,1,.1-.238.326.326,0,0,1,.238-.1.9.9,0,0,1,.442.136q.068.034.578.323a2.519,2.519,0,0,0,1.258.289,4.081,4.081,0,0,0,.578-.068l2.074-.68q3.808-1.292,6.987-2.227a37.748,37.748,0,0,1,5.865-1.275,4.207,4.207,0,0,0,.986-.255q.476-.187.612-.255A4.18,4.18,0,0,1,72.658-24.684Zm24.956,9.792a14.459,14.459,0,0,1,5.729,4.3A8.952,8.952,0,0,1,105.4-5.066a6.152,6.152,0,0,1-1.037,3.536A6.8,6.8,0,0,1,101.626.816a8.3,8.3,0,0,1-3.638.816q-3.434,0-4.845-2.125a9.885,9.885,0,0,1-1.411-5.559V-7.718a.728.728,0,0,0-.544-.714q-2.074-.918-2.074-2.346,0-1.938,3.06-4.692a1.508,1.508,0,0,0,.476-.816l.374-2.142a.584.584,0,0,0,.034-.238.743.743,0,0,0-.51-.68,14.331,14.331,0,0,1-1.768-.9,6.692,6.692,0,0,1-1.258-.935l-.2-.2a.373.373,0,0,1-.136-.238.18.18,0,0,1,.2-.2,2.842,2.842,0,0,1,.476.136,11.537,11.537,0,0,0,1.649.442q1,.2,1.275.272a.584.584,0,0,0,.238.034q.51,0,.612-.612a15.759,15.759,0,0,0,.306-2.856,5.294,5.294,0,0,0-.374-2.074,4.232,4.232,0,0,0-.816-1.292.557.557,0,0,1-.2-.34q0-.238.374-.238a2.386,2.386,0,0,1,.918.238,4.071,4.071,0,0,1,1.02.646,2.944,2.944,0,0,1,1.224,2.278,3.231,3.231,0,0,1-.136.884q-.136.476-.442,1.258-.306.748-.612,1.734a1.031,1.031,0,0,0-.034.306q0,.476.544.578a13.853,13.853,0,0,1,1.36.442,2.043,2.043,0,0,1,.969.782,1.846,1.846,0,0,1,.323.986.923.923,0,0,1-.272.68.992.992,0,0,1-.612.306,7.49,7.49,0,0,0-3.026.952,1.252,1.252,0,0,0-.544.782,49.515,49.515,0,0,0-.612,4.964l-.034.272q0,.408.306.476a19.35,19.35,0,0,0,2.55.136,3.818,3.818,0,0,1,1.5.238.934.934,0,0,1,.544.952.735.735,0,0,1-.527.782,3.93,3.93,0,0,1-1.207.17,15.851,15.851,0,0,1-2.482-.238,1.614,1.614,0,0,0-.374-.034q-.408,0-.408.2a11.807,11.807,0,0,0,1,5.406q1,1.9,3.927,1.9a5.618,5.618,0,0,0,2.72-.663,4.974,4.974,0,0,0,1.955-1.921,5.714,5.714,0,0,0,.731-2.924,8.128,8.128,0,0,0-1.666-4.607,15.884,15.884,0,0,0-4.25-4.131q-.408-.272-.408-.442,0-.1.17-.1A1.349,1.349,0,0,1,97.614-14.892Zm-3.366-3.74-.068.272a1.614,1.614,0,0,0-.034.374.872.872,0,0,0,.136.544.226.226,0,0,0,.34.034q.544-.476.544-.68,0-.136-.2-.255a1.638,1.638,0,0,0-.391-.17,1.6,1.6,0,0,1-.255-.085Zm-3.91,7.14a1.155,1.155,0,0,0,.714,1.054.8.8,0,0,0,.34.1q.476,0,.544-.646.068-.952.272-2.448.068-.476-.34-.476-.442,0-.918.714A3.247,3.247,0,0,0,90.338-11.492Z" transform="translate(196 2910)" fill="#3f3f3f"/>
  </g>
</svg>
