<svg xmlns="http://www.w3.org/2000/svg" width="224.04" height="125.248" viewBox="0 0 224.04 125.248">
  <g id="text" transform="translate(-46.864 -2893)">
    <path id="パス_32352" data-name="パス 32352" d="M-56.1-1.92a.671.671,0,0,1-.176.5.671.671,0,0,1-.5.176h-.1a.671.671,0,0,1-.5-.176.671.671,0,0,1-.176-.5V-26.5a.671.671,0,0,1,.176-.5.671.671,0,0,1,.5-.176h9.408a.671.671,0,0,1,.5.176.671.671,0,0,1,.176.5v.1a.671.671,0,0,1-.176.5.671.671,0,0,1-.5.176h-7.968a.671.671,0,0,0-.5.176.671.671,0,0,0-.176.5Zm17.632-9.408q0-.576-.32-.576-.224,0-.448.416a26.4,26.4,0,0,1-4.7,6.816,1.584,1.584,0,0,1-.4.32.228.228,0,0,1-.272-.064.261.261,0,0,1-.064-.192,1,1,0,0,1,.224-.512,30.46,30.46,0,0,0,3.168-5.808,42.561,42.561,0,0,0,2.176-6.8l.032-.192a.488.488,0,0,0-.176-.4.71.71,0,0,0-.464-.144h-.96a15.336,15.336,0,0,0-2.5.32h-.192A.658.658,0,0,1-44-18.56l-.128-.256a.852.852,0,0,1-.1-.384.352.352,0,0,1,.16-.3.644.644,0,0,1,.448-.08q1.056.1,3.2.16h1.28a.671.671,0,0,0,.5-.176.671.671,0,0,0,.176-.5v-.288a50.18,50.18,0,0,0-.288-5.7v-.128q0-.544.48-.544a1.016,1.016,0,0,1,.288.064q2.3.768,2.3,1.152,0,.16-.256.32l-.1.064a.9.9,0,0,0-.448.8V-20.1a.671.671,0,0,0,.176.5.671.671,0,0,0,.5.176h.672a.92.92,0,0,0,.8-.416l.352-.48a4.609,4.609,0,0,0,.272-.384,2.3,2.3,0,0,1,.3-.384.442.442,0,0,1,.288-.16q.224,0,1.04.688a7.005,7.005,0,0,1,1.2,1.232.476.476,0,0,1,.128.352.489.489,0,0,1-.16.352,1.124,1.124,0,0,1-.608.16h-4.288a.671.671,0,0,0-.5.176.671.671,0,0,0-.176.5v1.824a.782.782,0,0,0,.544.768,9.4,9.4,0,0,1,3.376,2.352,3.887,3.887,0,0,1,1.072,2.384,1.423,1.423,0,0,1-.272.9.865.865,0,0,1-.72.352.917.917,0,0,1-.416-.1.989.989,0,0,1-.544-.672,14.111,14.111,0,0,0-2.208-3.84.618.618,0,0,0-.448-.256q-.384,0-.384.576v7.488q.064,3.456.224,7.072v.192a.831.831,0,0,1-.256.608,2.278,2.278,0,0,1-.7.416,2.225,2.225,0,0,1-.8.16.87.87,0,0,1-.56-.192.563.563,0,0,1-.24-.448q.128-1.888.224-3.664t.128-4.656Zm9.632-8.48a52.147,52.147,0,0,0-.288-5.728v-.128a.533.533,0,0,1,.128-.368.447.447,0,0,1,.352-.144,1.016,1.016,0,0,1,.288.064q2.4.736,2.4,1.12,0,.16-.256.32l-.1.064a.9.9,0,0,0-.448.8V-1.5a1.068,1.068,0,0,0,.3.88,2.156,2.156,0,0,0,1.232.24h2.944q2.432,0,2.912-.064a.76.76,0,0,0,.352-.128,1,1,0,0,0,.256-.352,35.178,35.178,0,0,0,.992-4.608q.1-.608.32-.608.192,0,.192.672l.1,4.224a.986.986,0,0,0,.512.8.766.766,0,0,1,.416.672.852.852,0,0,1-.512.784,5.132,5.132,0,0,1-1.792.384q-1.28.112-3.808.112h-3.2a4.348,4.348,0,0,1-2.592-.56,2.473,2.473,0,0,1-.7-2.032Zm22.24-1.44a.9.9,0,0,0,.8-.448l.128-.224q.064-.1.192-.3a1.722,1.722,0,0,1,.224-.3.307.307,0,0,1,.224-.1,2.308,2.308,0,0,1,.928.56,8.457,8.457,0,0,1,1.12,1.04.434.434,0,0,1,.128.32.543.543,0,0,1-.288.448,2.483,2.483,0,0,1-.32.128.753.753,0,0,0-.576.768V-7.072a4.35,4.35,0,0,1-.256,1.7,1.526,1.526,0,0,1-1.088.8.549.549,0,0,1-.224.032q-.448,0-.544-.608A1.973,1.973,0,0,0-6.4-5.824a1.341,1.341,0,0,0-.512-.416,1.883,1.883,0,0,1-.416-.208q-.16-.112-.16-.208,0-.16.48-.16l.864.032q.384,0,.384-.48V-19.616a.671.671,0,0,0-.176-.5.671.671,0,0,0-.5-.176h-.736a.671.671,0,0,0-.5.176.671.671,0,0,0-.176.5v13.7q.064,3.488.224,7.04v.128a.766.766,0,0,1-.32.672,2.347,2.347,0,0,1-1.376.512.612.612,0,0,1-.432-.208.612.612,0,0,1-.208-.432q.128-1.888.224-3.664T-9.6-6.528V-19.616a.671.671,0,0,0-.176-.5.671.671,0,0,0-.5-.176h-.448a.671.671,0,0,0-.5.176.671.671,0,0,0-.176.5v7.52q.064,3.488.224,7.04v.16a.687.687,0,0,1-.32.64,2.118,2.118,0,0,1-1.344.48.612.612,0,0,1-.432-.208.612.612,0,0,1-.208-.432q.128-1.664.208-3.28t.112-4.08v-4.032a49.21,49.21,0,0,0-.288-5.6v-.128a.582.582,0,0,1,.112-.368.335.335,0,0,1,.272-.144.8.8,0,0,1,.352.1l1.056.512a1.712,1.712,0,0,0,.832.192h.512a.594.594,0,0,0,.672-.672q-.064-2.464-.224-4.032v-.128a.533.533,0,0,1,.128-.368.447.447,0,0,1,.352-.144,1.016,1.016,0,0,1,.288.064q2.144.672,2.144,1.088,0,.16-.256.32l-.1.064a.9.9,0,0,0-.448.8v2.336a.671.671,0,0,0,.176.5.671.671,0,0,0,.5.176Zm15.776-4.1a.9.9,0,0,0,.8-.448l.16-.224q.1-.128.224-.32a1.947,1.947,0,0,1,.224-.288.307.307,0,0,1,.224-.1,2.051,2.051,0,0,1,.864.5,5.7,5.7,0,0,1,.992.944.434.434,0,0,1,.128.32.492.492,0,0,1-.32.448l-.16.064a.786.786,0,0,0-.576.768v2.24q.1,3.328.16,5.056v.16a.687.687,0,0,1-.32.64,2.585,2.585,0,0,1-1.44.416q-.352,0-.352-.576,0-.544-.672-.544H.672a.671.671,0,0,0-.5.176.671.671,0,0,0-.176.5v.128q0,.192-.464.416a2.517,2.517,0,0,1-1.1.224.441.441,0,0,1-.368-.192.726.726,0,0,1-.144-.448q.128-1.248.192-3.2v-1.92A47.072,47.072,0,0,0-2.144-25.6v-.128q0-.48.416-.48a.712.712,0,0,1,.32.064L0-25.536a1.971,1.971,0,0,0,.832.192ZM9.12-21.376a.671.671,0,0,0,.5-.176.671.671,0,0,0,.176-.5v-1.7a.671.671,0,0,0-.176-.5.671.671,0,0,0-.5-.176H.672a.671.671,0,0,0-.5.176.671.671,0,0,0-.176.5v1.7a.671.671,0,0,0,.176.5.671.671,0,0,0,.5.176Zm-8.448.928a.671.671,0,0,0-.5.176.671.671,0,0,0-.176.5v1.856a.671.671,0,0,0,.176.5.671.671,0,0,0,.5.176H9.12a.671.671,0,0,0,.5-.176.671.671,0,0,0,.176-.5v-1.856a.671.671,0,0,0-.176-.5.671.671,0,0,0-.5-.176ZM9.92-8.672a.92.92,0,0,0,.8-.416l.32-.448q.1-.128.272-.384a2.823,2.823,0,0,1,.3-.384.369.369,0,0,1,.256-.128q.256,0,1.04.672a6.618,6.618,0,0,1,1.136,1.184.476.476,0,0,1,.128.352.489.489,0,0,1-.16.352.968.968,0,0,1-.576.16H8.48a.671.671,0,0,0-.5.176.671.671,0,0,0-.176.5V-.352a.432.432,0,0,0,.144.384,1.4,1.4,0,0,0,.656.1h3.264a.714.714,0,0,0,.256-.1.662.662,0,0,0,.192-.288,26.781,26.781,0,0,0,.672-3.264q.128-.608.352-.608.1,0,.16.176a1.51,1.51,0,0,1,.064.5L13.632-.7a.8.8,0,0,0,.1.416,2.412,2.412,0,0,0,.352.416.831.831,0,0,1,.192.608q0,.64-.848.944a11.15,11.15,0,0,1-3.216.3H8.1A2.67,2.67,0,0,1,6.32,1.568,2.006,2.006,0,0,1,5.888.1V-7.04a.671.671,0,0,0-.176-.5.671.671,0,0,0-.5-.176H3.744a.633.633,0,0,0-.7.64A11.734,11.734,0,0,1,.672-1.136,11.959,11.959,0,0,1-4.9,2.3a1.535,1.535,0,0,1-.448.1A.249.249,0,0,1-5.6,2.24v-.1q0-.192.48-.448a10.917,10.917,0,0,0,4.3-3.488A11.725,11.725,0,0,0,.928-7.008v-.1q0-.608-.64-.608h-.8a10.727,10.727,0,0,0-1.952.288.832.832,0,0,1-.256.032.636.636,0,0,1-.608-.416l-.128-.256a.8.8,0,0,1-.1-.352.383.383,0,0,1,.16-.336.644.644,0,0,1,.448-.08q1.152.1,3.328.16H2.976q.672,0,.672-.48a50.181,50.181,0,0,0-.288-5.7v-.128q0-.512.448-.512a1.924,1.924,0,0,1,.32.064q2.144.672,2.144,1.024,0,.128-.256.288l-.032.032a.953.953,0,0,0-.448.8v3.936a.671.671,0,0,0,.176.5.671.671,0,0,0,.5.176Zm-.768-5.6q.16-.448.48-.448a.852.852,0,0,1,.384.1l.64.352a4.643,4.643,0,0,0,.768.32q.8.352.8.576,0,.16-.352.256l-.128.032a1.533,1.533,0,0,0-.736.48A23.154,23.154,0,0,1,8.064-9.76q-.448.352-.7.16a.277.277,0,0,1-.1-.192,1.35,1.35,0,0,1,.224-.544A19.522,19.522,0,0,0,9.152-14.272Zm-11.04.608a2.375,2.375,0,0,1-.256-.464q-.064-.176,0-.24a.185.185,0,0,1,.128-.032,2.057,2.057,0,0,1,.544.16,7.208,7.208,0,0,1,2.48,1.808,3.008,3.008,0,0,1,.784,1.84,1.371,1.371,0,0,1-.272.864.835.835,0,0,1-.688.352,1.3,1.3,0,0,1-.448-.1.923.923,0,0,1-.48-.672,9.108,9.108,0,0,0-.72-1.792A12.23,12.23,0,0,0-1.888-13.664Zm39.712-2.752a.93.93,0,0,0,.832-.448l.16-.288q.1-.128.224-.336a1.721,1.721,0,0,1,.224-.3.307.307,0,0,1,.224-.1,2.763,2.763,0,0,1,1.024.624,7.614,7.614,0,0,1,1.216,1.136.551.551,0,0,1,.128.352.532.532,0,0,1-.256.416.755.755,0,0,1-.352.16.786.786,0,0,0-.576.768V-4.16a3.107,3.107,0,0,1-.528,1.952,3.422,3.422,0,0,1-2.192.928h-.16a.643.643,0,0,1-.64-.544,1.944,1.944,0,0,0-.544-.832,4.912,4.912,0,0,0-2.176-.736q-.64-.1-.64-.352,0-.192.7-.192,2.976.192,3.36.192a1.011,1.011,0,0,0,.624-.144.609.609,0,0,0,.176-.5v-10.4a.671.671,0,0,0-.176-.5.671.671,0,0,0-.5-.176H32.1a.671.671,0,0,0-.5.176.671.671,0,0,0-.176.5v8.448q.064,3.456.224,7.072V.928a.831.831,0,0,1-.256.608,2.921,2.921,0,0,1-.8.5,2.206,2.206,0,0,1-.864.208.807.807,0,0,1-.544-.192A.576.576,0,0,1,28.96,1.6q.128-1.888.224-3.664t.128-4.656v-8.064a.671.671,0,0,0-.176-.5.671.671,0,0,0-.5-.176H22.848a.671.671,0,0,0-.5.176.671.671,0,0,0-.176.5v5.312q.064,3.488.224,7.04v.16a.712.712,0,0,1-.288.64,2.636,2.636,0,0,1-1.6.544.563.563,0,0,1-.432-.192.642.642,0,0,1-.176-.448Q20.1-4.7,20.16-7.712V-11.04a50.071,50.071,0,0,0-.288-5.632V-16.8q0-.48.416-.48a.712.712,0,0,1,.32.064l1.344.608a2.125,2.125,0,0,0,.832.192H28.64a.671.671,0,0,0,.5-.176.671.671,0,0,0,.176-.5V-20.48a.671.671,0,0,0-.176-.5.671.671,0,0,0-.5-.176H21.792a34.469,34.469,0,0,0-4.224.352h-.192a.658.658,0,0,1-.64-.416l-.16-.288a.8.8,0,0,1-.1-.352q0-.48.64-.416,1.088.1,3.3.16H28.64a.594.594,0,0,0,.672-.672q-.064-1.952-.192-3.424v-.064q0-.576.48-.576l.288.064q2.3.7,2.3,1.12,0,.16-.256.32l-.1.064a.92.92,0,0,0-.416.8v1.7a.671.671,0,0,0,.176.5.671.671,0,0,0,.5.176h7.36a.92.92,0,0,0,.8-.416l.416-.576q.1-.128.32-.432a4.139,4.139,0,0,1,.368-.448.4.4,0,0,1,.272-.144,3.364,3.364,0,0,1,1.216.768,9.838,9.838,0,0,1,1.408,1.312.7.7,0,0,1,.16.384.458.458,0,0,1-.192.352,1.124,1.124,0,0,1-.608.16H32.32a1.292,1.292,0,0,0-.656.128q-.208.128.048.256.448.32.448.544,0,.192-.288.384l-.032.032a.973.973,0,0,0-.416.8v1.92a.671.671,0,0,0,.176.5.671.671,0,0,0,.5.176Zm18.4-5.984a.671.671,0,0,1,.176-.5.671.671,0,0,1,.5-.176h.1a.671.671,0,0,1,.5.176.671.671,0,0,1,.176.5V2.176a.671.671,0,0,1-.176.5.671.671,0,0,1-.5.176H47.584a.671.671,0,0,1-.5-.176.671.671,0,0,1-.176-.5v-.1a.671.671,0,0,1,.176-.5.671.671,0,0,1,.5-.176h7.968a.671.671,0,0,0,.5-.176.671.671,0,0,0,.176-.5Z" transform="translate(163 3015.4)" fill="#3f3f3f"/>
    <path id="パス_32351" data-name="パス 32351" d="M87.688,13a1.1,1.1,0,0,0,.288-.312l.168-.24q.048-.072.156-.228a1.779,1.779,0,0,1,.192-.24.252.252,0,0,1,.18-.084,1.66,1.66,0,0,1,.684.432,4.259,4.259,0,0,1,.78.816.413.413,0,0,1,.1.264.288.288,0,0,1-.24.288.368.368,0,0,1-.144.048.6.6,0,0,0-.432.6q-.072,4.488-.312,6.444a5.162,5.162,0,0,1-.768,2.556,2.132,2.132,0,0,1-1.416.72l-.12.024q-.312,0-.408-.48a.991.991,0,0,0-.24-.6,1.87,1.87,0,0,0-.744-.36q-.456-.1-.456-.312,0-.1.144-.144a.947.947,0,0,1,.384-.024,11.9,11.9,0,0,0,1.2.072,1.132,1.132,0,0,0,.372-.048.515.515,0,0,0,.228-.168,4.781,4.781,0,0,0,.468-2.124q.156-1.764.228-5.58,0-.48-.384-.48a.762.762,0,0,0-.216.048L84.832,14.9a.66.66,0,0,0-.3.228.64.64,0,0,0-.084.348v3.816q.048,2.616.168,5.28v.12a.682.682,0,0,1-.192.5,2.332,2.332,0,0,1-.552.324,1.538,1.538,0,0,1-.6.132.5.5,0,0,1-.348-.144.444.444,0,0,1-.156-.336q.1-1.392.156-2.76t.084-3.456V16.216a.484.484,0,0,0-.1-.312.32.32,0,0,0-.264-.12l-.216.048-2.112.84a.587.587,0,0,0-.408.576v9.336a.851.851,0,0,0,.324.78,3,3,0,0,0,1.38.2h3.432q2.52,0,3.264-.072a1.13,1.13,0,0,0,.432-.144.509.509,0,0,0,.192-.216,2.2,2.2,0,0,0,.12-.288,25.063,25.063,0,0,0,.672-2.9q.1-.456.264-.456.144,0,.144.5l.048,2.808a.662.662,0,0,0,.408.6.706.706,0,0,1,.288.252.669.669,0,0,1,.072.324.708.708,0,0,1-.468.672,5.625,5.625,0,0,1-1.7.312q-1.236.1-3.78.1H81.5a6.873,6.873,0,0,1-1.836-.192,1.535,1.535,0,0,1-.936-.648,2.575,2.575,0,0,1-.276-1.32v-8.9a.484.484,0,0,0-.1-.312.32.32,0,0,0-.264-.12l-.216.048L76,18.328a1.323,1.323,0,0,1-.264.048.455.455,0,0,1-.36-.168.368.368,0,0,1-.048-.144q0-.216.384-.36l2.352-.936a.66.66,0,0,0,.3-.228.64.64,0,0,0,.084-.348V13.168a26.908,26.908,0,0,0-.144-2.9v-.048q0-.432.36-.432a1.443,1.443,0,0,1,.24.048,10.643,10.643,0,0,1,1.26.492q.348.18.348.348,0,.12-.192.24l-.072.048a.677.677,0,0,0-.336.6v3.864a.525.525,0,0,0,.1.336.32.32,0,0,0,.264.12.762.762,0,0,0,.216-.048l2.112-.84a.587.587,0,0,0,.408-.576V11.368a28.029,28.029,0,0,0-.144-2.928V8.392q0-.432.36-.432a1.443,1.443,0,0,1,.24.048,8.119,8.119,0,0,1,1.212.48q.348.192.348.336t-.192.264l-.072.048a.69.69,0,0,0-.312.6v3.912a.484.484,0,0,0,.1.312.32.32,0,0,0,.264.12l.216-.048,2.544-.984Zm-13.3,2.136a.677.677,0,0,0,.6-.336l.216-.36a3.358,3.358,0,0,0,.216-.312,2.341,2.341,0,0,1,.2-.288.24.24,0,0,1,.18-.1q.168,0,.744.516a4.882,4.882,0,0,1,.84.924.737.737,0,0,1,.1.288.343.343,0,0,1-.144.264.684.684,0,0,1-.408.12H74.488a.459.459,0,0,0-.5.5v6.456a.525.525,0,0,0,.1.336.32.32,0,0,0,.264.12.566.566,0,0,0,.24-.072l2.424-1.128a1.182,1.182,0,0,1,.348-.108.18.18,0,0,1,.18.06v.048q0,.144-.312.384.1-.072-1.8,1.224-2.592,1.776-4.32,2.856-.312.192-.336.264l-.024.072a.269.269,0,0,1-.264.216A.366.366,0,0,1,70.252,27a.468.468,0,0,1-.156-.228l-.432-.96a.566.566,0,0,1-.072-.24.425.425,0,0,1,.336-.408q1.344-.5,2.208-.888a.586.586,0,0,0,.384-.576V16.36a.459.459,0,0,0-.5-.5h-.432a4.848,4.848,0,0,0-1.08.192.624.624,0,0,1-.192.024.524.524,0,0,1-.48-.312l-.072-.168a.6.6,0,0,1-.072-.264q0-.336.48-.288t1.392.1h.456a.459.459,0,0,0,.5-.5v-1.44A38.286,38.286,0,0,0,72.3,8.9V8.8a.4.4,0,0,1,.1-.276.335.335,0,0,1,.264-.108.762.762,0,0,1,.216.048,9.471,9.471,0,0,1,1.344.48q.384.192.384.336,0,.12-.216.24l-.072.048a.643.643,0,0,0-.336.6v4.464Q73.984,15.136,74.392,15.136ZM94.96,17.584a.6.6,0,0,0-.072-.312.217.217,0,0,0-.192-.12q-.144,0-.336.264a21.731,21.731,0,0,1-1.7,2.16q-.312.36-.48.216a.207.207,0,0,1-.072-.144,1.057,1.057,0,0,1,.168-.384,36.775,36.775,0,0,0,3.12-6.408q.36-1.008.708-2.3a20.264,20.264,0,0,0,.492-2.28q.072-.408.408-.408a1.443,1.443,0,0,1,.24.048q1.848.624,1.848.912,0,.1-.216.168l-.072.024a.663.663,0,0,0-.48.48q-.912,2.4-1.9,4.392a.639.639,0,0,0-.072.288.622.622,0,0,0,.216.432q.384.36.384.552,0,.144-.216.264a.56.56,0,0,0-.36.576v7.584q.048,2.616.168,5.28v.1a.575.575,0,0,1-.24.5,1.974,1.974,0,0,1-1.08.384.544.544,0,0,1-.36-.144.432.432,0,0,1-.168-.336q.1-1.416.168-2.748t.1-3.492Zm15.12-7.152a.69.69,0,0,0,.6-.312l.312-.432.24-.324a3.1,3.1,0,0,1,.276-.336.3.3,0,0,1,.2-.108,2.466,2.466,0,0,1,.9.564,6.094,6.094,0,0,1,1.02.972.528.528,0,0,1,.12.288.343.343,0,0,1-.144.264.664.664,0,0,1-.408.1h-4.224a.459.459,0,0,0-.5.5V14.9a.459.459,0,0,0,.5.5h1.872a.677.677,0,0,0,.6-.336l.1-.144a1.461,1.461,0,0,0,.168-.216.983.983,0,0,1,.168-.2.254.254,0,0,1,.168-.06,1.618,1.618,0,0,1,.66.36,4.619,4.619,0,0,1,.78.7.413.413,0,0,1,.1.264.355.355,0,0,1-.216.312l-.168.072a.551.551,0,0,0-.432.552v6.48q.048,2.64.168,5.256v.1a.58.58,0,0,1-.264.528,1.9,1.9,0,0,1-1.128.36.264.264,0,0,1-.264-.192.393.393,0,0,1-.048-.216,3.149,3.149,0,0,1,.048-.36q0-.048.048-.576V27.9a.459.459,0,0,0-.5-.5H100.768a.459.459,0,0,0-.5.5v.048l.048.624v.192a.538.538,0,0,1-.168.432,1.549,1.549,0,0,1-1.056.336.482.482,0,0,1-.348-.156.459.459,0,0,1-.156-.324q.1-1.416.168-2.748t.1-3.492v-3.36a37.149,37.149,0,0,0-.216-4.224v-.1q0-.36.312-.36a.534.534,0,0,1,.24.048l1.056.456a1.435,1.435,0,0,0,.6.12h1.536a.459.459,0,0,0,.5-.5V11.608a.459.459,0,0,0-.5-.5h-.888a13.368,13.368,0,0,0-2.016.24.412.412,0,0,1-.168.024.479.479,0,0,1-.456-.336l-.072-.144A.639.639,0,0,1,98.7,10.6a.264.264,0,0,1,.12-.228.483.483,0,0,1,.336-.06q.816.072,2.472.12ZM104.3,14.9a.459.459,0,0,0,.5.5h1.752a.459.459,0,0,0,.5-.5V11.608a.459.459,0,0,0-.5-.5H104.8a.459.459,0,0,0-.5.5Zm-1.416,1.7a.459.459,0,0,0-.5-.5h-1.608a.459.459,0,0,0-.5.5v9.624a.459.459,0,0,0,.5.5h1.608a.459.459,0,0,0,.5-.5Zm4.176,0a.459.459,0,0,0-.5-.5H104.8a.459.459,0,0,0-.5.5v9.624a.459.459,0,0,0,.5.5h1.752a.459.459,0,0,0,.5-.5Zm3.768,10.128a.459.459,0,0,0,.5-.5V16.6a.459.459,0,0,0-.5-.5h-1.848a.459.459,0,0,0-.5.5v9.624a.459.459,0,0,0,.5.5ZM130.84,16.84a.69.69,0,0,0,.6-.312l.336-.456q.1-.12.252-.348a2.459,2.459,0,0,1,.264-.336.3.3,0,0,1,.2-.108,2.531,2.531,0,0,1,.864.588,8.4,8.4,0,0,1,1.032,1,.528.528,0,0,1,.12.288.343.343,0,0,1-.144.264.684.684,0,0,1-.408.12h-7.536a.459.459,0,0,0-.5.5V27.4a.459.459,0,0,0,.5.5h6.192a.69.69,0,0,0,.6-.312l.336-.456.24-.324a3.1,3.1,0,0,1,.276-.336.3.3,0,0,1,.2-.108,2.582,2.582,0,0,1,.924.588,6.4,6.4,0,0,1,1.044,1,.528.528,0,0,1,.12.288.3.3,0,0,1-.144.264.726.726,0,0,1-.432.12H119.272a25.852,25.852,0,0,0-3.168.264h-.144a.493.493,0,0,1-.48-.312l-.12-.216a.6.6,0,0,1-.072-.264q0-.36.48-.312.816.072,2.472.12h5.616a.459.459,0,0,0,.5-.5V12.928a38.286,38.286,0,0,0-.216-4.3v-.1q0-.384.336-.384a1.443,1.443,0,0,1,.24.048q1.8.528,1.8.84,0,.12-.192.24l-.072.048a.677.677,0,0,0-.336.6v6.408a.459.459,0,0,0,.5.5Zm22.872-7.512a.69.69,0,0,0,.6-.312l.168-.24q.072-.1.252-.324t.324-.228a1.9,1.9,0,0,1,.732.444,5.578,5.578,0,0,1,.876.828.326.326,0,0,1,.1.24.407.407,0,0,1-.216.336l-.288.144a.59.59,0,0,0-.432.576v1.92q.072,2.88.144,4.224v.12a.5.5,0,0,1-.264.48,3.551,3.551,0,0,1-.552.264,1.615,1.615,0,0,1-.576.12.193.193,0,0,1-.18-.132.923.923,0,0,1-.06-.372v-.192a.459.459,0,0,0-.5-.5H143.56a.459.459,0,0,0-.5.5v.5q0,.12-.42.312a1.981,1.981,0,0,1-.828.192.331.331,0,0,1-.276-.144.545.545,0,0,1-.108-.336q.1-1.1.144-2.76V13.36a37.965,37.965,0,0,0-.216-4.224v-.1a.387.387,0,0,1,.084-.264.261.261,0,0,1,.2-.1.6.6,0,0,1,.264.072l.984.432a1.594,1.594,0,0,0,.624.144Zm.12,3.312a.459.459,0,0,0,.5-.5V10.528a.459.459,0,0,0-.5-.5H143.56a.459.459,0,0,0-.5.5v1.608a.459.459,0,0,0,.5.5Zm-10.272.672a.459.459,0,0,0-.5.5v1.7a.459.459,0,0,0,.5.5h10.272a.459.459,0,0,0,.5-.5v-1.7a.459.459,0,0,0-.5-.5Zm.624,9.384a.459.459,0,0,0,.5-.5V20.56q0-.528-.552-.456-2.4.432-4.2.576h-.12q-.312,0-.384-.192V20.44q0-.144.456-.264a39,39,0,0,0,4.512-1.152,15.007,15.007,0,0,0,3.672-1.656.66.66,0,0,1,.336-.12.532.532,0,0,1,.384.216q1.176,1.2,1.176,1.464,0,.144-.336.1l-.24-.024-.216-.024a1.292,1.292,0,0,0-.408.072q-.792.24-2.16.576a.507.507,0,0,0-.432.552v2.016a.459.459,0,0,0,.5.5h4.392q.5,0,.5-.048V22.6a38.286,38.286,0,0,0-.216-4.3v-.1q0-.384.336-.384a1.443,1.443,0,0,1,.24.048q1.8.528,1.8.84,0,.12-.216.24l-.072.048a.677.677,0,0,0-.336.6v2.592a.459.459,0,0,0,.5.5h1.848a.69.69,0,0,0,.6-.312l.288-.432q.12-.144.24-.312a3.28,3.28,0,0,1,.24-.3.323.323,0,0,1,.216-.132q.192,0,.852.564a6.859,6.859,0,0,1,.972.972.367.367,0,0,1,.12.264.343.343,0,0,1-.144.264.771.771,0,0,1-.456.12h-4.776a.459.459,0,0,0-.5.5V25.36q.072,2.28.12,3.48v.144a.623.623,0,0,1-.192.456,2.562,2.562,0,0,1-.552.288,1.727,1.727,0,0,1-.624.12.45.45,0,0,1-.348-.144.482.482,0,0,1-.132-.336q.144-1.92.192-3.816V23.9a.459.459,0,0,0-.5-.5h-4.488a.534.534,0,0,0-.552.456,6.075,6.075,0,0,1-1.824,3.408,11.805,11.805,0,0,1-4.944,2.5l-.312.048a.258.258,0,0,1-.24-.12.1.1,0,0,1-.024-.072q0-.144.432-.336a10.635,10.635,0,0,0,3.84-2.376,6.106,6.106,0,0,0,1.56-2.976l.024-.144a.341.341,0,0,0-.132-.276.532.532,0,0,0-.348-.108H142.24a24.865,24.865,0,0,0-3.168.264h-.12a.541.541,0,0,1-.5-.312l-.1-.192a1.337,1.337,0,0,1-.1-.288.264.264,0,0,1,.12-.228.483.483,0,0,1,.336-.06q.816.072,2.472.12Zm33.48-11.712a.69.69,0,0,0,.6-.312l.312-.432.24-.324a3.1,3.1,0,0,1,.276-.336.3.3,0,0,1,.2-.108,2.534,2.534,0,0,1,.912.564,6.979,6.979,0,0,1,1.056.972.367.367,0,0,1,.12.264.343.343,0,0,1-.144.264.843.843,0,0,1-.456.12h-8.9a.85.85,0,0,0-.348.06q-.132.06-.132.132,0,.12.192.216.6.336.6.5,0,.1-.24.168l-.1.024a1.462,1.462,0,0,0-.552.336q-.792.816-1.392,1.344a.466.466,0,0,0-.216.36.645.645,0,0,0,.168.36,1.737,1.737,0,0,1,.456,1.1.93.93,0,0,1-.2.624.648.648,0,0,1-.516.24,1.139,1.139,0,0,1-.264-.024.678.678,0,0,1-.408-.5,5.813,5.813,0,0,0-.66-1.26,9.083,9.083,0,0,0-.972-1.212q-.384-.384-.264-.456a.234.234,0,0,1,.168-.048.8.8,0,0,1,.312.072,8.866,8.866,0,0,1,1.008.408.639.639,0,0,0,.288.072.4.4,0,0,0,.384-.264q.672-1.368.816-1.656l.048-.216q0-.384-.456-.384h-4.08a24.865,24.865,0,0,0-3.168.264h-.12a.559.559,0,0,1-.528-.312l-.1-.168a.639.639,0,0,1-.072-.288.264.264,0,0,1,.12-.228.483.483,0,0,1,.336-.06q.816.072,2.472.12h5.616a.445.445,0,0,0,.5-.5q-.048-1.464-.12-2.088V8.344a.449.449,0,0,1,.108-.312.355.355,0,0,1,.276-.12l.216.048q1.608.528,1.608.816,0,.1-.168.216l-.024.024a.715.715,0,0,0-.336.6v.864a.459.459,0,0,0,.5.5Zm.576,1.44q.168-.312.384-.312a.5.5,0,0,1,.312.144l.48.408q.048.048.528.36.552.336.552.5,0,.12-.288.168l-.12.024a1.137,1.137,0,0,0-.6.24,20.73,20.73,0,0,1-3.024,2.136q-.384.216-.528.048a.163.163,0,0,1-.048-.12.74.74,0,0,1,.24-.432,13.339,13.339,0,0,0,1.164-1.524A14.292,14.292,0,0,0,178.24,12.424Zm-15.552.744q-.264-.312-.264-.408,0-.12.168-.12a1.693,1.693,0,0,1,.36.1,6.347,6.347,0,0,1,2.388,1.536A2.556,2.556,0,0,1,166.1,15.9a1.067,1.067,0,0,1-.2.672.649.649,0,0,1-.54.264,1.313,1.313,0,0,1-.288-.048.821.821,0,0,1-.408-.5,6.877,6.877,0,0,0-.78-1.584A10.884,10.884,0,0,0,162.688,13.168Zm7.584,5.76a.464.464,0,0,0-.192.336.251.251,0,0,0,.108.2.44.44,0,0,0,.324.06l2.952-.168a.61.61,0,0,0,.312-.12.3.3,0,0,0,.12-.24.6.6,0,0,0-.072-.264,8.784,8.784,0,0,0-.72-.984.74.74,0,0,1-.24-.432q0-.1.12-.1a1.317,1.317,0,0,1,.384.12,5.838,5.838,0,0,1,2.184,1.536,2.662,2.662,0,0,1,.7,1.632,1.155,1.155,0,0,1-.216.732.671.671,0,0,1-.552.276.852.852,0,0,1-.384-.1.509.509,0,0,1-.216-.192,1.658,1.658,0,0,1-.144-.36l-.168-.6a.5.5,0,0,0-.624-.336q-1.344.312-5.5,1.08-.384.072-.456.192a.2.2,0,0,1-.072.12.3.3,0,0,1-.24.12q-.24,0-.408-.312l-.456-.864a.6.6,0,0,1-.072-.264q0-.288.408-.336l1.248-.048a.772.772,0,0,0,.6-.312q-.072.072.84-1.056.48-.624.528-.672a19.3,19.3,0,0,0,1.26-1.86,13.906,13.906,0,0,0,.972-1.908q.168-.312.384-.312a1.159,1.159,0,0,1,.312.1q1.56.768,1.56,1.032,0,.072-.264.168l-.144.024a.967.967,0,0,0-.528.288A34.239,34.239,0,0,1,170.272,18.928Zm-8.736,1.752a.448.448,0,0,1,.192-.7q.672-.312,3.984-2.04.5-.288.936-.5t.768-.408q.456-.264.528-.1l.024.048q-.024.144-.312.384-.12.1-.288.24t-.408.312q-2.736,2.232-3.888,3.1-.288.216-.288.288a.1.1,0,0,0-.024.072q-.072.264-.288.264a.52.52,0,0,1-.384-.24l-.264-.336Zm14.256-3.312q-.48-.312-.384-.408a.293.293,0,0,1,.216-.072l.312.048a11.455,11.455,0,0,1,2.988,1.092,5.509,5.509,0,0,1,1.692,1.356,2.157,2.157,0,0,1,.528,1.248.775.775,0,0,1-.168.528.6.6,0,0,1-.48.192h-.12a.641.641,0,0,1-.48-.36,10.734,10.734,0,0,0-1.752-1.872A17.913,17.913,0,0,0,175.792,17.368Zm2.424,6.072a.69.69,0,0,0,.6-.312l.312-.432.24-.324a3.1,3.1,0,0,1,.276-.336.3.3,0,0,1,.2-.108,2.513,2.513,0,0,1,.912.588,6.564,6.564,0,0,1,1.032,1,.528.528,0,0,1,.12.288.346.346,0,0,1-.12.24.843.843,0,0,1-.456.12h-8.688a.459.459,0,0,0-.5.5v1.224q.072,1.992.12,2.952v.144a.623.623,0,0,1-.192.456,1.78,1.78,0,0,1-.552.276,2.048,2.048,0,0,1-.624.108.45.45,0,0,1-.348-.144.482.482,0,0,1-.132-.336q.1-1.224.168-3.288V24.664a.459.459,0,0,0-.5-.5h-5.208a25.852,25.852,0,0,0-3.168.264h-.144a.493.493,0,0,1-.48-.312l-.12-.216a.6.6,0,0,1-.072-.264q0-.36.48-.312.816.072,2.472.12h6.24a.445.445,0,0,0,.5-.5l-.072-1.344v-.048q0-.408.336-.408a.534.534,0,0,1,.24.048q1.584.5,1.584.768,0,.1-.168.216l-.024.024a.715.715,0,0,0-.336.6v.144a.459.459,0,0,0,.5.5ZM203.008,9.3a6.51,6.51,0,0,1,2.112.36,1.313,1.313,0,0,1,1.056,1.272.622.622,0,0,1-.2.492.632.632,0,0,1-.42.18,1.026,1.026,0,0,1-.84-.384,4.54,4.54,0,0,0-.78-.816,3.876,3.876,0,0,0-1.02-.528,2.559,2.559,0,0,0-.36-.108,1.429,1.429,0,0,1-.276-.084.154.154,0,0,1-.108-.144Q202.168,9.3,203.008,9.3Zm-8.88,5.712a2.419,2.419,0,0,1,2.124.972,4.632,4.632,0,0,1,.684,2.7,16.01,16.01,0,0,1-.264,2.448,18.559,18.559,0,0,1-.816,3.144,6.285,6.285,0,0,1-1.368,2.376,5.157,5.157,0,0,1-.888.72,1.575,1.575,0,0,1-.816.288.632.632,0,0,1-.54-.24,2.275,2.275,0,0,1-.3-.552q-.12-.312-.168-.408a7.672,7.672,0,0,0-1.152-1.824.952.952,0,0,1-.264-.432q0-.048.072-.048a4.123,4.123,0,0,1,.936.528l.432.288a4.413,4.413,0,0,0,.624.408,1.065,1.065,0,0,0,.48.12q.816,0,1.452-1.3a12.793,12.793,0,0,0,1-3.012,14.233,14.233,0,0,0,.36-2.8q0-2.52-1.56-2.52a6.885,6.885,0,0,0-2.472.7.8.8,0,0,0-.432.528,28.192,28.192,0,0,1-3.5,8.64,3.15,3.15,0,0,1-.672.828,1.1,1.1,0,0,1-.7.3.623.623,0,0,1-.456-.192.651.651,0,0,1-.192-.48,3.665,3.665,0,0,1,.936-1.9,18.828,18.828,0,0,0,3.12-6.192.624.624,0,0,0,.024-.192q0-.336-.312-.336a.6.6,0,0,0-.264.072,8.805,8.805,0,0,1-2.184.72,1.962,1.962,0,0,1-1.02-.312,2.849,2.849,0,0,1-.852-.78,1.53,1.53,0,0,1-.336-.876q0-.216.12-.216a.818.818,0,0,1,.3.1q.2.1.324.144a3.5,3.5,0,0,0,1.392.288,6.822,6.822,0,0,0,1.476-.18q.612-.156,1.5-.468a.668.668,0,0,0,.432-.528,10.429,10.429,0,0,0,.264-2.232,2.788,2.788,0,0,0-.5-1.824q-.168-.192-.444-.48t-.276-.384q0-.144.2-.216a1.571,1.571,0,0,1,.516-.072,3.5,3.5,0,0,1,.96.144,2.44,2.44,0,0,1,.792.36.954.954,0,0,1,.384.768,4.036,4.036,0,0,1-.144.768q-.12.48-.192.936-.024.192-.072.552t-.144.96l-.024.168a.328.328,0,0,0,.132.3.451.451,0,0,0,.348.036A7.269,7.269,0,0,1,194.128,15.016Zm6.672-3.192q-.072-.024-.252-.072a.845.845,0,0,1-.264-.108.184.184,0,0,1-.084-.156q0-.24.768-.24a5.309,5.309,0,0,1,2.2.468,1.491,1.491,0,0,1,1.044,1.38.627.627,0,0,1-.228.5.812.812,0,0,1-.54.192.847.847,0,0,1-.768-.432,4.6,4.6,0,0,0-.8-.972A2.773,2.773,0,0,0,200.8,11.824ZM199.336,14.8a6.874,6.874,0,0,1,3.036.72,4.42,4.42,0,0,1,1.716,1.512,3.123,3.123,0,0,1,.528,1.608,2.221,2.221,0,0,1-.468,1.428,1.286,1.286,0,0,1-.972.588.86.86,0,0,1-.528-.18,3.353,3.353,0,0,0-.288-.2,2.176,2.176,0,0,0-.912-.336q-.576-.1-1.368-.192-.336-.048-.336-.144,0-.12.288-.144,1.56-.168,1.632-.168a2.607,2.607,0,0,0,.9-.288.614.614,0,0,0,.252-.552,2.8,2.8,0,0,0-1.08-2.112,5.672,5.672,0,0,0-2.472-1.3q-.216-.048-.216-.144T199.336,14.8Zm24.288-4.2a.712.712,0,0,0,.624-.312l.312-.432.24-.324a3.1,3.1,0,0,1,.276-.336.3.3,0,0,1,.2-.108,2.523,2.523,0,0,1,.912.576,7.378,7.378,0,0,1,1.056.984.413.413,0,0,1,.1.264.343.343,0,0,1-.144.264.8.8,0,0,1-.432.12h-15.96a25.852,25.852,0,0,0-3.168.264H207.5a.493.493,0,0,1-.48-.312l-.1-.192a.6.6,0,0,1-.072-.264.287.287,0,0,1,.12-.252.483.483,0,0,1,.336-.06q.864.072,2.5.12h5.856a.445.445,0,0,0,.5-.5q-.048-1.2-.1-1.68V8.368q0-.432.36-.432l.216.048q1.656.528,1.656.816,0,.12-.192.24l-.072.048a.677.677,0,0,0-.336.6V10.1a.459.459,0,0,0,.5.5Zm-3.168,2.544a.69.69,0,0,0,.6-.312l.168-.216q.072-.1.252-.324t.324-.228a1.834,1.834,0,0,1,.72.444,5.8,5.8,0,0,1,.864.828.413.413,0,0,1,.1.264.394.394,0,0,1-.216.312.606.606,0,0,1-.144.072.932.932,0,0,0-.12.048.551.551,0,0,0-.432.552v.84l.048.96q0,.408.048,1.08a1.153,1.153,0,0,1-.048.36.463.463,0,0,1-.192.24,2.941,2.941,0,0,1-.552.252,1.717,1.717,0,0,1-.552.108.193.193,0,0,1-.18-.132.923.923,0,0,1-.06-.372v-.048a.459.459,0,0,0-.5-.5H213.4a.459.459,0,0,0-.5.5v.192q0,.12-.42.312a1.981,1.981,0,0,1-.828.192.282.282,0,0,1-.24-.144.591.591,0,0,1-.1-.336q.072-.528.1-1.056l.024-.5V15.5q0-1.44-.1-2.5v-.1a.387.387,0,0,1,.084-.264.261.261,0,0,1,.2-.1.6.6,0,0,1,.264.072l.84.384a1.478,1.478,0,0,0,.624.144Zm-7.056.72a.459.459,0,0,0-.5.5v1.8a.459.459,0,0,0,.5.5h7.176a.459.459,0,0,0,.5-.5v-1.8a.459.459,0,0,0-.5-.5Zm-3.384,6.36a.459.459,0,0,0-.5.5v2.808q.048,2.616.168,5.28v.12a.515.515,0,0,1-.24.48,1.912,1.912,0,0,1-1.152.408A.363.363,0,0,1,208,29.68a.509.509,0,0,1-.12-.336q.1-1.368.168-3.7V23.536a37.554,37.554,0,0,0-.216-4.224v-.1q0-.36.312-.36a.534.534,0,0,1,.24.048l1.008.456a1.478,1.478,0,0,0,.624.144h13.872a.69.69,0,0,0,.6-.312l.12-.168a1.462,1.462,0,0,0,.168-.216.983.983,0,0,1,.168-.2.254.254,0,0,1,.168-.06,2.163,2.163,0,0,1,.768.408,4.743,4.743,0,0,1,.912.768.519.519,0,0,1,.12.264.355.355,0,0,1-.216.312.929.929,0,0,1-.264.1.565.565,0,0,0-.432.576v6.72a2.4,2.4,0,0,1-.36,1.428,2.27,2.27,0,0,1-1.488.684l-.144.024q-.336,0-.456-.432a1.037,1.037,0,0,0-.384-.6,3.469,3.469,0,0,0-1.392-.5q-.48-.072-.48-.24,0-.144.384-.144.408,0,.78.024t.66.048l.864.048a.429.429,0,0,0,.528-.5V20.728a.459.459,0,0,0-.5-.5ZM219.3,22.1a.677.677,0,0,0,.6-.336l.12-.168a2.725,2.725,0,0,0,.228-.288q.156-.216.3-.216a1.62,1.62,0,0,1,.672.408,5.227,5.227,0,0,1,.792.768.413.413,0,0,1,.1.264.394.394,0,0,1-.216.312.368.368,0,0,1-.144.048.565.565,0,0,0-.432.576v.888l.048,1.032q0,.408.048,1.176V26.7a.591.591,0,0,1-.216.456,2.7,2.7,0,0,1-.528.264,1.566,1.566,0,0,1-.552.12.193.193,0,0,1-.18-.132.923.923,0,0,1-.06-.372v-.024a.459.459,0,0,0-.5-.5h-4.824a.459.459,0,0,0-.5.5v.432q0,.1-.42.288a1.933,1.933,0,0,1-.8.192.282.282,0,0,1-.24-.144.592.592,0,0,1-.1-.336q.072-.552.1-1.128a5.171,5.171,0,0,1,.024-.552v-1.1q0-1.3-.12-2.688v-.1a.387.387,0,0,1,.084-.264.261.261,0,0,1,.2-.1.6.6,0,0,1,.264.072l.816.36a1.593,1.593,0,0,0,.624.144Zm-4.752.72a.459.459,0,0,0-.5.5v1.992a.459.459,0,0,0,.5.5h4.824a.459.459,0,0,0,.5-.5V23.32a.459.459,0,0,0-.5-.5ZM241,29.128a.83.83,0,0,1-.768-.516,12.041,12.041,0,0,1-.624-1.62,28.393,28.393,0,0,0-1.248-3.372,22.387,22.387,0,0,0-1.32-2.316q-.12-.192-.528-.816a5.836,5.836,0,0,1-.552-1,1.909,1.909,0,0,1-.144-.684,2.244,2.244,0,0,1,.228-.912,11.762,11.762,0,0,1,.78-1.368,36.827,36.827,0,0,0,2.88-5.352,2.982,2.982,0,0,0,.24-1.008.876.876,0,0,0-.24-.648,3.173,3.173,0,0,0-.42-.336q-.276-.192-.276-.288,0-.144.312-.144a2.93,2.93,0,0,1,.912.2,3.951,3.951,0,0,1,1.032.54,1.149,1.149,0,0,1,.528.96,2.4,2.4,0,0,1-.192.792,11.714,11.714,0,0,1-.732,1.488,13.433,13.433,0,0,1-1.212,1.656q-1.752,2.136-2.808,3.648a1.276,1.276,0,0,0-.264.768,1.173,1.173,0,0,0,.336.768,31.249,31.249,0,0,1,3.2,4.284,8.457,8.457,0,0,1,1.572,4.332,1.231,1.231,0,0,1-.168.672A.58.58,0,0,1,241,29.128ZM63.9,46.056q-.288.144-.288.36a.407.407,0,0,0,.216.336,16.694,16.694,0,0,0,4.008,2.112q.432.192.408.288t-.192.156l-.24.084a1.629,1.629,0,0,0-.792.744.532.532,0,0,1-.432.312.566.566,0,0,1-.24-.072,16.673,16.673,0,0,1-8.256-9.84.94.94,0,0,1-.072-.312.258.258,0,0,1,.12-.24.1.1,0,0,1,.072-.024q.168,0,.312.432a13.05,13.05,0,0,0,1.632,2.832.52.52,0,0,0,.384.24.527.527,0,0,0,.336-.192,13.837,13.837,0,0,0,2.112-2.736.431.431,0,0,1,.384-.264.509.509,0,0,1,.336.12q1.392.936,1.392,1.176,0,.12-.24.12h-.072a1.137,1.137,0,0,0-.6.24,23.625,23.625,0,0,1-2.832,1.9.418.418,0,0,0-.264.36.592.592,0,0,0,.144.336q.5.528,1.224,1.176a.592.592,0,0,0,.336.144.5.5,0,0,0,.36-.168,15.161,15.161,0,0,0,2.3-2.736.431.431,0,0,1,.384-.264.66.66,0,0,1,.336.12q1.416.936,1.416,1.224,0,.072-.216.12h-.1a1.242,1.242,0,0,0-.552.168A17.929,17.929,0,0,1,63.9,46.056Zm-.552,7.56a.69.69,0,0,0,.6-.312l.264-.384q.072-.1.216-.3a2.457,2.457,0,0,1,.252-.312.3.3,0,0,1,.2-.108,2.105,2.105,0,0,1,.828.528,7.06,7.06,0,0,1,.948.912.528.528,0,0,1,.12.288.343.343,0,0,1-.144.264.726.726,0,0,1-.432.12H61.072a.459.459,0,0,0-.5.5V59.28a.512.512,0,0,0,.156.444,1.689,1.689,0,0,0,.78.108H63.52l1.944-.024a.431.431,0,0,0,.264-.072.438.438,0,0,0,.216-.276,1.567,1.567,0,0,1,.072-.228l.264-1.2.216-.984q.1-.456.24-.456t.144.5l.048,2.088a.536.536,0,0,0,.1.324,1.222,1.222,0,0,0,.312.276.576.576,0,0,1,.2.216.7.7,0,0,1,.06.312.634.634,0,0,1-.324.564,3.134,3.134,0,0,1-1.212.3q-.888.1-2.592.1H61.216a4.394,4.394,0,0,1-1.344-.156,1.023,1.023,0,0,1-.624-.492,2.268,2.268,0,0,1-.168-.984V54.816a.459.459,0,0,0-.5-.5h-2.64a.5.5,0,0,0-.552.456,7.811,7.811,0,0,1-1.968,3.96A12.2,12.2,0,0,1,48.328,61.7a1.151,1.151,0,0,1-.336.072.236.236,0,0,1-.216-.12.1.1,0,0,1-.024-.072q0-.144.408-.36a12.216,12.216,0,0,0,4.02-2.9,7.532,7.532,0,0,0,1.692-3.48v-.1q0-.432-.48-.432H52a24.865,24.865,0,0,0-3.168.264h-.12a.541.541,0,0,1-.5-.312l-.1-.192a1.337,1.337,0,0,1-.1-.288.264.264,0,0,1,.12-.228.483.483,0,0,1,.336-.06q.816.072,2.472.12h2.592q.5,0,.5-.432a3.389,3.389,0,0,0,.024-.456V50.04a.459.459,0,0,0-.5-.5H51.808q-.456,0-.528-.336a.154.154,0,0,0-.168-.144.761.761,0,0,0-.408.168,19.144,19.144,0,0,1-3.288,1.752,1.151,1.151,0,0,1-.336.072.259.259,0,0,1-.192-.072.1.1,0,0,1-.024-.072q0-.144.384-.36A19,19,0,0,0,51.6,47.112a17.016,17.016,0,0,0,3.036-4.344.6.6,0,0,0,.072-.264q0-.336-.456-.336h-1.2a21.382,21.382,0,0,0-2.928.264h-.144a.524.524,0,0,1-.48-.312l-.1-.192a1.337,1.337,0,0,1-.1-.288.264.264,0,0,1,.12-.228.483.483,0,0,1,.336-.06q.816.072,2.472.12h2.328a.8.8,0,0,0,.624-.264l.192-.216.3-.3a.558.558,0,0,1,.348-.2,1.61,1.61,0,0,1,.672.42,4.937,4.937,0,0,1,.792.8.413.413,0,0,1,.1.264.288.288,0,0,1-.24.288l-.288.072a.632.632,0,0,0-.576.384A16.784,16.784,0,0,1,52,48.264a.453.453,0,0,0-.216.336.217.217,0,0,0,.12.192.6.6,0,0,0,.312.072h8.232a.677.677,0,0,0,.6-.336l.216-.312q.072-.12.2-.3t.216-.276a.24.24,0,0,1,.18-.1,1.791,1.791,0,0,1,.756.468,4.469,4.469,0,0,1,.828.852.528.528,0,0,1,.12.288.343.343,0,0,1-.144.264.726.726,0,0,1-.432.12h-1.92a.459.459,0,0,0-.5.5v3.072a.459.459,0,0,0,.5.5Zm-14.4-9.7q-.408-.36-.312-.456a.234.234,0,0,1,.168-.048,1.064,1.064,0,0,1,.336.048,4.9,4.9,0,0,1,2.292,1.056,1.969,1.969,0,0,1,.732,1.392.9.9,0,0,1-.216.624.709.709,0,0,1-.552.24.512.512,0,0,1-.264-.048.471.471,0,0,1-.252-.156,1.151,1.151,0,0,1-.156-.3,4.59,4.59,0,0,0-.708-1.236A7.1,7.1,0,0,0,48.952,43.92Zm7.1,5.616a.459.459,0,0,0-.5.5v3.072q0,.5.48.5h2.544a.459.459,0,0,0,.5-.5V50.04a.459.459,0,0,0-.5-.5Zm29.136,7.92q-.312.144-.312.36a.4.4,0,0,0,.24.336,15.432,15.432,0,0,0,5.352,2.016q.48.12.48.24-.024.072-.168.132t-.24.108a1.54,1.54,0,0,0-.72.768.544.544,0,0,1-.456.336.624.624,0,0,1-.192-.024,13.453,13.453,0,0,1-4.992-2.64A10.841,10.841,0,0,1,81.208,54.6a.561.561,0,0,0-.576-.408H78.9a.459.459,0,0,0-.5.5v3.912a.454.454,0,0,0,.156.384.47.47,0,0,0,.4.072l3.72-.672a1.279,1.279,0,0,1,.288-.024q.216,0,.264.12v.024q0,.192-.408.336-4.464,1.488-7.68,2.4-.36.1-.384.216l-.072.1a.278.278,0,0,1-.24.168q-.24,0-.408-.312l-.48-.888a.6.6,0,0,1-.072-.264q0-.336.384-.36,1.1-.144,2.64-.432a.483.483,0,0,0,.456-.528V54.7a.459.459,0,0,0-.5-.5H73.912q-.432,0-.5-.24-.024-.048-.12.276t-.192.684a15.7,15.7,0,0,1-2.952,6.528q-.288.408-.456.264a.23.23,0,0,1-.072-.168.921.921,0,0,1,.12-.36,20.262,20.262,0,0,0,2.052-6.42A53.626,53.626,0,0,0,72.3,46.92V43.68q0-1.56-.1-2.64v-.1q0-.36.312-.36a.534.534,0,0,1,.24.048l1.056.456a1.593,1.593,0,0,0,.624.144H86.776a.774.774,0,0,0,.624-.288l.12-.168q.072-.1.24-.276a.459.459,0,0,1,.312-.18,1.966,1.966,0,0,1,.732.4,5.6,5.6,0,0,1,.876.732.413.413,0,0,1,.1.264.394.394,0,0,1-.216.312l-.24.12a.551.551,0,0,0-.432.552v.912l.048,1.032q0,.456.048,1.176v.12a.515.515,0,0,1-.24.48,2.843,2.843,0,0,1-.564.252,1.823,1.823,0,0,1-.564.108.177.177,0,0,1-.156-.108.623.623,0,0,1-.06-.3q0-.408-.5-.408H74.3a.459.459,0,0,0-.5.5V48.7a.443.443,0,0,0,.456.48q.792.1,2.352.144h.888a.445.445,0,0,0,.5-.5q-.048-1.3-.1-1.848V46.92q0-.408.36-.408a1.443,1.443,0,0,1,.24.048q1.464.5,1.464.768,0,.1-.168.216h-.024a.664.664,0,0,0-.336.624v.648a.459.459,0,0,0,.5.5h3.216a.445.445,0,0,0,.5-.5q-.048-1.3-.1-1.824v-.048q0-.408.336-.408a1.443,1.443,0,0,1,.24.048q1.512.48,1.512.768,0,.1-.192.216h-.024a.664.664,0,0,0-.336.624v.624a.459.459,0,0,0,.5.5h1.344a.69.69,0,0,0,.6-.312l.24-.36q.1-.12.228-.3a2.455,2.455,0,0,1,.228-.276.277.277,0,0,1,.192-.1,2.107,2.107,0,0,1,.78.5,5.555,5.555,0,0,1,.9.888.528.528,0,0,1,.12.288.343.343,0,0,1-.144.264.843.843,0,0,1-.456.12H85.6a.459.459,0,0,0-.5.5v2.424a.459.459,0,0,0,.5.5h1.944a.677.677,0,0,0,.6-.336l.216-.336q.072-.1.2-.3a1.9,1.9,0,0,1,.228-.3.277.277,0,0,1,.192-.1q.192,0,.8.516a5.888,5.888,0,0,1,.9.9.528.528,0,0,1,.12.288.343.343,0,0,1-.144.264.684.684,0,0,1-.408.12H82.264a.484.484,0,0,0-.312.1.3.3,0,0,0-.12.24.6.6,0,0,0,.072.264,8.408,8.408,0,0,0,1.824,2.3.658.658,0,0,0,.384.168.642.642,0,0,0,.312-.12A21.163,21.163,0,0,0,87.352,54.6a.553.553,0,0,1,.384-.192.5.5,0,0,1,.36.168q1.224.96,1.224,1.224,0,.12-.24.12h-.1a1.128,1.128,0,0,0-.552.12Q87.3,56.616,85.192,57.456Zm2.208-15a.459.459,0,0,0-.5-.5H74.3a.459.459,0,0,0-.5.5v2.28a.459.459,0,0,0,.5.5H86.9a.459.459,0,0,0,.5-.5ZM73.456,53.04q0,.432.48.432h3.552a.459.459,0,0,0,.5-.5V50.544a.459.459,0,0,0-.5-.5h-.84a11.228,11.228,0,0,0-1.92.24h-.144a.493.493,0,0,1-.48-.312q-.072-.1-.12-.1-.1,0-.18.156a1.105,1.105,0,0,0-.108.42q-.072,1.392-.24,2.5Zm6.48-3a.459.459,0,0,0-.5.5v2.424a.459.459,0,0,0,.5.5h3.216a.459.459,0,0,0,.5-.5V50.544a.459.459,0,0,0-.5-.5Zm15.912-5.376a39.111,39.111,0,0,0-.216-4.3v-.1a.4.4,0,0,1,.1-.276.335.335,0,0,1,.264-.108.762.762,0,0,1,.216.048,9.931,9.931,0,0,1,1.356.5q.372.192.372.36,0,.12-.216.24l-.072.048a.677.677,0,0,0-.336.6V55.512q.048,2.592.168,5.3v.144a.623.623,0,0,1-.192.456,1.9,1.9,0,0,1-.528.324,1.538,1.538,0,0,1-.6.132.606.606,0,0,1-.408-.144.432.432,0,0,1-.168-.336q.1-1.416.168-2.748t.1-3.492Zm13.416,7.872a.677.677,0,0,0,.6-.336l.264-.384q.072-.1.216-.3a2.457,2.457,0,0,1,.252-.312.3.3,0,0,1,.2-.108q.168,0,.8.54a5.508,5.508,0,0,1,.924.948.737.737,0,0,1,.1.288.343.343,0,0,1-.144.264.716.716,0,0,1-.432.1h-4.464a.459.459,0,0,0-.5.5v6.072a.459.459,0,0,0,.5.5h2.928a.677.677,0,0,0,.6-.336l.264-.384q.072-.1.216-.3a2.457,2.457,0,0,1,.252-.312.3.3,0,0,1,.2-.108,2.159,2.159,0,0,1,.84.54,5.359,5.359,0,0,1,.936.948.519.519,0,0,1,.12.264.248.248,0,0,1-.144.24.684.684,0,0,1-.408.12H103.048a25.852,25.852,0,0,0-3.168.264h-.144a.493.493,0,0,1-.48-.312l-.1-.168a.639.639,0,0,1-.072-.288.264.264,0,0,1,.12-.228.483.483,0,0,1,.336-.06q.816.072,2.472.12h3.072a.459.459,0,0,0,.5-.5V53.736a.459.459,0,0,0-.5-.5h-1.032a18.92,18.92,0,0,0-2.4.24.412.412,0,0,1-.168.024.479.479,0,0,1-.456-.336l-.1-.168a.6.6,0,0,1-.072-.264q0-.36.48-.312.816.072,2.472.12h1.272a.459.459,0,0,0,.5-.5v-4.8a.459.459,0,0,0-.5-.5H102.5a.6.6,0,0,0-.6.384A16.258,16.258,0,0,1,99.832,50.9q-.288.408-.456.264a.228.228,0,0,1-.1-.192.921.921,0,0,1,.12-.36,27.885,27.885,0,0,0,1.464-4.1q.264-1.032.48-2.34a16.878,16.878,0,0,0,.24-2.316q0-.456.384-.456a.762.762,0,0,1,.216.048q1.728.456,1.728.744,0,.072-.192.192l-.072.024a.9.9,0,0,0-.432.528,20.472,20.472,0,0,1-.72,2.5.762.762,0,0,0-.048.216.32.32,0,0,0,.12.264.525.525,0,0,0,.336.1h2.184a.459.459,0,0,0,.5-.5v-.648a38.286,38.286,0,0,0-.216-4.3v-.1a.4.4,0,0,1,.1-.276.335.335,0,0,1,.264-.108.762.762,0,0,1,.216.048,8.321,8.321,0,0,1,1.3.48q.36.192.36.336,0,.1-.168.216l-.024.024a.715.715,0,0,0-.336.6V45.5a.459.459,0,0,0,.5.5h2.28a.69.69,0,0,0,.6-.312l.288-.384q.072-.1.216-.3a2.456,2.456,0,0,1,.252-.312.3.3,0,0,1,.2-.108,2.223,2.223,0,0,1,.8.528,5.233,5.233,0,0,1,.924.936.528.528,0,0,1,.12.288.343.343,0,0,1-.144.264.726.726,0,0,1-.432.12h-5.112a.459.459,0,0,0-.5.5v4.8a.459.459,0,0,0,.5.5ZM97.936,44.592q-.216-.456-.072-.528l.072-.024a.809.809,0,0,1,.408.192,5.187,5.187,0,0,1,1.44,1.428,2.634,2.634,0,0,1,.456,1.38,1.207,1.207,0,0,1-.216.744.642.642,0,0,1-.528.288A.978.978,0,0,1,99.16,48a.414.414,0,0,1-.228-.2,1.166,1.166,0,0,1-.084-.348A8.312,8.312,0,0,0,97.936,44.592Zm-3.792.7q0-.5.216-.5t.288.456a10.319,10.319,0,0,1,.192,1.872,7.128,7.128,0,0,1-.2,1.776,4.326,4.326,0,0,1-.516,1.272,1.221,1.221,0,0,1-.468.456,1.2,1.2,0,0,1-.588.168.642.642,0,0,1-.5-.216.843.843,0,0,1-.12-.456,1.4,1.4,0,0,1,.408-.936,5.091,5.091,0,0,0,.84-1.644A8.546,8.546,0,0,0,94.144,45.288Zm25.992,14.856a1.126,1.126,0,0,1-.732-.372,2.1,2.1,0,0,1-.564-.876,17.077,17.077,0,0,1-.888-5.928,15.624,15.624,0,0,1,.24-2.88,26.344,26.344,0,0,1,.648-2.64q.168-.648.312-1.272a4.9,4.9,0,0,0,.144-1.08,2.824,2.824,0,0,0-.168-.936,2.2,2.2,0,0,0-.432-.768.856.856,0,0,1-.192-.36q0-.12.1-.12a.821.821,0,0,1,.384.144,4.218,4.218,0,0,1,1.26,1.2,3.119,3.119,0,0,1,.468,1.776,3.249,3.249,0,0,1-.144.936,9.288,9.288,0,0,1-.336.936q-.192.456-.24.6a12.77,12.77,0,0,0-.744,2.04,7.6,7.6,0,0,0-.24,1.9,6.655,6.655,0,0,0,.1,1.164q.1.54.288.54.12,0,.408-.48l.432-.888.816-1.632q.168-.264.24-.264t.072.1l-.072.288q-.312.84-.7,2.172a8.318,8.318,0,0,0-.384,2.22,17.2,17.2,0,0,0,.408,3.072,7.177,7.177,0,0,1,.12.768.6.6,0,0,1-.192.48A.611.611,0,0,1,120.136,60.144Zm8.688-13.512a6.441,6.441,0,0,1-1.728-.192,4.776,4.776,0,0,1-1.4-.624,2.337,2.337,0,0,1-.828-.84.737.737,0,0,1-.1-.288.064.064,0,0,1,.072-.072.593.593,0,0,1,.252.12,2.181,2.181,0,0,0,.348.192,4.555,4.555,0,0,0,1.728.312A15.852,15.852,0,0,0,129,45.1q1.164-.144,1.932-.312a1.544,1.544,0,0,1,.456-.1,1.408,1.408,0,0,1,.84.276.755.755,0,0,1,.384.588q0,.552-1.224.816A12.152,12.152,0,0,1,128.824,46.632Zm.84,12.384a9.715,9.715,0,0,1-3.24-.492,3.2,3.2,0,0,1-1.968-1.956,2.005,2.005,0,0,1-.144-.432.085.085,0,0,1,.1-.1.323.323,0,0,1,.18.084q.108.084.18.132a5.626,5.626,0,0,0,2.088,1.008,7.059,7.059,0,0,0,1.656.144,23.041,23.041,0,0,0,3.192-.288l.816-.1a1.365,1.365,0,0,1,.9.288.815.815,0,0,1,.348.624q0,.648-1.14.864A16.48,16.48,0,0,1,129.664,59.016Zm27.72-9.7a2.038,2.038,0,0,1,.744.4,5.4,5.4,0,0,1,.888.732.519.519,0,0,1,.12.264.355.355,0,0,1-.216.312,1.6,1.6,0,0,1-.288.12.59.59,0,0,0-.432.576v7.992a2.487,2.487,0,0,1-.324,1.392,2.049,2.049,0,0,1-1.38.672l-.144.024q-.312,0-.48-.432a1.312,1.312,0,0,0-.36-.6,3.459,3.459,0,0,0-1.32-.5q-.48-.072-.48-.264,0-.144.384-.144l1.416.072.816.048a.559.559,0,0,0,.4-.108.517.517,0,0,0,.108-.372V51.48a.459.459,0,0,0-.5-.5h-4.056a.459.459,0,0,0-.5.5v4.872a.459.459,0,0,0,.5.5h1.08a.445.445,0,0,0,.5-.5q-.048-1.776-.192-3.432v-.1q0-.36.336-.36a1.443,1.443,0,0,1,.24.048,7.084,7.084,0,0,1,.96.42q.264.156.264.3,0,.072-.12.144a.641.641,0,0,0-.264.552v.888q.072,1.992.12,3v.144a.591.591,0,0,1-.216.456,1.4,1.4,0,0,1-.912.336q-.1,0-.156-.132a.923.923,0,0,1-.06-.372v-.192a.459.459,0,0,0-.5-.5h-4.44a.459.459,0,0,0-.5.5v.5q0,.144-.312.324a1.2,1.2,0,0,1-.6.18.3.3,0,0,1-.264-.144.591.591,0,0,1-.1-.336q.072-.6.1-1.176l.024-.552V55.728a25.266,25.266,0,0,0-.144-2.784V52.9q0-.432.336-.432a.6.6,0,0,1,.264.072q1.1.432,1.1.672,0,.072-.144.168a.641.641,0,0,0-.264.552v2.424a.459.459,0,0,0,.5.5h1.032a.459.459,0,0,0,.5-.5V51.48a.459.459,0,0,0-.5-.5H146.1a.459.459,0,0,0-.5.5v4.08q.048,2.616.168,5.28v.12a.515.515,0,0,1-.24.48,1.684,1.684,0,0,1-1.08.384.4.4,0,0,1-.3-.144.482.482,0,0,1-.132-.336q.144-2.232.192-4.512v-2.52a36.908,36.908,0,0,0-.216-4.2v-.1q0-.36.312-.36a.534.534,0,0,1,.24.048l.912.408a1.593,1.593,0,0,0,.624.144h3.792a.459.459,0,0,0,.5-.5V48.336a.459.459,0,0,0-.5-.5h-2.184a25.853,25.853,0,0,0-3.168.264h-.144a.493.493,0,0,1-.48-.336.233.233,0,0,0-.216-.168q-.216,0-.36.432l-1.92,5.952a10.515,10.515,0,0,0-.312,2.064,6.617,6.617,0,0,0,.24,1.32,10.44,10.44,0,0,1,.36,2.472,2.909,2.909,0,0,1-.324,1.512,1.045,1.045,0,0,1-.948.528.519.519,0,0,1-.42-.24,1.506,1.506,0,0,1-.252-.648,2.04,2.04,0,0,1,0-.624,18.469,18.469,0,0,0,.144-2.184q0-1.92-.5-2.232a1.584,1.584,0,0,0-.624-.288q-.48-.12-.48-.336,0-.264.5-.264h.5a.527.527,0,0,0,.312-.072,1.122,1.122,0,0,0,.24-.384q.216-.48,2.3-5.568L143.776,45q.144-.432.36-.432.168,0,.168.264a.775.775,0,0,1-.048.288l-.408,1.3a.624.624,0,0,0-.024.192q0,.336.408.384.72.072,2.16.12h.84a.459.459,0,0,0,.5-.5v-2.16a.459.459,0,0,0-.5-.5h-.744a10.484,10.484,0,0,0-1.824.24h-.144a.493.493,0,0,1-.48-.312l-.1-.168a.6.6,0,0,1-.072-.264A.287.287,0,0,1,144,43.2a.483.483,0,0,1,.348-.072q.7.072,2.064.12h.816a.445.445,0,0,0,.5-.5q-.048-1.272-.144-2.28v-.048q0-.432.36-.432l.216.048q1.656.5,1.656.816,0,.12-.192.24l-.072.048a.677.677,0,0,0-.336.6v1.008a.459.459,0,0,0,.5.5h2.736a.445.445,0,0,0,.5-.5q-.048-1.272-.144-2.28v-.048q0-.408.36-.408a1.443,1.443,0,0,1,.24.048,10.133,10.133,0,0,1,1.248.468q.36.18.36.324,0,.12-.216.24l-.072.048a.677.677,0,0,0-.336.6v1.008a.459.459,0,0,0,.5.5h.768a.69.69,0,0,0,.6-.312l.24-.36a3.459,3.459,0,0,0,.2-.288,1.723,1.723,0,0,1,.228-.288.331.331,0,0,1,.216-.12,2.174,2.174,0,0,1,.792.5,5.389,5.389,0,0,1,.912.888.528.528,0,0,1,.12.288.343.343,0,0,1-.144.264.843.843,0,0,1-.456.12h-3.48a.459.459,0,0,0-.5.5v2.16a.459.459,0,0,0,.5.5h.984a.677.677,0,0,0,.6-.336l.24-.36a3.458,3.458,0,0,0,.2-.288,1.723,1.723,0,0,1,.228-.288.331.331,0,0,1,.216-.12q.192,0,.816.528a6.038,6.038,0,0,1,.912.912.528.528,0,0,1,.12.288.343.343,0,0,1-.144.264.684.684,0,0,1-.408.12h-6.36a.459.459,0,0,0-.5.5v1.416a.459.459,0,0,0,.5.5h3.888a.69.69,0,0,0,.6-.312l.1-.144q.048-.072.144-.2a1.761,1.761,0,0,1,.168-.2A.23.23,0,0,1,157.384,49.32Zm-15.576-5.856a.827.827,0,0,1-.408-.432,7.11,7.11,0,0,0-.864-1.26,9.717,9.717,0,0,0-1.176-1.188q-.384-.312-.312-.432a.278.278,0,0,1,.192-.048,1.645,1.645,0,0,1,.312.024A5.2,5.2,0,0,1,142.06,41.2a2.036,2.036,0,0,1,.8,1.452.9.9,0,0,1-.216.624.709.709,0,0,1-.552.24A1.313,1.313,0,0,1,141.808,43.464Zm7.92.48a.459.459,0,0,0-.5.5v2.16a.459.459,0,0,0,.5.5h2.736a.459.459,0,0,0,.5-.5v-2.16a.459.459,0,0,0-.5-.5Zm-9.24,5.232a.829.829,0,0,1-.408-.48,4.736,4.736,0,0,0-.72-1.128,7.86,7.86,0,0,0-1.032-1.032q-.408-.36-.312-.456a.278.278,0,0,1,.192-.048,1.645,1.645,0,0,1,.312.024,4.649,4.649,0,0,1,2.28.96,1.871,1.871,0,0,1,.744,1.344.93.93,0,0,1-.2.624.674.674,0,0,1-.54.24A1.349,1.349,0,0,1,140.488,49.176Zm33.192,2.04a4,4,0,0,1,2.976,1.116,4.1,4.1,0,0,1,1.1,3.012,4.824,4.824,0,0,1-2.268,4.188,13.187,13.187,0,0,1-6.612,1.812h-.144q-.312,0-.312-.144t.384-.192a11.334,11.334,0,0,0,5.34-1.86,4.782,4.782,0,0,0,2-4.116,3.517,3.517,0,0,0-.648-2.208,2.3,2.3,0,0,0-1.944-.84,3.9,3.9,0,0,0-2.04.576,6.585,6.585,0,0,0-1.644,1.38,7.055,7.055,0,0,0-1,1.452q-.384.816-.888.816a.793.793,0,0,1-.6-.36,2.527,2.527,0,0,1-.528-1.128,7.839,7.839,0,0,1-.12-1.464,18.433,18.433,0,0,1,.192-2.328q.192-1.44.6-3.888a.832.832,0,0,0-.108-.312.4.4,0,0,0-.324-.24,3.853,3.853,0,0,1-3.312-2.016.737.737,0,0,1-.1-.288q0-.216.168-.216a1.067,1.067,0,0,1,.456.264,4.2,4.2,0,0,0,2.736,1.008h.312a.491.491,0,0,0,.528-.48,19.6,19.6,0,0,0,.312-2.424,1.408,1.408,0,0,0-.552-1.128q-.1-.072-.192-.132a.881.881,0,0,1-.156-.12.183.183,0,0,1-.06-.132q0-.168.408-.264a3.36,3.36,0,0,1,.768-.1,2.291,2.291,0,0,1,1.14.252.836.836,0,0,1,.444.78,3.313,3.313,0,0,1-.168.72.762.762,0,0,0-.048.216.548.548,0,0,0,.288.456,4.407,4.407,0,0,0,1.776.744q.672.072.96.132a.6.6,0,0,1,.408.252.431.431,0,0,1,.072.264,1.3,1.3,0,0,1-.492.9,3.671,3.671,0,0,1-1.26.756,10.618,10.618,0,0,1-2.472.528.5.5,0,0,0-.528.456,27.444,27.444,0,0,0-.552,4.848q0,1.632.408,1.632a1.466,1.466,0,0,0,.624-.336,9.71,9.71,0,0,1,2.22-1.3A6.175,6.175,0,0,1,173.68,51.216Zm-3.7-7.848a.6.6,0,0,0-.264-.072q-.264,0-.384.336l-.288.864a.624.624,0,0,0-.024.192.3.3,0,0,0,.132.276.581.581,0,0,0,.372.06,5.148,5.148,0,0,0,1.248-.36q.384-.168.384-.312a.591.591,0,0,0-.12-.216,2.368,2.368,0,0,0-.408-.348A6.9,6.9,0,0,0,169.984,43.368Zm22.608,1.32a2.832,2.832,0,0,1,.588.264.428.428,0,0,1,.18.384,1.025,1.025,0,0,1-.5.744,16.394,16.394,0,0,1-2.736,1.608.668.668,0,0,0-.432.528q-2.04,9.456-2.352,10.44a4.275,4.275,0,0,1-.5,1.116.684.684,0,0,1-.552.324.941.941,0,0,1-.672-.276,1,1,0,0,1-.288-.756,1.66,1.66,0,0,1,.192-.744,40.507,40.507,0,0,0,2.952-9.384l.024-.144a.318.318,0,0,0-.144-.3.6.6,0,0,0-.408-.036,6.462,6.462,0,0,1-1.464.192,3.362,3.362,0,0,1-2.28-1.152.459.459,0,0,1-.168-.288.127.127,0,0,1,.144-.144.921.921,0,0,1,.36.12,3.413,3.413,0,0,0,1.344.264,5.074,5.074,0,0,0,1.464-.24,11.779,11.779,0,0,0,1.152-.384.668.668,0,0,0,.432-.528l.24-1.824a6,6,0,0,0,.048-.744,2.092,2.092,0,0,0-.2-1.068,3.151,3.151,0,0,0-.876-.78q-.192-.12-.192-.24,0-.144.312-.144a3.212,3.212,0,0,1,.684.1,3.741,3.741,0,0,1,.732.24,3.071,3.071,0,0,1,.792.528,1.112,1.112,0,0,1,.264.816.91.91,0,0,0,.216.648,4.019,4.019,0,0,0,.744.528A7.573,7.573,0,0,0,192.592,44.688Zm-2.256.528a.532.532,0,0,0-.024.168.436.436,0,0,0,.084.276.251.251,0,0,0,.2.108.384.384,0,0,0,.24-.1q.48-.36.48-.552a.78.78,0,0,0-.168-.432.483.483,0,0,0-.408-.264q-.24,0-.312.288Zm11.088,1.224a2.452,2.452,0,0,1,.756.84,1.855,1.855,0,0,1,.276.84q0,.48-.936.7a6.145,6.145,0,0,1-.672.12,6.226,6.226,0,0,0-.864.192,6.126,6.126,0,0,0-.792.336,4.05,4.05,0,0,0-.648.384.607.607,0,0,1-.288.1q-.12,0-.12-.1a.43.43,0,0,1,.12-.264q.12-.12.648-.528,1.32-.96,1.32-1.392,0-.24-.336-.48a3.574,3.574,0,0,0-1.1-.552,3.731,3.731,0,0,0-1.032-.168,2.67,2.67,0,0,0-.48.036q-.192.036-.216.036-.336,0-.336-.192,0-.168.312-.288a5.259,5.259,0,0,1,1.8-.312,5.443,5.443,0,0,1,1.476.192A3.526,3.526,0,0,1,201.424,46.44ZM200.608,58.3a1.8,1.8,0,0,1,.912.168.765.765,0,0,1,.312.456.834.834,0,0,1-.66,1.1,6.873,6.873,0,0,1-1.932.216,8.59,8.59,0,0,1-4.176-.9,3.08,3.08,0,0,1-1.632-2.916,3.932,3.932,0,0,1,.084-.84,2.569,2.569,0,0,1,.156-.528,2.719,2.719,0,0,1,.216-.432q.12-.192.24-.192.1,0,.1.168l-.048.432a2.739,2.739,0,0,0-.024.384,3.363,3.363,0,0,0,.192,1.056,2.5,2.5,0,0,0,.72,1.056,3.262,3.262,0,0,0,1.26.672,6.284,6.284,0,0,0,1.908.264q.264,0,1.272-.1.336-.024.624-.048T200.608,58.3Zm24.072-4.752a2.833,2.833,0,0,1,.876.24,4.383,4.383,0,0,1,1.1.624,1.048,1.048,0,0,1,.492.792q0,.624-.816.624a3.433,3.433,0,0,1-.72-.072,27.444,27.444,0,0,0-5.328-.456q-1.392,0-3.264.144a44.728,44.728,0,0,0-5.808.912,5.89,5.89,0,0,0-.576.192,5.05,5.05,0,0,1-.588.216,2.15,2.15,0,0,1-.588.072,2.834,2.834,0,0,1-1.164-.276,3.284,3.284,0,0,1-1.02-.7,1.234,1.234,0,0,1-.408-.852.17.17,0,0,1,.144-.144.818.818,0,0,1,.3.1,2.5,2.5,0,0,0,.372.144,3.256,3.256,0,0,0,1.08.168q.312,0,5.112-.5l1.728-.192a.492.492,0,0,0,.5-.5q.264-3.072.264-4.392a2.793,2.793,0,0,0-.024-.456,2.364,2.364,0,0,0-.6-1.1.751.751,0,0,0-.672-.168q-1.008.144-1.512.264a11.226,11.226,0,0,0-1.2.288,1.912,1.912,0,0,1-.552.12,1.673,1.673,0,0,1-.96-.312,2.4,2.4,0,0,1-.7-.7,1.115,1.115,0,0,1-.216-.48q0-.192.144-.192a1.151,1.151,0,0,1,.336.072q.072.024.444.108a5,5,0,0,0,1.044.084q.792,0,3.792-.384a22.45,22.45,0,0,0,3.84-.7,8.706,8.706,0,0,1,1.164-.36,3.73,3.73,0,0,1,.708-.072,2.727,2.727,0,0,1,1.044.192,2.209,2.209,0,0,1,.732.456.721.721,0,0,1,.264.432.311.311,0,0,1-.228.288,1.255,1.255,0,0,1-.492.1h-.456a36.481,36.481,0,0,0-4.44.36q-.36.024-.36.24,0,.144.264.336.624.5.624.84a1.227,1.227,0,0,1-.192.456,1.549,1.549,0,0,0-.264.552q-.048.24-.18,1.488t-.2,2.4v.048a.413.413,0,0,0,.5.456q2.4-.24,3.312-.24a13.073,13.073,0,0,0,1.752-.12,3.986,3.986,0,0,0,.864-.24A3.385,3.385,0,0,1,224.68,53.544Zm9.672,7.536q-.12,0-.12-.1t.408-.312a16.13,16.13,0,0,0,4.788-3.852,11.331,11.331,0,0,0,2.208-4.488,25.539,25.539,0,0,0,.564-5.748q0-1.008-.1-2.544a2.039,2.039,0,0,0-.5-1.464,1.975,1.975,0,0,0-.5-.348,2.175,2.175,0,0,1-.324-.168.207.207,0,0,1-.084-.18q0-.336.936-.336a4.746,4.746,0,0,1,.672.048,3.266,3.266,0,0,1,1.272.7q.672.552.672.936a1.3,1.3,0,0,1-.168.528q-.024.048-.132.336a1.835,1.835,0,0,0-.108.648q0,1.032-.048,2.424a22.683,22.683,0,0,1-1.008,6.408A10.094,10.094,0,0,1,240,57.828a18.338,18.338,0,0,1-5.292,3.156A1.091,1.091,0,0,1,234.352,61.08Zm2.808-8.232q-.288,0-.576-.48a2.2,2.2,0,0,1-.288-1.152q0-.072.072-.948t.072-1.524a21.917,21.917,0,0,0-.192-3.48,2.526,2.526,0,0,0-.2-.72,1.009,1.009,0,0,0-.444-.432q-.216-.12-.36-.216a.267.267,0,0,1-.144-.216q0-.168.312-.3a1.769,1.769,0,0,1,.7-.132,1.367,1.367,0,0,1,.552.1,2.958,2.958,0,0,1,1.092.6,1.036,1.036,0,0,1,.3.744,3.337,3.337,0,0,1-.072.648,16.614,16.614,0,0,0-.12,2.5l.024,1.872q0,.48.048,1.152.048.576.048.72a1.8,1.8,0,0,1-.216.876A.662.662,0,0,1,237.16,52.848Zm31.512-10.656q.984.84,1.608,1.428t.624.828a.4.4,0,0,1-.168.288,2.441,2.441,0,0,1-.7.384l-.648.36q-.744.432-2.376,1.26t-2.952,1.4a.726.726,0,0,0-.456.5,10.352,10.352,0,0,1-.312,1.224q-.6,1.776-1.332,3.408a19.127,19.127,0,0,1-2.412,3.78,13.614,13.614,0,0,1-4.2,3.54.835.835,0,0,1-.336.144q-.144,0-.144-.12,0-.072.144-.192t.168-.144a13.883,13.883,0,0,0,3.852-4.272,24.451,24.451,0,0,0,2.3-4.992,13.29,13.29,0,0,0,.756-3.24,1.772,1.772,0,0,0-.372-1.212,2.187,2.187,0,0,0-1.14-.612q-.144-.048-.144-.144,0-.168.372-.252a4.017,4.017,0,0,1,.876-.084,3,3,0,0,1,1.284.264,2.593,2.593,0,0,1,.876.624,1.035,1.035,0,0,1,.312.624q.144.288.36.288a.351.351,0,0,0,.216-.072,10.64,10.64,0,0,0,3.024-2.784,1.575,1.575,0,0,0,.312-.7q0-.456-.912-.456a24.208,24.208,0,0,0-2.556.348q-2.1.348-3.3.588-.72.144-1.944.456-.84.216-1.644.4a6.077,6.077,0,0,1-1.188.18,2.269,2.269,0,0,1-1.176-.432,2.55,2.55,0,0,1-.912-.888.984.984,0,0,1-.12-.432q0-.264.168-.264a.869.869,0,0,1,.288.108,2.279,2.279,0,0,0,.384.156,4.715,4.715,0,0,0,1.392.168,12.645,12.645,0,0,0,1.3-.072q1.032-.1,4.452-.576t4.116-.672a8.78,8.78,0,0,1,1.728-.432A1.074,1.074,0,0,1,268.672,42.192Z" transform="translate(0 2926.36)" fill="#3f3f3f"/>
    <path id="パス_32322" data-name="パス 32322" d="M-1848.245,1077l75.169.389,0,9.611,10.186-9.412,74.643-.2" transform="translate(1927.245 1838.224)" fill="none" stroke="#173449" stroke-width="1"/>
    <path id="パス_32350" data-name="パス 32350" d="M-67.512-18.216q-.144-.264-.336-.264a.4.4,0,0,0-.336.24,27.032,27.032,0,0,1-4.524,5.016,29.993,29.993,0,0,1-5.748,4.056,1.182,1.182,0,0,1-.348.108.18.18,0,0,1-.18-.06v-.048q0-.168.312-.384a24.73,24.73,0,0,0,3.816-3.084,32.485,32.485,0,0,0,3.432-3.876,10.52,10.52,0,0,0,1.824-3.5.444.444,0,0,1,.432-.36.624.624,0,0,1,.192.024l1.872.6a.719.719,0,0,1,.288.156.294.294,0,0,1,.12.2q0,.12-.168.192a.534.534,0,0,0-.24.408.43.43,0,0,0,.072.216,18.191,18.191,0,0,0,3.9,3.792,31.013,31.013,0,0,0,5.292,3.12q.384.216.384.336,0,.072-.12.156a1.6,1.6,0,0,1-.288.156,1.965,1.965,0,0,0-.84.72q-.168.288-.384.288a1.337,1.337,0,0,1-.288-.1,25.45,25.45,0,0,1-4.776-3.672A17.393,17.393,0,0,1-67.512-18.216Zm3.5,12.672a.712.712,0,0,0,.624-.312l.264-.36a2.285,2.285,0,0,0,.24-.288,2.285,2.285,0,0,1,.24-.288.331.331,0,0,1,.216-.12,2.192,2.192,0,0,1,.84.5,6.027,6.027,0,0,1,.96.888.413.413,0,0,1,.1.264.363.363,0,0,1-.144.288.716.716,0,0,1-.432.1h-6.072a.5.5,0,0,0-.372.132.5.5,0,0,0-.132.372V-.216a.5.5,0,0,0,.132.372.5.5,0,0,0,.372.132h5.352a.69.69,0,0,0,.6-.312l.312-.432.24-.324a3.1,3.1,0,0,1,.276-.336.3.3,0,0,1,.2-.108,2.466,2.466,0,0,1,.9.564,6.093,6.093,0,0,1,1.02.972.528.528,0,0,1,.12.288.293.293,0,0,1-.168.264.77.77,0,0,1-.456.1H-74.352a24.865,24.865,0,0,0-3.168.264h-.12a.559.559,0,0,1-.528-.312l-.1-.168a.639.639,0,0,1-.072-.288.264.264,0,0,1,.12-.228.483.483,0,0,1,.336-.06q.816.072,2.472.12h5.664a.5.5,0,0,0,.372-.132.5.5,0,0,0,.132-.372V-4.368a.5.5,0,0,0-.132-.372.5.5,0,0,0-.372-.132h-1.68a25.852,25.852,0,0,0-3.168.264h-.144a.493.493,0,0,1-.48-.312l-.1-.168a.639.639,0,0,1-.072-.288.264.264,0,0,1,.12-.228.483.483,0,0,1,.336-.06q.816.072,2.472.12h2.712a.5.5,0,0,0,.372-.132.5.5,0,0,0,.132-.372V-9.6a.5.5,0,0,0-.132-.372.5.5,0,0,0-.372-.132h-1.392a24.626,24.626,0,0,0-3.12.264H-74.4a.493.493,0,0,1-.48-.336l-.1-.168a.6.6,0,0,1-.072-.264q0-.36.48-.312.816.072,2.5.12H-64.7a.712.712,0,0,0,.624-.312l.24-.336q.1-.12.2-.264a2.459,2.459,0,0,1,.228-.264.331.331,0,0,1,.216-.12,2.075,2.075,0,0,1,.816.492,5.771,5.771,0,0,1,.912.852.367.367,0,0,1,.12.264.4.4,0,0,1-.144.264.726.726,0,0,1-.432.12h-5.256a.5.5,0,0,0-.372.132.5.5,0,0,0-.132.372v3.552a.5.5,0,0,0,.132.372.5.5,0,0,0,.372.132ZM-52.848.144a.5.5,0,0,0-.372.132.5.5,0,0,0-.132.372v.576q0,.192-.372.408a1.574,1.574,0,0,1-.8.216.573.573,0,0,1-.384-.144.432.432,0,0,1-.168-.336q.1-1.416.168-2.748t.1-3.492v-9.816a36.907,36.907,0,0,0-.216-4.2v-.1q0-.384.288-.384a.6.6,0,0,1,.264.072l1.008.48a1.593,1.593,0,0,0,.624.144H-38.5a.751.751,0,0,0,.624-.312l.144-.192.18-.24a1.381,1.381,0,0,1,.192-.216.272.272,0,0,1,.18-.072,1.912,1.912,0,0,1,.732.432,5.988,5.988,0,0,1,.876.792.53.53,0,0,1,.12.24q0,.168-.24.336a.606.606,0,0,1-.144.072.932.932,0,0,0-.12.048.551.551,0,0,0-.432.552V-4.656q.048,2.616.168,5.28v.12a.515.515,0,0,1-.24.48,2.073,2.073,0,0,1-.576.36,1.594,1.594,0,0,1-.624.144.278.278,0,0,1-.24-.168.6.6,0,0,1-.072-.264A2.022,2.022,0,0,1-37.92.96l.048-.288V.648A.5.5,0,0,0-38,.276a.5.5,0,0,0-.372-.132Zm0-18.12a.5.5,0,0,0-.372.132.5.5,0,0,0-.132.372V-1.056a.5.5,0,0,0,.132.372.5.5,0,0,0,.372.132h14.472A.5.5,0,0,0-38-.684a.5.5,0,0,0,.132-.372V-17.472A.5.5,0,0,0-38-17.844a.5.5,0,0,0-.372-.132Zm9.96,7.92a.69.69,0,0,0,.6-.312l.216-.312.2-.276a2.406,2.406,0,0,1,.216-.264.252.252,0,0,1,.18-.084q.168,0,.708.468a6.666,6.666,0,0,1,.828.828.447.447,0,0,1,.1.288.367.367,0,0,1-.12.264.843.843,0,0,1-.456.12H-44.5a.5.5,0,0,0-.372.132A.5.5,0,0,0-45-8.832v4.32a.5.5,0,0,0,.132.372.5.5,0,0,0,.372.132h2.712a.677.677,0,0,0,.6-.336l.216-.312q.1-.12.192-.264a2.305,2.305,0,0,1,.2-.264.294.294,0,0,1,.2-.12,1.85,1.85,0,0,1,.768.468,4.347,4.347,0,0,1,.84.852.528.528,0,0,1,.12.288.343.343,0,0,1-.144.264.684.684,0,0,1-.408.12H-48.24a25.852,25.852,0,0,0-3.168.264h-.144a.493.493,0,0,1-.48-.336l-.1-.168a.6.6,0,0,1-.072-.264q0-.36.48-.312.816.072,2.5.12h2.256A.5.5,0,0,0-46.6-4.14a.5.5,0,0,0,.132-.372v-4.32A.5.5,0,0,0-46.6-9.2a.5.5,0,0,0-.372-.132h-.912a14.185,14.185,0,0,0-2.112.24.412.412,0,0,1-.168.024.479.479,0,0,1-.456-.336l-.1-.192a.639.639,0,0,1-.072-.288.264.264,0,0,1,.12-.228.483.483,0,0,1,.336-.06q.792.072,2.4.12h.96a.5.5,0,0,0,.372-.132.5.5,0,0,0,.132-.372v-3.312a.5.5,0,0,0-.132-.372.5.5,0,0,0-.372-.132h-1.224a19.215,19.215,0,0,0-2.736.264h-.144a.493.493,0,0,1-.48-.312l-.1-.168a.6.6,0,0,1-.072-.264q0-.36.48-.312.816.072,2.472.12h6.384a.69.69,0,0,0,.6-.312l.24-.336q.072-.1.2-.288a2.117,2.117,0,0,1,.228-.288.277.277,0,0,1,.192-.1,1.85,1.85,0,0,1,.768.468,4.347,4.347,0,0,1,.84.852.528.528,0,0,1,.12.288.343.343,0,0,1-.144.264.726.726,0,0,1-.432.12H-44.5a.5.5,0,0,0-.372.132.5.5,0,0,0-.132.372v3.312a.5.5,0,0,0,.132.372.5.5,0,0,0,.372.132Zm-.5,1.9a.74.74,0,0,1-.24-.432q0-.1.144-.1a.809.809,0,0,1,.36.1,4.93,4.93,0,0,1,1.8,1.248,2.1,2.1,0,0,1,.576,1.3.92.92,0,0,1-.18.588.569.569,0,0,1-.468.228.762.762,0,0,1-.216-.048A.61.61,0,0,1-42-5.76a6.808,6.808,0,0,0-.564-1.224A7.523,7.523,0,0,0-43.392-8.16Zm28.2-7.632a.712.712,0,0,0,.624-.312l.168-.24a4.048,4.048,0,0,0,.276-.324q.18-.228.324-.228.168,0,.708.456a5.361,5.361,0,0,1,.828.84.413.413,0,0,1,.1.264.288.288,0,0,1-.24.288l-.192.072a.694.694,0,0,0-.348.2.685.685,0,0,0-.132.372,90.6,90.6,0,0,1-.84,10.044Q-14.52-.5-15.456.552a3.323,3.323,0,0,1-2.3,1.128h-.072q-.36,0-.48-.456A1.024,1.024,0,0,0-18.7.552,4.933,4.933,0,0,0-20.568-.1q-.456-.12-.456-.288A.151.151,0,0,1-20.9-.54,1.239,1.239,0,0,1-20.5-.552q2.064.24,2.808.24a1.973,1.973,0,0,0,.6-.072A1.051,1.051,0,0,0-16.656-.7q.744-.672,1.26-4.3t.8-9.576v-.048a.45.45,0,0,0-.144-.348.513.513,0,0,0-.36-.132h-5.832a.668.668,0,0,0-.6.36,18.746,18.746,0,0,1-2.88,4.32q-.216.24-.36.24a.127.127,0,0,1-.144-.144.836.836,0,0,1,.144-.408,25.821,25.821,0,0,0,2.04-4.392,19.254,19.254,0,0,0,.66-2.292,18.268,18.268,0,0,0,.4-2.316q.072-.408.432-.408a.624.624,0,0,1,.192.024q1.848.6,1.848.864,0,.1-.216.192l-.072.024a.8.8,0,0,0-.456.5q-.6,1.656-.816,2.16a.762.762,0,0,0-.048.216.32.32,0,0,0,.12.264.525.525,0,0,0,.336.1Zm-12.192.048a.712.712,0,0,0,.624-.312l.12-.168q.072-.1.24-.3a.448.448,0,0,1,.312-.2,1.876,1.876,0,0,1,.72.408,5.377,5.377,0,0,1,.864.768.413.413,0,0,1,.1.264.394.394,0,0,1-.216.312l-.288.1a.565.565,0,0,0-.432.576V-6.36q.048,2.616.168,5.28v.1a.575.575,0,0,1-.24.5,2.045,2.045,0,0,1-1.128.432q-.144,0-.264-.192a.393.393,0,0,1-.048-.216,3.149,3.149,0,0,1,.048-.36l.048-.384v-.072a.5.5,0,0,0-.132-.372.5.5,0,0,0-.372-.132h-3.144a.5.5,0,0,0-.372.132.5.5,0,0,0-.132.372v.1l.048.72.024.216a.555.555,0,0,1-.168.408,1.377,1.377,0,0,1-.468.288,1.7,1.7,0,0,1-.636.12A.459.459,0,0,1-32.436.42.459.459,0,0,1-32.592.1q.1-1.416.168-2.748t.1-3.492v-5.568a36.907,36.907,0,0,0-.216-4.2v-.1a.436.436,0,0,1,.084-.276.251.251,0,0,1,.2-.108.6.6,0,0,1,.264.072l.888.432a1.284,1.284,0,0,0,.624.144h.072a.489.489,0,0,0,.552-.432,22.654,22.654,0,0,0,.528-3.528.476.476,0,0,1,.18-.372.49.49,0,0,1,.42-.036q1.872.456,1.872.744,0,.072-.216.192l-.12.048a.9.9,0,0,0-.456.456q-.624,1.176-1.3,2.328a.6.6,0,0,0-.072.264.3.3,0,0,0,.12.24.484.484,0,0,0,.312.1Zm.12,6.456a.5.5,0,0,0,.372-.132.5.5,0,0,0,.132-.372V-14.52a.5.5,0,0,0-.132-.372.5.5,0,0,0-.372-.132h-3.144a.5.5,0,0,0-.372.132.5.5,0,0,0-.132.372v4.728a.5.5,0,0,0,.132.372.5.5,0,0,0,.372.132Zm5.4-1.464q-.264-.264-.264-.408,0-.12.144-.12a1.317,1.317,0,0,1,.384.12,8.435,8.435,0,0,1,2.928,2.112,3.463,3.463,0,0,1,.936,2.088,1.155,1.155,0,0,1-.216.732.671.671,0,0,1-.552.276,1.028,1.028,0,0,1-.36-.072.664.664,0,0,1-.384-.5,8.531,8.531,0,0,0-1.02-2.136A14.656,14.656,0,0,0-21.864-10.752Zm-8.544,2.136a.5.5,0,0,0-.372.132.5.5,0,0,0-.132.372V-3a.5.5,0,0,0,.132.372.5.5,0,0,0,.372.132h3.144a.5.5,0,0,0,.372-.132A.5.5,0,0,0-26.76-3V-8.112a.5.5,0,0,0-.132-.372.5.5,0,0,0-.372-.132ZM-5.664.144A1.126,1.126,0,0,1-6.4-.228,2.1,2.1,0,0,1-6.96-1.1a17.077,17.077,0,0,1-.888-5.928,15.623,15.623,0,0,1,.24-2.88,26.341,26.341,0,0,1,.648-2.64q.168-.648.312-1.272A4.9,4.9,0,0,0-6.5-14.9a2.824,2.824,0,0,0-.168-.936,2.2,2.2,0,0,0-.432-.768.856.856,0,0,1-.192-.36q0-.12.1-.12a.821.821,0,0,1,.384.144,4.218,4.218,0,0,1,1.26,1.2,3.119,3.119,0,0,1,.468,1.776,3.249,3.249,0,0,1-.144.936,9.287,9.287,0,0,1-.336.936q-.192.456-.24.6a12.77,12.77,0,0,0-.744,2.04,7.6,7.6,0,0,0-.24,1.9A6.655,6.655,0,0,0-6.7-6.4q.1.54.288.54.12,0,.408-.48l.432-.888.816-1.632q.168-.264.24-.264t.072.1l-.072.288q-.312.84-.7,2.172a8.318,8.318,0,0,0-.384,2.22,17.2,17.2,0,0,0,.408,3.072,7.175,7.175,0,0,1,.12.768.6.6,0,0,1-.192.48A.611.611,0,0,1-5.664.144ZM3.024-13.368A6.441,6.441,0,0,1,1.3-13.56a4.776,4.776,0,0,1-1.4-.624,2.337,2.337,0,0,1-.828-.84.737.737,0,0,1-.1-.288.064.064,0,0,1,.072-.072.593.593,0,0,1,.252.12,2.181,2.181,0,0,0,.348.192,4.555,4.555,0,0,0,1.728.312A15.851,15.851,0,0,0,3.2-14.9q1.164-.144,1.932-.312a1.544,1.544,0,0,1,.456-.1,1.409,1.409,0,0,1,.84.276.755.755,0,0,1,.384.588q0,.552-1.224.816A12.152,12.152,0,0,1,3.024-13.368ZM3.864-.984a9.715,9.715,0,0,1-3.24-.492A3.2,3.2,0,0,1-1.344-3.432a2.005,2.005,0,0,1-.144-.432.085.085,0,0,1,.1-.1.322.322,0,0,1,.18.084q.108.084.18.132A5.626,5.626,0,0,0,1.056-2.736a7.059,7.059,0,0,0,1.656.144A23.041,23.041,0,0,0,5.9-2.88l.816-.1a1.365,1.365,0,0,1,.9.288.815.815,0,0,1,.348.624q0,.648-1.14.864A16.48,16.48,0,0,1,3.864-.984Zm23.52-17.76a.69.69,0,0,0,.6-.312l.168-.24q.048-.072.168-.24a1.494,1.494,0,0,1,.216-.252.293.293,0,0,1,.192-.084q.168,0,.72.468a6.726,6.726,0,0,1,.864.852.413.413,0,0,1,.1.264.394.394,0,0,1-.216.312q-.216.1-.288.12a.615.615,0,0,0-.408.576v6.048q.048,2.616.168,5.28v.1a.558.558,0,0,1-.264.5,2.062,2.062,0,0,1-1.152.408.293.293,0,0,1-.264-.168.393.393,0,0,1-.048-.216.841.841,0,0,1,.048-.264.532.532,0,0,1,.024-.168.4.4,0,0,0-.132-.312.533.533,0,0,0-.372-.12h-1.3a.5.5,0,0,0-.372.132.5.5,0,0,0-.132.372v5.16q0,.288.168.36a2.594,2.594,0,0,0,.792.072h2.328q1.872,0,2.184-.024a.676.676,0,0,0,.3-.084.544.544,0,0,0,.156-.252,18.424,18.424,0,0,0,.624-2.808q.072-.456.24-.456.072,0,.12.132a1.132,1.132,0,0,1,.048.372l.048,2.472a.533.533,0,0,0,.084.312,1.139,1.139,0,0,0,.3.264.422.422,0,0,1,.18.2.986.986,0,0,1,.036.3.677.677,0,0,1-.336.6,3.161,3.161,0,0,1-1.26.312q-.924.1-2.748.1H26.424a4.989,4.989,0,0,1-1.38-.144,1,1,0,0,1-.636-.468,2.116,2.116,0,0,1-.168-.948V-5.688a.5.5,0,0,0-.132-.372.5.5,0,0,0-.372-.132H22.08a.483.483,0,0,0-.528.456,9.32,9.32,0,0,1-1.416,3.66A7.468,7.468,0,0,1,17.364.288a16.82,16.82,0,0,1-4.476,1.44l-.288.048a.222.222,0,0,1-.24-.144V1.608a.208.208,0,0,1,.1-.168,1.147,1.147,0,0,1,.336-.144A15.226,15.226,0,0,0,16.476-.312a7.057,7.057,0,0,0,2.232-2.2,8.832,8.832,0,0,0,1.14-3.132v-.1q0-.456-.48-.456H18.312a.5.5,0,0,0-.372.132.5.5,0,0,0-.132.372v.456q0,.144-.4.336a1.927,1.927,0,0,1-.852.192.5.5,0,0,1-.348-.144.444.444,0,0,1-.156-.336q.1-1.392.156-2.76t.084-3.432v-3.336a37.553,37.553,0,0,0-.216-4.224v-.1q0-.36.312-.36a.534.534,0,0,1,.24.048l1.008.456a1.478,1.478,0,0,0,.624.144Zm.12,3.888a.5.5,0,0,0,.372-.132.5.5,0,0,0,.132-.372v-2.16a.5.5,0,0,0-.132-.372.5.5,0,0,0-.372-.132H18.312a.5.5,0,0,0-.372.132.5.5,0,0,0-.132.372v2.16a.5.5,0,0,0,.132.372.5.5,0,0,0,.372.132Zm-9.7,3.432a.5.5,0,0,0,.132.372.5.5,0,0,0,.372.132H27.5a.5.5,0,0,0,.372-.132.5.5,0,0,0,.132-.372v-2.232a.5.5,0,0,0-.132-.372.5.5,0,0,0-.372-.132H18.312a.5.5,0,0,0-.372.132.5.5,0,0,0-.132.372ZM28.008-9.7a.5.5,0,0,0-.132-.372A.5.5,0,0,0,27.5-10.2H18.312a.5.5,0,0,0-.372.132.5.5,0,0,0-.132.372v2.28a.5.5,0,0,0,.132.372.5.5,0,0,0,.372.132H27.5a.5.5,0,0,0,.372-.132.5.5,0,0,0,.132-.372Zm23.28-7.728a2.817,2.817,0,0,1,1.524.444,1.268,1.268,0,0,1,.708,1.068.49.49,0,0,1-.156.4.592.592,0,0,1-.4.132,7.227,7.227,0,0,1-1.344-.168l-.648-.1a5.538,5.538,0,0,0-.792-.072,5.222,5.222,0,0,0-1.38.18,5.639,5.639,0,0,0-.948.324A4.58,4.58,0,0,0,46.092-13.1a15.306,15.306,0,0,0-1.2,3.5,16,16,0,0,0-.42,3.36,5.312,5.312,0,0,0,.828,3.4,3.113,3.113,0,0,0,2.508.972l.672-.048a9.017,9.017,0,0,1,1.1-.1q1.728,0,1.728.84,0,.624-.972.828a9.5,9.5,0,0,1-1.956.2,6.363,6.363,0,0,1-3.132-.648,3.584,3.584,0,0,1-1.62-1.968,10.316,10.316,0,0,1-.48-3.456,12.755,12.755,0,0,1,.84-4.6,13.261,13.261,0,0,1,2.184-3.8q.744-.792.648-.744l-.1.024a13.652,13.652,0,0,0-1.908.624q-1.236.48-3.156,1.32l-1.032.432q-.192.1-.84.432-.456.24-.72.36a1.319,1.319,0,0,1-.552.12,2.1,2.1,0,0,1-1.284-.552,4.907,4.907,0,0,1-1.044-1.1.528.528,0,0,1-.12-.288.23.23,0,0,1,.072-.168.23.23,0,0,1,.168-.072.636.636,0,0,1,.312.1q.048.024.408.228a1.778,1.778,0,0,0,.888.2,2.88,2.88,0,0,0,.408-.048l1.464-.48q2.688-.912,4.932-1.572a26.645,26.645,0,0,1,4.14-.9,2.97,2.97,0,0,0,.7-.18q.336-.132.432-.18A2.951,2.951,0,0,1,51.288-17.424ZM68.9-10.512a10.206,10.206,0,0,1,4.044,3.036,6.319,6.319,0,0,1,1.452,3.9,4.342,4.342,0,0,1-.732,2.5A4.8,4.8,0,0,1,71.736.576a5.858,5.858,0,0,1-2.568.576,3.8,3.8,0,0,1-3.42-1.5,6.977,6.977,0,0,1-1-3.924V-5.448a.514.514,0,0,0-.384-.5Q62.9-6.6,62.9-7.608q0-1.368,2.16-3.312A1.065,1.065,0,0,0,65.4-11.5l.264-1.512a.412.412,0,0,0,.024-.168.525.525,0,0,0-.36-.48,10.116,10.116,0,0,1-1.248-.636,4.723,4.723,0,0,1-.888-.66l-.144-.144a.263.263,0,0,1-.1-.168.127.127,0,0,1,.144-.144,2.006,2.006,0,0,1,.336.1A8.143,8.143,0,0,0,64.6-15q.708.144.9.192a.412.412,0,0,0,.168.024q.36,0,.432-.432a11.123,11.123,0,0,0,.216-2.016,3.737,3.737,0,0,0-.264-1.464,2.987,2.987,0,0,0-.576-.912.393.393,0,0,1-.144-.24q0-.168.264-.168a1.684,1.684,0,0,1,.648.168,2.874,2.874,0,0,1,.72.456,2.078,2.078,0,0,1,.864,1.608,2.281,2.281,0,0,1-.1.624q-.1.336-.312.888-.216.528-.432,1.224a.728.728,0,0,0-.024.216q0,.336.384.408a9.779,9.779,0,0,1,.96.312,1.442,1.442,0,0,1,.684.552,1.3,1.3,0,0,1,.228.7.651.651,0,0,1-.192.48.7.7,0,0,1-.432.216,5.287,5.287,0,0,0-2.136.672.884.884,0,0,0-.384.552,34.956,34.956,0,0,0-.432,3.5l-.024.192q0,.288.216.336a13.659,13.659,0,0,0,1.8.1,2.7,2.7,0,0,1,1.056.168.659.659,0,0,1,.384.672.519.519,0,0,1-.372.552,2.774,2.774,0,0,1-.852.12A11.189,11.189,0,0,1,66.1-5.472a1.139,1.139,0,0,0-.264-.024q-.288,0-.288.144a8.334,8.334,0,0,0,.708,3.816A2.836,2.836,0,0,0,69.024-.192a3.965,3.965,0,0,0,1.92-.468,3.511,3.511,0,0,0,1.38-1.356A4.034,4.034,0,0,0,72.84-4.08a5.737,5.737,0,0,0-1.176-3.252,11.212,11.212,0,0,0-3-2.916q-.288-.192-.288-.312,0-.072.12-.072A.952.952,0,0,1,68.9-10.512Zm-2.376-2.64-.048.192a1.139,1.139,0,0,0-.024.264.615.615,0,0,0,.1.384.16.16,0,0,0,.24.024q.384-.336.384-.48,0-.1-.144-.18a1.156,1.156,0,0,0-.276-.12,1.13,1.13,0,0,1-.18-.06Zm-2.76,5.04a.815.815,0,0,0,.5.744.566.566,0,0,0,.24.072q.336,0,.384-.456.048-.672.192-1.728.048-.336-.24-.336-.312,0-.648.5A2.292,2.292,0,0,0,63.768-8.112Z" transform="translate(162 2913.376)" fill="#3f3f3f"/>
  </g>
</svg>
