<svg xmlns="http://www.w3.org/2000/svg" width="361.88" height="177.008" viewBox="0 0 361.88 177.008">
  <g id="訴求" transform="translate(-465.688 -748)">
    <rect id="bg" width="361.88" height="177.008" transform="translate(465.688 748)" fill="#173449"/>
    <g id="情報">
      <path id="パス_32349" data-name="パス 32349" d="M80.96,12.456q-.16-.352-.416-.352a.54.54,0,0,0-.448.32,37.449,37.449,0,0,1-6.016,6.96,41.251,41.251,0,0,1-7.744,5.744,1.047,1.047,0,0,1-.448.176.234.234,0,0,1-.256-.112v-.064q0-.224.416-.512a34.378,34.378,0,0,0,5.248-4.4,46.2,46.2,0,0,0,4.672-5.456,14.1,14.1,0,0,0,2.368-4.736.592.592,0,0,1,.576-.48.832.832,0,0,1,.256.032l2.4.768a.958.958,0,0,1,.384.208.412.412,0,0,1,.16.3q0,.192-.224.224a.719.719,0,0,0-.352.576.547.547,0,0,0,.1.256A25.169,25.169,0,0,0,86.864,17.4a40.4,40.4,0,0,0,7.184,4.528,1.735,1.735,0,0,1,.352.192.277.277,0,0,1,.128.224q0,.16-.544.416a2.106,2.106,0,0,0-1.024.9.686.686,0,0,1-.512.352.848.848,0,0,1-.416-.128,34,34,0,0,1-6.5-5.168A24.752,24.752,0,0,1,80.96,12.456Zm-3.328,9.568a20.808,20.808,0,0,0-3.264.352h-.16a.679.679,0,0,1-.672-.448l-.128-.256a.8.8,0,0,1-.1-.352.383.383,0,0,1,.16-.336.644.644,0,0,1,.448-.08q1.12.1,3.328.16H82.24a.92.92,0,0,0,.8-.416l.352-.512q.1-.128.288-.4a3.275,3.275,0,0,1,.336-.416.4.4,0,0,1,.272-.144q.256,0,1.088.72a9.048,9.048,0,0,1,1.248,1.264.551.551,0,0,1,.128.352.434.434,0,0,1-.128.32.831.831,0,0,1-.608.192Zm8.8,6.112a.426.426,0,0,0-.16-.352.646.646,0,0,0-.416-.128H75.008a34.469,34.469,0,0,0-4.224.352h-.192a.658.658,0,0,1-.64-.416l-.128-.224a.852.852,0,0,1-.1-.384.352.352,0,0,1,.16-.3.644.644,0,0,1,.448-.08q1.088.1,3.3.16H86.24a1,1,0,0,0,.832-.416l.192-.256q.1-.1.336-.384t.432-.288q.224,0,.944.608a8.72,8.72,0,0,1,1.136,1.12.434.434,0,0,1,.128.32.5.5,0,0,1-.352.448,2.044,2.044,0,0,1-.48.128,1,1,0,0,0-.768.544q-.9,2.112-2.272,5.1t-2.56,5.392q-.224.48-.512.512a.971.971,0,0,1-.288.032,3.261,3.261,0,0,1-.864-.16.567.567,0,0,1-.448-.544,1.467,1.467,0,0,1,.128-.448q2.56-5.152,4.544-10.048Zm36.608,5.856a2.468,2.468,0,0,1,.9,1.6,1.017,1.017,0,0,1-.224.64.7.7,0,0,1-.576.288,1.546,1.546,0,0,1-.864-.3,8.6,8.6,0,0,1-.9-.7q-.448-.4-.672-.592a8.676,8.676,0,0,0-1.312-.928l-.1-.064a1.007,1.007,0,0,0-.352-.128q-.384,0-.48.544-.64,3.072-4.544,3.072a6.265,6.265,0,0,1-3.3-.848,2.7,2.7,0,0,1-1.408-2.448,2.529,2.529,0,0,1,1.952-2.528,11.407,11.407,0,0,1,3.712-.672q.672,0,1.024.032h.1a.537.537,0,0,0,.608-.608q-.16-4.512-.192-7.1-.032-.672-.416-.672a2.7,2.7,0,0,0-.48.064,5.517,5.517,0,0,1-.7.032,4.953,4.953,0,0,1-2.384-.528,5.271,5.271,0,0,1-1.808-1.776.731.731,0,0,1-.16-.416q0-.224.192-.224a.66.66,0,0,1,.3.144,2.315,2.315,0,0,1,.272.208,4.963,4.963,0,0,0,1.008.608,3.528,3.528,0,0,0,1.456.256,11.9,11.9,0,0,0,2.048-.256.685.685,0,0,0,.608-.736q-.032-.864-.032-2.432V15.88a2.112,2.112,0,0,0-1.376-2.016q-.288-.16-.288-.288,0-.192.368-.352a3.373,3.373,0,0,1,1.232-.16,2.745,2.745,0,0,1,1.68.56,1.51,1.51,0,0,1,.752,1.136,5.065,5.065,0,0,1-.192.64,3.9,3.9,0,0,0-.32.864l-.032.128a.709.709,0,0,0-.032.224.766.766,0,0,0,.352.64,7.959,7.959,0,0,0,1.984,1.024q.288.064.784.16a2.04,2.04,0,0,1,.688.224.621.621,0,0,1,.256.384,1.308,1.308,0,0,1,.064.416q0,.7-1.248,1.344A23.121,23.121,0,0,1,118.3,21.96q-.576.192-.576.384a42.91,42.91,0,0,0,.256,4.8q.256,2.272.288,2.592.128.992.16,1.216a.907.907,0,0,0,.64.736A9.957,9.957,0,0,1,123.04,33.992ZM106.688,21.48q.1,0,.1.16a1.523,1.523,0,0,1-.1.416q-1.184,3.36-2.048,6.336a17.808,17.808,0,0,0-.864,4.192,15.51,15.51,0,0,0,.288,2.08,11.475,11.475,0,0,1,.256,1.632,1.233,1.233,0,0,1-.224.752.716.716,0,0,1-.608.3,1.238,1.238,0,0,1-.96-.384,7.22,7.22,0,0,1-.832-1.216,10.777,10.777,0,0,1-1.184-5.6,32.837,32.837,0,0,1,.336-4.288q.336-2.5.848-4.992.128-.576.16-.832.224-.992.384-1.936a9.9,9.9,0,0,0,.16-1.616,4.578,4.578,0,0,0-.112-1.184,5.954,5.954,0,0,0-.528-1.12.737.737,0,0,1-.1-.288.339.339,0,0,1,.08-.224.258.258,0,0,1,.208-.1,1.026,1.026,0,0,1,.544.288,8.85,8.85,0,0,1,1.392,1.744,3.689,3.689,0,0,1,.624,1.936,4.743,4.743,0,0,1-.208,1.344q-.208.7-.656,1.888l-.448,1.216a20,20,0,0,0-.864,3.344,19.269,19.269,0,0,0-.288,3.184q0,1.76.416,1.76.256,0,.624-.784t1.072-2.544q1.056-2.656,2.208-5.152Q106.5,21.48,106.688,21.48Zm12.1-3.36a.79.79,0,0,0-.448-.192q-.352,0-.416.544l-.064.832v.064a.646.646,0,0,0,.128.416.426.426,0,0,0,.352.16l.288-.064q1.12-.48,1.12-.8Q119.744,18.824,118.784,18.12Zm-5.216,17.824a3.74,3.74,0,0,0,1.952-.5,2.655,2.655,0,0,0,1.056-2.032v-.16a.643.643,0,0,0-.544-.64,9.042,9.042,0,0,0-2.368-.32,7.2,7.2,0,0,0-2.352.368,1.338,1.338,0,0,0-1.072,1.3,1.584,1.584,0,0,0,1.1,1.5A5.534,5.534,0,0,0,113.568,35.944Zm28.7,1.7a7.021,7.021,0,0,1-4.08-1.04,5.439,5.439,0,0,1-2.08-3.008,17.732,17.732,0,0,1-.592-5.008q0-3.04.416-7.136.256-2.688.256-3.552a9.915,9.915,0,0,0-.24-2.48,2.311,2.311,0,0,0-1.072-1.392q-.256-.16-.256-.352,0-.352.9-.352a2.56,2.56,0,0,1,2.288.928,4.477,4.477,0,0,1,.624,2.528q0,1.056-.448,4.8a61.889,61.889,0,0,0-.512,7.2,13.912,13.912,0,0,0,.5,4.208,3.643,3.643,0,0,0,1.68,2.144,6.944,6.944,0,0,0,3.328.656q3.84,0,10.176-4.64.064-.032.3-.192a.769.769,0,0,1,.368-.16q.1,0,.1.128,0,.224-.416.64a28.6,28.6,0,0,1-5.552,4.416A11.007,11.007,0,0,1,142.272,37.64Zm8.864-20.192a1.312,1.312,0,0,1-1.12-.576,4.991,4.991,0,0,0-.976-1.056,5.266,5.266,0,0,0-1.328-.7q-.288-.1-.5-.16a3.188,3.188,0,0,1-.352-.128q-.144-.064-.144-.16,0-.352,1.376-.352a5.917,5.917,0,0,1,2.624.608,1.87,1.87,0,0,1,1.248,1.7.746.746,0,0,1-.272.608A.874.874,0,0,1,151.136,17.448Zm-2.784,2.784a1.3,1.3,0,0,1-1.216-.672,6.665,6.665,0,0,0-1.056-1.36,4.439,4.439,0,0,0-1.44-.912q-.128-.064-.368-.16a1.766,1.766,0,0,1-.352-.176.222.222,0,0,1-.112-.176q0-.128.208-.208a1.283,1.283,0,0,1,.464-.08,9.049,9.049,0,0,1,2.1.272,4.991,4.991,0,0,1,1.936.9,1.927,1.927,0,0,1,.8,1.584.957.957,0,0,1-.96.992Zm30.048-2.3q0,.352.608.448a10.793,10.793,0,0,1,4.048,1.376,8.551,8.551,0,0,1,3.008,2.912,7.823,7.823,0,0,1,1.136,4.224q0,8.224-12.16,9.856l-.992.1q-.224,0-.224-.192,0-.128.256-.224a2.363,2.363,0,0,1,.464-.128,1.114,1.114,0,0,0,.272-.064,15.982,15.982,0,0,0,7.328-3.456,8.018,8.018,0,0,0,2.656-6.24,6.364,6.364,0,0,0-1.776-4.656,7.92,7.92,0,0,0-4.5-2.256h-.16a.634.634,0,0,0-.64.512,39.156,39.156,0,0,1-2.656,6.528.852.852,0,0,0-.1.384.575.575,0,0,0,.352.512,5.058,5.058,0,0,1,.96.608.949.949,0,0,1,.32.672.668.668,0,0,1-.24.528.919.919,0,0,1-.624.208,3.577,3.577,0,0,1-1.408-.352.8.8,0,0,0-.352-.1.719.719,0,0,0-.576.352,14.532,14.532,0,0,1-3.008,3.2,4.873,4.873,0,0,1-2.752,1.216,1.96,1.96,0,0,1-1.152-.416,3.056,3.056,0,0,1-.96-1.3,5.49,5.49,0,0,1-.384-2.192,10.441,10.441,0,0,1,2.912-7.456.8.8,0,0,0,.256-.576,1.764,1.764,0,0,0-.064-.352l-.288-.8q-.576-1.536-.928-2.32a3.291,3.291,0,0,0-.8-1.168,3.584,3.584,0,0,0-.448-.384q-.224-.16-.224-.256,0-.128.192-.128a3.409,3.409,0,0,1,1.312.384,3.064,3.064,0,0,1,1.216,1.184,14.883,14.883,0,0,1,1.088,2.3q.192.416.48.416a.856.856,0,0,0,.416-.16,14.728,14.728,0,0,1,5.5-2.208.792.792,0,0,0,.672-.672,15.857,15.857,0,0,0,.352-2.592,1.526,1.526,0,0,0-.16-.72,1.76,1.76,0,0,0-.576-.592q-.16-.1-.416-.24t-.256-.272q0-.128.24-.24a1.4,1.4,0,0,1,.592-.112,2.933,2.933,0,0,1,1.952.672,2.059,2.059,0,0,1,.8,1.632,4.392,4.392,0,0,1-.176,1.152q-.176.64-.24.832a2.926,2.926,0,0,0-.128.48Zm-5.472,8.1a.856.856,0,0,0,.416.16.577.577,0,0,0,.512-.384,35.229,35.229,0,0,0,1.952-5.376.709.709,0,0,0,.032-.224.444.444,0,0,0-.176-.384.707.707,0,0,0-.5-.1,10.522,10.522,0,0,0-4.576,2.208.643.643,0,0,0-.288.512,1.467,1.467,0,0,0,.128.448,7.953,7.953,0,0,0,1.76,2.5Zm-.48,2.3q-.032-.192-.416-.512a7.242,7.242,0,0,1-1.408-1.408,10.333,10.333,0,0,1-1.248-2.08q-.192-.384-.48-.384a.543.543,0,0,0-.448.288,11.33,11.33,0,0,0-1.3,2.592,8.192,8.192,0,0,0-.464,2.688,3.744,3.744,0,0,0,.368,1.7,1.1,1.1,0,0,0,.976.736,3.593,3.593,0,0,0,2-.928,11.889,11.889,0,0,0,2.384-2.624Zm33.408-11.744a3.776,3.776,0,0,1,.784.352.571.571,0,0,1,.24.512,1.366,1.366,0,0,1-.672.992,21.857,21.857,0,0,1-3.648,2.144.89.89,0,0,0-.576.7q-2.72,12.608-3.136,13.92a5.7,5.7,0,0,1-.672,1.488.912.912,0,0,1-.736.432,1.254,1.254,0,0,1-.9-.368,1.33,1.33,0,0,1-.384-1.008,2.213,2.213,0,0,1,.256-.992,54.01,54.01,0,0,0,3.936-12.512l.032-.192a.424.424,0,0,0-.192-.4.8.8,0,0,0-.544-.048,8.616,8.616,0,0,1-1.952.256,4.482,4.482,0,0,1-3.04-1.536.613.613,0,0,1-.224-.384.17.17,0,0,1,.192-.192,1.228,1.228,0,0,1,.48.16,4.551,4.551,0,0,0,1.792.352,6.766,6.766,0,0,0,1.952-.32,15.706,15.706,0,0,0,1.536-.512.89.89,0,0,0,.576-.7l.32-2.432a8,8,0,0,0,.064-.992,2.789,2.789,0,0,0-.272-1.424,4.2,4.2,0,0,0-1.168-1.04q-.256-.16-.256-.32,0-.192.416-.192a4.283,4.283,0,0,1,.912.128,4.988,4.988,0,0,1,.976.32,4.1,4.1,0,0,1,1.056.7,1.483,1.483,0,0,1,.352,1.088,1.213,1.213,0,0,0,.288.864,5.36,5.36,0,0,0,.992.7A10.1,10.1,0,0,0,205.856,16.584Zm-3.008.7a.709.709,0,0,0-.032.224.582.582,0,0,0,.112.368.335.335,0,0,0,.272.144.512.512,0,0,0,.32-.128q.64-.48.64-.736a1.04,1.04,0,0,0-.224-.576.643.643,0,0,0-.544-.352q-.32,0-.416.384Zm14.784,1.632a3.269,3.269,0,0,1,1.008,1.12,2.473,2.473,0,0,1,.368,1.12q0,.64-1.248.928a8.191,8.191,0,0,1-.9.16,8.3,8.3,0,0,0-1.152.256,8.168,8.168,0,0,0-1.056.448,5.4,5.4,0,0,0-.864.512.81.81,0,0,1-.384.128q-.16,0-.16-.128a.573.573,0,0,1,.16-.352q.16-.16.864-.7,1.76-1.28,1.76-1.856,0-.32-.448-.64a4.765,4.765,0,0,0-1.472-.736,4.974,4.974,0,0,0-1.376-.224,3.559,3.559,0,0,0-.64.048q-.256.048-.288.048-.448,0-.448-.256,0-.224.416-.384a7.012,7.012,0,0,1,2.4-.416,7.257,7.257,0,0,1,1.968.256A4.7,4.7,0,0,1,217.632,18.92Zm-1.088,15.808a2.4,2.4,0,0,1,1.216.224,1.02,1.02,0,0,1,.416.608,1.112,1.112,0,0,1-.88,1.472,9.164,9.164,0,0,1-2.576.288,11.454,11.454,0,0,1-5.568-1.2,4.106,4.106,0,0,1-2.176-3.888,5.244,5.244,0,0,1,.112-1.12,3.425,3.425,0,0,1,.208-.7,3.624,3.624,0,0,1,.288-.576q.16-.256.32-.256.128,0,.128.224l-.064.576a3.654,3.654,0,0,0-.032.512,4.485,4.485,0,0,0,.256,1.408,3.333,3.333,0,0,0,.96,1.408,4.348,4.348,0,0,0,1.68.9,8.379,8.379,0,0,0,2.544.352q.352,0,1.7-.128.448-.032.832-.064T216.544,34.728Zm20.1,1.248a4.185,4.185,0,0,1-1.664-.48,9.6,9.6,0,0,1-2.24-1.568q-3.1-2.816-3.1-8a27.173,27.173,0,0,1,.352-3.936,17.266,17.266,0,0,0,.192-1.92,3.448,3.448,0,0,0-.272-1.392,3.7,3.7,0,0,0-.944-1.232q-.192-.16-.192-.256t.128-.144a.725.725,0,0,1,.256-.048,3.377,3.377,0,0,1,1.456.4A4.417,4.417,0,0,1,232,18.456a2.016,2.016,0,0,1,.576,1.328,3.633,3.633,0,0,1-.144.944q-.144.528-.336,1.1-.416,1.344-.624,2.3a10.674,10.674,0,0,0-.208,2.24,7.23,7.23,0,0,0,.656,3.12,6.683,6.683,0,0,0,1.536,2.176,2.5,2.5,0,0,0,1.52.784q.384,0,.512-.672a24.94,24.94,0,0,1,.624-2.432,11.644,11.644,0,0,1,.528-1.44,2.05,2.05,0,0,1,.224-.4q.128-.176.224-.176t.1.192a3.839,3.839,0,0,1-.064.544,15.579,15.579,0,0,0-.32,2.976q0,.48.032.912t.064.688a4.217,4.217,0,0,0,.352,1.376,4.113,4.113,0,0,1,.256,1.056.923.923,0,0,1-.224.656A.833.833,0,0,1,236.64,35.976Zm13.28-8.512a1.188,1.188,0,0,1-.88-.256,2,2,0,0,1-.4-.7q-.032-.064-.56-2.064a4.042,4.042,0,0,0-2.064-2.768,4.317,4.317,0,0,0-1.984-.384h-.384q-.288,0-.288-.192,0-.128.32-.256a3.169,3.169,0,0,1,.624-.16,5.829,5.829,0,0,1,1.1-.1,5.4,5.4,0,0,1,3.872,1.568,6.108,6.108,0,0,1,1.568,2.16,5.01,5.01,0,0,1,.416,1.648A1.631,1.631,0,0,1,250.9,27,1.184,1.184,0,0,1,249.92,27.464ZM46.448,75.416a14.446,14.446,0,0,1-2.736-.3,17.007,17.007,0,0,1-2.736-.752,2.513,2.513,0,0,0-.8-.128,2.049,2.049,0,0,0-1.28.512.691.691,0,0,1-.448.192q-.288,0-.448-.48L36.72,69.08l-.032-.192q0-.16.32-.288l.192-.032a.39.39,0,0,1,.352.256q3.04,5.472,8.576,5.472a7.728,7.728,0,0,0,3.92-1.04,3.774,3.774,0,0,0,1.808-3.568,4.117,4.117,0,0,0-.64-2.192,4.668,4.668,0,0,0-1.856-1.68,14.53,14.53,0,0,0-1.92-.832q-.928-.32-2.272-.736a22.446,22.446,0,0,1-2.816-.96,7.88,7.88,0,0,1-3.376-2.56,5.592,5.592,0,0,1-.912-3.1A6.963,6.963,0,0,1,38.64,55,5.686,5.686,0,0,1,40.7,52.536,6.816,6.816,0,0,1,44.72,51.48a9.644,9.644,0,0,1,1.984.208,17.4,17.4,0,0,1,2.176.624,3.261,3.261,0,0,0,.864.16,1.738,1.738,0,0,0,1.12-.416.817.817,0,0,1,.48-.192q.32,0,.416.416L53.1,56.888l.032.224q0,.192-.256.288a1.016,1.016,0,0,1-.288.064.376.376,0,0,1-.32-.192A12.1,12.1,0,0,0,50.9,55.544,11.005,11.005,0,0,0,48.24,53.5a7.293,7.293,0,0,0-3.712-.96,4.391,4.391,0,0,0-3.008.912A4.216,4.216,0,0,0,40.208,55.3a5.4,5.4,0,0,0-.288,1.424q0,2.272,2.72,3.648a26.57,26.57,0,0,0,3.584,1.28q1.408.416,2.416.768a16.729,16.729,0,0,1,1.968.832,6.3,6.3,0,0,1,3.712,5.952,5.56,5.56,0,0,1-.944,3.168A6.366,6.366,0,0,1,50.64,74.6,10.032,10.032,0,0,1,46.448,75.416ZM79.664,74.1a.156.156,0,0,1,.16.144,1.4,1.4,0,0,1,.032.3q0,.448-.192.448H70.576a.175.175,0,0,1-.176-.112,1.2,1.2,0,0,1,0-.672.175.175,0,0,1,.176-.112,5.538,5.538,0,0,0,2.112-.368,1.329,1.329,0,0,0,.9-1.328,2.137,2.137,0,0,0-.128-.736L71.888,67.16a.748.748,0,0,0-.768-.544H63.44a.748.748,0,0,0-.768.544l-.544,1.5-.7,2.048a4.238,4.238,0,0,0-.288,1.408q0,1.984,3.04,1.984a.156.156,0,0,1,.16.144,1.4,1.4,0,0,1,.032.3q0,.448-.192.448H56.3a.175.175,0,0,1-.176-.112,1.2,1.2,0,0,1,0-.672A.175.175,0,0,1,56.3,74.1a3.292,3.292,0,0,0,1.888-.672,4.718,4.718,0,0,0,1.568-2.208l7.2-19.1a1.054,1.054,0,0,1,.672-.64l.544-.16a1.3,1.3,0,0,1,.448-.1.371.371,0,0,1,.256.064.38.38,0,0,1,.192.224L70.16,54.68q1.088,3.1,3.28,9.408t2.576,7.264A3.694,3.694,0,0,0,79.664,74.1ZM63.6,64.632a1.016,1.016,0,0,0-.064.288.426.426,0,0,0,.16.352.7.7,0,0,0,.448.128H70.48q.608,0,.608-.512l-.064-.256-3.2-9.216a1.793,1.793,0,0,0-.32-.672q-.192-.224-.256-.064Q65.456,59.384,63.6,64.632ZM92.464,51.768a9.794,9.794,0,0,1,3.76.784A7.008,7.008,0,0,1,99.04,54.68a5.106,5.106,0,0,1,1.072,3.232q0,3.456-2.352,4.784a14.167,14.167,0,0,1-6,1.584q-.416.032-1.824.032H88.784a.612.612,0,0,0-.672.672v7.1a1.781,1.781,0,0,0,.64,1.568,3.789,3.789,0,0,0,2.112.448h.512q.224,0,.224.416,0,.48-.224.48H82.288q-.224,0-.224-.448t.224-.448H82.8a3.825,3.825,0,0,0,2.064-.448,1.727,1.727,0,0,0,.688-1.568V54.68a1.75,1.75,0,0,0-.672-1.552,3.706,3.706,0,0,0-2.08-.464h-.512q-.224,0-.224-.448t.224-.448ZM90.608,63.384q3.584-.032,5.056-1.536a5.559,5.559,0,0,0,1.472-4.064q0-3.264-2.128-4.192a10.607,10.607,0,0,0-4.272-.928q-2.624,0-2.624,2.016v8.032a.612.612,0,0,0,.672.672Zm22.816-11.616a9.794,9.794,0,0,1,3.76.784A7.008,7.008,0,0,1,120,54.68a5.106,5.106,0,0,1,1.072,3.232q0,3.456-2.352,4.784a14.167,14.167,0,0,1-6,1.584q-.416.032-1.824.032h-1.152a.612.612,0,0,0-.672.672v7.1a1.781,1.781,0,0,0,.64,1.568,3.789,3.789,0,0,0,2.112.448h.512q.224,0,.224.416,0,.48-.224.48h-9.088q-.224,0-.224-.448t.224-.448h.512a3.825,3.825,0,0,0,2.064-.448,1.727,1.727,0,0,0,.688-1.568V54.68a1.75,1.75,0,0,0-.672-1.552,3.706,3.706,0,0,0-2.08-.464h-.512q-.224,0-.224-.448t.224-.448Zm-1.856,11.616q3.584-.032,5.056-1.536a5.559,5.559,0,0,0,1.472-4.064q0-3.264-2.128-4.192a10.607,10.607,0,0,0-4.272-.928q-2.624,0-2.624,2.016v8.032a.612.612,0,0,0,.672.672Zm22.976,12.064a9.737,9.737,0,0,1-4.912-1.392,10.872,10.872,0,0,1-3.984-4.112,12.793,12.793,0,0,1-1.568-6.5,12.726,12.726,0,0,1,1.568-6.464,10.872,10.872,0,0,1,3.984-4.112,9.334,9.334,0,0,1,9.808,0,10.914,10.914,0,0,1,3.968,4.112,12.726,12.726,0,0,1,1.568,6.464,12.793,12.793,0,0,1-1.568,6.5,10.914,10.914,0,0,1-3.968,4.112A9.652,9.652,0,0,1,134.544,75.448Zm0-1.056a6.113,6.113,0,0,0,3.632-1.232,8.66,8.66,0,0,0,2.784-3.712,15.087,15.087,0,0,0,1.072-6A14.878,14.878,0,0,0,140.96,57.5a8.67,8.67,0,0,0-2.784-3.7,6.113,6.113,0,0,0-3.632-1.232A6.182,6.182,0,0,0,130.9,53.8a8.5,8.5,0,0,0-2.784,3.7,15.077,15.077,0,0,0-1.056,5.952,15.289,15.289,0,0,0,1.056,6A8.5,8.5,0,0,0,130.9,73.16,6.182,6.182,0,0,0,134.544,74.392Zm35.808-.288q.224,0,.224.416,0,.48-.224.48H165.36a.857.857,0,0,1-.8-.448q-1.184-2.112-3.04-5.264t-3.1-5.04a.772.772,0,0,0-.736-.416l-.9.032h-1.408a.612.612,0,0,0-.672.672v7.552a1.727,1.727,0,0,0,.688,1.568,3.825,3.825,0,0,0,2.064.448h.512q.224,0,.224.416,0,.48-.224.48H148.88q-.224,0-.224-.448t.224-.448h.512a3.8,3.8,0,0,0,2.1-.448,1.762,1.762,0,0,0,.656-1.568V54.68a1.712,1.712,0,0,0-.7-1.568,3.913,3.913,0,0,0-2.08-.448h-.512q-.224,0-.224-.448v-.16a.273.273,0,0,1,.176-.24,1.456,1.456,0,0,1,.432-.048l6.976-.032h2.912a10.268,10.268,0,0,1,3.792.752,6.7,6.7,0,0,1,2.8,2.08,5,5,0,0,1,1.056,3.152,4.407,4.407,0,0,1-1.424,3.312,9.473,9.473,0,0,1-3.728,2.1q-.448.16-.448.48a.7.7,0,0,0,.16.384q1.216,1.792,3.072,4.832l2.272,3.584a4.08,4.08,0,0,0,1.392,1.232A4.782,4.782,0,0,0,170.352,74.1ZM154.7,62.3a.612.612,0,0,0,.672.672h.288q4.576,0,6.368-1.536a4.884,4.884,0,0,0,1.792-3.872,4.014,4.014,0,0,0-1.872-3.744,8.731,8.731,0,0,0-4.56-1.12,4.391,4.391,0,0,0-1.952.368,1.628,1.628,0,0,0-.736,1.616Zm28.768,13.152a9.737,9.737,0,0,1-4.912-1.392,10.872,10.872,0,0,1-3.984-4.112,12.793,12.793,0,0,1-1.568-6.5,12.726,12.726,0,0,1,1.568-6.464,10.872,10.872,0,0,1,3.984-4.112,9.334,9.334,0,0,1,9.808,0,10.914,10.914,0,0,1,3.968,4.112,12.726,12.726,0,0,1,1.568,6.464,12.793,12.793,0,0,1-1.568,6.5,10.914,10.914,0,0,1-3.968,4.112A9.652,9.652,0,0,1,183.472,75.448Zm0-1.056A6.113,6.113,0,0,0,187.1,73.16a8.66,8.66,0,0,0,2.784-3.712,15.087,15.087,0,0,0,1.072-6,14.878,14.878,0,0,0-1.072-5.952,8.67,8.67,0,0,0-2.784-3.7,6.113,6.113,0,0,0-3.632-1.232,6.182,6.182,0,0,0-3.648,1.232,8.5,8.5,0,0,0-2.784,3.7,15.077,15.077,0,0,0-1.056,5.952,15.289,15.289,0,0,0,1.056,6,8.5,8.5,0,0,0,2.784,3.712A6.183,6.183,0,0,0,183.472,74.392Zm40.064.064a.748.748,0,0,1-.768.544h-16.7a.175.175,0,0,1-.176-.112.9.9,0,0,1-.048-.336q0-.48.224-.48h.512a3.9,3.9,0,0,0,2.112-.432,1.737,1.737,0,0,0,.64-1.552V54.68a1.744,1.744,0,0,0-.672-1.568,3.813,3.813,0,0,0-2.08-.448h-.512q-.224,0-.224-.448t.224-.448h9.088a.2.2,0,0,1,.208.112.9.9,0,0,1,.048.336q0,.448-.256.448h-.48a3.778,3.778,0,0,0-2.112.464,1.75,1.75,0,0,0-.672,1.552V72.088a1.6,1.6,0,0,0,.656,1.488,4.659,4.659,0,0,0,2.128.464l.736.032,1.28-.032a8.148,8.148,0,0,0,4.576-1.3,13.486,13.486,0,0,0,3.232-3.312.289.289,0,0,1,.256-.16.737.737,0,0,1,.288.1q.256.128.256.32l-.032.16-.96,2.56Zm5.312.544q-.224,0-.224-.448t.224-.448h.512a3.694,3.694,0,0,0,2.1-.464,1.732,1.732,0,0,0,.656-1.52V54.68a1.744,1.744,0,0,0-.672-1.568,3.813,3.813,0,0,0-2.08-.448h-.512q-.224,0-.224-.448t.224-.448H237.9a.2.2,0,0,1,.208.112.9.9,0,0,1,.048.336q0,.448-.256.448h-.48a3.779,3.779,0,0,0-2.128.448,1.8,1.8,0,0,0-.624,1.568V72.12a1.737,1.737,0,0,0,.64,1.552,3.9,3.9,0,0,0,2.112.432h.48a.2.2,0,0,1,.208.112.9.9,0,0,1,.048.336q0,.448-.256.448Zm31.808-19.616a.356.356,0,0,1,.032.16.275.275,0,0,1-.064.176.565.565,0,0,1-.192.144.455.455,0,0,1-.256.064.434.434,0,0,1-.32-.128,10.617,10.617,0,0,0-3.408-2.256,11.075,11.075,0,0,0-4.368-.848h-.8a13.714,13.714,0,0,0-2.016.112,1.972,1.972,0,0,0-1.12.528,1.844,1.844,0,0,0-.416,1.344v7.072a.612.612,0,0,0,.672.672h2.208q1.952,0,2.56-.032a2.723,2.723,0,0,0,2.1-.9,3.2,3.2,0,0,0,.752-2.176q0-.224.416-.224a.9.9,0,0,1,.336.048.175.175,0,0,1,.112.176v7.328q0,.256-.448.256-.416,0-.416-.256a3.2,3.2,0,0,0-.752-2.176,2.723,2.723,0,0,0-2.1-.9q-.608-.032-2.56-.032H248.4a.612.612,0,0,0-.672.672v7.872a1.768,1.768,0,0,0,.656,1.552,3.694,3.694,0,0,0,2.1.464h.512q.224,0,.224.416,0,.48-.224.48H241.9q-.224,0-.224-.448t.224-.448h.512a3.694,3.694,0,0,0,2.1-.464,1.768,1.768,0,0,0,.656-1.552V54.68a1.727,1.727,0,0,0-.688-1.568,3.825,3.825,0,0,0-2.064-.448H241.9q-.224,0-.224-.448t.224-.448h16.224q.576,0,1.024.9A27.654,27.654,0,0,1,260.656,55.384ZM283.28,69.336a.376.376,0,0,1,.288.384,2.249,2.249,0,0,1-.16.512q-1.056,2.656-1.6,4.224a.748.748,0,0,1-.768.544H263.856q-.224,0-.224-.448t.224-.448h.512a3.694,3.694,0,0,0,2.1-.464,1.768,1.768,0,0,0,.656-1.552V54.68a1.727,1.727,0,0,0-.688-1.568,3.825,3.825,0,0,0-2.064-.448h-.512q-.224,0-.224-.448t.224-.448H280.08a.808.808,0,0,1,.8.48q.544.928,1.024,1.824l.7,1.312a.356.356,0,0,1,.032.16q0,.16-.256.32a.455.455,0,0,1-.256.064.434.434,0,0,1-.32-.128,10.574,10.574,0,0,0-3.424-2.256,11.109,11.109,0,0,0-4.352-.848h-.8a13.714,13.714,0,0,0-2.016.112,1.972,1.972,0,0,0-1.12.528,1.844,1.844,0,0,0-.416,1.344v7.072a.612.612,0,0,0,.672.672h2.208q1.952,0,2.56-.032a2.723,2.723,0,0,0,2.1-.9,3.2,3.2,0,0,0,.752-2.176q0-.224.416-.224a.9.9,0,0,1,.336.048.175.175,0,0,1,.112.176v7.328q0,.256-.448.256-.416,0-.416-.256a3.2,3.2,0,0,0-.752-2.176,2.723,2.723,0,0,0-2.1-.9q-.608-.032-2.56-.032h-2.208a.612.612,0,0,0-.672.672v7.872a1.625,1.625,0,0,0,.672,1.5,4.447,4.447,0,0,0,2.08.48q.416.032,1.44.032.768,0,1.12-.032a9.655,9.655,0,0,0,3.392-.832,8.714,8.714,0,0,0,2.32-1.552,23.843,23.843,0,0,0,2.032-2.288.3.3,0,0,1,.256-.128A1.016,1.016,0,0,1,283.28,69.336Z" transform="translate(488 817.56)" fill="#fff" opacity="0.8"/>
      <path id="パス_32348" data-name="パス 32348" d="M55.84,6.728q-.08-.176-.208-.176a.27.27,0,0,0-.224.16,18.724,18.724,0,0,1-3.008,3.48,20.625,20.625,0,0,1-3.872,2.872.524.524,0,0,1-.224.088.117.117,0,0,1-.128-.056v-.032q0-.112.208-.256a17.189,17.189,0,0,0,2.624-2.2A23.1,23.1,0,0,0,53.344,7.88a7.048,7.048,0,0,0,1.184-2.368.3.3,0,0,1,.288-.24.416.416,0,0,1,.128.016l1.2.384a.479.479,0,0,1,.192.1.206.206,0,0,1,.08.152q0,.1-.112.112a.359.359,0,0,0-.176.288.274.274,0,0,0,.048.128A12.584,12.584,0,0,0,58.792,9.2a20.2,20.2,0,0,0,3.592,2.264.868.868,0,0,1,.176.1.138.138,0,0,1,.064.112q0,.08-.272.208a1.053,1.053,0,0,0-.512.448.343.343,0,0,1-.256.176.424.424,0,0,1-.208-.064,17,17,0,0,1-3.248-2.584A12.376,12.376,0,0,1,55.84,6.728Zm-1.664,4.784a10.4,10.4,0,0,0-1.632.176h-.08a.34.34,0,0,1-.336-.224l-.064-.128a.4.4,0,0,1-.048-.176.192.192,0,0,1,.08-.168.322.322,0,0,1,.224-.04q.56.048,1.664.08h2.5a.46.46,0,0,0,.4-.208l.176-.256q.048-.064.144-.2a1.637,1.637,0,0,1,.168-.208.2.2,0,0,1,.136-.072q.128,0,.544.36a4.524,4.524,0,0,1,.624.632.275.275,0,0,1,.064.176.217.217,0,0,1-.064.16.416.416,0,0,1-.3.1Zm4.4,3.056a.213.213,0,0,0-.08-.176.323.323,0,0,0-.208-.064H52.864a17.235,17.235,0,0,0-2.112.176h-.1a.329.329,0,0,1-.32-.208l-.064-.112a.426.426,0,0,1-.048-.192.176.176,0,0,1,.08-.152.322.322,0,0,1,.224-.04q.544.048,1.648.08h6.3a.5.5,0,0,0,.416-.208l.1-.128q.048-.048.168-.192t.216-.144q.112,0,.472.3a4.36,4.36,0,0,1,.568.56.217.217,0,0,1,.064.16.248.248,0,0,1-.176.224,1.022,1.022,0,0,1-.24.064.5.5,0,0,0-.384.272q-.448,1.056-1.136,2.552t-1.28,2.7q-.112.24-.256.256a.485.485,0,0,1-.144.016,1.631,1.631,0,0,1-.432-.08.284.284,0,0,1-.224-.272.734.734,0,0,1,.064-.224q1.28-2.576,2.272-5.024Zm9.552,4.976a9.153,9.153,0,0,0-2.112-2.688l-.168-.128q-.1-.08-.1-.128,0-.08.112-.08a1.441,1.441,0,0,1,.288.064,6.905,6.905,0,0,1,1.312.544,6.714,6.714,0,0,1,1.448.984,1.585,1.585,0,0,1,.632,1.144.852.852,0,0,1-.216.64.686.686,0,0,1-.488.208Q68.432,20.1,68.128,19.544Zm18.08-6.208q0-.288-.16-.288-.112,0-.224.208a13.2,13.2,0,0,1-2.352,3.408.792.792,0,0,1-.2.16.114.114,0,0,1-.136-.032.13.13,0,0,1-.032-.1.5.5,0,0,1,.112-.256,15.23,15.23,0,0,0,1.584-2.9,21.28,21.28,0,0,0,1.088-3.4l.016-.1a.244.244,0,0,0-.088-.2.355.355,0,0,0-.232-.072H85.1a7.668,7.668,0,0,0-1.248.16h-.1a.329.329,0,0,1-.32-.208l-.064-.128a.426.426,0,0,1-.048-.192.176.176,0,0,1,.08-.152.322.322,0,0,1,.224-.04q.528.048,1.6.08h.64a.306.306,0,0,0,.336-.336V8.808a25.09,25.09,0,0,0-.144-2.848V5.9q0-.272.24-.272a.508.508,0,0,1,.144.032q1.152.384,1.152.576,0,.08-.128.16l-.048.032a.451.451,0,0,0-.224.4V8.952a.306.306,0,0,0,.336.336h.336a.46.46,0,0,0,.4-.208l.176-.24a2.3,2.3,0,0,0,.136-.192,1.148,1.148,0,0,1,.152-.192.221.221,0,0,1,.144-.08q.112,0,.52.344a3.5,3.5,0,0,1,.6.616.238.238,0,0,1,.064.176.245.245,0,0,1-.08.176.562.562,0,0,1-.3.08H87.536a.306.306,0,0,0-.336.336v.912a.391.391,0,0,0,.272.384,4.7,4.7,0,0,1,1.688,1.176,1.944,1.944,0,0,1,.536,1.192.711.711,0,0,1-.136.448.433.433,0,0,1-.36.176.459.459,0,0,1-.208-.048.5.5,0,0,1-.272-.336,7.056,7.056,0,0,0-1.1-1.92.309.309,0,0,0-.224-.128q-.192,0-.192.288v3.744q.032,1.728.112,3.536v.1a.415.415,0,0,1-.128.3,1.139,1.139,0,0,1-.352.208,1.113,1.113,0,0,1-.4.08.435.435,0,0,1-.28-.1.281.281,0,0,1-.12-.224q.064-.944.112-1.832t.064-2.328ZM91.024,9.1a26.073,26.073,0,0,0-.144-2.864V6.168a.267.267,0,0,1,.064-.184.223.223,0,0,1,.176-.072.508.508,0,0,1,.144.032q1.2.368,1.2.56,0,.08-.128.16l-.048.032a.451.451,0,0,0-.224.4V18.248a.534.534,0,0,0,.152.44,1.078,1.078,0,0,0,.616.12H94.3q1.216,0,1.456-.032a.38.38,0,0,0,.176-.064.5.5,0,0,0,.128-.176,17.589,17.589,0,0,0,.5-2.3q.048-.3.16-.3.1,0,.1.336l.048,2.112a.493.493,0,0,0,.256.4.383.383,0,0,1,.208.336.426.426,0,0,1-.256.392,2.566,2.566,0,0,1-.9.192q-.64.056-1.9.056h-1.6a2.174,2.174,0,0,1-1.3-.28,1.237,1.237,0,0,1-.352-1.016Zm13.36-.72a.451.451,0,0,0,.4-.224l.064-.112q.032-.048.1-.152a.861.861,0,0,1,.112-.152.154.154,0,0,1,.112-.048,1.154,1.154,0,0,1,.464.28,4.229,4.229,0,0,1,.56.52.217.217,0,0,1,.064.16.271.271,0,0,1-.144.224,1.241,1.241,0,0,1-.16.064.376.376,0,0,0-.288.384v6.144a2.175,2.175,0,0,1-.128.848.763.763,0,0,1-.544.4.275.275,0,0,1-.112.016q-.224,0-.272-.3a.987.987,0,0,0-.128-.336.671.671,0,0,0-.256-.208.942.942,0,0,1-.208-.1q-.08-.056-.08-.1,0-.08.24-.08l.432.016q.192,0,.192-.24V9.192a.306.306,0,0,0-.336-.336H104.1a.306.306,0,0,0-.336.336V16.04q.032,1.744.112,3.52v.064a.383.383,0,0,1-.16.336,1.174,1.174,0,0,1-.688.256.363.363,0,0,1-.32-.32q.064-.944.112-1.832t.064-2.328V9.192a.306.306,0,0,0-.336-.336h-.224a.306.306,0,0,0-.336.336v3.76q.032,1.744.112,3.52v.08a.344.344,0,0,1-.16.32,1.059,1.059,0,0,1-.672.24.363.363,0,0,1-.32-.32q.064-.832.1-1.64t.056-2.04V11.1a24.6,24.6,0,0,0-.144-2.8V8.232a.291.291,0,0,1,.056-.184.167.167,0,0,1,.136-.072.4.4,0,0,1,.176.048l.528.256a.856.856,0,0,0,.416.1h.256a.3.3,0,0,0,.336-.336q-.032-1.232-.112-2.016V5.96a.267.267,0,0,1,.064-.184.223.223,0,0,1,.176-.072.508.508,0,0,1,.144.032q1.072.336,1.072.544,0,.08-.128.16l-.048.032a.451.451,0,0,0-.224.4V8.04a.306.306,0,0,0,.336.336Zm7.888-2.048a.451.451,0,0,0,.4-.224l.08-.112q.048-.064.112-.16a.974.974,0,0,1,.112-.144.154.154,0,0,1,.112-.048,1.026,1.026,0,0,1,.432.248,2.851,2.851,0,0,1,.5.472.217.217,0,0,1,.064.16.246.246,0,0,1-.16.224l-.08.032a.393.393,0,0,0-.288.384V8.28q.048,1.664.08,2.528v.08a.344.344,0,0,1-.16.32,1.292,1.292,0,0,1-.72.208q-.176,0-.176-.288,0-.272-.336-.272h-4.224a.306.306,0,0,0-.336.336v.064q0,.1-.232.208a1.258,1.258,0,0,1-.552.112.221.221,0,0,1-.184-.1.363.363,0,0,1-.072-.224q.064-.624.1-1.6V8.7a23.536,23.536,0,0,0-.128-2.5V6.136q0-.24.208-.24a.356.356,0,0,1,.16.032l.7.3a.985.985,0,0,0,.416.1Zm-.032,1.984a.306.306,0,0,0,.336-.336V7.128a.306.306,0,0,0-.336-.336h-4.224a.306.306,0,0,0-.336.336v.848a.306.306,0,0,0,.336.336Zm-4.224.464a.306.306,0,0,0-.336.336v.928a.306.306,0,0,0,.336.336h4.224a.306.306,0,0,0,.336-.336V9.112a.306.306,0,0,0-.336-.336Zm4.624,5.888a.46.46,0,0,0,.4-.208l.16-.224q.048-.064.136-.192a1.412,1.412,0,0,1,.152-.192.184.184,0,0,1,.128-.064q.128,0,.52.336a3.309,3.309,0,0,1,.568.592.238.238,0,0,1,.064.176.245.245,0,0,1-.08.176.484.484,0,0,1-.288.08h-2.48a.306.306,0,0,0-.336.336v3.344a.216.216,0,0,0,.072.192.7.7,0,0,0,.328.048h1.632a.357.357,0,0,0,.128-.048.331.331,0,0,0,.1-.144,13.39,13.39,0,0,0,.336-1.632q.064-.3.176-.3.048,0,.08.088a.755.755,0,0,1,.032.248l.032,1.376a.4.4,0,0,0,.048.208,1.206,1.206,0,0,0,.176.208.416.416,0,0,1,.1.3q0,.32-.424.472a5.575,5.575,0,0,1-1.608.152h-1.056a1.335,1.335,0,0,1-.888-.208,1,1,0,0,1-.216-.736V15.48a.306.306,0,0,0-.336-.336h-.736a.317.317,0,0,0-.352.32,5.867,5.867,0,0,1-1.184,2.968,5.98,5.98,0,0,1-2.784,1.72.767.767,0,0,1-.224.048.125.125,0,0,1-.128-.08v-.048q0-.1.24-.224a5.459,5.459,0,0,0,2.152-1.744,5.863,5.863,0,0,0,.872-2.608v-.048q0-.3-.32-.3h-.4a5.364,5.364,0,0,0-.976.144.416.416,0,0,1-.128.016.318.318,0,0,1-.3-.208l-.064-.128a.4.4,0,0,1-.048-.176.191.191,0,0,1,.08-.168.322.322,0,0,1,.224-.04q.576.048,1.664.08h1.3q.336,0,.336-.24a25.09,25.09,0,0,0-.144-2.848v-.064q0-.256.224-.256a.962.962,0,0,1,.16.032q1.072.336,1.072.512,0,.064-.128.144l-.016.016a.477.477,0,0,0-.224.4v1.968a.306.306,0,0,0,.336.336Zm-.384-2.8q.08-.224.24-.224a.426.426,0,0,1,.192.048l.32.176a2.322,2.322,0,0,0,.384.16q.4.176.4.288,0,.08-.176.128l-.064.016a.767.767,0,0,0-.368.24,11.577,11.577,0,0,1-1.472,1.424q-.224.176-.352.08a.138.138,0,0,1-.048-.1.675.675,0,0,1,.112-.272A9.761,9.761,0,0,0,112.256,11.864Zm-5.52.3a1.187,1.187,0,0,1-.128-.232q-.032-.088,0-.12a.093.093,0,0,1,.064-.016,1.029,1.029,0,0,1,.272.08,3.6,3.6,0,0,1,1.24.9,1.5,1.5,0,0,1,.392.92.685.685,0,0,1-.136.432.418.418,0,0,1-.344.176.652.652,0,0,1-.224-.048.461.461,0,0,1-.24-.336,4.554,4.554,0,0,0-.36-.9A6.115,6.115,0,0,0,106.736,12.168ZM128.08,7.384a1.878,1.878,0,0,1,1.016.3.845.845,0,0,1,.472.712.326.326,0,0,1-.1.264.4.4,0,0,1-.264.088,4.818,4.818,0,0,1-.9-.112l-.432-.064a3.692,3.692,0,0,0-.528-.048,3.481,3.481,0,0,0-.92.12,3.759,3.759,0,0,0-.632.216,3.054,3.054,0,0,0-1.176,1.408,10.2,10.2,0,0,0-.8,2.336,10.664,10.664,0,0,0-.28,2.24,3.541,3.541,0,0,0,.552,2.264,2.075,2.075,0,0,0,1.672.648l.448-.032a6.011,6.011,0,0,1,.736-.064q1.152,0,1.152.56,0,.416-.648.552a6.332,6.332,0,0,1-1.3.136,4.242,4.242,0,0,1-2.088-.432,2.39,2.39,0,0,1-1.08-1.312,6.877,6.877,0,0,1-.32-2.3,8.5,8.5,0,0,1,.56-3.064,8.84,8.84,0,0,1,1.456-2.536q.5-.528.432-.5l-.064.016a8.668,8.668,0,0,0-1.272.424q-.824.328-2.1.872l-.688.288q-.128.064-.56.288-.3.16-.48.24a.88.88,0,0,1-.368.08,1.4,1.4,0,0,1-.856-.368,3.271,3.271,0,0,1-.7-.736.352.352,0,0,1-.08-.192.164.164,0,0,1,.16-.16.424.424,0,0,1,.208.064q.032.016.272.152a1.185,1.185,0,0,0,.592.136,1.92,1.92,0,0,0,.272-.032l.976-.32q1.792-.608,3.288-1.048a17.764,17.764,0,0,1,2.76-.6,1.98,1.98,0,0,0,.464-.12q.224-.088.288-.12A1.967,1.967,0,0,1,128.08,7.384Zm4.32-.176a.525.525,0,0,1-.3-.1.743.743,0,0,1-.248-.312,2.8,2.8,0,0,0-.408-.664,2.662,2.662,0,0,0-.6-.488q-.1-.064-.2-.12a1.264,1.264,0,0,1-.176-.112.155.155,0,0,1-.072-.12q0-.1.192-.1a3,3,0,0,1,.9.184,3.078,3.078,0,0,1,.976.528,1.017,1.017,0,0,1,.424.808.446.446,0,0,1-.152.384A.565.565,0,0,1,132.4,7.208Zm-1.76,1.04a.663.663,0,0,1-.336-.1.6.6,0,0,1-.256-.344,3.135,3.135,0,0,0-.392-.792,2.112,2.112,0,0,0-.616-.568q-.048-.032-.152-.1a.86.86,0,0,1-.152-.112.138.138,0,0,1-.048-.1q0-.112.16-.112a3.292,3.292,0,0,1,.76.192,3.674,3.674,0,0,1,1.072.56,1.105,1.105,0,0,1,.488.912.521.521,0,0,1-.528.56Zm15.568,1.616a2.126,2.126,0,0,1,.664.336,7.706,7.706,0,0,1,.984.728q.448.392.448.648a.272.272,0,0,1-.176.288,1.608,1.608,0,0,1-.448.08,1.832,1.832,0,0,0-.512.08,2.325,2.325,0,0,0-.528.336q-1.056.848-1.656,1.312a10.954,10.954,0,0,1-1.176.8.27.27,0,0,0-.16.224.342.342,0,0,0,.144.224,2.071,2.071,0,0,1,.992,1.536.838.838,0,0,1-.184.536.561.561,0,0,1-.456.232q-.544,0-.912-.8a6.474,6.474,0,0,0-1.032-1.5,5.053,5.053,0,0,0-1.608-1.272q-.224-.112-.224-.192,0-.064.128-.064a4.009,4.009,0,0,1,.976.288,10.285,10.285,0,0,1,1.472.688.424.424,0,0,0,.208.064.352.352,0,0,0,.256-.112q2.4-2.208,2.4-3.264,0-.224-.256-.224-.224,0-2.7.328t-3.52.552a7.686,7.686,0,0,0-1.328.4,1.226,1.226,0,0,1-.384.1,1.309,1.309,0,0,1-.848-.352,1.964,1.964,0,0,1-.56-.688.54.54,0,0,1-.064-.24q0-.112.064-.112a.521.521,0,0,1,.144.048q.112.048.208.08a2.724,2.724,0,0,0,.864.128q.144,0,.528-.032a4.486,4.486,0,0,1,.48-.032q.848-.048,3.792-.392a29.324,29.324,0,0,0,3.488-.52.955.955,0,0,0,.272-.144A.4.4,0,0,1,146.208,9.864Zm12.064.864q-.448,0-.864-.64a3.071,3.071,0,0,0-.96-.928,4.967,4.967,0,0,0-1.264-.56,1.66,1.66,0,0,1-.208-.064q-.08-.032-.08-.08,0-.144.736-.144a6.224,6.224,0,0,1,1.4.168,3.108,3.108,0,0,1,1.208.536,1.354,1.354,0,0,1,.608,1.056.717.717,0,0,1-.152.472A.52.52,0,0,1,158.272,10.728Zm-3.056,6.048a2.042,2.042,0,0,1-.064-.5.91.91,0,0,1,.056-.344q.056-.136.1-.136t.144.176a1.478,1.478,0,0,0,.256.336,1.866,1.866,0,0,0,.3.248.723.723,0,0,0,.392.088,5.289,5.289,0,0,0,2.1-.928A30.825,30.825,0,0,0,162.04,13.1,45.113,45.113,0,0,0,166.1,9.24q.144-.176.256-.176a.057.057,0,0,1,.064.064.791.791,0,0,1-.16.336,28.236,28.236,0,0,1-2.592,3.088q-1.5,1.568-2.9,2.792t-2.216,1.8a2.229,2.229,0,0,1-.32.208q-.144.1-.288.208a2.691,2.691,0,0,0-.32.3,1,1,0,0,1-.768.384,1.508,1.508,0,0,1-1.016-.44A1.914,1.914,0,0,1,155.216,16.776Zm21.232-6.4a.812.812,0,0,1-.336-.08.621.621,0,0,1-.256-.192,6.164,6.164,0,0,0-.712-.744,5.518,5.518,0,0,0-.728-.5,3.712,3.712,0,0,0-.44-.216,2.479,2.479,0,0,1-.3-.136.385.385,0,0,1-.1-.04.119.119,0,0,1-.08-.1q0-.144.544-.144a5.26,5.26,0,0,1,1.32.176,3.113,3.113,0,0,1,1.136.528,1.03,1.03,0,0,1,.456.832.72.72,0,0,1-.136.44A.442.442,0,0,1,176.448,10.376Zm-2.5,8.384a.484.484,0,0,1-.368-.224,4.308,4.308,0,0,1-.6-1.12,3.351,3.351,0,0,1-.28-1.04q0-.272.16-.272.064,0,.176.144l.224.288a1.129,1.129,0,0,0,.88.352,2.009,2.009,0,0,0,.88-.208,23.005,23.005,0,0,0,4.5-2.808A22.045,22.045,0,0,0,183.5,9.944q.144-.208.272-.208a.085.085,0,0,1,.1.1.6.6,0,0,1-.112.3,20.987,20.987,0,0,1-2.752,3.3,29.133,29.133,0,0,1-3.192,2.744,24.838,24.838,0,0,1-2.84,1.84,2.829,2.829,0,0,0-.512.4,2.489,2.489,0,0,1-.288.256A.384.384,0,0,1,173.952,18.76Zm.816-5.088a.634.634,0,0,1-.3-.08,1.019,1.019,0,0,1-.248-.176,5.273,5.273,0,0,0-.624-.576q-.24-.176-.608-.4a4.057,4.057,0,0,0-.68-.328q-.3-.1-.376-.136-.128-.048-.128-.112,0-.1.344-.136a5.751,5.751,0,0,1,.664-.04,3.553,3.553,0,0,1,1.7.392,1.185,1.185,0,0,1,.736,1.064.572.572,0,0,1-.128.368A.426.426,0,0,1,174.768,13.672Zm22.56-1.632a.824.824,0,0,1,.4.208,3.1,3.1,0,0,1,.488.464.759.759,0,0,1,.216.368.354.354,0,0,1-.072.2,1.533,1.533,0,0,0-.088.136,1.631,1.631,0,0,0-.224.416q-.048.208-.12,1.424t-.088,1.7v.7a4.374,4.374,0,0,1-.016.48.789.789,0,0,1-.24.528.688.688,0,0,1-.416.128.293.293,0,0,1-.28-.2,1.081,1.081,0,0,1-.088-.44q0-.176-.208-.176l-.208.016q-2.592.16-3.168.24l-.384.064a1.861,1.861,0,0,1-.48.08.56.56,0,0,1-.376-.2,2.55,2.55,0,0,1-.344-.424.7.7,0,0,1-.128-.3q0-.112.1-.112a.891.891,0,0,1,.192.064,2.063,2.063,0,0,0,.72.192q.448-.016,1.632-.064t2.352-.112a.317.317,0,0,0,.32-.352l.032-.432.048-.688V15.88q0-.288-.176-.288l-.192.016q-2.464.1-2.928.1a4.263,4.263,0,0,0-.7.08,1.41,1.41,0,0,1-.336.048.9.9,0,0,1-.584-.256,1.149,1.149,0,0,1-.376-.528.355.355,0,0,1-.016-.112q0-.128.1-.128a.5.5,0,0,1,.176.064,2.667,2.667,0,0,0,.256.112,2.183,2.183,0,0,0,.464.08q.48-.016,1.7-.064t2.4-.112a.328.328,0,0,0,.336-.336l.112-1.392a.156.156,0,0,0-.032-.112.218.218,0,0,0-.144-.032q-.528.016-1.856.072t-1.76.1a4,4,0,0,0-.528.08,4.03,4.03,0,0,1-.5.064.722.722,0,0,1-.472-.2,2,2,0,0,1-.392-.456.675.675,0,0,1-.112-.272.161.161,0,0,1,.032-.1.1.1,0,0,1,.08-.04.338.338,0,0,1,.16.056q.1.056.144.088a2.465,2.465,0,0,0,1.056.16q.9,0,2.264-.056a6.685,6.685,0,0,0,1.608-.168,3.4,3.4,0,0,0,.36-.192A.624.624,0,0,1,197.328,12.04Zm13.264-1.312q-.448,0-.864-.64a3.071,3.071,0,0,0-.96-.928A4.967,4.967,0,0,0,207.5,8.6a1.66,1.66,0,0,1-.208-.064q-.08-.032-.08-.08,0-.144.736-.144a6.224,6.224,0,0,1,1.4.168,3.108,3.108,0,0,1,1.208.536,1.354,1.354,0,0,1,.608,1.056.717.717,0,0,1-.152.472A.52.52,0,0,1,210.592,10.728Zm-3.056,6.048a2.042,2.042,0,0,1-.064-.5.91.91,0,0,1,.056-.344q.056-.136.1-.136t.144.176a1.478,1.478,0,0,0,.256.336,1.866,1.866,0,0,0,.3.248.723.723,0,0,0,.392.088,5.289,5.289,0,0,0,2.1-.928A30.825,30.825,0,0,0,214.36,13.1a45.113,45.113,0,0,0,4.056-3.864q.144-.176.256-.176a.057.057,0,0,1,.064.064.791.791,0,0,1-.16.336,28.236,28.236,0,0,1-2.592,3.088q-1.5,1.568-2.9,2.792t-2.216,1.8a2.229,2.229,0,0,1-.32.208q-.144.1-.288.208a2.691,2.691,0,0,0-.32.3,1,1,0,0,1-.768.384,1.508,1.508,0,0,1-1.016-.44A1.914,1.914,0,0,1,207.536,16.776Zm26.4-6.9a1.431,1.431,0,0,1,.936.336,1.1,1.1,0,0,1,.408.9,1.523,1.523,0,0,1-.624,1.224,7.391,7.391,0,0,1-1.7.968l-1.216.48q-.3.128-.632.256t-.68.272a.444.444,0,0,0-.272.384q-.016.256-.016.784,0,1.136-.016,1.28a.588.588,0,0,1-.2.408.574.574,0,0,1-.392.168.425.425,0,0,1-.336-.176.615.615,0,0,1-.144-.4,5.5,5.5,0,0,1,.048-.576l.064-.768v-.032q0-.288-.208-.288a.3.3,0,0,0-.192.064,4.255,4.255,0,0,0-1.136.952,1.748,1.748,0,0,0-.4,1.112q0,1.216,2.432,1.216a4.57,4.57,0,0,0,.752-.064q.384-.064.72-.144a4.865,4.865,0,0,1,.992-.144q.624,0,.624.432,0,.48-.9.672a8.913,8.913,0,0,1-1.872.192,4.205,4.205,0,0,1-2.672-.6,1.89,1.89,0,0,1-.672-1.464,2.126,2.126,0,0,1,.616-1.512,6.987,6.987,0,0,1,1.736-1.256.456.456,0,0,0,.256-.384v-.24q0-1.68-.992-1.68a1.736,1.736,0,0,0-1.208.688,16.823,16.823,0,0,0-1.224,1.5q-.048.064-.224.328a2.8,2.8,0,0,1-.336.424.437.437,0,0,1-.272.16.475.475,0,0,1-.416-.208.85.85,0,0,1-.144-.5.827.827,0,0,1,.176-.576l.288-.256q.512-.48.88-.864a4.61,4.61,0,0,0,.656-.88A15.052,15.052,0,0,0,227.6,9.544a.485.485,0,0,0,.016-.144q0-.24-.336-.192a6.791,6.791,0,0,1-.768.064,2.065,2.065,0,0,1-.9-.176,5.041,5.041,0,0,1-.88-.576.129.129,0,0,1-.064-.1q0-.064.08-.064a.932.932,0,0,1,.224.048,3.073,3.073,0,0,0,1.088.192,5.642,5.642,0,0,0,1.664-.272.484.484,0,0,0,.32-.352,3.692,3.692,0,0,0,.048-.528,1.274,1.274,0,0,0-.5-1.04.173.173,0,0,1-.08-.128.229.229,0,0,1,.256-.24,2.875,2.875,0,0,1,.544.1.925.925,0,0,1,.5.224.568.568,0,0,1,.08.352v.032q0,.336.224.416a1.915,1.915,0,0,0,.432.048.9.9,0,0,0,.336-.048,1.628,1.628,0,0,1,.32-.032q.368,0,.368.272a.715.715,0,0,1-.248.464,2.383,2.383,0,0,1-.616.448,7.9,7.9,0,0,1-1.088.5.584.584,0,0,0-.32.336q-.384,1.248-.848,2.384a.486.486,0,0,0-.048.176.113.113,0,0,0,.128.128l.144-.032a1.729,1.729,0,0,1,.48-.08,1.658,1.658,0,0,1,1.712,1.232q.08.176.128.176.064,0,.128-.16a7.117,7.117,0,0,1,1.28-1.84,4.394,4.394,0,0,1,1.184-.88A2.905,2.905,0,0,1,233.936,9.88Zm-5.04-2.5q-.064,0-.144.256,0,.256.1.192l.16-.1q.112-.064.112-.128t-.128-.16l-.08-.064Zm3.68,5.344a5.244,5.244,0,0,0,1.272-1.016,1.561,1.561,0,0,0,.488-.9q0-.464-.608-.464a2.136,2.136,0,0,0-.992.3,4.517,4.517,0,0,0-1.04.784,4.563,4.563,0,0,0-.656.864,9.349,9.349,0,0,0-.56,1.072l-.192.512V13.9l.208-.1.336-.16Q232.128,13,232.576,12.728Zm20.88,3.2q.112,0,.432.3a3.14,3.14,0,0,1,.48.536.3.3,0,0,1,.064.192.245.245,0,0,1-.08.176.456.456,0,0,1-.272.08h-.928a.306.306,0,0,0-.336.336v1.264a1.617,1.617,0,0,1-.216.92,1.429,1.429,0,0,1-.952.44l-.1.016q-.224,0-.3-.288a.721.721,0,0,0-.24-.384,2.29,2.29,0,0,0-.912-.32q-.32-.048-.32-.176,0-.112.272-.112.32,0,.96.064l.528.032a.347.347,0,0,0,.264-.08.376.376,0,0,0,.072-.256v-1.12a.306.306,0,0,0-.336-.336h-4.112a.306.306,0,0,0-.336.336v.576l.032.7q0,.272.032.784v.1a.415.415,0,0,1-.128.3,1.059,1.059,0,0,1-.672.24.221.221,0,0,1-.184-.1.363.363,0,0,1-.072-.224q.064-.672.1-1.7v-.688a.306.306,0,0,0-.336-.336h-.032a.758.758,0,0,0-.272.064.5.5,0,0,1-.192.048.288.288,0,0,1-.256-.192l-.032-.064a.4.4,0,0,1-.048-.176.185.185,0,0,1,.056-.136.205.205,0,0,1,.152-.056,1.577,1.577,0,0,1,.256.024,1.749,1.749,0,0,0,.288.024h.08a.306.306,0,0,0,.336-.336v-1.2a24.607,24.607,0,0,0-.144-2.8v-.064a.291.291,0,0,1,.056-.184.167.167,0,0,1,.136-.072.4.4,0,0,1,.176.048l.56.272a.856.856,0,0,0,.416.1h1.28a.306.306,0,0,0,.336-.336v-.48a.306.306,0,0,0-.336-.336h-.944a17.235,17.235,0,0,0-2.112.176h-.1a.329.329,0,0,1-.32-.208l-.064-.128a.4.4,0,0,1-.048-.176.176.176,0,0,1,.08-.152.356.356,0,0,1,.24-.04q.416.032,1.216.064h.48a.306.306,0,0,0,.336-.336v-.7a.306.306,0,0,0-.336-.336h-.256a3.018,3.018,0,0,0-.72.128.416.416,0,0,1-.128.016.349.349,0,0,1-.32-.208l-.048-.112a.426.426,0,0,1-.048-.192q0-.208.3-.176.288.032.9.064h.32a.306.306,0,0,0,.336-.336V8.088a.306.306,0,0,0-.336-.336h-.352a4.276,4.276,0,0,0-.88.128.508.508,0,0,1-.144.032.339.339,0,0,1-.3-.208l-.048-.112a.4.4,0,0,1-.048-.176q0-.224.32-.192.352.032,1.056.064h.4a.3.3,0,0,0,.336-.336l-.048-.944V5.944q0-.24.224-.24a.962.962,0,0,1,.16.032q.96.32.96.512,0,.064-.128.144l-.016.016a.477.477,0,0,0-.224.4v.144a.306.306,0,0,0,.336.336h1.456a.3.3,0,0,0,.336-.336l-.048-.944V5.944q0-.24.224-.24a.962.962,0,0,1,.16.032q.96.336.96.512,0,.064-.112.144l-.016.016a.477.477,0,0,0-.224.4v.144a.335.335,0,0,0,.088.248.314.314,0,0,0,.232.088h.048a.46.46,0,0,0,.4-.208l.16-.224q.064-.08.152-.2a1.637,1.637,0,0,1,.152-.184.184.184,0,0,1,.128-.064,1.324,1.324,0,0,1,.5.328,3.135,3.135,0,0,1,.568.584.352.352,0,0,1,.08.192.229.229,0,0,1-.1.176.576.576,0,0,1-.288.064h-1.792a.306.306,0,0,0-.336.336V8.7a.335.335,0,0,0,.088.248.314.314,0,0,0,.232.088h.048a.46.46,0,0,0,.4-.208l.112-.16q.048-.064.12-.176a.75.75,0,0,1,.128-.16.181.181,0,0,1,.12-.048q.112,0,.432.272a3.117,3.117,0,0,1,.5.512.491.491,0,0,1,.064.192.229.229,0,0,1-.1.176.484.484,0,0,1-.288.08h-1.52a.306.306,0,0,0-.336.336v.7a.306.306,0,0,0,.336.336h.4a.451.451,0,0,0,.4-.224l.144-.208.136-.184a1.638,1.638,0,0,1,.152-.184.184.184,0,0,1,.128-.064,1.33,1.33,0,0,1,.5.32,3.512,3.512,0,0,1,.584.576.238.238,0,0,1,.064.176.245.245,0,0,1-.08.176.484.484,0,0,1-.288.08h-3.648a.306.306,0,0,0-.336.336v.48a.306.306,0,0,0,.336.336h1.168a.465.465,0,0,0,.416-.224l.08-.144q.048-.064.112-.168a.861.861,0,0,1,.112-.152.153.153,0,0,1,.112-.048,1.265,1.265,0,0,1,.488.3,3.718,3.718,0,0,1,.584.552.217.217,0,0,1,.064.16.271.271,0,0,1-.144.224,1.242,1.242,0,0,1-.16.064.393.393,0,0,0-.288.384v2.56l.016.736.256-.4q.048-.064.12-.184a.943.943,0,0,1,.128-.176A.168.168,0,0,1,253.456,15.928Zm-11.136.7a2.49,2.49,0,0,0,.384.16q.384.128.384.256,0,.064-.176.112h-.032a.519.519,0,0,0-.352.288,9.61,9.61,0,0,1-.888,1.384,6.976,6.976,0,0,1-1.128,1.176q-.272.224-.336.112a.178.178,0,0,1-.016-.08.5.5,0,0,1,.112-.256,3.847,3.847,0,0,0,.272-.4,8.05,8.05,0,0,0,.568-1.136A8.288,8.288,0,0,0,241.52,17a.485.485,0,0,0,.016-.144q0-.208-.144-.208a.742.742,0,0,0-.144.016.814.814,0,0,1-.16.016.363.363,0,0,1-.32-.32q.064-.944.112-1.832t.064-2.328V9.272a24.767,24.767,0,0,0-.144-2.816V6.392q0-.256.208-.256a.356.356,0,0,1,.16.032l.672.288a.957.957,0,0,0,.4.08H243.5a.451.451,0,0,0,.4-.224l.08-.128q.048-.064.112-.168a.861.861,0,0,1,.112-.152.154.154,0,0,1,.112-.048,1.08,1.08,0,0,1,.448.272,2.882,2.882,0,0,1,.512.512.275.275,0,0,1,.064.176.237.237,0,0,1-.144.208l-.064.032a.621.621,0,0,1-.08.032.367.367,0,0,0-.288.368v4.912q.032,1.76.112,3.5V15.9a.387.387,0,0,1-.176.352,1.234,1.234,0,0,1-.736.256q-.128,0-.128-.336v-.1a.306.306,0,0,0-.336-.336h-1.312a.306.306,0,0,0-.336.336v.288a.065.065,0,0,1-.016.048Zm1.52-9.28a.306.306,0,0,0-.336-.336h-1.312a.306.306,0,0,0-.336.336V9.064a.306.306,0,0,0,.336.336H243.5a.306.306,0,0,0,.336-.336Zm6.656.736a.306.306,0,0,0-.336-.336H248.7a.306.306,0,0,0-.336.336V8.7a.306.306,0,0,0,.336.336h1.456A.306.306,0,0,0,250.5,8.7ZM248.7,9.512a.306.306,0,0,0-.336.336v.7a.306.306,0,0,0,.336.336h1.456a.306.306,0,0,0,.336-.336v-.7a.306.306,0,0,0-.336-.336Zm-4.864.688a.306.306,0,0,0-.336-.336h-1.312a.306.306,0,0,0-.336.336v1.76a.306.306,0,0,0,.336.336H243.5a.306.306,0,0,0,.336-.336Zm0,2.9a.306.306,0,0,0-.336-.336h-1.312a.306.306,0,0,0-.336.336v1.84a.306.306,0,0,0,.336.336H243.5a.306.306,0,0,0,.336-.336Zm3.248,1.136a.306.306,0,0,0,.336.336h1.248a.306.306,0,0,0,.336-.336V13.3a.306.306,0,0,0-.336-.336h-1.248a.306.306,0,0,0-.336.336Zm2.848,0a.306.306,0,0,0,.336.336h1.264a.306.306,0,0,0,.336-.336V13.3a.306.306,0,0,0-.336-.336h-1.264a.306.306,0,0,0-.336.336Zm-2.848,2.176a.306.306,0,0,0,.336.336h1.248a.306.306,0,0,0,.336-.336V15.384a.306.306,0,0,0-.336-.336h-1.248a.306.306,0,0,0-.336.336Zm2.848,0a.306.306,0,0,0,.336.336h1.264a.306.306,0,0,0,.336-.336V15.384a.306.306,0,0,0-.336-.336h-1.264a.306.306,0,0,0-.336.336Zm-6.656.464q-.16-.3-.1-.352a.093.093,0,0,1,.064-.016.391.391,0,0,1,.256.112,4.066,4.066,0,0,1,1.224,1.112,1.959,1.959,0,0,1,.392,1.064.833.833,0,0,1-.144.512.428.428,0,0,1-.352.192.459.459,0,0,1-.208-.048.433.433,0,0,1-.224-.368,4.67,4.67,0,0,0-.328-1.1A7.6,7.6,0,0,0,243.28,16.872Zm21.488-4.72q-.048-.224-.128-.224t-.128.224a12.77,12.77,0,0,1-2.416,4.736,12.49,12.49,0,0,1-4.048,3.216q-.3.144-.368.032a.065.065,0,0,1-.016-.048q0-.112.224-.256a11.756,11.756,0,0,0,4.2-4.384A16.482,16.482,0,0,0,264.1,8.616V7.752a.306.306,0,0,0-.336-.336h-.848a12.947,12.947,0,0,0-1.856.176h-.1a.329.329,0,0,1-.32-.208l-.064-.128a.426.426,0,0,1-.048-.192.176.176,0,0,1,.08-.152.322.322,0,0,1,.224-.04q.544.048,1.648.08h1.04a.451.451,0,0,0,.4-.224l.3-.5a.3.3,0,0,1,.272-.176.281.281,0,0,1,.208.08l1.12.88a.347.347,0,0,1,.16.256.263.263,0,0,1-.144.208,3.215,3.215,0,0,1-.96.272.328.328,0,0,0-.32.352l.016.464a14.246,14.246,0,0,0,2.12,6.4,11.03,11.03,0,0,0,4.776,4.064l.192.112q.08.048.08.1t-.064.08a.4.4,0,0,1-.136.04.331.331,0,0,0-.1.024,1.119,1.119,0,0,0-.656.56q-.192.3-.384.192a12.6,12.6,0,0,1-3.5-3.272A12.114,12.114,0,0,1,264.768,12.152ZM62.624,43.736a.336.336,0,0,1,.112.24.307.307,0,0,1-.1.224.363.363,0,0,1-.24.1.336.336,0,0,1-.24-.112L48.08,30.1a.43.43,0,0,1-.112-.24.323.323,0,0,1,.112-.224.307.307,0,0,1,.224-.1.336.336,0,0,1,.24.112Zm15.584-10.8a1.864,1.864,0,0,1,.608.2.411.411,0,0,1,.192.376q0,.432-.528.432-.016,0-.624-.064a26.433,26.433,0,0,0-2.928-.208q-.336,0-.944.032-.32,0-.32.336-.032,1.184-.032,1.776v.832a1.21,1.21,0,0,0,.112.416,6.206,6.206,0,0,1,.432,1.192,4.7,4.7,0,0,1,.16,1.144,3.949,3.949,0,0,1-.624,2.256,4.7,4.7,0,0,1-1.456,1.432,5.686,5.686,0,0,1-1.536.68.678.678,0,0,1-.16.032q-.112,0-.112-.08,0-.112.176-.176a4.028,4.028,0,0,0,2.136-1.816,4.59,4.59,0,0,0,.52-1.912q0-.016-.088.056t-.248.184a1.284,1.284,0,0,1-.672.272A1.133,1.133,0,0,1,71.464,40a2.484,2.484,0,0,1-.552-.792,4.759,4.759,0,0,1-.3-.88,3.639,3.639,0,0,1-.112-.848,2.065,2.065,0,0,1,.408-1.288,1.355,1.355,0,0,1,1.144-.536,1.422,1.422,0,0,1,.448.08.4.4,0,0,0,.176.032q.192,0,.208-.208a10.469,10.469,0,0,0,.112-1.408.315.315,0,0,0-.1-.256.36.36,0,0,0-.272-.064,14.1,14.1,0,0,0-3.248,1.04q-.352.16-.624.256a1.87,1.87,0,0,1-.624.1,1.819,1.819,0,0,1-.912-.256,2.936,2.936,0,0,1-.64-.512q-.288-.3-.288-.464,0-.1.112-.1a1.63,1.63,0,0,1,.432.08,4.268,4.268,0,0,0,.832.112,5.149,5.149,0,0,0,1.152-.144q.544-.112,1.592-.3t2.264-.384a.314.314,0,0,0,.3-.336q0-.176-.032-.624l-.016-.4a1.929,1.929,0,0,0-.176-.744,1.379,1.379,0,0,0-.336-.488,2.415,2.415,0,0,0-.232-.176q-.12-.08-.12-.128,0-.112.2-.176a1.282,1.282,0,0,1,.392-.064,1.3,1.3,0,0,1,.56.128q.688.3.688.768a.594.594,0,0,1-.016.144l-.016.112a.376.376,0,0,0,.192.32,11.157,11.157,0,0,0,2.192,1.04,6.421,6.421,0,0,0,.832.184q.384.056.672.072A3.987,3.987,0,0,1,78.208,32.936Zm-3.44.048q.08,0,.232-.008a.919.919,0,0,0,.224-.032q.072-.024.072-.072,0-.064-.1-.128a.855.855,0,0,1-.136-.1l-.9-.64a.428.428,0,0,0-.208-.08q-.192,0-.224.272-.016.16-.016.576,0,.32.48.272ZM72.1,39.128a.675.675,0,0,0,.552-.272,1.454,1.454,0,0,0,.216-.9,3.546,3.546,0,0,0-.224-1.2q-.224-.624-.7-.624a.8.8,0,0,0-.7.4,1.889,1.889,0,0,0-.264,1.056,1.758,1.758,0,0,0,.352,1.048A.973.973,0,0,0,72.1,39.128Zm18.768-2.7a4.3,4.3,0,0,1,1.68.336,3.058,3.058,0,0,1,1.312,1.04,2.859,2.859,0,0,1,.512,1.728,2.8,2.8,0,0,1-.592,1.76,3.949,3.949,0,0,1-1.528,1.192A4.661,4.661,0,0,1,90.3,42.9a3.059,3.059,0,0,1-1.52-.376,1.146,1.146,0,0,1-.672-1.032,1.041,1.041,0,0,1,.432-.872,1.6,1.6,0,0,1,.992-.328,1.919,1.919,0,0,1,1.064.328,2.2,2.2,0,0,1,.792.952q.1.224.272.224a.4.4,0,0,0,.176-.048A3.458,3.458,0,0,0,92.952,40.7a2.445,2.445,0,0,0,.424-1.376,2.083,2.083,0,0,0-.832-1.832,3.284,3.284,0,0,0-1.936-.584,3.13,3.13,0,0,0-1.888.632,7.144,7.144,0,0,0-1.76,2.152q-.08.128-.24.408a1.642,1.642,0,0,1-.3.408.47.47,0,0,1-.32.128.5.5,0,0,1-.424-.176.66.66,0,0,1-.136-.416,1.757,1.757,0,0,1,.376-.984q.376-.536,1.144-1.416.784-.9,1.872-2.256t1.328-1.664l.5-.624.2-.24a1.575,1.575,0,0,0,.176-.248.422.422,0,0,0,.056-.2.468.468,0,0,0-.12-.3.332.332,0,0,0-.248-.144.6.6,0,0,0-.416.272,4.481,4.481,0,0,1-1.04.952,2.011,2.011,0,0,1-1.088.376q-.864,0-.992-1.184l-.016-.3q0-.128.064-.128.048,0,.272.256a.6.6,0,0,0,.432.224,2.775,2.775,0,0,0,.832-.248,9.967,9.967,0,0,0,1.264-.632,1.3,1.3,0,0,1,.656-.224,1.8,1.8,0,0,1,.68.176,2.416,2.416,0,0,1,.712.464.786.786,0,0,1-.08,1.3A22.1,22.1,0,0,0,88.8,36.5a.332.332,0,0,0-.1.208q0,.16.176.16a.4.4,0,0,0,.176-.048A4.326,4.326,0,0,1,90.864,36.424Zm-.64,5.792q.336-.192.256-.384a1.158,1.158,0,0,0-1.12-.848.608.608,0,0,0-.432.136.435.435,0,0,0-.144.328q0,.3.456.536A2.139,2.139,0,0,0,90.224,42.216Zm16.352-12.032a.283.283,0,0,1,.088-.232.288.288,0,0,1,.248-.04l.416.08q.064.016.4.048.5.016.5.16,0,.08-.144.176l-.032.032a.474.474,0,0,0-.208.416,24.783,24.783,0,0,0,.832,5.272,11.166,11.166,0,0,0,2.048,3.96,11.575,11.575,0,0,0,3.824,2.976q.256.112.256.208,0,.048-.08.08a1.66,1.66,0,0,1-.208.064,1.1,1.1,0,0,0-.688.512.32.32,0,0,1-.272.192.4.4,0,0,1-.176-.048,10.29,10.29,0,0,1-3.9-4.048,17.473,17.473,0,0,1-1.7-5.92q-.048-.24-.08-.24t-.064.224a16.009,16.009,0,0,1-.824,3.744,10.813,10.813,0,0,1-1.984,3.344,13.415,13.415,0,0,1-3.688,2.928.547.547,0,0,1-.256.1.184.184,0,0,1-.128-.064.127.127,0,0,1-.016-.08q0-.112.208-.256a13.079,13.079,0,0,0,3.384-3.208,11.506,11.506,0,0,0,1.728-3.552,18.474,18.474,0,0,0,.616-3.992q.016-.24.016-.72a19.423,19.423,0,0,0-.112-2.048Zm24.416.352a4.34,4.34,0,0,1,1.408.24.876.876,0,0,1,.7.848.415.415,0,0,1-.136.328.422.422,0,0,1-.28.12.684.684,0,0,1-.56-.256,3.027,3.027,0,0,0-.52-.544,2.584,2.584,0,0,0-.68-.352,1.707,1.707,0,0,0-.24-.072.953.953,0,0,1-.184-.056.1.1,0,0,1-.072-.1Q130.432,30.536,130.992,30.536Zm-5.92,3.808a1.613,1.613,0,0,1,1.416.648,3.088,3.088,0,0,1,.456,1.8,10.674,10.674,0,0,1-.176,1.632,12.371,12.371,0,0,1-.544,2.1,4.19,4.19,0,0,1-.912,1.584,3.439,3.439,0,0,1-.592.48,1.05,1.05,0,0,1-.544.192.421.421,0,0,1-.36-.16,1.516,1.516,0,0,1-.2-.368q-.08-.208-.112-.272a5.114,5.114,0,0,0-.768-1.216.635.635,0,0,1-.176-.288q0-.032.048-.032a2.749,2.749,0,0,1,.624.352l.288.192a2.942,2.942,0,0,0,.416.272.71.71,0,0,0,.32.08q.544,0,.968-.864a8.529,8.529,0,0,0,.664-2.008,9.489,9.489,0,0,0,.24-1.864q0-1.68-1.04-1.68a4.59,4.59,0,0,0-1.648.464.53.53,0,0,0-.288.352,18.794,18.794,0,0,1-2.336,5.76,2.1,2.1,0,0,1-.448.552.736.736,0,0,1-.464.2.415.415,0,0,1-.3-.128.434.434,0,0,1-.128-.32,2.443,2.443,0,0,1,.624-1.264,12.552,12.552,0,0,0,2.08-4.128.416.416,0,0,0,.016-.128q0-.224-.208-.224a.4.4,0,0,0-.176.048,5.87,5.87,0,0,1-1.456.48,1.308,1.308,0,0,1-.68-.208,1.9,1.9,0,0,1-.568-.52,1.02,1.02,0,0,1-.224-.584q0-.144.08-.144a.546.546,0,0,1,.2.064q.136.064.216.1a2.333,2.333,0,0,0,.928.192,4.548,4.548,0,0,0,.984-.12q.408-.1,1-.312a.445.445,0,0,0,.288-.352,6.952,6.952,0,0,0,.176-1.488,1.859,1.859,0,0,0-.336-1.216q-.112-.128-.3-.32t-.184-.256q0-.1.136-.144a1.047,1.047,0,0,1,.344-.048,2.33,2.33,0,0,1,.64.1,1.627,1.627,0,0,1,.528.24.636.636,0,0,1,.256.512,2.69,2.69,0,0,1-.1.512q-.08.32-.128.624-.016.128-.048.368t-.1.64l-.016.112a.218.218,0,0,0,.088.2.3.3,0,0,0,.232.024A4.846,4.846,0,0,1,125.072,34.344Zm4.448-2.128q-.048-.016-.168-.048a.563.563,0,0,1-.176-.072.122.122,0,0,1-.056-.1q0-.16.512-.16a3.539,3.539,0,0,1,1.464.312.994.994,0,0,1,.7.92.418.418,0,0,1-.152.336.541.541,0,0,1-.36.128.565.565,0,0,1-.512-.288,3.068,3.068,0,0,0-.536-.648A1.849,1.849,0,0,0,129.52,32.216Zm-.976,1.984a4.583,4.583,0,0,1,2.024.48,2.947,2.947,0,0,1,1.144,1.008,2.082,2.082,0,0,1,.352,1.072,1.481,1.481,0,0,1-.312.952.857.857,0,0,1-.648.392.574.574,0,0,1-.352-.12,2.23,2.23,0,0,0-.192-.136,1.451,1.451,0,0,0-.608-.224q-.384-.064-.912-.128-.224-.032-.224-.1,0-.08.192-.1,1.04-.112,1.088-.112a1.738,1.738,0,0,0,.6-.192.409.409,0,0,0,.168-.368,1.868,1.868,0,0,0-.72-1.408,3.781,3.781,0,0,0-1.648-.864q-.144-.032-.144-.1T128.544,34.2Zm21.008-2.112a.217.217,0,0,1,.064.16.266.266,0,0,1-.128.208l-.16.08a.367.367,0,0,0-.288.368v1.248q.048,1.872.1,2.736v.08a.343.343,0,0,1-.16.32,1.344,1.344,0,0,1-.376.208,1.14,1.14,0,0,1-.392.08q-.064,0-.1-.088a.615.615,0,0,1-.04-.248v-.1a.306.306,0,0,0-.336-.336h-5.744a.306.306,0,0,0-.336.336v.32a.531.531,0,0,0-.048.208.229.229,0,0,0,.128.224l.48.224a1.062,1.062,0,0,0,.416.1h4.256a.475.475,0,0,0,.416-.208l.08-.112q.048-.048.16-.184a.3.3,0,0,1,.208-.136,1.263,1.263,0,0,1,.48.264,3.881,3.881,0,0,1,.576.488.346.346,0,0,1,.08.176q0,.1-.144.208a1.062,1.062,0,0,1-.192.08.393.393,0,0,0-.288.384V40.5q.048,1.984.1,2.928v.08a.344.344,0,0,1-.16.32,1.656,1.656,0,0,1-.376.192,1.141,1.141,0,0,1-.392.08.186.186,0,0,1-.16-.112.262.262,0,0,1-.032-.144,1.348,1.348,0,0,1,.032-.24l.032-.176v-.016a.306.306,0,0,0-.336-.336h-4.3a.306.306,0,0,0-.336.336v.448q0,.1-.256.224a1.167,1.167,0,0,1-.528.128.221.221,0,0,1-.184-.1.363.363,0,0,1-.072-.224q.064-.752.1-1.872v-1.1a24.929,24.929,0,0,0-.144-2.832q-.048-.3-.208-.3l-.192.016a.221.221,0,0,1-.184-.1.363.363,0,0,1-.072-.224q.064-.7.1-1.792V34.632a24.447,24.447,0,0,0-.144-2.784v-.064q0-.24.208-.24a.356.356,0,0,1,.16.032l.64.288a1.062,1.062,0,0,0,.416.1h3.584a.373.373,0,0,0,.384-.256,12.62,12.62,0,0,0,.576-1.92q.048-.272.272-.272a.962.962,0,0,1,.16.032q1.184.4,1.184.576,0,.048-.144.112l-.064.016a.993.993,0,0,0-.352.256q-.48.592-.88,1.04a.428.428,0,0,0-.112.224.163.163,0,0,0,.08.136.355.355,0,0,0,.208.056h.8a.516.516,0,0,0,.416-.192l.08-.112q.048-.048.16-.184a.3.3,0,0,1,.208-.136,1.218,1.218,0,0,1,.472.264A4.053,4.053,0,0,1,149.552,32.088Zm-6.384-.192a.339.339,0,0,1-.144-.128,1.164,1.164,0,0,1-.1-.224,2.821,2.821,0,0,0-.352-.816,4,4,0,0,0-.576-.736q-.24-.272-.176-.32a.185.185,0,0,1,.128-.032.568.568,0,0,1,.208.032,3.056,3.056,0,0,1,1.344.72,1.309,1.309,0,0,1,.432.9.7.7,0,0,1-.16.464.485.485,0,0,1-.384.192A.652.652,0,0,1,143.168,31.9ZM138.8,34.648a.306.306,0,0,0-.336.336v4.16a.35.35,0,0,0,.064.224.213.213,0,0,0,.176.08.508.508,0,0,0,.144-.032l.384-.144q.624-.208,1.136-.4.336-.1.368,0V38.9q0,.128-.224.24-2.064,1.216-4.016,2.24a.546.546,0,0,0-.256.224.176.176,0,0,1-.176.128q-.144,0-.256-.208l-.272-.672a.962.962,0,0,1-.032-.16.284.284,0,0,1,.224-.272q.64-.192,1.472-.464a.374.374,0,0,0,.272-.384V34.984a.306.306,0,0,0-.336-.336h-.24a4.031,4.031,0,0,0-.688.112.508.508,0,0,1-.144.032.339.339,0,0,1-.3-.208l-.048-.08a.426.426,0,0,1-.048-.192q0-.224.32-.192.272.032.848.064h.3a.306.306,0,0,0,.336-.336V33.16a25.525,25.525,0,0,0-.144-2.864v-.064a.267.267,0,0,1,.064-.184.223.223,0,0,1,.176-.072.508.508,0,0,1,.144.032,6.218,6.218,0,0,1,.912.32q.256.128.256.224,0,.08-.144.16l-.048.032a.428.428,0,0,0-.224.4v2.7a.616.616,0,0,0,.04.248.128.128,0,0,0,.12.088q.144,0,.288-.224l.144-.24q.048-.08.136-.216a1.842,1.842,0,0,1,.144-.2.16.16,0,0,1,.12-.064q.112,0,.5.344a3.161,3.161,0,0,1,.568.616.491.491,0,0,1,.064.192.229.229,0,0,1-.1.176.484.484,0,0,1-.288.08Zm2.848-.832a.306.306,0,0,0,.336.336H144a.306.306,0,0,0,.336-.336V32.76a.306.306,0,0,0-.336-.336h-2.016a.306.306,0,0,0-.336.336Zm3.664,0a.306.306,0,0,0,.336.336h2.08a.306.306,0,0,0,.336-.336V32.76a.306.306,0,0,0-.336-.336h-2.08a.306.306,0,0,0-.336.336Zm-3.664,2.176a.306.306,0,0,0,.336.336H144a.306.306,0,0,0,.336-.336V34.936A.306.306,0,0,0,144,34.6h-2.016a.306.306,0,0,0-.336.336Zm3.664,0a.306.306,0,0,0,.336.336h2.08a.306.306,0,0,0,.336-.336V34.936a.306.306,0,0,0-.336-.336h-2.08a.306.306,0,0,0-.336.336Zm1.984,3.024a.306.306,0,0,0-.336-.336h-4.3a.306.306,0,0,0-.336.336v.976a.306.306,0,0,0,.336.336h4.3a.306.306,0,0,0,.336-.336Zm0,2.128a.306.306,0,0,0-.336-.336h-4.3a.306.306,0,0,0-.336.336v1.12a.306.306,0,0,0,.336.336h4.3a.306.306,0,0,0,.336-.336ZM157.5,33.432q-.08,0-.08-.064,0-.048.128-.16.224-.176.744-.528t.792-.512q.192-.1.192-.128t-.192-.144a2.905,2.905,0,0,1-.8-.64,2.011,2.011,0,0,1-.48-1.072q0-.128.048-.128t.288.24a4.153,4.153,0,0,0,.48.392,3.463,3.463,0,0,0,.7.392,2.586,2.586,0,0,0,.928.208,1.423,1.423,0,0,0,.28-.048,1.417,1.417,0,0,1,.3-.048.977.977,0,0,1,.608.264.709.709,0,0,1,.32.5q0,.224-.336.336a2.766,2.766,0,0,1-.384.064,6.289,6.289,0,0,0-.672.112q-.112.032-.48.1a6.909,6.909,0,0,0-1.04.328,12.79,12.79,0,0,0-1.232.5A.258.258,0,0,1,157.5,33.432Zm7.392,8.5a.694.694,0,0,1,.488.184.578.578,0,0,1,.2.44q0,.48-.88.624a13.181,13.181,0,0,1-2.1.144,3.051,3.051,0,0,1-1.32-.232,1.485,1.485,0,0,1-.7-.728,4.79,4.79,0,0,1-.344-1.392,2.655,2.655,0,0,0-.272-.96.79.79,0,0,0-.752-.336,3.367,3.367,0,0,0-1.408.432,2.587,2.587,0,0,0-.808.712,9.453,9.453,0,0,0-.8,1.136,7.606,7.606,0,0,0-.472.872q-.176.448-.368.448-.176,0-.424-.368a1.192,1.192,0,0,1-.248-.624.888.888,0,0,1,.112-.48,2.13,2.13,0,0,1,.384-.416q.08-.064.256-.24l2.048-2.064,3.056-3.056q.448-.416.448-.576a.206.206,0,0,0-.08-.152.405.405,0,0,0-.272-.072,3.11,3.11,0,0,0-1.392.272,3.707,3.707,0,0,0-.776.48q-.232.208-.28.24-.08.064-.216.192a1.063,1.063,0,0,1-.272.192.651.651,0,0,1-.28.064,1.193,1.193,0,0,1-.576-.216,4.735,4.735,0,0,1-.7-.536,1.047,1.047,0,0,1-.4-.688.448.448,0,0,1,.064-.224.2.2,0,0,1,.176-.112.388.388,0,0,1,.192.1,1.613,1.613,0,0,0,1.12.56,1.465,1.465,0,0,0,.592-.112,13.836,13.836,0,0,1,1.752-.616,6.186,6.186,0,0,1,1.624-.28,1.26,1.26,0,0,1,.976.448.977.977,0,0,1,.272.624.428.428,0,0,1-.144.336,3.638,3.638,0,0,1-.528.352l-.48.288a16.129,16.129,0,0,0-1.672,1.224,18.18,18.18,0,0,0-1.592,1.464.138.138,0,0,0-.048.1q0,.032.064.032a1.309,1.309,0,0,0,.32-.08,3.481,3.481,0,0,1,1.136-.192,1.207,1.207,0,0,1,1.248.832,9.028,9.028,0,0,1,.288,1.1,3.929,3.929,0,0,0,.248.848.532.532,0,0,0,.3.3,2.18,2.18,0,0,0,.592.056,7.028,7.028,0,0,0,1.04-.1l.752-.12A8.3,8.3,0,0,1,164.9,41.928Zm16.336-10.544a1.878,1.878,0,0,1,1.016.3.845.845,0,0,1,.472.712.326.326,0,0,1-.1.264.394.394,0,0,1-.264.088,4.818,4.818,0,0,1-.9-.112l-.432-.064a3.692,3.692,0,0,0-.528-.048,3.481,3.481,0,0,0-.92.12,3.76,3.76,0,0,0-.632.216,3.054,3.054,0,0,0-1.176,1.408,10.2,10.2,0,0,0-.8,2.336,10.665,10.665,0,0,0-.28,2.24,3.541,3.541,0,0,0,.552,2.264,2.075,2.075,0,0,0,1.672.648l.448-.032a6.011,6.011,0,0,1,.736-.064q1.152,0,1.152.56,0,.416-.648.552a6.332,6.332,0,0,1-1.3.136,4.242,4.242,0,0,1-2.088-.432,2.39,2.39,0,0,1-1.08-1.312,6.877,6.877,0,0,1-.32-2.3,8.5,8.5,0,0,1,.56-3.064,8.841,8.841,0,0,1,1.456-2.536q.5-.528.432-.5l-.064.016a9.1,9.1,0,0,0-1.272.416q-.824.32-2.1.88l-.688.288q-.128.064-.56.288-.3.16-.48.24a.879.879,0,0,1-.368.08,1.4,1.4,0,0,1-.856-.368,3.271,3.271,0,0,1-.7-.736.352.352,0,0,1-.08-.192.164.164,0,0,1,.16-.16.424.424,0,0,1,.208.064q.032.016.272.152a1.185,1.185,0,0,0,.592.136,1.92,1.92,0,0,0,.272-.032l.976-.32q1.792-.608,3.288-1.048a17.764,17.764,0,0,1,2.76-.6,1.98,1.98,0,0,0,.464-.12q.224-.088.288-.12A1.967,1.967,0,0,1,181.232,31.384Zm11.968,11.1a2.092,2.092,0,0,1-.832-.24,4.8,4.8,0,0,1-1.12-.784,5.125,5.125,0,0,1-1.552-4,13.586,13.586,0,0,1,.176-1.968,8.634,8.634,0,0,0,.1-.96,1.724,1.724,0,0,0-.136-.7,1.851,1.851,0,0,0-.472-.616q-.1-.08-.1-.128t.064-.072a.362.362,0,0,1,.128-.024,1.688,1.688,0,0,1,.728.2,2.208,2.208,0,0,1,.7.528,1.008,1.008,0,0,1,.288.664,1.817,1.817,0,0,1-.072.472q-.072.264-.168.552-.208.672-.312,1.152a5.337,5.337,0,0,0-.1,1.12,3.615,3.615,0,0,0,.328,1.56,3.341,3.341,0,0,0,.768,1.088,1.25,1.25,0,0,0,.76.392q.192,0,.256-.336a12.468,12.468,0,0,1,.312-1.216,5.82,5.82,0,0,1,.264-.72,1.024,1.024,0,0,1,.112-.2q.064-.088.112-.088t.048.1a1.92,1.92,0,0,1-.032.272,7.789,7.789,0,0,0-.16,1.488q0,.24.016.456t.032.344a2.109,2.109,0,0,0,.176.688,2.056,2.056,0,0,1,.128.528.462.462,0,0,1-.112.328A.416.416,0,0,1,193.2,42.488Zm6.64-4.256a.594.594,0,0,1-.44-.128,1,1,0,0,1-.2-.352q-.016-.032-.28-1.032a2.021,2.021,0,0,0-1.032-1.384,2.158,2.158,0,0,0-.992-.192H196.7q-.144,0-.144-.1,0-.064.16-.128a1.585,1.585,0,0,1,.312-.08,2.914,2.914,0,0,1,.552-.048,2.7,2.7,0,0,1,1.936.784,3.054,3.054,0,0,1,.784,1.08,2.5,2.5,0,0,1,.208.824.816.816,0,0,1-.184.52A.592.592,0,0,1,199.84,38.232Zm13.3,2.192a.351.351,0,0,0,.3.352,6.078,6.078,0,0,1,1.736.9,1.511,1.511,0,0,1,.68,1.2.4.4,0,0,1-.112.328.381.381,0,0,1-.24.088.972.972,0,0,1-.624-.3q-.112-.1-.536-.472t-.84-.7a.262.262,0,0,0-.192-.08q-.16,0-.24.24a2.1,2.1,0,0,1-.888,1.08,2.939,2.939,0,0,1-1.576.392,3.374,3.374,0,0,1-1.664-.408,1.27,1.27,0,0,1-.736-1.16,1.208,1.208,0,0,1,.392-.9,2.446,2.446,0,0,1,.976-.56,3.893,3.893,0,0,1,1.176-.184,6.236,6.236,0,0,1,1.168.144l.1.016q.288,0,.256-.32-.032-.336-.064-1.136-.032-.288-.064-.928-.032-.352-.368-.3a7.822,7.822,0,0,1-1.328.128,3.11,3.11,0,0,1-1.48-.328,2.037,2.037,0,0,1-.9-.92.623.623,0,0,1-.048-.176q0-.08.064-.08a.2.2,0,0,1,.112.048.724.724,0,0,0,.1.064,4.567,4.567,0,0,0,.832.424,3.146,3.146,0,0,0,1.2.216,10.107,10.107,0,0,0,1.456-.144q.3-.048.3-.272v-.208q0-.992.048-2v-.1q0-.24-.1-.24H211.9a2.176,2.176,0,0,1-.8-.144,3.008,3.008,0,0,1-.656-.4,2.539,2.539,0,0,1-.512-.5.6.6,0,0,1-.112-.24.057.057,0,0,1,.064-.064.62.62,0,0,1,.256.08l.336.176a2.343,2.343,0,0,0,.464.232,1.638,1.638,0,0,0,.528.072,2.042,2.042,0,0,0,.5-.064.375.375,0,0,0,.336-.336,7.1,7.1,0,0,0,.1-.96,1.983,1.983,0,0,0-.176-.864,2.169,2.169,0,0,0-.3-.432,2.254,2.254,0,0,1-.144-.192.311.311,0,0,1-.064-.16.186.186,0,0,1,.1-.16.5.5,0,0,1,.264-.064,1.4,1.4,0,0,1,.464.12,1.538,1.538,0,0,1,.544.368.872.872,0,0,1,.24.632,2.974,2.974,0,0,1-.1.632q-.1.408-.208.76a.51.51,0,0,0,.1.216.208.208,0,0,0,.256.1l.464-.144a.861.861,0,0,1,.272-.048.484.484,0,0,1,.288.08.276.276,0,0,1,.112.24.532.532,0,0,1-.12.32.823.823,0,0,1-.344.256,6.081,6.081,0,0,1-.976.32.373.373,0,0,0-.32.352q-.064.752-.064,1.664a3.57,3.57,0,0,0,.016.4.284.284,0,0,0,.1.24.308.308,0,0,0,.28.032,3.3,3.3,0,0,0,.864-.4.479.479,0,0,0,.24-.368,1.026,1.026,0,0,0-.288-.544q-.032-.048-.088-.12a1.525,1.525,0,0,1-.1-.152.6.6,0,0,1-.112-.24.042.042,0,0,1,.048-.048.766.766,0,0,1,.288.176,2.421,2.421,0,0,0,1.232.48.639.639,0,0,1,.384.16.456.456,0,0,1,.112.336.86.86,0,0,1-.16.48,1.192,1.192,0,0,1-.5.4,10.88,10.88,0,0,1-1.936.624q-.32.1-.272.528.048.544.224,1.712Zm-2.832,2.24a2.467,2.467,0,0,0,1.336-.328,1.406,1.406,0,0,0,.648-.936v-.08a.314.314,0,0,0-.24-.32,4.274,4.274,0,0,0-1.44-.256,2.676,2.676,0,0,0-1.256.3.889.889,0,0,0-.568.792.682.682,0,0,0,.472.608A2.413,2.413,0,0,0,210.3,42.664Zm24.864-9.728a1.865,1.865,0,0,1,.608.2.411.411,0,0,1,.192.376q0,.432-.528.432-.016,0-.624-.064a26.433,26.433,0,0,0-2.928-.208q-.336,0-.944.032-.32,0-.32.336-.032,1.184-.032,1.776v.832a1.21,1.21,0,0,0,.112.416,6.206,6.206,0,0,1,.432,1.192,4.7,4.7,0,0,1,.16,1.144,3.949,3.949,0,0,1-.624,2.256,4.7,4.7,0,0,1-1.456,1.432,5.687,5.687,0,0,1-1.536.68.678.678,0,0,1-.16.032q-.112,0-.112-.08,0-.112.176-.176a4.028,4.028,0,0,0,2.136-1.816,4.59,4.59,0,0,0,.52-1.912q0-.016-.088.056t-.248.184a1.284,1.284,0,0,1-.672.272,1.133,1.133,0,0,1-.808-.328,2.484,2.484,0,0,1-.552-.792,4.758,4.758,0,0,1-.3-.88,3.64,3.64,0,0,1-.112-.848,2.065,2.065,0,0,1,.408-1.288,1.355,1.355,0,0,1,1.144-.536,1.422,1.422,0,0,1,.448.08.4.4,0,0,0,.176.032q.192,0,.208-.208a10.471,10.471,0,0,0,.112-1.408.315.315,0,0,0-.1-.256.36.36,0,0,0-.272-.064,14.1,14.1,0,0,0-3.248,1.04q-.352.16-.624.256a1.87,1.87,0,0,1-.624.1,1.819,1.819,0,0,1-.912-.256,2.936,2.936,0,0,1-.64-.512q-.288-.3-.288-.464,0-.1.112-.1a1.631,1.631,0,0,1,.432.08,4.268,4.268,0,0,0,.832.112,5.149,5.149,0,0,0,1.152-.144q.544-.112,1.592-.3t2.264-.384a.314.314,0,0,0,.3-.336q0-.176-.032-.624l-.016-.4a1.928,1.928,0,0,0-.176-.744,1.379,1.379,0,0,0-.336-.488,2.413,2.413,0,0,0-.232-.176q-.12-.08-.12-.128,0-.112.2-.176a1.282,1.282,0,0,1,.392-.064,1.3,1.3,0,0,1,.56.128q.688.3.688.768a.6.6,0,0,1-.016.144l-.016.112a.376.376,0,0,0,.192.32,11.158,11.158,0,0,0,2.192,1.04,6.422,6.422,0,0,0,.832.184q.384.056.672.072A3.988,3.988,0,0,1,235.168,32.936Zm-3.44.048q.08,0,.232-.008a.919.919,0,0,0,.224-.032q.072-.024.072-.072,0-.064-.1-.128a.854.854,0,0,1-.136-.1l-.9-.64a.428.428,0,0,0-.208-.08q-.192,0-.224.272-.016.16-.016.576,0,.32.48.272Zm-2.672,6.144a.675.675,0,0,0,.552-.272,1.454,1.454,0,0,0,.216-.9,3.546,3.546,0,0,0-.224-1.2q-.224-.624-.7-.624a.8.8,0,0,0-.7.4,1.889,1.889,0,0,0-.264,1.056,1.758,1.758,0,0,0,.352,1.048A.973.973,0,0,0,229.056,39.128Zm16.192,1.3a.185.185,0,0,1-.136-.056.228.228,0,0,1-.056-.168.755.755,0,0,1,.1-.32q.944-1.792,1.552-3.128t1.2-2.776q.448-1.072.736-1.7a13.207,13.207,0,0,1,.64-1.216,1.747,1.747,0,0,1,.56-.6,1.2,1.2,0,0,1,.64-.2.876.876,0,0,1,.672.3,1.079,1.079,0,0,1,.272.76,1.713,1.713,0,0,1-.24.832q-.288.5-.68,1.056t-.672.928q-.28.368-.424.56-1.072,1.392-1.9,2.552T245.6,40.136Q245.424,40.424,245.248,40.424Zm-1.3,3.152a.976.976,0,0,1-.728-.3,1.016,1.016,0,0,1-.3-.736,1.036,1.036,0,0,1,.3-.752.976.976,0,0,1,.728-.3,1.038,1.038,0,0,1,1.056,1.056,1,1,0,0,1-.3.736A1.021,1.021,0,0,1,243.952,43.576ZM271.92,29.64a.307.307,0,0,1,.1.224.336.336,0,0,1-.112.24l-14.08,14.08a.336.336,0,0,1-.24.112.307.307,0,0,1-.224-.1.323.323,0,0,1-.112-.224.43.43,0,0,1,.112-.24l14.08-14.08a.336.336,0,0,1,.24-.112A.363.363,0,0,1,271.92,29.64Z" transform="translate(488 774.808)" fill="#fff" opacity="0.8"/>
    </g>
  </g>
</svg>
