<svg xmlns="http://www.w3.org/2000/svg" width="1600" height="150" viewBox="0 0 1600 150">
  <g id="訴求" transform="translate(0 -750)">
    <rect id="長方形_39977" data-name="長方形 39977" width="1600" height="150" transform="translate(0 750)" fill="#173449"/>
    <g id="グループ_11" data-name="グループ 11" transform="translate(-1)">
      <path id="パス_32347" data-name="パス 32347" d="M-305.928-36.816q-.24-.528-.624-.528a.81.81,0,0,0-.672.48,56.174,56.174,0,0,1-9.024,10.44,61.876,61.876,0,0,1-11.616,8.616,1.571,1.571,0,0,1-.672.264.351.351,0,0,1-.384-.168v-.1q0-.336.624-.768a51.568,51.568,0,0,0,7.872-6.6,69.3,69.3,0,0,0,7.008-8.184,21.145,21.145,0,0,0,3.552-7.1.888.888,0,0,1,.864-.72,1.249,1.249,0,0,1,.384.048l3.6,1.152a1.437,1.437,0,0,1,.576.312.618.618,0,0,1,.24.456q0,.288-.336.336a1.078,1.078,0,0,0-.528.864.821.821,0,0,0,.144.384,37.754,37.754,0,0,0,7.848,8.232A60.6,60.6,0,0,0-286.3-22.608a2.6,2.6,0,0,1,.528.288.415.415,0,0,1,.192.336q0,.24-.816.624a3.159,3.159,0,0,0-1.536,1.344,1.03,1.03,0,0,1-.768.528,1.272,1.272,0,0,1-.624-.192,51,51,0,0,1-9.744-7.752A37.128,37.128,0,0,1-305.928-36.816Zm-4.992,14.352a31.212,31.212,0,0,0-4.9.528h-.24a1.019,1.019,0,0,1-1.008-.672l-.192-.384a1.2,1.2,0,0,1-.144-.528.575.575,0,0,1,.24-.5.966.966,0,0,1,.672-.12q1.68.144,4.992.24h7.488a1.379,1.379,0,0,0,1.2-.624l.528-.768q.144-.192.432-.6a4.913,4.913,0,0,1,.5-.624.606.606,0,0,1,.408-.216q.384,0,1.632,1.08a13.572,13.572,0,0,1,1.872,1.9.826.826,0,0,1,.192.528.651.651,0,0,1-.192.48,1.247,1.247,0,0,1-.912.288Zm13.2,9.168a.639.639,0,0,0-.24-.528.968.968,0,0,0-.624-.192h-16.272a51.7,51.7,0,0,0-6.336.528h-.288a.986.986,0,0,1-.96-.624l-.192-.336a1.278,1.278,0,0,1-.144-.576.528.528,0,0,1,.24-.456.966.966,0,0,1,.672-.12q1.632.144,4.944.24h18.912a1.5,1.5,0,0,0,1.248-.624l.288-.384q.144-.144.5-.576t.648-.432q.336,0,1.416.912a13.08,13.08,0,0,1,1.7,1.68.651.651,0,0,1,.192.48.745.745,0,0,1-.528.672,3.067,3.067,0,0,1-.72.192,1.494,1.494,0,0,0-1.152.816q-1.344,3.168-3.408,7.656t-3.84,8.088q-.336.72-.768.768a1.456,1.456,0,0,1-.432.048,4.892,4.892,0,0,1-1.3-.24.851.851,0,0,1-.672-.816,2.2,2.2,0,0,1,.192-.672q3.84-7.728,6.816-15.072Zm54.912,8.784a3.7,3.7,0,0,1,1.344,2.4,1.526,1.526,0,0,1-.336.96,1.047,1.047,0,0,1-.864.432,2.319,2.319,0,0,1-1.3-.456A12.906,12.906,0,0,1-245.3-2.232q-.672-.6-1.008-.888a13.012,13.012,0,0,0-1.968-1.392l-.144-.1a1.51,1.51,0,0,0-.528-.192q-.576,0-.72.816-.96,4.608-6.816,4.608a9.4,9.4,0,0,1-4.944-1.272,4.048,4.048,0,0,1-2.112-3.672,3.794,3.794,0,0,1,2.928-3.792,17.11,17.11,0,0,1,5.568-1.008q1.008,0,1.536.048h.144a.806.806,0,0,0,.912-.912q-.24-6.768-.288-10.656-.048-1.008-.624-1.008a4.043,4.043,0,0,0-.72.1,8.276,8.276,0,0,1-1.056.048,7.429,7.429,0,0,1-3.576-.792,7.906,7.906,0,0,1-2.712-2.664,1.1,1.1,0,0,1-.24-.624q0-.336.288-.336a.989.989,0,0,1,.456.216,3.471,3.471,0,0,1,.408.312,7.444,7.444,0,0,0,1.512.912,5.292,5.292,0,0,0,2.184.384,17.851,17.851,0,0,0,3.072-.384,1.028,1.028,0,0,0,.912-1.1q-.048-1.3-.048-3.648V-31.68a3.168,3.168,0,0,0-2.064-3.024q-.432-.24-.432-.432,0-.288.552-.528a5.059,5.059,0,0,1,1.848-.24,4.117,4.117,0,0,1,2.52.84,2.266,2.266,0,0,1,1.128,1.7,7.6,7.6,0,0,1-.288.96,5.855,5.855,0,0,0-.48,1.3l-.048.192a1.064,1.064,0,0,0-.048.336,1.149,1.149,0,0,0,.528.96A11.938,11.938,0,0,0-246.7-28.08q.432.1,1.176.24a3.06,3.06,0,0,1,1.032.336.932.932,0,0,1,.384.576,1.962,1.962,0,0,1,.1.624q0,1.056-1.872,2.016a34.681,34.681,0,0,1-4.032,1.728q-.864.288-.864.576a64.367,64.367,0,0,0,.384,7.2q.384,3.408.432,3.888.192,1.488.24,1.824a1.36,1.36,0,0,0,.96,1.1A14.935,14.935,0,0,1-242.808-4.512ZM-267.336-23.28q.144,0,.144.24a2.285,2.285,0,0,1-.144.624q-1.776,5.04-3.072,9.5a26.713,26.713,0,0,0-1.3,6.288,23.267,23.267,0,0,0,.432,3.12,17.211,17.211,0,0,1,.384,2.448,1.849,1.849,0,0,1-.336,1.128,1.073,1.073,0,0,1-.912.456,1.857,1.857,0,0,1-1.44-.576,10.832,10.832,0,0,1-1.248-1.824q-1.776-2.88-1.776-8.4a49.255,49.255,0,0,1,.5-6.432q.5-3.744,1.272-7.488.192-.864.24-1.248.336-1.488.576-2.9a14.844,14.844,0,0,0,.24-2.424,6.867,6.867,0,0,0-.168-1.776,8.933,8.933,0,0,0-.792-1.68,1.105,1.105,0,0,1-.144-.432.509.509,0,0,1,.12-.336.387.387,0,0,1,.312-.144,1.539,1.539,0,0,1,.816.432,13.275,13.275,0,0,1,2.088,2.616,5.534,5.534,0,0,1,.936,2.9,7.114,7.114,0,0,1-.312,2.016q-.312,1.056-.984,2.832l-.672,1.824a29.993,29.993,0,0,0-1.3,5.016,28.9,28.9,0,0,0-.432,4.776q0,2.64.624,2.64.384,0,.936-1.176t1.608-3.816q1.584-3.984,3.312-7.728Q-267.624-23.28-267.336-23.28Zm18.144-5.04a1.185,1.185,0,0,0-.672-.288q-.528,0-.624.816l-.1,1.248v.1a.968.968,0,0,0,.192.624.639.639,0,0,0,.528.24l.432-.1q1.68-.72,1.68-1.2Q-247.752-27.264-249.192-28.32Zm-7.824,26.736a5.61,5.61,0,0,0,2.928-.744A3.982,3.982,0,0,0-252.5-5.376v-.24a.965.965,0,0,0-.816-.96,13.562,13.562,0,0,0-3.552-.48A10.8,10.8,0,0,0-260.4-6.5a2.007,2.007,0,0,0-1.608,1.944A2.376,2.376,0,0,0-260.352-2.3,8.3,8.3,0,0,0-257.016-1.584ZM-213.96.96A10.532,10.532,0,0,1-220.08-.6a8.159,8.159,0,0,1-3.12-4.512,26.6,26.6,0,0,1-.888-7.512q0-4.56.624-10.7.384-4.032.384-5.328a14.872,14.872,0,0,0-.36-3.72,3.467,3.467,0,0,0-1.608-2.088q-.384-.24-.384-.528,0-.528,1.344-.528,2.5,0,3.432,1.392a6.716,6.716,0,0,1,.936,3.792q0,1.584-.672,7.2a92.832,92.832,0,0,0-.768,10.8,20.869,20.869,0,0,0,.744,6.312,5.465,5.465,0,0,0,2.52,3.216,10.416,10.416,0,0,0,4.992.984q5.76,0,15.264-6.96.1-.048.456-.288a1.153,1.153,0,0,1,.552-.24q.144,0,.144.192,0,.336-.624.96a42.9,42.9,0,0,1-8.328,6.624A16.511,16.511,0,0,1-213.96.96Zm13.3-30.288a1.968,1.968,0,0,1-1.68-.864,7.486,7.486,0,0,0-1.464-1.584,7.9,7.9,0,0,0-1.992-1.056q-.432-.144-.744-.24a4.783,4.783,0,0,1-.528-.192q-.216-.1-.216-.24,0-.528,2.064-.528a8.876,8.876,0,0,1,3.936.912,2.805,2.805,0,0,1,1.872,2.544,1.119,1.119,0,0,1-.408.912A1.312,1.312,0,0,1-200.664-29.328Zm-4.176,4.176a1.949,1.949,0,0,1-1.824-1.008,10,10,0,0,0-1.584-2.04,6.659,6.659,0,0,0-2.16-1.368q-.192-.1-.552-.24a2.649,2.649,0,0,1-.528-.264.332.332,0,0,1-.168-.264q0-.192.312-.312a1.925,1.925,0,0,1,.7-.12,13.573,13.573,0,0,1,3.144.408,7.487,7.487,0,0,1,2.9,1.344,2.89,2.89,0,0,1,1.2,2.376,1.416,1.416,0,0,1-.432,1.08A1.422,1.422,0,0,1-204.84-25.152Zm45.072-3.456q0,.528.912.672a16.19,16.19,0,0,1,6.072,2.064,12.827,12.827,0,0,1,4.512,4.368,11.735,11.735,0,0,1,1.7,6.336q0,12.336-18.24,14.784L-166.3-.24q-.336,0-.336-.288,0-.192.384-.336a3.545,3.545,0,0,1,.7-.192,1.671,1.671,0,0,0,.408-.1,23.973,23.973,0,0,0,10.992-5.184,12.028,12.028,0,0,0,3.984-9.36,9.545,9.545,0,0,0-2.664-6.984,11.881,11.881,0,0,0-6.744-3.384h-.24a.951.951,0,0,0-.96.768A58.734,58.734,0,0,1-164.76-15.5a1.278,1.278,0,0,0-.144.576.863.863,0,0,0,.528.768,7.588,7.588,0,0,1,1.44.912,1.423,1.423,0,0,1,.48,1.008,1,1,0,0,1-.36.792,1.378,1.378,0,0,1-.936.312,5.366,5.366,0,0,1-2.112-.528,1.2,1.2,0,0,0-.528-.144,1.078,1.078,0,0,0-.864.528,21.8,21.8,0,0,1-4.512,4.8A7.31,7.31,0,0,1-175.9-4.656a2.94,2.94,0,0,1-1.728-.624,4.585,4.585,0,0,1-1.44-1.944,8.236,8.236,0,0,1-.576-3.288A15.662,15.662,0,0,1-175.272-21.7a1.194,1.194,0,0,0,.384-.864,2.647,2.647,0,0,0-.1-.528l-.432-1.2q-.864-2.3-1.392-3.48a4.936,4.936,0,0,0-1.2-1.752,5.376,5.376,0,0,0-.672-.576q-.336-.24-.336-.384,0-.192.288-.192a5.113,5.113,0,0,1,1.968.576,4.6,4.6,0,0,1,1.824,1.776,22.327,22.327,0,0,1,1.632,3.456q.288.624.72.624a1.284,1.284,0,0,0,.624-.24,22.093,22.093,0,0,1,8.256-3.312A1.187,1.187,0,0,0-162.7-28.8a23.784,23.784,0,0,0,.528-3.888,2.289,2.289,0,0,0-.24-1.08,2.639,2.639,0,0,0-.864-.888q-.24-.144-.624-.36t-.384-.408q0-.192.36-.36a2.094,2.094,0,0,1,.888-.168,4.4,4.4,0,0,1,2.928,1.008,3.088,3.088,0,0,1,1.2,2.448,6.587,6.587,0,0,1-.264,1.728q-.264.96-.36,1.248a4.391,4.391,0,0,0-.192.72Zm-8.208,12.144a1.284,1.284,0,0,0,.624.24.865.865,0,0,0,.768-.576,52.842,52.842,0,0,0,2.928-8.064,1.064,1.064,0,0,0,.048-.336.666.666,0,0,0-.264-.576,1.061,1.061,0,0,0-.744-.144,15.783,15.783,0,0,0-6.864,3.312.965.965,0,0,0-.432.768,2.2,2.2,0,0,0,.192.672,11.93,11.93,0,0,0,2.64,3.744Zm-.72,3.456q-.048-.288-.624-.768a10.862,10.862,0,0,1-2.112-2.112,15.5,15.5,0,0,1-1.872-3.12q-.288-.576-.72-.576a.814.814,0,0,0-.672.432,17,17,0,0,0-1.944,3.888,12.288,12.288,0,0,0-.7,4.032,5.616,5.616,0,0,0,.552,2.544,1.654,1.654,0,0,0,1.464,1.1,5.389,5.389,0,0,0,3-1.392,17.834,17.834,0,0,0,3.576-3.936Zm50.112-17.616a5.664,5.664,0,0,1,1.176.528.856.856,0,0,1,.36.768,2.05,2.05,0,0,1-1.008,1.488,32.787,32.787,0,0,1-5.472,3.216,1.335,1.335,0,0,0-.864,1.056q-4.08,18.912-4.7,20.88A8.549,8.549,0,0,1-130.1-.456a1.369,1.369,0,0,1-1.1.648,1.882,1.882,0,0,1-1.344-.552,2,2,0,0,1-.576-1.512,3.32,3.32,0,0,1,.384-1.488,81.014,81.014,0,0,0,5.9-18.768l.048-.288a.635.635,0,0,0-.288-.6,1.2,1.2,0,0,0-.816-.072,12.925,12.925,0,0,1-2.928.384,6.723,6.723,0,0,1-4.56-2.3.919.919,0,0,1-.336-.576.255.255,0,0,1,.288-.288,1.842,1.842,0,0,1,.72.24,6.827,6.827,0,0,0,2.688.528,10.149,10.149,0,0,0,2.928-.48,23.56,23.56,0,0,0,2.3-.768,1.335,1.335,0,0,0,.864-1.056l.48-3.648a12,12,0,0,0,.1-1.488,4.183,4.183,0,0,0-.408-2.136,6.3,6.3,0,0,0-1.752-1.56q-.384-.24-.384-.48,0-.288.624-.288a6.424,6.424,0,0,1,1.368.192,7.483,7.483,0,0,1,1.464.48,6.142,6.142,0,0,1,1.584,1.056,2.224,2.224,0,0,1,.528,1.632,1.819,1.819,0,0,0,.432,1.3,8.039,8.039,0,0,0,1.488,1.056A15.144,15.144,0,0,0-118.584-30.624Zm-4.512,1.056a1.064,1.064,0,0,0-.048.336.873.873,0,0,0,.168.552.5.5,0,0,0,.408.216.769.769,0,0,0,.48-.192q.96-.72.96-1.1a1.559,1.559,0,0,0-.336-.864.965.965,0,0,0-.816-.528q-.48,0-.624.576Zm22.176,2.448a4.9,4.9,0,0,1,1.512,1.68,3.709,3.709,0,0,1,.552,1.68q0,.96-1.872,1.392a12.287,12.287,0,0,1-1.344.24,12.451,12.451,0,0,0-1.728.384,12.253,12.253,0,0,0-1.584.672,8.1,8.1,0,0,0-1.3.768,1.215,1.215,0,0,1-.576.192q-.24,0-.24-.192a.859.859,0,0,1,.24-.528q.24-.24,1.3-1.056,2.64-1.92,2.64-2.784,0-.48-.672-.96a7.148,7.148,0,0,0-2.208-1.1,7.461,7.461,0,0,0-2.064-.336,5.339,5.339,0,0,0-.96.072q-.384.072-.432.072-.672,0-.672-.384,0-.336.624-.576a10.518,10.518,0,0,1,3.6-.624,10.886,10.886,0,0,1,2.952.384A7.053,7.053,0,0,1-100.92-27.12Zm-1.632,23.712a3.6,3.6,0,0,1,1.824.336,1.531,1.531,0,0,1,.624.912,1.682,1.682,0,0,1,.1.528,1.7,1.7,0,0,1-1.416,1.68,13.745,13.745,0,0,1-3.864.432,17.181,17.181,0,0,1-8.352-1.8A6.16,6.16,0,0,1-116.9-7.152a7.865,7.865,0,0,1,.168-1.68,5.139,5.139,0,0,1,.312-1.056,5.439,5.439,0,0,1,.432-.864q.24-.384.48-.384.192,0,.192.336l-.1.864a5.481,5.481,0,0,0-.048.768,6.727,6.727,0,0,0,.384,2.112,5,5,0,0,0,1.44,2.112A6.523,6.523,0,0,0-111.12-3.6a12.568,12.568,0,0,0,3.816.528q.528,0,2.544-.192.672-.048,1.248-.1T-102.552-3.408Zm30.144,1.872a6.277,6.277,0,0,1-2.5-.72,14.4,14.4,0,0,1-3.36-2.352q-4.656-4.224-4.656-12a40.759,40.759,0,0,1,.528-5.9,25.9,25.9,0,0,0,.288-2.88,5.172,5.172,0,0,0-.408-2.088,5.553,5.553,0,0,0-1.416-1.848q-.288-.24-.288-.384t.192-.216A1.087,1.087,0,0,1-83.64-30a5.065,5.065,0,0,1,2.184.6,6.625,6.625,0,0,1,2.088,1.584,3.024,3.024,0,0,1,.864,1.992,5.449,5.449,0,0,1-.216,1.416q-.216.792-.5,1.656-.624,2.016-.936,3.456a16.01,16.01,0,0,0-.312,3.36,10.845,10.845,0,0,0,.984,4.68,10.024,10.024,0,0,0,2.3,3.264A3.75,3.75,0,0,0-74.9-6.816q.576,0,.768-1.008a37.41,37.41,0,0,1,.936-3.648,17.467,17.467,0,0,1,.792-2.16,3.076,3.076,0,0,1,.336-.6q.192-.264.336-.264t.144.288a5.76,5.76,0,0,1-.1.816,23.369,23.369,0,0,0-.48,4.464q0,.72.048,1.368t.1,1.032A6.326,6.326,0,0,0-71.5-4.464a6.17,6.17,0,0,1,.384,1.584,1.385,1.385,0,0,1-.336.984A1.249,1.249,0,0,1-72.408-1.536ZM-52.488-14.3a1.782,1.782,0,0,1-1.32-.384,3,3,0,0,1-.6-1.056q-.048-.1-.84-3.1a6.062,6.062,0,0,0-3.1-4.152,6.475,6.475,0,0,0-2.976-.576H-61.9q-.432,0-.432-.288,0-.192.48-.384a4.753,4.753,0,0,1,.936-.24,8.744,8.744,0,0,1,1.656-.144,8.1,8.1,0,0,1,5.808,2.352,9.163,9.163,0,0,1,2.352,3.24,7.515,7.515,0,0,1,.624,2.472A2.447,2.447,0,0,1-51.024-15,1.775,1.775,0,0,1-52.488-14.3ZM-26.328.624a21.67,21.67,0,0,1-4.1-.456,25.51,25.51,0,0,1-4.1-1.128,3.77,3.77,0,0,0-1.2-.192,3.074,3.074,0,0,0-1.92.768,1.037,1.037,0,0,1-.672.288q-.432,0-.672-.72L-40.92-8.88l-.048-.288q0-.24.48-.432l.288-.048a.585.585,0,0,1,.528.384q4.56,8.208,12.864,8.208a11.592,11.592,0,0,0,5.88-1.56q2.712-1.56,2.712-5.352a6.176,6.176,0,0,0-.96-3.288,7,7,0,0,0-2.784-2.52,21.794,21.794,0,0,0-2.88-1.248q-1.392-.48-3.408-1.1a33.669,33.669,0,0,1-4.224-1.44,11.821,11.821,0,0,1-5.064-3.84A8.389,8.389,0,0,1-38.9-26.064,10.444,10.444,0,0,1-38.04-30a8.529,8.529,0,0,1,3.1-3.7A10.224,10.224,0,0,1-28.92-35.28a14.466,14.466,0,0,1,2.976.312,26.1,26.1,0,0,1,3.264.936,4.892,4.892,0,0,0,1.3.24,2.607,2.607,0,0,0,1.68-.624,1.225,1.225,0,0,1,.72-.288q.48,0,.624.624l2.016,6.912.048.336q0,.288-.384.432a1.524,1.524,0,0,1-.432.1.564.564,0,0,1-.48-.288,18.15,18.15,0,0,0-2.064-2.592,16.508,16.508,0,0,0-3.984-3.072,10.94,10.94,0,0,0-5.568-1.44,6.587,6.587,0,0,0-4.512,1.368,6.324,6.324,0,0,0-1.968,2.784,8.1,8.1,0,0,0-.432,2.136q0,3.408,4.08,5.472a39.856,39.856,0,0,0,5.376,1.92q2.112.624,3.624,1.152a25.093,25.093,0,0,1,2.952,1.248A9.447,9.447,0,0,1-14.52-8.688a8.341,8.341,0,0,1-1.416,4.752A9.549,9.549,0,0,1-20.04-.6,15.048,15.048,0,0,1-26.328.624ZM23.5-1.344a.235.235,0,0,1,.24.216,2.1,2.1,0,0,1,.048.456Q23.784,0,23.5,0H9.864A.263.263,0,0,1,9.6-.168a1.344,1.344,0,0,1-.072-.5,1.344,1.344,0,0,1,.072-.5.263.263,0,0,1,.264-.168A8.307,8.307,0,0,0,13.032-1.9a1.994,1.994,0,0,0,1.344-1.992,3.205,3.205,0,0,0-.192-1.1L11.832-11.76a1.123,1.123,0,0,0-1.152-.816H-.84a1.123,1.123,0,0,0-1.152.816L-2.808-9.5-3.864-6.432A6.357,6.357,0,0,0-4.3-4.32q0,2.976,4.56,2.976a.235.235,0,0,1,.24.216,2.1,2.1,0,0,1,.048.456Q.552,0,.264,0H-11.544a.263.263,0,0,1-.264-.168,1.344,1.344,0,0,1-.072-.5,1.344,1.344,0,0,1,.072-.5.263.263,0,0,1,.264-.168A4.938,4.938,0,0,0-8.712-2.352,7.077,7.077,0,0,0-6.36-5.664L4.44-34.32a1.581,1.581,0,0,1,1.008-.96l.816-.24a1.956,1.956,0,0,1,.672-.144.556.556,0,0,1,.384.1.57.57,0,0,1,.288.336L9.24-30.48q1.632,4.656,4.92,14.112t3.864,10.9Q19.56-1.344,23.5-1.344ZM-.6-15.552a1.524,1.524,0,0,0-.1.432.639.639,0,0,0,.24.528,1.05,1.05,0,0,0,.672.192h9.5q.912,0,.912-.768l-.1-.384-4.8-13.824a2.689,2.689,0,0,0-.48-1.008q-.288-.336-.384-.1Q2.184-23.424-.6-15.552Zm43.3-19.3a14.69,14.69,0,0,1,5.64,1.176A10.512,10.512,0,0,1,52.56-30.48a7.659,7.659,0,0,1,1.608,4.848q0,5.184-3.528,7.176a21.251,21.251,0,0,1-9,2.376q-.624.048-2.736.048H37.176a1.006,1.006,0,0,0-.744.264,1.006,1.006,0,0,0-.264.744V-4.368a2.672,2.672,0,0,0,.96,2.352,5.684,5.684,0,0,0,3.168.672h.768q.336,0,.336.624,0,.72-.336.72H27.432Q27.1,0,27.1-.672t.336-.672H28.2a5.738,5.738,0,0,0,3.1-.672,2.591,2.591,0,0,0,1.032-2.352V-30.48a2.625,2.625,0,0,0-1.008-2.328,5.559,5.559,0,0,0-3.12-.7h-.768q-.336,0-.336-.672t.336-.672ZM39.912-17.424q5.376-.048,7.584-2.3a8.339,8.339,0,0,0,2.208-6.1q0-4.9-3.192-6.288A15.911,15.911,0,0,0,40.1-33.5q-3.936,0-3.936,3.024v12.048a1.006,1.006,0,0,0,.264.744,1.006,1.006,0,0,0,.744.264ZM74.136-34.848a14.69,14.69,0,0,1,5.64,1.176A10.512,10.512,0,0,1,84-30.48a7.659,7.659,0,0,1,1.608,4.848q0,5.184-3.528,7.176a21.251,21.251,0,0,1-9,2.376q-.624.048-2.736.048H68.616a1.006,1.006,0,0,0-.744.264,1.006,1.006,0,0,0-.264.744V-4.368a2.672,2.672,0,0,0,.96,2.352,5.684,5.684,0,0,0,3.168.672H72.5q.336,0,.336.624,0,.72-.336.72H58.872q-.336,0-.336-.672t.336-.672h.768a5.738,5.738,0,0,0,3.1-.672,2.591,2.591,0,0,0,1.032-2.352V-30.48a2.625,2.625,0,0,0-1.008-2.328,5.559,5.559,0,0,0-3.12-.7h-.768q-.336,0-.336-.672t.336-.672ZM71.352-17.424q5.376-.048,7.584-2.3a8.339,8.339,0,0,0,2.208-6.1q0-4.9-3.192-6.288A15.911,15.911,0,0,0,71.544-33.5q-3.936,0-3.936,3.024v12.048a1.006,1.006,0,0,0,.264.744,1.006,1.006,0,0,0,.744.264ZM105.816.672a14.606,14.606,0,0,1-7.368-2.088,16.308,16.308,0,0,1-5.976-6.168,19.189,19.189,0,0,1-2.352-9.744,19.088,19.088,0,0,1,2.352-9.7,16.308,16.308,0,0,1,5.976-6.168,14.606,14.606,0,0,1,7.368-2.088,14.478,14.478,0,0,1,7.344,2.088,16.371,16.371,0,0,1,5.952,6.168,19.088,19.088,0,0,1,2.352,9.7,19.189,19.189,0,0,1-2.352,9.744,16.371,16.371,0,0,1-5.952,6.168A14.478,14.478,0,0,1,105.816.672Zm0-1.584a9.169,9.169,0,0,0,5.448-1.848,12.989,12.989,0,0,0,4.176-5.568,22.631,22.631,0,0,0,1.608-9,22.317,22.317,0,0,0-1.608-8.928,13,13,0,0,0-4.176-5.544,9.169,9.169,0,0,0-5.448-1.848,9.274,9.274,0,0,0-5.472,1.848,12.757,12.757,0,0,0-4.176,5.544,22.615,22.615,0,0,0-1.584,8.928,22.934,22.934,0,0,0,1.584,9,12.744,12.744,0,0,0,4.176,5.568A9.274,9.274,0,0,0,105.816-.912Zm53.712-.432q.336,0,.336.624,0,.72-.336.72H152.04a1.285,1.285,0,0,1-1.2-.672q-1.776-3.168-4.56-7.9t-4.656-7.56a1.158,1.158,0,0,0-1.1-.624l-1.344.048h-2.112a1.006,1.006,0,0,0-.744.264,1.006,1.006,0,0,0-.264.744V-4.368a2.591,2.591,0,0,0,1.032,2.352,5.738,5.738,0,0,0,3.1.672h.768q.336,0,.336.624,0,.72-.336.72H127.32q-.336,0-.336-.672t.336-.672h.768a5.7,5.7,0,0,0,3.144-.672,2.643,2.643,0,0,0,.984-2.352V-30.48a2.568,2.568,0,0,0-1.056-2.352,5.87,5.87,0,0,0-3.12-.672h-.768q-.336,0-.336-.672v-.24a.409.409,0,0,1,.264-.36,2.184,2.184,0,0,1,.648-.072l10.464-.048h4.368a15.4,15.4,0,0,1,5.688,1.128,10.043,10.043,0,0,1,4.2,3.12,7.492,7.492,0,0,1,1.584,4.728,6.61,6.61,0,0,1-2.136,4.968,14.21,14.21,0,0,1-5.592,3.144q-.672.24-.672.72a1.056,1.056,0,0,0,.24.576q1.824,2.688,4.608,7.248l3.408,5.376A6.119,6.119,0,0,0,156.1-2.04,7.173,7.173,0,0,0,159.528-1.344ZM136.056-19.056a1.006,1.006,0,0,0,.264.744,1.006,1.006,0,0,0,.744.264h.432q6.864,0,9.552-2.3a7.325,7.325,0,0,0,2.688-5.808q0-3.936-2.808-5.616a13.1,13.1,0,0,0-6.84-1.68,6.587,6.587,0,0,0-2.928.552,2.442,2.442,0,0,0-1.1,2.424ZM179.208.672a14.606,14.606,0,0,1-7.368-2.088,16.308,16.308,0,0,1-5.976-6.168,19.189,19.189,0,0,1-2.352-9.744,19.088,19.088,0,0,1,2.352-9.7,16.308,16.308,0,0,1,5.976-6.168,14.606,14.606,0,0,1,7.368-2.088,14.478,14.478,0,0,1,7.344,2.088,16.371,16.371,0,0,1,5.952,6.168,19.088,19.088,0,0,1,2.352,9.7A19.189,19.189,0,0,1,192.5-7.584a16.371,16.371,0,0,1-5.952,6.168A14.478,14.478,0,0,1,179.208.672Zm0-1.584a9.169,9.169,0,0,0,5.448-1.848,12.989,12.989,0,0,0,4.176-5.568,22.63,22.63,0,0,0,1.608-9,22.317,22.317,0,0,0-1.608-8.928,13,13,0,0,0-4.176-5.544,9.169,9.169,0,0,0-5.448-1.848,9.274,9.274,0,0,0-5.472,1.848,12.757,12.757,0,0,0-4.176,5.544,22.615,22.615,0,0,0-1.584,8.928,22.934,22.934,0,0,0,1.584,9,12.744,12.744,0,0,0,4.176,5.568A9.274,9.274,0,0,0,179.208-.912Zm60.1.1A1.123,1.123,0,0,1,238.152,0H213.1a.263.263,0,0,1-.264-.168,1.344,1.344,0,0,1-.072-.5q0-.72.336-.72h.768a5.856,5.856,0,0,0,3.168-.648,2.606,2.606,0,0,0,.96-2.328V-30.48a2.616,2.616,0,0,0-1.008-2.352,5.719,5.719,0,0,0-3.12-.672H213.1q-.336,0-.336-.672t.336-.672h13.632a.3.3,0,0,1,.312.168,1.344,1.344,0,0,1,.072.5q0,.672-.384.672h-.72a5.667,5.667,0,0,0-3.168.7,2.625,2.625,0,0,0-1.008,2.328V-4.368a2.4,2.4,0,0,0,.984,2.232,6.988,6.988,0,0,0,3.192.7l1.1.048,1.92-.048A12.221,12.221,0,0,0,235.9-3.384a20.229,20.229,0,0,0,4.848-4.968.434.434,0,0,1,.384-.24,1.105,1.105,0,0,1,.432.144q.384.192.384.48l-.048.24-1.44,3.84ZM247.272,0q-.336,0-.336-.672t.336-.672h.768a5.542,5.542,0,0,0,3.144-.7,2.6,2.6,0,0,0,.984-2.28V-30.48a2.616,2.616,0,0,0-1.008-2.352,5.719,5.719,0,0,0-3.12-.672h-.768q-.336,0-.336-.672t.336-.672h13.584a.3.3,0,0,1,.312.168,1.344,1.344,0,0,1,.072.5q0,.672-.384.672h-.72a5.668,5.668,0,0,0-3.192.672,2.7,2.7,0,0,0-.936,2.352V-4.32a2.606,2.606,0,0,0,.96,2.328,5.856,5.856,0,0,0,3.168.648h.72a.3.3,0,0,1,.312.168,1.344,1.344,0,0,1,.072.5q0,.672-.384.672Zm47.712-29.424a.534.534,0,0,1,.048.24.413.413,0,0,1-.1.264.847.847,0,0,1-.288.216.682.682,0,0,1-.384.1.651.651,0,0,1-.48-.192,15.924,15.924,0,0,0-5.112-3.384,16.612,16.612,0,0,0-6.552-1.272h-1.2a20.57,20.57,0,0,0-3.024.168,2.958,2.958,0,0,0-1.68.792,2.766,2.766,0,0,0-.624,2.016v10.608a1.006,1.006,0,0,0,.264.744,1.006,1.006,0,0,0,.744.264h3.312q2.928,0,3.84-.048a4.085,4.085,0,0,0,3.144-1.344,4.792,4.792,0,0,0,1.128-3.264q0-.336.624-.336a1.344,1.344,0,0,1,.5.072.263.263,0,0,1,.168.264v10.992q0,.384-.672.384-.624,0-.624-.384a4.792,4.792,0,0,0-1.128-3.264,4.085,4.085,0,0,0-3.144-1.344q-.912-.048-3.84-.048H276.6a1.006,1.006,0,0,0-.744.264,1.006,1.006,0,0,0-.264.744V-4.368a2.652,2.652,0,0,0,.984,2.328,5.541,5.541,0,0,0,3.144.7h.768q.336,0,.336.624,0,.72-.336.72H266.856q-.336,0-.336-.672t.336-.672h.768a5.542,5.542,0,0,0,3.144-.7,2.652,2.652,0,0,0,.984-2.328V-30.48a2.591,2.591,0,0,0-1.032-2.352,5.738,5.738,0,0,0-3.1-.672h-.768q-.336,0-.336-.672t.336-.672h24.336q.864,0,1.536,1.344A41.479,41.479,0,0,1,294.984-29.424ZM328.92-8.5a.565.565,0,0,1,.432.576,3.374,3.374,0,0,1-.24.768q-1.584,3.984-2.4,6.336A1.122,1.122,0,0,1,325.56,0H299.784q-.336,0-.336-.672t.336-.672h.768a5.542,5.542,0,0,0,3.144-.7,2.652,2.652,0,0,0,.984-2.328V-30.48a2.591,2.591,0,0,0-1.032-2.352,5.738,5.738,0,0,0-3.1-.672h-.768q-.336,0-.336-.672t.336-.672H324.12a1.212,1.212,0,0,1,1.2.72q.816,1.392,1.536,2.736t1.056,1.968a.534.534,0,0,1,.048.24q0,.24-.384.48a.682.682,0,0,1-.384.1.651.651,0,0,1-.48-.192,15.862,15.862,0,0,0-5.136-3.384,16.664,16.664,0,0,0-6.528-1.272h-1.2a20.57,20.57,0,0,0-3.024.168,2.958,2.958,0,0,0-1.68.792,2.766,2.766,0,0,0-.624,2.016v10.608a1.006,1.006,0,0,0,.264.744,1.006,1.006,0,0,0,.744.264h3.312q2.928,0,3.84-.048a4.085,4.085,0,0,0,3.144-1.344,4.792,4.792,0,0,0,1.128-3.264q0-.336.624-.336a1.344,1.344,0,0,1,.5.072.263.263,0,0,1,.168.264v10.992q0,.384-.672.384-.624,0-.624-.384a4.792,4.792,0,0,0-1.128-3.264,4.085,4.085,0,0,0-3.144-1.344q-.912-.048-3.84-.048h-3.312a1.006,1.006,0,0,0-.744.264,1.006,1.006,0,0,0-.264.744V-4.368a2.438,2.438,0,0,0,1.008,2.256,6.671,6.671,0,0,0,3.12.72q.624.048,2.16.048,1.152,0,1.68-.048a14.482,14.482,0,0,0,5.088-1.248,13.072,13.072,0,0,0,3.48-2.328A35.764,35.764,0,0,0,328.1-8.4a.456.456,0,0,1,.384-.192A1.523,1.523,0,0,1,328.92-8.5Z" transform="translate(801 864)" fill="#fff"/>
      <g id="グループ_10" data-name="グループ 10" transform="translate(0 4)">
        <path id="パス_32346" data-name="パス 32346" d="M-289.762,1.012a.462.462,0,0,1,.154.33.422.422,0,0,1-.132.308.5.5,0,0,1-.33.132.462.462,0,0,1-.33-.154l-19.36-19.36a.591.591,0,0,1-.154-.33.444.444,0,0,1,.154-.308.422.422,0,0,1,.308-.132.462.462,0,0,1,.33.154Zm14.652-17.886q-.11-.242-.286-.242a.371.371,0,0,0-.308.22,25.746,25.746,0,0,1-4.136,4.785,28.359,28.359,0,0,1-5.324,3.949.72.72,0,0,1-.308.121.161.161,0,0,1-.176-.077v-.044q0-.154.286-.352a23.634,23.634,0,0,0,3.608-3.025,31.758,31.758,0,0,0,3.212-3.751,9.692,9.692,0,0,0,1.628-3.256.407.407,0,0,1,.4-.33.572.572,0,0,1,.176.022l1.65.528a.659.659,0,0,1,.264.143.283.283,0,0,1,.11.209q0,.132-.154.154a.494.494,0,0,0-.242.4.376.376,0,0,0,.066.176,17.3,17.3,0,0,0,3.6,3.773,27.777,27.777,0,0,0,4.939,3.113,1.192,1.192,0,0,1,.242.132.19.19,0,0,1,.088.154q0,.11-.374.286a1.448,1.448,0,0,0-.7.616.472.472,0,0,1-.352.242.583.583,0,0,1-.286-.088,23.375,23.375,0,0,1-4.466-3.553A17.018,17.018,0,0,1-275.11-16.874ZM-277.4-10.3a14.306,14.306,0,0,0-2.244.242h-.11a.467.467,0,0,1-.462-.308l-.088-.176a.548.548,0,0,1-.066-.242.263.263,0,0,1,.11-.231.443.443,0,0,1,.308-.055q.77.066,2.288.11h3.432a.632.632,0,0,0,.55-.286l.242-.352q.066-.088.2-.275a2.249,2.249,0,0,1,.231-.286.278.278,0,0,1,.187-.1q.176,0,.748.495a6.22,6.22,0,0,1,.858.869.379.379,0,0,1,.088.242.3.3,0,0,1-.088.22.572.572,0,0,1-.418.132Zm6.05,4.2a.293.293,0,0,0-.11-.242.444.444,0,0,0-.286-.088H-279.2a23.7,23.7,0,0,0-2.9.242h-.132a.452.452,0,0,1-.44-.286l-.088-.154a.586.586,0,0,1-.066-.264.242.242,0,0,1,.11-.209.443.443,0,0,1,.308-.055q.748.066,2.266.11h8.668a.689.689,0,0,0,.572-.286l.132-.176q.066-.066.231-.264t.3-.2q.154,0,.649.418a6,6,0,0,1,.781.77.3.3,0,0,1,.088.22.341.341,0,0,1-.242.308,1.406,1.406,0,0,1-.33.088.685.685,0,0,0-.528.374q-.616,1.452-1.562,3.509t-1.76,3.707q-.154.33-.352.352a.667.667,0,0,1-.2.022,2.242,2.242,0,0,1-.594-.11.39.39,0,0,1-.308-.374,1.008,1.008,0,0,1,.088-.308q1.76-3.542,3.124-6.908ZM-258.214.748a12.584,12.584,0,0,0-2.9-3.7l-.231-.176q-.143-.11-.143-.176,0-.11.154-.11a1.981,1.981,0,0,1,.4.088,9.495,9.495,0,0,1,1.8.748,9.233,9.233,0,0,1,1.991,1.353,2.179,2.179,0,0,1,.869,1.573,1.171,1.171,0,0,1-.3.88.943.943,0,0,1-.671.286Q-257.8,1.518-258.214.748Zm24.86-8.536q0-.4-.22-.4-.154,0-.308.286a18.147,18.147,0,0,1-3.234,4.686,1.089,1.089,0,0,1-.275.22.157.157,0,0,1-.187-.044.179.179,0,0,1-.044-.132.688.688,0,0,1,.154-.352,20.942,20.942,0,0,0,2.178-3.993,29.261,29.261,0,0,0,1.5-4.675l.022-.132a.336.336,0,0,0-.121-.275.488.488,0,0,0-.319-.1h-.66a10.544,10.544,0,0,0-1.716.22h-.132a.452.452,0,0,1-.44-.286l-.088-.176a.586.586,0,0,1-.066-.264.242.242,0,0,1,.11-.209.443.443,0,0,1,.308-.055q.726.066,2.2.11h.88a.461.461,0,0,0,.341-.121.461.461,0,0,0,.121-.341v-.2a34.5,34.5,0,0,0-.2-3.916v-.088q0-.374.33-.374a.7.7,0,0,1,.2.044q1.584.528,1.584.792,0,.11-.176.22l-.066.044a.621.621,0,0,0-.308.55v2.926a.461.461,0,0,0,.121.341.461.461,0,0,0,.341.121h.462a.632.632,0,0,0,.55-.286l.242-.33a3.167,3.167,0,0,0,.187-.264,1.58,1.58,0,0,1,.209-.264.3.3,0,0,1,.2-.11q.154,0,.715.473a4.816,4.816,0,0,1,.825.847.327.327,0,0,1,.088.242.336.336,0,0,1-.11.242.772.772,0,0,1-.418.11h-2.948a.461.461,0,0,0-.341.121.461.461,0,0,0-.121.341v1.254a.538.538,0,0,0,.374.528,6.464,6.464,0,0,1,2.321,1.617,2.673,2.673,0,0,1,.737,1.639.978.978,0,0,1-.187.616.6.6,0,0,1-.495.242.631.631,0,0,1-.286-.066.68.68,0,0,1-.374-.462,9.7,9.7,0,0,0-1.518-2.64.425.425,0,0,0-.308-.176q-.264,0-.264.4v5.148q.044,2.376.154,4.862V.858a.571.571,0,0,1-.176.418,1.566,1.566,0,0,1-.484.286,1.53,1.53,0,0,1-.55.11.6.6,0,0,1-.385-.132.387.387,0,0,1-.165-.308q.088-1.3.154-2.519t.088-3.2Zm6.622-5.83a35.85,35.85,0,0,0-.2-3.938v-.088a.367.367,0,0,1,.088-.253.307.307,0,0,1,.242-.1.7.7,0,0,1,.2.044q1.65.506,1.65.77,0,.11-.176.22l-.066.044a.621.621,0,0,0-.308.55V-1.034a.734.734,0,0,0,.209.6,1.482,1.482,0,0,0,.847.165h2.024q1.672,0,2-.044a.523.523,0,0,0,.242-.088.685.685,0,0,0,.176-.242,24.181,24.181,0,0,0,.682-3.168q.066-.418.22-.418.132,0,.132.462l.066,2.9a.678.678,0,0,0,.352.55.527.527,0,0,1,.286.462.586.586,0,0,1-.352.539,3.528,3.528,0,0,1-1.232.264q-.88.077-2.618.077h-2.2a2.989,2.989,0,0,1-1.782-.385,1.7,1.7,0,0,1-.484-1.4Zm18.37-.99a.621.621,0,0,0,.55-.308l.088-.154q.044-.066.132-.209a1.184,1.184,0,0,1,.154-.209.211.211,0,0,1,.154-.066,1.587,1.587,0,0,1,.638.385,5.814,5.814,0,0,1,.77.715.3.3,0,0,1,.088.22.373.373,0,0,1-.2.308,1.707,1.707,0,0,1-.22.088.518.518,0,0,0-.4.528v8.448a2.991,2.991,0,0,1-.176,1.166,1.049,1.049,0,0,1-.748.55.378.378,0,0,1-.154.022q-.308,0-.374-.418A1.356,1.356,0,0,0-208.23-4a.922.922,0,0,0-.352-.286,1.3,1.3,0,0,1-.286-.143q-.11-.077-.11-.143,0-.11.33-.11l.594.022q.264,0,.264-.33v-8.492a.461.461,0,0,0-.121-.341.461.461,0,0,0-.341-.121h-.506a.461.461,0,0,0-.341.121.461.461,0,0,0-.121.341V-4.07q.044,2.4.154,4.84V.858a.527.527,0,0,1-.22.462,1.614,1.614,0,0,1-.946.352.421.421,0,0,1-.3-.143.421.421,0,0,1-.143-.3q.088-1.3.154-2.519t.088-3.2v-9a.461.461,0,0,0-.121-.341.461.461,0,0,0-.341-.121h-.308a.461.461,0,0,0-.341.121.461.461,0,0,0-.121.341v5.17q.044,2.4.154,4.84v.11a.472.472,0,0,1-.22.44,1.456,1.456,0,0,1-.924.33.421.421,0,0,1-.3-.143.421.421,0,0,1-.143-.3q.088-1.144.143-2.255t.077-2.8v-2.772a33.831,33.831,0,0,0-.2-3.85v-.088a.4.4,0,0,1,.077-.253.23.23,0,0,1,.187-.1.548.548,0,0,1,.242.066l.726.352a1.177,1.177,0,0,0,.572.132h.352a.408.408,0,0,0,.462-.462q-.044-1.694-.154-2.772v-.088a.367.367,0,0,1,.088-.253.307.307,0,0,1,.242-.1.7.7,0,0,1,.2.044q1.474.462,1.474.748,0,.11-.176.22l-.066.044a.621.621,0,0,0-.308.55v1.606a.461.461,0,0,0,.121.341.461.461,0,0,0,.341.121Zm10.846-2.816a.621.621,0,0,0,.55-.308l.11-.154q.066-.088.154-.22a1.339,1.339,0,0,1,.154-.2.211.211,0,0,1,.154-.066,1.41,1.41,0,0,1,.594.341,3.92,3.92,0,0,1,.682.649.3.3,0,0,1,.088.22.339.339,0,0,1-.22.308l-.11.044a.541.541,0,0,0-.4.528v1.54q.066,2.288.11,3.476v.11a.472.472,0,0,1-.22.44,1.777,1.777,0,0,1-.99.286q-.242,0-.242-.4,0-.374-.462-.374h-5.808a.461.461,0,0,0-.341.121.461.461,0,0,0-.121.341v.088q0,.132-.319.286a1.73,1.73,0,0,1-.759.154.3.3,0,0,1-.253-.132.5.5,0,0,1-.1-.308q.088-.858.132-2.2v-1.32A32.365,32.365,0,0,0-205.3-17.6v-.088q0-.33.286-.33a.49.49,0,0,1,.22.044l.968.418a1.355,1.355,0,0,0,.572.132Zm-.044,2.728a.461.461,0,0,0,.341-.121.461.461,0,0,0,.121-.341v-1.166a.461.461,0,0,0-.121-.341.461.461,0,0,0-.341-.121h-5.808a.461.461,0,0,0-.341.121.461.461,0,0,0-.121.341v1.166a.461.461,0,0,0,.121.341.461.461,0,0,0,.341.121Zm-5.808.638a.461.461,0,0,0-.341.121.461.461,0,0,0-.121.341v1.276a.461.461,0,0,0,.121.341.461.461,0,0,0,.341.121h5.808a.461.461,0,0,0,.341-.121.461.461,0,0,0,.121-.341V-13.6a.461.461,0,0,0-.121-.341.461.461,0,0,0-.341-.121Zm6.358,8.1a.632.632,0,0,0,.55-.286l.22-.308q.066-.088.187-.264a1.941,1.941,0,0,1,.209-.264.254.254,0,0,1,.176-.088q.176,0,.715.462a4.55,4.55,0,0,1,.781.814.327.327,0,0,1,.088.242.336.336,0,0,1-.11.242.665.665,0,0,1-.4.11H-198a.461.461,0,0,0-.341.121.461.461,0,0,0-.121.341v4.6a.3.3,0,0,0,.1.264.963.963,0,0,0,.451.066h2.244a.491.491,0,0,0,.176-.066.455.455,0,0,0,.132-.2A18.412,18.412,0,0,0-194.9-2.42q.088-.418.242-.418.066,0,.11.121a1.038,1.038,0,0,1,.044.341l.044,1.892a.55.55,0,0,0,.066.286,1.658,1.658,0,0,0,.242.286.572.572,0,0,1,.132.418q0,.44-.583.649a7.666,7.666,0,0,1-2.211.209h-1.452a1.835,1.835,0,0,1-1.221-.286,1.379,1.379,0,0,1-.3-1.012V-4.84a.461.461,0,0,0-.121-.341.461.461,0,0,0-.341-.121h-1.012a.435.435,0,0,0-.484.44,8.067,8.067,0,0,1-1.628,4.081A8.222,8.222,0,0,1-207.2,1.584a1.055,1.055,0,0,1-.308.066.171.171,0,0,1-.176-.11V1.474q0-.132.33-.308a7.506,7.506,0,0,0,2.959-2.4,8.061,8.061,0,0,0,1.2-3.586v-.066q0-.418-.44-.418h-.55a7.375,7.375,0,0,0-1.342.2.572.572,0,0,1-.176.022.437.437,0,0,1-.418-.286l-.088-.176a.548.548,0,0,1-.066-.242.263.263,0,0,1,.11-.231.443.443,0,0,1,.308-.055q.792.066,2.288.11h1.782q.462,0,.462-.33a34.5,34.5,0,0,0-.2-3.916V-10.3q0-.352.308-.352a1.323,1.323,0,0,1,.22.044q1.474.462,1.474.7,0,.088-.176.2l-.022.022a.655.655,0,0,0-.308.55v2.706a.461.461,0,0,0,.121.341.461.461,0,0,0,.341.121Zm-.528-3.85q.11-.308.33-.308a.586.586,0,0,1,.264.066l.44.242a3.192,3.192,0,0,0,.528.22q.55.242.55.4,0,.11-.242.176l-.088.022a1.054,1.054,0,0,0-.506.33,15.917,15.917,0,0,1-2.024,1.958q-.308.242-.484.11a.19.19,0,0,1-.066-.132.928.928,0,0,1,.154-.374A13.422,13.422,0,0,0-197.538-9.812Zm-7.59.418a1.632,1.632,0,0,1-.176-.319q-.044-.121,0-.165a.127.127,0,0,1,.088-.022,1.415,1.415,0,0,1,.374.11,4.955,4.955,0,0,1,1.7,1.243,2.068,2.068,0,0,1,.539,1.265.942.942,0,0,1-.187.594.574.574,0,0,1-.473.242.9.9,0,0,1-.308-.066.634.634,0,0,1-.33-.462,6.262,6.262,0,0,0-.5-1.232A8.407,8.407,0,0,0-205.128-9.394Zm29.348-6.578a2.582,2.582,0,0,1,1.4.407,1.162,1.162,0,0,1,.649.979.449.449,0,0,1-.143.363.542.542,0,0,1-.363.121,6.625,6.625,0,0,1-1.232-.154l-.594-.088a5.076,5.076,0,0,0-.726-.066,4.787,4.787,0,0,0-1.265.165,5.169,5.169,0,0,0-.869.3,4.2,4.2,0,0,0-1.617,1.936,14.031,14.031,0,0,0-1.1,3.212,14.663,14.663,0,0,0-.385,3.08,4.869,4.869,0,0,0,.759,3.113,2.853,2.853,0,0,0,2.3.891l.616-.044a8.265,8.265,0,0,1,1.012-.088q1.584,0,1.584.77,0,.572-.891.759a8.707,8.707,0,0,1-1.793.187,5.833,5.833,0,0,1-2.871-.594,3.286,3.286,0,0,1-1.485-1.8,9.456,9.456,0,0,1-.44-3.168,11.692,11.692,0,0,1,.77-4.213,12.156,12.156,0,0,1,2-3.487q.682-.726.594-.682l-.088.022a11.918,11.918,0,0,0-1.749.583q-1.133.451-2.893,1.2l-.946.4q-.176.088-.77.4-.418.22-.66.33a1.209,1.209,0,0,1-.506.11,1.923,1.923,0,0,1-1.177-.506,4.5,4.5,0,0,1-.957-1.012.484.484,0,0,1-.11-.264.211.211,0,0,1,.066-.154.211.211,0,0,1,.154-.066.583.583,0,0,1,.286.088q.044.022.374.209a1.63,1.63,0,0,0,.814.187,2.641,2.641,0,0,0,.374-.044l1.342-.44q2.464-.836,4.521-1.441A24.426,24.426,0,0,1-178-15.312a2.722,2.722,0,0,0,.638-.165q.308-.121.4-.165A2.7,2.7,0,0,1-175.78-15.972Zm5.94-.242a.722.722,0,0,1-.407-.143,1.021,1.021,0,0,1-.341-.429,3.844,3.844,0,0,0-.561-.913,3.66,3.66,0,0,0-.825-.671q-.132-.088-.275-.165a1.737,1.737,0,0,1-.242-.154.214.214,0,0,1-.1-.165q0-.132.264-.132a4.126,4.126,0,0,1,1.243.253,4.232,4.232,0,0,1,1.342.726,1.4,1.4,0,0,1,.583,1.111.614.614,0,0,1-.209.528A.777.777,0,0,1-169.84-16.214Zm-2.42,1.43a.911.911,0,0,1-.462-.143.824.824,0,0,1-.352-.473,4.311,4.311,0,0,0-.539-1.089,2.9,2.9,0,0,0-.847-.781q-.066-.044-.209-.132a1.183,1.183,0,0,1-.209-.154.19.19,0,0,1-.066-.132q0-.154.22-.154a4.527,4.527,0,0,1,1.045.264,5.052,5.052,0,0,1,1.474.77,1.52,1.52,0,0,1,.671,1.254.73.73,0,0,1-.22.572A.734.734,0,0,1-172.26-14.784Zm21.406,2.222a2.924,2.924,0,0,1,.913.462,10.594,10.594,0,0,1,1.353,1q.616.539.616.891a.374.374,0,0,1-.242.4,2.212,2.212,0,0,1-.616.11,2.519,2.519,0,0,0-.7.11,3.2,3.2,0,0,0-.726.462q-1.452,1.166-2.277,1.8a15.063,15.063,0,0,1-1.617,1.1.371.371,0,0,0-.22.308.471.471,0,0,0,.2.308A2.848,2.848,0,0,1-152.812-3.5a1.152,1.152,0,0,1-.253.737.771.771,0,0,1-.627.319q-.748,0-1.254-1.1A8.9,8.9,0,0,0-156.365-5.6a6.948,6.948,0,0,0-2.211-1.749q-.308-.154-.308-.264,0-.088.176-.088a5.512,5.512,0,0,1,1.342.4,14.141,14.141,0,0,1,2.024.946.583.583,0,0,0,.286.088.485.485,0,0,0,.352-.154q3.3-3.036,3.3-4.488,0-.308-.352-.308-.308,0-3.718.451t-4.84.759a10.568,10.568,0,0,0-1.826.55,1.686,1.686,0,0,1-.528.132,1.8,1.8,0,0,1-1.166-.484,2.7,2.7,0,0,1-.77-.946.742.742,0,0,1-.088-.33q0-.154.088-.154a.717.717,0,0,1,.2.066q.154.066.286.11a3.745,3.745,0,0,0,1.188.176q.2,0,.726-.044a6.168,6.168,0,0,1,.66-.044q1.166-.066,5.214-.539a40.32,40.32,0,0,0,4.8-.715,1.313,1.313,0,0,0,.374-.2A.543.543,0,0,1-150.854-12.562Zm16.588,1.188q-.616,0-1.188-.88a4.223,4.223,0,0,0-1.32-1.276,6.83,6.83,0,0,0-1.738-.77,2.283,2.283,0,0,1-.286-.088q-.11-.044-.11-.11,0-.2,1.012-.2a8.558,8.558,0,0,1,1.925.231,4.273,4.273,0,0,1,1.661.737,1.862,1.862,0,0,1,.836,1.452.985.985,0,0,1-.209.649A.714.714,0,0,1-134.266-11.374Zm-4.2,8.316a2.808,2.808,0,0,1-.088-.682,1.251,1.251,0,0,1,.077-.473q.077-.187.143-.187t.2.242a2.033,2.033,0,0,0,.352.462,2.566,2.566,0,0,0,.407.341,1,1,0,0,0,.539.121,7.273,7.273,0,0,0,2.882-1.276,42.387,42.387,0,0,0,4.873-3.6,62.034,62.034,0,0,0,5.577-5.313q.2-.242.352-.242a.078.078,0,0,1,.088.088,1.088,1.088,0,0,1-.22.462,38.826,38.826,0,0,1-3.564,4.246q-2.068,2.156-3.993,3.839t-3.047,2.475a3.067,3.067,0,0,1-.44.286q-.2.132-.4.286a3.7,3.7,0,0,0-.44.418,1.375,1.375,0,0,1-1.056.528,2.073,2.073,0,0,1-1.4-.605A2.631,2.631,0,0,1-138.468-3.058Zm29.194-8.8a1.117,1.117,0,0,1-.462-.11.854.854,0,0,1-.352-.264,8.476,8.476,0,0,0-.979-1.023,7.589,7.589,0,0,0-1-.693,5.1,5.1,0,0,0-.605-.3,3.409,3.409,0,0,1-.407-.187.529.529,0,0,1-.132-.055.163.163,0,0,1-.11-.143q0-.2.748-.2a7.232,7.232,0,0,1,1.815.242,4.28,4.28,0,0,1,1.562.726,1.417,1.417,0,0,1,.627,1.144.99.99,0,0,1-.187.605A.607.607,0,0,1-109.274-11.858ZM-112.706-.33a.665.665,0,0,1-.506-.308,5.924,5.924,0,0,1-.825-1.54,4.607,4.607,0,0,1-.385-1.43q0-.374.22-.374.088,0,.242.2l.308.4a1.553,1.553,0,0,0,1.21.484,2.762,2.762,0,0,0,1.21-.286,31.633,31.633,0,0,0,6.193-3.861,30.312,30.312,0,0,0,5.467-5.4q.2-.286.374-.286a.117.117,0,0,1,.132.132.817.817,0,0,1-.154.418A28.856,28.856,0,0,1-103-7.645a40.057,40.057,0,0,1-4.389,3.773,34.15,34.15,0,0,1-3.9,2.53,3.889,3.889,0,0,0-.7.55,3.424,3.424,0,0,1-.4.352A.528.528,0,0,1-112.706-.33Zm1.122-7a.871.871,0,0,1-.407-.11,1.4,1.4,0,0,1-.341-.242,7.249,7.249,0,0,0-.858-.792q-.33-.242-.836-.55a5.579,5.579,0,0,0-.935-.451q-.407-.143-.517-.187-.176-.066-.176-.154,0-.132.473-.187a7.909,7.909,0,0,1,.913-.055,4.886,4.886,0,0,1,2.332.539,1.63,1.63,0,0,1,1.012,1.463.787.787,0,0,1-.176.506A.586.586,0,0,1-111.584-7.326Zm31.02-2.244a1.133,1.133,0,0,1,.55.286,4.261,4.261,0,0,1,.671.638,1.044,1.044,0,0,1,.3.506.486.486,0,0,1-.1.275,2.1,2.1,0,0,0-.121.187,2.242,2.242,0,0,0-.308.572q-.066.286-.165,1.958t-.121,2.332v.968a6.016,6.016,0,0,1-.022.66,1.085,1.085,0,0,1-.33.726.946.946,0,0,1-.572.176.4.4,0,0,1-.385-.275,1.486,1.486,0,0,1-.121-.605q0-.242-.286-.242l-.286.022q-3.564.22-4.356.33l-.528.088a2.558,2.558,0,0,1-.66.11.77.77,0,0,1-.517-.275,3.506,3.506,0,0,1-.473-.583.964.964,0,0,1-.176-.418q0-.154.132-.154a1.225,1.225,0,0,1,.264.088,2.836,2.836,0,0,0,.99.264q.616-.022,2.244-.088t3.234-.154a.435.435,0,0,0,.44-.484l.044-.594.066-.946V-4.29q0-.4-.242-.4l-.264.022q-3.388.132-4.026.132a5.862,5.862,0,0,0-.968.11,1.939,1.939,0,0,1-.462.066,1.24,1.24,0,0,1-.8-.352,1.58,1.58,0,0,1-.517-.726.488.488,0,0,1-.022-.154q0-.176.132-.176a.692.692,0,0,1,.242.088,3.664,3.664,0,0,0,.352.154,3,3,0,0,0,.638.11q.66-.022,2.332-.088t3.3-.154A.451.451,0,0,0-81-6.116l.154-1.914a.215.215,0,0,0-.044-.154.3.3,0,0,0-.2-.044q-.726.022-2.552.1t-2.42.143a5.5,5.5,0,0,0-.726.11,5.541,5.541,0,0,1-.682.088.993.993,0,0,1-.649-.275,2.744,2.744,0,0,1-.539-.627.928.928,0,0,1-.154-.374.222.222,0,0,1,.044-.143.135.135,0,0,1,.11-.055.465.465,0,0,1,.22.077q.132.077.2.121a3.389,3.389,0,0,0,1.452.22q1.232,0,3.113-.077a9.192,9.192,0,0,0,2.211-.231,4.677,4.677,0,0,0,.5-.264A.858.858,0,0,1-80.564-9.57Zm18.238-1.8q-.616,0-1.188-.88a4.223,4.223,0,0,0-1.32-1.276,6.83,6.83,0,0,0-1.738-.77,2.284,2.284,0,0,1-.286-.088q-.11-.044-.11-.11,0-.2,1.012-.2a8.558,8.558,0,0,1,1.925.231,4.273,4.273,0,0,1,1.661.737,1.862,1.862,0,0,1,.836,1.452.985.985,0,0,1-.209.649A.714.714,0,0,1-62.326-11.374Zm-4.2,8.316a2.808,2.808,0,0,1-.088-.682,1.251,1.251,0,0,1,.077-.473q.077-.187.143-.187t.2.242a2.033,2.033,0,0,0,.352.462,2.566,2.566,0,0,0,.407.341,1,1,0,0,0,.539.121A7.273,7.273,0,0,0-62.018-4.51a42.387,42.387,0,0,0,4.873-3.6,62.033,62.033,0,0,0,5.577-5.313q.2-.242.352-.242a.078.078,0,0,1,.088.088,1.088,1.088,0,0,1-.22.462,38.826,38.826,0,0,1-3.564,4.246Q-56.98-6.71-58.9-5.027t-3.047,2.475a3.065,3.065,0,0,1-.44.286q-.2.132-.4.286a3.7,3.7,0,0,0-.44.418,1.375,1.375,0,0,1-1.056.528,2.073,2.073,0,0,1-1.4-.605A2.631,2.631,0,0,1-66.528-3.058Zm36.3-9.482a1.967,1.967,0,0,1,1.287.462,1.515,1.515,0,0,1,.561,1.232,2.1,2.1,0,0,1-.858,1.683A10.162,10.162,0,0,1-31.57-7.832l-1.672.66q-.418.176-.869.352t-.935.374a.61.61,0,0,0-.374.528q-.022.352-.022,1.078,0,1.562-.022,1.76a.809.809,0,0,1-.275.561.789.789,0,0,1-.539.231.584.584,0,0,1-.462-.242.845.845,0,0,1-.2-.55,7.558,7.558,0,0,1,.066-.792l.088-1.056v-.044q0-.4-.286-.4a.409.409,0,0,0-.264.088A5.85,5.85,0,0,0-38.9-3.971a2.4,2.4,0,0,0-.55,1.529q0,1.672,3.344,1.672a6.284,6.284,0,0,0,1.034-.088q.528-.088.99-.2a6.69,6.69,0,0,1,1.364-.2q.858,0,.858.594,0,.66-1.232.924a12.255,12.255,0,0,1-2.574.264q-2.75,0-3.674-.825A2.6,2.6,0,0,1-40.26-2.31a2.923,2.923,0,0,1,.847-2.079,9.608,9.608,0,0,1,2.387-1.727.627.627,0,0,0,.352-.528v-.33q0-2.31-1.364-2.31a2.387,2.387,0,0,0-1.661.946A23.13,23.13,0,0,0-41.382-6.27q-.066.088-.308.451a3.847,3.847,0,0,1-.462.583.6.6,0,0,1-.374.22A.653.653,0,0,1-43.1-5.3a1.168,1.168,0,0,1-.2-.682,1.137,1.137,0,0,1,.242-.792l.4-.352q.7-.66,1.21-1.188a6.339,6.339,0,0,0,.9-1.21A20.7,20.7,0,0,0-38.94-13a.667.667,0,0,0,.022-.2q0-.33-.462-.264a9.337,9.337,0,0,1-1.056.088,2.839,2.839,0,0,1-1.232-.242,6.931,6.931,0,0,1-1.21-.792.177.177,0,0,1-.088-.132q0-.088.11-.088a1.281,1.281,0,0,1,.308.066,4.225,4.225,0,0,0,1.5.264,7.757,7.757,0,0,0,2.288-.374.666.666,0,0,0,.44-.484,5.076,5.076,0,0,0,.066-.726,1.751,1.751,0,0,0-.682-1.43.238.238,0,0,1-.11-.176.314.314,0,0,1,.352-.33,3.953,3.953,0,0,1,.748.132,1.272,1.272,0,0,1,.682.308.781.781,0,0,1,.11.484v.044q0,.462.308.572a2.634,2.634,0,0,0,.594.066,1.232,1.232,0,0,0,.462-.066,2.238,2.238,0,0,1,.44-.044q.506,0,.506.374a.983.983,0,0,1-.341.638,3.276,3.276,0,0,1-.847.616,10.866,10.866,0,0,1-1.5.682.8.8,0,0,0-.44.462q-.528,1.716-1.166,3.278a.668.668,0,0,0-.066.242.156.156,0,0,0,.176.176l.2-.044a2.378,2.378,0,0,1,.66-.11,2.28,2.28,0,0,1,2.354,1.694q.11.242.176.242.088,0,.176-.22a9.785,9.785,0,0,1,1.76-2.53,6.041,6.041,0,0,1,1.628-1.21A4,4,0,0,1-30.228-12.54Zm-6.93-3.432q-.088,0-.2.352,0,.352.132.264l.22-.132q.154-.088.154-.176t-.176-.22l-.11-.088Zm5.06,7.348a7.211,7.211,0,0,0,1.749-1.4,2.146,2.146,0,0,0,.671-1.243q0-.638-.836-.638a2.938,2.938,0,0,0-1.364.418,6.211,6.211,0,0,0-1.43,1.078,6.274,6.274,0,0,0-.9,1.188,12.853,12.853,0,0,0-.77,1.474l-.264.7v.022l.286-.132.462-.22Q-32.714-8.25-32.1-8.624Zm28.71,4.4q.154,0,.594.407a4.317,4.317,0,0,1,.66.737.409.409,0,0,1,.088.264.336.336,0,0,1-.11.242.627.627,0,0,1-.374.11H-3.806a.461.461,0,0,0-.341.121A.461.461,0,0,0-4.268-2V-.264A2.223,2.223,0,0,1-4.565,1a1.965,1.965,0,0,1-1.309.605l-.132.022q-.308,0-.418-.4A.991.991,0,0,0-6.754.7,3.149,3.149,0,0,0-8.008.264Q-8.448.2-8.448.022q0-.154.374-.154.44,0,1.32.088L-6.028,0a.477.477,0,0,0,.363-.11.518.518,0,0,0,.1-.352V-2a.461.461,0,0,0-.121-.341.461.461,0,0,0-.341-.121h-5.654a.461.461,0,0,0-.341.121A.461.461,0,0,0-12.144-2v.792l.044.968q0,.374.044,1.078V.968a.571.571,0,0,1-.176.418,1.456,1.456,0,0,1-.924.33.3.3,0,0,1-.253-.132.5.5,0,0,1-.1-.308q.088-.924.132-2.332V-2a.461.461,0,0,0-.121-.341.461.461,0,0,0-.341-.121h-.044a1.043,1.043,0,0,0-.374.088.693.693,0,0,1-.264.066.4.4,0,0,1-.352-.264l-.044-.088a.548.548,0,0,1-.066-.242.255.255,0,0,1,.077-.187.282.282,0,0,1,.209-.077,2.168,2.168,0,0,1,.352.033,2.4,2.4,0,0,0,.4.033h.11a.461.461,0,0,0,.341-.121.461.461,0,0,0,.121-.341v-1.65a33.832,33.832,0,0,0-.2-3.85v-.088a.4.4,0,0,1,.077-.253.23.23,0,0,1,.187-.1.548.548,0,0,1,.242.066l.77.374a1.177,1.177,0,0,0,.572.132h1.76a.461.461,0,0,0,.341-.121A.461.461,0,0,0-9.5-9.394v-.66a.461.461,0,0,0-.121-.341.461.461,0,0,0-.341-.121h-1.3a23.7,23.7,0,0,0-2.9.242H-14.3a.452.452,0,0,1-.44-.286l-.088-.176a.548.548,0,0,1-.066-.242.242.242,0,0,1,.11-.209.489.489,0,0,1,.33-.055q.572.044,1.672.088h.66a.461.461,0,0,0,.341-.121.461.461,0,0,0,.121-.341v-.968a.461.461,0,0,0-.121-.341.461.461,0,0,0-.341-.121h-.352a4.15,4.15,0,0,0-.99.176.572.572,0,0,1-.176.022.48.48,0,0,1-.44-.286l-.066-.154a.586.586,0,0,1-.066-.264q0-.286.418-.242.4.044,1.232.088h.44a.461.461,0,0,0,.341-.121.461.461,0,0,0,.121-.341V-15a.461.461,0,0,0-.121-.341.461.461,0,0,0-.341-.121h-.484a5.879,5.879,0,0,0-1.21.176.7.7,0,0,1-.2.044.466.466,0,0,1-.418-.286l-.066-.154a.548.548,0,0,1-.066-.242q0-.308.44-.264.484.044,1.452.088h.55a.408.408,0,0,0,.462-.462l-.066-1.3v-.088q0-.33.308-.33a1.323,1.323,0,0,1,.22.044q1.32.44,1.32.7,0,.088-.176.2l-.022.022a.655.655,0,0,0-.308.55v.2a.461.461,0,0,0,.121.341.461.461,0,0,0,.341.121h2a.408.408,0,0,0,.462-.462l-.066-1.3v-.088q0-.33.308-.33a1.323,1.323,0,0,1,.22.044q1.32.462,1.32.7,0,.088-.154.2l-.022.022a.655.655,0,0,0-.308.55v.2a.461.461,0,0,0,.121.341.431.431,0,0,0,.319.121h.066a.632.632,0,0,0,.55-.286l.22-.308q.088-.11.209-.275a2.251,2.251,0,0,1,.209-.253.254.254,0,0,1,.176-.088,1.821,1.821,0,0,1,.693.451,4.312,4.312,0,0,1,.781.8.484.484,0,0,1,.11.264.315.315,0,0,1-.132.242.792.792,0,0,1-.4.088H-5.7a.461.461,0,0,0-.341.121A.461.461,0,0,0-6.16-15v.836a.461.461,0,0,0,.121.341.431.431,0,0,0,.319.121h.066a.632.632,0,0,0,.55-.286l.154-.22q.066-.088.165-.242a1.033,1.033,0,0,1,.176-.22.249.249,0,0,1,.165-.066q.154,0,.594.374a4.287,4.287,0,0,1,.682.7.675.675,0,0,1,.088.264.315.315,0,0,1-.132.242.665.665,0,0,1-.4.11H-5.7a.461.461,0,0,0-.341.121.461.461,0,0,0-.121.341v.968a.461.461,0,0,0,.121.341.461.461,0,0,0,.341.121h.55a.621.621,0,0,0,.55-.308l.2-.286L-4.213-12A2.251,2.251,0,0,1-4-12.254a.254.254,0,0,1,.176-.088,1.829,1.829,0,0,1,.693.44,4.829,4.829,0,0,1,.8.792.327.327,0,0,1,.088.242.336.336,0,0,1-.11.242.665.665,0,0,1-.4.11H-7.766a.461.461,0,0,0-.341.121.461.461,0,0,0-.121.341v.66a.461.461,0,0,0,.121.341.461.461,0,0,0,.341.121H-6.16a.639.639,0,0,0,.572-.308l.11-.2q.066-.088.154-.231a1.183,1.183,0,0,1,.154-.209.211.211,0,0,1,.154-.066,1.74,1.74,0,0,1,.671.407,5.113,5.113,0,0,1,.8.759.3.3,0,0,1,.088.22.373.373,0,0,1-.2.308,1.707,1.707,0,0,1-.22.088.541.541,0,0,0-.4.528v3.52L-4.246-3.1l.352-.55q.066-.088.165-.253a1.3,1.3,0,0,1,.176-.242A.231.231,0,0,1-3.388-4.224ZM-18.7-3.256a3.423,3.423,0,0,0,.528.22q.528.176.528.352,0,.088-.242.154h-.044a.713.713,0,0,0-.484.4,13.214,13.214,0,0,1-1.221,1.9,9.592,9.592,0,0,1-1.551,1.617q-.374.308-.462.154a.245.245,0,0,1-.022-.11.688.688,0,0,1,.154-.352,5.292,5.292,0,0,0,.374-.55,11.067,11.067,0,0,0,.781-1.562A11.394,11.394,0,0,0-19.8-2.75a.667.667,0,0,0,.022-.2q0-.286-.2-.286a1.02,1.02,0,0,0-.2.022,1.119,1.119,0,0,1-.22.022.421.421,0,0,1-.3-.143.421.421,0,0,1-.143-.3q.088-1.3.154-2.519t.088-3.2v-4.026a34.053,34.053,0,0,0-.2-3.872v-.088q0-.352.286-.352a.49.49,0,0,1,.22.044l.924.4a1.315,1.315,0,0,0,.55.11h1.738a.621.621,0,0,0,.55-.308l.11-.176q.066-.088.154-.231a1.183,1.183,0,0,1,.154-.209.211.211,0,0,1,.154-.066,1.485,1.485,0,0,1,.616.374,3.963,3.963,0,0,1,.7.7.379.379,0,0,1,.088.242.325.325,0,0,1-.2.286l-.088.044a.854.854,0,0,1-.11.044.5.5,0,0,0-.4.506v6.754q.044,2.42.154,4.818v.088a.532.532,0,0,1-.242.484,1.7,1.7,0,0,1-1.012.352q-.176,0-.176-.462v-.132a.461.461,0,0,0-.121-.341.461.461,0,0,0-.341-.121h-1.8a.461.461,0,0,0-.341.121.461.461,0,0,0-.121.341v.4a.09.09,0,0,1-.022.066Zm2.09-12.76a.461.461,0,0,0-.121-.341.461.461,0,0,0-.341-.121h-1.8a.461.461,0,0,0-.341.121.461.461,0,0,0-.121.341v2.354a.461.461,0,0,0,.121.341.461.461,0,0,0,.341.121h1.8a.461.461,0,0,0,.341-.121.461.461,0,0,0,.121-.341ZM-7.458-15a.461.461,0,0,0-.121-.341.461.461,0,0,0-.341-.121h-2a.461.461,0,0,0-.341.121.461.461,0,0,0-.121.341v.836a.461.461,0,0,0,.121.341.461.461,0,0,0,.341.121h2a.461.461,0,0,0,.341-.121.461.461,0,0,0,.121-.341Zm-2.464,1.958a.461.461,0,0,0-.341.121.461.461,0,0,0-.121.341v.968a.461.461,0,0,0,.121.341.461.461,0,0,0,.341.121h2a.461.461,0,0,0,.341-.121.461.461,0,0,0,.121-.341v-.968a.461.461,0,0,0-.121-.341.461.461,0,0,0-.341-.121Zm-6.688.946a.461.461,0,0,0-.121-.341.461.461,0,0,0-.341-.121h-1.8a.461.461,0,0,0-.341.121.461.461,0,0,0-.121.341v2.42a.461.461,0,0,0,.121.341.461.461,0,0,0,.341.121h1.8a.461.461,0,0,0,.341-.121.461.461,0,0,0,.121-.341Zm0,3.982a.461.461,0,0,0-.121-.341.461.461,0,0,0-.341-.121h-1.8a.461.461,0,0,0-.341.121.461.461,0,0,0-.121.341v2.53a.461.461,0,0,0,.121.341.461.461,0,0,0,.341.121h1.8a.461.461,0,0,0,.341-.121.461.461,0,0,0,.121-.341Zm4.466,1.562a.461.461,0,0,0,.121.341.461.461,0,0,0,.341.121h1.716a.461.461,0,0,0,.341-.121A.461.461,0,0,0-9.5-6.556V-7.832a.461.461,0,0,0-.121-.341.461.461,0,0,0-.341-.121h-1.716a.461.461,0,0,0-.341.121.461.461,0,0,0-.121.341Zm3.916,0a.461.461,0,0,0,.121.341.461.461,0,0,0,.341.121h1.738a.461.461,0,0,0,.341-.121.461.461,0,0,0,.121-.341V-7.832a.461.461,0,0,0-.121-.341.461.461,0,0,0-.341-.121H-7.766a.461.461,0,0,0-.341.121.461.461,0,0,0-.121.341Zm-3.916,2.992a.461.461,0,0,0,.121.341.461.461,0,0,0,.341.121h1.716a.461.461,0,0,0,.341-.121A.461.461,0,0,0-9.5-3.564V-4.972a.461.461,0,0,0-.121-.341.461.461,0,0,0-.341-.121h-1.716a.461.461,0,0,0-.341.121.461.461,0,0,0-.121.341Zm3.916,0a.461.461,0,0,0,.121.341.461.461,0,0,0,.341.121h1.738a.461.461,0,0,0,.341-.121.461.461,0,0,0,.121-.341V-4.972a.461.461,0,0,0-.121-.341.461.461,0,0,0-.341-.121H-7.766a.461.461,0,0,0-.341.121.461.461,0,0,0-.121.341Zm-9.152.638q-.22-.418-.132-.484a.127.127,0,0,1,.088-.022.538.538,0,0,1,.352.154,5.59,5.59,0,0,1,1.683,1.529A2.694,2.694,0,0,1-14.85-.286a1.145,1.145,0,0,1-.2.7.588.588,0,0,1-.484.264.631.631,0,0,1-.286-.066A.6.6,0,0,1-16.126.11,6.421,6.421,0,0,0-16.577-1.4,10.452,10.452,0,0,0-17.38-2.926Zm29.546-6.49q-.066-.308-.176-.308t-.176.308A17.559,17.559,0,0,1,8.492-2.9,17.174,17.174,0,0,1,2.926,1.518q-.418.2-.506.044A.09.09,0,0,1,2.4,1.5q0-.154.308-.352A16.165,16.165,0,0,0,8.481-4.884a22.663,22.663,0,0,0,2.761-9.394v-1.188a.461.461,0,0,0-.121-.341.461.461,0,0,0-.341-.121H9.614a17.8,17.8,0,0,0-2.552.242H6.93a.452.452,0,0,1-.44-.286L6.4-16.148a.586.586,0,0,1-.066-.264.242.242,0,0,1,.11-.209.443.443,0,0,1,.308-.055q.748.066,2.266.11h1.43a.621.621,0,0,0,.55-.308l.418-.682a.41.41,0,0,1,.374-.242.387.387,0,0,1,.286.11l1.54,1.21a.477.477,0,0,1,.22.352.361.361,0,0,1-.2.286,4.42,4.42,0,0,1-1.32.374.451.451,0,0,0-.44.484l.022.638a19.587,19.587,0,0,0,2.915,8.8A15.167,15.167,0,0,0,21.384.044q.154.088.264.154t.11.132q0,.066-.088.11A.551.551,0,0,1,21.483.5a.455.455,0,0,0-.143.033,1.538,1.538,0,0,0-.9.77q-.264.418-.528.264a17.327,17.327,0,0,1-4.807-4.5A16.657,16.657,0,0,1,12.166-9.416Zm31.24-4.422a2.564,2.564,0,0,1,.836.275.566.566,0,0,1,.264.517q0,.594-.726.594-.022,0-.858-.088a36.346,36.346,0,0,0-4.026-.286q-.462,0-1.3.044-.44,0-.44.462-.044,1.628-.044,2.442v1.144a1.664,1.664,0,0,0,.154.572,8.534,8.534,0,0,1,.594,1.639,6.468,6.468,0,0,1,.22,1.573,5.43,5.43,0,0,1-.858,3.1,6.467,6.467,0,0,1-2,1.969,7.819,7.819,0,0,1-2.112.935.932.932,0,0,1-.22.044q-.154,0-.154-.11,0-.154.242-.242a5.538,5.538,0,0,0,2.937-2.5,6.311,6.311,0,0,0,.715-2.629q0-.022-.121.077t-.341.253a1.766,1.766,0,0,1-.924.374,1.558,1.558,0,0,1-1.111-.451,3.416,3.416,0,0,1-.759-1.089,6.543,6.543,0,0,1-.418-1.21A5,5,0,0,1,32.8-7.59a2.839,2.839,0,0,1,.561-1.771,1.863,1.863,0,0,1,1.573-.737,1.955,1.955,0,0,1,.616.11.549.549,0,0,0,.242.044q.264,0,.286-.286a14.4,14.4,0,0,0,.154-1.936.433.433,0,0,0-.132-.352.5.5,0,0,0-.374-.088,19.384,19.384,0,0,0-4.466,1.43q-.484.22-.858.352a2.572,2.572,0,0,1-.858.132,2.5,2.5,0,0,1-1.254-.352,4.037,4.037,0,0,1-.88-.7q-.4-.418-.4-.638,0-.132.154-.132a2.242,2.242,0,0,1,.594.11,5.869,5.869,0,0,0,1.144.154,7.08,7.08,0,0,0,1.584-.2q.748-.154,2.189-.418t3.113-.528a.431.431,0,0,0,.418-.462q0-.242-.044-.858l-.022-.55a2.652,2.652,0,0,0-.242-1.023,1.9,1.9,0,0,0-.462-.671,3.319,3.319,0,0,0-.319-.242q-.165-.11-.165-.176,0-.154.275-.242a1.763,1.763,0,0,1,.539-.088,1.789,1.789,0,0,1,.77.176q.946.418.946,1.056a.818.818,0,0,1-.022.2l-.022.154a.517.517,0,0,0,.264.44,15.341,15.341,0,0,0,3.014,1.43A8.829,8.829,0,0,0,41.866-14q.528.077.924.1A5.485,5.485,0,0,1,43.406-13.838Zm-4.73.066q.11,0,.319-.011a1.264,1.264,0,0,0,.308-.044q.1-.033.1-.1,0-.088-.143-.176a1.175,1.175,0,0,1-.187-.132l-1.232-.88a.589.589,0,0,0-.286-.11q-.264,0-.308.374-.022.22-.022.792,0,.44.66.374ZM35-5.324a.927.927,0,0,0,.759-.374,2,2,0,0,0,.3-1.232,4.877,4.877,0,0,0-.308-1.65q-.308-.858-.968-.858a1.1,1.1,0,0,0-.957.55,2.6,2.6,0,0,0-.363,1.452A2.417,2.417,0,0,0,33.946-6,1.338,1.338,0,0,0,35-5.324ZM60.808-9.042a5.906,5.906,0,0,1,2.31.462,4.2,4.2,0,0,1,1.8,1.43,3.931,3.931,0,0,1,.7,2.376,3.856,3.856,0,0,1-.814,2.42,5.43,5.43,0,0,1-2.1,1.639,6.409,6.409,0,0,1-2.673.583,4.206,4.206,0,0,1-2.09-.517,1.576,1.576,0,0,1-.924-1.419,1.431,1.431,0,0,1,.594-1.2,2.195,2.195,0,0,1,1.364-.451,2.639,2.639,0,0,1,1.463.451,3.024,3.024,0,0,1,1.089,1.309q.132.308.374.308a.548.548,0,0,0,.242-.066,4.755,4.755,0,0,0,1.529-1.452,3.362,3.362,0,0,0,.583-1.892,2.864,2.864,0,0,0-1.144-2.519,4.516,4.516,0,0,0-2.662-.8,4.3,4.3,0,0,0-2.6.869,9.823,9.823,0,0,0-2.42,2.959q-.11.176-.33.561a2.258,2.258,0,0,1-.418.561.647.647,0,0,1-.44.176.69.69,0,0,1-.583-.242.908.908,0,0,1-.187-.572A2.416,2.416,0,0,1,54-5.423q.517-.737,1.573-1.947,1.078-1.232,2.574-3.1t1.826-2.288l.682-.858.275-.33a2.166,2.166,0,0,0,.242-.341.58.58,0,0,0,.077-.275.644.644,0,0,0-.165-.418.457.457,0,0,0-.341-.2.821.821,0,0,0-.572.374A6.161,6.161,0,0,1,58.74-13.5a2.765,2.765,0,0,1-1.5.517q-1.188,0-1.364-1.628l-.022-.418q0-.176.088-.176.066,0,.374.352a.819.819,0,0,0,.594.308,3.815,3.815,0,0,0,1.144-.341,13.7,13.7,0,0,0,1.738-.869,1.787,1.787,0,0,1,.9-.308,2.474,2.474,0,0,1,.935.242,3.322,3.322,0,0,1,.979.638,1.153,1.153,0,0,1,.418.836,1.159,1.159,0,0,1-.528.946A30.388,30.388,0,0,0,57.97-8.932a.456.456,0,0,0-.132.286q0,.22.242.22a.548.548,0,0,0,.242-.066A5.948,5.948,0,0,1,60.808-9.042Zm-.88,7.964q.462-.264.352-.528a1.593,1.593,0,0,0-1.54-1.166.836.836,0,0,0-.594.187.6.6,0,0,0-.2.451q0,.418.627.737A2.941,2.941,0,0,0,59.928-1.078ZM82.412-17.622a.389.389,0,0,1,.121-.319A.4.4,0,0,1,82.874-18l.572.11q.088.022.55.066.682.022.682.22,0,.11-.2.242l-.044.044a.652.652,0,0,0-.286.572,34.078,34.078,0,0,0,1.144,7.249A15.354,15.354,0,0,0,88.11-4.048,15.915,15.915,0,0,0,93.368.044Q93.72.2,93.72.33q0,.066-.11.11a2.284,2.284,0,0,1-.286.088,1.509,1.509,0,0,0-.946.7A.441.441,0,0,1,92,1.5a.548.548,0,0,1-.242-.066A14.149,14.149,0,0,1,86.4-4.136a24.026,24.026,0,0,1-2.343-8.14q-.066-.33-.11-.33t-.088.308A22.013,22.013,0,0,1,82.731-7.15,14.868,14.868,0,0,1,80-2.552a18.446,18.446,0,0,1-5.071,4.026.752.752,0,0,1-.352.132.254.254,0,0,1-.176-.088.174.174,0,0,1-.022-.11q0-.154.286-.352a17.984,17.984,0,0,0,4.653-4.411A15.821,15.821,0,0,0,81.7-8.239a25.4,25.4,0,0,0,.847-5.489q.022-.33.022-.99a26.706,26.706,0,0,0-.154-2.816Zm33.572.484a5.968,5.968,0,0,1,1.936.33,1.2,1.2,0,0,1,.968,1.166.571.571,0,0,1-.187.451.58.58,0,0,1-.385.165.941.941,0,0,1-.77-.352,4.161,4.161,0,0,0-.715-.748,3.553,3.553,0,0,0-.935-.484,2.345,2.345,0,0,0-.33-.1,1.31,1.31,0,0,1-.253-.077.142.142,0,0,1-.1-.132Q115.214-17.138,115.984-17.138Zm-8.14,5.236a2.217,2.217,0,0,1,1.947.891,4.246,4.246,0,0,1,.627,2.475,14.676,14.676,0,0,1-.242,2.244,17.011,17.011,0,0,1-.748,2.882,5.762,5.762,0,0,1-1.254,2.178,4.728,4.728,0,0,1-.814.66,1.444,1.444,0,0,1-.748.264.579.579,0,0,1-.5-.22,2.085,2.085,0,0,1-.275-.506q-.11-.286-.154-.374a7.032,7.032,0,0,0-1.056-1.672.873.873,0,0,1-.242-.4q0-.044.066-.044a3.779,3.779,0,0,1,.858.484l.4.264a4.045,4.045,0,0,0,.572.374.976.976,0,0,0,.44.11q.748,0,1.331-1.188a11.727,11.727,0,0,0,.913-2.761A13.047,13.047,0,0,0,109.3-8.8q0-2.31-1.43-2.31a6.311,6.311,0,0,0-2.266.638.729.729,0,0,0-.4.484,25.842,25.842,0,0,1-3.212,7.92,2.888,2.888,0,0,1-.616.759,1.012,1.012,0,0,1-.638.275.571.571,0,0,1-.418-.176.6.6,0,0,1-.176-.44A3.36,3.36,0,0,1,101-3.388a17.259,17.259,0,0,0,2.86-5.676.572.572,0,0,0,.022-.176q0-.308-.286-.308a.548.548,0,0,0-.242.066,8.071,8.071,0,0,1-2,.66,1.8,1.8,0,0,1-.935-.286,2.612,2.612,0,0,1-.781-.715,1.4,1.4,0,0,1-.308-.8q0-.2.11-.2a.75.75,0,0,1,.275.088q.187.088.3.132a3.208,3.208,0,0,0,1.276.264,6.253,6.253,0,0,0,1.353-.165q.561-.143,1.375-.429a.612.612,0,0,0,.4-.484,9.559,9.559,0,0,0,.242-2.046,2.556,2.556,0,0,0-.462-1.672q-.154-.176-.407-.44t-.253-.352q0-.132.187-.2a1.44,1.44,0,0,1,.473-.066,3.2,3.2,0,0,1,.88.132,2.237,2.237,0,0,1,.726.33.875.875,0,0,1,.352.7,3.7,3.7,0,0,1-.132.7q-.11.44-.176.858-.022.176-.066.506t-.132.88l-.022.154a.3.3,0,0,0,.121.275.413.413,0,0,0,.319.033A6.663,6.663,0,0,1,107.844-11.9Zm6.116-2.926q-.066-.022-.231-.066a.774.774,0,0,1-.242-.1.168.168,0,0,1-.077-.143q0-.22.7-.22a4.866,4.866,0,0,1,2.013.429,1.367,1.367,0,0,1,.957,1.265.575.575,0,0,1-.209.462.744.744,0,0,1-.495.176.777.777,0,0,1-.7-.4,4.219,4.219,0,0,0-.737-.891A2.542,2.542,0,0,0,113.96-14.828ZM112.618-12.1a6.3,6.3,0,0,1,2.783.66,4.052,4.052,0,0,1,1.573,1.386,2.863,2.863,0,0,1,.484,1.474,2.036,2.036,0,0,1-.429,1.309,1.179,1.179,0,0,1-.891.539.789.789,0,0,1-.484-.165,3.072,3.072,0,0,0-.264-.187,1.994,1.994,0,0,0-.836-.308q-.528-.088-1.254-.176-.308-.044-.308-.132,0-.11.264-.132,1.43-.154,1.5-.154a2.389,2.389,0,0,0,.825-.264.563.563,0,0,0,.231-.506,2.569,2.569,0,0,0-.99-1.936,5.2,5.2,0,0,0-2.266-1.188q-.2-.044-.2-.132T112.618-12.1ZM141.5-15a.3.3,0,0,1,.088.22.366.366,0,0,1-.176.286l-.22.11a.5.5,0,0,0-.4.506v1.716q.066,2.574.132,3.762v.11a.472.472,0,0,1-.22.44,1.847,1.847,0,0,1-.517.286,1.568,1.568,0,0,1-.539.11q-.088,0-.143-.121a.846.846,0,0,1-.055-.341v-.132a.461.461,0,0,0-.121-.341A.461.461,0,0,0,139-8.514h-7.9a.461.461,0,0,0-.341.121.461.461,0,0,0-.121.341v.44a.73.73,0,0,0-.066.286.315.315,0,0,0,.176.308l.66.308a1.461,1.461,0,0,0,.572.132h5.852a.653.653,0,0,0,.572-.286l.11-.154q.066-.066.22-.253a.411.411,0,0,1,.286-.187,1.737,1.737,0,0,1,.66.363,5.335,5.335,0,0,1,.792.671.476.476,0,0,1,.11.242q0,.132-.2.286a1.462,1.462,0,0,1-.264.11.541.541,0,0,0-.4.528v1.826q.066,2.728.132,4.026V.7a.472.472,0,0,1-.22.44,2.276,2.276,0,0,1-.517.264,1.568,1.568,0,0,1-.539.11.255.255,0,0,1-.22-.154.36.36,0,0,1-.044-.2,1.852,1.852,0,0,1,.044-.33L138.4.594V.572a.461.461,0,0,0-.121-.341A.461.461,0,0,0,137.94.11h-5.918a.461.461,0,0,0-.341.121.461.461,0,0,0-.121.341v.616q0,.132-.352.308a1.605,1.605,0,0,1-.726.176.3.3,0,0,1-.253-.132.5.5,0,0,1-.1-.308q.088-1.034.132-2.574V-2.86a34.275,34.275,0,0,0-.2-3.894q-.066-.418-.286-.418l-.264.022a.3.3,0,0,1-.253-.132.5.5,0,0,1-.1-.308q.088-.968.132-2.464v-1.452a33.611,33.611,0,0,0-.2-3.828v-.088q0-.33.286-.33a.49.49,0,0,1,.22.044l.88.4a1.461,1.461,0,0,0,.572.132h4.928a.513.513,0,0,0,.528-.352,17.351,17.351,0,0,0,.792-2.64q.066-.374.374-.374a1.322,1.322,0,0,1,.22.044q1.628.55,1.628.792,0,.066-.2.154l-.088.022a1.365,1.365,0,0,0-.484.352q-.66.814-1.21,1.43a.588.588,0,0,0-.154.308.224.224,0,0,0,.11.187.488.488,0,0,0,.286.077h1.1a.709.709,0,0,0,.572-.264l.11-.154q.066-.066.22-.253a.411.411,0,0,1,.286-.187,1.675,1.675,0,0,1,.649.363A5.572,5.572,0,0,1,141.5-15Zm-8.778-.264a.466.466,0,0,1-.2-.176,1.6,1.6,0,0,1-.132-.308,3.879,3.879,0,0,0-.484-1.122,5.5,5.5,0,0,0-.792-1.012q-.33-.374-.242-.44a.255.255,0,0,1,.176-.044.781.781,0,0,1,.286.044,4.2,4.2,0,0,1,1.848.99,1.8,1.8,0,0,1,.594,1.232.964.964,0,0,1-.22.638.666.666,0,0,1-.528.264A.9.9,0,0,1,132.726-15.268Zm-6.006,3.784a.461.461,0,0,0-.341.121.461.461,0,0,0-.121.341V-5.3a.481.481,0,0,0,.088.308.293.293,0,0,0,.242.11.7.7,0,0,0,.2-.044l.528-.2q.858-.286,1.562-.55.462-.132.506,0v.044q0,.176-.308.33-2.838,1.672-5.522,3.08a.751.751,0,0,0-.352.308.242.242,0,0,1-.242.176q-.2,0-.352-.286l-.374-.924a1.323,1.323,0,0,1-.044-.22.39.39,0,0,1,.308-.374q.88-.264,2.024-.638a.514.514,0,0,0,.374-.528v-6.314a.461.461,0,0,0-.121-.341.461.461,0,0,0-.341-.121h-.33a5.542,5.542,0,0,0-.946.154.7.7,0,0,1-.2.044.466.466,0,0,1-.418-.286l-.066-.11a.586.586,0,0,1-.066-.264q0-.308.44-.264.374.044,1.166.088h.418a.461.461,0,0,0,.341-.121.461.461,0,0,0,.121-.341v-.946a35.1,35.1,0,0,0-.2-3.938v-.088a.367.367,0,0,1,.088-.253.307.307,0,0,1,.242-.1.7.7,0,0,1,.2.044,8.548,8.548,0,0,1,1.254.44q.352.176.352.308,0,.11-.2.22l-.066.044a.589.589,0,0,0-.308.55v3.718a.846.846,0,0,0,.055.341.177.177,0,0,0,.165.121q.2,0,.4-.308l.2-.33q.066-.11.187-.3a2.532,2.532,0,0,1,.2-.275.22.22,0,0,1,.165-.088q.154,0,.693.473a4.346,4.346,0,0,1,.781.847.675.675,0,0,1,.088.264.315.315,0,0,1-.132.242.665.665,0,0,1-.4.11Zm3.916-1.144a.461.461,0,0,0,.121.341.461.461,0,0,0,.341.121h2.772a.461.461,0,0,0,.341-.121.461.461,0,0,0,.121-.341V-14.08a.461.461,0,0,0-.121-.341.461.461,0,0,0-.341-.121H131.1a.461.461,0,0,0-.341.121.461.461,0,0,0-.121.341Zm5.038,0a.461.461,0,0,0,.121.341.461.461,0,0,0,.341.121H139a.461.461,0,0,0,.341-.121.461.461,0,0,0,.121-.341V-14.08a.461.461,0,0,0-.121-.341.461.461,0,0,0-.341-.121h-2.86a.461.461,0,0,0-.341.121.461.461,0,0,0-.121.341Zm-5.038,2.992a.461.461,0,0,0,.121.341.461.461,0,0,0,.341.121h2.772a.461.461,0,0,0,.341-.121.461.461,0,0,0,.121-.341v-1.452a.461.461,0,0,0-.121-.341.461.461,0,0,0-.341-.121H131.1a.461.461,0,0,0-.341.121.461.461,0,0,0-.121.341Zm5.038,0a.461.461,0,0,0,.121.341.461.461,0,0,0,.341.121H139a.461.461,0,0,0,.341-.121.461.461,0,0,0,.121-.341v-1.452a.461.461,0,0,0-.121-.341A.461.461,0,0,0,139-11.55h-2.86a.461.461,0,0,0-.341.121.461.461,0,0,0-.121.341ZM138.4-5.478a.461.461,0,0,0-.121-.341.461.461,0,0,0-.341-.121h-5.918a.461.461,0,0,0-.341.121.461.461,0,0,0-.121.341v1.342a.461.461,0,0,0,.121.341.461.461,0,0,0,.341.121h5.918a.461.461,0,0,0,.341-.121.461.461,0,0,0,.121-.341Zm0,2.926a.461.461,0,0,0-.121-.341.461.461,0,0,0-.341-.121h-5.918a.461.461,0,0,0-.341.121.461.461,0,0,0-.121.341v1.54a.461.461,0,0,0,.121.341.461.461,0,0,0,.341.121h5.918a.461.461,0,0,0,.341-.121.461.461,0,0,0,.121-.341Zm14.036-10.6q-.11,0-.11-.088,0-.066.176-.22.308-.242,1.023-.726t1.089-.7q.264-.132.264-.176t-.264-.2a3.994,3.994,0,0,1-1.1-.88,2.764,2.764,0,0,1-.66-1.474q0-.176.066-.176t.4.33a5.71,5.71,0,0,0,.66.539,4.762,4.762,0,0,0,.968.539,3.556,3.556,0,0,0,1.276.286,1.956,1.956,0,0,0,.385-.066,1.949,1.949,0,0,1,.407-.066,1.343,1.343,0,0,1,.836.363.974.974,0,0,1,.44.693q0,.308-.462.462a3.8,3.8,0,0,1-.528.088,8.647,8.647,0,0,0-.924.154q-.154.044-.66.143a9.5,9.5,0,0,0-1.43.451,17.584,17.584,0,0,0-1.694.682A.355.355,0,0,1,152.438-13.156ZM162.6-1.474a.955.955,0,0,1,.671.253.794.794,0,0,1,.275.6q0,.66-1.21.858a18.125,18.125,0,0,1-2.882.2,4.194,4.194,0,0,1-1.815-.319,2.041,2.041,0,0,1-.968-1,6.586,6.586,0,0,1-.473-1.914,3.651,3.651,0,0,0-.374-1.32,1.087,1.087,0,0,0-1.034-.462,4.629,4.629,0,0,0-1.936.594A3.558,3.558,0,0,0,151.745-3a13,13,0,0,0-1.1,1.562A10.46,10.46,0,0,0,150-.242q-.242.616-.506.616-.242,0-.583-.506a1.638,1.638,0,0,1-.341-.858,1.221,1.221,0,0,1,.154-.66,2.928,2.928,0,0,1,.528-.572q.11-.088.352-.33l2.816-2.838,4.2-4.2q.616-.572.616-.792a.283.283,0,0,0-.11-.209.558.558,0,0,0-.374-.1,4.277,4.277,0,0,0-1.914.374,5.1,5.1,0,0,0-1.067.66q-.319.286-.385.33-.11.088-.3.264a1.462,1.462,0,0,1-.374.264.9.9,0,0,1-.385.088,1.64,1.64,0,0,1-.792-.3,6.512,6.512,0,0,1-.968-.737,1.439,1.439,0,0,1-.55-.946.616.616,0,0,1,.088-.308.269.269,0,0,1,.242-.154.534.534,0,0,1,.264.132,2.218,2.218,0,0,0,1.54.77,2.015,2.015,0,0,0,.814-.154,19.025,19.025,0,0,1,2.409-.847,8.505,8.505,0,0,1,2.233-.385,1.732,1.732,0,0,1,1.342.616,1.343,1.343,0,0,1,.374.858.589.589,0,0,1-.2.462,5,5,0,0,1-.726.484l-.66.4a22.179,22.179,0,0,0-2.3,1.683,25,25,0,0,0-2.189,2.013.19.19,0,0,0-.066.132q0,.044.088.044a1.8,1.8,0,0,0,.44-.11,4.786,4.786,0,0,1,1.562-.264,1.812,1.812,0,0,1,1.166.352,1.8,1.8,0,0,1,.55.792,12.412,12.412,0,0,1,.4,1.518,5.4,5.4,0,0,0,.341,1.166.731.731,0,0,0,.407.407,3,3,0,0,0,.814.077,9.664,9.664,0,0,0,1.43-.143l1.034-.165A11.412,11.412,0,0,1,162.6-1.474Zm22.462-14.5a2.582,2.582,0,0,1,1.4.407,1.162,1.162,0,0,1,.649.979.449.449,0,0,1-.143.363.543.543,0,0,1-.363.121,6.625,6.625,0,0,1-1.232-.154l-.594-.088a5.076,5.076,0,0,0-.726-.066,4.787,4.787,0,0,0-1.265.165,5.169,5.169,0,0,0-.869.3,4.2,4.2,0,0,0-1.617,1.936A14.031,14.031,0,0,0,179.2-8.8a14.663,14.663,0,0,0-.385,3.08,4.869,4.869,0,0,0,.759,3.113,2.853,2.853,0,0,0,2.3.891l.616-.044a8.265,8.265,0,0,1,1.012-.088q1.584,0,1.584.77,0,.572-.891.759a8.707,8.707,0,0,1-1.793.187,5.833,5.833,0,0,1-2.871-.594,3.286,3.286,0,0,1-1.485-1.8,9.456,9.456,0,0,1-.44-3.168,11.692,11.692,0,0,1,.77-4.213,12.156,12.156,0,0,1,2-3.487q.682-.726.594-.682l-.088.022a12.514,12.514,0,0,0-1.749.572q-1.133.44-2.893,1.21l-.946.4q-.176.088-.77.4-.418.22-.66.33a1.209,1.209,0,0,1-.506.11,1.924,1.924,0,0,1-1.177-.506,4.5,4.5,0,0,1-.957-1.012.484.484,0,0,1-.11-.264.211.211,0,0,1,.066-.154.211.211,0,0,1,.154-.066.583.583,0,0,1,.286.088q.044.022.374.209a1.63,1.63,0,0,0,.814.187,2.64,2.64,0,0,0,.374-.044l1.342-.44q2.464-.836,4.521-1.441a24.425,24.425,0,0,1,3.795-.825,2.722,2.722,0,0,0,.638-.165q.308-.121.4-.165A2.7,2.7,0,0,1,185.064-15.972ZM201.52-.7a2.877,2.877,0,0,1-1.144-.33,6.6,6.6,0,0,1-1.54-1.078,7.047,7.047,0,0,1-2.134-5.5,18.682,18.682,0,0,1,.242-2.706,11.872,11.872,0,0,0,.132-1.32,2.371,2.371,0,0,0-.187-.957,2.545,2.545,0,0,0-.649-.847q-.132-.11-.132-.176t.088-.1a.5.5,0,0,1,.176-.033,2.322,2.322,0,0,1,1,.275,3.036,3.036,0,0,1,.957.726,1.386,1.386,0,0,1,.4.913,2.5,2.5,0,0,1-.1.649q-.1.363-.231.759-.286.924-.429,1.584a7.339,7.339,0,0,0-.143,1.54,4.97,4.97,0,0,0,.451,2.145,4.594,4.594,0,0,0,1.056,1.5,1.719,1.719,0,0,0,1.045.539q.264,0,.352-.462a17.145,17.145,0,0,1,.429-1.672,8.007,8.007,0,0,1,.363-.99,1.409,1.409,0,0,1,.154-.275q.088-.121.154-.121t.066.132a2.641,2.641,0,0,1-.044.374,10.711,10.711,0,0,0-.22,2.046q0,.33.022.627t.044.473a2.9,2.9,0,0,0,.242.946,2.828,2.828,0,0,1,.176.726.635.635,0,0,1-.154.451A.572.572,0,0,1,201.52-.7Zm9.13-5.852a.817.817,0,0,1-.605-.176,1.377,1.377,0,0,1-.275-.484q-.022-.044-.385-1.419a2.779,2.779,0,0,0-1.419-1.9A2.968,2.968,0,0,0,206.6-10.8h-.264q-.2,0-.2-.132,0-.088.22-.176a2.179,2.179,0,0,1,.429-.11,4.008,4.008,0,0,1,.759-.066,3.712,3.712,0,0,1,2.662,1.078,4.2,4.2,0,0,1,1.078,1.485,3.445,3.445,0,0,1,.286,1.133,1.122,1.122,0,0,1-.253.715A.814.814,0,0,1,210.65-6.556Zm18.282,3.014a.483.483,0,0,0,.418.484,8.357,8.357,0,0,1,2.387,1.232,2.078,2.078,0,0,1,.935,1.65.548.548,0,0,1-.154.451.525.525,0,0,1-.33.121,1.337,1.337,0,0,1-.858-.418q-.154-.132-.737-.649t-1.155-.957a.36.36,0,0,0-.264-.11q-.22,0-.33.33A2.891,2.891,0,0,1,227.623.077a4.041,4.041,0,0,1-2.167.539,4.639,4.639,0,0,1-2.288-.561,1.747,1.747,0,0,1-1.012-1.595,1.661,1.661,0,0,1,.539-1.243,3.363,3.363,0,0,1,1.342-.77,5.353,5.353,0,0,1,1.617-.253,8.574,8.574,0,0,1,1.606.2l.132.022q.4,0,.352-.44-.044-.462-.088-1.562-.044-.4-.088-1.276-.044-.484-.506-.418a10.756,10.756,0,0,1-1.826.176,4.277,4.277,0,0,1-2.035-.451,2.8,2.8,0,0,1-1.243-1.265.856.856,0,0,1-.066-.242q0-.11.088-.11a.272.272,0,0,1,.154.066,1,1,0,0,0,.132.088,6.28,6.28,0,0,0,1.144.583,4.326,4.326,0,0,0,1.65.3,13.9,13.9,0,0,0,2-.2q.418-.066.418-.374V-9q0-1.364.066-2.75v-.132q0-.33-.132-.33h-.176a2.993,2.993,0,0,1-1.1-.2,4.137,4.137,0,0,1-.9-.55,3.491,3.491,0,0,1-.7-.682.831.831,0,0,1-.154-.33.078.078,0,0,1,.088-.088.852.852,0,0,1,.352.11l.462.242a3.222,3.222,0,0,0,.638.319,2.252,2.252,0,0,0,.726.1,2.808,2.808,0,0,0,.682-.088.516.516,0,0,0,.462-.462,9.771,9.771,0,0,0,.132-1.32,2.727,2.727,0,0,0-.242-1.188,2.981,2.981,0,0,0-.418-.594,3.1,3.1,0,0,1-.2-.264.428.428,0,0,1-.088-.22.256.256,0,0,1,.143-.22.682.682,0,0,1,.363-.088,1.924,1.924,0,0,1,.638.165,2.114,2.114,0,0,1,.748.506,1.2,1.2,0,0,1,.33.869,4.09,4.09,0,0,1-.132.869q-.132.561-.286,1.045a.7.7,0,0,0,.132.3.287.287,0,0,0,.352.143l.638-.2a1.184,1.184,0,0,1,.374-.066.665.665,0,0,1,.4.11.379.379,0,0,1,.154.33.731.731,0,0,1-.165.44,1.131,1.131,0,0,1-.473.352,8.361,8.361,0,0,1-1.342.44.512.512,0,0,0-.44.484q-.088,1.034-.088,2.288a4.91,4.91,0,0,0,.022.55.39.39,0,0,0,.143.33.423.423,0,0,0,.385.044,4.541,4.541,0,0,0,1.188-.55.659.659,0,0,0,.33-.506,1.411,1.411,0,0,0-.4-.748q-.044-.066-.121-.165a2.1,2.1,0,0,1-.143-.209.831.831,0,0,1-.154-.33.058.058,0,0,1,.066-.066,1.054,1.054,0,0,1,.4.242,2.8,2.8,0,0,0,1.188.572,2.8,2.8,0,0,0,.506.088.879.879,0,0,1,.528.22.627.627,0,0,1,.154.462,1.183,1.183,0,0,1-.22.66,1.638,1.638,0,0,1-.682.55,14.96,14.96,0,0,1-2.662.858q-.44.132-.374.726.066.748.308,2.354Zm-3.894,3.08a3.392,3.392,0,0,0,1.837-.451,1.933,1.933,0,0,0,.891-1.287v-.11a.431.431,0,0,0-.33-.44,5.877,5.877,0,0,0-1.98-.352,3.68,3.68,0,0,0-1.727.407,1.222,1.222,0,0,0-.781,1.089.938.938,0,0,0,.649.836A3.318,3.318,0,0,0,225.038-.462Zm34.188-13.376a2.564,2.564,0,0,1,.836.275.566.566,0,0,1,.264.517q0,.594-.726.594-.022,0-.858-.088a36.346,36.346,0,0,0-4.026-.286q-.462,0-1.3.044-.44,0-.44.462-.044,1.628-.044,2.442v1.144a1.664,1.664,0,0,0,.154.572,8.534,8.534,0,0,1,.594,1.639,6.468,6.468,0,0,1,.22,1.573,5.43,5.43,0,0,1-.858,3.1,6.467,6.467,0,0,1-2,1.969,7.819,7.819,0,0,1-2.112.935.932.932,0,0,1-.22.044q-.154,0-.154-.11,0-.154.242-.242a5.538,5.538,0,0,0,2.937-2.5,6.311,6.311,0,0,0,.715-2.629q0-.022-.121.077t-.341.253a1.766,1.766,0,0,1-.924.374,1.558,1.558,0,0,1-1.111-.451,3.416,3.416,0,0,1-.759-1.089,6.543,6.543,0,0,1-.418-1.21,5,5,0,0,1-.154-1.166,2.839,2.839,0,0,1,.561-1.771,1.863,1.863,0,0,1,1.573-.737,1.955,1.955,0,0,1,.616.11.549.549,0,0,0,.242.044q.264,0,.286-.286a14.4,14.4,0,0,0,.154-1.936.433.433,0,0,0-.132-.352.5.5,0,0,0-.374-.088,19.384,19.384,0,0,0-4.466,1.43q-.484.22-.858.352a2.572,2.572,0,0,1-.858.132,2.5,2.5,0,0,1-1.254-.352,4.037,4.037,0,0,1-.88-.7q-.4-.418-.4-.638,0-.132.154-.132a2.242,2.242,0,0,1,.594.11,5.869,5.869,0,0,0,1.144.154,7.081,7.081,0,0,0,1.584-.2q.748-.154,2.189-.418t3.113-.528a.431.431,0,0,0,.418-.462q0-.242-.044-.858l-.022-.55a2.652,2.652,0,0,0-.242-1.023,1.9,1.9,0,0,0-.462-.671,3.32,3.32,0,0,0-.319-.242q-.165-.11-.165-.176,0-.154.275-.242a1.763,1.763,0,0,1,.539-.088,1.789,1.789,0,0,1,.77.176q.946.418.946,1.056a.818.818,0,0,1-.022.2l-.022.154a.517.517,0,0,0,.264.44,15.341,15.341,0,0,0,3.014,1.43,8.83,8.83,0,0,0,1.144.253q.528.077.924.1A5.485,5.485,0,0,1,259.226-13.838Zm-4.73.066q.11,0,.319-.011a1.264,1.264,0,0,0,.308-.044q.1-.033.1-.1,0-.088-.143-.176a1.175,1.175,0,0,1-.187-.132l-1.232-.88a.589.589,0,0,0-.286-.11q-.264,0-.308.374-.022.22-.022.792,0,.44.66.374Zm-3.674,8.448a.927.927,0,0,0,.759-.374,2,2,0,0,0,.3-1.232,4.876,4.876,0,0,0-.308-1.65q-.308-.858-.968-.858a1.1,1.1,0,0,0-.957.55,2.6,2.6,0,0,0-.363,1.452A2.417,2.417,0,0,0,249.766-6,1.338,1.338,0,0,0,250.822-5.324Zm22.264,1.782a.255.255,0,0,1-.187-.077.314.314,0,0,1-.077-.231,1.038,1.038,0,0,1,.132-.44q1.3-2.464,2.134-4.3t1.65-3.817q.616-1.474,1.012-2.332a18.162,18.162,0,0,1,.88-1.672,2.4,2.4,0,0,1,.77-.825,1.649,1.649,0,0,1,.88-.275,1.2,1.2,0,0,1,.924.407,1.484,1.484,0,0,1,.374,1.045,2.356,2.356,0,0,1-.33,1.144q-.4.682-.935,1.452t-.924,1.276q-.385.506-.583.77Q277.332-9.5,276.2-7.909T273.57-3.938Q273.328-3.542,273.086-3.542ZM271.3.792a1.342,1.342,0,0,1-1-.418A1.4,1.4,0,0,1,269.9-.638a1.424,1.424,0,0,1,.407-1.034,1.342,1.342,0,0,1,1-.418,1.4,1.4,0,0,1,1.034.418,1.4,1.4,0,0,1,.418,1.034,1.378,1.378,0,0,1-.418,1.012A1.4,1.4,0,0,1,271.3.792ZM309.76-18.37a.422.422,0,0,1,.132.308.462.462,0,0,1-.154.33l-19.36,19.36a.462.462,0,0,1-.33.154.422.422,0,0,1-.308-.132.444.444,0,0,1-.154-.308.591.591,0,0,1,.154-.33l19.36-19.36a.462.462,0,0,1,.33-.154A.5.5,0,0,1,309.76-18.37Z" transform="translate(801 802)" fill="#fff"/>
      </g>
    </g>
  </g>
</svg>
