<svg xmlns="http://www.w3.org/2000/svg" width="272.296" height="90.48" viewBox="0 0 272.296 90.48">
  <g id="copy" transform="translate(-681.36 -5398.8)">
    <path id="パス_32369" data-name="パス 32369" d="M-87.84-21.312a.9.9,0,0,0,.8-.448l.192-.288q.1-.128.32-.432t.416-.3a2.6,2.6,0,0,1,.992.608,6.443,6.443,0,0,1,1.152,1.12.551.551,0,0,1,.128.352.526.526,0,0,1-.288.416l-.288.16a.734.734,0,0,0-.576.736v2.432q.1,3.616.192,5.312v.16a.687.687,0,0,1-.32.64,6.009,6.009,0,0,1-.832.4,2.223,2.223,0,0,1-.8.176A.391.391,0,0,1-87.1-10.5a.8.8,0,0,1-.1-.352,1.751,1.751,0,0,1,.064-.384l.064-.352a.671.671,0,0,0-.176-.5.671.671,0,0,0-.5-.176h-6.528q-.608,0-.672.672a14.431,14.431,0,0,1-2.08,7.008.9.9,0,0,0-.128.448.558.558,0,0,0,.32.48A22,22,0,0,0-90.672-1.1,45.186,45.186,0,0,0-82.624.128q.672.1.672.256a.337.337,0,0,1-.224.208q-.192.08-.32.144a2.369,2.369,0,0,0-1.088,1.152.882.882,0,0,1-.3.432.775.775,0,0,1-.5.08A39.591,39.591,0,0,1-92.144.624a18.514,18.514,0,0,1-5.68-3.12.691.691,0,0,0-.448-.192.673.673,0,0,0-.48.224q-3.36,3.264-10.464,4.9l-.384.064q-.32,0-.352-.224V2.24q0-.288.576-.48a25.906,25.906,0,0,0,5.728-2.288A13.749,13.749,0,0,0-99.84-3.616a.79.79,0,0,0,.192-.448.673.673,0,0,0-.224-.48,15.619,15.619,0,0,1-2.112-3.232q-.192-.384-.416-.384a.54.54,0,0,0-.448.32,19.319,19.319,0,0,1-1.216,1.824,1.167,1.167,0,0,0-.224.512l.032.256-.192.032a.758.758,0,0,1-.576-.288l-.512-.672a.88.88,0,0,1-.16-.448.622.622,0,0,1,.288-.48,29.407,29.407,0,0,0,2.528-2.08.908.908,0,0,0,.416-.544.805.805,0,0,1,.24-.5.326.326,0,0,1,.4-.016.41.41,0,0,1,.256.384.547.547,0,0,1-.1.256.878.878,0,0,0-.224.512.982.982,0,0,0,.128.384,13.172,13.172,0,0,0,2.368,3.1.856.856,0,0,0,.448.224.577.577,0,0,0,.512-.384,15.492,15.492,0,0,0,1.44-5.792v-.064q0-.64-.672-.64h-6.368a.671.671,0,0,0-.5.176.671.671,0,0,0-.176.5v.768q0,.192-.56.448a2.641,2.641,0,0,1-1.1.256.441.441,0,0,1-.368-.192.726.726,0,0,1-.144-.448q.128-1.376.192-3.456v-2.048a52.154,52.154,0,0,0-.256-5.312V-21.7q0-.48.416-.48a.712.712,0,0,1,.32.064l1.312.608a1.971,1.971,0,0,0,.832.192H-97.6a.594.594,0,0,0,.672-.672q-.064-2.5-.224-4.064v-.128q0-.512.448-.512a1.924,1.924,0,0,1,.32.064q2.272.7,2.272,1.088,0,.16-.256.32l-.1.064a.92.92,0,0,0-.416.8v2.368a.671.671,0,0,0,.176.5.671.671,0,0,0,.5.176Zm-16.192.928a.671.671,0,0,0-.5.176.671.671,0,0,0-.176.5v5.824a.671.671,0,0,0,.176.5.671.671,0,0,0,.5.176H-97.6a.671.671,0,0,0,.5-.176.671.671,0,0,0,.176-.5v-5.824a.671.671,0,0,0-.176-.5.671.671,0,0,0-.5-.176Zm16.288,7.168a.671.671,0,0,0,.5-.176.671.671,0,0,0,.176-.5v-5.824a.671.671,0,0,0-.176-.5.671.671,0,0,0-.5-.176h-6.464a.671.671,0,0,0-.5.176.671.671,0,0,0-.176.5v5.824a.671.671,0,0,0,.176.5.671.671,0,0,0,.5.176ZM-57.28-14.88a.92.92,0,0,0,.8-.416l.448-.608q.128-.16.336-.464a3.281,3.281,0,0,1,.352-.448.4.4,0,0,1,.272-.144,3.374,3.374,0,0,1,1.152.784,11.2,11.2,0,0,1,1.376,1.328.7.7,0,0,1,.16.384.458.458,0,0,1-.192.352.911.911,0,0,1-.544.16H-63.168a.671.671,0,0,0-.5.176.671.671,0,0,0-.176.5V-.8a.671.671,0,0,0,.176.5.671.671,0,0,0,.5.176h8.256a.92.92,0,0,0,.8-.416l.448-.608q.1-.128.32-.432a4.138,4.138,0,0,1,.368-.448.4.4,0,0,1,.272-.144,3.442,3.442,0,0,1,1.232.784A8.529,8.529,0,0,1-50.08-.064a.7.7,0,0,1,.16.384.4.4,0,0,1-.192.352.968.968,0,0,1-.576.16H-72.7a34.469,34.469,0,0,0-4.224.352h-.192a.658.658,0,0,1-.64-.416L-77.92.48a.8.8,0,0,1-.1-.352q0-.48.64-.416,1.088.1,3.3.16h7.488A.671.671,0,0,0-66.1-.3a.671.671,0,0,0,.176-.5V-20.1a51.047,51.047,0,0,0-.288-5.728v-.128q0-.512.448-.512a1.924,1.924,0,0,1,.32.064q2.4.7,2.4,1.12,0,.16-.256.32l-.1.064a.9.9,0,0,0-.448.8v8.544a.671.671,0,0,0,.176.5.671.671,0,0,0,.5.176Zm31.616-10.176a.92.92,0,0,0,.8-.416l.224-.32q.1-.128.336-.432t.432-.3a2.431,2.431,0,0,1,.96.608A8.317,8.317,0,0,1-21.76-24.8a.434.434,0,0,1,.128.32.543.543,0,0,1-.288.448.808.808,0,0,1-.192.1,1.241,1.241,0,0,0-.16.064.734.734,0,0,0-.576.736v1.888q.1,2.816.16,4.288v.16a.687.687,0,0,1-.32.64,3.791,3.791,0,0,1-.752.336,2.5,2.5,0,0,1-.784.144q-.128,0-.208-.176a1.231,1.231,0,0,1-.08-.5.671.671,0,0,0-.176-.5.671.671,0,0,0-.5-.176H-38.272a.671.671,0,0,0-.5.176.671.671,0,0,0-.176.5v.288q0,.192-.56.448a2.708,2.708,0,0,1-1.136.256.376.376,0,0,1-.32-.192A.789.789,0,0,1-41.088-16q.128-1.152.192-2.912V-20.7a41.264,41.264,0,0,0-.224-4.576v-.128a.516.516,0,0,1,.112-.352.349.349,0,0,1,.272-.128.8.8,0,0,1,.352.1l1.248.544a1.971,1.971,0,0,0,.832.192Zm.16,3.488a.671.671,0,0,0,.5-.176.671.671,0,0,0,.176-.5v-1.216a.671.671,0,0,0-.176-.5.671.671,0,0,0-.5-.176H-38.272a.671.671,0,0,0-.5.176.671.671,0,0,0-.176.5v1.216a.671.671,0,0,0,.176.5.671.671,0,0,0,.5.176Zm-12.768.928a.671.671,0,0,0-.5.176.671.671,0,0,0-.176.5v1.376a.671.671,0,0,0,.176.5.671.671,0,0,0,.5.176H-25.5a.671.671,0,0,0,.5-.176.671.671,0,0,0,.176-.5v-1.376a.671.671,0,0,0-.176-.5.671.671,0,0,0-.5-.176Zm15.712,6.176a.9.9,0,0,0,.8-.448l.352-.512a5.033,5.033,0,0,1,.3-.432q.208-.272.336-.416a.355.355,0,0,1,.256-.144,3.228,3.228,0,0,1,1.12.72,7.939,7.939,0,0,1,1.312,1.264.7.7,0,0,1,.16.384.458.458,0,0,1-.192.352.911.911,0,0,1-.544.16H-32.224a.671.671,0,0,0-.5.176.671.671,0,0,0-.176.5v7.04q.064,3.488.224,7.04v.16a.687.687,0,0,1-.32.64,2.4,2.4,0,0,1-1.536.48A.4.4,0,0,1-34.88,2.3a.789.789,0,0,1-.128-.448q.128-1.12.192-2.784v-.928a.7.7,0,0,0-.128-.448.426.426,0,0,0-.352-.16,1.016,1.016,0,0,0-.288.064Q-38.56-1.344-43.616.16a1.519,1.519,0,0,0-.544.32l-.064.16a.4.4,0,0,1-.352.192q-.32,0-.544-.416L-45.7-.8a.8.8,0,0,1-.064-.352q0-.448.512-.48,1.44-.192,2.656-.416a.644.644,0,0,0,.608-.7V-12.864a.671.671,0,0,0-.176-.5.671.671,0,0,0-.5-.176h-.608a7.817,7.817,0,0,0-1.632.256.832.832,0,0,1-.256.032.745.745,0,0,1-.64-.416l-.1-.192a.8.8,0,0,1-.1-.352.383.383,0,0,1,.16-.336.644.644,0,0,1,.448-.08q1.152.1,3.328.16Zm-17.5,3.072a.671.671,0,0,0,.176.5.671.671,0,0,0,.5.176h3.9a.671.671,0,0,0,.5-.176.671.671,0,0,0,.176-.5v-1.472a.671.671,0,0,0-.176-.5.671.671,0,0,0-.5-.176h-3.9a.671.671,0,0,0-.5.176.671.671,0,0,0-.176.5Zm16.1,7.552a.691.691,0,0,0-.192.448.558.558,0,0,0,.32.48,19.559,19.559,0,0,0,5.568,2.5q.672.16.608.32a.337.337,0,0,1-.224.208q-.192.08-.32.144a2.37,2.37,0,0,0-1.056.992q-.192.448-.544.448a1.016,1.016,0,0,1-.288-.064,16.816,16.816,0,0,1-5.088-3.168.673.673,0,0,0-.48-.224.673.673,0,0,0-.48.224,20.362,20.362,0,0,1-5.312,3.328,1.031,1.031,0,0,1-.448.128.3.3,0,0,1-.256-.128.13.13,0,0,1-.032-.1q0-.224.48-.512a18.8,18.8,0,0,0,4.64-3.84A.79.79,0,0,0-26.88-3.1a.725.725,0,0,0-.192-.48,18.16,18.16,0,0,1-2.752-5.7.734.734,0,0,0-.736-.576h-.064a1.053,1.053,0,0,0-.32.064,1.546,1.546,0,0,1-.416.128.557.557,0,0,1-.48-.352l-.1-.192a.852.852,0,0,1-.1-.384.352.352,0,0,1,.16-.3.644.644,0,0,1,.448-.08q1.088.1,3.3.16h4.512a1.072,1.072,0,0,0,.832-.352l.256-.288q.1-.1.368-.384a.734.734,0,0,1,.464-.288q.224,0,.9.576A6.6,6.6,0,0,1-19.776-10.5a.551.551,0,0,1,.128.352.376.376,0,0,1-.288.384.635.635,0,0,1-.288.064.85.85,0,0,0-.736.576A19.662,19.662,0,0,1-23.968-3.84Zm.576-5.248a1.016,1.016,0,0,0,.064-.288.426.426,0,0,0-.16-.352.7.7,0,0,0-.448-.128H-28.48a.715.715,0,0,0-.432.128.383.383,0,0,0-.176.32.755.755,0,0,0,.1.32A13.008,13.008,0,0,0-26.24-4.9a.645.645,0,0,0,.448.224.575.575,0,0,0,.512-.352A20.965,20.965,0,0,0-23.392-9.088Zm-16.672,1.6a.671.671,0,0,0,.176.5.671.671,0,0,0,.5.176h3.9a.671.671,0,0,0,.5-.176.671.671,0,0,0,.176-.5v-1.6a.671.671,0,0,0-.176-.5.671.671,0,0,0-.5-.176h-3.9a.671.671,0,0,0-.5.176.671.671,0,0,0-.176.5Zm.672,1.6a.671.671,0,0,0-.5.176.671.671,0,0,0-.176.5V-3.2a.63.63,0,0,0,.192.512.639.639,0,0,0,.544.1q2.208-.352,3.9-.672a.644.644,0,0,0,.608-.7V-5.216a.671.671,0,0,0-.176-.5.671.671,0,0,0-.5-.176Zm48.864-9.12a.9.9,0,0,0,.8-.448l.352-.512a5.032,5.032,0,0,1,.3-.432q.208-.272.336-.416a.355.355,0,0,1,.256-.144,2.879,2.879,0,0,1,1.12.72,7.145,7.145,0,0,1,1.248,1.264.692.692,0,0,1,.16.352.489.489,0,0,1-.16.352.968.968,0,0,1-.576.16H7.264a.63.63,0,0,0-.512.192.639.639,0,0,0-.1.544A28.578,28.578,0,0,0,8.576-6.96a11.486,11.486,0,0,0,3.136,4.336.7.7,0,0,0,.448.256q.224,0,.416-.416.1-.224.4-1.04T13.5-5.408q.192-.576.352-.576a.156.156,0,0,1,.16.144,2.074,2.074,0,0,1,0,.528L13.664-1.92v.192a1.287,1.287,0,0,0,.192.672A2.988,2.988,0,0,1,14.272.16a.811.811,0,0,1-.16.48,1.11,1.11,0,0,1-.864.352A2.7,2.7,0,0,1,11.9.56,7.688,7.688,0,0,1,10.5-.512Q6.144-4.64,4.64-13.5a.644.644,0,0,0-.7-.608H-1.12a.671.671,0,0,0-.5.176.671.671,0,0,0-.176.5v7.648A.63.63,0,0,0-1.6-5.28a.577.577,0,0,0,.544.064l5.12-1.216L4.48-6.5q.256,0,.32.128v.032a.32.32,0,0,1-.128.24,2.2,2.2,0,0,1-.352.24Q1.344-4.48-4.192-2.208a1.044,1.044,0,0,0-.512.32q0,.032-.064.1a.371.371,0,0,1-.32.224q-.32,0-.544-.416l-.64-1.344a.8.8,0,0,1-.1-.352q0-.384.512-.48l.736-.128a3.851,3.851,0,0,1,.736-.16.685.685,0,0,0,.608-.736V-17.44A49.855,49.855,0,0,0-4.064-23.1v-.128q0-.512.448-.512a1.016,1.016,0,0,1,.288.064l2.08.768a1.206,1.206,0,0,0,.48.1,1.751,1.751,0,0,0,.384-.064q1.76-.448,4.8-1.472a19.888,19.888,0,0,0,4.864-2.4.88.88,0,0,1,.448-.16.808.808,0,0,1,.544.288q1.664,1.7,1.664,2.08,0,.224-.448.16l-.352-.032-.288-.032a1.723,1.723,0,0,0-.544.1q-.992.32-3.9,1.024a.676.676,0,0,0-.576.736,51.365,51.365,0,0,0,.448,6.976.661.661,0,0,0,.736.608Zm-19.648,1.056a.932.932,0,0,0-.08-.416.256.256,0,0,0-.24-.16q-.224,0-.48.352A28.866,28.866,0,0,1-13.5-11.008q-.416.48-.64.288a.277.277,0,0,1-.1-.192,1.409,1.409,0,0,1,.224-.512,47.587,47.587,0,0,0,4.384-8.8,26.729,26.729,0,0,0,.976-3.024A27.124,27.124,0,0,0-8-26.336q.1-.544.544-.544a1.924,1.924,0,0,1,.32.064q2.464.864,2.464,1.216,0,.16-.288.256l-.128.032a.885.885,0,0,0-.64.64A48.238,48.238,0,0,1-8.192-18.88a.852.852,0,0,0-.1.384A.83.83,0,0,0-8-17.92q.512.48.512.736,0,.192-.288.352a.726.726,0,0,0-.448.736V-5.888Q-8.16-2.368-8,1.12v.128a.774.774,0,0,1-.352.7,2.425,2.425,0,0,1-1.44.512.764.764,0,0,1-.512-.192.576.576,0,0,1-.224-.448Q-10.4-.064-10.3-1.84t.128-4.656ZM3.84-22.016a.581.581,0,0,0-.192-.5.68.68,0,0,0-.544-.08q-1.7.352-4.256.7a.633.633,0,0,0-.64.7v5.5a.671.671,0,0,0,.176.5.671.671,0,0,0,.5.176h4.8a.63.63,0,0,0,.512-.192.665.665,0,0,0,.128-.512Q3.936-18.752,3.84-22.016ZM-.384,1.152A21.046,21.046,0,0,0-3.712,1.5h-.16a.679.679,0,0,1-.672-.448L-4.672.8a.852.852,0,0,1-.1-.384.352.352,0,0,1,.16-.3A.644.644,0,0,1-4.16.032q1.088.1,3.3.16H4.352a.92.92,0,0,0,.8-.416L5.5-.736q.1-.128.288-.4a3.275,3.275,0,0,1,.336-.416A.4.4,0,0,1,6.4-1.7q.256,0,1.1.72A7.344,7.344,0,0,1,8.736.288.7.7,0,0,1,8.9.672a.426.426,0,0,1-.1.256.849.849,0,0,1-.672.224ZM33.632-25.6a.259.259,0,0,0-.224.256,1.094,1.094,0,0,0,.256.512,23.277,23.277,0,0,0,5.2,4.736,39.624,39.624,0,0,0,6.992,3.808q.544.224.544.448a.355.355,0,0,1-.144.208,1.2,1.2,0,0,1-.224.128q-.112.048-.176.08a2.582,2.582,0,0,0-1.12.96q-.224.384-.512.384a.755.755,0,0,1-.32-.1,31.864,31.864,0,0,1-6.4-4.56,22.234,22.234,0,0,1-4.544-5.648q-.192-.352-.448-.352a.543.543,0,0,0-.448.288,34.951,34.951,0,0,1-6.016,6.3,40.579,40.579,0,0,1-7.648,5.12,1.576,1.576,0,0,1-.464.144.24.24,0,0,1-.24-.08v-.064q0-.192.448-.48a37.436,37.436,0,0,0,5.008-3.856,43.008,43.008,0,0,0,4.56-4.752,14.376,14.376,0,0,0,2.56-4.608.545.545,0,0,1,.544-.48.971.971,0,0,1,.288.032l2.464.768a1.109,1.109,0,0,1,.544.336.2.2,0,0,1-.064.336A.735.735,0,0,1,33.632-25.6ZM39.68-10.048a.92.92,0,0,0,.8-.416l.384-.544q.1-.128.288-.4a3.276,3.276,0,0,1,.336-.416.4.4,0,0,1,.272-.144,3.242,3.242,0,0,1,1.12.7,8.862,8.862,0,0,1,1.344,1.248.551.551,0,0,1,.128.352.485.485,0,0,1-.192.384.886.886,0,0,1-.544.128H33.568a.671.671,0,0,0-.5.176.671.671,0,0,0-.176.5V-.1a.671.671,0,0,0,.176.5.671.671,0,0,0,.5.176h7.2a.92.92,0,0,0,.8-.416l.416-.608q.1-.128.32-.432a4.139,4.139,0,0,1,.368-.448.4.4,0,0,1,.272-.144,3.351,3.351,0,0,1,1.216.784A8.752,8.752,0,0,1,45.536.64a.551.551,0,0,1,.128.352.431.431,0,0,1-.192.384,1.027,1.027,0,0,1-.608.128H23.776a34.469,34.469,0,0,0-4.224.352H19.36a.658.658,0,0,1-.64-.416l-.128-.256A.852.852,0,0,1,18.5.8a.352.352,0,0,1,.16-.3A.644.644,0,0,1,19.1.416q1.088.1,3.3.16h7.744A.671.671,0,0,0,30.64.4a.671.671,0,0,0,.176-.5V-8.48a.671.671,0,0,0-.176-.5.671.671,0,0,0-.5-.176h-4.9a34.469,34.469,0,0,0-4.224.352h-.192a.658.658,0,0,1-.64-.416l-.128-.224a.852.852,0,0,1-.1-.384.352.352,0,0,1,.16-.3.644.644,0,0,1,.448-.08q1.088.1,3.3.16h6.272a.671.671,0,0,0,.5-.176.671.671,0,0,0,.176-.5V-14.5a.671.671,0,0,0-.176-.5.671.671,0,0,0-.5-.176H28.672a20.808,20.808,0,0,0-3.264.352h-.192a.658.658,0,0,1-.64-.416l-.128-.256a.852.852,0,0,1-.1-.384.352.352,0,0,1,.16-.3.644.644,0,0,1,.448-.08q1.088.1,3.3.16H34.88a.92.92,0,0,0,.8-.416l.32-.416q.128-.16.272-.352a3.279,3.279,0,0,1,.3-.352.442.442,0,0,1,.288-.16,2.7,2.7,0,0,1,1.072.64,7.474,7.474,0,0,1,1.2,1.12.692.692,0,0,1,.16.352.489.489,0,0,1-.16.352,1.124,1.124,0,0,1-.608.16h-4.96a.671.671,0,0,0-.5.176.671.671,0,0,0-.176.5v3.776a.671.671,0,0,0,.176.5.671.671,0,0,0,.5.176Zm-1.824,2.5q.1-.48.512-.48a.8.8,0,0,1,.352.1l.768.384a4.98,4.98,0,0,0,.768.32q.864.32.864.544,0,.192-.352.288l-.128.032a1.189,1.189,0,0,0-.7.544,33.524,33.524,0,0,1-3.9,4.96q-.416.48-.672.288a.307.307,0,0,1-.1-.224,1.228,1.228,0,0,1,.16-.48l.32-.608a22.662,22.662,0,0,0,1.216-2.8A29.234,29.234,0,0,0,37.856-7.552Zm-14.24.512q-.352-.608-.16-.7a.185.185,0,0,1,.128-.032,1,1,0,0,1,.512.224A9.4,9.4,0,0,1,26.9-4.88a4.862,4.862,0,0,1,.88,2.544,1.936,1.936,0,0,1-.32,1.152.953.953,0,0,1-.8.448,1.009,1.009,0,0,1-.544-.16.889.889,0,0,1-.416-.736,9.852,9.852,0,0,0-.7-2.672A18.757,18.757,0,0,0,23.616-7.04Zm34.272-3.712q0-.544-.32-.544-.256,0-.48.352A28.841,28.841,0,0,1,50.4-3.2q-.48.416-.7.192l-.064-.128a.874.874,0,0,1,.32-.544,30.925,30.925,0,0,0,3.936-5.328,38.186,38.186,0,0,0,2.976-6.224l.064-.288q0-.48-.608-.48H54.944a21.818,21.818,0,0,0-3.392.352h-.16a.679.679,0,0,1-.672-.448l-.128-.224a.8.8,0,0,1-.1-.352q0-.48.64-.416,1.088.1,3.3.16h2.784a.671.671,0,0,0,.5-.176.671.671,0,0,0,.176-.5v-4.416a.589.589,0,0,0-.192-.48.639.639,0,0,0-.544-.1q-3.392.608-5.952.864h-.192q-.48,0-.512-.224v-.032q0-.256.608-.384a51.516,51.516,0,0,0,7.2-2.112,19.592,19.592,0,0,0,4.736-2.368.679.679,0,0,1,.448-.16.765.765,0,0,1,.544.256q1.792,1.792,1.792,2.208,0,.224-.48.16l-.352-.032-.32-.032a1.723,1.723,0,0,0-.544.1q-1.536.512-3.68,1.024a.753.753,0,0,0-.576.768v4.96a.671.671,0,0,0,.176.5.671.671,0,0,0,.5.176h1.92a.9.9,0,0,0,.8-.448l.352-.512q.1-.128.288-.4a3.275,3.275,0,0,1,.336-.416.4.4,0,0,1,.272-.144,2.965,2.965,0,0,1,1.072.7A6.977,6.977,0,0,1,66.816-16.9a.7.7,0,0,1,.16.384.458.458,0,0,1-.192.352.968.968,0,0,1-.576.16H60.544a.671.671,0,0,0-.5.176.671.671,0,0,0-.176.5v1.12a.885.885,0,0,0,.512.8,11.657,11.657,0,0,1,4,2.8,4.479,4.479,0,0,1,1.28,2.736,1.408,1.408,0,0,1-.24.864.776.776,0,0,1-.656.32.852.852,0,0,1-.384-.1.989.989,0,0,1-.544-.672,15.875,15.875,0,0,0-3.136-4.7.7.7,0,0,0-.448-.256.326.326,0,0,0-.272.16.773.773,0,0,0-.112.448V-5.92q.064,3.488.224,7.04v.16a.766.766,0,0,1-.32.672,2.556,2.556,0,0,1-1.536.512.725.725,0,0,1-.48-.192.576.576,0,0,1-.224-.448q.128-1.888.224-3.664T57.888-6.5ZM74.624-19.84a52.147,52.147,0,0,0-.288-5.728V-25.7a.533.533,0,0,1,.128-.368.447.447,0,0,1,.352-.144,1.016,1.016,0,0,1,.288.064,14.318,14.318,0,0,1,1.824.672q.512.256.512.448,0,.16-.288.32l-.1.064a.857.857,0,0,0-.448.8V-.7A3.442,3.442,0,0,1,76.1,1.36a3.309,3.309,0,0,1-2.112.976h-.16a.66.66,0,0,1-.672-.544,3.4,3.4,0,0,0-.256-.576A1.6,1.6,0,0,0,72.288.7,7.365,7.365,0,0,0,70.464.128q-.64-.1-.64-.352,0-.16.48-.16.768,0,2.3.128a11.889,11.889,0,0,0,1.216.1.873.873,0,0,0,.624-.176.766.766,0,0,0,.176-.56ZM68-17.7a52.147,52.147,0,0,0-.288-5.728v-.128a.533.533,0,0,1,.128-.368.447.447,0,0,1,.352-.144A1.016,1.016,0,0,1,68.48-24a11.753,11.753,0,0,1,1.776.64q.5.256.5.448,0,.16-.288.32l-.1.064a.9.9,0,0,0-.448.8v9.344q.064,3.488.224,7.04v.16a.856.856,0,0,1-.288.672,2.745,2.745,0,0,1-.7.384,2.225,2.225,0,0,1-.8.16.563.563,0,0,1-.432-.192.642.642,0,0,1-.176-.448q.192-3.04.256-6.048ZM96.544-22.3a13.981,13.981,0,0,1,5.344,1.1,10.671,10.671,0,0,1,4.528,3.552,10.128,10.128,0,0,1,1.84,6.256q0,4.992-3.056,7.616A15.081,15.081,0,0,1,98.672-.368a27.255,27.255,0,0,1-5.808.784q-.448,0-.448-.16,0-.192,1.28-.416a19.461,19.461,0,0,0,8.9-3.68,9.245,9.245,0,0,0,3.424-7.68A9.9,9.9,0,0,0,104.56-17.1a8.659,8.659,0,0,0-3.7-3.2,11.262,11.262,0,0,0-4.672-1.008.99.99,0,0,0-.4.352.531.531,0,0,0-.08.448,11.408,11.408,0,0,1,.4,1.728,10.966,10.966,0,0,1,.144,1.664A15.772,15.772,0,0,1,95.1-11.68a25.11,25.11,0,0,1-2.416,4.944,14.524,14.524,0,0,1-2.624,3.168A3.626,3.626,0,0,1,88.032-2.5a2.894,2.894,0,0,1-2.16-1.136,8.2,8.2,0,0,1-1.6-2.992A12.664,12.664,0,0,1,83.68-10.5a10.758,10.758,0,0,1,1.824-6.16,12.218,12.218,0,0,1,4.8-4.176A13.9,13.9,0,0,1,96.544-22.3ZM95.232-18.72a8.993,8.993,0,0,0-.192-1.888.6.6,0,0,0-.768-.512,10.957,10.957,0,0,0-4.352,1.856,10.377,10.377,0,0,0-3.168,3.616,10.26,10.26,0,0,0-1.184,4.928,9.484,9.484,0,0,0,.464,3.2,5.47,5.47,0,0,0,1.04,1.888q.576.608.928.608a2.966,2.966,0,0,0,1.9-1.2A18.521,18.521,0,0,0,91.936-8.9a22.163,22.163,0,0,0,2.544-5.136A15.322,15.322,0,0,0,95.232-18.72ZM-116.48,29.32q-.2-.44-.52-.44a.675.675,0,0,0-.56.4,46.811,46.811,0,0,1-7.52,8.7,51.563,51.563,0,0,1-9.68,7.18,1.309,1.309,0,0,1-.56.22.293.293,0,0,1-.32-.14v-.08q0-.28.52-.64a42.973,42.973,0,0,0,6.56-5.5,57.746,57.746,0,0,0,5.84-6.82,17.621,17.621,0,0,0,2.96-5.92.74.74,0,0,1,.72-.6,1.041,1.041,0,0,1,.32.04l3,.96a1.2,1.2,0,0,1,.48.26.515.515,0,0,1,.2.38q0,.24-.28.28a.9.9,0,0,0-.44.72.684.684,0,0,0,.12.32,31.461,31.461,0,0,0,6.54,6.86,50.5,50.5,0,0,0,8.98,5.66,2.169,2.169,0,0,1,.44.24.346.346,0,0,1,.16.28q0,.2-.68.52a2.633,2.633,0,0,0-1.28,1.12.858.858,0,0,1-.64.44,1.06,1.06,0,0,1-.52-.16,42.5,42.5,0,0,1-8.12-6.46A30.941,30.941,0,0,1-116.48,29.32Zm-4.16,11.96a26.01,26.01,0,0,0-4.08.44h-.2a.849.849,0,0,1-.84-.56l-.16-.32a1,1,0,0,1-.12-.44.479.479,0,0,1,.2-.42.8.8,0,0,1,.56-.1q1.4.12,4.16.2h6.24a1.149,1.149,0,0,0,1-.52l.44-.64q.12-.16.36-.5a4.093,4.093,0,0,1,.42-.52.5.5,0,0,1,.34-.18q.32,0,1.36.9a11.31,11.31,0,0,1,1.56,1.58.688.688,0,0,1,.16.44.543.543,0,0,1-.16.4,1.039,1.039,0,0,1-.76.24Zm11,7.64a.533.533,0,0,0-.2-.44.807.807,0,0,0-.52-.16h-13.56a43.087,43.087,0,0,0-5.28.44h-.24a.822.822,0,0,1-.8-.52l-.16-.28a1.065,1.065,0,0,1-.12-.48.44.44,0,0,1,.2-.38.8.8,0,0,1,.56-.1q1.36.12,4.12.2h15.76a1.252,1.252,0,0,0,1.04-.52l.24-.32q.12-.12.42-.48t.54-.36q.28,0,1.18.76a10.9,10.9,0,0,1,1.42,1.4.543.543,0,0,1,.16.4.621.621,0,0,1-.44.56,2.556,2.556,0,0,1-.6.16,1.245,1.245,0,0,0-.96.68q-1.12,2.64-2.84,6.38t-3.2,6.74q-.28.6-.64.64a1.213,1.213,0,0,1-.36.04,4.076,4.076,0,0,1-1.08-.2.709.709,0,0,1-.56-.68,1.834,1.834,0,0,1,.16-.56q3.2-6.44,5.68-12.56ZM-63,28.84a10.85,10.85,0,0,1,3.52.6,2.189,2.189,0,0,1,1.76,2.12,1.037,1.037,0,0,1-.34.82,1.054,1.054,0,0,1-.7.3,1.71,1.71,0,0,1-1.4-.64,7.566,7.566,0,0,0-1.3-1.36,6.46,6.46,0,0,0-1.7-.88,4.265,4.265,0,0,0-.6-.18,2.381,2.381,0,0,1-.46-.14.257.257,0,0,1-.18-.24Q-64.4,28.84-63,28.84Zm-14.8,9.52a4.031,4.031,0,0,1,3.54,1.62,7.719,7.719,0,0,1,1.14,4.5,26.685,26.685,0,0,1-.44,4.08,30.929,30.929,0,0,1-1.36,5.24,10.476,10.476,0,0,1-2.28,3.96,8.6,8.6,0,0,1-1.48,1.2,2.625,2.625,0,0,1-1.36.48,1.053,1.053,0,0,1-.9-.4,3.792,3.792,0,0,1-.5-.92q-.2-.52-.28-.68a12.785,12.785,0,0,0-1.92-3.04,1.587,1.587,0,0,1-.44-.72q0-.08.12-.08a6.872,6.872,0,0,1,1.56.88l.72.48a7.356,7.356,0,0,0,1.04.68,1.775,1.775,0,0,0,.8.2q1.36,0,2.42-2.16a21.322,21.322,0,0,0,1.66-5.02,23.723,23.723,0,0,0,.6-4.66q0-4.2-2.6-4.2a11.475,11.475,0,0,0-4.12,1.16,1.326,1.326,0,0,0-.72.88,46.986,46.986,0,0,1-5.84,14.4,5.25,5.25,0,0,1-1.12,1.38,1.84,1.84,0,0,1-1.16.5,1.038,1.038,0,0,1-.76-.32,1.085,1.085,0,0,1-.32-.8,6.109,6.109,0,0,1,1.56-3.16,31.38,31.38,0,0,0,5.2-10.32A1.041,1.041,0,0,0-85,43.2q0-.56-.52-.56a1,1,0,0,0-.44.12,14.675,14.675,0,0,1-3.64,1.2,3.27,3.27,0,0,1-1.7-.52,4.748,4.748,0,0,1-1.42-1.3,2.55,2.55,0,0,1-.56-1.46q0-.36.2-.36a1.364,1.364,0,0,1,.5.16q.34.16.54.24a5.832,5.832,0,0,0,2.32.48,11.37,11.37,0,0,0,2.46-.3q1.02-.26,2.5-.78a1.113,1.113,0,0,0,.72-.88,17.381,17.381,0,0,0,.44-3.72,4.647,4.647,0,0,0-.84-3.04q-.28-.32-.74-.8t-.46-.64q0-.24.34-.36a2.619,2.619,0,0,1,.86-.12,5.826,5.826,0,0,1,1.6.24,4.067,4.067,0,0,1,1.32.6,1.591,1.591,0,0,1,.64,1.28,6.726,6.726,0,0,1-.24,1.28q-.2.8-.32,1.56-.04.32-.12.92t-.24,1.6l-.04.28a.546.546,0,0,0,.22.5.751.751,0,0,0,.58.06A12.115,12.115,0,0,1-77.8,38.36Zm11.12-5.32q-.12-.04-.42-.12a1.408,1.408,0,0,1-.44-.18.306.306,0,0,1-.14-.26q0-.4,1.28-.4a8.848,8.848,0,0,1,3.66.78A2.485,2.485,0,0,1-61,35.16a1.045,1.045,0,0,1-.38.84,1.353,1.353,0,0,1-.9.32,1.412,1.412,0,0,1-1.28-.72,7.67,7.67,0,0,0-1.34-1.62A4.621,4.621,0,0,0-66.68,33.04ZM-69.12,38a11.457,11.457,0,0,1,5.06,1.2,7.367,7.367,0,0,1,2.86,2.52,5.205,5.205,0,0,1,.88,2.68,3.7,3.7,0,0,1-.78,2.38,2.143,2.143,0,0,1-1.62.98,1.434,1.434,0,0,1-.88-.3,5.586,5.586,0,0,0-.48-.34,3.626,3.626,0,0,0-1.52-.56q-.96-.16-2.28-.32-.56-.08-.56-.24,0-.2.48-.24,2.6-.28,2.72-.28a4.344,4.344,0,0,0,1.5-.48,1.024,1.024,0,0,0,.42-.92,4.67,4.67,0,0,0-1.8-3.52,9.452,9.452,0,0,0-4.12-2.16q-.36-.08-.36-.24T-69.12,38Zm42.08-9.32a1.149,1.149,0,0,0,1-.52l.24-.32q.12-.16.4-.5a.747.747,0,0,1,.52-.34,2.8,2.8,0,0,1,1.14.68,8.35,8.35,0,0,1,1.34,1.28.884.884,0,0,1,.2.4q0,.28-.4.56l-.24.12a.918.918,0,0,0-.72.92v1.48l.08,1.68q0,.68.08,1.88v.2a.89.89,0,0,1-.36.8,3.631,3.631,0,0,1-.94.46,3.129,3.129,0,0,1-.98.18.3.3,0,0,1-.26-.2,1.275,1.275,0,0,1-.1-.56.67.67,0,0,0-.22-.52.889.889,0,0,0-.62-.2H-48.24a.838.838,0,0,0-.62.22.838.838,0,0,0-.22.62v.2q0,.16-.72.48a3.436,3.436,0,0,1-1.4.32.47.47,0,0,1-.4-.24.986.986,0,0,1-.16-.56q.12-.88.16-1.84a8.157,8.157,0,0,1,.04-.88V32.72q0-2.52-.16-4.32v-.16a.645.645,0,0,1,.14-.44.436.436,0,0,1,.34-.16,1,1,0,0,1,.44.12l1.52.68a2.656,2.656,0,0,0,1.04.24Zm-16.88,6.36a.838.838,0,0,0,.62-.22.838.838,0,0,0,.22-.62V30.68a.838.838,0,0,0-.22-.62.838.838,0,0,0-.62-.22h-4.32a.838.838,0,0,0-.62.22.838.838,0,0,0-.22.62V34.2a.838.838,0,0,0,.22.62.838.838,0,0,0,.62.22Zm8.48,0a.838.838,0,0,0,.62-.22.838.838,0,0,0,.22-.62V30.68a.838.838,0,0,0-.22-.62.838.838,0,0,0-.62-.22h-4.4a.838.838,0,0,0-.62.22.838.838,0,0,0-.22.62V34.2a.838.838,0,0,0,.22.62.838.838,0,0,0,.62.22Zm8.56,0a.838.838,0,0,0,.62-.22.838.838,0,0,0,.22-.62V30.68a.838.838,0,0,0-.22-.62.838.838,0,0,0-.62-.22h-4.48a.838.838,0,0,0-.62.22.838.838,0,0,0-.22.62V34.2a.838.838,0,0,0,.22.62.838.838,0,0,0,.62.22Zm-3.2,4.24a1.149,1.149,0,0,0,1-.52l.28-.36.3-.4a2.3,2.3,0,0,1,.32-.36.453.453,0,0,1,.3-.12,2.783,2.783,0,0,1,1.14.7,7.91,7.91,0,0,1,1.34,1.34.884.884,0,0,1,.2.4q0,.28-.4.56l-.28.12a.918.918,0,0,0-.72.92v4.96q.08,4.36.28,8.8v.2a.859.859,0,0,1-.4.8,4.033,4.033,0,0,1-.96.48,3.017,3.017,0,0,1-1,.2q-.4,0-.4-.76a.718.718,0,0,0-.22-.56.889.889,0,0,0-.62-.2H-45.2a.838.838,0,0,0-.62.22.838.838,0,0,0-.22.62v.32q0,.2-.68.56a2.957,2.957,0,0,1-1.4.36.7.7,0,0,1-.54-.24.8.8,0,0,1-.22-.56q.24-3.4.32-6.88V46a63.274,63.274,0,0,0-.36-7.04V38.8q0-.6.52-.6a.891.891,0,0,1,.4.08l1.68.76a2.463,2.463,0,0,0,1.04.24Zm.16,4.96a.838.838,0,0,0,.62-.22.838.838,0,0,0,.22-.62V41.28a.838.838,0,0,0-.22-.62.838.838,0,0,0-.62-.22H-45.2a.838.838,0,0,0-.62.22.838.838,0,0,0-.22.62V43.4a.838.838,0,0,0,.22.62.838.838,0,0,0,.62.22ZM-46.04,48.4a.838.838,0,0,0,.22.62.838.838,0,0,0,.62.22h15.28a.838.838,0,0,0,.62-.22.838.838,0,0,0,.22-.62V46.24a.838.838,0,0,0-.22-.62.838.838,0,0,0-.62-.22H-45.2a.838.838,0,0,0-.62.22.838.838,0,0,0-.22.62Zm.84,2.04a.838.838,0,0,0-.62.22.838.838,0,0,0-.22.62v2.24a.838.838,0,0,0,.22.62.838.838,0,0,0,.62.22h15.28a.838.838,0,0,0,.62-.22.838.838,0,0,0,.22-.62V51.28a.838.838,0,0,0-.22-.62.838.838,0,0,0-.62-.22Zm2.44,6.12a.841.841,0,0,1,.6-.28.841.841,0,0,1,.6.28l.8.8a7.507,7.507,0,0,0,.8.68q.88.6.88.88,0,.2-.6.2h-.36a2.5,2.5,0,0,0-1.04.2,45.834,45.834,0,0,1-5.78,2.1,50.9,50.9,0,0,1-6.62,1.5,1.213,1.213,0,0,1-.36.04q-.44,0-.52-.24v-.08q0-.28.72-.52a53.089,53.089,0,0,0,5.12-1.92A21.242,21.242,0,0,0-42.76,56.56Zm8.4,1.6q-.72-.2-.72-.52a.256.256,0,0,1,.22-.26,2.221,2.221,0,0,1,.7-.02,39.9,39.9,0,0,1,7.26,1.2,12.657,12.657,0,0,1,3.94,1.68q1.16.88,1.16,1.68a1.006,1.006,0,0,1-.42.84,1.634,1.634,0,0,1-1.02.32,2.347,2.347,0,0,1-1.36-.48,20.841,20.841,0,0,0-4.04-2.38A36.043,36.043,0,0,0-34.36,58.16Zm32.48.56a5.231,5.231,0,0,1-2.08-.6,12,12,0,0,1-2.8-1.96q-3.88-3.52-3.88-10a33.966,33.966,0,0,1,.44-4.92,21.584,21.584,0,0,0,.24-2.4,4.31,4.31,0,0,0-.34-1.74,4.627,4.627,0,0,0-1.18-1.54q-.24-.2-.24-.32t.16-.18a.906.906,0,0,1,.32-.06,4.221,4.221,0,0,1,1.82.5,5.521,5.521,0,0,1,1.74,1.32,2.52,2.52,0,0,1,.72,1.66,4.54,4.54,0,0,1-.18,1.18q-.18.66-.42,1.38-.52,1.68-.78,2.88a13.341,13.341,0,0,0-.26,2.8,9.037,9.037,0,0,0,.82,3.9,8.354,8.354,0,0,0,1.92,2.72,3.125,3.125,0,0,0,1.9.98q.48,0,.64-.84a31.174,31.174,0,0,1,.78-3.04,14.556,14.556,0,0,1,.66-1.8,2.563,2.563,0,0,1,.28-.5q.16-.22.28-.22t.12.24a4.8,4.8,0,0,1-.08.68,19.474,19.474,0,0,0-.4,3.72q0,.6.04,1.14t.08.86a5.272,5.272,0,0,0,.44,1.72A5.142,5.142,0,0,1-.8,57.6a1.154,1.154,0,0,1-.28.82A1.041,1.041,0,0,1-1.88,58.72Zm16.6-10.64a1.485,1.485,0,0,1-1.1-.32,2.5,2.5,0,0,1-.5-.88q-.04-.08-.7-2.58a5.052,5.052,0,0,0-2.58-3.46,5.4,5.4,0,0,0-2.48-.48H6.88q-.36,0-.36-.24,0-.16.4-.32a3.961,3.961,0,0,1,.78-.2,7.287,7.287,0,0,1,1.38-.12,6.749,6.749,0,0,1,4.84,1.96,7.636,7.636,0,0,1,1.96,2.7,6.262,6.262,0,0,1,.52,2.06,2.039,2.039,0,0,1-.46,1.3A1.48,1.48,0,0,1,14.72,48.08Zm39.6-8.36a1.128,1.128,0,0,0,1-.56l.44-.64q.16-.2.38-.54a3.167,3.167,0,0,1,.38-.5.461.461,0,0,1,.32-.16,3.6,3.6,0,0,1,1.4.9A8.931,8.931,0,0,1,59.8,39.8a.865.865,0,0,1,.2.44.612.612,0,0,1-.2.44,1.21,1.21,0,0,1-.72.2H43.52a43.086,43.086,0,0,0-5.28.44H38a.822.822,0,0,1-.8-.52l-.16-.32a1,1,0,0,1-.12-.44.479.479,0,0,1,.2-.42.8.8,0,0,1,.56-.1q1.4.12,4.16.2h3.64a.765.765,0,0,0,.84-.84v-4.2a.765.765,0,0,0-.84-.84H43.6a26.307,26.307,0,0,0-4.16.44H39.2a.822.822,0,0,1-.8-.52l-.16-.32a1.065,1.065,0,0,1-.12-.48.44.44,0,0,1,.2-.38.8.8,0,0,1,.56-.1q1.36.12,4.12.2h2.48a.742.742,0,0,0,.84-.84q-.08-2.52-.24-4.4v-.16a.667.667,0,0,1,.16-.46.558.558,0,0,1,.44-.18,1.27,1.27,0,0,1,.36.08,14.919,14.919,0,0,1,2.18.8q.62.32.62.56t-.36.44l-.16.08a1.162,1.162,0,0,0-.56,1.04v2.2a.765.765,0,0,0,.84.84h3.48a1.149,1.149,0,0,0,1-.52l.44-.64a5.761,5.761,0,0,0,.34-.48,2.871,2.871,0,0,1,.38-.48.552.552,0,0,1,.36-.2,3.421,3.421,0,0,1,1.36.86,11.456,11.456,0,0,1,1.56,1.5.88.88,0,0,1,.2.48.572.572,0,0,1-.24.44,1.4,1.4,0,0,1-.76.2H49.6a.765.765,0,0,0-.84.84v4.2a.765.765,0,0,0,.84.84ZM29.24,55.16a.765.765,0,0,0-.84.84v.4l.12,1.68a3.371,3.371,0,0,1-.04.58.8.8,0,0,1-.24.42,2.433,2.433,0,0,1-1.8.68.8.8,0,0,1-.58-.26.765.765,0,0,1-.26-.54q.16-2.36.28-4.58t.16-5.82V36.84a61.914,61.914,0,0,0-.36-7.04v-.16q0-.6.52-.6a.891.891,0,0,1,.4.08l1.84.8a2.391,2.391,0,0,0,1,.2h3.32a1.187,1.187,0,0,0,1.04-.52l.2-.28q.12-.16.4-.5a.747.747,0,0,1,.52-.34,3.127,3.127,0,0,1,1.2.68,7.519,7.519,0,0,1,1.4,1.28.865.865,0,0,1,.2.44q0,.24-.36.52a1.01,1.01,0,0,1-.24.12,1.552,1.552,0,0,0-.2.08.918.918,0,0,0-.72.92V47.36q.08,4.36.28,8.8v.2a.859.859,0,0,1-.4.8,4.815,4.815,0,0,1-.96.54,2.482,2.482,0,0,1-.96.22.464.464,0,0,1-.4-.28,1,1,0,0,1-.12-.44,5.249,5.249,0,0,1,.08-.6v-.04a2.666,2.666,0,0,0,.08-.96q0-.44-.84-.44ZM32.96,42a.765.765,0,0,0,.84-.84v-9a.765.765,0,0,0-.84-.84H29.24a.765.765,0,0,0-.84.84v9a.765.765,0,0,0,.84.84Zm21.88,4.36a1.149,1.149,0,0,0,1-.52l.4-.6q.12-.16.34-.48a3.529,3.529,0,0,1,.38-.48.461.461,0,0,1,.32-.16q.32,0,1.32.84a9.566,9.566,0,0,1,1.48,1.48.6.6,0,0,1,.16.44.612.612,0,0,1-.2.44,1.4,1.4,0,0,1-.76.2h-4.8a.765.765,0,0,0-.84.84V59.24a6.215,6.215,0,0,1-.22,1.82,2.239,2.239,0,0,1-.92,1.18,5.029,5.029,0,0,1-2.1.68l-.24.04q-.56,0-.76-.72a1.686,1.686,0,0,0-.72-1.04,5.979,5.979,0,0,0-2.6-.88q-.8-.12-.8-.44,0-.28.88-.28.32,0,1.04.08,2.48.16,3.08.16a1.09,1.09,0,0,0,.72-.18.8.8,0,0,0,.2-.62V48.36a.765.765,0,0,0-.84-.84H43.72a43.087,43.087,0,0,0-5.28.44H38.2a.822.822,0,0,1-.8-.52l-.16-.32a1,1,0,0,1-.12-.44.479.479,0,0,1,.2-.42.8.8,0,0,1,.56-.1q1.44.12,4.16.2h8.32a.742.742,0,0,0,.84-.84q-.08-2.08-.16-3v-.08q0-.68.56-.68a2.4,2.4,0,0,1,.4.08,15.882,15.882,0,0,1,2.02.78q.58.3.58.54,0,.16-.32.36l-.08.04a1.128,1.128,0,0,0-.56,1v.96a.765.765,0,0,0,.84.84ZM29.24,43.2a.765.765,0,0,0-.84.84V53.2a.765.765,0,0,0,.84.84h3.72a.765.765,0,0,0,.84-.84V44.04a.765.765,0,0,0-.84-.84Zm11.2,6.76a1.24,1.24,0,0,1-.4-.68q0-.2.24-.2a4.794,4.794,0,0,1,.64.16A10.846,10.846,0,0,1,45,51.96a4.587,4.587,0,0,1,1.28,2.88,1.855,1.855,0,0,1-.38,1.22,1.174,1.174,0,0,1-.94.46,1.507,1.507,0,0,1-.6-.12.824.824,0,0,1-.4-.32,3.238,3.238,0,0,1-.24-.52,11.331,11.331,0,0,0-1.28-2.84A19.8,19.8,0,0,0,40.44,49.96Zm43.8-13.192a3.756,3.756,0,0,1,2.032.592,1.69,1.69,0,0,1,.944,1.424.653.653,0,0,1-.208.528.789.789,0,0,1-.528.176,9.636,9.636,0,0,1-1.792-.224l-.864-.128a7.384,7.384,0,0,0-1.056-.1,6.963,6.963,0,0,0-1.84.24,7.518,7.518,0,0,0-1.264.432,6.107,6.107,0,0,0-2.352,2.816,20.408,20.408,0,0,0-1.6,4.672,21.329,21.329,0,0,0-.56,4.48q0,3.232,1.1,4.528A4.15,4.15,0,0,0,79.6,57.5l.9-.064a12.023,12.023,0,0,1,1.472-.128q2.3,0,2.3,1.12,0,.832-1.3,1.1a12.664,12.664,0,0,1-2.608.272,8.484,8.484,0,0,1-4.176-.864,4.779,4.779,0,0,1-2.16-2.624,13.754,13.754,0,0,1-.64-4.608,17.006,17.006,0,0,1,1.12-6.128,17.681,17.681,0,0,1,2.912-5.072q.992-1.056.864-.992l-.128.032a17.335,17.335,0,0,0-2.544.848q-1.648.656-4.208,1.744l-1.376.576q-.256.128-1.12.576-.608.32-.96.48a1.759,1.759,0,0,1-.736.16A2.8,2.8,0,0,1,65.5,43.2a6.543,6.543,0,0,1-1.392-1.472.7.7,0,0,1-.16-.384.328.328,0,0,1,.32-.32.848.848,0,0,1,.416.128q.064.032.544.3a2.371,2.371,0,0,0,1.184.272,3.841,3.841,0,0,0,.544-.064l1.952-.64q3.584-1.216,6.576-2.1a35.528,35.528,0,0,1,5.52-1.2,3.96,3.96,0,0,0,.928-.24q.448-.176.576-.24A3.934,3.934,0,0,1,84.24,36.768Zm8.64-.352a1.05,1.05,0,0,1-.592-.208,1.486,1.486,0,0,1-.5-.624,5.591,5.591,0,0,0-.816-1.328,5.324,5.324,0,0,0-1.2-.976q-.192-.128-.4-.24a2.527,2.527,0,0,1-.352-.224.311.311,0,0,1-.144-.24q0-.192.384-.192a6,6,0,0,1,1.808.368,6.156,6.156,0,0,1,1.952,1.056,2.035,2.035,0,0,1,.848,1.616.892.892,0,0,1-.3.768A1.131,1.131,0,0,1,92.88,36.416ZM89.36,38.5a1.326,1.326,0,0,1-.672-.208,1.2,1.2,0,0,1-.512-.688,6.27,6.27,0,0,0-.784-1.584A4.224,4.224,0,0,0,86.16,34.88q-.1-.064-.3-.192a1.722,1.722,0,0,1-.3-.224.277.277,0,0,1-.1-.192q0-.224.32-.224a6.584,6.584,0,0,1,1.52.384,7.348,7.348,0,0,1,2.144,1.12,2.21,2.21,0,0,1,.976,1.824A1.042,1.042,0,0,1,89.36,38.5Zm31.776,1.376a3.729,3.729,0,0,1,1.216.4.823.823,0,0,1,.384.752q0,.864-1.056.864-.032,0-1.248-.128a52.867,52.867,0,0,0-5.856-.416q-.672,0-1.888.064-.64,0-.64.672-.064,2.368-.064,3.552V47.3a2.421,2.421,0,0,0,.224.832,12.413,12.413,0,0,1,.864,2.384,9.408,9.408,0,0,1,.32,2.288,7.9,7.9,0,0,1-1.248,4.512,9.406,9.406,0,0,1-2.912,2.864,11.373,11.373,0,0,1-3.072,1.36,1.356,1.356,0,0,1-.32.064q-.224,0-.224-.16,0-.224.352-.352a8.056,8.056,0,0,0,4.272-3.632,9.18,9.18,0,0,0,1.04-3.824q0-.032-.176.112t-.5.368a2.569,2.569,0,0,1-1.344.544A2.266,2.266,0,0,1,107.648,54a4.968,4.968,0,0,1-1.1-1.584,9.517,9.517,0,0,1-.608-1.76,7.279,7.279,0,0,1-.224-1.7,4.129,4.129,0,0,1,.816-2.576,2.71,2.71,0,0,1,2.288-1.072,2.843,2.843,0,0,1,.9.16.8.8,0,0,0,.352.064q.384,0,.416-.416A20.941,20.941,0,0,0,110.7,42.3a.63.63,0,0,0-.192-.512.72.72,0,0,0-.544-.128,28.194,28.194,0,0,0-6.5,2.08q-.7.32-1.248.512a3.741,3.741,0,0,1-1.248.192,3.638,3.638,0,0,1-1.824-.512,5.872,5.872,0,0,1-1.28-1.024q-.576-.608-.576-.928,0-.192.224-.192a3.261,3.261,0,0,1,.864.16,8.537,8.537,0,0,0,1.664.224,10.3,10.3,0,0,0,2.3-.288q1.088-.224,3.184-.608t4.528-.768a.628.628,0,0,0,.608-.672q0-.352-.064-1.248l-.032-.8a3.857,3.857,0,0,0-.352-1.488,2.758,2.758,0,0,0-.672-.976,4.827,4.827,0,0,0-.464-.352q-.24-.16-.24-.256,0-.224.4-.352a2.564,2.564,0,0,1,.784-.128,2.6,2.6,0,0,1,1.12.256q1.376.608,1.376,1.536a1.19,1.19,0,0,1-.032.288l-.032.224a.752.752,0,0,0,.384.64,22.315,22.315,0,0,0,4.384,2.08,12.842,12.842,0,0,0,1.664.368q.768.112,1.344.144A7.977,7.977,0,0,1,121.136,39.872Zm-6.88.1q.16,0,.464-.016a1.838,1.838,0,0,0,.448-.064q.144-.048.144-.144,0-.128-.208-.256a1.709,1.709,0,0,1-.272-.192l-1.792-1.28a.856.856,0,0,0-.416-.16q-.384,0-.448.544-.032.32-.032,1.152,0,.64.96.544Zm-5.344,12.288a1.349,1.349,0,0,0,1.1-.544,2.908,2.908,0,0,0,.432-1.792,7.093,7.093,0,0,0-.448-2.4q-.448-1.248-1.408-1.248a1.6,1.6,0,0,0-1.392.8,3.777,3.777,0,0,0-.528,2.112,3.515,3.515,0,0,0,.7,2.1A1.946,1.946,0,0,0,108.912,52.256ZM132.5,61.92a4.167,4.167,0,0,1-4.192-4.192,4.057,4.057,0,0,1,.56-2.08,4.218,4.218,0,0,1,3.632-2.08,4.057,4.057,0,0,1,2.08.56,4.155,4.155,0,0,1,1.52,1.52,4.057,4.057,0,0,1,.56,2.08,4.167,4.167,0,0,1-2.08,3.632A4.057,4.057,0,0,1,132.5,61.92Zm0-.8a3.387,3.387,0,0,0,3.392-3.392,3.232,3.232,0,0,0-.992-2.368,3.4,3.4,0,0,0-4.8,0,3.232,3.232,0,0,0-.992,2.368A3.387,3.387,0,0,0,132.5,61.12Z" transform="translate(817 5426)" fill="#fff"/>
    <g id="強調" transform="translate(-97 65)">
      <circle id="楕円形_9" data-name="楕円形 9" cx="4.5" cy="4.5" r="4.5" transform="translate(791 5374)" fill="#f4d272"/>
      <circle id="楕円形_10" data-name="楕円形 10" cx="4.5" cy="4.5" r="4.5" transform="translate(832 5374)" fill="#f4d272"/>
      <circle id="楕円形_11" data-name="楕円形 11" cx="4.5" cy="4.5" r="4.5" transform="translate(873 5374)" fill="#f4d272"/>
      <circle id="楕円形_12" data-name="楕円形 12" cx="4.5" cy="4.5" r="4.5" transform="translate(914 5374)" fill="#f4d272"/>
      <circle id="楕円形_13" data-name="楕円形 13" cx="4.5" cy="4.5" r="4.5" transform="translate(955 5374)" fill="#f4d272"/>
    </g>
  </g>
</svg>
