<svg xmlns="http://www.w3.org/2000/svg" width="304.584" height="148.512" viewBox="0 0 304.584 148.512">
  <g id="copy" transform="translate(-510.04 -678.408)">
    <path id="パス_32385" data-name="パス 32385" d="M-104.7-18.272a4.253,4.253,0,0,1,1.328.672,15.409,15.409,0,0,1,1.968,1.456q.9.784.9,1.3a.544.544,0,0,1-.352.576,3.217,3.217,0,0,1-.9.16,3.663,3.663,0,0,0-1.024.16,4.649,4.649,0,0,0-1.056.672q-2.112,1.7-3.312,2.624a21.909,21.909,0,0,1-2.352,1.6.54.54,0,0,0-.32.448.685.685,0,0,0,.288.448q1.984,1.536,1.984,3.072a1.676,1.676,0,0,1-.368,1.072,1.122,1.122,0,0,1-.912.464q-1.088,0-1.824-1.6a12.948,12.948,0,0,0-2.064-2.992,10.106,10.106,0,0,0-3.216-2.544q-.448-.224-.448-.384,0-.128.256-.128a8.018,8.018,0,0,1,1.952.576,20.567,20.567,0,0,1,2.944,1.376.848.848,0,0,0,.416.128.7.7,0,0,0,.512-.224q4.8-4.416,4.8-6.528,0-.448-.512-.448-.448,0-5.408.656t-7.04,1.1a15.371,15.371,0,0,0-2.656.8,2.452,2.452,0,0,1-.768.192,2.618,2.618,0,0,1-1.7-.7,3.927,3.927,0,0,1-1.12-1.376,1.079,1.079,0,0,1-.128-.48q0-.224.128-.224a1.042,1.042,0,0,1,.288.1q.224.1.416.16a5.448,5.448,0,0,0,1.728.256q.288,0,1.056-.064a8.973,8.973,0,0,1,.96-.064q1.7-.1,7.584-.784a58.647,58.647,0,0,0,6.976-1.04,1.91,1.91,0,0,0,.544-.288A.79.79,0,0,1-104.7-18.272Zm21.248,1.728q-.9,0-1.728-1.28A6.142,6.142,0,0,0-87.1-19.68a9.935,9.935,0,0,0-2.528-1.12,3.322,3.322,0,0,1-.416-.128q-.16-.064-.16-.16,0-.288,1.472-.288a12.447,12.447,0,0,1,2.8.336,6.215,6.215,0,0,1,2.416,1.072A2.708,2.708,0,0,1-82.3-17.856a1.433,1.433,0,0,1-.3.944A1.039,1.039,0,0,1-83.456-16.544Zm-6.112,12.1A4.085,4.085,0,0,1-89.7-5.44a1.82,1.82,0,0,1,.112-.688q.112-.272.208-.272t.288.352a2.957,2.957,0,0,0,.512.672,3.733,3.733,0,0,0,.592.5A1.447,1.447,0,0,0-87.2-4.7q1.152,0,4.192-1.856a61.653,61.653,0,0,0,7.088-5.232,90.23,90.23,0,0,0,8.112-7.728q.288-.352.512-.352a.113.113,0,0,1,.128.128,1.582,1.582,0,0,1-.32.672A56.475,56.475,0,0,1-72.672-12.9Q-75.68-9.76-78.48-7.312t-4.432,3.6a4.459,4.459,0,0,1-.64.416q-.288.192-.576.416a5.384,5.384,0,0,0-.64.608A2,2,0,0,1-86.3-1.5a3.015,3.015,0,0,1-2.032-.88A3.827,3.827,0,0,1-89.568-4.448Zm39.584-12.8a1.624,1.624,0,0,1-.672-.16,1.242,1.242,0,0,1-.512-.384,12.33,12.33,0,0,0-1.424-1.488,11.038,11.038,0,0,0-1.456-1.008,7.423,7.423,0,0,0-.88-.432,4.958,4.958,0,0,1-.592-.272.77.77,0,0,1-.192-.08.238.238,0,0,1-.16-.208q0-.288,1.088-.288a10.519,10.519,0,0,1,2.64.352,6.225,6.225,0,0,1,2.272,1.056A2.061,2.061,0,0,1-48.96-18.5a1.439,1.439,0,0,1-.272.88A.883.883,0,0,1-49.984-17.248ZM-54.976-.48a.968.968,0,0,1-.736-.448,8.617,8.617,0,0,1-1.2-2.24,6.7,6.7,0,0,1-.56-2.08q0-.544.32-.544.128,0,.352.288l.448.576a2.259,2.259,0,0,0,1.76.7,4.018,4.018,0,0,0,1.76-.416,46.011,46.011,0,0,0,9.008-5.616,44.091,44.091,0,0,0,7.952-7.856q.288-.416.544-.416a.17.17,0,0,1,.192.192,1.189,1.189,0,0,1-.224.608,41.973,41.973,0,0,1-5.5,6.608,58.265,58.265,0,0,1-6.384,5.488,49.674,49.674,0,0,1-5.68,3.68,5.657,5.657,0,0,0-1.024.8,4.981,4.981,0,0,1-.576.512A.767.767,0,0,1-54.976-.48Zm1.632-10.176a1.267,1.267,0,0,1-.592-.16,2.039,2.039,0,0,1-.5-.352A10.545,10.545,0,0,0-55.68-12.32q-.48-.352-1.216-.8a8.116,8.116,0,0,0-1.36-.656q-.592-.208-.752-.272-.256-.1-.256-.224,0-.192.688-.272a11.5,11.5,0,0,1,1.328-.08,7.107,7.107,0,0,1,3.392.784,2.371,2.371,0,0,1,1.472,2.128,1.145,1.145,0,0,1-.256.736A.852.852,0,0,1-53.344-10.656ZM-11.1-13.92a1.648,1.648,0,0,1,.8.416,6.2,6.2,0,0,1,.976.928,1.518,1.518,0,0,1,.432.736.707.707,0,0,1-.144.4,3.062,3.062,0,0,0-.176.272,3.262,3.262,0,0,0-.448.832q-.1.416-.24,2.848T-10.08-4.1v1.408a8.75,8.75,0,0,1-.032.96,1.578,1.578,0,0,1-.48,1.056,1.376,1.376,0,0,1-.832.256.585.585,0,0,1-.56-.4,2.161,2.161,0,0,1-.176-.88q0-.352-.416-.352l-.416.032q-5.184.32-6.336.48l-.768.128a3.721,3.721,0,0,1-.96.16,1.12,1.12,0,0,1-.752-.4A5.1,5.1,0,0,1-22.5-2.5a1.4,1.4,0,0,1-.256-.608q0-.224.192-.224a1.782,1.782,0,0,1,.384.128,4.125,4.125,0,0,0,1.44.384q.9-.032,3.264-.128t4.7-.224a.633.633,0,0,0,.64-.7l.064-.864.1-1.376V-6.24q0-.576-.352-.576l-.384.032q-4.928.192-5.856.192a8.526,8.526,0,0,0-1.408.16,2.821,2.821,0,0,1-.672.1,1.8,1.8,0,0,1-1.168-.512A2.3,2.3,0,0,1-22.56-7.9a.709.709,0,0,1-.032-.224q0-.256.192-.256a1.007,1.007,0,0,1,.352.128,5.33,5.33,0,0,0,.512.224,4.365,4.365,0,0,0,.928.16q.96-.032,3.392-.128t4.8-.224a.656.656,0,0,0,.672-.672l.224-2.784a.312.312,0,0,0-.064-.224.435.435,0,0,0-.288-.064q-1.056.032-3.712.144t-3.52.208a8,8,0,0,0-1.056.16,8.06,8.06,0,0,1-.992.128,1.444,1.444,0,0,1-.944-.4,3.992,3.992,0,0,1-.784-.912,1.35,1.35,0,0,1-.224-.544.323.323,0,0,1,.064-.208.2.2,0,0,1,.16-.08.677.677,0,0,1,.32.112q.192.112.288.176a4.929,4.929,0,0,0,2.112.32q1.792,0,4.528-.112a13.371,13.371,0,0,0,3.216-.336,6.8,6.8,0,0,0,.72-.384A1.248,1.248,0,0,1-11.1-13.92Zm23.648-2.624q-.9,0-1.728-1.28A6.142,6.142,0,0,0,8.9-19.68,9.935,9.935,0,0,0,6.368-20.8a3.322,3.322,0,0,1-.416-.128q-.16-.064-.16-.16,0-.288,1.472-.288a12.447,12.447,0,0,1,2.8.336,6.216,6.216,0,0,1,2.416,1.072A2.708,2.708,0,0,1,13.7-17.856a1.433,1.433,0,0,1-.3.944A1.039,1.039,0,0,1,12.544-16.544ZM6.432-4.448A4.085,4.085,0,0,1,6.3-5.44a1.82,1.82,0,0,1,.112-.688q.112-.272.208-.272t.288.352a2.957,2.957,0,0,0,.512.672,3.733,3.733,0,0,0,.592.5A1.447,1.447,0,0,0,8.8-4.7q1.152,0,4.192-1.856a61.653,61.653,0,0,0,7.088-5.232,90.229,90.229,0,0,0,8.112-7.728q.288-.352.512-.352a.113.113,0,0,1,.128.128,1.582,1.582,0,0,1-.32.672A56.475,56.475,0,0,1,23.328-12.9Q20.32-9.76,17.52-7.312t-4.432,3.6a4.459,4.459,0,0,1-.64.416q-.288.192-.576.416a5.384,5.384,0,0,0-.64.608A2,2,0,0,1,9.7-1.5a3.015,3.015,0,0,1-2.032-.88A3.827,3.827,0,0,1,6.432-4.448Zm54.08-1.7q.224,0,.864.592a6.28,6.28,0,0,1,.96,1.072.6.6,0,0,1,.128.384.489.489,0,0,1-.16.352.911.911,0,0,1-.544.16H59.9a.671.671,0,0,0-.5.176.671.671,0,0,0-.176.5V-.384a3.234,3.234,0,0,1-.432,1.84,2.857,2.857,0,0,1-1.9.88l-.192.032q-.448,0-.608-.576a1.442,1.442,0,0,0-.48-.768,4.58,4.58,0,0,0-1.824-.64q-.64-.1-.64-.352,0-.224.544-.224.64,0,1.92.128L56.672,0A.694.694,0,0,0,57.2-.16a.753.753,0,0,0,.144-.512v-2.24a.671.671,0,0,0-.176-.5.671.671,0,0,0-.5-.176H48.448a.671.671,0,0,0-.5.176.671.671,0,0,0-.176.5V-1.76L47.84-.352q0,.544.064,1.568v.192a.831.831,0,0,1-.256.608A2.118,2.118,0,0,1,46.3,2.5a.441.441,0,0,1-.368-.192.726.726,0,0,1-.144-.448q.128-1.344.192-3.392V-2.912a.671.671,0,0,0-.176-.5.671.671,0,0,0-.5-.176h-.064a1.517,1.517,0,0,0-.544.128,1.008,1.008,0,0,1-.384.1.577.577,0,0,1-.512-.384l-.064-.128a.8.8,0,0,1-.1-.352A.37.37,0,0,1,43.76-4.5a.411.411,0,0,1,.3-.112,3.153,3.153,0,0,1,.512.048,3.5,3.5,0,0,0,.576.048h.16a.671.671,0,0,0,.5-.176.671.671,0,0,0,.176-.5v-2.4a49.209,49.209,0,0,0-.288-5.6v-.128a.582.582,0,0,1,.112-.368.335.335,0,0,1,.272-.144.8.8,0,0,1,.352.1l1.12.544a1.712,1.712,0,0,0,.832.192h2.56a.671.671,0,0,0,.5-.176.671.671,0,0,0,.176-.5v-.96a.671.671,0,0,0-.176-.5.671.671,0,0,0-.5-.176H49.056a34.469,34.469,0,0,0-4.224.352H44.64A.658.658,0,0,1,44-15.36l-.128-.256a.8.8,0,0,1-.1-.352.352.352,0,0,1,.16-.3.712.712,0,0,1,.48-.08q.832.064,2.432.128h.96a.671.671,0,0,0,.5-.176.671.671,0,0,0,.176-.5V-18.3a.671.671,0,0,0-.176-.5.671.671,0,0,0-.5-.176H47.3a6.036,6.036,0,0,0-1.44.256.832.832,0,0,1-.256.032.7.7,0,0,1-.64-.416l-.1-.224a.852.852,0,0,1-.1-.384q0-.416.608-.352.576.064,1.792.128h.64a.671.671,0,0,0,.5-.176.671.671,0,0,0,.176-.5v-1.216a.671.671,0,0,0-.176-.5.671.671,0,0,0-.5-.176h-.7a8.552,8.552,0,0,0-1.76.256,1.016,1.016,0,0,1-.288.064.677.677,0,0,1-.608-.416l-.1-.224a.8.8,0,0,1-.1-.352q0-.448.64-.384.7.064,2.112.128h.8a.594.594,0,0,0,.672-.672l-.1-1.888v-.128q0-.48.448-.48a1.924,1.924,0,0,1,.32.064q1.92.64,1.92,1.024,0,.128-.256.288l-.032.032a.953.953,0,0,0-.448.8v.288a.671.671,0,0,0,.176.5.671.671,0,0,0,.5.176H53.92a.594.594,0,0,0,.672-.672l-.1-1.888v-.128q0-.48.448-.48a1.924,1.924,0,0,1,.32.064q1.92.672,1.92,1.024,0,.128-.224.288l-.032.032a.953.953,0,0,0-.448.8v.288a.671.671,0,0,0,.176.5.627.627,0,0,0,.464.176h.1a.92.92,0,0,0,.8-.416l.32-.448q.128-.16.3-.4a3.274,3.274,0,0,1,.3-.368.369.369,0,0,1,.256-.128,2.648,2.648,0,0,1,1.008.656,6.272,6.272,0,0,1,1.136,1.168.7.7,0,0,1,.16.384.458.458,0,0,1-.192.352,1.151,1.151,0,0,1-.576.128H57.152a.671.671,0,0,0-.5.176.671.671,0,0,0-.176.5v1.216a.671.671,0,0,0,.176.5.627.627,0,0,0,.464.176h.1a.92.92,0,0,0,.8-.416l.224-.32q.1-.128.24-.352a1.5,1.5,0,0,1,.256-.32.363.363,0,0,1,.24-.1q.224,0,.864.544a6.235,6.235,0,0,1,.992,1.024.982.982,0,0,1,.128.384.458.458,0,0,1-.192.352.968.968,0,0,1-.576.16h-3.04a.671.671,0,0,0-.5.176.671.671,0,0,0-.176.5V-16.9a.671.671,0,0,0,.176.5.671.671,0,0,0,.5.176h.8a.9.9,0,0,0,.8-.448l.288-.416q.1-.128.272-.368a3.274,3.274,0,0,1,.3-.368.369.369,0,0,1,.256-.128,2.66,2.66,0,0,1,1.008.64,7.023,7.023,0,0,1,1.168,1.152.476.476,0,0,1,.128.352.489.489,0,0,1-.16.352.968.968,0,0,1-.576.16h-7.3a.671.671,0,0,0-.5.176.671.671,0,0,0-.176.5v.96a.671.671,0,0,0,.176.5.671.671,0,0,0,.5.176H56.48a.93.93,0,0,0,.832-.448l.16-.288q.1-.128.224-.336a1.721,1.721,0,0,1,.224-.3.307.307,0,0,1,.224-.1,2.531,2.531,0,0,1,.976.592,7.437,7.437,0,0,1,1.168,1.1.434.434,0,0,1,.128.32.543.543,0,0,1-.288.448,2.483,2.483,0,0,1-.32.128.786.786,0,0,0-.576.768v5.12l.032,1.472.512-.8q.1-.128.24-.368a1.886,1.886,0,0,1,.256-.352A.336.336,0,0,1,60.512-6.144ZM38.24-4.736a4.98,4.98,0,0,0,.768.32q.768.256.768.512,0,.128-.352.224H39.36a1.038,1.038,0,0,0-.7.576A19.22,19.22,0,0,1,36.88-.336a13.952,13.952,0,0,1-2.256,2.352q-.544.448-.672.224a.356.356,0,0,1-.032-.16,1,1,0,0,1,.224-.512,7.7,7.7,0,0,0,.544-.8A16.1,16.1,0,0,0,35.824-1.5,16.573,16.573,0,0,0,36.64-4a.971.971,0,0,0,.032-.288q0-.416-.288-.416a1.483,1.483,0,0,0-.288.032,1.628,1.628,0,0,1-.32.032.612.612,0,0,1-.432-.208.612.612,0,0,1-.208-.432q.128-1.888.224-3.664t.128-4.656v-5.856a49.532,49.532,0,0,0-.288-5.632v-.128q0-.512.416-.512a.712.712,0,0,1,.32.064l1.344.576a1.913,1.913,0,0,0,.8.16h2.528a.9.9,0,0,0,.8-.448l.16-.256q.1-.128.224-.336a1.721,1.721,0,0,1,.224-.3.307.307,0,0,1,.224-.1,2.16,2.16,0,0,1,.9.544A5.765,5.765,0,0,1,44.16-24.8a.551.551,0,0,1,.128.352.473.473,0,0,1-.288.416l-.128.064a1.242,1.242,0,0,1-.16.064.734.734,0,0,0-.576.736v9.824q.064,3.52.224,7.008v.128a.774.774,0,0,1-.352.7,2.467,2.467,0,0,1-1.472.512q-.256,0-.256-.672v-.192a.671.671,0,0,0-.176-.5.671.671,0,0,0-.5-.176H37.984a.671.671,0,0,0-.5.176.671.671,0,0,0-.176.5v.576a.13.13,0,0,1-.032.1ZM41.28-23.3a.671.671,0,0,0-.176-.5.671.671,0,0,0-.5-.176H37.984a.671.671,0,0,0-.5.176.671.671,0,0,0-.176.5v3.424a.671.671,0,0,0,.176.5.671.671,0,0,0,.5.176h2.624a.671.671,0,0,0,.5-.176.671.671,0,0,0,.176-.5Zm13.312,1.472a.671.671,0,0,0-.176-.5.671.671,0,0,0-.5-.176H51.008a.671.671,0,0,0-.5.176.671.671,0,0,0-.176.5v1.216a.671.671,0,0,0,.176.5.671.671,0,0,0,.5.176H53.92a.671.671,0,0,0,.5-.176.671.671,0,0,0,.176-.5Zm-3.584,2.848a.671.671,0,0,0-.5.176.671.671,0,0,0-.176.5V-16.9a.671.671,0,0,0,.176.5.671.671,0,0,0,.5.176H53.92a.671.671,0,0,0,.5-.176.671.671,0,0,0,.176-.5V-18.3a.671.671,0,0,0-.176-.5.671.671,0,0,0-.5-.176ZM41.28-17.6a.671.671,0,0,0-.176-.5.671.671,0,0,0-.5-.176H37.984a.671.671,0,0,0-.5.176.671.671,0,0,0-.176.5v3.52a.671.671,0,0,0,.176.5.671.671,0,0,0,.5.176h2.624a.671.671,0,0,0,.5-.176.671.671,0,0,0,.176-.5Zm0,5.792a.671.671,0,0,0-.176-.5.671.671,0,0,0-.5-.176H37.984a.671.671,0,0,0-.5.176.671.671,0,0,0-.176.5v3.68a.671.671,0,0,0,.176.5.671.671,0,0,0,.5.176h2.624a.671.671,0,0,0,.5-.176.671.671,0,0,0,.176-.5Zm6.5,2.272a.671.671,0,0,0,.176.5.671.671,0,0,0,.5.176h2.5a.671.671,0,0,0,.5-.176.671.671,0,0,0,.176-.5v-1.856a.671.671,0,0,0-.176-.5.671.671,0,0,0-.5-.176h-2.5a.671.671,0,0,0-.5.176.671.671,0,0,0-.176.5Zm5.7,0a.671.671,0,0,0,.176.5.671.671,0,0,0,.5.176h2.528a.671.671,0,0,0,.5-.176.671.671,0,0,0,.176-.5v-1.856a.671.671,0,0,0-.176-.5.671.671,0,0,0-.5-.176H54.144a.671.671,0,0,0-.5.176.671.671,0,0,0-.176.5Zm-5.7,4.352a.671.671,0,0,0,.176.5.671.671,0,0,0,.5.176h2.5a.671.671,0,0,0,.5-.176.671.671,0,0,0,.176-.5V-7.232a.671.671,0,0,0-.176-.5.671.671,0,0,0-.5-.176h-2.5a.671.671,0,0,0-.5.176.671.671,0,0,0-.176.5Zm5.7,0a.671.671,0,0,0,.176.5.671.671,0,0,0,.5.176h2.528a.671.671,0,0,0,.5-.176.671.671,0,0,0,.176-.5V-7.232a.671.671,0,0,0-.176-.5.671.671,0,0,0-.5-.176H54.144a.671.671,0,0,0-.5.176.671.671,0,0,0-.176.5ZM40.16-4.256q-.32-.608-.192-.7a.185.185,0,0,1,.128-.032.782.782,0,0,1,.512.224,8.131,8.131,0,0,1,2.448,2.224A3.918,3.918,0,0,1,43.84-.416,1.666,1.666,0,0,1,43.552.608a.855.855,0,0,1-.7.384.917.917,0,0,1-.416-.1A.866.866,0,0,1,41.984.16a9.339,9.339,0,0,0-.656-2.192A15.2,15.2,0,0,0,40.16-4.256Zm40.1-9.44q-.1-.448-.256-.448t-.256.448a25.541,25.541,0,0,1-4.832,9.472,24.98,24.98,0,0,1-8.1,6.432q-.608.288-.736.064a.13.13,0,0,1-.032-.1q0-.224.448-.512A23.513,23.513,0,0,0,74.9-7.1a32.964,32.964,0,0,0,4.016-13.664V-22.5a.671.671,0,0,0-.176-.5.671.671,0,0,0-.5-.176h-1.7a25.893,25.893,0,0,0-3.712.352H72.64a.658.658,0,0,1-.64-.416l-.128-.256a.852.852,0,0,1-.1-.384.352.352,0,0,1,.16-.3.644.644,0,0,1,.448-.08q1.088.1,3.3.16h2.08a.9.9,0,0,0,.8-.448l.608-.992a.6.6,0,0,1,.544-.352.563.563,0,0,1,.416.16l2.24,1.76a.694.694,0,0,1,.32.512.526.526,0,0,1-.288.416,6.429,6.429,0,0,1-1.92.544.655.655,0,0,0-.64.7l.032.928a28.491,28.491,0,0,0,4.24,12.8A22.06,22.06,0,0,0,93.664.064q.224.128.384.224t.16.192q0,.1-.128.16a.8.8,0,0,1-.272.08A.662.662,0,0,0,93.6.768a2.237,2.237,0,0,0-1.312,1.12q-.384.608-.768.384a25.2,25.2,0,0,1-6.992-6.544A24.229,24.229,0,0,1,80.256-13.7ZM123.04-3.008a2.468,2.468,0,0,1,.9,1.6,1.017,1.017,0,0,1-.224.64.7.7,0,0,1-.576.288,1.546,1.546,0,0,1-.864-.3,8.6,8.6,0,0,1-.9-.7q-.448-.4-.672-.592a8.676,8.676,0,0,0-1.312-.928l-.1-.064a1.007,1.007,0,0,0-.352-.128q-.384,0-.48.544Q117.824.416,113.92.416a6.265,6.265,0,0,1-3.3-.848,2.7,2.7,0,0,1-1.408-2.448,2.529,2.529,0,0,1,1.952-2.528,11.407,11.407,0,0,1,3.712-.672q.672,0,1.024.032h.1a.537.537,0,0,0,.608-.608q-.16-4.512-.192-7.1-.032-.672-.416-.672a2.7,2.7,0,0,0-.48.064,5.517,5.517,0,0,1-.7.032,4.953,4.953,0,0,1-2.384-.528,5.271,5.271,0,0,1-1.808-1.776.731.731,0,0,1-.16-.416q0-.224.192-.224a.66.66,0,0,1,.3.144,2.315,2.315,0,0,1,.272.208,4.963,4.963,0,0,0,1.008.608,3.528,3.528,0,0,0,1.456.256,11.9,11.9,0,0,0,2.048-.256.685.685,0,0,0,.608-.736q-.032-.864-.032-2.432V-21.12a2.112,2.112,0,0,0-1.376-2.016q-.288-.16-.288-.288,0-.192.368-.352a3.373,3.373,0,0,1,1.232-.16,2.745,2.745,0,0,1,1.68.56,1.51,1.51,0,0,1,.752,1.136,5.065,5.065,0,0,1-.192.64,3.9,3.9,0,0,0-.32.864l-.032.128a.709.709,0,0,0-.032.224.766.766,0,0,0,.352.64,7.959,7.959,0,0,0,1.984,1.024q.288.064.784.16a2.04,2.04,0,0,1,.688.224.621.621,0,0,1,.256.384,1.308,1.308,0,0,1,.064.416q0,.7-1.248,1.344A23.121,23.121,0,0,1,118.3-15.04q-.576.192-.576.384a42.91,42.91,0,0,0,.256,4.8q.256,2.272.288,2.592.128.992.16,1.216a.907.907,0,0,0,.64.736A9.957,9.957,0,0,1,123.04-3.008ZM106.688-15.52q.1,0,.1.16a1.523,1.523,0,0,1-.1.416q-1.184,3.36-2.048,6.336a17.808,17.808,0,0,0-.864,4.192,15.51,15.51,0,0,0,.288,2.08A11.475,11.475,0,0,1,104.32-.7a1.233,1.233,0,0,1-.224.752.716.716,0,0,1-.608.3,1.238,1.238,0,0,1-.96-.384,7.221,7.221,0,0,1-.832-1.216,10.777,10.777,0,0,1-1.184-5.6,32.837,32.837,0,0,1,.336-4.288q.336-2.5.848-4.992.128-.576.16-.832.224-.992.384-1.936a9.9,9.9,0,0,0,.16-1.616,4.578,4.578,0,0,0-.112-1.184,5.955,5.955,0,0,0-.528-1.12.737.737,0,0,1-.1-.288.339.339,0,0,1,.08-.224.258.258,0,0,1,.208-.1,1.026,1.026,0,0,1,.544.288,8.85,8.85,0,0,1,1.392,1.744,3.689,3.689,0,0,1,.624,1.936,4.743,4.743,0,0,1-.208,1.344q-.208.7-.656,1.888l-.448,1.216a20,20,0,0,0-.864,3.344,19.269,19.269,0,0,0-.288,3.184q0,1.76.416,1.76.256,0,.624-.784t1.072-2.544q1.056-2.656,2.208-5.152Q106.5-15.52,106.688-15.52Zm12.1-3.36a.79.79,0,0,0-.448-.192q-.352,0-.416.544l-.064.832v.064a.646.646,0,0,0,.128.416.426.426,0,0,0,.352.16l.288-.064q1.12-.48,1.12-.8Q119.744-18.176,118.784-18.88ZM113.568-1.056a3.74,3.74,0,0,0,1.952-.5,2.655,2.655,0,0,0,1.056-2.032v-.16a.643.643,0,0,0-.544-.64,9.042,9.042,0,0,0-2.368-.32,7.2,7.2,0,0,0-2.352.368,1.338,1.338,0,0,0-1.072,1.3,1.584,1.584,0,0,0,1.1,1.5A5.534,5.534,0,0,0,113.568-1.056ZM-133.28,33.04a1.252,1.252,0,0,0,1.04-.52l.88-1.16a.887.887,0,0,1,.64-.36,1.1,1.1,0,0,1,.56.2q.92.76,1.88,1.68a.841.841,0,0,0,.6.28.777.777,0,0,0,.6-.36,30.822,30.822,0,0,0,3.04-4.56.719.719,0,0,1,.64-.44.864.864,0,0,1,.56.24q2.48,1.88,2.48,2.32,0,.16-.44.16h-.32a1.1,1.1,0,0,0-.92.48,63.3,63.3,0,0,1-8.2,8.92.878.878,0,0,0-.32.56q0,.48.72.48h5.36a1.149,1.149,0,0,0,1-.52l.48-.72q.2-.24.4-.52a5.467,5.467,0,0,1,.4-.5.539.539,0,0,1,.36-.22q.32,0,1.42.94a11.433,11.433,0,0,1,1.62,1.62.612.612,0,0,1,.2.44.572.572,0,0,1-.24.44,1.107,1.107,0,0,1-.68.16h-12.56a1.7,1.7,0,0,0-1.04.36,81.99,81.99,0,0,1-6.96,5.16,1.071,1.071,0,0,0-.56,1v3.48a.807.807,0,0,0,.16.52.533.533,0,0,0,.44.2l.36-.08a69.273,69.273,0,0,0,7.28-3.4,23.85,23.85,0,0,0,5.44-3.92.9.9,0,0,1,.6-.32,1.1,1.1,0,0,1,.64.28q2.32,2,2.32,2.48,0,.24-.56.24h-.4a2.5,2.5,0,0,0-1.04.2,65.08,65.08,0,0,1-6.84,3.06,66.425,66.425,0,0,1-7.68,2.46.941.941,0,0,0-.72.96v4a1.026,1.026,0,0,0,.18.66,1.266,1.266,0,0,0,.76.32,11.835,11.835,0,0,0,1.82.1h6.68q4.52,0,6.28-.08a1.976,1.976,0,0,0,.74-.16.967.967,0,0,0,.38-.48,18.228,18.228,0,0,0,1.2-4.24q.16-.76.44-.76.24,0,.24.84l.08,3.68a.964.964,0,0,0,.16.58,1.255,1.255,0,0,0,.52.38q.64.36.64.84a1.193,1.193,0,0,1-.8,1.1,9.492,9.492,0,0,1-3.04.52q-2.24.14-6.88.14h-6.8a15.869,15.869,0,0,1-3.2-.24,2.289,2.289,0,0,1-1.5-.88,3.445,3.445,0,0,1-.42-1.88V50.68a.888.888,0,0,0-.14-.52.44.44,0,0,0-.38-.2,1.228,1.228,0,0,0-.48.16,68.953,68.953,0,0,1-8.88,4.44,3.343,3.343,0,0,1-.56.16.362.362,0,0,1-.32-.2.163.163,0,0,1-.04-.12q0-.24.64-.6a75.657,75.657,0,0,0,9.64-5.8,1.149,1.149,0,0,0,.52-1V45.76q0-.92.88-.8l1.64.28.24.04a1.327,1.327,0,0,0,.84-.32,28.129,28.129,0,0,0,2.28-1.84.866.866,0,0,0,.36-.6.362.362,0,0,0-.2-.32,1,1,0,0,0-.52-.12h-9.08a43.087,43.087,0,0,0-5.28.44h-.24a.822.822,0,0,1-.8-.52l-.16-.28a1.065,1.065,0,0,1-.12-.48.44.44,0,0,1,.2-.38.8.8,0,0,1,.56-.1q1.36.12,4.12.2H-141a.838.838,0,0,0,.62-.22.838.838,0,0,0,.22-.62V35.08a.838.838,0,0,0-.22-.62.838.838,0,0,0-.62-.22h-2.52a43.087,43.087,0,0,0-5.28.44h-.24a.822.822,0,0,1-.8-.52l-.16-.36a1.065,1.065,0,0,1-.12-.48q0-.56.76-.48,1.36.12,4.16.2h4.2a.742.742,0,0,0,.84-.84q-.08-3.08-.28-4.96v-.16a.667.667,0,0,1,.16-.46.558.558,0,0,1,.44-.18,1.27,1.27,0,0,1,.36.08,13.868,13.868,0,0,1,2.16.8q.6.32.6.56,0,.16-.28.36l-.04.04a1.192,1.192,0,0,0-.56,1V32.2a.838.838,0,0,0,.22.62.838.838,0,0,0,.62.22Zm3.92,2.44q.4-.44.68-.78a2.033,2.033,0,0,0,.32-.46h-8.4a.838.838,0,0,0-.62.22.838.838,0,0,0-.22.62v5.04a.838.838,0,0,0,.22.62.838.838,0,0,0,.62.22h1.36a1.558,1.558,0,0,0,1.08-.44Q-131.76,38.16-129.36,35.48Zm22.96-8.52a.636.636,0,0,1,.64-.52.745.745,0,0,1,.48.16l.92.6q.2.12.88.52.96.52.96.8,0,.2-.44.28h-.12a1.526,1.526,0,0,0-1,.56,41.459,41.459,0,0,1-3.9,3.94,37.049,37.049,0,0,1-4.62,3.54,1.282,1.282,0,0,1-.52.24q-.24.04-.32-.08a.23.23,0,0,1-.08-.16q0-.16.48-.64a29.83,29.83,0,0,0,2.96-3.28,27.018,27.018,0,0,0,2.1-2.94A21.362,21.362,0,0,0-106.4,26.96Zm11.12,6.8a.692.692,0,0,0-.32.56.9.9,0,0,0,.32.6,4.147,4.147,0,0,1,1.32,2.68,1.47,1.47,0,0,1-.3.94.988.988,0,0,1-.82.38,1.683,1.683,0,0,1-.4-.04.785.785,0,0,1-.42-.26q-.14-.18-.34-.5a25.235,25.235,0,0,0-4.4-5.32q-.48-.48-.48-.68t.32-.2a1.919,1.919,0,0,1,.56.12,21.7,21.7,0,0,1,2.76,1.24l.72.4a23.952,23.952,0,0,0,1.64-3.26,33.281,33.281,0,0,0,1.24-3.46q.2-.56.64-.56a1.566,1.566,0,0,1,.52.12q2.88,1.48,2.88,1.96,0,.16-.4.24l-.16.04a1.473,1.473,0,0,0-.92.64A39.891,39.891,0,0,1-95.28,33.76Zm3.64,9.44q-.76.08-.76.4,0,.16.36.36.92.44.92.72,0,.2-.44.28l-.16.04a1.473,1.473,0,0,0-.92.64l-.56.92a1.07,1.07,0,0,0-.2.52.408.408,0,0,0,.2.34.888.888,0,0,0,.52.14h5.32a1.34,1.34,0,0,0,1.04-.44l.36-.4.5-.5a.929.929,0,0,1,.58-.34q.28,0,1.1.72a9.258,9.258,0,0,1,1.3,1.36.688.688,0,0,1,.16.44q0,.32-.44.52l-.44.08a1.516,1.516,0,0,0-.6.18,1.059,1.059,0,0,0-.4.46,22.5,22.5,0,0,1-4.16,5.6.841.841,0,0,0-.28.6.7.7,0,0,0,.4.6,33.122,33.122,0,0,0,9.8,3.68q.76.16.76.4,0,.12-.3.26t-.38.18a2.684,2.684,0,0,0-1.28,1.32.907.907,0,0,1-.76.56,1.04,1.04,0,0,1-.32-.04,28.687,28.687,0,0,1-9.44-5.04.907.907,0,0,0-.6-.24,1.1,1.1,0,0,0-.56.2,33.838,33.838,0,0,1-12.08,5.16,1.9,1.9,0,0,1-.44.04q-.36,0-.44-.2v-.08a.428.428,0,0,1,.18-.28,1.59,1.59,0,0,1,.5-.28,31.6,31.6,0,0,0,10.76-5.64.9.9,0,0,0,.32-.6.907.907,0,0,0-.24-.6,20.24,20.24,0,0,1-2.8-4.16q-.24-.48-.6-.48a.878.878,0,0,0-.56.32,32.083,32.083,0,0,1-6.2,5,1.309,1.309,0,0,1-.56.22q-.24.02-.32-.1a.23.23,0,0,1-.08-.16q0-.2.52-.64A32.089,32.089,0,0,0-99,50.6a40.206,40.206,0,0,0,3.84-5.92,1,1,0,0,0,.12-.44.465.465,0,0,0-.22-.42.879.879,0,0,0-.58-.1l-2.96.36-1.64.2a.857.857,0,0,0-.68.28l-.16.16a.493.493,0,0,1-.4.2q-.44,0-.64-.68l-.4-1.52a1.041,1.041,0,0,1-.04-.32q0-.6.76-.6l5.84-.16a1.3,1.3,0,0,0,1-.44q2.2-2.48,4.36-5.4a28.134,28.134,0,0,0,3.48-5.84.743.743,0,0,1,.68-.48,1.06,1.06,0,0,1,.52.16q2.68,1.72,2.68,2.08,0,.2-.4.2H-84a1.47,1.47,0,0,0-1,.52,78.58,78.58,0,0,1-7.88,8.08.777.777,0,0,0-.36.6.362.362,0,0,0,.2.32.8.8,0,0,0,.52.08l7.92-.32q.72-.08.72-.56a.83.83,0,0,0-.24-.52q-1.2-1.4-2.12-2.32-.6-.68-.44-.8a.271.271,0,0,1,.2-.08,2.194,2.194,0,0,1,.64.2,15.244,15.244,0,0,1,5.34,3.7,5.92,5.92,0,0,1,1.7,3.58,1.76,1.76,0,0,1-.3,1.08.97.97,0,0,1-.82.4,2.188,2.188,0,0,1-.48-.08.738.738,0,0,1-.42-.28,3.443,3.443,0,0,1-.3-.56,11.977,11.977,0,0,0-1.28-2.4.824.824,0,0,0-.88-.52Q-88.76,42.84-91.64,43.2Zm-16.92,2.24q0-.72-.44-.72a.9.9,0,0,0-.6.32,34.068,34.068,0,0,1-3.32,3.12,1.348,1.348,0,0,1-.68.32q-.24,0-.24-.2a1.63,1.63,0,0,1,.4-.72,52.25,52.25,0,0,0,4.6-6.36,29.219,29.219,0,0,0,2.96-6.32q.2-.56.64-.56a1.533,1.533,0,0,1,.48.12q2.84,1.52,2.84,1.96,0,.16-.4.24h-.12a1.473,1.473,0,0,0-.92.64q-1.28,1.92-2.52,3.52a.83.83,0,0,0-.24.52,1.01,1.01,0,0,0,.36.68q.6.56.6.88,0,.2-.36.4a.908.908,0,0,0-.56.92v8.4q.08,4.36.28,8.8v.16a.958.958,0,0,1-.4.84,3.1,3.1,0,0,1-1.84.72,1.009,1.009,0,0,1-.68-.24.719.719,0,0,1-.28-.56q.16-2.36.28-4.58t.16-5.82Zm21.24,4.24a1,1,0,0,0,.12-.44q0-.56-.76-.56h-6.16a1.228,1.228,0,0,0-.96.4,1.412,1.412,0,0,0-.12.56,1.065,1.065,0,0,0,.12.48,18.761,18.761,0,0,0,3.56,3.96.987.987,0,0,0,.56.24.922.922,0,0,0,.64-.32A21.633,21.633,0,0,0-87.32,49.68Zm32-17.56a17.476,17.476,0,0,1,6.68,1.38,13.338,13.338,0,0,1,5.66,4.44,12.661,12.661,0,0,1,2.3,7.82q0,6.24-3.82,9.52a18.851,18.851,0,0,1-8.16,4.26,34.069,34.069,0,0,1-7.26.98q-.56,0-.56-.2,0-.24,1.6-.52a24.327,24.327,0,0,0,11.12-4.6q4.28-3.4,4.28-9.6a12.372,12.372,0,0,0-1.82-6.98,10.824,10.824,0,0,0-4.62-4,14.078,14.078,0,0,0-5.84-1.26,1.237,1.237,0,0,0-.5.44.663.663,0,0,0-.1.56,14.26,14.26,0,0,1,.5,2.16,13.707,13.707,0,0,1,.18,2.08,19.715,19.715,0,0,1-1.44,6.8,31.388,31.388,0,0,1-3.02,6.18,18.155,18.155,0,0,1-3.28,3.96,4.532,4.532,0,0,1-2.54,1.34,3.617,3.617,0,0,1-2.7-1.42,10.255,10.255,0,0,1-2-3.74,15.83,15.83,0,0,1-.74-4.84,13.448,13.448,0,0,1,2.28-7.7,15.272,15.272,0,0,1,6-5.22A17.374,17.374,0,0,1-55.32,32.12Zm-1.64,4.48a11.241,11.241,0,0,0-.24-2.36.748.748,0,0,0-.96-.64,13.7,13.7,0,0,0-5.44,2.32,12.971,12.971,0,0,0-3.96,4.52,12.825,12.825,0,0,0-1.48,6.16,11.855,11.855,0,0,0,.58,4,6.838,6.838,0,0,0,1.3,2.36q.72.76,1.16.76a3.707,3.707,0,0,0,2.38-1.5,23.152,23.152,0,0,0,2.54-3.34,27.7,27.7,0,0,0,3.18-6.42A19.152,19.152,0,0,0-56.96,36.6Zm52.88-4.2a1,1,0,0,0,.12-.44q0-.56-.72-.56H-9.24a.893.893,0,0,0-.54.16.479.479,0,0,0-.22.4.943.943,0,0,0,.12.4,9.51,9.51,0,0,0,3.6,4,21.18,21.18,0,0,0,7.16,2.6q.84.2.8.4a.375.375,0,0,1-.24.2q-.2.08-.48.2a1.948,1.948,0,0,0-1.24,1q-.28.6-.72.6a1.04,1.04,0,0,1-.32-.04A22.092,22.092,0,0,1-5.44,39.6q.44.32.98.8a7.422,7.422,0,0,1,.86.88.543.543,0,0,1,.16.4q0,.28-.4.56l-.24.12a.918.918,0,0,0-.72.92v3.96q.08,4.36.28,8.48v.16a.967.967,0,0,1-.44.88,4.033,4.033,0,0,1-.96.48,2.938,2.938,0,0,1-.96.2q-.4,0-.4-.8t-.84-.8H-23.08a.838.838,0,0,0-.62.22.838.838,0,0,0-.22.62v.4q0,.24-.7.56a3.385,3.385,0,0,1-1.42.32.606.606,0,0,1-.48-.24.848.848,0,0,1-.2-.56q.2-2.24.28-6V47.72a61.512,61.512,0,0,0-.36-7v-.16q0-.64.48-.64a1,1,0,0,1,.44.12l1.64.76a2.463,2.463,0,0,0,1.04.24H-8.32a1.149,1.149,0,0,0,1-.52l.28-.36q.12-.16.4-.54t.52-.38l-1.36-1.12a11.349,11.349,0,0,1-3-4.68q-.2-.48-.4-.48-.16,0-.4.48a9.683,9.683,0,0,1-3.9,4.28,21.15,21.15,0,0,1-6.9,2.36l-.48.08a.37.37,0,0,1-.4-.24v-.04a.346.346,0,0,1,.16-.28,1.911,1.911,0,0,1,.56-.24A17.312,17.312,0,0,0-16.5,36.6a9.229,9.229,0,0,0,2.98-4.24,1.04,1.04,0,0,0,.04-.32q0-.64-.76-.64h-2.6a1.422,1.422,0,0,0-1.04.44,20.146,20.146,0,0,1-4,2.88q-.68.36-.88.08a.163.163,0,0,1-.04-.12q0-.24.48-.64l.72-.68a13.284,13.284,0,0,0,2.2-3.02,15.7,15.7,0,0,0,1.44-3.46q.12-.64.68-.64a2.4,2.4,0,0,1,.4.08q3.12.92,3.12,1.36,0,.12-.32.2h-.04a1.473,1.473,0,0,0-.92.64l-.48.68a.83.83,0,0,0-.24.52.408.408,0,0,0,.2.34.888.888,0,0,0,.52.14h11A1.187,1.187,0,0,0-3,29.68l.28-.4q.12-.16.42-.54t.54-.38q.28,0,1.08.86A10.205,10.205,0,0,1,.56,30.8a.688.688,0,0,1,.16.44q0,.36-.44.48l-.32.04a1.668,1.668,0,0,0-1.04.44,25.991,25.991,0,0,1-3.36,2.68q-.56.36-.84.2a.161.161,0,0,1-.08-.16,1.368,1.368,0,0,1,.24-.64A20.359,20.359,0,0,0-4.08,32.4ZM-25,33.16a1.163,1.163,0,0,1-.72-.68,13.265,13.265,0,0,0-1.9-2.36,18.047,18.047,0,0,0-2.54-2.16q-.68-.56-.52-.72a.489.489,0,0,1,.36-.12,2.485,2.485,0,0,1,.48.04,11.016,11.016,0,0,1,4.92,2.04,3.707,3.707,0,0,1,1.6,2.68,1.414,1.414,0,0,1-.34.98,1.149,1.149,0,0,1-.9.38A2.205,2.205,0,0,1-25,33.16Zm-5.16,7.12a1.221,1.221,0,0,0-.68.52.488.488,0,0,1-.44.32q-.4,0-.68-.52l-.8-1.6a1.065,1.065,0,0,1-.12-.48q0-.48.6-.6,2.44-.48,9.76-2.44l.96-.24a4.525,4.525,0,0,1,.62-.1q.26-.02.3.14v.08q0,.2-.32.4Q-25.96,38.32-30.16,40.28Zm6.24,4.4a.838.838,0,0,0,.22.62.838.838,0,0,0,.62.22H-8.12a.838.838,0,0,0,.62-.22.838.838,0,0,0,.22-.62V43.04a.838.838,0,0,0-.22-.62.838.838,0,0,0-.62-.22H-23.08a.838.838,0,0,0-.62.22.838.838,0,0,0-.22.62Zm0,4.56a.838.838,0,0,0,.22.62.838.838,0,0,0,.62.22H-8.12a.838.838,0,0,0,.62-.22.838.838,0,0,0,.22-.62V47.56a.838.838,0,0,0-.22-.62.838.838,0,0,0-.62-.22H-23.08a.838.838,0,0,0-.62.22.838.838,0,0,0-.22.62Zm0,4.64a.838.838,0,0,0,.22.62.838.838,0,0,0,.62.22H-8.12a.838.838,0,0,0,.62-.22.838.838,0,0,0,.22-.62V52.12a.838.838,0,0,0-.22-.62.838.838,0,0,0-.62-.22H-23.08a.838.838,0,0,0-.62.22.838.838,0,0,0-.22.62Zm3.16,3a1.021,1.021,0,0,1,.6-.24.841.841,0,0,1,.6.28l.76.8a2.612,2.612,0,0,0,.8.64q.88.64.88.88,0,.2-.64.2h-.36a2.5,2.5,0,0,0-1.04.2,39.776,39.776,0,0,1-5.7,1.96,51.188,51.188,0,0,1-6.54,1.32,1.04,1.04,0,0,1-.32.04q-.44,0-.52-.24v-.08q0-.28.72-.52a37.454,37.454,0,0,0,4.84-1.72A20.227,20.227,0,0,0-20.76,56.88Zm7.88,1.52q-.72-.2-.72-.48,0-.4.92-.28a41.317,41.317,0,0,1,7.24,1.04,12.013,12.013,0,0,1,3.92,1.58q1.16.86,1.16,1.62a.919.919,0,0,1-.42.78,1.709,1.709,0,0,1-1.02.3,2.523,2.523,0,0,1-1.36-.4A20.6,20.6,0,0,0-7.2,60.32,39.21,39.21,0,0,0-12.88,58.4ZM13.6,40.04a.765.765,0,0,0-.84.84v2.76A46.535,46.535,0,0,1,11.68,53.8,18.974,18.974,0,0,1,7.2,62.44q-.6.64-.84.4a.326.326,0,0,1-.08-.24,1.6,1.6,0,0,1,.24-.64,24.208,24.208,0,0,0,3-8.4,62.77,62.77,0,0,0,.72-9.92V40.56a19.55,19.55,0,0,0-.08-2.08V38.4q0-.72.52-.72a1,1,0,0,1,.44.12q.64.32,1.18.6a6.135,6.135,0,0,1,.7.4,3.019,3.019,0,0,1,.56.04q0,.08-.48.08-.32,0-.32-.08h14a.977.977,0,0,0,.96-.64,25.316,25.316,0,0,0,1.56-5.12v-.16q0-.72-.8-.72H15.52a43.086,43.086,0,0,0-5.28.44H10a.822.822,0,0,1-.8-.52l-.16-.28a1.065,1.065,0,0,1-.12-.48.44.44,0,0,1,.2-.38.8.8,0,0,1,.56-.1q1.36.12,4.12.2h8.16a.742.742,0,0,0,.84-.84q-.08-2.08-.16-2.96V27.2q0-.68.56-.68a2.4,2.4,0,0,1,.4.08,15.474,15.474,0,0,1,2.06.78q.58.3.58.54,0,.16-.28.36l-.04.04a1.192,1.192,0,0,0-.56,1v.92a.765.765,0,0,0,.84.84h7.92a1.149,1.149,0,0,0,1-.52l.44-.64q.12-.16.36-.5a4.094,4.094,0,0,1,.42-.52.5.5,0,0,1,.34-.18,3.6,3.6,0,0,1,1.4.9,9.994,9.994,0,0,1,1.56,1.54.612.612,0,0,1,.2.44.546.546,0,0,1-.24.4,1.33,1.33,0,0,1-.72.2H32.76a2.216,2.216,0,0,0-.7.1q-.3.1-.3.22t.28.24q1.24.48,1.24.76,0,.2-.4.32l-.2.08a1.8,1.8,0,0,0-.84.68,30,30,0,0,1-2.48,3.2.807.807,0,0,0-.28.56.408.408,0,0,0,.2.34.888.888,0,0,0,.52.14h5.68a1.149,1.149,0,0,0,1-.52l.48-.64q.12-.16.36-.5a4.094,4.094,0,0,1,.42-.52.5.5,0,0,1,.34-.18,4.052,4.052,0,0,1,1.4.88,11.078,11.078,0,0,1,1.68,1.56.88.88,0,0,1,.2.48.576.576,0,0,1-.2.4,1.194,1.194,0,0,1-.8.24Zm7.64-3.16a1.953,1.953,0,0,1-.4,1.26,1.231,1.231,0,0,1-1,.5h-.12a1.318,1.318,0,0,1-.88-.48,1.982,1.982,0,0,1-.2-.6,12.69,12.69,0,0,0-1.6-4.36,1.963,1.963,0,0,1-.26-.66q-.02-.22.18-.22a3.549,3.549,0,0,1,1.36.6,6.835,6.835,0,0,1,2.22,1.98A3.646,3.646,0,0,1,21.24,36.88ZM38.08,58.2a3.952,3.952,0,0,1,1.38.86,10.782,10.782,0,0,1,1.66,1.54.688.688,0,0,1,.16.44.5.5,0,0,1-.24.44,1.33,1.33,0,0,1-.72.2H18.88a41.442,41.442,0,0,0-5.28.44h-.2a.932.932,0,0,1-.88-.52l-.16-.28a1.065,1.065,0,0,1-.12-.48.44.44,0,0,1,.2-.38.8.8,0,0,1,.56-.1q1.36.12,4.12.2h7.12a.765.765,0,0,0,.84-.84V54.88a.765.765,0,0,0-.84-.84H22.36a28.938,28.938,0,0,0-4.32.44h-.2a.849.849,0,0,1-.84-.56l-.16-.28a1,1,0,0,1-.12-.44q0-.6.8-.52,1.36.12,4.12.2h2.6a.765.765,0,0,0,.84-.84v-4a.765.765,0,0,0-.84-.84H19a1.071,1.071,0,0,0-1,.56,21.748,21.748,0,0,1-3.6,4.16,1.184,1.184,0,0,1-.6.32q-.36,0-.36-.24a1.146,1.146,0,0,1,.36-.72,18.68,18.68,0,0,0,1.48-2.36,22.177,22.177,0,0,0,1.54-3.58,21,21,0,0,0,.94-3.74q.12-.68.64-.68a2.4,2.4,0,0,1,.4.08q2.68.92,2.68,1.36,0,.16-.32.28l-.12.04a1.471,1.471,0,0,0-.8.8q-.28.68-.68,1.52a1,1,0,0,0-.12.44q0,.56.72.56h4.08a.742.742,0,0,0,.84-.84q-.08-2.32-.2-3.28V41.8q0-.72.6-.72a2.4,2.4,0,0,1,.4.08q2.56.84,2.56,1.32,0,.16-.32.36l-.04.04a1.192,1.192,0,0,0-.56,1v1.28a.765.765,0,0,0,.84.84h4.56a1.149,1.149,0,0,0,1-.52l.44-.6q.16-.2.38-.5a4.093,4.093,0,0,1,.38-.46.461.461,0,0,1,.32-.16,3.438,3.438,0,0,1,1.36.84,8.982,8.982,0,0,1,1.52,1.48.88.88,0,0,1,.2.48.572.572,0,0,1-.24.44,1.139,1.139,0,0,1-.68.2H28.36a.765.765,0,0,0-.84.84v4a.765.765,0,0,0,.84.84h3.96a1.149,1.149,0,0,0,1-.52l.4-.56q.16-.2.38-.5a4.091,4.091,0,0,1,.38-.46.461.461,0,0,1,.32-.16,3.268,3.268,0,0,1,1.32.8,8.512,8.512,0,0,1,1.48,1.44.88.88,0,0,1,.2.48.572.572,0,0,1-.24.44,1.21,1.21,0,0,1-.72.2H28.36a.765.765,0,0,0-.84.84v4.84a.765.765,0,0,0,.84.84h7.12a1.149,1.149,0,0,0,1-.52l.48-.64q.12-.16.36-.5a4.094,4.094,0,0,1,.42-.52A.5.5,0,0,1,38.08,58.2ZM76.96,27.6a.721.721,0,0,1,.64-.48,1.07,1.07,0,0,1,.52.2l.88.64q.16.12.88.52,1,.56,1,.84,0,.16-.44.24h-.08a1.47,1.47,0,0,0-1,.52,37.5,37.5,0,0,1-5.2,4.94A39.712,39.712,0,0,1,68.04,39a1.535,1.535,0,0,1-.6.2.322.322,0,0,1-.32-.16l-.08-.16q0-.24.52-.64a39.718,39.718,0,0,0,5.16-4.56,26.412,26.412,0,0,0,2.36-2.94A23.467,23.467,0,0,0,76.96,27.6ZM63.28,41.68a1.128,1.128,0,0,0,1-.56l.44-.64q.16-.2.38-.54a3.167,3.167,0,0,1,.38-.5.461.461,0,0,1,.32-.16q.32,0,1.34.88a10.42,10.42,0,0,1,1.5,1.52.88.88,0,0,1,.2.48.572.572,0,0,1-.24.44,1.139,1.139,0,0,1-.68.2h-4.6a.765.765,0,0,0-.84.84v8.72q.08,4.36.28,8.8v.16a.958.958,0,0,1-.4.84,3.254,3.254,0,0,1-1.96.64.8.8,0,0,1-.58-.26.765.765,0,0,1-.26-.54q.16-2.36.28-4.58T60,51.6V43.64a.765.765,0,0,0-.84-.84H54.8a.742.742,0,0,0-.84.84,41.758,41.758,0,0,1-1.5,10.74,18.33,18.33,0,0,1-5.14,8.34q-.6.56-.84.32a.326.326,0,0,1-.08-.24,1.25,1.25,0,0,1,.28-.64,21.9,21.9,0,0,0,3.7-8.26,55.789,55.789,0,0,0,1.14-10.26.742.742,0,0,0-.84-.84h-.8a11.072,11.072,0,0,0-2.12.32,1.27,1.27,0,0,1-.36.08.847.847,0,0,1-.76-.52l-.12-.24A1,1,0,0,1,46.4,42a.44.44,0,0,1,.2-.38.89.89,0,0,1,.6-.1q.88.08,2.56.16h.92a.765.765,0,0,0,.84-.84V31.8a.765.765,0,0,0-.84-.84h-.52a7.31,7.31,0,0,0-1.48.28,1.27,1.27,0,0,1-.36.08.847.847,0,0,1-.76-.52l-.12-.24a1.065,1.065,0,0,1-.12-.48.44.44,0,0,1,.2-.38.8.8,0,0,1,.56-.1q1.36.12,4.12.2H62.32a1.149,1.149,0,0,0,1-.52l.44-.64q.16-.2.38-.54a3.167,3.167,0,0,1,.38-.5.461.461,0,0,1,.32-.16,3.509,3.509,0,0,1,1.38.88,11.767,11.767,0,0,1,1.58,1.52.88.88,0,0,1,.2.48.572.572,0,0,1-.24.44,1.4,1.4,0,0,1-.76.2H63.32a.765.765,0,0,0-.84.84v9.04Q62.48,41.68,63.28,41.68ZM54.8,30.96a.765.765,0,0,0-.84.84v9.04a.765.765,0,0,0,.84.84h4.36a.765.765,0,0,0,.84-.84V31.8a.765.765,0,0,0-.84-.84Zm22.32,6.88q.28-.52.68-.52a.88.88,0,0,1,.48.2l.92.68q.2.12.88.52,1.04.52,1.04.8,0,.16-.48.24h-.16a1.526,1.526,0,0,0-1,.56A34.911,34.911,0,0,1,66.4,50a1.412,1.412,0,0,1-.56.12q-.32,0-.36-.16v-.12q0-.24.52-.6a35.214,35.214,0,0,0,6.76-5.36,23.86,23.86,0,0,0,2.44-2.9A21.434,21.434,0,0,0,77.12,37.84ZM77.76,48q.2-.56.64-.56a.744.744,0,0,1,.48.16l1,.64a9.68,9.68,0,0,0,.92.48q1.12.52,1.12.8,0,.2-.44.28H81.4a1.226,1.226,0,0,0-1,.6,32.18,32.18,0,0,1-6.94,7.32,37.649,37.649,0,0,1-8.98,5,1.289,1.289,0,0,1-.56.16.344.344,0,0,1-.36-.2v-.12q0-.32.56-.64a34.945,34.945,0,0,0,9.6-7.44A21.008,21.008,0,0,0,76,51.38,23.71,23.71,0,0,0,77.76,48Zm37.92-13.48a1.149,1.149,0,0,0,1-.52l.48-.68q.12-.16.36-.5a4.093,4.093,0,0,1,.42-.52.5.5,0,0,1,.34-.18,3.689,3.689,0,0,1,1.42.92,9.144,9.144,0,0,1,1.58,1.6.612.612,0,0,1,.2.44.546.546,0,0,1-.24.4,1.33,1.33,0,0,1-.72.2H108.68q-.88,0-.8.88a47,47,0,0,0,2.52,12.4q.24.52.6.52t.6-.48q.76-1.56.96-2a22.55,22.55,0,0,0,1.24-3.44,24.31,24.31,0,0,0,.72-3.52q.12-.68.64-.68a2.4,2.4,0,0,1,.4.08q3.16,1.04,3.16,1.44,0,.16-.36.28l-.16.04a1.32,1.32,0,0,0-.8.8,37.207,37.207,0,0,1-4.92,10,.906.906,0,0,0-.2.6,1.12,1.12,0,0,0,.16.56,16.908,16.908,0,0,0,5.28,5.36,1.457,1.457,0,0,0,.72.36q.32,0,.56-.64a36.9,36.9,0,0,0,1.48-3.72q.24-.72.44-.72a.2.2,0,0,1,.2.18,2.592,2.592,0,0,1,0,.66l-.48,4.52v.2a1.542,1.542,0,0,0,.32.92,2.99,2.99,0,0,1,.68,1.44.652.652,0,0,1-.16.48,1.31,1.31,0,0,1-1.16.52,4.584,4.584,0,0,1-1.8-.46,11.356,11.356,0,0,1-2.04-1.18,20.993,20.993,0,0,1-5.52-5.64.7.7,0,0,0-.6-.44.878.878,0,0,0-.56.32,29.643,29.643,0,0,1-10.16,7.24q-.72.36-.88.08a.163.163,0,0,1-.04-.12q0-.24.64-.6a30.574,30.574,0,0,0,9.6-8.72,1.2,1.2,0,0,0,.24-.64,1.328,1.328,0,0,0-.12-.52,47.89,47.89,0,0,1-3.64-15.56.792.792,0,0,0-.88-.8H93.64a.765.765,0,0,0-.84.84v4.92a.765.765,0,0,0,.84.84h5.12a1.29,1.29,0,0,0,1.04-.48l.2-.28q.12-.12.38-.44a.7.7,0,0,1,.5-.32,2.774,2.774,0,0,1,1.12.62,7.994,7.994,0,0,1,1.32,1.18.688.688,0,0,1,.16.44.48.48,0,0,1-.4.48.136.136,0,0,1-.1.04.136.136,0,0,0-.1.04,1.006,1.006,0,0,0-.76.96,69.8,69.8,0,0,1-.68,8.44,7.021,7.021,0,0,1-1.48,3.8,4.5,4.5,0,0,1-2.48,1.16h-.12a.69.69,0,0,1-.54-.2,1.255,1.255,0,0,1-.26-.6,1.842,1.842,0,0,0-.48-1,4.346,4.346,0,0,0-1.76-.68q-.76-.16-.76-.52,0-.32.88-.24,2.08.16,2.76.16a3.2,3.2,0,0,0,.72-.06.943.943,0,0,0,.44-.26q1.08-1.08,1.32-10.2v-.08a.771.771,0,0,0-.22-.6.829.829,0,0,0-.58-.2H93.64a.742.742,0,0,0-.84.84,44.531,44.531,0,0,1-1.24,10.16,18.859,18.859,0,0,1-4.44,8.24q-.56.6-.8.36a.326.326,0,0,1-.08-.24,1.408,1.408,0,0,1,.2-.68,22.934,22.934,0,0,0,3.06-8.38,67,67,0,0,0,.74-10.58v-5q0-2.36-.16-4V34q0-.6.52-.6a.891.891,0,0,1,.4.08l1.72.8a2.656,2.656,0,0,0,1.04.24H104.4q.84,0,.84-.88-.24-3-.24-6.2a.787.787,0,0,1,.24-.64.972.972,0,0,1,.72-.16q2.64.2,2.64.64,0,.12-.36.4l-.12.08a1.128,1.128,0,0,0-.56,1q0,2.48.12,4.96a.773.773,0,0,0,.84.8Zm-4.72-6.24q-.76-.44-.64-.64a.519.519,0,0,1,.44-.16,1.683,1.683,0,0,1,.4.04,10.675,10.675,0,0,1,3.3.86,5.058,5.058,0,0,1,1.88,1.38,2.415,2.415,0,0,1,.58,1.44,1.178,1.178,0,0,1-.3.84,1.02,1.02,0,0,1-.78.32h-.2a1.129,1.129,0,0,1-.8-.56,9.049,9.049,0,0,0-1.64-1.84A16.359,16.359,0,0,0,110.96,28.28Zm21.488,31.912a1.5,1.5,0,0,1-.976-.5,2.794,2.794,0,0,1-.752-1.168,22.769,22.769,0,0,1-1.184-7.9,20.831,20.831,0,0,1,.32-3.84,35.121,35.121,0,0,1,.864-3.52q.224-.864.416-1.7a6.538,6.538,0,0,0,.192-1.44,3.766,3.766,0,0,0-.224-1.248,2.928,2.928,0,0,0-.576-1.024,1.141,1.141,0,0,1-.256-.48q0-.16.128-.16a1.094,1.094,0,0,1,.512.192,5.624,5.624,0,0,1,1.68,1.6,4.159,4.159,0,0,1,.624,2.368,4.332,4.332,0,0,1-.192,1.248,12.383,12.383,0,0,1-.448,1.248q-.256.608-.32.8a17.028,17.028,0,0,0-.992,2.72,10.139,10.139,0,0,0-.32,2.528,8.872,8.872,0,0,0,.128,1.552q.128.72.384.72.16,0,.544-.64l.576-1.184,1.088-2.176q.224-.352.32-.352t.1.128l-.1.384q-.416,1.12-.928,2.9a11.092,11.092,0,0,0-.512,2.96,22.93,22.93,0,0,0,.544,4.1,9.566,9.566,0,0,1,.16,1.024.8.8,0,0,1-.256.64A.815.815,0,0,1,132.448,60.192Zm11.584-18.016a8.587,8.587,0,0,1-2.3-.256,6.368,6.368,0,0,1-1.872-.832,3.116,3.116,0,0,1-1.1-1.12.982.982,0,0,1-.128-.384.085.085,0,0,1,.1-.1.791.791,0,0,1,.336.16,2.908,2.908,0,0,0,.464.256,6.074,6.074,0,0,0,2.3.416,21.134,21.134,0,0,0,2.448-.192q1.552-.192,2.576-.416a2.058,2.058,0,0,1,.608-.128,1.878,1.878,0,0,1,1.12.368,1.007,1.007,0,0,1,.512.784q0,.736-1.632,1.088A16.2,16.2,0,0,1,144.032,42.176Zm1.12,16.512a12.954,12.954,0,0,1-4.32-.656,4.268,4.268,0,0,1-2.624-2.608,2.673,2.673,0,0,1-.192-.576.113.113,0,0,1,.128-.128.43.43,0,0,1,.24.112q.144.112.24.176a7.5,7.5,0,0,0,2.784,1.344,9.412,9.412,0,0,0,2.208.192,30.722,30.722,0,0,0,4.256-.384l1.088-.128a1.82,1.82,0,0,1,1.2.384,1.087,1.087,0,0,1,.464.832q0,.864-1.52,1.152A21.973,21.973,0,0,1,145.152,58.688ZM-64.128,98.656a20.82,20.82,0,0,1-3.584,1.952.956.956,0,0,0-.608.64q-1.184,3.264-2.56,6.832t-2.208,5.712a1.452,1.452,0,0,1-.528.64,1.262,1.262,0,0,1-.72.256.638.638,0,0,1-.608-.448,2.852,2.852,0,0,1-.192-1.12,1.586,1.586,0,0,1,.048-.48,2.455,2.455,0,0,1,.208-.384q.352-.64.608-1.152l.768-1.536q.352-.7.64-1.248,1.024-1.952,1.7-3.344a28.378,28.378,0,0,0,1.184-2.832,1.226,1.226,0,0,0,.1-.384q0-.384-.352-.384a1.8,1.8,0,0,0-.352.032,1.628,1.628,0,0,1-.32.032,3.6,3.6,0,0,1-2.176-.608,4.2,4.2,0,0,1-1.248-1.376,1.221,1.221,0,0,1-.224-.64q0-.192.16-.192.128,0,.448.32a3.268,3.268,0,0,0,2.3.672,8.822,8.822,0,0,0,1.984-.32.787.787,0,0,0,.608-.7,5.517,5.517,0,0,0,.032-.7,2.846,2.846,0,0,0-.416-1.632,1.881,1.881,0,0,0-.72-.624q-.464-.24-.464-.336,0-.128.208-.224a1.176,1.176,0,0,1,.5-.1,2.649,2.649,0,0,1,.9.16,3.083,3.083,0,0,1,1.376.8,1.79,1.79,0,0,1,.416,1.216,1.519,1.519,0,0,1-.032.352l-.032.576q0,.32.128.288l.288-.16q.256-.16.448-.3t.192-.272q0-.128-.288-.352a2.956,2.956,0,0,0-.368-.224q-.24-.128-.24-.224,0-.128.288-.128l1.152.032a2.115,2.115,0,0,0,.56-.1,2.281,2.281,0,0,1,.624-.1.973.973,0,0,1,.72.272.932.932,0,0,1,.272.688,1.42,1.42,0,0,1-.16.64A1.3,1.3,0,0,1-64.128,98.656Zm6.56,4.672a3.05,3.05,0,0,0-2.352.992,4.265,4.265,0,0,0-.912,2.976,41.42,41.42,0,0,0,.448,5.152l.192,1.5a.788.788,0,0,0,.608.736,20.126,20.126,0,0,1,2.608.96,6.587,6.587,0,0,1,1.776,1.088,1.949,1.949,0,0,1,.7,1.28.859.859,0,0,1-.24.608.779.779,0,0,1-.592.256,1.451,1.451,0,0,1-.656-.192q-.368-.192-1.008-.608a11.552,11.552,0,0,0-2.208-1.152,1.079,1.079,0,0,0-.48-.128q-.288,0-.288.192v.416A3.137,3.137,0,0,1-61.3,120.08a5.125,5.125,0,0,1-3.12.976,5.737,5.737,0,0,1-2.16-.432,4.486,4.486,0,0,1-1.76-1.232,2.8,2.8,0,0,1-.688-1.888,2.807,2.807,0,0,1,1.632-2.544,8.1,8.1,0,0,1,4-.912,7.683,7.683,0,0,1,.8.032h.1q.608,0,.608-.64-.192-2.688-.192-3.968a14.319,14.319,0,0,1,.336-3.488,4.287,4.287,0,0,1,1.392-2.192,9.092,9.092,0,0,1,3.232-1.584q.608-.16.608-.608a1.568,1.568,0,0,0-.464-.928,5.643,5.643,0,0,0-.944-.9q-.192-.16-.192-.224t.224-.064a3.516,3.516,0,0,1,.736.112,4.48,4.48,0,0,1,.832.272,7.44,7.44,0,0,1,2.112,1.456,2.7,2.7,0,0,1,1.024,1.84,1.308,1.308,0,0,1-.448.992,1.463,1.463,0,0,1-1.024.416,1.411,1.411,0,0,1-.64-.144,4.588,4.588,0,0,1-.7-.464,5.377,5.377,0,0,0-.784-.48A1.805,1.805,0,0,0-57.568,103.328Zm-7.3,16.064a2.942,2.942,0,0,0,2.272-.72,3.3,3.3,0,0,0,.736-2v-.1a.6.6,0,0,0-.576-.64,14.043,14.043,0,0,0-1.952-.16,5.9,5.9,0,0,0-2.432.448,1.421,1.421,0,0,0-.992,1.312,1.5,1.5,0,0,0,.88,1.376A4.245,4.245,0,0,0-64.864,119.392ZM-30.912,99.9a3.27,3.27,0,0,1,2.24,1.024,7.282,7.282,0,0,1,1.76,2.88,12.567,12.567,0,0,1,.672,4.288,15.081,15.081,0,0,1-2.1,8.192,12.239,12.239,0,0,1-6.9,4.9,1.774,1.774,0,0,1-.576.128q-.288,0-.288-.224a.27.27,0,0,1,.16-.224,10.823,10.823,0,0,0,5.84-5.248,16.682,16.682,0,0,0,1.68-7.328,14.632,14.632,0,0,0-.8-5.136q-.8-2.128-2.144-2.128a2.62,2.62,0,0,0-2.016,1.3,11.341,11.341,0,0,0-1.568,3.04,9.179,9.179,0,0,0-.608,2.9,3.087,3.087,0,0,0,.176,1.04,7.892,7.892,0,0,0,.528,1.136q.192.384.352.8a2.033,2.033,0,0,1,.16.7.715.715,0,0,1-.208.528.757.757,0,0,1-.56.208,1.779,1.779,0,0,1-1.408-.752,5.039,5.039,0,0,1-.912-1.856,7.9,7.9,0,0,1-.3-2.1,16.3,16.3,0,0,1,.336-3.072q.336-1.728.912-4.192.288-1.216.512-2.336a9.408,9.408,0,0,0,.224-1.6,1.757,1.757,0,0,0-.48-1.248,4.1,4.1,0,0,0-.432-.432q-.272-.24-.272-.4t.224-.256a1.379,1.379,0,0,1,.544-.1,1.716,1.716,0,0,1,1.376.72,2.853,2.853,0,0,1,.576,1.84,8.626,8.626,0,0,1-.272,2.128q-.272,1.072-.816,2.768l-.32.96a.4.4,0,0,0,.288.128q.256,0,.48-.352Q-33.184,99.9-30.912,99.9ZM1.632,114.848a.7.7,0,0,0,.608.7,12.156,12.156,0,0,1,3.472,1.792,3.022,3.022,0,0,1,1.36,2.4.8.8,0,0,1-.224.656.763.763,0,0,1-.48.176,1.944,1.944,0,0,1-1.248-.608q-.224-.192-1.072-.944t-1.68-1.392a.524.524,0,0,0-.384-.16q-.32,0-.48.48a4.206,4.206,0,0,1-1.776,2.16,5.879,5.879,0,0,1-3.152.784,6.747,6.747,0,0,1-3.328-.816,2.541,2.541,0,0,1-1.472-2.32,2.416,2.416,0,0,1,.784-1.808,4.892,4.892,0,0,1,1.952-1.12,7.786,7.786,0,0,1,2.352-.368,12.472,12.472,0,0,1,2.336.288l.192.032q.576,0,.512-.64-.064-.672-.128-2.272-.064-.576-.128-1.856-.064-.7-.736-.608a15.645,15.645,0,0,1-2.656.256,6.221,6.221,0,0,1-2.96-.656,4.074,4.074,0,0,1-1.808-1.84,1.245,1.245,0,0,1-.1-.352q0-.16.128-.16a.4.4,0,0,1,.224.1,1.446,1.446,0,0,0,.192.128,9.135,9.135,0,0,0,1.664.848,6.292,6.292,0,0,0,2.4.432,20.215,20.215,0,0,0,2.912-.288q.608-.1.608-.544v-.416q0-1.984.1-4v-.192q0-.48-.192-.48H-.832a4.353,4.353,0,0,1-1.6-.288,6.017,6.017,0,0,1-1.312-.8,5.078,5.078,0,0,1-1.024-.992,1.209,1.209,0,0,1-.224-.48.113.113,0,0,1,.128-.128,1.24,1.24,0,0,1,.512.16l.672.352a4.686,4.686,0,0,0,.928.464,3.276,3.276,0,0,0,1.056.144,4.085,4.085,0,0,0,.992-.128.75.75,0,0,0,.672-.672,14.211,14.211,0,0,0,.192-1.92,3.966,3.966,0,0,0-.352-1.728A4.336,4.336,0,0,0-.8,95.36a4.5,4.5,0,0,1-.288-.384.622.622,0,0,1-.128-.32.372.372,0,0,1,.208-.32.993.993,0,0,1,.528-.128,2.8,2.8,0,0,1,.928.24,3.075,3.075,0,0,1,1.088.736,1.743,1.743,0,0,1,.48,1.264,5.948,5.948,0,0,1-.192,1.264q-.192.816-.416,1.52a1.021,1.021,0,0,0,.192.432.417.417,0,0,0,.512.208l.928-.288a1.723,1.723,0,0,1,.544-.1.968.968,0,0,1,.576.16.551.551,0,0,1,.224.48,1.064,1.064,0,0,1-.24.64,1.645,1.645,0,0,1-.688.512,12.161,12.161,0,0,1-1.952.64.745.745,0,0,0-.64.7q-.128,1.5-.128,3.328a7.141,7.141,0,0,0,.032.8.568.568,0,0,0,.208.48.615.615,0,0,0,.56.064,6.6,6.6,0,0,0,1.728-.8.958.958,0,0,0,.48-.736,2.052,2.052,0,0,0-.576-1.088q-.064-.1-.176-.24a3.053,3.053,0,0,1-.208-.3,1.209,1.209,0,0,1-.224-.48.085.085,0,0,1,.1-.1,1.533,1.533,0,0,1,.576.352,4.08,4.08,0,0,0,1.728.832,4.079,4.079,0,0,0,.736.128,1.279,1.279,0,0,1,.768.32.913.913,0,0,1,.224.672,1.72,1.72,0,0,1-.32.96,2.383,2.383,0,0,1-.992.8A21.759,21.759,0,0,1,1.5,108.864q-.64.192-.544,1.056.1,1.088.448,3.424Zm-5.664,4.48a4.934,4.934,0,0,0,2.672-.656,2.811,2.811,0,0,0,1.3-1.872v-.16a.627.627,0,0,0-.48-.64,8.548,8.548,0,0,0-2.88-.512,5.353,5.353,0,0,0-2.512.592,1.777,1.777,0,0,0-1.136,1.584,1.364,1.364,0,0,0,.944,1.216A4.827,4.827,0,0,0-4.032,119.328ZM42.816,99.872a3.729,3.729,0,0,1,1.216.4.823.823,0,0,1,.384.752q0,.864-1.056.864-.032,0-1.248-.128a52.866,52.866,0,0,0-5.856-.416q-.672,0-1.888.064-.64,0-.64.672-.064,2.368-.064,3.552V107.3a2.42,2.42,0,0,0,.224.832,12.412,12.412,0,0,1,.864,2.384,9.408,9.408,0,0,1,.32,2.288,7.9,7.9,0,0,1-1.248,4.512,9.406,9.406,0,0,1-2.912,2.864,11.373,11.373,0,0,1-3.072,1.36,1.356,1.356,0,0,1-.32.064q-.224,0-.224-.16,0-.224.352-.352a8.056,8.056,0,0,0,4.272-3.632,9.18,9.18,0,0,0,1.04-3.824q0-.032-.176.112t-.5.368a2.569,2.569,0,0,1-1.344.544A2.266,2.266,0,0,1,29.328,114a4.968,4.968,0,0,1-1.1-1.584,9.517,9.517,0,0,1-.608-1.76,7.279,7.279,0,0,1-.224-1.7,4.129,4.129,0,0,1,.816-2.576,2.71,2.71,0,0,1,2.288-1.072,2.843,2.843,0,0,1,.9.16.8.8,0,0,0,.352.064q.384,0,.416-.416a20.941,20.941,0,0,0,.224-2.816.63.63,0,0,0-.192-.512.72.72,0,0,0-.544-.128,28.194,28.194,0,0,0-6.5,2.08q-.7.32-1.248.512a3.741,3.741,0,0,1-1.248.192,3.638,3.638,0,0,1-1.824-.512,5.873,5.873,0,0,1-1.28-1.024q-.576-.608-.576-.928,0-.192.224-.192a3.261,3.261,0,0,1,.864.16,8.536,8.536,0,0,0,1.664.224,10.3,10.3,0,0,0,2.3-.288q1.088-.224,3.184-.608t4.528-.768a.628.628,0,0,0,.608-.672q0-.352-.064-1.248l-.032-.8A3.857,3.857,0,0,0,31.9,96.3a2.758,2.758,0,0,0-.672-.976,4.828,4.828,0,0,0-.464-.352q-.24-.16-.24-.256,0-.224.4-.352a2.564,2.564,0,0,1,.784-.128,2.6,2.6,0,0,1,1.12.256q1.376.608,1.376,1.536a1.19,1.19,0,0,1-.032.288l-.032.224a.752.752,0,0,0,.384.64,22.315,22.315,0,0,0,4.384,2.08,12.842,12.842,0,0,0,1.664.368q.768.112,1.344.144A7.975,7.975,0,0,1,42.816,99.872Zm-6.88.1q.16,0,.464-.016a1.838,1.838,0,0,0,.448-.064q.144-.048.144-.144,0-.128-.208-.256a1.709,1.709,0,0,1-.272-.192l-1.792-1.28a.856.856,0,0,0-.416-.16q-.384,0-.448.544-.032.32-.032,1.152,0,.64.96.544Zm-5.344,12.288a1.349,1.349,0,0,0,1.1-.544,2.908,2.908,0,0,0,.432-1.792,7.093,7.093,0,0,0-.448-2.4q-.448-1.248-1.408-1.248a1.6,1.6,0,0,0-1.392.8,3.777,3.777,0,0,0-.528,2.112,3.515,3.515,0,0,0,.7,2.1A1.946,1.946,0,0,0,30.592,112.256Zm23.584,9.664a4.167,4.167,0,0,1-4.192-4.192,4.057,4.057,0,0,1,.56-2.08,4.218,4.218,0,0,1,3.632-2.08,4.057,4.057,0,0,1,2.08.56,4.155,4.155,0,0,1,1.52,1.52,4.057,4.057,0,0,1,.56,2.08,4.167,4.167,0,0,1-2.08,3.632A4.057,4.057,0,0,1,54.176,121.92Zm0-.8a3.387,3.387,0,0,0,3.392-3.392,3.232,3.232,0,0,0-.992-2.368,3.4,3.4,0,0,0-4.8,0,3.232,3.232,0,0,0-.992,2.368,3.387,3.387,0,0,0,3.392,3.392Z" transform="translate(664 705)" fill="#fff"/>
    <g id="強調" transform="translate(-268 -4659)">
      <circle id="楕円形_9" data-name="楕円形 9" cx="4.5" cy="4.5" r="4.5" transform="translate(793 5374)" fill="#f4d272"/>
      <circle id="楕円形_10" data-name="楕円形 10" cx="4.5" cy="4.5" r="4.5" transform="translate(832 5374)" fill="#f4d272"/>
      <circle id="楕円形_11" data-name="楕円形 11" cx="4.5" cy="4.5" r="4.5" transform="translate(991 5374)" fill="#f4d272"/>
      <circle id="楕円形_14" data-name="楕円形 14" cx="4.5" cy="4.5" r="4.5" transform="translate(1030 5374)" fill="#f4d272"/>
      <circle id="楕円形_12" data-name="楕円形 12" cx="4.5" cy="4.5" r="4.5" transform="translate(913 5374)" fill="#f4d272"/>
      <circle id="楕円形_13" data-name="楕円形 13" cx="4.5" cy="4.5" r="4.5" transform="translate(952 5374)" fill="#f4d272"/>
    </g>
  </g>
</svg>
