<svg xmlns="http://www.w3.org/2000/svg" width="627" height="243" viewBox="0 0 627 243">
  <g id="グループ_91" data-name="グループ 91" transform="translate(0 -0.139)">
    <g id="グループ_90" data-name="グループ 90" transform="translate(1.048 204.456)">
      <rect id="長方形_40007" data-name="長方形 40007" width="625" height="39" transform="translate(-0.048 -0.318)" fill="#4f8ea7"/>
      <path id="パス_32384" data-name="パス 32384" d="M16.758,1.962a.322.322,0,0,1-.2-.09A11.262,11.262,0,0,1,15.03.405,10.881,10.881,0,0,1,13.3-2.475a10.75,10.75,0,0,1-.828-4.365A10.75,10.75,0,0,1,13.3-11.2a10.881,10.881,0,0,1,1.728-2.88,11.262,11.262,0,0,1,1.53-1.467.322.322,0,0,1,.2-.09.155.155,0,0,1,.1.036.111.111,0,0,1,.045.09.492.492,0,0,1-.126.234q-.054.072-.891,1.008A9.265,9.265,0,0,0,14.31-11.25a13.135,13.135,0,0,0-.738,4.41,12.208,12.208,0,0,0,.63,4.1A11.177,11.177,0,0,0,15.4-.171q.567.8,1.377,1.773a.492.492,0,0,1,.126.234.1.1,0,0,1-.054.1A.212.212,0,0,1,16.758,1.962ZM32.184-10.26a.517.517,0,0,0,.45-.234l.126-.18q.036-.054.126-.18a1.121,1.121,0,0,1,.162-.189.22.22,0,0,1,.144-.063,1.408,1.408,0,0,1,.549.351,4.813,4.813,0,0,1,.657.639.244.244,0,0,1,.072.18q0,.126-.18.252a.706.706,0,0,1-.162.072.442.442,0,0,0-.324.432v1.458q.054,2.178.108,3.222v.09a.377.377,0,0,1-.2.36,1.815,1.815,0,0,1-.432.216,1.4,1.4,0,0,1-.468.09.22.22,0,0,1-.2-.126.3.3,0,0,1-.036-.162.631.631,0,0,1,.036-.2.4.4,0,0,1,.018-.126q0-.306-.378-.306h-2.3q-.324,0-.324.216a.444.444,0,0,0,.108.252,11.873,11.873,0,0,0,2.9,2.259A16.675,16.675,0,0,0,36.216-.4q.36.09.324.18a.189.189,0,0,1-.126.117q-.108.045-.18.081a1.22,1.22,0,0,0-.576.576q-.144.252-.324.252a.323.323,0,0,1-.162-.054A13.811,13.811,0,0,1,31.95-1.161,12.156,12.156,0,0,1,29.412-3.87q-.144-.2-.252-.2a.144.144,0,0,0-.135.09.524.524,0,0,0-.045.234v1.026q.054,2.214.108,3.33V.72a.467.467,0,0,1-.144.342,1.7,1.7,0,0,1-.423.243,1.259,1.259,0,0,1-.477.1.366.366,0,0,1-.27-.108.345.345,0,0,1-.108-.252Q27.774-.468,27.81-2V-3.024q0-.324-.2-.324a.4.4,0,0,0-.252.144A15.538,15.538,0,0,1,24.534-.9,20.546,20.546,0,0,1,21.024.9a.863.863,0,0,1-.252.054A.19.19,0,0,1,20.61.882a.073.073,0,0,1-.018-.054q0-.126.27-.288a18.992,18.992,0,0,0,3.267-2.133,15.4,15.4,0,0,0,2.565-2.6.358.358,0,0,0,.09-.234.2.2,0,0,0-.09-.171.4.4,0,0,0-.234-.063H24.606a.377.377,0,0,0-.279.1.377.377,0,0,0-.1.279v.27q0,.09-.324.234a1.546,1.546,0,0,1-.63.144.248.248,0,0,1-.207-.108A.408.408,0,0,1,22.986-4q.072-.828.108-2.052V-7.254a27.681,27.681,0,0,0-.162-3.15v-.072q0-.27.234-.27a.4.4,0,0,1,.18.036l.774.342a1.2,1.2,0,0,0,.468.108h2.844a.377.377,0,0,0,.279-.1.377.377,0,0,0,.1-.279v-1.134a.377.377,0,0,0-.1-.279.377.377,0,0,0-.279-.1H23.886a19.389,19.389,0,0,0-2.376.2H21.4a.37.37,0,0,1-.36-.234l-.072-.144a.448.448,0,0,1-.054-.2.215.215,0,0,1,.09-.189.362.362,0,0,1,.252-.045q.63.054,1.872.09h4.3a.334.334,0,0,0,.378-.378q-.036-.936-.108-1.674v-.036q0-.306.27-.306a1.082,1.082,0,0,1,.18.036q1.26.4,1.26.63,0,.09-.144.18l-.054.036a.517.517,0,0,0-.234.45v.684a.377.377,0,0,0,.1.279.377.377,0,0,0,.279.1h3.8a.517.517,0,0,0,.45-.234l.252-.36q.09-.108.189-.243a2.879,2.879,0,0,1,.2-.243.266.266,0,0,1,.171-.108,2.033,2.033,0,0,1,.711.45,4.33,4.33,0,0,1,.8.774.275.275,0,0,1,.09.2.257.257,0,0,1-.108.2.578.578,0,0,1-.342.09h-6.21a.377.377,0,0,0-.279.1.377.377,0,0,0-.1.279v1.134a.377.377,0,0,0,.1.279.377.377,0,0,0,.279.1Zm-4.752,2.5a.377.377,0,0,0,.279-.1.377.377,0,0,0,.1-.279V-9.36a.377.377,0,0,0-.1-.279.377.377,0,0,0-.279-.1H24.606a.377.377,0,0,0-.279.1.377.377,0,0,0-.1.279v1.224a.377.377,0,0,0,.1.279.377.377,0,0,0,.279.1Zm4.824,0a.377.377,0,0,0,.279-.1.377.377,0,0,0,.1-.279V-9.36a.377.377,0,0,0-.1-.279.377.377,0,0,0-.279-.1h-2.9a.377.377,0,0,0-.279.1.377.377,0,0,0-.1.279v1.224a.377.377,0,0,0,.1.279.377.377,0,0,0,.279.1Zm-4.446.9a.377.377,0,0,0-.1-.279.377.377,0,0,0-.279-.1H24.606a.377.377,0,0,0-.279.1.377.377,0,0,0-.1.279V-5.58a.377.377,0,0,0,.1.279.377.377,0,0,0,.279.1h2.826a.377.377,0,0,0,.279-.1.377.377,0,0,0,.1-.279Zm1.548-.378a.377.377,0,0,0-.279.1.377.377,0,0,0-.1.279V-5.58a.377.377,0,0,0,.1.279.377.377,0,0,0,.279.1h2.9a.377.377,0,0,0,.279-.1.377.377,0,0,0,.1-.279V-6.858a.377.377,0,0,0-.1-.279.377.377,0,0,0-.279-.1ZM52.794-12.6a.517.517,0,0,0,.45-.234l.27-.36q.09-.108.189-.243a2.879,2.879,0,0,1,.2-.243.266.266,0,0,1,.171-.108,2.033,2.033,0,0,1,.711.45,5.648,5.648,0,0,1,.819.756.335.335,0,0,1,.072.216.24.24,0,0,1-.09.2.8.8,0,0,1-.36.09H43.146a18.649,18.649,0,0,0-2.376.2h-.09a.406.406,0,0,1-.378-.234l-.072-.144a1,1,0,0,1-.072-.216.2.2,0,0,1,.09-.171.362.362,0,0,1,.252-.045q.612.054,1.854.09h4.5a.334.334,0,0,0,.378-.378q-.036-1.008-.108-1.746v-.036q0-.324.27-.324a1.082,1.082,0,0,1,.18.036q1.278.4,1.278.612,0,.09-.144.18l-.054.036a.508.508,0,0,0-.252.45v.792a.377.377,0,0,0,.1.279.377.377,0,0,0,.279.1Zm-1.638,2.538a.508.508,0,0,0,.45-.252l.108-.18q.054-.072.135-.2a.845.845,0,0,1,.144-.18.2.2,0,0,1,.135-.054,1.5,1.5,0,0,1,.567.36,4.746,4.746,0,0,1,.675.648.31.31,0,0,1,.072.2.3.3,0,0,1-.162.234.454.454,0,0,1-.108.054.7.7,0,0,0-.09.036.413.413,0,0,0-.324.414V-7.9q.054,1.638.09,2.412v.09a.386.386,0,0,1-.18.36,1.815,1.815,0,0,1-.432.216,1.4,1.4,0,0,1-.468.09.144.144,0,0,1-.135-.1.692.692,0,0,1-.045-.279v-.126a.377.377,0,0,0-.1-.279.377.377,0,0,0-.279-.1H48.8a.377.377,0,0,0-.279.1.377.377,0,0,0-.1.279v4.95A1.756,1.756,0,0,1,48.1.837a1.987,1.987,0,0,1-1.278.549L46.71,1.4q-.252,0-.342-.324a.805.805,0,0,0-.342-.468,3.288,3.288,0,0,0-1.35-.4q-.36-.054-.36-.2,0-.108.288-.108.4,0,1.368.072.54.054.828.054a.564.564,0,0,0,.36-.081.362.362,0,0,0,.09-.279V-5.238a.377.377,0,0,0-.1-.279.377.377,0,0,0-.279-.1h-2.43a.377.377,0,0,0-.279.1.377.377,0,0,0-.1.279v.27q0,.09-.324.243a1.506,1.506,0,0,1-.648.153.248.248,0,0,1-.207-.108.408.408,0,0,1-.081-.252q.072-.63.108-1.656V-7.614a23.4,23.4,0,0,0-.126-2.592v-.072q0-.27.234-.27a.4.4,0,0,1,.18.036l.756.342a1.109,1.109,0,0,0,.468.108Zm-6.714.5a.377.377,0,0,0-.279.1.377.377,0,0,0-.1.279v2.664a.377.377,0,0,0,.1.279.377.377,0,0,0,.279.1H51.21a.377.377,0,0,0,.279-.1.377.377,0,0,0,.1-.279V-9.18a.377.377,0,0,0-.1-.279.377.377,0,0,0-.279-.1Zm-.648,5.8Q43.92-4,44.1-4a.4.4,0,0,1,.216.09l.36.252a3.629,3.629,0,0,0,.4.252q.414.2.414.342,0,.072-.2.108h-.054a.7.7,0,0,0-.45.216,14.879,14.879,0,0,1-2,1.71A16.179,16.179,0,0,1,40.338.45q-.324.144-.4.018a.073.073,0,0,1-.018-.054q0-.126.234-.288A13.993,13.993,0,0,0,41.85-1.3a11.109,11.109,0,0,0,1.1-1.2A8.318,8.318,0,0,0,43.794-3.762Zm6.624.45q-.234-.162-.234-.27,0-.09.126-.09A.723.723,0,0,1,50.6-3.6a12.461,12.461,0,0,1,2.538,1.269,5.477,5.477,0,0,1,1.422,1.3A2,2,0,0,1,54.99.054a.59.59,0,0,1-.135.4A.446.446,0,0,1,54.5.612a.757.757,0,0,1-.18-.018.475.475,0,0,1-.342-.27,10.256,10.256,0,0,0-1.494-1.791A26.131,26.131,0,0,0,50.418-3.312Zm9,5.148a.492.492,0,0,1,.126-.234q.054-.072.891-1.008A9.265,9.265,0,0,0,62.01-2.43a13.135,13.135,0,0,0,.738-4.41,12.208,12.208,0,0,0-.63-4.1,11.177,11.177,0,0,0-1.2-2.574q-.567-.8-1.377-1.773a.492.492,0,0,1-.126-.234.111.111,0,0,1,.045-.09.155.155,0,0,1,.1-.036.322.322,0,0,1,.2.09,11.262,11.262,0,0,1,1.53,1.467,10.881,10.881,0,0,1,1.728,2.88,10.75,10.75,0,0,1,.828,4.365,10.75,10.75,0,0,1-.828,4.365A10.881,10.881,0,0,1,61.29.405a11.261,11.261,0,0,1-1.53,1.467.322.322,0,0,1-.2.09.212.212,0,0,1-.09-.027A.1.1,0,0,1,59.418,1.836Z" transform="translate(429.952 23.682)" fill="#f7f7f7"/>
      <path id="パス_32383" data-name="パス 32383" d="M-25.821-.665a.536.536,0,0,0,.475-.266l.247-.361a3.376,3.376,0,0,0,.209-.285,2.454,2.454,0,0,1,.19-.257.211.211,0,0,1,.152-.086,2.226,2.226,0,0,1,.722.475,6.141,6.141,0,0,1,.855.8.418.418,0,0,1,.095.228.272.272,0,0,1-.114.209.667.667,0,0,1-.361.095H-34.713a.422.422,0,0,0-.295.095.341.341,0,0,0-.1.266,2.959,2.959,0,0,1,.019.361l.019.19a.411.411,0,0,1-.114.3,1.292,1.292,0,0,1-.38.257,1.128,1.128,0,0,1-.475.1.479.479,0,0,1-.323-.114.342.342,0,0,1-.133-.266q.076-1.121.133-2.175t.076-2.764V-9.766a.4.4,0,0,0-.1-.295.4.4,0,0,0-.295-.1h-.532a8.576,8.576,0,0,0-1.292.171.494.494,0,0,1-.152.019.4.4,0,0,1-.361-.247l-.057-.114a.506.506,0,0,1-.057-.228q0-.247.361-.209.494.038,1.52.076h.57a.4.4,0,0,0,.295-.1.4.4,0,0,0,.1-.295v-.589a30.634,30.634,0,0,0-.171-3.4v-.076a.317.317,0,0,1,.076-.219.265.265,0,0,1,.209-.086.6.6,0,0,1,.171.038q1.368.418,1.368.646,0,.095-.152.19l-.057.038a.536.536,0,0,0-.266.475V-11.1a.4.4,0,0,0,.1.295.4.4,0,0,0,.295.1h2.622a.4.4,0,0,0,.295-.1.4.4,0,0,0,.1-.295v-.95a30.309,30.309,0,0,0-.171-3.4v-.076a.317.317,0,0,1,.076-.219.265.265,0,0,1,.209-.085.6.6,0,0,1,.171.038,7.5,7.5,0,0,1,1.064.38q.3.152.3.266,0,.095-.171.19l-.057.038a.536.536,0,0,0-.266.475V-11.1a.4.4,0,0,0,.1.295.4.4,0,0,0,.295.1H-27.4a.4.4,0,0,0,.294-.1A.4.4,0,0,0-27-11.1v-.817a30.309,30.309,0,0,0-.171-3.4v-.076a.317.317,0,0,1,.076-.219.265.265,0,0,1,.209-.085.6.6,0,0,1,.171.038q1.406.418,1.406.665,0,.095-.171.19l-.057.038a.536.536,0,0,0-.266.475V-11.1a.4.4,0,0,0,.1.295.4.4,0,0,0,.294.1h.342a.546.546,0,0,0,.475-.247l.228-.342a2.988,2.988,0,0,1,.181-.257q.123-.161.2-.247a.211.211,0,0,1,.152-.085,1.752,1.752,0,0,1,.674.437,5.129,5.129,0,0,1,.769.76.327.327,0,0,1,.076.209.288.288,0,0,1-.114.228.526.526,0,0,1-.323.076H-25.4a.4.4,0,0,0-.294.1.4.4,0,0,0-.1.295v1.691q.057,2.527.114,3.762v.095a.508.508,0,0,1-.171.4,2.028,2.028,0,0,1-.437.228,1.368,1.368,0,0,1-.494.095h-.057a.227.227,0,0,1-.171-.133.545.545,0,0,1-.057-.247,1.039,1.039,0,0,0,.038-.228L-27-4.332V-4.37a.4.4,0,0,0-.1-.294.4.4,0,0,0-.294-.1h-2.736a.4.4,0,0,0-.295.1.4.4,0,0,0-.1.294q.038.456.038.437v.114a.567.567,0,0,1-.114.38,1.345,1.345,0,0,1-.39.228,1.248,1.248,0,0,1-.465.095.419.419,0,0,1-.295-.114.352.352,0,0,1-.124-.266q.076-.969.124-1.919t.067-2.394V-9.766a.4.4,0,0,0-.1-.295.4.4,0,0,0-.295-.1h-2.622a.4.4,0,0,0-.295.1.4.4,0,0,0-.1.295v8.7a.4.4,0,0,0,.1.294.4.4,0,0,0,.295.1Zm-4.712-5.073a.4.4,0,0,0,.1.294.4.4,0,0,0,.295.1H-27.4a.4.4,0,0,0,.294-.1.4.4,0,0,0,.1-.294V-9.766a.4.4,0,0,0-.1-.295.4.4,0,0,0-.294-.1h-2.736a.4.4,0,0,0-.295.1.4.4,0,0,0-.1.295ZM-15.428-.494q-.4,0-.4.38a3.663,3.663,0,0,1,.019.4l.019.19a.411.411,0,0,1-.114.3,1.208,1.208,0,0,1-.893.342A.382.382,0,0,1-17.071,1a.364.364,0,0,1-.123-.256q.076-1.121.133-2.175t.076-2.764v-6.5a29.218,29.218,0,0,0-.171-3.325V-14.1q0-.3.228-.3a.473.473,0,0,1,.209.057l.8.38a1.261,1.261,0,0,0,.494.114H-5.054A.6.6,0,0,0-4.56-14.1l.114-.152.142-.19a1.093,1.093,0,0,1,.152-.171.215.215,0,0,1,.142-.057,1.567,1.567,0,0,1,.589.342,3.809,3.809,0,0,1,.684.627.327.327,0,0,1,.076.209.312.312,0,0,1-.171.247.48.48,0,0,1-.114.057.737.737,0,0,0-.1.038.436.436,0,0,0-.342.437v8.7q.038,2.071.133,4.18v.1a.408.408,0,0,1-.19.38A1.747,1.747,0,0,1-3.895.9a1.358,1.358,0,0,1-.494.1q-.114,0-.209-.152A.311.311,0,0,1-4.636.684,2.493,2.493,0,0,1-4.6.4l.038-.38V-.095a.4.4,0,0,0-.1-.295.4.4,0,0,0-.295-.1ZM-11.286-7.6a.4.4,0,0,0,.294-.1.4.4,0,0,0,.1-.295v-4.9a.4.4,0,0,0-.1-.295.4.4,0,0,0-.294-.1h-4.142a.4.4,0,0,0-.294.1.4.4,0,0,0-.1.295V-8a.4.4,0,0,0,.1.295.4.4,0,0,0,.294.1Zm6.327,0a.4.4,0,0,0,.295-.1A.4.4,0,0,0-4.56-8v-4.9a.4.4,0,0,0-.1-.295.4.4,0,0,0-.295-.1H-9.272a.4.4,0,0,0-.295.1.4.4,0,0,0-.1.295V-8a.4.4,0,0,0,.1.295.4.4,0,0,0,.295.1Zm-5.928.931a.4.4,0,0,0-.1-.294.4.4,0,0,0-.294-.1h-4.142a.4.4,0,0,0-.294.1.4.4,0,0,0-.1.294v5.225a.4.4,0,0,0,.1.294.4.4,0,0,0,.294.1h4.142a.4.4,0,0,0,.294-.1.4.4,0,0,0,.1-.294Zm1.615-.4a.4.4,0,0,0-.295.1.4.4,0,0,0-.1.294v5.225a.4.4,0,0,0,.1.294.4.4,0,0,0,.295.1h4.313a.4.4,0,0,0,.295-.1.4.4,0,0,0,.1-.294V-6.669a.4.4,0,0,0-.1-.294.4.4,0,0,0-.295-.1ZM6.517-15.5q.095-.285.285-.285a.354.354,0,0,1,.228.076l.684.4q.779.323.779.475,0,.1-.228.133H8.208a.7.7,0,0,0-.437.3,17.8,17.8,0,0,1-1.995,2.508A15.536,15.536,0,0,1,3.249-9.709.53.53,0,0,1,3-9.576q-.114.019-.152-.038L2.812-9.69q0-.114.209-.323A17.989,17.989,0,0,0,5.073-12.54,11.341,11.341,0,0,0,6.517-15.5Zm5.871.475a.759.759,0,0,1-.181-.161.255.255,0,0,1-.067-.142q0-.1.152-.1a.938.938,0,0,1,.285.057A12.522,12.522,0,0,1,15.4-13.918a6.179,6.179,0,0,1,1.577,1.53,2.488,2.488,0,0,1,.485,1.311.8.8,0,0,1-.161.532.533.533,0,0,1-.428.19.474.474,0,0,1-.209-.038.335.335,0,0,1-.219-.1A1.308,1.308,0,0,1,16.3-10.7a10.456,10.456,0,0,0-1.643-2.223A19.929,19.929,0,0,0,12.388-15.029Zm.76,9.063a.546.546,0,0,0,.475-.247l.133-.19q.038-.057.133-.19a1.183,1.183,0,0,1,.171-.2.232.232,0,0,1,.152-.067,1.486,1.486,0,0,1,.58.371,5.081,5.081,0,0,1,.693.674.258.258,0,0,1,.076.19.322.322,0,0,1-.171.266l-.19.114a.752.752,0,0,0-.256.171.384.384,0,0,0-.086.266V-3.1q.057,2.489.114,3.724v.1a.4.4,0,0,1-.209.38,2.567,2.567,0,0,1-.456.209,1.433,1.433,0,0,1-.475.1.22.22,0,0,1-.19-.133.473.473,0,0,1-.057-.209,2.493,2.493,0,0,1,.038-.285V.76A1.266,1.266,0,0,0,13.661.3a.191.191,0,0,0-.1-.162.548.548,0,0,0-.295-.066h-6a.731.731,0,0,0-.295.047q-.1.047-.1.124a1.574,1.574,0,0,0,.019.285V.817a.451.451,0,0,1-.133.361,1.489,1.489,0,0,1-.39.2,1.369,1.369,0,0,1-.465.086.4.4,0,0,1-.276-.114.352.352,0,0,1-.123-.266q.076-1.1.123-2.185t.067-2.717V-5.871a.422.422,0,0,0-.067-.247.194.194,0,0,0-.161-.095.508.508,0,0,0-.247.095,18.19,18.19,0,0,1-2.85,1.634q-.361.152-.418.019V-4.5q0-.114.266-.285A18.7,18.7,0,0,0,5.178-7,23.256,23.256,0,0,0,7.809-9.766,7.49,7.49,0,0,0,9.253-12.54a.354.354,0,0,1,.494-.285l1.5.456a.569.569,0,0,1,.228.123.244.244,0,0,1,.095.181q0,.114-.133.133a.422.422,0,0,0-.19.323.341.341,0,0,0,.057.171,12.216,12.216,0,0,0,3,2.8,21.348,21.348,0,0,0,4.1,2.157,1.27,1.27,0,0,1,.228.123q.1.067.095.123a.172.172,0,0,1-.095.152,1.906,1.906,0,0,1-.228.114,1.5,1.5,0,0,0-.646.608q-.133.228-.3.228a.473.473,0,0,1-.209-.057A17.629,17.629,0,0,1,13.5-7.809a12.118,12.118,0,0,1-2.613-3.325q-.114-.209-.247-.209a.321.321,0,0,0-.266.19A17.556,17.556,0,0,1,8.541-8.939a21.538,21.538,0,0,1-2.328,2.08.359.359,0,0,0-.171.266q0,.171.228.285l.456.228a1.017,1.017,0,0,0,.494.114Zm.114,5.472a.4.4,0,0,0,.295-.1.4.4,0,0,0,.1-.294V-5.016a.4.4,0,0,0-.1-.295.4.4,0,0,0-.295-.1h-6a.4.4,0,0,0-.295.1.4.4,0,0,0-.1.295V-.893a.4.4,0,0,0,.1.294.4.4,0,0,0,.295.1ZM35.53-14.212a.536.536,0,0,0,.475-.266l.209-.3a2.987,2.987,0,0,1,.18-.257q.123-.162.2-.247a.211.211,0,0,1,.152-.086,1.854,1.854,0,0,1,.694.437,4.137,4.137,0,0,1,.769.76.411.411,0,0,1,.1.209.291.291,0,0,1-.1.209.667.667,0,0,1-.361.1H25.479a.4.4,0,0,0-.295.1.4.4,0,0,0-.1.295V-.931a.4.4,0,0,0,.1.294.4.4,0,0,0,.295.1H36.214a.546.546,0,0,0,.475-.247l.266-.361q.076-.095.209-.266a2.887,2.887,0,0,1,.219-.257.24.24,0,0,1,.161-.086,2.044,2.044,0,0,1,.732.465,5.064,5.064,0,0,1,.826.789.418.418,0,0,1,.095.228.272.272,0,0,1-.114.209.575.575,0,0,1-.342.1H25.479a.731.731,0,0,0-.295.047q-.1.048-.1.123a1.722,1.722,0,0,0,.019.3v.3a.464.464,0,0,1-.114.342,1.344,1.344,0,0,1-.931.323.381.381,0,0,1-.275-.123.364.364,0,0,1-.124-.257q.076-1.121.133-2.176t.076-2.765V-11.1a29.218,29.218,0,0,0-.171-3.325V-14.5q0-.285.247-.285a.423.423,0,0,1,.19.038l.931.418a1.262,1.262,0,0,0,.494.114ZM32.6-6.346a.425.425,0,0,0-.285-.152.412.412,0,0,0-.285.171A19.931,19.931,0,0,1,26.6-1.634a.622.622,0,0,1-.266.1q-.114.01-.152-.047l-.038-.076q0-.1.247-.3a21.757,21.757,0,0,0,4.883-5.206.508.508,0,0,0,.1-.247.438.438,0,0,0-.152-.3A26.441,26.441,0,0,0,27.3-10.7q-.266-.171-.266-.285a.134.134,0,0,1,.152-.152,1.042,1.042,0,0,1,.3.1,33.361,33.361,0,0,1,4.2,2.451.508.508,0,0,0,.247.1.341.341,0,0,0,.3-.209l.475-.817a12.815,12.815,0,0,0,.75-1.587,16.7,16.7,0,0,0,.561-1.625q.057-.285.3-.285a.506.506,0,0,1,.228.057q1.368.646,1.368.874,0,.1-.19.152l-.076.019a.708.708,0,0,0-.418.342,25.355,25.355,0,0,1-2.052,3.629.5.5,0,0,0-.076.247.435.435,0,0,0,.171.323,11.4,11.4,0,0,1,2.3,2.47A3.81,3.81,0,0,1,36.309-3a.871.871,0,0,1-.142.532.443.443,0,0,1-.371.19.675.675,0,0,1-.3-.076.589.589,0,0,1-.285-.3A14.751,14.751,0,0,0,32.6-6.346Z" transform="translate(291.952 24.682)" fill="#f7f7f7"/>
      <path id="パス_32382" data-name="パス 32382" d="M-9.462-8.873A4.235,4.235,0,0,1-7.838-8.5,3.648,3.648,0,0,1-6.27-7.135a4.8,4.8,0,0,1,.684,2.746,4.737,4.737,0,0,1-.627,2.451A4.494,4.494,0,0,1-7.809-.3a3.824,3.824,0,0,1-1.957.57,4.783,4.783,0,0,1-1.72-.323,3.315,3.315,0,0,1-1.387-.969,2.319,2.319,0,0,1-.541-1.539,1.241,1.241,0,0,1,.275-.9.854.854,0,0,1,.618-.275,1.26,1.26,0,0,1,.722.219.758.758,0,0,1,.323.674,1.911,1.911,0,0,1-.114.589l-.057.228a1.178,1.178,0,0,0-.038.285,1.156,1.156,0,0,0,.542,1.035,2.169,2.169,0,0,0,1.206.352,2.088,2.088,0,0,0,1.33-.484,3.369,3.369,0,0,0,.979-1.368,5.247,5.247,0,0,0,.37-2.043,4.892,4.892,0,0,0-.7-2.774A2.166,2.166,0,0,0-9.842-8.075a3.242,3.242,0,0,0-2.47,1.5.478.478,0,0,1-.266.19h-.076a.171.171,0,0,1-.152-.057h-.019a.536.536,0,0,1-.247-.494l.228-6.46a.379.379,0,0,1,.114-.295.432.432,0,0,1,.3-.1h5.833a.374.374,0,0,1,.3.114.379.379,0,0,1,.057.323l-.114.627a.371.371,0,0,1-.142.266.469.469,0,0,1-.295.1h-5.035a.384.384,0,0,0-.418.4l-.152,3.9q-.038.266.19.266a.887.887,0,0,0,.494-.247,4.112,4.112,0,0,1,1.1-.627A3.365,3.365,0,0,1-9.462-8.873Zm13,.57q0-.342-.209-.342-.133,0-.266.19A19.044,19.044,0,0,1,1.5-6.479q-.209.209-.3.209-.114,0-.114-.133A.662.662,0,0,1,1.2-6.726a27.522,27.522,0,0,0,2.641-5.3,16.088,16.088,0,0,0,.579-1.786,15.7,15.7,0,0,0,.389-1.824q.057-.323.323-.323a1.143,1.143,0,0,1,.19.038q1.463.494,1.463.722,0,.076-.171.133l-.057.019a.525.525,0,0,0-.38.38,33.086,33.086,0,0,1-1.482,3.439A.506.506,0,0,0,4.636-11a.476.476,0,0,0,.19.342q.323.3.323.456,0,.1-.171.19a.493.493,0,0,0-.266.456v6.042q.038,2.071.133,4.18V.76a.408.408,0,0,1-.19.38,1.489,1.489,0,0,1-.893.323.454.454,0,0,1-.3-.114.342.342,0,0,1-.133-.266Q3.4-.038,3.458-1.092t.076-2.764Zm11.229-3.439a.546.546,0,0,0,.475-.247l.228-.323q.057-.076.171-.237a1.945,1.945,0,0,1,.2-.247A.24.24,0,0,1,16-12.882a1.861,1.861,0,0,1,.655.427,4.852,4.852,0,0,1,.77.751.418.418,0,0,1,.095.228.272.272,0,0,1-.114.209.575.575,0,0,1-.342.1H9.291a20.466,20.466,0,0,0-2.508.209H6.669a.39.39,0,0,1-.38-.247l-.095-.171a.473.473,0,0,1-.057-.209q0-.285.38-.247.646.057,1.957.1H10.45a.453.453,0,0,0,.295-.086.27.27,0,0,0,.1-.219,30.309,30.309,0,0,0-.171-3.4v-.076q0-.3.266-.3a1.142,1.142,0,0,1,.19.038q1.425.418,1.425.646,0,.095-.171.19l-.076.038a.552.552,0,0,0-.266.494v2.28a.4.4,0,0,0,.1.295.4.4,0,0,0,.294.1Zm.342,11.8A.546.546,0,0,0,15.58-.19l.228-.342Q15.9-.646,16-.779a2.6,2.6,0,0,1,.19-.237.256.256,0,0,1,.171-.1q.152,0,.684.447a5.254,5.254,0,0,1,.779.77A.411.411,0,0,1,17.917.3a.291.291,0,0,1-.095.209.632.632,0,0,1-.342.1h-8.7A20.466,20.466,0,0,0,6.27.817H6.156a.39.39,0,0,1-.38-.266L5.7.418A.473.473,0,0,1,5.643.209q0-.285.38-.247Q6.669.019,8,.057h3.667A.4.4,0,0,0,12.1-.285q.8-2.926,1.406-6.137a25.629,25.629,0,0,0,.4-3.344q0-.342.323-.342a.494.494,0,0,1,.152.019Q16-9.728,16-9.5q0,.076-.171.171l-.057.038a.692.692,0,0,0-.342.418q-.475,1.919-1.235,4.218T12.6-.4a.448.448,0,0,0-.057.19q0,.266.361.266ZM7.752-9.4a2.277,2.277,0,0,1-.076-.3.136.136,0,0,1,.076-.133H7.79q.133,0,.3.247A14.669,14.669,0,0,1,9.785-6.232a9.139,9.139,0,0,1,.532,2.85,3.62,3.62,0,0,1-.237,1.434q-.238.542-.561.541a.464.464,0,0,1-.3-.133.547.547,0,0,1-.171-.4A33.944,33.944,0,0,0,8.693-5.8,15.646,15.646,0,0,0,7.752-9.4Z" transform="translate(110.952 24.682)" fill="#f7f7f7"/>
    </g>
    <g id="グループ_89" data-name="グループ 89" transform="translate(1.048 155.177)">
      <rect id="長方形_40006" data-name="長方形 40006" width="625" height="40" transform="translate(-0.048 -0.038)" fill="#70a1b4"/>
      <path id="パス_32381" data-name="パス 32381" d="M16.758,1.962a.322.322,0,0,1-.2-.09A11.262,11.262,0,0,1,15.03.405,10.881,10.881,0,0,1,13.3-2.475a10.75,10.75,0,0,1-.828-4.365A10.75,10.75,0,0,1,13.3-11.2a10.881,10.881,0,0,1,1.728-2.88,11.262,11.262,0,0,1,1.53-1.467.322.322,0,0,1,.2-.09.155.155,0,0,1,.1.036.111.111,0,0,1,.045.09.492.492,0,0,1-.126.234q-.054.072-.891,1.008A9.265,9.265,0,0,0,14.31-11.25a13.135,13.135,0,0,0-.738,4.41,12.208,12.208,0,0,0,.63,4.1A11.177,11.177,0,0,0,15.4-.171q.567.8,1.377,1.773a.492.492,0,0,1,.126.234.1.1,0,0,1-.054.1A.212.212,0,0,1,16.758,1.962ZM33.426-9.774a.517.517,0,0,0,.45-.234l.27-.378q.072-.09.207-.27t.216-.27a.22.22,0,0,1,.153-.09,2.065,2.065,0,0,1,.72.477,4.828,4.828,0,0,1,.81.8.4.4,0,0,1,.09.216.259.259,0,0,1-.09.18.632.632,0,0,1-.342.09H29.43a.354.354,0,0,0-.288.108.359.359,0,0,0-.054.306A12.544,12.544,0,0,0,36.288.09a1.045,1.045,0,0,1,.225.144q.081.072.063.108-.018.054-.153.09a1.175,1.175,0,0,0-.171.054,1.118,1.118,0,0,0-.738.558q-.126.234-.288.234a.448.448,0,0,1-.2-.054A12.042,12.042,0,0,1,30.69-3.069,16.4,16.4,0,0,1,28.782-8.55q-.018-.252-.09-.252-.054,0-.108.252A14.269,14.269,0,0,1,27.5-4.743,10.488,10.488,0,0,1,25.146-1.5a15.755,15.755,0,0,1-4.14,2.745.869.869,0,0,1-.234.072h-.036a.14.14,0,0,1-.144-.09.172.172,0,0,1,.036-.18.747.747,0,0,1,.2-.162,13.135,13.135,0,0,0,4.725-4.257,13.5,13.5,0,0,0,1.863-5.481v-.072q0-.324-.342-.324H23.706a18.649,18.649,0,0,0-2.376.2h-.09a.406.406,0,0,1-.378-.234l-.072-.144a1,1,0,0,1-.072-.216.2.2,0,0,1,.09-.171.362.362,0,0,1,.252-.045q.612.054,1.854.09h4.248a.356.356,0,0,0,.4-.36l.054-1.26q.018-.27.018-.828a20.8,20.8,0,0,0-.144-2.5v-.036a.3.3,0,0,1,.108-.261.434.434,0,0,1,.306-.063,9.9,9.9,0,0,1,1.134.171q.324.081.324.189,0,.09-.144.18l-.054.054a.517.517,0,0,0-.234.45l-.018.648q-.036,1.926-.144,3.222v.054q0,.342.36.342Zm19.6-4a.517.517,0,0,0,.45-.234l.216-.288q.054-.072.162-.225a1.842,1.842,0,0,1,.189-.234.227.227,0,0,1,.153-.081,1.619,1.619,0,0,1,.63.4,5.436,5.436,0,0,1,.72.693.4.4,0,0,1,.09.216.257.257,0,0,1-.108.2.632.632,0,0,1-.342.09H48.06a.377.377,0,0,0-.279.1.377.377,0,0,0-.1.279v2.88a.377.377,0,0,0,.1.279.377.377,0,0,0,.279.1h4.734a.583.583,0,0,0,.45-.2l.144-.162q.054-.054.207-.216a.413.413,0,0,1,.261-.162q.126,0,.5.333a3.522,3.522,0,0,1,.576.621.31.31,0,0,1,.072.2.216.216,0,0,1-.18.216l-.126.036a.443.443,0,0,0-.4.342,16.475,16.475,0,0,1-2.322,5.4.5.5,0,0,0-.09.252.378.378,0,0,0,.126.27A11.16,11.16,0,0,0,55.746-.018l.216.126q.09.054.09.09,0,.09-.324.162a1.322,1.322,0,0,0-.72.558.371.371,0,0,1-.324.216.425.425,0,0,1-.18-.054,10.853,10.853,0,0,1-3.132-2.79.39.39,0,0,0-.288-.18.4.4,0,0,0-.252.144,12.953,12.953,0,0,1-4.3,2.934.607.607,0,0,1-.27.072.171.171,0,0,1-.144-.072.073.073,0,0,1-.018-.054q0-.108.288-.27a12.765,12.765,0,0,0,4.032-3.456.407.407,0,0,0,.09-.27.5.5,0,0,0-.072-.252,16.988,16.988,0,0,1-1.8-5.616.362.362,0,0,0-.4-.342h-.18a.377.377,0,0,0-.279.1.377.377,0,0,0-.1.279v.5a22.862,22.862,0,0,1-.261,3.618,9.821,9.821,0,0,1-1.08,3.132,8.189,8.189,0,0,1-2.367,2.664q-.27.216-.4.09l-.036-.072q0-.108.2-.306A8.8,8.8,0,0,0,46.008-2.97a20.083,20.083,0,0,0,.594-5.2v-3.1a24.291,24.291,0,0,0-.126-2.646v-.072q0-.27.234-.27a.4.4,0,0,1,.18.036l.81.36a1.123,1.123,0,0,0,.468.09Zm-10.908.324a.377.377,0,0,0-.279.1.377.377,0,0,0-.1.279v9.774q.036,1.962.126,3.96v.09a.431.431,0,0,1-.18.378,1.311,1.311,0,0,1-.846.306.361.361,0,0,1-.261-.117.344.344,0,0,1-.117-.243q.072-1.062.126-2.061T40.662-3.6v-7.344a27.861,27.861,0,0,0-.162-3.168v-.072q0-.27.234-.27a.4.4,0,0,1,.18.036l.828.36a1.076,1.076,0,0,0,.45.09H43.83a.583.583,0,0,0,.45-.2l.144-.162q.054-.054.207-.216a.413.413,0,0,1,.261-.162q.126,0,.531.4a4.675,4.675,0,0,1,.621.72.244.244,0,0,1,.072.18.231.231,0,0,1-.2.234l-.2.036a.52.52,0,0,0-.45.27q-1.242,2.412-1.98,3.528a.477.477,0,0,0-.072.234.412.412,0,0,0,.162.306,5.152,5.152,0,0,1,2.052,4,2.838,2.838,0,0,1-.423,1.692,2.021,2.021,0,0,1-1.413.72h-.072q-.288,0-.342-.342a3.118,3.118,0,0,0-.072-.36A.546.546,0,0,0,42.8-3.4,1.017,1.017,0,0,0,42.5-3.51q-.342-.09-.342-.2,0-.054.1-.09a.849.849,0,0,1,.279-.036h.81a.791.791,0,0,0,.468-.108q.45-.234.45-1.206a5.543,5.543,0,0,0-1.386-3.6.479.479,0,0,1-.126-.324.993.993,0,0,1,.036-.2q.378-1.008,1.242-3.744a.468.468,0,0,0,.018-.144q0-.288-.342-.288Zm10.962,4.68q0-.306-.342-.306H49.374a.331.331,0,0,0-.27.108.359.359,0,0,0-.054.306,14.051,14.051,0,0,0,1.836,4.536.314.314,0,0,0,.27.18.3.3,0,0,0,.252-.18,16.779,16.779,0,0,0,1.656-4.536Zm6.336,10.6a.492.492,0,0,1,.126-.234q.054-.072.891-1.008A9.265,9.265,0,0,0,62.01-2.43a13.135,13.135,0,0,0,.738-4.41,12.208,12.208,0,0,0-.63-4.1,11.177,11.177,0,0,0-1.2-2.574q-.567-.8-1.377-1.773a.492.492,0,0,1-.126-.234.111.111,0,0,1,.045-.09.155.155,0,0,1,.1-.036.322.322,0,0,1,.2.09,11.262,11.262,0,0,1,1.53,1.467,10.881,10.881,0,0,1,1.728,2.88,10.75,10.75,0,0,1,.828,4.365,10.75,10.75,0,0,1-.828,4.365A10.881,10.881,0,0,1,61.29.405a11.261,11.261,0,0,1-1.53,1.467.322.322,0,0,1-.2.09.212.212,0,0,1-.09-.027A.1.1,0,0,1,59.418,1.836Z" transform="translate(429.952 24.962)" fill="#f7f7f7"/>
      <path id="パス_32380" data-name="パス 32380" d="M-14.454-9.774a.517.517,0,0,0,.45-.234l.27-.378q.072-.09.207-.27t.216-.27a.22.22,0,0,1,.153-.09,2.065,2.065,0,0,1,.72.477,4.828,4.828,0,0,1,.81.8.4.4,0,0,1,.09.216.259.259,0,0,1-.09.18.632.632,0,0,1-.342.09h-6.48a.354.354,0,0,0-.288.108.359.359,0,0,0-.054.306A12.544,12.544,0,0,0-11.592.09a1.045,1.045,0,0,1,.225.144q.081.072.063.108-.018.054-.153.09a1.175,1.175,0,0,0-.171.054,1.118,1.118,0,0,0-.738.558q-.126.234-.288.234a.448.448,0,0,1-.2-.054A12.042,12.042,0,0,1-17.19-3.069,16.4,16.4,0,0,1-19.1-8.55q-.018-.252-.09-.252-.054,0-.108.252a14.269,14.269,0,0,1-1.08,3.807A10.488,10.488,0,0,1-22.734-1.5a15.755,15.755,0,0,1-4.14,2.745.869.869,0,0,1-.234.072h-.036a.14.14,0,0,1-.144-.09.172.172,0,0,1,.036-.18.747.747,0,0,1,.2-.162,13.135,13.135,0,0,0,4.725-4.257,13.5,13.5,0,0,0,1.863-5.481v-.072q0-.324-.342-.324h-3.366a18.649,18.649,0,0,0-2.376.2h-.09a.406.406,0,0,1-.378-.234l-.072-.144a1,1,0,0,1-.072-.216.2.2,0,0,1,.09-.171.362.362,0,0,1,.252-.045q.612.054,1.854.09h4.248a.356.356,0,0,0,.4-.36l.054-1.26q.018-.27.018-.828a20.8,20.8,0,0,0-.144-2.5v-.036a.3.3,0,0,1,.108-.261.434.434,0,0,1,.306-.063,9.9,9.9,0,0,1,1.134.171q.324.081.324.189,0,.09-.144.18l-.054.054a.517.517,0,0,0-.234.45l-.018.648q-.036,1.926-.144,3.222v.054q0,.342.36.342Zm19.6-4A.517.517,0,0,0,5.6-14l.216-.288q.054-.072.162-.225a1.842,1.842,0,0,1,.189-.234.227.227,0,0,1,.153-.081,1.619,1.619,0,0,1,.63.4,5.436,5.436,0,0,1,.72.693.4.4,0,0,1,.09.216.257.257,0,0,1-.108.2.632.632,0,0,1-.342.09H.18a.377.377,0,0,0-.279.1.377.377,0,0,0-.1.279v2.88a.377.377,0,0,0,.1.279.377.377,0,0,0,.279.1H4.914a.583.583,0,0,0,.45-.2l.144-.162q.054-.054.207-.216a.413.413,0,0,1,.261-.162q.126,0,.5.333a3.522,3.522,0,0,1,.576.621.31.31,0,0,1,.072.2.216.216,0,0,1-.18.216l-.126.036a.443.443,0,0,0-.4.342A16.475,16.475,0,0,1,4.1-3.186a.5.5,0,0,0-.09.252.378.378,0,0,0,.126.27A11.16,11.16,0,0,0,7.866-.018q.126.072.216.126t.09.09q0,.09-.324.162a1.322,1.322,0,0,0-.72.558.371.371,0,0,1-.324.216.425.425,0,0,1-.18-.054A10.853,10.853,0,0,1,3.492-1.71.39.39,0,0,0,3.2-1.89a.4.4,0,0,0-.252.144,12.953,12.953,0,0,1-4.3,2.934.607.607,0,0,1-.27.072.171.171,0,0,1-.144-.072.073.073,0,0,1-.018-.054q0-.108.288-.27A12.765,12.765,0,0,0,2.538-2.592a.407.407,0,0,0,.09-.27.5.5,0,0,0-.072-.252A16.988,16.988,0,0,1,.756-8.73a.362.362,0,0,0-.4-.342H.18a.377.377,0,0,0-.279.1.377.377,0,0,0-.1.279v.5A22.862,22.862,0,0,1-.459-4.572,9.821,9.821,0,0,1-1.539-1.44,8.189,8.189,0,0,1-3.906,1.224q-.27.216-.4.09l-.036-.072q0-.108.2-.306A8.8,8.8,0,0,0-1.872-2.97a20.083,20.083,0,0,0,.594-5.2v-3.1A24.291,24.291,0,0,0-1.4-13.914v-.072q0-.27.234-.27a.4.4,0,0,1,.18.036l.81.36a1.123,1.123,0,0,0,.468.09Zm-10.908.324a.377.377,0,0,0-.279.1.377.377,0,0,0-.1.279v9.774q.036,1.962.126,3.96v.09a.431.431,0,0,1-.18.378,1.311,1.311,0,0,1-.846.306A.361.361,0,0,1-7.3,1.323a.344.344,0,0,1-.117-.243Q-7.344.018-7.29-.981T-7.218-3.6v-7.344a27.861,27.861,0,0,0-.162-3.168v-.072q0-.27.234-.27a.4.4,0,0,1,.18.036l.828.36a1.076,1.076,0,0,0,.45.09H-4.05a.583.583,0,0,0,.45-.2l.144-.162q.054-.054.207-.216a.413.413,0,0,1,.261-.162q.126,0,.531.4a4.675,4.675,0,0,1,.621.72.244.244,0,0,1,.072.18.231.231,0,0,1-.2.234l-.2.036a.52.52,0,0,0-.45.27q-1.242,2.412-1.98,3.528a.477.477,0,0,0-.072.234A.412.412,0,0,0-4.5-8.8a5.152,5.152,0,0,1,2.052,4,2.838,2.838,0,0,1-.423,1.692,2.021,2.021,0,0,1-1.413.72h-.072q-.288,0-.342-.342A3.118,3.118,0,0,0-4.77-3.1.546.546,0,0,0-5.076-3.4a1.017,1.017,0,0,0-.306-.108q-.342-.09-.342-.2,0-.054.1-.09a.849.849,0,0,1,.279-.036h.81a.791.791,0,0,0,.468-.108q.45-.234.45-1.206A5.543,5.543,0,0,0-5-8.748a.479.479,0,0,1-.126-.324.992.992,0,0,1,.036-.2q.378-1.008,1.242-3.744a.468.468,0,0,0,.018-.144q0-.288-.342-.288ZM5.2-8.766q0-.306-.342-.306H1.494a.331.331,0,0,0-.27.108.359.359,0,0,0-.054.306A14.051,14.051,0,0,0,3.006-4.122a.314.314,0,0,0,.27.18.3.3,0,0,0,.252-.18A16.779,16.779,0,0,0,5.184-8.658Zm18.414-.468a.523.523,0,0,0,.468-.252l.09-.162q.054-.072.126-.189a.968.968,0,0,1,.126-.171.173.173,0,0,1,.126-.054,1.554,1.554,0,0,1,.576.351,4.283,4.283,0,0,1,.684.639.31.31,0,0,1,.072.2.3.3,0,0,1-.144.234.425.425,0,0,1-.2.09.442.442,0,0,0-.324.432V-2.34a1.747,1.747,0,0,1-.3,1.1,1.925,1.925,0,0,1-1.233.522H23.6a.362.362,0,0,1-.36-.306,1.094,1.094,0,0,0-.306-.468,2.763,2.763,0,0,0-1.224-.414q-.36-.054-.36-.2,0-.108.4-.108,1.674.108,1.89.108a.569.569,0,0,0,.351-.081.342.342,0,0,0,.1-.279v-5.85a.377.377,0,0,0-.1-.279.377.377,0,0,0-.279-.1H20.394a.377.377,0,0,0-.279.1.377.377,0,0,0-.1.279v4.752q.036,1.944.126,3.978V.522A.467.467,0,0,1,20,.864a1.643,1.643,0,0,1-.45.279,1.241,1.241,0,0,1-.486.117.454.454,0,0,1-.306-.108A.324.324,0,0,1,18.63.9q.072-1.062.126-2.061t.072-2.619V-8.316a.377.377,0,0,0-.1-.279.377.377,0,0,0-.279-.1H15.192a.377.377,0,0,0-.279.1.377.377,0,0,0-.1.279v2.988q.036,1.962.126,3.96v.09a.4.4,0,0,1-.162.36,1.483,1.483,0,0,1-.9.306.317.317,0,0,1-.243-.108.361.361,0,0,1-.1-.252q.108-1.674.144-3.366V-6.21a28.165,28.165,0,0,0-.162-3.168V-9.45q0-.27.234-.27a.4.4,0,0,1,.18.036l.756.342a1.2,1.2,0,0,0,.468.108H18.45a.377.377,0,0,0,.279-.1.377.377,0,0,0,.1-.279V-11.52a.377.377,0,0,0-.1-.279.377.377,0,0,0-.279-.1H14.6a19.389,19.389,0,0,0-2.376.2h-.108a.37.37,0,0,1-.36-.234l-.09-.162a.448.448,0,0,1-.054-.2q0-.27.36-.234.612.054,1.854.09H18.45a.334.334,0,0,0,.378-.378q-.036-1.1-.108-1.926v-.036q0-.324.27-.324l.162.036q1.3.4,1.3.63,0,.09-.144.18l-.054.036a.517.517,0,0,0-.234.45v.954a.377.377,0,0,0,.1.279.377.377,0,0,0,.279.1h4.14a.517.517,0,0,0,.45-.234L25.218-13l.18-.243a2.328,2.328,0,0,1,.207-.252.227.227,0,0,1,.153-.081,1.892,1.892,0,0,1,.684.432,5.534,5.534,0,0,1,.792.738.4.4,0,0,1,.09.216.257.257,0,0,1-.108.2.632.632,0,0,1-.342.09H20.52a.727.727,0,0,0-.369.072q-.117.072.027.144.252.18.252.306,0,.108-.162.216l-.018.018a.547.547,0,0,0-.234.45v1.08a.377.377,0,0,0,.1.279.377.377,0,0,0,.279.1Z" transform="translate(279.952 24.962)" fill="#f7f7f7"/>
      <path id="パス_32379" data-name="パス 32379" d="M-5.548-3.914a.4.4,0,0,1,.295.1.4.4,0,0,1,.1.294.4.4,0,0,1-.1.295.4.4,0,0,1-.295.1H-6.9a.4.4,0,0,0-.295.1.4.4,0,0,0-.1.295v1.482a.53.53,0,0,0,.361.551,2.805,2.805,0,0,0,.95.133h.247q.171,0,.171.266,0,.285-.171.285H-10.3q-.152,0-.152-.285,0-.266.152-.266h.247A2.805,2.805,0,0,0-9.1-.684a.53.53,0,0,0,.361-.551V-2.717a.4.4,0,0,0-.1-.295.4.4,0,0,0-.295-.1h-4.313a.4.4,0,0,1-.295-.1.4.4,0,0,1-.1-.295v-.133a.9.9,0,0,1,.133-.494l5.491-9.519a.443.443,0,0,1,.513-.228l.076.019a.4.4,0,0,1,.342.437v9.12a.4.4,0,0,0,.1.294.4.4,0,0,0,.295.1ZM-8.74-10.241A.466.466,0,0,0-8.8-10.5a.175.175,0,0,0-.152-.085q-.152,0-.266.209l-3.458,5.985a.473.473,0,0,0-.057.209q0,.266.342.266h3.249a.4.4,0,0,0,.295-.1.4.4,0,0,0,.1-.294ZM3.534-8.3q0-.342-.209-.342-.133,0-.266.19A19.044,19.044,0,0,1,1.5-6.479q-.209.209-.3.209-.114,0-.114-.133A.662.662,0,0,1,1.2-6.726a27.522,27.522,0,0,0,2.641-5.3,16.088,16.088,0,0,0,.579-1.786,15.7,15.7,0,0,0,.389-1.824q.057-.323.323-.323a1.143,1.143,0,0,1,.19.038q1.463.494,1.463.722,0,.076-.171.133l-.057.019a.525.525,0,0,0-.38.38,33.086,33.086,0,0,1-1.482,3.439A.506.506,0,0,0,4.636-11a.476.476,0,0,0,.19.342q.323.3.323.456,0,.1-.171.19a.493.493,0,0,0-.266.456v6.042q.038,2.071.133,4.18V.76a.408.408,0,0,1-.19.38,1.489,1.489,0,0,1-.893.323.454.454,0,0,1-.3-.114.342.342,0,0,1-.133-.266Q3.4-.038,3.458-1.092t.076-2.764Zm11.229-3.439a.546.546,0,0,0,.475-.247l.228-.323q.057-.076.171-.237a1.945,1.945,0,0,1,.2-.247A.24.24,0,0,1,16-12.882a1.861,1.861,0,0,1,.655.427,4.852,4.852,0,0,1,.77.751.418.418,0,0,1,.095.228.272.272,0,0,1-.114.209.575.575,0,0,1-.342.1H9.291a20.466,20.466,0,0,0-2.508.209H6.669a.39.39,0,0,1-.38-.247l-.095-.171a.473.473,0,0,1-.057-.209q0-.285.38-.247.646.057,1.957.1H10.45a.453.453,0,0,0,.295-.086.27.27,0,0,0,.1-.219,30.309,30.309,0,0,0-.171-3.4v-.076q0-.3.266-.3a1.142,1.142,0,0,1,.19.038q1.425.418,1.425.646,0,.095-.171.19l-.076.038a.552.552,0,0,0-.266.494v2.28a.4.4,0,0,0,.1.295.4.4,0,0,0,.294.1Zm.342,11.8A.546.546,0,0,0,15.58-.19l.228-.342Q15.9-.646,16-.779a2.6,2.6,0,0,1,.19-.237.256.256,0,0,1,.171-.1q.152,0,.684.447a5.254,5.254,0,0,1,.779.77A.411.411,0,0,1,17.917.3a.291.291,0,0,1-.095.209.632.632,0,0,1-.342.1h-8.7A20.466,20.466,0,0,0,6.27.817H6.156a.39.39,0,0,1-.38-.266L5.7.418A.473.473,0,0,1,5.643.209q0-.285.38-.247Q6.669.019,8,.057h3.667A.4.4,0,0,0,12.1-.285q.8-2.926,1.406-6.137a25.629,25.629,0,0,0,.4-3.344q0-.342.323-.342a.494.494,0,0,1,.152.019Q16-9.728,16-9.5q0,.076-.171.171l-.057.038a.692.692,0,0,0-.342.418q-.475,1.919-1.235,4.218T12.6-.4a.448.448,0,0,0-.057.19q0,.266.361.266ZM7.752-9.4a2.277,2.277,0,0,1-.076-.3.136.136,0,0,1,.076-.133H7.79q.133,0,.3.247A14.669,14.669,0,0,1,9.785-6.232a9.139,9.139,0,0,1,.532,2.85,3.62,3.62,0,0,1-.237,1.434q-.238.542-.561.541a.464.464,0,0,1-.3-.133.547.547,0,0,1-.171-.4A33.944,33.944,0,0,0,8.693-5.8,15.646,15.646,0,0,0,7.752-9.4Z" transform="translate(110.952 25.962)" fill="#f7f7f7"/>
    </g>
    <g id="グループ_88" data-name="グループ 88" transform="translate(0 97.51)">
      <rect id="長方形_40008" data-name="長方形 40008" width="627" height="49" transform="translate(0 -0.371)" fill="#4f8ea7"/>
      <path id="パス_32378" data-name="パス 32378" d="M18.62,2.18a.358.358,0,0,1-.22-.1A12.513,12.513,0,0,1,16.7.45a12.09,12.09,0,0,1-1.92-3.2,11.944,11.944,0,0,1-.92-4.85,11.944,11.944,0,0,1,.92-4.85,12.09,12.09,0,0,1,1.92-3.2,12.513,12.513,0,0,1,1.7-1.63.358.358,0,0,1,.22-.1.172.172,0,0,1,.11.04.123.123,0,0,1,.05.1.546.546,0,0,1-.14.26q-.06.08-.99,1.12A10.294,10.294,0,0,0,15.9-12.5a14.6,14.6,0,0,0-.82,4.9,13.564,13.564,0,0,0,.7,4.55A12.419,12.419,0,0,0,17.11-.19q.63.89,1.53,1.97a.546.546,0,0,1,.14.26.112.112,0,0,1-.06.11A.236.236,0,0,1,18.62,2.18Zm10.02-5.5q0-.38-.28-.38a.629.629,0,0,0-.22.08Q25.9-2.24,24.18-1.24A.925.925,0,0,0,23.9-1l-.02.08q-.1.16-.22.16a.3.3,0,0,1-.19-.07.39.39,0,0,1-.13-.19l-.42-.92a.5.5,0,0,1-.06-.22q0-.24.3-.32,1.24-.36,5.14-1.78a.468.468,0,0,0,.34-.48V-9.6a.419.419,0,0,0-.11-.31.419.419,0,0,0-.31-.11H26.68a21.543,21.543,0,0,0-2.64.22h-.12a.411.411,0,0,1-.4-.26l-.1-.18a.533.533,0,0,1-.06-.24.22.22,0,0,1,.1-.19.4.4,0,0,1,.28-.05q.68.06,2.06.1h2.42a.419.419,0,0,0,.31-.11.419.419,0,0,0,.11-.31v-1.08a31.363,31.363,0,0,0-.18-3.56v-.08q0-.32.28-.32a1.2,1.2,0,0,1,.2.04q1.44.44,1.44.68,0,.1-.16.2l-.06.04a.564.564,0,0,0-.28.5V-3.78q.04,2.18.14,4.4v.1a.535.535,0,0,1-.18.42,1.424,1.424,0,0,1-.44.26,1.391,1.391,0,0,1-.5.1.407.407,0,0,1-.3-.12.384.384,0,0,1-.12-.28q.12-1.58.16-3.2Zm5.7-11.74a.49.49,0,0,0-.18.44v5.8q0,.36.24.36a.432.432,0,0,0,.28-.12q.76-.66,1.4-1.3a17.827,17.827,0,0,0,2.24-2.76.359.359,0,0,1,.32-.22.432.432,0,0,1,.28.12q1.22.96,1.22,1.18,0,.1-.2.1h-.08a.747.747,0,0,0-.52.2A25.223,25.223,0,0,1,37.1-9.51a30.4,30.4,0,0,1-2.64,1.67.557.557,0,0,0-.3.5v6.28a.656.656,0,0,0,.18.54,1.422,1.422,0,0,0,.78.14H36.9q1.18,0,1.74-.04a.439.439,0,0,0,.38-.26,19.237,19.237,0,0,0,.58-2.46q.06-.38.2-.38.12,0,.12.42l.06,2.18a.616.616,0,0,0,.32.5.44.44,0,0,1,.24.4.551.551,0,0,1-.3.51,2.815,2.815,0,0,1-1.07.23q-.77.06-2.31.06H34.9A2.633,2.633,0,0,1,33.32.44,1.526,1.526,0,0,1,32.9-.8V-12.12a31.9,31.9,0,0,0-.18-3.58v-.08a.333.333,0,0,1,.08-.23.279.279,0,0,1,.22-.09.635.635,0,0,1,.18.04q1.46.46,1.46.7,0,.1-.16.2ZM60.3-6.36a.386.386,0,0,0-.42.4q-.12,1.7-.3,2.96l-.02.16q0,.28.18.28a.464.464,0,0,0,.4-.28l.18-.32q.06-.08.17-.25a2.222,2.222,0,0,1,.19-.26.222.222,0,0,1,.16-.09q.14,0,.64.45a4.248,4.248,0,0,1,.72.79.372.372,0,0,1,.08.24.306.306,0,0,1-.1.22.6.6,0,0,1-.36.1H59.8a.41.41,0,0,0-.44.4A5.213,5.213,0,0,1,58.52.68a2.571,2.571,0,0,1-1.72.82h-.04q-.3,0-.4-.38a.77.77,0,0,0-.3-.48A3.653,3.653,0,0,0,54.68.18Q54.3.12,54.3-.08q0-.08.12-.12a.79.79,0,0,1,.32-.02q1.76.18,2.1.18a1.517,1.517,0,0,0,.45-.05A.824.824,0,0,0,57.6-.3a2.526,2.526,0,0,0,.5-1.18.443.443,0,0,0,.02-.14q0-.34-.38-.34H51.72a.494.494,0,0,0-.31.1.391.391,0,0,0-.15.28l-.16.82a.477.477,0,0,1-.34.42,1.24,1.24,0,0,1-.3.04,2.032,2.032,0,0,1-.32-.02q-.4-.06-.34-.5.5-2.34.96-5.08l.02-.12a.305.305,0,0,0-.11-.25.444.444,0,0,0-.29-.09h-.32a4.151,4.151,0,0,0-.94.16.635.635,0,0,1-.18.04.423.423,0,0,1-.38-.26l-.06-.14a.533.533,0,0,1-.06-.24q0-.26.38-.22.4.04,1.24.08h.48a.4.4,0,0,0,.44-.38l.12-.74a26.01,26.01,0,0,0,.3-2.7v-.04a.407.407,0,0,0-.06-.23.184.184,0,0,0-.16-.09.444.444,0,0,0-.32.18A14.1,14.1,0,0,1,49.7-9.76q-.3.24-.42.12a.136.136,0,0,1-.04-.1.674.674,0,0,1,.16-.34,15.108,15.108,0,0,0,1.58-2.64,14.186,14.186,0,0,0,.71-1.86,14.827,14.827,0,0,0,.47-1.88q.04-.32.32-.32a.5.5,0,0,1,.22.04q1.5.54,1.5.78,0,.06-.18.14l-.06.02a.661.661,0,0,0-.42.4q-.14.34-.46,1.02a.5.5,0,0,0-.06.22q0,.28.36.28h5.76a.575.575,0,0,0,.5-.26l.22-.32a2.88,2.88,0,0,0,.17-.24,1.436,1.436,0,0,1,.19-.24.276.276,0,0,1,.18-.1,1.755,1.755,0,0,1,.69.44,4.873,4.873,0,0,1,.77.76.44.44,0,0,1,.1.24.286.286,0,0,1-.12.22.6.6,0,0,1-.36.1H52.84a.553.553,0,0,0-.52.28l-.44.72a.372.372,0,0,0-.08.24.359.359,0,0,0,.22.32l.8.42a1.328,1.328,0,0,0,.52.12h5.08a.626.626,0,0,0,.52-.26l.12-.16.15-.2a1.15,1.15,0,0,1,.16-.18.227.227,0,0,1,.15-.06,1.35,1.35,0,0,1,.56.34,4.355,4.355,0,0,1,.66.64.271.271,0,0,1,.08.2.308.308,0,0,1-.2.28l-.14.06a.466.466,0,0,0-.4.44l-.04.82Q60-7.98,59.96-7.38v.1q0,.34.1.34t.28-.26l.2-.3q.06-.08.17-.25A1.584,1.584,0,0,1,60.9-8a.23.23,0,0,1,.16-.08q.14,0,.61.42a6.75,6.75,0,0,1,.73.74.629.629,0,0,1,.08.22.306.306,0,0,1-.1.22.52.52,0,0,1-.38.12ZM48.12-13.68a.626.626,0,0,1-.32-.38,6.927,6.927,0,0,0-1.66-2.04q-.26-.22-.26-.34,0-.08.18-.08a1.371,1.371,0,0,1,.26.02,4.4,4.4,0,0,1,2.03.93A1.712,1.712,0,0,1,49-14.36a.748.748,0,0,1-.18.52.591.591,0,0,1-.46.2A1.094,1.094,0,0,1,48.12-13.68ZM47.3-5.02a7.27,7.27,0,0,0-.28,1.72,5.463,5.463,0,0,0,.18,1.14q.14.58.22,1.03a5.671,5.671,0,0,1,.08.99q0,1.7-1.04,1.7a.432.432,0,0,1-.35-.2A1.255,1.255,0,0,1,45.9.82a1.371,1.371,0,0,1-.02-.26A1.371,1.371,0,0,1,45.9.3Q46-.84,46-1.52q0-1.6-.4-1.86a1.319,1.319,0,0,0-.54-.24q-.4-.1-.4-.28,0-.22.42-.22h.42a.484.484,0,0,0,.28-.06.949.949,0,0,0,.2-.34q.48-1.1,1.32-3.14l2.08-5.04q.12-.36.3-.36.1,0,.1.2a2.245,2.245,0,0,1-.14.66L48.32-8.16Zm-.72-4.14a.716.716,0,0,1-.32-.4,3.919,3.919,0,0,0-.64-1.03,6.509,6.509,0,0,0-.94-.93q-.34-.28-.26-.36a.232.232,0,0,1,.16-.04,1.371,1.371,0,0,1,.26.02,4.15,4.15,0,0,1,1.98.87,1.646,1.646,0,0,1,.64,1.17.786.786,0,0,1-.18.53.579.579,0,0,1-.46.21A1.094,1.094,0,0,1,46.58-9.16Zm5.64,1.88a.305.305,0,0,0,.11.25.444.444,0,0,0,.29.09h1.82a.4.4,0,0,0,.44-.4q.24-2.06.32-2.84v-.06q0-.38-.4-.38H53.1q-.38,0-.42.3-.16.9-.3,2.04-.06.28-.14.88ZM56-7.32q0,.38.4.38h1.94q.42,0,.42-.4.04-.48.07-1.16t.05-1.04l.02-.66v-.04a.359.359,0,0,0-.11-.28.414.414,0,0,0-.29-.1H56.72a.365.365,0,0,0-.42.34q-.14,1.54-.3,2.9Zm-4.48,4.4q0,.36.38.36h1.94a.413.413,0,0,0,.46-.38l.4-2.98V-6q0-.36-.4-.36H52.44a.4.4,0,0,0-.44.38l-.48,2.96Zm3.98,0q0,.36.4.36h2.02a.4.4,0,0,0,.44-.38q.22-1.36.34-2.98v-.04q0-.4-.42-.4H56.3q-.4,0-.44.46L55.5-3Zm24.2-8.16a.575.575,0,0,0,.5-.26l.14-.2q.06-.08.15-.22a.939.939,0,0,1,.16-.2.227.227,0,0,1,.15-.06,1.476,1.476,0,0,1,.59.37,5.05,5.05,0,0,1,.71.69.344.344,0,0,1,.08.22.329.329,0,0,1-.18.26l-.18.1a.792.792,0,0,0-.27.18.4.4,0,0,0-.09.28V-6.6q.04,2.18.14,4.4v.1a.429.429,0,0,1-.2.4,1.972,1.972,0,0,1-.5.26,1.553,1.553,0,0,1-.52.1q-.1,0-.18-.14a.472.472,0,0,1-.06-.2.7.7,0,0,1,.04-.22,2.449,2.449,0,0,0,.04-.38q0-.08-.11-.13a.769.769,0,0,0-.31-.05H74.5a.419.419,0,0,0-.31.11.419.419,0,0,0-.11.31v.38q0,.12-.32.29a1.429,1.429,0,0,1-.68.17.384.384,0,0,1-.28-.12.384.384,0,0,1-.12-.28q.14-1.8.18-3.96V-7.74a30.755,30.755,0,0,0-.18-3.5v-.08q0-.32.24-.32a.5.5,0,0,1,.22.06l.8.38a1.232,1.232,0,0,0,.52.12h.9a.428.428,0,0,0,.46-.38q.06-.3.14-1.04v-.06q0-.38-.4-.38H74.42a19.533,19.533,0,0,0-2.56.22h-.1a.424.424,0,0,1-.42-.28l-.08-.16a.5.5,0,0,1-.06-.22.239.239,0,0,1,.1-.21.4.4,0,0,1,.28-.05q.7.06,2.08.1h3.96a.488.488,0,0,0,.48-.32,11.077,11.077,0,0,0,.76-2.66q.06-.34.34-.34a1.2,1.2,0,0,1,.2.04q1.56.46,1.56.7,0,.06-.18.14l-.1.04a.954.954,0,0,0-.42.32q-.7.92-1.28,1.56a.535.535,0,0,0-.14.28.2.2,0,0,0,.1.17.444.444,0,0,0,.26.07h1.62a.575.575,0,0,0,.5-.26l.22-.32q.08-.1.19-.27a1.583,1.583,0,0,1,.19-.25.23.23,0,0,1,.16-.08,1.8,1.8,0,0,1,.7.45,4.465,4.465,0,0,1,.78.79.433.433,0,0,1,.1.22.306.306,0,0,1-.1.22.6.6,0,0,1-.36.1H77.82a.488.488,0,0,0-.48.32l-.52,1.04a.5.5,0,0,0-.06.22q0,.28.36.28Zm-6.06-5.2a1.025,1.025,0,0,1-.18-.36q0-.08.12-.08a.674.674,0,0,1,.3.08,3.773,3.773,0,0,1,1.5,1,1.784,1.784,0,0,1,.48,1.12.936.936,0,0,1-.2.62.625.625,0,0,1-.5.24.71.71,0,0,1-.32-.08.491.491,0,0,1-.28-.44,4.1,4.1,0,0,0-.33-1.07A6.254,6.254,0,0,0,73.64-16.28ZM67-15.62q-.3-.34-.22-.4a.136.136,0,0,1,.1-.04,2.4,2.4,0,0,1,.32.08,6.081,6.081,0,0,1,2.31,1.47,2.452,2.452,0,0,1,.73,1.57.927.927,0,0,1-.19.61.587.587,0,0,1-.47.23.815.815,0,0,1-.28-.06.5.5,0,0,1-.32-.4,5.965,5.965,0,0,0-.77-1.57A9.588,9.588,0,0,0,67-15.62ZM79.8-8.48a.419.419,0,0,0,.31-.11.419.419,0,0,0,.11-.31v-1.2a.419.419,0,0,0-.11-.31.419.419,0,0,0-.31-.11H74.5a.419.419,0,0,0-.31.11.419.419,0,0,0-.11.31v1.2a.419.419,0,0,0,.11.31.419.419,0,0,0,.31.11Zm-11.5.24a.557.557,0,0,0,.5-.3l.16-.26.15-.25a1.644,1.644,0,0,1,.16-.23.2.2,0,0,1,.15-.08q.14,0,.65.45a6.238,6.238,0,0,1,.79.81.344.344,0,0,1,.08.22.3.3,0,0,1-.18.26,1.24,1.24,0,0,1-.28.08.464.464,0,0,0-.38.46v4.7a.747.747,0,0,0,.2.52A4.294,4.294,0,0,0,71.69-.82a5.971,5.971,0,0,0,1.77.46,24.142,24.142,0,0,0,2.7.12q4.92,0,7.14-.06h.1a.569.569,0,0,1,.23.04q.09.04.09.08,0,.06-.1.12t-.24.14a1.163,1.163,0,0,0-.52.62.459.459,0,0,1-.46.36H76.18a16.729,16.729,0,0,1-2.8-.19A5.118,5.118,0,0,1,71.51.18a4.907,4.907,0,0,1-1.43-1.46.348.348,0,0,0-.3-.22.439.439,0,0,0-.28.16Q68.12.08,67.28.84q-.24.18-.24.26v.04a.587.587,0,0,1-.22.04.313.313,0,0,1-.28-.16L66.12.24a.5.5,0,0,1-.06-.22.372.372,0,0,1,.24-.34q1.1-.52,2.34-1.26a.553.553,0,0,0,.28-.52V-7.22a.419.419,0,0,0-.11-.31.419.419,0,0,0-.31-.11h-.52a6.107,6.107,0,0,0-1.3.18.52.52,0,0,1-.16.02.4.4,0,0,1-.38-.28l-.06-.14a.5.5,0,0,1-.06-.22q0-.28.4-.24.44.04,1.32.08Zm11.92.78a.419.419,0,0,0-.11-.31.419.419,0,0,0-.31-.11H74.5a.419.419,0,0,0-.31.11.419.419,0,0,0-.11.31v1.2a.419.419,0,0,0,.11.31.419.419,0,0,0,.31.11h5.3a.419.419,0,0,0,.31-.11.419.419,0,0,0,.11-.31ZM74.5-5.24a.419.419,0,0,0-.31.11.419.419,0,0,0-.11.31v1.38a.419.419,0,0,0,.11.31.419.419,0,0,0,.31.11h5.3a.419.419,0,0,0,.31-.11.419.419,0,0,0,.11-.31V-4.82a.419.419,0,0,0-.11-.31.419.419,0,0,0-.31-.11ZM87.62,2.04a.546.546,0,0,1,.14-.26q.06-.08.99-1.12A10.294,10.294,0,0,0,90.5-2.7a14.6,14.6,0,0,0,.82-4.9,13.564,13.564,0,0,0-.7-4.55,12.419,12.419,0,0,0-1.33-2.86q-.63-.89-1.53-1.97a.546.546,0,0,1-.14-.26.123.123,0,0,1,.05-.1.172.172,0,0,1,.11-.04.358.358,0,0,1,.22.1,12.513,12.513,0,0,1,1.7,1.63,12.09,12.09,0,0,1,1.92,3.2,11.944,11.944,0,0,1,.92,4.85,11.944,11.944,0,0,1-.92,4.85A12.09,12.09,0,0,1,89.7.45,12.513,12.513,0,0,1,88,2.08a.358.358,0,0,1-.22.1.236.236,0,0,1-.1-.03A.112.112,0,0,1,87.62,2.04Z" transform="translate(429 32.629)" fill="#f7f7f7"/>
      <path id="パス_32377" data-name="パス 32377" d="M-38.628-10.266q0-.522-.29-.522-.2,0-.406.377a23.921,23.921,0,0,1-4.263,6.177,1.436,1.436,0,0,1-.363.29A.207.207,0,0,1-44.2-4a.236.236,0,0,1-.058-.174.907.907,0,0,1,.2-.464A27.6,27.6,0,0,0-41.18-9.9a38.57,38.57,0,0,0,1.972-6.162l.029-.174a.443.443,0,0,0-.16-.362.643.643,0,0,0-.42-.131h-.87a13.9,13.9,0,0,0-2.262.29h-.174a.6.6,0,0,1-.58-.377l-.116-.232a.772.772,0,0,1-.087-.348.319.319,0,0,1,.145-.275.583.583,0,0,1,.406-.073q.957.087,2.9.145h1.16a.608.608,0,0,0,.45-.16.608.608,0,0,0,.16-.449v-.261a45.476,45.476,0,0,0-.261-5.162v-.116q0-.493.435-.493a.92.92,0,0,1,.261.058q2.088.7,2.088,1.044,0,.145-.232.29l-.087.058a.818.818,0,0,0-.406.725v3.857a.608.608,0,0,0,.16.449.608.608,0,0,0,.45.16h.609a.833.833,0,0,0,.725-.377l.319-.435a4.177,4.177,0,0,0,.247-.348,2.082,2.082,0,0,1,.275-.348.4.4,0,0,1,.261-.145q.2,0,.943.623a6.349,6.349,0,0,1,1.087,1.117.431.431,0,0,1,.116.319.443.443,0,0,1-.145.319,1.018,1.018,0,0,1-.551.145h-3.886a.608.608,0,0,0-.45.16.608.608,0,0,0-.16.449v1.653a.709.709,0,0,0,.493.7,8.521,8.521,0,0,1,3.059,2.132,3.523,3.523,0,0,1,.972,2.16,1.289,1.289,0,0,1-.246.812.784.784,0,0,1-.653.319.831.831,0,0,1-.377-.087.9.9,0,0,1-.493-.609,12.788,12.788,0,0,0-2-3.48.56.56,0,0,0-.406-.232q-.348,0-.348.522v6.786q.058,3.132.2,6.409v.174a.753.753,0,0,1-.232.551,2.064,2.064,0,0,1-.638.377,2.017,2.017,0,0,1-.725.145.788.788,0,0,1-.507-.174.51.51,0,0,1-.217-.406q.116-1.711.2-3.321t.116-4.219Zm8.729-7.685a47.258,47.258,0,0,0-.261-5.191v-.116a.483.483,0,0,1,.116-.333.4.4,0,0,1,.319-.131.92.92,0,0,1,.261.058q2.175.667,2.175,1.015,0,.145-.232.29l-.087.058a.818.818,0,0,0-.406.725V-1.363a.968.968,0,0,0,.275.8,1.953,1.953,0,0,0,1.117.218h2.668q2.2,0,2.639-.058A.689.689,0,0,0-21-.522a.9.9,0,0,0,.232-.319,31.88,31.88,0,0,0,.9-4.176q.087-.551.29-.551.174,0,.174.609l.087,3.828a.893.893,0,0,0,.464.725A.694.694,0,0,1-18.473.2a.772.772,0,0,1-.464.711,4.651,4.651,0,0,1-1.624.348q-1.16.1-3.451.1h-2.9A3.94,3.94,0,0,1-29.261.855,2.241,2.241,0,0,1-29.9-.986Zm23.925-1.3a.818.818,0,0,0,.725-.406l.116-.2q.058-.087.174-.276a1.56,1.56,0,0,1,.2-.275.278.278,0,0,1,.2-.087A2.092,2.092,0,0,1-3.712-20a7.665,7.665,0,0,1,1.015.942.393.393,0,0,1,.116.29.492.492,0,0,1-.261.406,2.25,2.25,0,0,1-.29.116.682.682,0,0,0-.522.7V-6.409a3.942,3.942,0,0,1-.232,1.537,1.383,1.383,0,0,1-.986.725.5.5,0,0,1-.2.029q-.406,0-.493-.551A1.788,1.788,0,0,0-5.8-5.278a1.215,1.215,0,0,0-.464-.377,1.707,1.707,0,0,1-.377-.189q-.145-.1-.145-.188,0-.145.435-.145l.783.029q.348,0,.348-.435V-17.777a.608.608,0,0,0-.159-.45.608.608,0,0,0-.45-.16H-6.5a.608.608,0,0,0-.449.16.608.608,0,0,0-.16.45V-5.365q.058,3.161.2,6.38v.116a.694.694,0,0,1-.29.609A2.127,2.127,0,0,1-8.439,2.2a.555.555,0,0,1-.392-.188.555.555,0,0,1-.189-.391q.116-1.711.2-3.321T-8.7-5.916V-17.777a.608.608,0,0,0-.16-.45.608.608,0,0,0-.45-.16h-.406a.608.608,0,0,0-.45.16.608.608,0,0,0-.16.45v6.815q.058,3.161.2,6.38v.145a.623.623,0,0,1-.29.58,1.92,1.92,0,0,1-1.218.435.555.555,0,0,1-.392-.188A.555.555,0,0,1-12.209-4q.116-1.508.188-2.973t.1-3.7v-3.654A44.6,44.6,0,0,0-12.18-19.4v-.116a.527.527,0,0,1,.1-.333.3.3,0,0,1,.247-.131.722.722,0,0,1,.319.087l.957.464a1.551,1.551,0,0,0,.754.174h.464a.538.538,0,0,0,.609-.609q-.058-2.233-.2-3.654v-.116a.483.483,0,0,1,.116-.333A.4.4,0,0,1-8.5-24.1a.92.92,0,0,1,.261.058q1.943.609,1.943.986,0,.145-.232.29l-.087.058a.818.818,0,0,0-.406.725v2.117a.608.608,0,0,0,.16.449.608.608,0,0,0,.45.16Zm14.3-3.712a.818.818,0,0,0,.725-.406l.145-.2q.087-.116.2-.29a1.765,1.765,0,0,1,.2-.261.278.278,0,0,1,.2-.087,1.859,1.859,0,0,1,.783.449,5.167,5.167,0,0,1,.9.856.393.393,0,0,1,.116.29.446.446,0,0,1-.29.406l-.145.058a.713.713,0,0,0-.522.7v2.03q.087,3.016.145,4.582v.145a.623.623,0,0,1-.29.58,2.342,2.342,0,0,1-1.305.377q-.319,0-.319-.522,0-.493-.609-.493H.609a.608.608,0,0,0-.45.16.608.608,0,0,0-.16.449v.116q0,.174-.42.377a2.281,2.281,0,0,1-1,.2.4.4,0,0,1-.333-.174.658.658,0,0,1-.131-.406q.116-1.131.174-2.9v-1.74A42.659,42.659,0,0,0-1.943-23.2v-.116q0-.435.377-.435a.646.646,0,0,1,.29.058L0-23.142a1.786,1.786,0,0,0,.754.174Zm-.058,3.6a.608.608,0,0,0,.449-.16.608.608,0,0,0,.16-.45v-1.537a.608.608,0,0,0-.16-.45.608.608,0,0,0-.449-.16H.609a.608.608,0,0,0-.45.16.608.608,0,0,0-.16.45v1.537a.608.608,0,0,0,.16.45.608.608,0,0,0,.45.16Zm-7.656.841a.608.608,0,0,0-.45.16.608.608,0,0,0-.16.45v1.682a.608.608,0,0,0,.16.45.608.608,0,0,0,.45.16H8.265a.608.608,0,0,0,.449-.16.608.608,0,0,0,.16-.45v-1.682a.608.608,0,0,0-.16-.45.608.608,0,0,0-.449-.16ZM8.99-7.859a.833.833,0,0,0,.725-.377l.29-.406q.087-.116.247-.348a2.559,2.559,0,0,1,.275-.348.334.334,0,0,1,.232-.116q.232,0,.943.609a6,6,0,0,1,1.03,1.073.431.431,0,0,1,.116.319.443.443,0,0,1-.145.319.877.877,0,0,1-.522.145h-4.5a.608.608,0,0,0-.45.16.608.608,0,0,0-.159.449V-.319a.391.391,0,0,0,.13.348A1.269,1.269,0,0,0,7.8.116h2.958a.647.647,0,0,0,.232-.087.6.6,0,0,0,.174-.261,24.27,24.27,0,0,0,.609-2.958q.116-.551.319-.551.087,0,.145.159a1.368,1.368,0,0,1,.058.449l.058,2.494a.726.726,0,0,0,.087.377,2.186,2.186,0,0,0,.319.377.753.753,0,0,1,.174.551q0,.58-.768.855A10.1,10.1,0,0,1,9.251,1.8H7.337a2.419,2.419,0,0,1-1.61-.377A1.818,1.818,0,0,1,5.336.087V-6.38a.608.608,0,0,0-.16-.449.608.608,0,0,0-.45-.16H3.393a.574.574,0,0,0-.638.58A10.634,10.634,0,0,1,.609-1.03,10.838,10.838,0,0,1-4.437,2.088a1.391,1.391,0,0,1-.406.087.226.226,0,0,1-.232-.145V1.943q0-.174.435-.406A9.894,9.894,0,0,0-.74-1.624,10.626,10.626,0,0,0,.841-6.351v-.087q0-.551-.58-.551H-.464a9.721,9.721,0,0,0-1.769.261.754.754,0,0,1-.232.029.576.576,0,0,1-.551-.377l-.116-.232a.722.722,0,0,1-.087-.319.347.347,0,0,1,.145-.3A.583.583,0,0,1-2.668-8q1.044.087,3.016.145H2.7q.609,0,.609-.435a45.476,45.476,0,0,0-.261-5.162v-.116q0-.464.406-.464a1.744,1.744,0,0,1,.29.058q1.943.609,1.943.928,0,.116-.232.261l-.029.029a.864.864,0,0,0-.406.725v3.567a.608.608,0,0,0,.16.45.608.608,0,0,0,.449.159Zm-.7-5.075q.145-.406.435-.406a.772.772,0,0,1,.348.087l.58.319a4.208,4.208,0,0,0,.7.29q.725.319.725.522,0,.145-.319.232l-.116.029a1.389,1.389,0,0,0-.667.435A20.983,20.983,0,0,1,7.308-8.845Q6.9-8.526,6.67-8.7a.251.251,0,0,1-.087-.174,1.223,1.223,0,0,1,.2-.493A17.692,17.692,0,0,0,8.294-12.934Zm-10.005.551a2.152,2.152,0,0,1-.232-.421q-.058-.16,0-.217a.168.168,0,0,1,.116-.029,1.865,1.865,0,0,1,.493.145A6.532,6.532,0,0,1,.913-11.267,2.726,2.726,0,0,1,1.624-9.6a1.242,1.242,0,0,1-.247.783A.757.757,0,0,1,.754-8.5a1.182,1.182,0,0,1-.406-.087.836.836,0,0,1-.435-.609A8.254,8.254,0,0,0-.74-10.817,11.084,11.084,0,0,0-1.711-12.383Zm39.759-2.494a.843.843,0,0,0,.754-.406l.145-.261q.087-.116.2-.3a1.56,1.56,0,0,1,.2-.275.278.278,0,0,1,.2-.087,2.5,2.5,0,0,1,.928.566,6.9,6.9,0,0,1,1.1,1.03.5.5,0,0,1,.116.319.482.482,0,0,1-.232.377.684.684,0,0,1-.319.145.713.713,0,0,0-.522.7V-3.77A2.815,2.815,0,0,1,40.15-2a3.1,3.1,0,0,1-1.986.841h-.145a.583.583,0,0,1-.58-.493,1.762,1.762,0,0,0-.493-.754,4.451,4.451,0,0,0-1.972-.667q-.58-.087-.58-.319,0-.174.638-.174,2.7.174,3.045.174a.916.916,0,0,0,.566-.131.552.552,0,0,0,.16-.449V-13.4a.608.608,0,0,0-.16-.449.608.608,0,0,0-.45-.16H32.857a.608.608,0,0,0-.449.16.608.608,0,0,0-.16.449v7.656q.058,3.132.2,6.409V.841a.753.753,0,0,1-.232.551,2.647,2.647,0,0,1-.725.45,2,2,0,0,1-.783.188.732.732,0,0,1-.493-.174.522.522,0,0,1-.2-.406q.116-1.711.2-3.32t.116-4.219V-13.4a.608.608,0,0,0-.16-.449.608.608,0,0,0-.45-.16H24.476a.608.608,0,0,0-.449.16.608.608,0,0,0-.16.449v4.814q.058,3.161.2,6.38v.145a.645.645,0,0,1-.261.58,2.389,2.389,0,0,1-1.45.493.511.511,0,0,1-.392-.174.582.582,0,0,1-.159-.406q.174-2.7.232-5.423v-3.016a45.376,45.376,0,0,0-.261-5.1v-.116q0-.435.377-.435a.646.646,0,0,1,.29.058l1.218.551a1.925,1.925,0,0,0,.754.174h5.307a.608.608,0,0,0,.45-.159.608.608,0,0,0,.16-.45V-18.56a.608.608,0,0,0-.16-.45.608.608,0,0,0-.45-.16H23.519a31.237,31.237,0,0,0-3.828.319h-.174a.6.6,0,0,1-.58-.377l-.145-.261a.722.722,0,0,1-.087-.319q0-.435.58-.377.986.087,2.987.145h7.453a.538.538,0,0,0,.609-.609q-.058-1.769-.174-3.1v-.058q0-.522.435-.522l.261.058q2.088.638,2.088,1.015,0,.145-.232.29l-.087.058a.833.833,0,0,0-.377.725v1.537a.608.608,0,0,0,.16.45.608.608,0,0,0,.449.16h6.67a.833.833,0,0,0,.725-.377l.377-.522.29-.392a3.751,3.751,0,0,1,.333-.406.366.366,0,0,1,.247-.131,3.049,3.049,0,0,1,1.1.7,8.915,8.915,0,0,1,1.276,1.189.638.638,0,0,1,.145.348.415.415,0,0,1-.174.319,1.018,1.018,0,0,1-.551.145H33.06a1.171,1.171,0,0,0-.594.116q-.189.116.043.232.406.29.406.493,0,.174-.261.348l-.029.029a.881.881,0,0,0-.377.725v1.74a.608.608,0,0,0,.16.45.608.608,0,0,0,.449.159Z" transform="translate(299 34.629)" fill="#f7f7f7"/>
      <path id="パス_32376" data-name="パス 32376" d="M-13.021-11.31q-.348.087-.348.174t.348.174A6.9,6.9,0,0,1-9.628-9.048,4.662,4.662,0,0,1-8.352-5.742a6.951,6.951,0,0,1-.594,2.711,5.54,5.54,0,0,1-2.1,2.422A7.113,7.113,0,0,1-15.08.406a6.431,6.431,0,0,1-3.233-.725,4.432,4.432,0,0,1-1.8-1.755,4.294,4.294,0,0,1-.537-1.986,1.875,1.875,0,0,1,.45-1.378,1.416,1.416,0,0,1,1.029-.449,1.816,1.816,0,0,1,1.1.362,1.2,1.2,0,0,1,.493,1.03,1.767,1.767,0,0,1-.319.841,3.037,3.037,0,0,0-.246.406,1.024,1.024,0,0,0-.1.464A2.226,2.226,0,0,0-17.6-1.247a2.986,2.986,0,0,0,2.262.7,3.957,3.957,0,0,0,2.291-.7,4.725,4.725,0,0,0,1.595-1.914,6.4,6.4,0,0,0,.58-2.784,4.959,4.959,0,0,0-1.16-3.422,4.084,4.084,0,0,0-3.219-1.3,4.726,4.726,0,0,0-.609.058,5.032,5.032,0,0,1-.7.058.883.883,0,0,1-.537-.16.525.525,0,0,1-.217-.45A.536.536,0,0,1-17.1-11.6a.832.832,0,0,1,.537-.174,3.1,3.1,0,0,1,.754.087,6.231,6.231,0,0,0,.725.058,3.975,3.975,0,0,0,2.349-.812q1.131-.812,1.131-3.48a4.633,4.633,0,0,0-1.03-3.407,3.328,3.328,0,0,0-2.392-1,3.678,3.678,0,0,0-1.638.391,1.478,1.478,0,0,0-.8,1.464,2.433,2.433,0,0,0,.232.986,1.471,1.471,0,0,1,.2.754,1.246,1.246,0,0,1-.333.9,1.1,1.1,0,0,1-.826.348,1.457,1.457,0,0,1-1.29-.566,2.166,2.166,0,0,1-.392-1.261,3.11,3.11,0,0,1,.653-1.726,5.4,5.4,0,0,1,1.841-1.61,5.476,5.476,0,0,1,2.726-.667A5.9,5.9,0,0,1-11.7-20.6a4.957,4.957,0,0,1,1.928,1.885,5.053,5.053,0,0,1,.667,2.537,4.928,4.928,0,0,1-.986,3.031A5.186,5.186,0,0,1-13.021-11.31ZM5.394-12.673q0-.522-.319-.522-.2,0-.406.29A29.068,29.068,0,0,1,2.291-9.889q-.319.319-.464.319-.174,0-.174-.2a1.011,1.011,0,0,1,.174-.493,42.007,42.007,0,0,0,4.031-8.091,24.555,24.555,0,0,0,.884-2.726,23.971,23.971,0,0,0,.595-2.784q.087-.493.493-.493a1.744,1.744,0,0,1,.29.058q2.233.754,2.233,1.1,0,.116-.261.2l-.087.029a.8.8,0,0,0-.58.58,50.5,50.5,0,0,1-2.262,5.249.772.772,0,0,0-.087.348.726.726,0,0,0,.29.522q.493.464.493.7,0,.145-.261.29a.753.753,0,0,0-.406.7v9.222q.058,3.161.2,6.38V1.16a.623.623,0,0,1-.29.58,2.273,2.273,0,0,1-1.363.493.693.693,0,0,1-.464-.174.522.522,0,0,1-.2-.406q.116-1.711.2-3.321t.116-4.219Zm17.139-5.249a.833.833,0,0,0,.725-.377l.348-.493q.087-.116.261-.362a2.968,2.968,0,0,1,.3-.377.366.366,0,0,1,.246-.13,2.841,2.841,0,0,1,1,.652,7.406,7.406,0,0,1,1.174,1.146.638.638,0,0,1,.145.348.415.415,0,0,1-.174.319.877.877,0,0,1-.522.145H14.181a31.237,31.237,0,0,0-3.828.319h-.174a.6.6,0,0,1-.58-.377l-.145-.261a.722.722,0,0,1-.087-.319q0-.435.58-.377.986.087,2.987.145H15.95a.692.692,0,0,0,.449-.131.412.412,0,0,0,.16-.333,46.261,46.261,0,0,0-.261-5.191v-.116q0-.464.406-.464a1.744,1.744,0,0,1,.29.058q2.175.638,2.175.986,0,.145-.261.29l-.116.058a.843.843,0,0,0-.406.754v3.48a.608.608,0,0,0,.16.45.608.608,0,0,0,.449.16ZM23.055.087A.833.833,0,0,0,23.78-.29l.348-.522q.145-.174.29-.377a3.963,3.963,0,0,1,.29-.362.391.391,0,0,1,.261-.16q.232,0,1.044.681A8.019,8.019,0,0,1,27.2.145a.627.627,0,0,1,.145.319A.443.443,0,0,1,27.2.783a.965.965,0,0,1-.522.145H13.4a31.238,31.238,0,0,0-3.828.319H9.4a.6.6,0,0,1-.58-.406L8.7.638A.722.722,0,0,1,8.613.319q0-.435.58-.377.986.087,3.016.145h5.6a.613.613,0,0,0,.667-.522Q19.691-4.9,20.619-9.8a39.118,39.118,0,0,0,.609-5.1q0-.522.493-.522a.754.754,0,0,1,.232.029q2.465.551,2.465.9,0,.116-.261.261l-.087.058a1.056,1.056,0,0,0-.522.638q-.725,2.929-1.885,6.438t-2.436,6.5a.684.684,0,0,0-.087.29q0,.406.551.406ZM11.832-14.355a3.476,3.476,0,0,1-.116-.464.208.208,0,0,1,.116-.2h.058q.2,0,.464.377a22.39,22.39,0,0,1,2.581,5.133,13.949,13.949,0,0,1,.812,4.35,5.526,5.526,0,0,1-.363,2.19q-.362.827-.856.827a.709.709,0,0,1-.464-.2.835.835,0,0,1-.261-.609,51.808,51.808,0,0,0-.536-5.887A23.881,23.881,0,0,0,11.832-14.355Z" transform="translate(113 34.629)" fill="#f7f7f7"/>
    </g>
    <g id="グループ_87" data-name="グループ 87" transform="translate(1.048 48.231)">
      <rect id="長方形_40005" data-name="長方形 40005" width="625" height="40" transform="translate(-0.048 -0.092)" fill="#70a1b4"/>
      <path id="パス_32375" data-name="パス 32375" d="M16.758,1.962a.322.322,0,0,1-.2-.09A11.262,11.262,0,0,1,15.03.405,10.881,10.881,0,0,1,13.3-2.475a10.75,10.75,0,0,1-.828-4.365A10.75,10.75,0,0,1,13.3-11.2a10.881,10.881,0,0,1,1.728-2.88,11.262,11.262,0,0,1,1.53-1.467.322.322,0,0,1,.2-.09.155.155,0,0,1,.1.036.111.111,0,0,1,.045.09.492.492,0,0,1-.126.234q-.054.072-.891,1.008A9.265,9.265,0,0,0,14.31-11.25a13.135,13.135,0,0,0-.738,4.41,12.208,12.208,0,0,0,.63,4.1A11.177,11.177,0,0,0,15.4-.171q.567.8,1.377,1.773a.492.492,0,0,1,.126.234.1.1,0,0,1-.054.1A.212.212,0,0,1,16.758,1.962Zm6.264-8.01q0-.324-.2-.324a.4.4,0,0,0-.27.144,16.02,16.02,0,0,1-1.926,1.674.615.615,0,0,1-.288.144q-.126,0-.126-.072,0-.108.216-.324a20.524,20.524,0,0,0,2.3-2.79,19.806,19.806,0,0,0,1.782-3.06.571.571,0,0,0,.036-.162.24.24,0,0,0-.09-.2.394.394,0,0,0-.252-.072h-.828a15.047,15.047,0,0,0-2.124.2H21.15a.393.393,0,0,1-.36-.234l-.054-.126a.69.69,0,0,1-.054-.216q0-.216.342-.2.414.036,1.206.072h.432a.334.334,0,0,0,.378-.378q-.036-1.53-.162-2.7v-.036a.336.336,0,0,1,.081-.234.266.266,0,0,1,.207-.09l.162.036a6.713,6.713,0,0,1,.981.36q.279.144.279.252,0,.09-.162.18l-.072.036a.523.523,0,0,0-.252.468v1.728a.4.4,0,0,0,.09.279.3.3,0,0,0,.234.1h.018a.549.549,0,0,0,.468-.216l.144-.162q.072-.072.207-.225a.362.362,0,0,1,.243-.153q.126,0,.477.333a3.6,3.6,0,0,1,.549.639.448.448,0,0,1,.054.2.227.227,0,0,1-.054.153.261.261,0,0,1-.162.081l-.144.018a.818.818,0,0,0-.261.1.5.5,0,0,0-.171.207,19.291,19.291,0,0,1-1.4,2.25.482.482,0,0,0-.09.234q0,.18.234.288a3.763,3.763,0,0,1,1.35.927,1.541,1.541,0,0,1,.432.963.69.69,0,0,1-.135.441.426.426,0,0,1-.351.171,1.082,1.082,0,0,1-.18-.036.407.407,0,0,1-.2-.117.7.7,0,0,1-.126-.243A5.143,5.143,0,0,0,24.57-7a.34.34,0,0,0-.252-.162.183.183,0,0,0-.153.09.4.4,0,0,0-.063.234v3.492q.036,1.962.126,3.96V.7a.482.482,0,0,1-.162.378,1.36,1.36,0,0,1-.882.306.344.344,0,0,1-.243-.117.344.344,0,0,1-.117-.243q.072-1.062.126-2.061t.072-2.619Zm6.534-7.308a19.389,19.389,0,0,0-2.376.2h-.108a.37.37,0,0,1-.36-.234l-.072-.144a.479.479,0,0,1-.054-.216.2.2,0,0,1,.09-.171.362.362,0,0,1,.252-.045q.612.054,1.854.09H33.8a.517.517,0,0,0,.45-.234l.18-.27q.054-.072.153-.225a1.425,1.425,0,0,1,.171-.225A.207.207,0,0,1,34.9-14.9a1.539,1.539,0,0,1,.612.387,4.275,4.275,0,0,1,.684.675.4.4,0,0,1,.09.216.224.224,0,0,1-.072.162.468.468,0,0,1-.342.108Zm3.762,1.62a.508.508,0,0,0,.45-.252l.072-.126q.054-.072.126-.18a1.1,1.1,0,0,1,.126-.162.173.173,0,0,1,.126-.054,1.1,1.1,0,0,1,.477.288,2.951,2.951,0,0,1,.531.54.31.31,0,0,1,.072.2.215.215,0,0,1-.09.189.711.711,0,0,1-.252.1.515.515,0,0,0-.2.378v.756l.036.864q0,.36.036.972v.09a.386.386,0,0,1-.18.36,1.454,1.454,0,0,1-.81.234.144.144,0,0,1-.135-.09.524.524,0,0,1-.045-.234.3.3,0,0,0-.1-.234.4.4,0,0,0-.279-.09H29.07a.377.377,0,0,0-.279.1.377.377,0,0,0-.1.279v.072q0,.09-.261.216a1.462,1.462,0,0,1-.639.126.191.191,0,0,1-.171-.108.491.491,0,0,1-.063-.252q.054-.414.072-.846a3.88,3.88,0,0,1,.018-.414v-.828q0-.972-.09-2.016v-.072q0-.27.234-.27a.4.4,0,0,1,.18.036l.72.324a1.2,1.2,0,0,0,.468.108Zm-4.248.522a.377.377,0,0,0-.279.1.377.377,0,0,0-.1.279V-9.09a.377.377,0,0,0,.1.279.377.377,0,0,0,.279.1h4.212a.377.377,0,0,0,.279-.1.377.377,0,0,0,.1-.279v-1.746a.377.377,0,0,0-.1-.279.377.377,0,0,0-.279-.1ZM28.206.216a.377.377,0,0,0-.279.1.377.377,0,0,0-.1.279v.432q0,.09-.252.225a1.323,1.323,0,0,1-.63.135.273.273,0,0,1-.216-.108.382.382,0,0,1-.09-.252q.108-1.4.144-2.808v-1.6a27.861,27.861,0,0,0-.162-3.168v-.072q0-.27.234-.27a.4.4,0,0,1,.18.036l.792.342a1.076,1.076,0,0,0,.45.09h5.94a.517.517,0,0,0,.45-.234l.072-.108q.036-.054.144-.2A.29.29,0,0,1,35.1-7.11a1.229,1.229,0,0,1,.5.261,3.058,3.058,0,0,1,.567.5.244.244,0,0,1,.072.18.268.268,0,0,1-.144.234l-.126.054a.413.413,0,0,0-.324.414v2.088q.036,1.98.126,3.942V.63a.435.435,0,0,1-.2.4,1.548,1.548,0,0,1-.846.252.209.209,0,0,1-.18-.126.425.425,0,0,1-.054-.18.985.985,0,0,1,.036-.216l.036-.18q0-.36-.378-.36ZM30.24-3.51a.377.377,0,0,0,.279-.1.377.377,0,0,0,.1-.279v-1.62a.377.377,0,0,0-.1-.279.377.377,0,0,0-.279-.1H28.206a.377.377,0,0,0-.279.1.377.377,0,0,0-.1.279v1.62a.377.377,0,0,0,.1.279.377.377,0,0,0,.279.1Zm3.942,0a.377.377,0,0,0,.279-.1.377.377,0,0,0,.1-.279v-1.62a.377.377,0,0,0-.1-.279.377.377,0,0,0-.279-.1H32.058a.377.377,0,0,0-.279.1.377.377,0,0,0-.1.279v1.62a.377.377,0,0,0,.1.279.377.377,0,0,0,.279.1Zm-3.564.918a.377.377,0,0,0-.1-.279.377.377,0,0,0-.279-.1H28.206a.377.377,0,0,0-.279.1.377.377,0,0,0-.1.279V-.7a.377.377,0,0,0,.1.279.377.377,0,0,0,.279.1H30.24a.377.377,0,0,0,.279-.1.377.377,0,0,0,.1-.279Zm1.44-.378a.377.377,0,0,0-.279.1.377.377,0,0,0-.1.279V-.7a.377.377,0,0,0,.1.279.377.377,0,0,0,.279.1h2.124a.377.377,0,0,0,.279-.1.377.377,0,0,0,.1-.279v-1.89a.377.377,0,0,0-.1-.279.377.377,0,0,0-.279-.1ZM42.606-13.3a.377.377,0,0,0-.279.1.377.377,0,0,0-.1.279v9.558q.036,1.944.126,3.978V.7a.488.488,0,0,1-.144.36,1.23,1.23,0,0,1-.4.261,1.235,1.235,0,0,1-.486.1.408.408,0,0,1-.27-.108.324.324,0,0,1-.126-.252Q41,0,41.058-1t.072-2.619v-7.218a27.681,27.681,0,0,0-.162-3.15v-.072q0-.288.216-.288a.448.448,0,0,1,.2.054l.738.342a1.2,1.2,0,0,0,.468.108H53.082a.534.534,0,0,0,.468-.234l.09-.126a2.045,2.045,0,0,0,.171-.216q.117-.162.225-.162a1.512,1.512,0,0,1,.558.306,3.766,3.766,0,0,1,.666.576.389.389,0,0,1,.09.2q0,.126-.18.252a.454.454,0,0,1-.108.054.7.7,0,0,0-.09.036.413.413,0,0,0-.324.414V-.288A1.785,1.785,0,0,1,54.333.846a2.053,2.053,0,0,1-1.323.54L52.9,1.4q-.252,0-.342-.306a.878.878,0,0,0-.4-.45A4.056,4.056,0,0,0,50.67.216q-.36-.054-.36-.18,0-.108.288-.108.45,0,1.53.072.594.054.9.054a.6.6,0,0,0,.4-.108.472.472,0,0,0,.117-.36v-12.51a.377.377,0,0,0-.1-.279.377.377,0,0,0-.279-.1ZM50.67-9.144a.517.517,0,0,0,.45-.234l.18-.252q.072-.09.171-.225a1.841,1.841,0,0,1,.171-.207.207.207,0,0,1,.144-.072,1.509,1.509,0,0,1,.6.369,3.936,3.936,0,0,1,.675.657.4.4,0,0,1,.09.216.257.257,0,0,1-.108.2.6.6,0,0,1-.324.09h-4.05a.377.377,0,0,0-.279.1.377.377,0,0,0-.1.279v4.842a.377.377,0,0,0,.1.279.377.377,0,0,0,.279.1H50.2a.377.377,0,0,0,.279-.1.377.377,0,0,0,.1-.279V-3.51a28.226,28.226,0,0,0-.162-3.2v-.072q0-.288.252-.288a1.082,1.082,0,0,1,.18.036Q52-6.678,52-6.48q0,.072-.144.162H51.84a.5.5,0,0,0-.252.468v.972Q51.642-2.916,51.7-2v.09a.482.482,0,0,1-.162.378,1.318,1.318,0,0,1-.774.27.22.22,0,0,1-.2-.126.448.448,0,0,1-.054-.2,1.517,1.517,0,0,1,.036-.252l.036-.234v-.036a.377.377,0,0,0-.1-.279.377.377,0,0,0-.279-.1H45.45a.377.377,0,0,0-.279.1.377.377,0,0,0-.1.279v.018q.018.18.018.414l.018.162a.4.4,0,0,1-.126.288,1.067,1.067,0,0,1-.342.2,1.152,1.152,0,0,1-.4.072.265.265,0,0,1-.225-.108.408.408,0,0,1-.081-.252q.072-.666.108-1.692V-4.032a24.685,24.685,0,0,0-.126-2.682v-.072q0-.288.252-.288a1.082,1.082,0,0,1,.18.036q1.116.36,1.116.558,0,.072-.126.162h-.018a.5.5,0,0,0-.252.468v2.466a.377.377,0,0,0,.1.279.377.377,0,0,0,.279.1h1.4a.377.377,0,0,0,.279-.1.377.377,0,0,0,.1-.279V-8.226a.377.377,0,0,0-.1-.279.377.377,0,0,0-.279-.1H45.792a19.389,19.389,0,0,0-2.376.2h-.108a.37.37,0,0,1-.36-.252l-.072-.162a.448.448,0,0,1-.054-.2q0-.252.36-.216.612.054,1.872.09h3.2a.439.439,0,0,0,.432-.288l.036-.09a15.9,15.9,0,0,0,.567-1.575A15.955,15.955,0,0,0,49.7-12.69q.054-.288.306-.288a.546.546,0,0,1,.162.018q1.368.468,1.368.666,0,.054-.162.126l-.072.036a.79.79,0,0,0-.378.324,18.667,18.667,0,0,1-1.53,2.2.389.389,0,0,0-.108.252q0,.216.324.216ZM44.8-12.4q-.18-.342-.09-.4a.1.1,0,0,1,.072-.018.44.44,0,0,1,.288.126,4.344,4.344,0,0,1,1.341,1.26,2.327,2.327,0,0,1,.423,1.224.978.978,0,0,1-.162.585.491.491,0,0,1-.414.225.639.639,0,0,1-.288-.072.5.5,0,0,1-.234-.414,6.057,6.057,0,0,0-.351-1.269A9.639,9.639,0,0,0,44.8-12.4ZM59.418,1.836a.492.492,0,0,1,.126-.234q.054-.072.891-1.008A9.265,9.265,0,0,0,62.01-2.43a13.135,13.135,0,0,0,.738-4.41,12.208,12.208,0,0,0-.63-4.1,11.177,11.177,0,0,0-1.2-2.574q-.567-.8-1.377-1.773a.492.492,0,0,1-.126-.234.111.111,0,0,1,.045-.09.155.155,0,0,1,.1-.036.322.322,0,0,1,.2.09,11.262,11.262,0,0,1,1.53,1.467,10.881,10.881,0,0,1,1.728,2.88,10.75,10.75,0,0,1,.828,4.365,10.75,10.75,0,0,1-.828,4.365A10.881,10.881,0,0,1,61.29.405a11.261,11.261,0,0,1-1.53,1.467.322.322,0,0,1-.2.09.212.212,0,0,1-.09-.027A.1.1,0,0,1,59.418,1.836Z" transform="translate(429.952 24.908)" fill="#f7f7f7"/>
      <path id="パス_32374" data-name="パス 32374" d="M-24.858-6.048q0-.324-.2-.324a.4.4,0,0,0-.27.144,16.02,16.02,0,0,1-1.926,1.674.615.615,0,0,1-.288.144q-.126,0-.126-.072,0-.108.216-.324a20.524,20.524,0,0,0,2.3-2.79,19.806,19.806,0,0,0,1.782-3.06.571.571,0,0,0,.036-.162.24.24,0,0,0-.09-.2.394.394,0,0,0-.252-.072H-24.5a15.047,15.047,0,0,0-2.124.2h-.108a.393.393,0,0,1-.36-.234l-.054-.126a.69.69,0,0,1-.054-.216q0-.216.342-.2.414.036,1.206.072h.432a.334.334,0,0,0,.378-.378q-.036-1.53-.162-2.7v-.036a.336.336,0,0,1,.081-.234.266.266,0,0,1,.207-.09l.162.036a6.713,6.713,0,0,1,.981.36q.279.144.279.252,0,.09-.162.18l-.072.036a.523.523,0,0,0-.252.468v1.728a.4.4,0,0,0,.09.279.3.3,0,0,0,.234.1h.018a.549.549,0,0,0,.468-.216l.144-.162q.072-.072.207-.225a.362.362,0,0,1,.243-.153q.126,0,.477.333a3.6,3.6,0,0,1,.549.639.448.448,0,0,1,.054.2.227.227,0,0,1-.054.153.261.261,0,0,1-.162.081l-.144.018a.818.818,0,0,0-.261.1.5.5,0,0,0-.171.207,19.291,19.291,0,0,1-1.4,2.25.482.482,0,0,0-.09.234q0,.18.234.288A3.763,3.763,0,0,1-22-6.921a1.541,1.541,0,0,1,.432.963.69.69,0,0,1-.135.441.426.426,0,0,1-.351.171,1.082,1.082,0,0,1-.18-.036.407.407,0,0,1-.2-.117.7.7,0,0,1-.126-.243A5.143,5.143,0,0,0-23.31-7a.34.34,0,0,0-.252-.162.183.183,0,0,0-.153.09.4.4,0,0,0-.063.234v3.492q.036,1.962.126,3.96V.7a.482.482,0,0,1-.162.378,1.36,1.36,0,0,1-.882.306.344.344,0,0,1-.243-.117.344.344,0,0,1-.117-.243q.072-1.062.126-2.061t.072-2.619Zm6.534-7.308a19.389,19.389,0,0,0-2.376.2h-.108a.37.37,0,0,1-.36-.234l-.072-.144a.479.479,0,0,1-.054-.216.2.2,0,0,1,.09-.171.362.362,0,0,1,.252-.045q.612.054,1.854.09h5.022a.517.517,0,0,0,.45-.234l.18-.27q.054-.072.153-.225a1.425,1.425,0,0,1,.171-.225.207.207,0,0,1,.144-.072,1.539,1.539,0,0,1,.612.387,4.275,4.275,0,0,1,.684.675.4.4,0,0,1,.09.216.224.224,0,0,1-.072.162.468.468,0,0,1-.342.108Zm3.762,1.62a.508.508,0,0,0,.45-.252l.072-.126q.054-.072.126-.18a1.1,1.1,0,0,1,.126-.162.173.173,0,0,1,.126-.054,1.1,1.1,0,0,1,.477.288,2.951,2.951,0,0,1,.531.54.31.31,0,0,1,.072.2.215.215,0,0,1-.09.189.711.711,0,0,1-.252.1.515.515,0,0,0-.2.378v.756l.036.864q0,.36.036.972v.09a.386.386,0,0,1-.18.36,1.454,1.454,0,0,1-.81.234.144.144,0,0,1-.135-.09.524.524,0,0,1-.045-.234.3.3,0,0,0-.1-.234.4.4,0,0,0-.279-.09H-18.81a.377.377,0,0,0-.279.1.377.377,0,0,0-.1.279v.072q0,.09-.261.216a1.462,1.462,0,0,1-.639.126.191.191,0,0,1-.171-.108.491.491,0,0,1-.063-.252q.054-.414.072-.846a3.88,3.88,0,0,1,.018-.414v-.828q0-.972-.09-2.016v-.072q0-.27.234-.27a.4.4,0,0,1,.18.036l.72.324a1.2,1.2,0,0,0,.468.108Zm-4.248.522a.377.377,0,0,0-.279.1.377.377,0,0,0-.1.279V-9.09a.377.377,0,0,0,.1.279.377.377,0,0,0,.279.1H-14.6a.377.377,0,0,0,.279-.1.377.377,0,0,0,.1-.279v-1.746a.377.377,0,0,0-.1-.279.377.377,0,0,0-.279-.1ZM-19.674.216a.377.377,0,0,0-.279.1.377.377,0,0,0-.1.279v.432q0,.09-.252.225a1.323,1.323,0,0,1-.63.135.273.273,0,0,1-.216-.108.382.382,0,0,1-.09-.252q.108-1.4.144-2.808v-1.6a27.861,27.861,0,0,0-.162-3.168v-.072q0-.27.234-.27a.4.4,0,0,1,.18.036l.792.342a1.076,1.076,0,0,0,.45.09h5.94a.517.517,0,0,0,.45-.234l.072-.108q.036-.054.144-.2a.29.29,0,0,1,.216-.144,1.229,1.229,0,0,1,.495.261,3.057,3.057,0,0,1,.567.5.244.244,0,0,1,.072.18.268.268,0,0,1-.144.234l-.126.054a.413.413,0,0,0-.324.414v2.088q.036,1.98.126,3.942V.63a.435.435,0,0,1-.2.4,1.548,1.548,0,0,1-.846.252.209.209,0,0,1-.18-.126.425.425,0,0,1-.054-.18.985.985,0,0,1,.036-.216l.036-.18q0-.36-.378-.36ZM-17.64-3.51a.377.377,0,0,0,.279-.1.377.377,0,0,0,.1-.279v-1.62a.377.377,0,0,0-.1-.279.377.377,0,0,0-.279-.1h-2.034a.377.377,0,0,0-.279.1.377.377,0,0,0-.1.279v1.62a.377.377,0,0,0,.1.279.377.377,0,0,0,.279.1Zm3.942,0a.377.377,0,0,0,.279-.1.377.377,0,0,0,.1-.279v-1.62a.377.377,0,0,0-.1-.279.377.377,0,0,0-.279-.1h-2.124a.377.377,0,0,0-.279.1.377.377,0,0,0-.1.279v1.62a.377.377,0,0,0,.1.279.377.377,0,0,0,.279.1Zm-3.564.918a.377.377,0,0,0-.1-.279.377.377,0,0,0-.279-.1h-2.034a.377.377,0,0,0-.279.1.377.377,0,0,0-.1.279V-.7a.377.377,0,0,0,.1.279.377.377,0,0,0,.279.1h2.034a.377.377,0,0,0,.279-.1.377.377,0,0,0,.1-.279Zm1.44-.378a.377.377,0,0,0-.279.1.377.377,0,0,0-.1.279V-.7a.377.377,0,0,0,.1.279.377.377,0,0,0,.279.1H-13.7a.377.377,0,0,0,.279-.1.377.377,0,0,0,.1-.279v-1.89a.377.377,0,0,0-.1-.279.377.377,0,0,0-.279-.1ZM-5.274-13.3a.377.377,0,0,0-.279.1.377.377,0,0,0-.1.279v9.558q.036,1.944.126,3.978V.7a.488.488,0,0,1-.144.36,1.23,1.23,0,0,1-.4.261,1.235,1.235,0,0,1-.486.1.408.408,0,0,1-.27-.108.324.324,0,0,1-.126-.252Q-6.876,0-6.822-1t.072-2.619v-7.218a27.68,27.68,0,0,0-.162-3.15v-.072q0-.288.216-.288a.448.448,0,0,1,.2.054l.738.342a1.2,1.2,0,0,0,.468.108H5.2a.534.534,0,0,0,.468-.234l.09-.126a2.045,2.045,0,0,0,.171-.216q.117-.162.225-.162a1.512,1.512,0,0,1,.558.306,3.766,3.766,0,0,1,.666.576.389.389,0,0,1,.09.2q0,.126-.18.252a.454.454,0,0,1-.108.054.7.7,0,0,0-.09.036.413.413,0,0,0-.324.414V-.288A1.785,1.785,0,0,1,6.453.846a2.053,2.053,0,0,1-1.323.54L5.022,1.4Q4.77,1.4,4.68,1.1a.878.878,0,0,0-.4-.45A4.056,4.056,0,0,0,2.79.216Q2.43.162,2.43.036q0-.108.288-.108.45,0,1.53.072.594.054.9.054a.6.6,0,0,0,.4-.108.472.472,0,0,0,.117-.36v-12.51a.377.377,0,0,0-.1-.279.377.377,0,0,0-.279-.1ZM2.79-9.144a.517.517,0,0,0,.45-.234l.18-.252q.072-.09.171-.225a1.841,1.841,0,0,1,.171-.207.207.207,0,0,1,.144-.072,1.509,1.509,0,0,1,.6.369,3.935,3.935,0,0,1,.675.657.4.4,0,0,1,.09.216.257.257,0,0,1-.108.2.6.6,0,0,1-.324.09H.792a.377.377,0,0,0-.279.1.377.377,0,0,0-.1.279v4.842a.377.377,0,0,0,.1.279.377.377,0,0,0,.279.1h1.53a.377.377,0,0,0,.279-.1.377.377,0,0,0,.1-.279V-3.51a28.227,28.227,0,0,0-.162-3.2v-.072q0-.288.252-.288a1.082,1.082,0,0,1,.18.036q1.152.36,1.152.558,0,.072-.144.162H3.96a.5.5,0,0,0-.252.468v.972Q3.762-2.916,3.816-2v.09a.482.482,0,0,1-.162.378,1.318,1.318,0,0,1-.774.27.22.22,0,0,1-.2-.126.448.448,0,0,1-.054-.2,1.517,1.517,0,0,1,.036-.252L2.7-2.07v-.036a.377.377,0,0,0-.1-.279.377.377,0,0,0-.279-.1H-2.43a.377.377,0,0,0-.279.1.377.377,0,0,0-.1.279v.018q.018.18.018.414l.018.162a.4.4,0,0,1-.126.288,1.067,1.067,0,0,1-.342.2,1.152,1.152,0,0,1-.4.072.265.265,0,0,1-.225-.108.408.408,0,0,1-.081-.252q.072-.666.108-1.692V-4.032A24.685,24.685,0,0,0-3.96-6.714v-.072q0-.288.252-.288a1.082,1.082,0,0,1,.18.036q1.116.36,1.116.558,0,.072-.126.162h-.018a.5.5,0,0,0-.252.468v2.466a.377.377,0,0,0,.1.279.377.377,0,0,0,.279.1h1.4a.377.377,0,0,0,.279-.1.377.377,0,0,0,.1-.279V-8.226a.377.377,0,0,0-.1-.279.377.377,0,0,0-.279-.1H-2.088a19.389,19.389,0,0,0-2.376.2h-.108a.37.37,0,0,1-.36-.252L-5-8.82a.448.448,0,0,1-.054-.2q0-.252.36-.216.612.054,1.872.09h3.2A.439.439,0,0,0,.81-9.432l.036-.09A15.9,15.9,0,0,0,1.413-11.1a15.955,15.955,0,0,0,.405-1.593q.054-.288.306-.288a.546.546,0,0,1,.162.018q1.368.468,1.368.666,0,.054-.162.126l-.072.036a.79.79,0,0,0-.378.324,18.667,18.667,0,0,1-1.53,2.2A.389.389,0,0,0,1.4-9.36q0,.216.324.216ZM-3.078-12.4q-.18-.342-.09-.4a.1.1,0,0,1,.072-.018.44.44,0,0,1,.288.126,4.344,4.344,0,0,1,1.341,1.26,2.327,2.327,0,0,1,.423,1.224.978.978,0,0,1-.162.585A.491.491,0,0,1-1.62-9.4a.639.639,0,0,1-.288-.072.5.5,0,0,1-.234-.414,6.057,6.057,0,0,0-.351-1.269A9.639,9.639,0,0,0-3.078-12.4ZM23.616-9.234a.523.523,0,0,0,.468-.252l.09-.162q.054-.072.126-.189a.968.968,0,0,1,.126-.171.173.173,0,0,1,.126-.054,1.554,1.554,0,0,1,.576.351,4.283,4.283,0,0,1,.684.639.31.31,0,0,1,.072.2.3.3,0,0,1-.144.234.425.425,0,0,1-.2.09.442.442,0,0,0-.324.432V-2.34a1.747,1.747,0,0,1-.3,1.1,1.925,1.925,0,0,1-1.233.522H23.6a.362.362,0,0,1-.36-.306,1.094,1.094,0,0,0-.306-.468,2.763,2.763,0,0,0-1.224-.414q-.36-.054-.36-.2,0-.108.4-.108,1.674.108,1.89.108a.569.569,0,0,0,.351-.081.342.342,0,0,0,.1-.279v-5.85a.377.377,0,0,0-.1-.279.377.377,0,0,0-.279-.1H20.394a.377.377,0,0,0-.279.1.377.377,0,0,0-.1.279v4.752q.036,1.944.126,3.978V.522A.467.467,0,0,1,20,.864a1.643,1.643,0,0,1-.45.279,1.241,1.241,0,0,1-.486.117.454.454,0,0,1-.306-.108A.324.324,0,0,1,18.63.9q.072-1.062.126-2.061t.072-2.619V-8.316a.377.377,0,0,0-.1-.279.377.377,0,0,0-.279-.1H15.192a.377.377,0,0,0-.279.1.377.377,0,0,0-.1.279v2.988q.036,1.962.126,3.96v.09a.4.4,0,0,1-.162.36,1.483,1.483,0,0,1-.9.306.317.317,0,0,1-.243-.108.361.361,0,0,1-.1-.252q.108-1.674.144-3.366V-6.21a28.165,28.165,0,0,0-.162-3.168V-9.45q0-.27.234-.27a.4.4,0,0,1,.18.036l.756.342a1.2,1.2,0,0,0,.468.108H18.45a.377.377,0,0,0,.279-.1.377.377,0,0,0,.1-.279V-11.52a.377.377,0,0,0-.1-.279.377.377,0,0,0-.279-.1H14.6a19.389,19.389,0,0,0-2.376.2h-.108a.37.37,0,0,1-.36-.234l-.09-.162a.448.448,0,0,1-.054-.2q0-.27.36-.234.612.054,1.854.09H18.45a.334.334,0,0,0,.378-.378q-.036-1.1-.108-1.926v-.036q0-.324.27-.324l.162.036q1.3.4,1.3.63,0,.09-.144.18l-.054.036a.517.517,0,0,0-.234.45v.954a.377.377,0,0,0,.1.279.377.377,0,0,0,.279.1h4.14a.517.517,0,0,0,.45-.234L25.218-13l.18-.243a2.328,2.328,0,0,1,.207-.252.227.227,0,0,1,.153-.081,1.892,1.892,0,0,1,.684.432,5.534,5.534,0,0,1,.792.738.4.4,0,0,1,.09.216.257.257,0,0,1-.108.2.632.632,0,0,1-.342.09H20.52a.727.727,0,0,0-.369.072q-.117.072.027.144.252.18.252.306,0,.108-.162.216l-.018.018a.547.547,0,0,0-.234.45v1.08a.377.377,0,0,0,.1.279.377.377,0,0,0,.279.1Z" transform="translate(279.952 24.908)" fill="#f7f7f7"/>
      <path id="パス_32373" data-name="パス 32373" d="M-12.616,0q-.133,0-.133-.266,0-.285.133-.285h.3a3.372,3.372,0,0,0,1.5-.285.939.939,0,0,0,.57-.893v-9.1a1.885,1.885,0,0,0-.1-.769.64.64,0,0,0-.494-.266,10.319,10.319,0,0,0-1.454-.067h-.323q-.133,0-.133-.285,0-.266.133-.266a6.237,6.237,0,0,0,1.852-.257A4.988,4.988,0,0,0-9.2-13.566a.46.46,0,0,1,.247-.114q.228,0,.228.342V-1.729q0,1.178,2.071,1.178h.285a.1.1,0,0,1,.1.067.6.6,0,0,1,.028.218q0,.266-.133.266ZM3.534-8.3q0-.342-.209-.342-.133,0-.266.19A19.044,19.044,0,0,1,1.5-6.479q-.209.209-.3.209-.114,0-.114-.133A.662.662,0,0,1,1.2-6.726a27.522,27.522,0,0,0,2.641-5.3,16.088,16.088,0,0,0,.579-1.786,15.7,15.7,0,0,0,.389-1.824q.057-.323.323-.323a1.143,1.143,0,0,1,.19.038q1.463.494,1.463.722,0,.076-.171.133l-.057.019a.525.525,0,0,0-.38.38,33.086,33.086,0,0,1-1.482,3.439A.506.506,0,0,0,4.636-11a.476.476,0,0,0,.19.342q.323.3.323.456,0,.1-.171.19a.493.493,0,0,0-.266.456v6.042q.038,2.071.133,4.18V.76a.408.408,0,0,1-.19.38,1.489,1.489,0,0,1-.893.323.454.454,0,0,1-.3-.114.342.342,0,0,1-.133-.266Q3.4-.038,3.458-1.092t.076-2.764Zm11.229-3.439a.546.546,0,0,0,.475-.247l.228-.323q.057-.076.171-.237a1.945,1.945,0,0,1,.2-.247A.24.24,0,0,1,16-12.882a1.861,1.861,0,0,1,.655.427,4.852,4.852,0,0,1,.77.751.418.418,0,0,1,.095.228.272.272,0,0,1-.114.209.575.575,0,0,1-.342.1H9.291a20.466,20.466,0,0,0-2.508.209H6.669a.39.39,0,0,1-.38-.247l-.095-.171a.473.473,0,0,1-.057-.209q0-.285.38-.247.646.057,1.957.1H10.45a.453.453,0,0,0,.295-.086.27.27,0,0,0,.1-.219,30.309,30.309,0,0,0-.171-3.4v-.076q0-.3.266-.3a1.142,1.142,0,0,1,.19.038q1.425.418,1.425.646,0,.095-.171.19l-.076.038a.552.552,0,0,0-.266.494v2.28a.4.4,0,0,0,.1.295.4.4,0,0,0,.294.1Zm.342,11.8A.546.546,0,0,0,15.58-.19l.228-.342Q15.9-.646,16-.779a2.6,2.6,0,0,1,.19-.237.256.256,0,0,1,.171-.1q.152,0,.684.447a5.254,5.254,0,0,1,.779.77A.411.411,0,0,1,17.917.3a.291.291,0,0,1-.095.209.632.632,0,0,1-.342.1h-8.7A20.466,20.466,0,0,0,6.27.817H6.156a.39.39,0,0,1-.38-.266L5.7.418A.473.473,0,0,1,5.643.209q0-.285.38-.247Q6.669.019,8,.057h3.667A.4.4,0,0,0,12.1-.285q.8-2.926,1.406-6.137a25.629,25.629,0,0,0,.4-3.344q0-.342.323-.342a.494.494,0,0,1,.152.019Q16-9.728,16-9.5q0,.076-.171.171l-.057.038a.692.692,0,0,0-.342.418q-.475,1.919-1.235,4.218T12.6-.4a.448.448,0,0,0-.057.19q0,.266.361.266ZM7.752-9.4a2.277,2.277,0,0,1-.076-.3.136.136,0,0,1,.076-.133H7.79q.133,0,.3.247A14.669,14.669,0,0,1,9.785-6.232a9.139,9.139,0,0,1,.532,2.85,3.62,3.62,0,0,1-.237,1.434q-.238.542-.561.541a.464.464,0,0,1-.3-.133.547.547,0,0,1-.171-.4A33.944,33.944,0,0,0,8.693-5.8,15.646,15.646,0,0,0,7.752-9.4Z" transform="translate(110.952 25.908)" fill="#f7f7f7"/>
    </g>
    <g id="グループ_86" data-name="グループ 86" transform="translate(1.048 0)">
      <rect id="長方形_40004" data-name="長方形 40004" width="625" height="39" transform="translate(-0.048 0.139)" fill="#4f8ea7"/>
      <path id="パス_32372" data-name="パス 32372" d="M17.689,2.071a.34.34,0,0,1-.209-.095A11.887,11.887,0,0,1,15.865.428a11.486,11.486,0,0,1-1.824-3.04,11.347,11.347,0,0,1-.874-4.607,11.347,11.347,0,0,1,.874-4.608,11.486,11.486,0,0,1,1.824-3.04,11.887,11.887,0,0,1,1.615-1.549.34.34,0,0,1,.209-.095.164.164,0,0,1,.1.038.117.117,0,0,1,.047.095.519.519,0,0,1-.133.247q-.057.076-.941,1.064a9.779,9.779,0,0,0-1.662,3.192,13.865,13.865,0,0,0-.779,4.655A12.886,12.886,0,0,0,14.991-2.9,11.8,11.8,0,0,0,16.254-.181q.6.846,1.454,1.871a.519.519,0,0,1,.133.247.106.106,0,0,1-.057.1A.224.224,0,0,1,17.689,2.071Zm8.474-9.519A.367.367,0,0,0,25.9-7.6q-.228,0-.228.342v3.743q.038,2.071.133,4.18V.76a.455.455,0,0,1-.19.4,1.513,1.513,0,0,1-.912.323.431.431,0,0,1-.285-.114.342.342,0,0,1-.133-.266q.076-1.121.133-2.176t.076-2.765v-2.6a.422.422,0,0,0-.067-.247.194.194,0,0,0-.161-.1A.383.383,0,0,0,24-6.65a19.612,19.612,0,0,1-2.242,1.843q-.266.228-.38.114a.077.077,0,0,1-.019-.057q0-.095.228-.323A21.522,21.522,0,0,0,24.168-7.99a20.53,20.53,0,0,0,2.014-3.24.473.473,0,0,0,.057-.209q0-.266-.361-.266h-.969a18.556,18.556,0,0,0-2.432.209h-.1a.443.443,0,0,1-.418-.247l-.076-.133a.506.506,0,0,1-.057-.228q0-.247.38-.209.437.038,1.349.076h.513a.353.353,0,0,0,.4-.4q-.038-1.615-.171-2.85v-.038a.355.355,0,0,1,.086-.247.281.281,0,0,1,.218-.1l.171.038q1.311.418,1.311.646,0,.1-.152.19l-.057.038a.546.546,0,0,0-.247.475v1.843a.4.4,0,0,0,.1.295.4.4,0,0,0,.295.1h.133a.615.615,0,0,0,.475-.209l.171-.19q.057-.057.219-.228a.436.436,0,0,1,.276-.171q.133,0,.484.351a5.257,5.257,0,0,1,.58.675.448.448,0,0,1,.057.19.259.259,0,0,1-.228.266l-.152.038a.661.661,0,0,0-.475.3,14.058,14.058,0,0,1-1.577,2.375.394.394,0,0,0-.114.247q0,.171.266.285a4.146,4.146,0,0,1,1.482.979A1.61,1.61,0,0,1,28.1-6.289a.689.689,0,0,1-.142.456.46.46,0,0,1-.37.171A1.142,1.142,0,0,1,27.4-5.7a.514.514,0,0,1-.323-.342A5.919,5.919,0,0,0,26.163-7.448ZM36.081-12.5a.546.546,0,0,0,.475-.247l.1-.114q.057-.057.181-.209a.331.331,0,0,1,.237-.152,1.333,1.333,0,0,1,.532.285,3.52,3.52,0,0,1,.627.551.327.327,0,0,1,.076.209.312.312,0,0,1-.171.247.292.292,0,0,1-.114.038.467.467,0,0,0-.342.456v3.249q.038,2.071.133,4.18v.095a.408.408,0,0,1-.19.38,3.09,3.09,0,0,1-.456.238,1.179,1.179,0,0,1-.456.1.22.22,0,0,1-.19-.133A.311.311,0,0,1,36.48-3.5a1.6,1.6,0,0,1,.038-.285l.038-.228v-.019a.4.4,0,0,0-.1-.295.4.4,0,0,0-.294-.1H34.124a.4.4,0,0,0-.295.1.4.4,0,0,0-.1.295v1.406q.057,2.166.114,3.211V.7a.493.493,0,0,1-.152.361,1.32,1.32,0,0,1-.418.266,1.262,1.262,0,0,1-.494.114.387.387,0,0,1-.285-.114.365.365,0,0,1-.114-.266Q32.49-.7,32.528-2.47V-4.028a.4.4,0,0,0-.1-.295.4.4,0,0,0-.294-.1H30.21a.422.422,0,0,0-.294.1.341.341,0,0,0-.1.266,2.778,2.778,0,0,1,.019.342l.019.19a.44.44,0,0,1-.133.323,1.522,1.522,0,0,1-.38.2,1.291,1.291,0,0,1-.456.086.306.306,0,0,1-.237-.124.394.394,0,0,1-.1-.257q.133-1.767.171-3.876V-9.31a29.218,29.218,0,0,0-.171-3.325v-.076a.345.345,0,0,1,.066-.218.2.2,0,0,1,.161-.086.473.473,0,0,1,.209.057l.7.342a1.017,1.017,0,0,0,.494.114h1.957a.353.353,0,0,0,.4-.4q-.038-1.577-.133-2.546v-.076q0-.3.266-.3a1.142,1.142,0,0,1,.19.038q1.33.418,1.33.665,0,.1-.152.19l-.057.038a.546.546,0,0,0-.247.475v1.52a.4.4,0,0,0,.1.294.4.4,0,0,0,.295.1ZM32.129-8.8a.4.4,0,0,0,.294-.1.4.4,0,0,0,.1-.295v-2.356a.4.4,0,0,0-.1-.294.4.4,0,0,0-.294-.1H30.21a.4.4,0,0,0-.294.1.4.4,0,0,0-.1.294V-9.2a.4.4,0,0,0,.1.295.4.4,0,0,0,.294.1Zm4.028,0a.4.4,0,0,0,.294-.1.4.4,0,0,0,.1-.295v-2.356a.4.4,0,0,0-.1-.294.4.4,0,0,0-.294-.1H34.124a.4.4,0,0,0-.295.1.4.4,0,0,0-.1.294V-9.2a.4.4,0,0,0,.1.295.4.4,0,0,0,.295.1Zm-5.947.551a.4.4,0,0,0-.294.1.4.4,0,0,0-.1.294v2.47a.4.4,0,0,0,.1.294.4.4,0,0,0,.294.1h1.919a.4.4,0,0,0,.294-.1.4.4,0,0,0,.1-.294v-2.47a.4.4,0,0,0-.1-.294.4.4,0,0,0-.294-.1Zm3.914,0a.4.4,0,0,0-.295.1.4.4,0,0,0-.1.294v2.47a.4.4,0,0,0,.1.294.4.4,0,0,0,.295.1h2.033a.4.4,0,0,0,.294-.1.4.4,0,0,0,.1-.294v-2.47a.4.4,0,0,0-.1-.294.4.4,0,0,0-.294-.1ZM55.86-12.958a.546.546,0,0,0,.475-.247l.247-.342.19-.256a2.457,2.457,0,0,1,.218-.266.24.24,0,0,1,.161-.085q.152,0,.7.465a5.507,5.507,0,0,1,.8.788.411.411,0,0,1,.1.209.291.291,0,0,1-.1.209.667.667,0,0,1-.361.095H53.143q-.361,0-.361.247a.508.508,0,0,0,.1.247A9.906,9.906,0,0,0,55.4-9.519a14.18,14.18,0,0,0,3.344,1.653q.342.114.342.19a.091.091,0,0,1-.057.085q-.057.029-.124.057t-.142.066a1.241,1.241,0,0,0-.57.57q-.152.266-.342.266a.341.341,0,0,1-.171-.057,12.528,12.528,0,0,1-3.22-2.261,10.548,10.548,0,0,1-2.251-3.135.464.464,0,0,0-.456-.3h-2.2a.509.509,0,0,0-.475.266,14.941,14.941,0,0,1-6.593,5.966q-.361.152-.418.038v-.038q0-.114.266-.285a15.555,15.555,0,0,0,5.244-5.472.473.473,0,0,0,.057-.209.234.234,0,0,0-.095-.19.383.383,0,0,0-.247-.076h-1.71a20.466,20.466,0,0,0-2.508.209h-.114a.39.39,0,0,1-.38-.247l-.1-.171a.506.506,0,0,1-.057-.228.209.209,0,0,1,.095-.181.382.382,0,0,1,.266-.047q.646.057,1.957.1h3.078a.464.464,0,0,0,.456-.3,10.868,10.868,0,0,0,.836-2.489q.038-.3.3-.3a1.142,1.142,0,0,1,.19.038q1.444.494,1.444.684,0,.095-.19.152l-.076.038a.634.634,0,0,0-.4.361q-.323.8-.608,1.349a.473.473,0,0,0-.057.209q0,.266.361.266ZM49.153-8.17a9.3,9.3,0,0,0-1.71.19.326.326,0,0,1-.133.019.379.379,0,0,1-.361-.266l-.076-.133a.473.473,0,0,1-.057-.209q0-.285.38-.247.646.057,1.957.1h2.489a.546.546,0,0,0,.475-.247l.19-.247.161-.218a1.944,1.944,0,0,1,.181-.219.219.219,0,0,1,.152-.076,1.588,1.588,0,0,1,.6.371,3.934,3.934,0,0,1,.694.675.327.327,0,0,1,.076.209.258.258,0,0,1-.076.19.567.567,0,0,1-.38.114ZM54.4-5.928a.546.546,0,0,0,.475-.247l.209-.3.181-.238a2.524,2.524,0,0,1,.2-.237.219.219,0,0,1,.152-.076,1.667,1.667,0,0,1,.656.418A4.629,4.629,0,0,1,57-5.89a.291.291,0,0,1,.1.209.259.259,0,0,1-.114.19.632.632,0,0,1-.342.095H51.528a.4.4,0,0,0-.294.1.4.4,0,0,0-.1.294V-.4A2.056,2.056,0,0,1,50.816.817a1.817,1.817,0,0,1-1.226.589l-.114.019q-.266,0-.361-.342a.9.9,0,0,0-.3-.532A2.885,2.885,0,0,0,47.6.133q-.38-.057-.38-.209,0-.114.418-.114l1.017.076q.522.038.864.038a.44.44,0,0,0,.3-.076.371.371,0,0,0,.076-.266V-5a.4.4,0,0,0-.1-.294.4.4,0,0,0-.294-.1H47.139a20.466,20.466,0,0,0-2.508.209h-.114a.39.39,0,0,1-.38-.247l-.076-.133A.506.506,0,0,1,44-5.8a.209.209,0,0,1,.095-.181.382.382,0,0,1,.266-.048q.646.057,1.957.1ZM46.436-4.123q.114-.266.3-.266a.354.354,0,0,1,.228.076l.418.266a4.6,4.6,0,0,0,.437.228q.456.247.456.361,0,.095-.209.133h-.057a.608.608,0,0,0-.456.266,12.832,12.832,0,0,1-1.805,1.824A14.371,14.371,0,0,1,43.472.342q-.323.171-.418.038a.077.077,0,0,1-.019-.057q0-.114.228-.323a9.962,9.962,0,0,0,1.349-1.292,10.461,10.461,0,0,0,1.045-1.377A9.446,9.446,0,0,0,46.436-4.123Zm6.441.475q-.342-.247-.247-.342a.185.185,0,0,1,.133-.038.911.911,0,0,1,.266.057,9.341,9.341,0,0,1,2.413,1.112A4.96,4.96,0,0,1,56.791-1.6a2.11,2.11,0,0,1,.418,1.14.766.766,0,0,1-.161.513.513.513,0,0,1-.409.19.667.667,0,0,1-.19-.019.56.56,0,0,1-.361-.323,7.152,7.152,0,0,0-1.3-1.815A16.383,16.383,0,0,0,52.877-3.648Zm23.541-7.6a30.963,30.963,0,0,0-.171-3.4v-.076a.317.317,0,0,1,.076-.219.265.265,0,0,1,.209-.086.6.6,0,0,1,.171.038q1.387.418,1.387.665,0,.1-.152.19l-.057.038a.546.546,0,0,0-.247.475V-3.591q.038,2.071.133,4.18V.684a.54.54,0,0,1-.152.4,1.469,1.469,0,0,1-.95.38.479.479,0,0,1-.323-.114.342.342,0,0,1-.133-.266q.076-1.121.133-2.175t.076-2.764Zm-11.134-.475a27.021,27.021,0,0,0-.133-2.888v-.076q0-.3.266-.3a1.142,1.142,0,0,1,.19.038q1.311.4,1.311.646,0,.095-.152.19l-.057.038a.536.536,0,0,0-.266.475v5.168a20.594,20.594,0,0,1-.722,5.548,8.749,8.749,0,0,1-2.527,4.123q-.285.266-.418.133a.129.129,0,0,1-.038-.095.594.594,0,0,1,.133-.3,9.877,9.877,0,0,0,1.9-4.085,24.937,24.937,0,0,0,.513-5.32Zm5.377,1.2a30.963,30.963,0,0,0-.171-3.4V-14a.317.317,0,0,1,.076-.218.265.265,0,0,1,.209-.086.6.6,0,0,1,.171.038,10.5,10.5,0,0,1,1.064.39q.3.143.3.275,0,.095-.171.19l-.057.038a.536.536,0,0,0-.266.475v7.448q.038,2.071.133,4.18v.1a.508.508,0,0,1-.171.4,1.513,1.513,0,0,1-.912.323A.365.365,0,0,1,70.6-.57a.365.365,0,0,1-.114-.266q.133-1.919.171-4.237ZM83.239,1.938a.519.519,0,0,1,.133-.247q.057-.076.94-1.064a9.779,9.779,0,0,0,1.662-3.192,13.865,13.865,0,0,0,.779-4.655,12.886,12.886,0,0,0-.665-4.323,11.8,11.8,0,0,0-1.264-2.717q-.6-.845-1.453-1.872a.519.519,0,0,1-.133-.247.117.117,0,0,1,.048-.095.164.164,0,0,1,.1-.038.34.34,0,0,1,.209.095,11.887,11.887,0,0,1,1.615,1.549,11.486,11.486,0,0,1,1.824,3.04,11.347,11.347,0,0,1,.874,4.608,11.347,11.347,0,0,1-.874,4.607A11.486,11.486,0,0,1,85.215.428,11.887,11.887,0,0,1,83.6,1.976a.34.34,0,0,1-.209.095.224.224,0,0,1-.095-.028A.106.106,0,0,1,83.239,1.938Z" transform="translate(429.952 26.139)" fill="#f7f7f7"/>
      <path id="パス_32371" data-name="パス 32371" d="M-14.076-12.978a.517.517,0,0,0,.45-.234l.18-.27q.054-.072.153-.225a1.425,1.425,0,0,1,.171-.225A.207.207,0,0,1-12.978-14q.144,0,.594.387a4.575,4.575,0,0,1,.666.675.31.31,0,0,1,.072.2.273.273,0,0,1-.108.216.5.5,0,0,1-.306.072h-2.394a.377.377,0,0,0-.279.1.377.377,0,0,0-.1.279V-10.8a.377.377,0,0,0,.1.279.377.377,0,0,0,.279.1h.63a.517.517,0,0,0,.45-.234l.18-.252q.054-.072.153-.216a1.588,1.588,0,0,1,.171-.216.207.207,0,0,1,.144-.072q.144,0,.585.378a4.462,4.462,0,0,1,.657.666.268.268,0,0,1,.072.2.275.275,0,0,1-.09.2.544.544,0,0,1-.324.09h-4.3a.377.377,0,0,0-.279.1.377.377,0,0,0-.1.279v.72a.377.377,0,0,0,.1.279.377.377,0,0,0,.279.1h2a.517.517,0,0,0,.45-.234l.072-.108a2.067,2.067,0,0,0,.162-.2.29.29,0,0,1,.216-.144,1.164,1.164,0,0,1,.477.243,2.819,2.819,0,0,1,.549.477.31.31,0,0,1,.072.2.266.266,0,0,1-.162.234A.276.276,0,0,1-12.4-7.9a.442.442,0,0,0-.324.432v1.53q.054,2.268.108,3.348v.09a.386.386,0,0,1-.18.36,1.328,1.328,0,0,1-.81.252q-.18,0-.18-.342a.323.323,0,0,0-.1-.252.4.4,0,0,0-.279-.09h-5.6a.377.377,0,0,0-.279.1.377.377,0,0,0-.1.279v.216q0,.09-.252.225a1.281,1.281,0,0,1-.612.135.234.234,0,0,1-.189-.108.408.408,0,0,1-.081-.252q.072-.828.108-2.124v-1.26a28.165,28.165,0,0,0-.162-3.168V-8.6q0-.27.234-.27a.4.4,0,0,1,.18.036l.756.342a1.123,1.123,0,0,0,.468.09h1.764a.377.377,0,0,0,.279-.1.377.377,0,0,0,.1-.279V-9.5a.377.377,0,0,0-.1-.279.377.377,0,0,0-.279-.1H-21.69q-.342,0-.4-.216t-.4-.216h-.972a.377.377,0,0,0-.279.1.377.377,0,0,0-.1.279v.9a.5.5,0,0,0,.27.45A4.615,4.615,0,0,1-22.14-7.425a1.907,1.907,0,0,1,.45,1.107.726.726,0,0,1-.144.468.443.443,0,0,1-.36.18.992.992,0,0,1-.2-.036.621.621,0,0,1-.306-.4,8.414,8.414,0,0,0-.666-1.422.279.279,0,0,0-.252-.2q-.216,0-.216.324v4.014q.036,1.944.126,3.978V.7a.467.467,0,0,1-.144.342,1.281,1.281,0,0,1-.4.234,1.252,1.252,0,0,1-.45.09A.454.454,0,0,1-25,1.26a.324.324,0,0,1-.126-.252q.072-1.062.126-2.061t.072-2.619v-2.2q0-.324-.18-.324-.126,0-.234.234A14.122,14.122,0,0,1-27.18-3.024a.731.731,0,0,1-.225.189.127.127,0,0,1-.153-.009.147.147,0,0,1-.036-.108.633.633,0,0,1,.09-.306A19.772,19.772,0,0,0-25.218-9.9l.018-.108a.275.275,0,0,0-.1-.225.4.4,0,0,0-.261-.081h-.27a3.636,3.636,0,0,0-.81.144.468.468,0,0,1-.144.018.393.393,0,0,1-.36-.234l-.054-.126a.448.448,0,0,1-.054-.2q0-.252.36-.216.4.036,1.152.072h.432a.377.377,0,0,0,.279-.1.377.377,0,0,0,.1-.279v-.234a29.021,29.021,0,0,0-.162-3.222v-.072a.3.3,0,0,1,.072-.207.251.251,0,0,1,.2-.081.571.571,0,0,1,.162.036,7.448,7.448,0,0,1,1.017.378q.279.144.279.27,0,.09-.162.18l-.054.036a.508.508,0,0,0-.252.45v2.466a.692.692,0,0,0,.045.279q.045.1.117.1a.44.44,0,0,0,.342-.234l.342-.468a.317.317,0,0,1,.27-.162.408.408,0,0,1,.27.108q.36.306.846.792.2.2.2.288,0,.036-.072.108h1.782a.377.377,0,0,0,.279-.1.377.377,0,0,0,.1-.279v-1.278a.377.377,0,0,0-.1-.279.377.377,0,0,0-.279-.1h-.45a4.55,4.55,0,0,0-1.062.162.468.468,0,0,1-.144.018.358.358,0,0,1-.342-.234l-.054-.126a.448.448,0,0,1-.054-.2q0-.252.342-.216.432.036,1.3.072h.468a.334.334,0,0,0,.378-.378q-.036-.9-.072-1.3v-.036q0-.306.27-.306a1.082,1.082,0,0,1,.18.036q1.08.378,1.08.576,0,.072-.144.162l-.018.018a.536.536,0,0,0-.252.45v.4a.377.377,0,0,0,.1.279.377.377,0,0,0,.279.1h1.638a.334.334,0,0,0,.378-.378q-.036-.9-.072-1.278v-.036q0-.324.27-.324a1.082,1.082,0,0,1,.18.036q1.044.378,1.044.576,0,.072-.126.162l-.018.018a.547.547,0,0,0-.234.45v.4a.377.377,0,0,0,.1.279.377.377,0,0,0,.279.1Zm-1.8.9a.377.377,0,0,0-.1-.279.377.377,0,0,0-.279-.1h-1.638a.377.377,0,0,0-.279.1.377.377,0,0,0-.1.279V-10.8a.377.377,0,0,0,.1.279.377.377,0,0,0,.279.1h1.638a.377.377,0,0,0,.279-.1.377.377,0,0,0,.1-.279Zm-2.052,6.192a.377.377,0,0,0,.279-.1.377.377,0,0,0,.1-.279V-7.506a.377.377,0,0,0-.1-.279.377.377,0,0,0-.279-.1h-1.836a.377.377,0,0,0-.279.1.377.377,0,0,0-.1.279v1.242a.377.377,0,0,0,.1.279.377.377,0,0,0,.279.1Zm3.762,0a.377.377,0,0,0,.279-.1.377.377,0,0,0,.1-.279V-7.506a.377.377,0,0,0-.1-.279.377.377,0,0,0-.279-.1h-1.962a.377.377,0,0,0-.279.1.377.377,0,0,0-.1.279v1.242a.377.377,0,0,0,.1.279.377.377,0,0,0,.279.1Zm-3.384.918a.377.377,0,0,0-.1-.279.377.377,0,0,0-.279-.1h-1.836a.377.377,0,0,0-.279.1.377.377,0,0,0-.1.279v1.476a.377.377,0,0,0,.1.279.377.377,0,0,0,.279.1h1.836a.377.377,0,0,0,.279-.1.377.377,0,0,0,.1-.279Zm1.422-.378a.377.377,0,0,0-.279.1.377.377,0,0,0-.1.279v1.476a.377.377,0,0,0,.1.279.377.377,0,0,0,.279.1h1.962a.377.377,0,0,0,.279-.1.377.377,0,0,0,.1-.279V-4.968a.377.377,0,0,0-.1-.279.377.377,0,0,0-.279-.1Zm-3.1,3.582a.325.325,0,0,1,.288-.18.411.411,0,0,1,.234.09l.414.288a3.629,3.629,0,0,0,.4.252q.432.2.432.324,0,.09-.27.126l-.144.018a.893.893,0,0,0-.45.18A12.872,12.872,0,0,1-20.232.441a14.833,14.833,0,0,1-2.3.891l-.234.036q-.144,0-.162-.09V1.242q0-.126.27-.27.414-.2,1.062-.594a8.731,8.731,0,0,0,1.323-.99A7.337,7.337,0,0,0-19.224-1.764Zm3.348.486q-.27-.162-.27-.252,0-.144.4-.09a8.971,8.971,0,0,1,2.232.711A3.943,3.943,0,0,1-12.24.009a1.425,1.425,0,0,1,.4.873.5.5,0,0,1-.135.369.5.5,0,0,1-.369.135h-.036a.4.4,0,0,1-.2-.063.641.641,0,0,1-.18-.153A7.6,7.6,0,0,0-14.112-.1,15.842,15.842,0,0,0-15.876-1.278ZM4.968-9.648a.517.517,0,0,0,.45-.234l.216-.288q.054-.072.162-.225a1.842,1.842,0,0,1,.189-.234.227.227,0,0,1,.153-.081,1.668,1.668,0,0,1,.6.4,3.924,3.924,0,0,1,.693.7.389.389,0,0,1,.09.2.275.275,0,0,1-.09.2.632.632,0,0,1-.342.09H5.022a.377.377,0,0,0-.279.1.377.377,0,0,0-.1.279v4.1a.377.377,0,0,0,.1.279.377.377,0,0,0,.279.1h.54a.508.508,0,0,0,.45-.252l.2-.288q.072-.09.171-.243a1.425,1.425,0,0,1,.171-.225A.207.207,0,0,1,6.7-5.346q.126,0,.594.4a4.256,4.256,0,0,1,.684.711.4.4,0,0,1,.09.216.257.257,0,0,1-.108.2.648.648,0,0,1-.324.072H-1.53a19.389,19.389,0,0,0-2.376.2h-.108a.37.37,0,0,1-.36-.234l-.072-.144a.448.448,0,0,1-.054-.2.2.2,0,0,1,.09-.171.4.4,0,0,1,.27-.045q.432.036,1.3.072h.5a.377.377,0,0,0,.279-.1.377.377,0,0,0,.1-.279V-9.738a28.043,28.043,0,0,0-.162-3.186V-13q0-.288.234-.288l.162.036,1.008.36a.771.771,0,0,0,.27.054,1.58,1.58,0,0,0,.234-.036q.468-.144,1.926-.684a12.625,12.625,0,0,0,2.754-1.44.5.5,0,0,1,.252-.09.533.533,0,0,1,.306.144q.99.972.99,1.17,0,.126-.27.09l-.2-.018H5.436a1.538,1.538,0,0,0-.36.054q-1.152.378-2.646.729t-2.952.567a.372.372,0,0,0-.342.414v1.908a.377.377,0,0,0,.1.279.377.377,0,0,0,.279.1ZM-6.354-14.526q-.306-.27-.234-.342a.208.208,0,0,1,.144-.036,1.234,1.234,0,0,1,.234.018,3.961,3.961,0,0,1,1.89.8,1.532,1.532,0,0,1,.612,1.107.734.734,0,0,1-.162.5.54.54,0,0,1-.432.189.546.546,0,0,1-.162-.018.487.487,0,0,1-.324-.324,3.8,3.8,0,0,0-.63-.972A7.509,7.509,0,0,0-6.354-14.526ZM-7.668-3.456q0-.2.378-.2h.4a.4.4,0,0,0,.234-.054,1,1,0,0,0,.2-.306Q-6.228-4.5-4.932-7.6l1.71-4.068q.144-.324.288-.324.126,0,.126.162a1.5,1.5,0,0,1-.072.252l-.9,2.664Q-5-5.31-5.238-4.5a6.01,6.01,0,0,0-.27,1.566,4.46,4.46,0,0,0,.18.972q.018.072.135.612A5.711,5.711,0,0,1-5.076-.144,2.26,2.26,0,0,1-5.31.981a.775.775,0,0,1-.72.405.41.41,0,0,1-.333-.171A1.059,1.059,0,0,1-6.552.738L-6.57.54A2.362,2.362,0,0,1-6.534.27q.09-.99.09-1.584,0-1.422-.36-1.674a1.525,1.525,0,0,0-.5-.216Q-7.668-3.294-7.668-3.456Zm.018-7.056q-.306-.216-.252-.306a.22.22,0,0,1,.162-.054,1.118,1.118,0,0,1,.216.018,3.8,3.8,0,0,1,1.836.729A1.417,1.417,0,0,1-5.094-9.09a.681.681,0,0,1-.162.459.521.521,0,0,1-.414.189.546.546,0,0,1-.162-.018.456.456,0,0,1-.216-.108.6.6,0,0,1-.126-.216,3.676,3.676,0,0,0-.594-.909A5.431,5.431,0,0,0-7.65-10.512Zm11.2,1.764a.377.377,0,0,0-.1-.279.377.377,0,0,0-.279-.1H-.486a.377.377,0,0,0-.279.1.377.377,0,0,0-.1.279v4.1a.377.377,0,0,0,.1.279.377.377,0,0,0,.279.1H3.168a.377.377,0,0,0,.279-.1.377.377,0,0,0,.1-.279ZM-.9-2.7q.126-.234.306-.234a.4.4,0,0,1,.216.09l.4.288q.072.054.4.234.45.216.45.36,0,.072-.2.108H.612a.7.7,0,0,0-.45.216,13.082,13.082,0,0,1-2,1.6A14.225,14.225,0,0,1-4.284,1.278a.5.5,0,0,1-.252.072.171.171,0,0,1-.144-.072A.073.073,0,0,1-4.7,1.224q0-.126.252-.288A13.635,13.635,0,0,0-2.916-.252,10.688,10.688,0,0,0-1.773-1.431,7.419,7.419,0,0,0-.9-2.7Zm4.1.45q-.27-.18-.27-.306,0-.072.126-.072a.888.888,0,0,1,.27.054A10.961,10.961,0,0,1,5.886-1.467,5.334,5.334,0,0,1,7.317-.261,1.822,1.822,0,0,1,7.758.792a.626.626,0,0,1-.144.432.5.5,0,0,1-.4.162.546.546,0,0,1-.162-.018A.563.563,0,0,1,6.7,1.1,10.062,10.062,0,0,0,5.2-.585,21.591,21.591,0,0,0,3.2-2.25ZM23.616-9.234a.523.523,0,0,0,.468-.252l.09-.162q.054-.072.126-.189a.968.968,0,0,1,.126-.171.173.173,0,0,1,.126-.054,1.554,1.554,0,0,1,.576.351,4.283,4.283,0,0,1,.684.639.31.31,0,0,1,.072.2.3.3,0,0,1-.144.234.425.425,0,0,1-.2.09.442.442,0,0,0-.324.432V-2.34a1.747,1.747,0,0,1-.3,1.1,1.925,1.925,0,0,1-1.233.522H23.6a.362.362,0,0,1-.36-.306,1.094,1.094,0,0,0-.306-.468,2.763,2.763,0,0,0-1.224-.414q-.36-.054-.36-.2,0-.108.4-.108,1.674.108,1.89.108a.569.569,0,0,0,.351-.081.342.342,0,0,0,.1-.279v-5.85a.377.377,0,0,0-.1-.279.377.377,0,0,0-.279-.1H20.394a.377.377,0,0,0-.279.1.377.377,0,0,0-.1.279v4.752q.036,1.944.126,3.978V.522A.467.467,0,0,1,20,.864a1.643,1.643,0,0,1-.45.279,1.241,1.241,0,0,1-.486.117.454.454,0,0,1-.306-.108A.324.324,0,0,1,18.63.9q.072-1.062.126-2.061t.072-2.619V-8.316a.377.377,0,0,0-.1-.279.377.377,0,0,0-.279-.1H15.192a.377.377,0,0,0-.279.1.377.377,0,0,0-.1.279v2.988q.036,1.962.126,3.96v.09a.4.4,0,0,1-.162.36,1.483,1.483,0,0,1-.9.306.317.317,0,0,1-.243-.108.361.361,0,0,1-.1-.252q.108-1.674.144-3.366V-6.21a28.165,28.165,0,0,0-.162-3.168V-9.45q0-.27.234-.27a.4.4,0,0,1,.18.036l.756.342a1.2,1.2,0,0,0,.468.108H18.45a.377.377,0,0,0,.279-.1.377.377,0,0,0,.1-.279V-11.52a.377.377,0,0,0-.1-.279.377.377,0,0,0-.279-.1H14.6a19.389,19.389,0,0,0-2.376.2h-.108a.37.37,0,0,1-.36-.234l-.09-.162a.448.448,0,0,1-.054-.2q0-.27.36-.234.612.054,1.854.09H18.45a.334.334,0,0,0,.378-.378q-.036-1.1-.108-1.926v-.036q0-.324.27-.324l.162.036q1.3.4,1.3.63,0,.09-.144.18l-.054.036a.517.517,0,0,0-.234.45v.954a.377.377,0,0,0,.1.279.377.377,0,0,0,.279.1h4.14a.517.517,0,0,0,.45-.234L25.218-13l.18-.243a2.328,2.328,0,0,1,.207-.252.227.227,0,0,1,.153-.081,1.892,1.892,0,0,1,.684.432,5.534,5.534,0,0,1,.792.738.4.4,0,0,1,.09.216.257.257,0,0,1-.108.2.632.632,0,0,1-.342.09H20.52a.727.727,0,0,0-.369.072q-.117.072.027.144.252.18.252.306,0,.108-.162.216l-.018.018a.547.547,0,0,0-.234.45v1.08a.377.377,0,0,0,.1.279.377.377,0,0,0,.279.1Z" transform="translate(279.952 25.139)" fill="#f7f7f7"/>
      <path id="パス_32370" data-name="パス 32370" d="M-12.616,0q-.133,0-.133-.266,0-.285.133-.285h.3a3.372,3.372,0,0,0,1.5-.285.939.939,0,0,0,.57-.893v-9.1a1.885,1.885,0,0,0-.1-.769.64.64,0,0,0-.494-.266,10.319,10.319,0,0,0-1.454-.067h-.323q-.133,0-.133-.285,0-.266.133-.266a6.237,6.237,0,0,0,1.852-.257A4.988,4.988,0,0,0-9.2-13.566a.46.46,0,0,1,.247-.114q.228,0,.228.342V-1.729q0,1.178,2.071,1.178h.285a.1.1,0,0,1,.1.067.6.6,0,0,1,.028.218q0,.266-.133.266ZM3.534-8.3q0-.342-.209-.342-.133,0-.266.19A19.044,19.044,0,0,1,1.5-6.479q-.209.209-.3.209-.114,0-.114-.133A.662.662,0,0,1,1.2-6.726a27.522,27.522,0,0,0,2.641-5.3,16.088,16.088,0,0,0,.579-1.786,15.7,15.7,0,0,0,.389-1.824q.057-.323.323-.323a1.143,1.143,0,0,1,.19.038q1.463.494,1.463.722,0,.076-.171.133l-.057.019a.525.525,0,0,0-.38.38,33.086,33.086,0,0,1-1.482,3.439A.506.506,0,0,0,4.636-11a.476.476,0,0,0,.19.342q.323.3.323.456,0,.1-.171.19a.493.493,0,0,0-.266.456v6.042q.038,2.071.133,4.18V.76a.408.408,0,0,1-.19.38,1.489,1.489,0,0,1-.893.323.454.454,0,0,1-.3-.114.342.342,0,0,1-.133-.266Q3.4-.038,3.458-1.092t.076-2.764Zm11.229-3.439a.546.546,0,0,0,.475-.247l.228-.323q.057-.076.171-.237a1.945,1.945,0,0,1,.2-.247A.24.24,0,0,1,16-12.882a1.861,1.861,0,0,1,.655.427,4.852,4.852,0,0,1,.77.751.418.418,0,0,1,.095.228.272.272,0,0,1-.114.209.575.575,0,0,1-.342.1H9.291a20.466,20.466,0,0,0-2.508.209H6.669a.39.39,0,0,1-.38-.247l-.095-.171a.473.473,0,0,1-.057-.209q0-.285.38-.247.646.057,1.957.1H10.45a.453.453,0,0,0,.295-.086.27.27,0,0,0,.1-.219,30.309,30.309,0,0,0-.171-3.4v-.076q0-.3.266-.3a1.142,1.142,0,0,1,.19.038q1.425.418,1.425.646,0,.095-.171.19l-.076.038a.552.552,0,0,0-.266.494v2.28a.4.4,0,0,0,.1.295.4.4,0,0,0,.294.1Zm.342,11.8A.546.546,0,0,0,15.58-.19l.228-.342Q15.9-.646,16-.779a2.6,2.6,0,0,1,.19-.237.256.256,0,0,1,.171-.1q.152,0,.684.447a5.254,5.254,0,0,1,.779.77A.411.411,0,0,1,17.917.3a.291.291,0,0,1-.095.209.632.632,0,0,1-.342.1h-8.7A20.466,20.466,0,0,0,6.27.817H6.156a.39.39,0,0,1-.38-.266L5.7.418A.473.473,0,0,1,5.643.209q0-.285.38-.247Q6.669.019,8,.057h3.667A.4.4,0,0,0,12.1-.285q.8-2.926,1.406-6.137a25.629,25.629,0,0,0,.4-3.344q0-.342.323-.342a.494.494,0,0,1,.152.019Q16-9.728,16-9.5q0,.076-.171.171l-.057.038a.692.692,0,0,0-.342.418q-.475,1.919-1.235,4.218T12.6-.4a.448.448,0,0,0-.057.19q0,.266.361.266ZM7.752-9.4a2.277,2.277,0,0,1-.076-.3.136.136,0,0,1,.076-.133H7.79q.133,0,.3.247A14.669,14.669,0,0,1,9.785-6.232a9.139,9.139,0,0,1,.532,2.85,3.62,3.62,0,0,1-.237,1.434q-.238.542-.561.541a.464.464,0,0,1-.3-.133.547.547,0,0,1-.171-.4A33.944,33.944,0,0,0,8.693-5.8,15.646,15.646,0,0,0,7.752-9.4Z" transform="translate(110.952 26.139)" fill="#f7f7f7"/>
    </g>
  </g>
</svg>
