<svg xmlns="http://www.w3.org/2000/svg" width="320" height="243" viewBox="0 0 320 243">
  <g id="sec01-02-sp" transform="translate(0.002 -0.139)">
    <g id="グループ_90" data-name="グループ 90" transform="translate(0.998 204.139)">
      <rect id="長方形_40007" data-name="長方形 40007" width="320" height="39" transform="translate(-1)" fill="#4f8ea7"/>
      <g id="グループ_53551" data-name="グループ 53551" transform="translate(0 1.96)">
        <path id="パス_32390" data-name="パス 32390" d="M16.758,1.962a.322.322,0,0,1-.2-.09A11.262,11.262,0,0,1,15.03.405,10.881,10.881,0,0,1,13.3-2.475a10.75,10.75,0,0,1-.828-4.365A10.75,10.75,0,0,1,13.3-11.2a10.881,10.881,0,0,1,1.728-2.88,11.262,11.262,0,0,1,1.53-1.467.322.322,0,0,1,.2-.09.155.155,0,0,1,.1.036.111.111,0,0,1,.045.09.492.492,0,0,1-.126.234q-.054.072-.891,1.008A9.265,9.265,0,0,0,14.31-11.25a13.135,13.135,0,0,0-.738,4.41,12.208,12.208,0,0,0,.63,4.1A11.177,11.177,0,0,0,15.4-.171q.567.8,1.377,1.773a.492.492,0,0,1,.126.234.1.1,0,0,1-.054.1A.212.212,0,0,1,16.758,1.962ZM32.184-10.26a.517.517,0,0,0,.45-.234l.126-.18q.036-.054.126-.18a1.121,1.121,0,0,1,.162-.189.22.22,0,0,1,.144-.063,1.408,1.408,0,0,1,.549.351,4.813,4.813,0,0,1,.657.639.244.244,0,0,1,.072.18q0,.126-.18.252a.706.706,0,0,1-.162.072.442.442,0,0,0-.324.432v1.458q.054,2.178.108,3.222v.09a.377.377,0,0,1-.2.36,1.815,1.815,0,0,1-.432.216,1.4,1.4,0,0,1-.468.09.22.22,0,0,1-.2-.126.3.3,0,0,1-.036-.162.631.631,0,0,1,.036-.2.4.4,0,0,1,.018-.126q0-.306-.378-.306h-2.3q-.324,0-.324.216a.444.444,0,0,0,.108.252,11.873,11.873,0,0,0,2.9,2.259A16.675,16.675,0,0,0,36.216-.4q.36.09.324.18a.189.189,0,0,1-.126.117q-.108.045-.18.081a1.22,1.22,0,0,0-.576.576q-.144.252-.324.252a.323.323,0,0,1-.162-.054A13.811,13.811,0,0,1,31.95-1.161,12.156,12.156,0,0,1,29.412-3.87q-.144-.2-.252-.2a.144.144,0,0,0-.135.09.524.524,0,0,0-.045.234v1.026q.054,2.214.108,3.33V.72a.467.467,0,0,1-.144.342,1.7,1.7,0,0,1-.423.243,1.259,1.259,0,0,1-.477.1.366.366,0,0,1-.27-.108.345.345,0,0,1-.108-.252Q27.774-.468,27.81-2V-3.024q0-.324-.2-.324a.4.4,0,0,0-.252.144A15.538,15.538,0,0,1,24.534-.9,20.546,20.546,0,0,1,21.024.9a.863.863,0,0,1-.252.054A.19.19,0,0,1,20.61.882a.073.073,0,0,1-.018-.054q0-.126.27-.288a18.992,18.992,0,0,0,3.267-2.133,15.4,15.4,0,0,0,2.565-2.6.358.358,0,0,0,.09-.234.2.2,0,0,0-.09-.171.4.4,0,0,0-.234-.063H24.606a.377.377,0,0,0-.279.1.377.377,0,0,0-.1.279v.27q0,.09-.324.234a1.546,1.546,0,0,1-.63.144.248.248,0,0,1-.207-.108A.408.408,0,0,1,22.986-4q.072-.828.108-2.052V-7.254a27.681,27.681,0,0,0-.162-3.15v-.072q0-.27.234-.27a.4.4,0,0,1,.18.036l.774.342a1.2,1.2,0,0,0,.468.108h2.844a.377.377,0,0,0,.279-.1.377.377,0,0,0,.1-.279v-1.134a.377.377,0,0,0-.1-.279.377.377,0,0,0-.279-.1H23.886a19.389,19.389,0,0,0-2.376.2H21.4a.37.37,0,0,1-.36-.234l-.072-.144a.448.448,0,0,1-.054-.2.215.215,0,0,1,.09-.189.362.362,0,0,1,.252-.045q.63.054,1.872.09h4.3a.334.334,0,0,0,.378-.378q-.036-.936-.108-1.674v-.036q0-.306.27-.306a1.082,1.082,0,0,1,.18.036q1.26.4,1.26.63,0,.09-.144.18l-.054.036a.517.517,0,0,0-.234.45v.684a.377.377,0,0,0,.1.279.377.377,0,0,0,.279.1h3.8a.517.517,0,0,0,.45-.234l.252-.36q.09-.108.189-.243a2.879,2.879,0,0,1,.2-.243.266.266,0,0,1,.171-.108,2.033,2.033,0,0,1,.711.45,4.33,4.33,0,0,1,.8.774.275.275,0,0,1,.09.2.257.257,0,0,1-.108.2.578.578,0,0,1-.342.09h-6.21a.377.377,0,0,0-.279.1.377.377,0,0,0-.1.279v1.134a.377.377,0,0,0,.1.279.377.377,0,0,0,.279.1Zm-4.752,2.5a.377.377,0,0,0,.279-.1.377.377,0,0,0,.1-.279V-9.36a.377.377,0,0,0-.1-.279.377.377,0,0,0-.279-.1H24.606a.377.377,0,0,0-.279.1.377.377,0,0,0-.1.279v1.224a.377.377,0,0,0,.1.279.377.377,0,0,0,.279.1Zm4.824,0a.377.377,0,0,0,.279-.1.377.377,0,0,0,.1-.279V-9.36a.377.377,0,0,0-.1-.279.377.377,0,0,0-.279-.1h-2.9a.377.377,0,0,0-.279.1.377.377,0,0,0-.1.279v1.224a.377.377,0,0,0,.1.279.377.377,0,0,0,.279.1Zm-4.446.9a.377.377,0,0,0-.1-.279.377.377,0,0,0-.279-.1H24.606a.377.377,0,0,0-.279.1.377.377,0,0,0-.1.279V-5.58a.377.377,0,0,0,.1.279.377.377,0,0,0,.279.1h2.826a.377.377,0,0,0,.279-.1.377.377,0,0,0,.1-.279Zm1.548-.378a.377.377,0,0,0-.279.1.377.377,0,0,0-.1.279V-5.58a.377.377,0,0,0,.1.279.377.377,0,0,0,.279.1h2.9a.377.377,0,0,0,.279-.1.377.377,0,0,0,.1-.279V-6.858a.377.377,0,0,0-.1-.279.377.377,0,0,0-.279-.1ZM52.794-12.6a.517.517,0,0,0,.45-.234l.27-.36q.09-.108.189-.243a2.879,2.879,0,0,1,.2-.243.266.266,0,0,1,.171-.108,2.033,2.033,0,0,1,.711.45,5.648,5.648,0,0,1,.819.756.335.335,0,0,1,.072.216.24.24,0,0,1-.09.2.8.8,0,0,1-.36.09H43.146a18.649,18.649,0,0,0-2.376.2h-.09a.406.406,0,0,1-.378-.234l-.072-.144a1,1,0,0,1-.072-.216.2.2,0,0,1,.09-.171.362.362,0,0,1,.252-.045q.612.054,1.854.09h4.5a.334.334,0,0,0,.378-.378q-.036-1.008-.108-1.746v-.036q0-.324.27-.324a1.082,1.082,0,0,1,.18.036q1.278.4,1.278.612,0,.09-.144.18l-.054.036a.508.508,0,0,0-.252.45v.792a.377.377,0,0,0,.1.279.377.377,0,0,0,.279.1Zm-1.638,2.538a.508.508,0,0,0,.45-.252l.108-.18q.054-.072.135-.2a.845.845,0,0,1,.144-.18.2.2,0,0,1,.135-.054,1.5,1.5,0,0,1,.567.36,4.746,4.746,0,0,1,.675.648.31.31,0,0,1,.072.2.3.3,0,0,1-.162.234.454.454,0,0,1-.108.054.7.7,0,0,0-.09.036.413.413,0,0,0-.324.414V-7.9q.054,1.638.09,2.412v.09a.386.386,0,0,1-.18.36,1.815,1.815,0,0,1-.432.216,1.4,1.4,0,0,1-.468.09.144.144,0,0,1-.135-.1.692.692,0,0,1-.045-.279v-.126a.377.377,0,0,0-.1-.279.377.377,0,0,0-.279-.1H48.8a.377.377,0,0,0-.279.1.377.377,0,0,0-.1.279v4.95A1.756,1.756,0,0,1,48.1.837a1.987,1.987,0,0,1-1.278.549L46.71,1.4q-.252,0-.342-.324a.805.805,0,0,0-.342-.468,3.288,3.288,0,0,0-1.35-.4q-.36-.054-.36-.2,0-.108.288-.108.4,0,1.368.072.54.054.828.054a.564.564,0,0,0,.36-.081.362.362,0,0,0,.09-.279V-5.238a.377.377,0,0,0-.1-.279.377.377,0,0,0-.279-.1h-2.43a.377.377,0,0,0-.279.1.377.377,0,0,0-.1.279v.27q0,.09-.324.243a1.506,1.506,0,0,1-.648.153.248.248,0,0,1-.207-.108.408.408,0,0,1-.081-.252q.072-.63.108-1.656V-7.614a23.4,23.4,0,0,0-.126-2.592v-.072q0-.27.234-.27a.4.4,0,0,1,.18.036l.756.342a1.109,1.109,0,0,0,.468.108Zm-6.714.5a.377.377,0,0,0-.279.1.377.377,0,0,0-.1.279v2.664a.377.377,0,0,0,.1.279.377.377,0,0,0,.279.1H51.21a.377.377,0,0,0,.279-.1.377.377,0,0,0,.1-.279V-9.18a.377.377,0,0,0-.1-.279.377.377,0,0,0-.279-.1Zm-.648,5.8Q43.92-4,44.1-4a.4.4,0,0,1,.216.09l.36.252a3.629,3.629,0,0,0,.4.252q.414.2.414.342,0,.072-.2.108h-.054a.7.7,0,0,0-.45.216,14.879,14.879,0,0,1-2,1.71A16.179,16.179,0,0,1,40.338.45q-.324.144-.4.018a.073.073,0,0,1-.018-.054q0-.126.234-.288A13.993,13.993,0,0,0,41.85-1.3a11.109,11.109,0,0,0,1.1-1.2A8.318,8.318,0,0,0,43.794-3.762Zm6.624.45q-.234-.162-.234-.27,0-.09.126-.09A.723.723,0,0,1,50.6-3.6a12.461,12.461,0,0,1,2.538,1.269,5.477,5.477,0,0,1,1.422,1.3A2,2,0,0,1,54.99.054a.59.59,0,0,1-.135.4A.446.446,0,0,1,54.5.612a.757.757,0,0,1-.18-.018.475.475,0,0,1-.342-.27,10.256,10.256,0,0,0-1.494-1.791A26.131,26.131,0,0,0,50.418-3.312Zm9,5.148a.492.492,0,0,1,.126-.234q.054-.072.891-1.008A9.265,9.265,0,0,0,62.01-2.43a13.135,13.135,0,0,0,.738-4.41,12.208,12.208,0,0,0-.63-4.1,11.177,11.177,0,0,0-1.2-2.574q-.567-.8-1.377-1.773a.492.492,0,0,1-.126-.234.111.111,0,0,1,.045-.09.155.155,0,0,1,.1-.036.322.322,0,0,1,.2.09,11.262,11.262,0,0,1,1.53,1.467,10.881,10.881,0,0,1,1.728,2.88,10.75,10.75,0,0,1,.828,4.365,10.75,10.75,0,0,1-.828,4.365A10.881,10.881,0,0,1,61.29.405a11.261,11.261,0,0,1-1.53,1.467.322.322,0,0,1-.2.09.212.212,0,0,1-.09-.027A.1.1,0,0,1,59.418,1.836Z" transform="translate(217 25)" fill="#f7f7f7"/>
        <path id="パス_32389" data-name="パス 32389" d="M-24.462-.63a.508.508,0,0,0,.45-.252l.234-.342a3.2,3.2,0,0,0,.2-.27,2.325,2.325,0,0,1,.18-.243.2.2,0,0,1,.144-.081,2.109,2.109,0,0,1,.684.45,5.818,5.818,0,0,1,.81.756.4.4,0,0,1,.09.216.257.257,0,0,1-.108.2.632.632,0,0,1-.342.09H-32.886a.4.4,0,0,0-.279.09.323.323,0,0,0-.1.252,2.8,2.8,0,0,1,.018.342l.018.18a.389.389,0,0,1-.108.288,1.224,1.224,0,0,1-.36.243,1.068,1.068,0,0,1-.45.1.454.454,0,0,1-.306-.108.324.324,0,0,1-.126-.252q.072-1.062.126-2.061t.072-2.619v-5.6a.377.377,0,0,0-.1-.279.377.377,0,0,0-.279-.1h-.5a8.124,8.124,0,0,0-1.224.162.468.468,0,0,1-.144.018.381.381,0,0,1-.342-.234l-.054-.108a.479.479,0,0,1-.054-.216q0-.234.342-.2.468.036,1.44.072h.54a.377.377,0,0,0,.279-.1.377.377,0,0,0,.1-.279v-.558a29.022,29.022,0,0,0-.162-3.222v-.072a.3.3,0,0,1,.072-.207.251.251,0,0,1,.2-.081.571.571,0,0,1,.162.036q1.3.4,1.3.612,0,.09-.144.18l-.054.036a.508.508,0,0,0-.252.45v2.826a.377.377,0,0,0,.1.279.377.377,0,0,0,.279.1H-30.4a.377.377,0,0,0,.279-.1.377.377,0,0,0,.1-.279v-.9a28.714,28.714,0,0,0-.162-3.222v-.072a.3.3,0,0,1,.072-.207.251.251,0,0,1,.2-.081.571.571,0,0,1,.162.036,7.1,7.1,0,0,1,1.008.36q.288.144.288.252,0,.09-.162.18l-.054.036a.508.508,0,0,0-.252.45v3.168a.377.377,0,0,0,.1.279.377.377,0,0,0,.279.1h2.592a.377.377,0,0,0,.279-.1.377.377,0,0,0,.1-.279v-.774a28.714,28.714,0,0,0-.162-3.222v-.072a.3.3,0,0,1,.072-.207.251.251,0,0,1,.2-.081.571.571,0,0,1,.162.036q1.332.4,1.332.63,0,.09-.162.18l-.054.036a.508.508,0,0,0-.252.45v3.024a.377.377,0,0,0,.1.279.377.377,0,0,0,.279.1h.324a.517.517,0,0,0,.45-.234l.216-.324a2.831,2.831,0,0,1,.171-.243q.117-.153.189-.234a.2.2,0,0,1,.144-.081,1.66,1.66,0,0,1,.639.414,4.859,4.859,0,0,1,.729.72.31.31,0,0,1,.072.2.273.273,0,0,1-.108.216.5.5,0,0,1-.306.072h-2.52a.377.377,0,0,0-.279.1.377.377,0,0,0-.1.279v1.6q.054,2.394.108,3.564V-4a.482.482,0,0,1-.162.378,1.921,1.921,0,0,1-.414.216,1.3,1.3,0,0,1-.468.09h-.054a.215.215,0,0,1-.162-.126.516.516,0,0,1-.054-.234.985.985,0,0,0,.036-.216l.036-.216V-4.14a.377.377,0,0,0-.1-.279.377.377,0,0,0-.279-.1h-2.592a.377.377,0,0,0-.279.1.377.377,0,0,0-.1.279q.036.432.036.414v.108a.537.537,0,0,1-.108.36,1.274,1.274,0,0,1-.369.216,1.182,1.182,0,0,1-.441.09.4.4,0,0,1-.279-.108.333.333,0,0,1-.117-.252q.072-.918.117-1.818t.063-2.268V-9.252a.377.377,0,0,0-.1-.279.377.377,0,0,0-.279-.1h-2.484a.377.377,0,0,0-.279.1.377.377,0,0,0-.1.279v8.244a.377.377,0,0,0,.1.279.377.377,0,0,0,.279.1Zm-4.464-4.806a.377.377,0,0,0,.1.279.377.377,0,0,0,.279.1h2.592a.377.377,0,0,0,.279-.1.377.377,0,0,0,.1-.279V-9.252a.377.377,0,0,0-.1-.279.377.377,0,0,0-.279-.1h-2.592a.377.377,0,0,0-.279.1.377.377,0,0,0-.1.279Zm14.31,4.968q-.378,0-.378.36a3.47,3.47,0,0,1,.018.378l.018.18a.389.389,0,0,1-.108.288,1.144,1.144,0,0,1-.846.324.361.361,0,0,1-.261-.117A.344.344,0,0,1-16.29.7q.072-1.062.126-2.061t.072-2.619v-6.156a27.68,27.68,0,0,0-.162-3.15v-.072q0-.288.216-.288a.448.448,0,0,1,.2.054l.756.36a1.2,1.2,0,0,0,.468.108h9.828a.564.564,0,0,0,.468-.234l.108-.144.135-.18a1.035,1.035,0,0,1,.144-.162A.2.2,0,0,1-3.8-13.9a1.484,1.484,0,0,1,.558.324,3.608,3.608,0,0,1,.648.594.31.31,0,0,1,.072.2.3.3,0,0,1-.162.234.454.454,0,0,1-.108.054.7.7,0,0,0-.09.036.413.413,0,0,0-.324.414V-3.8q.036,1.962.126,3.96v.09a.386.386,0,0,1-.18.36A1.655,1.655,0,0,1-3.69.855a1.287,1.287,0,0,1-.468.1q-.108,0-.2-.144A.3.3,0,0,1-4.392.648a2.362,2.362,0,0,1,.036-.27l.036-.36V-.09a.377.377,0,0,0-.1-.279.377.377,0,0,0-.279-.1ZM-10.692-7.2a.377.377,0,0,0,.279-.1.377.377,0,0,0,.1-.279v-4.644a.377.377,0,0,0-.1-.279.377.377,0,0,0-.279-.1h-3.924a.377.377,0,0,0-.279.1.377.377,0,0,0-.1.279v4.644a.377.377,0,0,0,.1.279.377.377,0,0,0,.279.1Zm5.994,0a.377.377,0,0,0,.279-.1.377.377,0,0,0,.1-.279v-4.644a.377.377,0,0,0-.1-.279.377.377,0,0,0-.279-.1H-8.784a.377.377,0,0,0-.279.1.377.377,0,0,0-.1.279v4.644a.377.377,0,0,0,.1.279.377.377,0,0,0,.279.1Zm-5.616.882a.377.377,0,0,0-.1-.279.377.377,0,0,0-.279-.1h-3.924a.377.377,0,0,0-.279.1.377.377,0,0,0-.1.279v4.95a.377.377,0,0,0,.1.279.377.377,0,0,0,.279.1h3.924a.377.377,0,0,0,.279-.1.377.377,0,0,0,.1-.279Zm1.53-.378a.377.377,0,0,0-.279.1.377.377,0,0,0-.1.279v4.95a.377.377,0,0,0,.1.279.377.377,0,0,0,.279.1H-4.7a.377.377,0,0,0,.279-.1.377.377,0,0,0,.1-.279v-4.95a.377.377,0,0,0-.1-.279A.377.377,0,0,0-4.7-6.7ZM6.174-14.688q.09-.27.27-.27a.335.335,0,0,1,.216.072l.648.378q.738.306.738.45,0,.09-.216.126H7.776a.663.663,0,0,0-.414.288,16.859,16.859,0,0,1-1.89,2.376A14.718,14.718,0,0,1,3.078-9.2a.5.5,0,0,1-.234.126q-.108.018-.144-.036L2.664-9.18q0-.108.2-.306A17.043,17.043,0,0,0,4.806-11.88,10.744,10.744,0,0,0,6.174-14.688Zm5.562.45a.719.719,0,0,1-.171-.153.242.242,0,0,1-.063-.135q0-.09.144-.09a.888.888,0,0,1,.27.054,11.863,11.863,0,0,1,2.673,1.377,5.854,5.854,0,0,1,1.494,1.449,2.357,2.357,0,0,1,.459,1.242.755.755,0,0,1-.153.5.505.505,0,0,1-.405.18.449.449,0,0,1-.2-.036.318.318,0,0,1-.207-.09,1.239,1.239,0,0,1-.135-.2,9.9,9.9,0,0,0-1.557-2.106A18.88,18.88,0,0,0,11.736-14.238Zm.72,8.586a.517.517,0,0,0,.45-.234l.126-.18q.036-.054.126-.18a1.121,1.121,0,0,1,.162-.189.22.22,0,0,1,.144-.063,1.408,1.408,0,0,1,.549.351,4.814,4.814,0,0,1,.657.639.244.244,0,0,1,.072.18.305.305,0,0,1-.162.252l-.18.108a.713.713,0,0,0-.243.162.363.363,0,0,0-.081.252v1.62q.054,2.358.108,3.528v.09a.377.377,0,0,1-.2.36,2.432,2.432,0,0,1-.432.2,1.358,1.358,0,0,1-.45.09.209.209,0,0,1-.18-.126.448.448,0,0,1-.054-.2,2.362,2.362,0,0,1,.036-.27V.72a1.2,1.2,0,0,0,.036-.432.181.181,0,0,0-.1-.153.519.519,0,0,0-.279-.063H6.876A.692.692,0,0,0,6.6.117q-.1.045-.1.117A1.491,1.491,0,0,0,6.516.5v.27a.427.427,0,0,1-.126.342,1.41,1.41,0,0,1-.369.189,1.3,1.3,0,0,1-.441.081.376.376,0,0,1-.261-.108A.333.333,0,0,1,5.2,1.026q.072-1.044.117-2.07t.063-2.574V-5.562A.4.4,0,0,0,5.319-5.8a.183.183,0,0,0-.153-.09.482.482,0,0,0-.234.09,17.233,17.233,0,0,1-2.7,1.548q-.342.144-.4.018v-.036q0-.108.252-.27a17.718,17.718,0,0,0,2.817-2.1A22.032,22.032,0,0,0,7.4-9.252,7.1,7.1,0,0,0,8.766-11.88a.335.335,0,0,1,.468-.27l1.422.432a.539.539,0,0,1,.216.117.232.232,0,0,1,.09.171q0,.108-.126.126a.4.4,0,0,0-.18.306.323.323,0,0,0,.054.162,11.573,11.573,0,0,0,2.844,2.655,20.224,20.224,0,0,0,3.888,2.043,1.2,1.2,0,0,1,.216.117q.09.063.09.117a.163.163,0,0,1-.09.144,1.805,1.805,0,0,1-.216.108,1.42,1.42,0,0,0-.612.576q-.126.216-.288.216a.448.448,0,0,1-.2-.054A16.7,16.7,0,0,1,12.789-7.4a11.48,11.48,0,0,1-2.475-3.15q-.108-.2-.234-.2a.3.3,0,0,0-.252.18,16.632,16.632,0,0,1-1.737,2.1A20.4,20.4,0,0,1,5.886-6.5a.34.34,0,0,0-.162.252q0,.162.216.27l.432.216a.963.963,0,0,0,.468.108Zm.108,5.184a.377.377,0,0,0,.279-.1.377.377,0,0,0,.1-.279V-4.752a.377.377,0,0,0-.1-.279.377.377,0,0,0-.279-.1H6.876a.377.377,0,0,0-.279.1.377.377,0,0,0-.1.279V-.846a.377.377,0,0,0,.1.279.377.377,0,0,0,.279.1Zm21.1-13a.508.508,0,0,0,.45-.252l.2-.288a2.831,2.831,0,0,1,.171-.243q.117-.153.189-.234a.2.2,0,0,1,.144-.081,1.757,1.757,0,0,1,.657.414,3.92,3.92,0,0,1,.729.72.389.389,0,0,1,.09.2.275.275,0,0,1-.09.2.632.632,0,0,1-.342.09H24.138a.377.377,0,0,0-.279.1.377.377,0,0,0-.1.279V-.882a.377.377,0,0,0,.1.279.377.377,0,0,0,.279.1h10.17a.517.517,0,0,0,.45-.234l.252-.342q.072-.09.2-.252a2.734,2.734,0,0,1,.207-.243.227.227,0,0,1,.153-.081,1.936,1.936,0,0,1,.693.441,4.8,4.8,0,0,1,.783.747.4.4,0,0,1,.09.216.257.257,0,0,1-.108.2.544.544,0,0,1-.324.09H24.138a.692.692,0,0,0-.279.045q-.1.045-.1.117a1.631,1.631,0,0,0,.018.288V.774a.44.44,0,0,1-.108.324,1.273,1.273,0,0,1-.882.306.361.361,0,0,1-.261-.117.344.344,0,0,1-.117-.243q.072-1.062.126-2.061t.072-2.619v-6.876a27.681,27.681,0,0,0-.162-3.15v-.072q0-.27.234-.27a.4.4,0,0,1,.18.036l.882.4a1.2,1.2,0,0,0,.468.108ZM30.888-6.012a.4.4,0,0,0-.27-.144.39.39,0,0,0-.27.162A18.882,18.882,0,0,1,25.2-1.548a.589.589,0,0,1-.252.1q-.108.009-.144-.045l-.036-.072q0-.09.234-.288a20.612,20.612,0,0,0,4.626-4.932.482.482,0,0,0,.09-.234.415.415,0,0,0-.144-.288,25.049,25.049,0,0,0-3.708-2.826q-.252-.162-.252-.27a.127.127,0,0,1,.144-.144.988.988,0,0,1,.288.09,31.605,31.605,0,0,1,3.978,2.322.482.482,0,0,0,.234.09.324.324,0,0,0,.288-.2L31-9.018a12.14,12.14,0,0,0,.711-1.5,15.821,15.821,0,0,0,.531-1.539q.054-.27.288-.27a.479.479,0,0,1,.216.054q1.3.612,1.3.828,0,.09-.18.144l-.072.018a.671.671,0,0,0-.4.324,24.021,24.021,0,0,1-1.944,3.438.477.477,0,0,0-.072.234.412.412,0,0,0,.162.306,10.8,10.8,0,0,1,2.178,2.34,3.609,3.609,0,0,1,.684,1.8.825.825,0,0,1-.135.5.419.419,0,0,1-.351.18.639.639,0,0,1-.288-.072.558.558,0,0,1-.27-.288A13.974,13.974,0,0,0,30.888-6.012Z" transform="translate(150.318 25)" fill="#f7f7f7"/>
        <path id="パス_32388" data-name="パス 32388" d="M-9.462-8.873A4.235,4.235,0,0,1-7.838-8.5,3.648,3.648,0,0,1-6.27-7.135a4.8,4.8,0,0,1,.684,2.746,4.737,4.737,0,0,1-.627,2.451A4.494,4.494,0,0,1-7.809-.3a3.824,3.824,0,0,1-1.957.57,4.783,4.783,0,0,1-1.72-.323,3.315,3.315,0,0,1-1.387-.969,2.319,2.319,0,0,1-.541-1.539,1.241,1.241,0,0,1,.275-.9.854.854,0,0,1,.618-.275,1.26,1.26,0,0,1,.722.219.758.758,0,0,1,.323.674,1.911,1.911,0,0,1-.114.589l-.057.228a1.178,1.178,0,0,0-.038.285,1.156,1.156,0,0,0,.542,1.035,2.169,2.169,0,0,0,1.206.352,2.088,2.088,0,0,0,1.33-.484,3.369,3.369,0,0,0,.979-1.368,5.247,5.247,0,0,0,.37-2.043,4.892,4.892,0,0,0-.7-2.774A2.166,2.166,0,0,0-9.842-8.075a3.242,3.242,0,0,0-2.47,1.5.478.478,0,0,1-.266.19h-.076a.171.171,0,0,1-.152-.057h-.019a.536.536,0,0,1-.247-.494l.228-6.46a.379.379,0,0,1,.114-.295.432.432,0,0,1,.3-.1h5.833a.374.374,0,0,1,.3.114.379.379,0,0,1,.057.323l-.114.627a.371.371,0,0,1-.142.266.469.469,0,0,1-.295.1h-5.035a.384.384,0,0,0-.418.4l-.152,3.9q-.038.266.19.266a.887.887,0,0,0,.494-.247,4.112,4.112,0,0,1,1.1-.627A3.365,3.365,0,0,1-9.462-8.873Zm13,.57q0-.342-.209-.342-.133,0-.266.19A19.044,19.044,0,0,1,1.5-6.479q-.209.209-.3.209-.114,0-.114-.133A.662.662,0,0,1,1.2-6.726a27.522,27.522,0,0,0,2.641-5.3,16.088,16.088,0,0,0,.579-1.786,15.7,15.7,0,0,0,.389-1.824q.057-.323.323-.323a1.143,1.143,0,0,1,.19.038q1.463.494,1.463.722,0,.076-.171.133l-.057.019a.525.525,0,0,0-.38.38,33.086,33.086,0,0,1-1.482,3.439A.506.506,0,0,0,4.636-11a.476.476,0,0,0,.19.342q.323.3.323.456,0,.1-.171.19a.493.493,0,0,0-.266.456v6.042q.038,2.071.133,4.18V.76a.408.408,0,0,1-.19.38,1.489,1.489,0,0,1-.893.323.454.454,0,0,1-.3-.114.342.342,0,0,1-.133-.266Q3.4-.038,3.458-1.092t.076-2.764Zm11.229-3.439a.546.546,0,0,0,.475-.247l.228-.323q.057-.076.171-.237a1.945,1.945,0,0,1,.2-.247A.24.24,0,0,1,16-12.882a1.861,1.861,0,0,1,.655.427,4.852,4.852,0,0,1,.77.751.418.418,0,0,1,.095.228.272.272,0,0,1-.114.209.575.575,0,0,1-.342.1H9.291a20.466,20.466,0,0,0-2.508.209H6.669a.39.39,0,0,1-.38-.247l-.095-.171a.473.473,0,0,1-.057-.209q0-.285.38-.247.646.057,1.957.1H10.45a.453.453,0,0,0,.295-.086.27.27,0,0,0,.1-.219,30.309,30.309,0,0,0-.171-3.4v-.076q0-.3.266-.3a1.142,1.142,0,0,1,.19.038q1.425.418,1.425.646,0,.095-.171.19l-.076.038a.552.552,0,0,0-.266.494v2.28a.4.4,0,0,0,.1.295.4.4,0,0,0,.294.1Zm.342,11.8A.546.546,0,0,0,15.58-.19l.228-.342Q15.9-.646,16-.779a2.6,2.6,0,0,1,.19-.237.256.256,0,0,1,.171-.1q.152,0,.684.447a5.254,5.254,0,0,1,.779.77A.411.411,0,0,1,17.917.3a.291.291,0,0,1-.095.209.632.632,0,0,1-.342.1h-8.7A20.466,20.466,0,0,0,6.27.817H6.156a.39.39,0,0,1-.38-.266L5.7.418A.473.473,0,0,1,5.643.209q0-.285.38-.247Q6.669.019,8,.057h3.667A.4.4,0,0,0,12.1-.285q.8-2.926,1.406-6.137a25.629,25.629,0,0,0,.4-3.344q0-.342.323-.342a.494.494,0,0,1,.152.019Q16-9.728,16-9.5q0,.076-.171.171l-.057.038a.692.692,0,0,0-.342.418q-.475,1.919-1.235,4.218T12.6-.4a.448.448,0,0,0-.057.19q0,.266.361.266ZM7.752-9.4a2.277,2.277,0,0,1-.076-.3.136.136,0,0,1,.076-.133H7.79q.133,0,.3.247A14.669,14.669,0,0,1,9.785-6.232a9.139,9.139,0,0,1,.532,2.85,3.62,3.62,0,0,1-.237,1.434q-.238.542-.561.541a.464.464,0,0,1-.3-.133.547.547,0,0,1-.171-.4A33.944,33.944,0,0,0,8.693-5.8,15.646,15.646,0,0,0,7.752-9.4Z" transform="translate(52 25)" fill="#f7f7f7"/>
      </g>
    </g>
    <g id="グループ_89" data-name="グループ 89" transform="translate(0.998 155.139)">
      <rect id="長方形_40006" data-name="長方形 40006" width="320" height="40" transform="translate(-1)" fill="#70a1b4"/>
      <path id="パス_32387" data-name="パス 32387" d="M16.758,1.962a.322.322,0,0,1-.2-.09A11.262,11.262,0,0,1,15.03.405,10.881,10.881,0,0,1,13.3-2.475a10.75,10.75,0,0,1-.828-4.365A10.75,10.75,0,0,1,13.3-11.2a10.881,10.881,0,0,1,1.728-2.88,11.262,11.262,0,0,1,1.53-1.467.322.322,0,0,1,.2-.09.155.155,0,0,1,.1.036.111.111,0,0,1,.045.09.492.492,0,0,1-.126.234q-.054.072-.891,1.008A9.265,9.265,0,0,0,14.31-11.25a13.135,13.135,0,0,0-.738,4.41,12.208,12.208,0,0,0,.63,4.1A11.177,11.177,0,0,0,15.4-.171q.567.8,1.377,1.773a.492.492,0,0,1,.126.234.1.1,0,0,1-.054.1A.212.212,0,0,1,16.758,1.962ZM33.426-9.774a.517.517,0,0,0,.45-.234l.27-.378q.072-.09.207-.27t.216-.27a.22.22,0,0,1,.153-.09,2.065,2.065,0,0,1,.72.477,4.828,4.828,0,0,1,.81.8.4.4,0,0,1,.09.216.259.259,0,0,1-.09.18.632.632,0,0,1-.342.09H29.43a.354.354,0,0,0-.288.108.359.359,0,0,0-.054.306A12.544,12.544,0,0,0,36.288.09a1.045,1.045,0,0,1,.225.144q.081.072.063.108-.018.054-.153.09a1.175,1.175,0,0,0-.171.054,1.118,1.118,0,0,0-.738.558q-.126.234-.288.234a.448.448,0,0,1-.2-.054A12.042,12.042,0,0,1,30.69-3.069,16.4,16.4,0,0,1,28.782-8.55q-.018-.252-.09-.252-.054,0-.108.252A14.269,14.269,0,0,1,27.5-4.743,10.488,10.488,0,0,1,25.146-1.5a15.755,15.755,0,0,1-4.14,2.745.869.869,0,0,1-.234.072h-.036a.14.14,0,0,1-.144-.09.172.172,0,0,1,.036-.18.747.747,0,0,1,.2-.162,13.135,13.135,0,0,0,4.725-4.257,13.5,13.5,0,0,0,1.863-5.481v-.072q0-.324-.342-.324H23.706a18.649,18.649,0,0,0-2.376.2h-.09a.406.406,0,0,1-.378-.234l-.072-.144a1,1,0,0,1-.072-.216.2.2,0,0,1,.09-.171.362.362,0,0,1,.252-.045q.612.054,1.854.09h4.248a.356.356,0,0,0,.4-.36l.054-1.26q.018-.27.018-.828a20.8,20.8,0,0,0-.144-2.5v-.036a.3.3,0,0,1,.108-.261.434.434,0,0,1,.306-.063,9.9,9.9,0,0,1,1.134.171q.324.081.324.189,0,.09-.144.18l-.054.054a.517.517,0,0,0-.234.45l-.018.648q-.036,1.926-.144,3.222v.054q0,.342.36.342Zm19.6-4a.517.517,0,0,0,.45-.234l.216-.288q.054-.072.162-.225a1.842,1.842,0,0,1,.189-.234.227.227,0,0,1,.153-.081,1.619,1.619,0,0,1,.63.4,5.436,5.436,0,0,1,.72.693.4.4,0,0,1,.09.216.257.257,0,0,1-.108.2.632.632,0,0,1-.342.09H48.06a.377.377,0,0,0-.279.1.377.377,0,0,0-.1.279v2.88a.377.377,0,0,0,.1.279.377.377,0,0,0,.279.1h4.734a.583.583,0,0,0,.45-.2l.144-.162q.054-.054.207-.216a.413.413,0,0,1,.261-.162q.126,0,.5.333a3.522,3.522,0,0,1,.576.621.31.31,0,0,1,.072.2.216.216,0,0,1-.18.216l-.126.036a.443.443,0,0,0-.4.342,16.475,16.475,0,0,1-2.322,5.4.5.5,0,0,0-.09.252.378.378,0,0,0,.126.27A11.16,11.16,0,0,0,55.746-.018l.216.126q.09.054.09.09,0,.09-.324.162a1.322,1.322,0,0,0-.72.558.371.371,0,0,1-.324.216.425.425,0,0,1-.18-.054,10.853,10.853,0,0,1-3.132-2.79.39.39,0,0,0-.288-.18.4.4,0,0,0-.252.144,12.953,12.953,0,0,1-4.3,2.934.607.607,0,0,1-.27.072.171.171,0,0,1-.144-.072.073.073,0,0,1-.018-.054q0-.108.288-.27a12.765,12.765,0,0,0,4.032-3.456.407.407,0,0,0,.09-.27.5.5,0,0,0-.072-.252,16.988,16.988,0,0,1-1.8-5.616.362.362,0,0,0-.4-.342h-.18a.377.377,0,0,0-.279.1.377.377,0,0,0-.1.279v.5a22.862,22.862,0,0,1-.261,3.618,9.821,9.821,0,0,1-1.08,3.132,8.189,8.189,0,0,1-2.367,2.664q-.27.216-.4.09l-.036-.072q0-.108.2-.306A8.8,8.8,0,0,0,46.008-2.97a20.083,20.083,0,0,0,.594-5.2v-3.1a24.291,24.291,0,0,0-.126-2.646v-.072q0-.27.234-.27a.4.4,0,0,1,.18.036l.81.36a1.123,1.123,0,0,0,.468.09Zm-10.908.324a.377.377,0,0,0-.279.1.377.377,0,0,0-.1.279v9.774q.036,1.962.126,3.96v.09a.431.431,0,0,1-.18.378,1.311,1.311,0,0,1-.846.306.361.361,0,0,1-.261-.117.344.344,0,0,1-.117-.243q.072-1.062.126-2.061T40.662-3.6v-7.344a27.861,27.861,0,0,0-.162-3.168v-.072q0-.27.234-.27a.4.4,0,0,1,.18.036l.828.36a1.076,1.076,0,0,0,.45.09H43.83a.583.583,0,0,0,.45-.2l.144-.162q.054-.054.207-.216a.413.413,0,0,1,.261-.162q.126,0,.531.4a4.675,4.675,0,0,1,.621.72.244.244,0,0,1,.072.18.231.231,0,0,1-.2.234l-.2.036a.52.52,0,0,0-.45.27q-1.242,2.412-1.98,3.528a.477.477,0,0,0-.072.234.412.412,0,0,0,.162.306,5.152,5.152,0,0,1,2.052,4,2.838,2.838,0,0,1-.423,1.692,2.021,2.021,0,0,1-1.413.72h-.072q-.288,0-.342-.342a3.118,3.118,0,0,0-.072-.36A.546.546,0,0,0,42.8-3.4,1.017,1.017,0,0,0,42.5-3.51q-.342-.09-.342-.2,0-.054.1-.09a.849.849,0,0,1,.279-.036h.81a.791.791,0,0,0,.468-.108q.45-.234.45-1.206a5.543,5.543,0,0,0-1.386-3.6.479.479,0,0,1-.126-.324.993.993,0,0,1,.036-.2q.378-1.008,1.242-3.744a.468.468,0,0,0,.018-.144q0-.288-.342-.288Zm10.962,4.68q0-.306-.342-.306H49.374a.331.331,0,0,0-.27.108.359.359,0,0,0-.054.306,14.051,14.051,0,0,0,1.836,4.536.314.314,0,0,0,.27.18.3.3,0,0,0,.252-.18,16.779,16.779,0,0,0,1.656-4.536Zm6.336,10.6a.492.492,0,0,1,.126-.234q.054-.072.891-1.008A9.265,9.265,0,0,0,62.01-2.43a13.135,13.135,0,0,0,.738-4.41,12.208,12.208,0,0,0-.63-4.1,11.177,11.177,0,0,0-1.2-2.574q-.567-.8-1.377-1.773a.492.492,0,0,1-.126-.234.111.111,0,0,1,.045-.09.155.155,0,0,1,.1-.036.322.322,0,0,1,.2.09,11.262,11.262,0,0,1,1.53,1.467,10.881,10.881,0,0,1,1.728,2.88,10.75,10.75,0,0,1,.828,4.365,10.75,10.75,0,0,1-.828,4.365A10.881,10.881,0,0,1,61.29.405a11.261,11.261,0,0,1-1.53,1.467.322.322,0,0,1-.2.09.212.212,0,0,1-.09-.027A.1.1,0,0,1,59.418,1.836Z" transform="translate(217 26.642)" fill="#f7f7f7"/>
      <path id="パス_32386" data-name="パス 32386" d="M-14.454-9.774a.517.517,0,0,0,.45-.234l.27-.378q.072-.09.207-.27t.216-.27a.22.22,0,0,1,.153-.09,2.065,2.065,0,0,1,.72.477,4.828,4.828,0,0,1,.81.8.4.4,0,0,1,.09.216.259.259,0,0,1-.09.18.632.632,0,0,1-.342.09h-6.48a.354.354,0,0,0-.288.108.359.359,0,0,0-.054.306A12.544,12.544,0,0,0-11.592.09a1.045,1.045,0,0,1,.225.144q.081.072.063.108-.018.054-.153.09a1.175,1.175,0,0,0-.171.054,1.118,1.118,0,0,0-.738.558q-.126.234-.288.234a.448.448,0,0,1-.2-.054A12.042,12.042,0,0,1-17.19-3.069,16.4,16.4,0,0,1-19.1-8.55q-.018-.252-.09-.252-.054,0-.108.252a14.269,14.269,0,0,1-1.08,3.807A10.488,10.488,0,0,1-22.734-1.5a15.755,15.755,0,0,1-4.14,2.745.869.869,0,0,1-.234.072h-.036a.14.14,0,0,1-.144-.09.172.172,0,0,1,.036-.18.747.747,0,0,1,.2-.162,13.135,13.135,0,0,0,4.725-4.257,13.5,13.5,0,0,0,1.863-5.481v-.072q0-.324-.342-.324h-3.366a18.649,18.649,0,0,0-2.376.2h-.09a.406.406,0,0,1-.378-.234l-.072-.144a1,1,0,0,1-.072-.216.2.2,0,0,1,.09-.171.362.362,0,0,1,.252-.045q.612.054,1.854.09h4.248a.356.356,0,0,0,.4-.36l.054-1.26q.018-.27.018-.828a20.8,20.8,0,0,0-.144-2.5v-.036a.3.3,0,0,1,.108-.261.434.434,0,0,1,.306-.063,9.9,9.9,0,0,1,1.134.171q.324.081.324.189,0,.09-.144.18l-.054.054a.517.517,0,0,0-.234.45l-.018.648q-.036,1.926-.144,3.222v.054q0,.342.36.342Zm19.6-4A.517.517,0,0,0,5.6-14l.216-.288q.054-.072.162-.225a1.842,1.842,0,0,1,.189-.234.227.227,0,0,1,.153-.081,1.619,1.619,0,0,1,.63.4,5.436,5.436,0,0,1,.72.693.4.4,0,0,1,.09.216.257.257,0,0,1-.108.2.632.632,0,0,1-.342.09H.18a.377.377,0,0,0-.279.1.377.377,0,0,0-.1.279v2.88a.377.377,0,0,0,.1.279.377.377,0,0,0,.279.1H4.914a.583.583,0,0,0,.45-.2l.144-.162q.054-.054.207-.216a.413.413,0,0,1,.261-.162q.126,0,.5.333a3.522,3.522,0,0,1,.576.621.31.31,0,0,1,.072.2.216.216,0,0,1-.18.216l-.126.036a.443.443,0,0,0-.4.342A16.475,16.475,0,0,1,4.1-3.186a.5.5,0,0,0-.09.252.378.378,0,0,0,.126.27A11.16,11.16,0,0,0,7.866-.018q.126.072.216.126t.09.09q0,.09-.324.162a1.322,1.322,0,0,0-.72.558.371.371,0,0,1-.324.216.425.425,0,0,1-.18-.054A10.853,10.853,0,0,1,3.492-1.71.39.39,0,0,0,3.2-1.89a.4.4,0,0,0-.252.144,12.953,12.953,0,0,1-4.3,2.934.607.607,0,0,1-.27.072.171.171,0,0,1-.144-.072.073.073,0,0,1-.018-.054q0-.108.288-.27A12.765,12.765,0,0,0,2.538-2.592a.407.407,0,0,0,.09-.27.5.5,0,0,0-.072-.252A16.988,16.988,0,0,1,.756-8.73a.362.362,0,0,0-.4-.342H.18a.377.377,0,0,0-.279.1.377.377,0,0,0-.1.279v.5A22.862,22.862,0,0,1-.459-4.572,9.821,9.821,0,0,1-1.539-1.44,8.189,8.189,0,0,1-3.906,1.224q-.27.216-.4.09l-.036-.072q0-.108.2-.306A8.8,8.8,0,0,0-1.872-2.97a20.083,20.083,0,0,0,.594-5.2v-3.1A24.291,24.291,0,0,0-1.4-13.914v-.072q0-.27.234-.27a.4.4,0,0,1,.18.036l.81.36a1.123,1.123,0,0,0,.468.09Zm-10.908.324a.377.377,0,0,0-.279.1.377.377,0,0,0-.1.279v9.774q.036,1.962.126,3.96v.09a.431.431,0,0,1-.18.378,1.311,1.311,0,0,1-.846.306A.361.361,0,0,1-7.3,1.323a.344.344,0,0,1-.117-.243Q-7.344.018-7.29-.981T-7.218-3.6v-7.344a27.861,27.861,0,0,0-.162-3.168v-.072q0-.27.234-.27a.4.4,0,0,1,.18.036l.828.36a1.076,1.076,0,0,0,.45.09H-4.05a.583.583,0,0,0,.45-.2l.144-.162q.054-.054.207-.216a.413.413,0,0,1,.261-.162q.126,0,.531.4a4.675,4.675,0,0,1,.621.72.244.244,0,0,1,.072.18.231.231,0,0,1-.2.234l-.2.036a.52.52,0,0,0-.45.27q-1.242,2.412-1.98,3.528a.477.477,0,0,0-.072.234A.412.412,0,0,0-4.5-8.8a5.152,5.152,0,0,1,2.052,4,2.838,2.838,0,0,1-.423,1.692,2.021,2.021,0,0,1-1.413.72h-.072q-.288,0-.342-.342A3.118,3.118,0,0,0-4.77-3.1.546.546,0,0,0-5.076-3.4a1.017,1.017,0,0,0-.306-.108q-.342-.09-.342-.2,0-.054.1-.09a.849.849,0,0,1,.279-.036h.81a.791.791,0,0,0,.468-.108q.45-.234.45-1.206A5.543,5.543,0,0,0-5-8.748a.479.479,0,0,1-.126-.324.992.992,0,0,1,.036-.2q.378-1.008,1.242-3.744a.468.468,0,0,0,.018-.144q0-.288-.342-.288ZM5.2-8.766q0-.306-.342-.306H1.494a.331.331,0,0,0-.27.108.359.359,0,0,0-.054.306A14.051,14.051,0,0,0,3.006-4.122a.314.314,0,0,0,.27.18.3.3,0,0,0,.252-.18A16.779,16.779,0,0,0,5.184-8.658Zm18.414-.468a.523.523,0,0,0,.468-.252l.09-.162q.054-.072.126-.189a.968.968,0,0,1,.126-.171.173.173,0,0,1,.126-.054,1.554,1.554,0,0,1,.576.351,4.283,4.283,0,0,1,.684.639.31.31,0,0,1,.072.2.3.3,0,0,1-.144.234.425.425,0,0,1-.2.09.442.442,0,0,0-.324.432V-2.34a1.747,1.747,0,0,1-.3,1.1,1.925,1.925,0,0,1-1.233.522H23.6a.362.362,0,0,1-.36-.306,1.094,1.094,0,0,0-.306-.468,2.763,2.763,0,0,0-1.224-.414q-.36-.054-.36-.2,0-.108.4-.108,1.674.108,1.89.108a.569.569,0,0,0,.351-.081.342.342,0,0,0,.1-.279v-5.85a.377.377,0,0,0-.1-.279.377.377,0,0,0-.279-.1H20.394a.377.377,0,0,0-.279.1.377.377,0,0,0-.1.279v4.752q.036,1.944.126,3.978V.522A.467.467,0,0,1,20,.864a1.643,1.643,0,0,1-.45.279,1.241,1.241,0,0,1-.486.117.454.454,0,0,1-.306-.108A.324.324,0,0,1,18.63.9q.072-1.062.126-2.061t.072-2.619V-8.316a.377.377,0,0,0-.1-.279.377.377,0,0,0-.279-.1H15.192a.377.377,0,0,0-.279.1.377.377,0,0,0-.1.279v2.988q.036,1.962.126,3.96v.09a.4.4,0,0,1-.162.36,1.483,1.483,0,0,1-.9.306.317.317,0,0,1-.243-.108.361.361,0,0,1-.1-.252q.108-1.674.144-3.366V-6.21a28.165,28.165,0,0,0-.162-3.168V-9.45q0-.27.234-.27a.4.4,0,0,1,.18.036l.756.342a1.2,1.2,0,0,0,.468.108H18.45a.377.377,0,0,0,.279-.1.377.377,0,0,0,.1-.279V-11.52a.377.377,0,0,0-.1-.279.377.377,0,0,0-.279-.1H14.6a19.389,19.389,0,0,0-2.376.2h-.108a.37.37,0,0,1-.36-.234l-.09-.162a.448.448,0,0,1-.054-.2q0-.27.36-.234.612.054,1.854.09H18.45a.334.334,0,0,0,.378-.378q-.036-1.1-.108-1.926v-.036q0-.324.27-.324l.162.036q1.3.4,1.3.63,0,.09-.144.18l-.054.036a.517.517,0,0,0-.234.45v.954a.377.377,0,0,0,.1.279.377.377,0,0,0,.279.1h4.14a.517.517,0,0,0,.45-.234L25.218-13l.18-.243a2.328,2.328,0,0,1,.207-.252.227.227,0,0,1,.153-.081,1.892,1.892,0,0,1,.684.432,5.534,5.534,0,0,1,.792.738.4.4,0,0,1,.09.216.257.257,0,0,1-.108.2.632.632,0,0,1-.342.09H20.52a.727.727,0,0,0-.369.072q-.117.072.027.144.252.18.252.306,0,.108-.162.216l-.018.018a.547.547,0,0,0-.234.45v1.08a.377.377,0,0,0,.1.279.377.377,0,0,0,.279.1Z" transform="translate(144.218 27.102)" fill="#f7f7f7"/>
      <path id="パス_32385" data-name="パス 32385" d="M-5.548-3.914a.4.4,0,0,1,.295.1.4.4,0,0,1,.1.294.4.4,0,0,1-.1.295.4.4,0,0,1-.295.1H-6.9a.4.4,0,0,0-.295.1.4.4,0,0,0-.1.295v1.482a.53.53,0,0,0,.361.551,2.805,2.805,0,0,0,.95.133h.247q.171,0,.171.266,0,.285-.171.285H-10.3q-.152,0-.152-.285,0-.266.152-.266h.247A2.805,2.805,0,0,0-9.1-.684a.53.53,0,0,0,.361-.551V-2.717a.4.4,0,0,0-.1-.295.4.4,0,0,0-.295-.1h-4.313a.4.4,0,0,1-.295-.1.4.4,0,0,1-.1-.295v-.133a.9.9,0,0,1,.133-.494l5.491-9.519a.443.443,0,0,1,.513-.228l.076.019a.4.4,0,0,1,.342.437v9.12a.4.4,0,0,0,.1.294.4.4,0,0,0,.295.1ZM-8.74-10.241A.466.466,0,0,0-8.8-10.5a.175.175,0,0,0-.152-.085q-.152,0-.266.209l-3.458,5.985a.473.473,0,0,0-.057.209q0,.266.342.266h3.249a.4.4,0,0,0,.295-.1.4.4,0,0,0,.1-.294ZM3.534-8.3q0-.342-.209-.342-.133,0-.266.19A19.044,19.044,0,0,1,1.5-6.479q-.209.209-.3.209-.114,0-.114-.133A.662.662,0,0,1,1.2-6.726a27.522,27.522,0,0,0,2.641-5.3,16.088,16.088,0,0,0,.579-1.786,15.7,15.7,0,0,0,.389-1.824q.057-.323.323-.323a1.143,1.143,0,0,1,.19.038q1.463.494,1.463.722,0,.076-.171.133l-.057.019a.525.525,0,0,0-.38.38,33.086,33.086,0,0,1-1.482,3.439A.506.506,0,0,0,4.636-11a.476.476,0,0,0,.19.342q.323.3.323.456,0,.1-.171.19a.493.493,0,0,0-.266.456v6.042q.038,2.071.133,4.18V.76a.408.408,0,0,1-.19.38,1.489,1.489,0,0,1-.893.323.454.454,0,0,1-.3-.114.342.342,0,0,1-.133-.266Q3.4-.038,3.458-1.092t.076-2.764Zm11.229-3.439a.546.546,0,0,0,.475-.247l.228-.323q.057-.076.171-.237a1.945,1.945,0,0,1,.2-.247A.24.24,0,0,1,16-12.882a1.861,1.861,0,0,1,.655.427,4.852,4.852,0,0,1,.77.751.418.418,0,0,1,.095.228.272.272,0,0,1-.114.209.575.575,0,0,1-.342.1H9.291a20.466,20.466,0,0,0-2.508.209H6.669a.39.39,0,0,1-.38-.247l-.095-.171a.473.473,0,0,1-.057-.209q0-.285.38-.247.646.057,1.957.1H10.45a.453.453,0,0,0,.295-.086.27.27,0,0,0,.1-.219,30.309,30.309,0,0,0-.171-3.4v-.076q0-.3.266-.3a1.142,1.142,0,0,1,.19.038q1.425.418,1.425.646,0,.095-.171.19l-.076.038a.552.552,0,0,0-.266.494v2.28a.4.4,0,0,0,.1.295.4.4,0,0,0,.294.1Zm.342,11.8A.546.546,0,0,0,15.58-.19l.228-.342Q15.9-.646,16-.779a2.6,2.6,0,0,1,.19-.237.256.256,0,0,1,.171-.1q.152,0,.684.447a5.254,5.254,0,0,1,.779.77A.411.411,0,0,1,17.917.3a.291.291,0,0,1-.095.209.632.632,0,0,1-.342.1h-8.7A20.466,20.466,0,0,0,6.27.817H6.156a.39.39,0,0,1-.38-.266L5.7.418A.473.473,0,0,1,5.643.209q0-.285.38-.247Q6.669.019,8,.057h3.667A.4.4,0,0,0,12.1-.285q.8-2.926,1.406-6.137a25.629,25.629,0,0,0,.4-3.344q0-.342.323-.342a.494.494,0,0,1,.152.019Q16-9.728,16-9.5q0,.076-.171.171l-.057.038a.692.692,0,0,0-.342.418q-.475,1.919-1.235,4.218T12.6-.4a.448.448,0,0,0-.057.19q0,.266.361.266ZM7.752-9.4a2.277,2.277,0,0,1-.076-.3.136.136,0,0,1,.076-.133H7.79q.133,0,.3.247A14.669,14.669,0,0,1,9.785-6.232a9.139,9.139,0,0,1,.532,2.85,3.62,3.62,0,0,1-.237,1.434q-.238.542-.561.541a.464.464,0,0,1-.3-.133.547.547,0,0,1-.171-.4A33.944,33.944,0,0,0,8.693-5.8,15.646,15.646,0,0,0,7.752-9.4Z" transform="translate(52 26.96)" fill="#f7f7f7"/>
    </g>
    <g id="グループ_88" data-name="グループ 88" transform="translate(-0.002 97.139)">
      <rect id="長方形_40008" data-name="長方形 40008" width="320" height="49" fill="#4f8ea7"/>
      <g id="グループ_53550" data-name="グループ 53550" transform="translate(0 0.476)">
        <path id="パス_32384" data-name="パス 32384" d="M18.6,2.18a.358.358,0,0,1-.22-.1A11.2,11.2,0,0,1,16.64.47a12.134,12.134,0,0,1-1.98-3.21,11.706,11.706,0,0,1-.94-4.86,11.706,11.706,0,0,1,.94-4.86,12.134,12.134,0,0,1,1.98-3.21,11.2,11.2,0,0,1,1.74-1.61.358.358,0,0,1,.22-.1.172.172,0,0,1,.11.04.123.123,0,0,1,.05.1.546.546,0,0,1-.14.26,16.793,16.793,0,0,0-1.48,1.86,12.314,12.314,0,0,0-1.38,2.99A14.132,14.132,0,0,0,15.1-7.6a14.132,14.132,0,0,0,.66,4.53A12.314,12.314,0,0,0,17.14-.08a16.793,16.793,0,0,0,1.48,1.86.546.546,0,0,1,.14.26.118.118,0,0,1-.06.1A.194.194,0,0,1,18.6,2.18Zm9.88-5.6a.444.444,0,0,0-.07-.26.2.2,0,0,0-.17-.1.535.535,0,0,0-.26.1Q25.96-2.3,24.3-1.26A1.65,1.65,0,0,0,24-1a.351.351,0,0,1-.04.1.232.232,0,0,1-.2.14q-.2,0-.34-.26l-.56-1.24a.5.5,0,0,1-.04-.22q0-.24.3-.32,2.16-.64,5.02-1.66a.468.468,0,0,0,.34-.48V-9.72a.419.419,0,0,0-.11-.31.419.419,0,0,0-.31-.11H26.64A21.543,21.543,0,0,0,24-9.92h-.12a.411.411,0,0,1-.4-.26l-.1-.18a.533.533,0,0,1-.06-.24.22.22,0,0,1,.1-.19.4.4,0,0,1,.28-.05q.68.06,2.06.1h2.3a.419.419,0,0,0,.31-.11.419.419,0,0,0,.11-.31v-1.02a31.9,31.9,0,0,0-.18-3.58v-.08a.283.283,0,0,1,.32-.32.52.52,0,0,1,.16.02,11.91,11.91,0,0,1,1.34.45q.38.17.38.29,0,.1-.18.2l-.06.04a.564.564,0,0,0-.28.5V-3.8q.04,2.16.14,4.42V.74a.519.519,0,0,1-.16.38,1.738,1.738,0,0,1-.53.31,1.814,1.814,0,0,1-.67.13.432.432,0,0,1-.32-.12.384.384,0,0,1-.12-.28q.12-1.64.16-3.32Zm6.04-11.66a.519.519,0,0,0-.16.44v5.66a.444.444,0,0,0,.07.26.2.2,0,0,0,.17.1.4.4,0,0,0,.28-.14q.54-.52,1.14-1.18a15,15,0,0,0,2.1-2.82.361.361,0,0,1,.32-.24.432.432,0,0,1,.28.12q1.52,1.12,1.52,1.36,0,.1-.2.1h-.08a.747.747,0,0,0-.52.2,23.57,23.57,0,0,1-2.18,1.7,23.713,23.713,0,0,1-2.6,1.58.557.557,0,0,0-.3.5v6.18a.619.619,0,0,0,.17.5,1.215,1.215,0,0,0,.71.14h1.68q1.08,0,1.6-.04a.468.468,0,0,0,.42-.26,15.9,15.9,0,0,0,.64-2.44q.08-.38.2-.38.06,0,.1.11a.944.944,0,0,1,.04.31l.06,2.16a.616.616,0,0,0,.32.5.589.589,0,0,1,.3.54.685.685,0,0,1-.32.61,2.734,2.734,0,0,1-1.12.3,22.343,22.343,0,0,1-2.32.09h-1.9a4.129,4.129,0,0,1-1.3-.16,1.086,1.086,0,0,1-.65-.54A2.469,2.469,0,0,1,32.8-.9V-12.18a31.9,31.9,0,0,0-.18-3.58v-.08q0-.32.28-.32a1.2,1.2,0,0,1,.2.04,12.8,12.8,0,0,1,1.35.45q.39.17.39.29,0,.1-.16.2Zm25.56,8.1q.08,0,.26-.28l.2-.32q.08-.12.19-.29a1.584,1.584,0,0,1,.19-.25.23.23,0,0,1,.16-.08q.14,0,.64.45a4.249,4.249,0,0,1,.72.79.372.372,0,0,1,.08.24.306.306,0,0,1-.1.22.7.7,0,0,1-.38.1H60.36q-.38,0-.42.42Q59.86-4.62,59.68-3a.841.841,0,0,0-.02.2q0,.24.1.24.14,0,.3-.28l.22-.38q.06-.1.19-.29a2.989,2.989,0,0,1,.21-.28.222.222,0,0,1,.16-.09q.14,0,.67.49a5.086,5.086,0,0,1,.77.85.372.372,0,0,1,.08.24.306.306,0,0,1-.1.22.7.7,0,0,1-.38.1H59.9a.428.428,0,0,0-.46.38A5.007,5.007,0,0,1,58.56.74a2.676,2.676,0,0,1-1.82.82h-.06a.345.345,0,0,1-.27-.1.628.628,0,0,1-.13-.3.978.978,0,0,0-.3-.58,3.59,3.59,0,0,0-1.4-.52Q54.2-.02,54.2-.2q0-.16.44-.12,1.56.16,2.08.16a1.385,1.385,0,0,0,.45-.06.825.825,0,0,0,.31-.2,2.607,2.607,0,0,0,.46-1.08.443.443,0,0,0,.02-.14q0-.34-.38-.34H51.84a.4.4,0,0,0-.44.38,6.7,6.7,0,0,1-.16.82.477.477,0,0,1-.34.42,1.26,1.26,0,0,1-.4.06q-.1,0-.46-.04-.4-.06-.34-.5.38-1.68.92-5.1l.02-.12a.305.305,0,0,0-.11-.25.444.444,0,0,0-.29-.09h-.26a5.038,5.038,0,0,0-.86.14.635.635,0,0,1-.18.04.423.423,0,0,1-.38-.26L48.5-6.6a.5.5,0,0,1-.06-.22.22.22,0,0,1,.1-.19.445.445,0,0,1,.3-.05q.4.04,1.16.08h.42a.4.4,0,0,0,.44-.38q.3-1.8.52-3.34v-.1a.414.414,0,0,0-.05-.22.165.165,0,0,0-.15-.08.428.428,0,0,0-.28.18A9.03,9.03,0,0,1,49.6-9.7q-.32.24-.42.14a.136.136,0,0,1-.04-.1.683.683,0,0,1,.16-.32,16.26,16.26,0,0,0,1.58-2.78,16.289,16.289,0,0,0,.69-1.87,12.838,12.838,0,0,0,.45-1.89q.06-.32.32-.32a.5.5,0,0,1,.22.04q1.8.64,1.8.88,0,.06-.18.14l-.08.02a.735.735,0,0,0-.4.4,10.529,10.529,0,0,1-.46,1,.614.614,0,0,0-.08.24.22.22,0,0,0,.1.19.444.444,0,0,0,.26.07h5.42a.575.575,0,0,0,.5-.26l.26-.38a3.554,3.554,0,0,0,.22-.3,2.583,2.583,0,0,1,.2-.27.222.222,0,0,1,.16-.09q.16,0,.73.49a5.313,5.313,0,0,1,.83.85.44.44,0,0,1,.1.24.288.288,0,0,1-.1.2.7.7,0,0,1-.38.1H52.98a.612.612,0,0,0-.52.28q-.2.34-.46.7a.535.535,0,0,0-.1.26.361.361,0,0,0,.24.32l.82.38a1.328,1.328,0,0,0,.52.12h4.74a.645.645,0,0,0,.52-.24l.18-.22a2.435,2.435,0,0,0,.17-.2,1.6,1.6,0,0,1,.19-.21.244.244,0,0,1,.16-.07q.14,0,.61.4a5.761,5.761,0,0,1,.73.72.344.344,0,0,1,.08.22.3.3,0,0,1-.18.26l-.16.06a.625.625,0,0,0-.29.16.516.516,0,0,0-.11.3q-.04,1.8-.1,2.62,0,.18.01.31T60.08-6.98ZM46.02-16.16q-.28-.32-.22-.38a.232.232,0,0,1,.16-.04,1.371,1.371,0,0,1,.26.02,4.525,4.525,0,0,1,2.09.94,1.739,1.739,0,0,1,.67,1.24.854.854,0,0,1-.22.6.7.7,0,0,1-.54.24,1.685,1.685,0,0,1-.3-.04.678.678,0,0,1-.36-.4,5.414,5.414,0,0,0-.64-1.12A8.765,8.765,0,0,0,46.02-16.16ZM44.56-3.96a.161.161,0,0,1,.11-.15.769.769,0,0,1,.31-.05h.42a.429.429,0,0,0,.28-.07,1.32,1.32,0,0,0,.22-.35q.24-.46.73-1.65t1.73-4.19q.6-1.5.98-2.4.16-.36.32-.36.12,0,.12.18a.959.959,0,0,1-.06.28q-2.12,6.66-2.36,7.6a7.347,7.347,0,0,0-.28,1.76,2.985,2.985,0,0,0,.09.68q.09.38.13.5.16.56.25,1.04a5.767,5.767,0,0,1,.09,1.06,2.139,2.139,0,0,1-.31,1.23,1,1,0,0,1-.87.45.531.531,0,0,1-.41-.19A1.207,1.207,0,0,1,45.8.86,1.371,1.371,0,0,1,45.78.6,1.371,1.371,0,0,1,45.8.34a15.891,15.891,0,0,0,.12-1.84,6.277,6.277,0,0,0-.11-1.29,1.065,1.065,0,0,0-.31-.65,1.326,1.326,0,0,0-.56-.24Q44.56-3.78,44.56-3.96Zm.04-7.62a1.247,1.247,0,0,1-.21-.22q-.07-.1-.03-.14a.232.232,0,0,1,.16-.04,1.371,1.371,0,0,1,.26.02,4.181,4.181,0,0,1,2.01.88,1.7,1.7,0,0,1,.65,1.22.876.876,0,0,1-.2.58.645.645,0,0,1-.52.24,1.027,1.027,0,0,1-.32-.06.611.611,0,0,1-.34-.4,4.146,4.146,0,0,0-.58-1.07A7.527,7.527,0,0,0,44.6-11.58Zm7.74,4.22q0,.38.4.38H54.3a.4.4,0,0,0,.44-.4q.16-1.28.3-2.82v-.06q0-.38-.4-.38H53.22q-.4,0-.44.3l-.44,2.9Zm3.76,0q0,.38.4.38h1.68q.42,0,.42-.4.04-.46.07-1.14t.05-1.04l.02-.66a.419.419,0,0,0-.11-.31.419.419,0,0,0-.31-.11H56.8a.365.365,0,0,0-.42.34L56.1-7.42ZM51.64-2.92q0,.36.38.36h1.7a.413.413,0,0,0,.46-.38l.38-3.02v-.08q0-.36-.38-.36h-1.6a.42.42,0,0,0-.46.4q-.24,1.66-.48,2.98ZM58.52-6q0-.4-.42-.4H56.4a.4.4,0,0,0-.44.4l-.34,3v.08q0,.36.38.36h1.76q.4,0,.44-.26.22-1.82.32-3.14ZM79.5-11.1a.575.575,0,0,0,.5-.26l.18-.26q.08-.1.16-.22a1.922,1.922,0,0,1,.17-.22.245.245,0,0,1,.17-.1q.14,0,.67.45a6.608,6.608,0,0,1,.81.79.271.271,0,0,1,.08.2.329.329,0,0,1-.18.26l-.18.1a.792.792,0,0,0-.27.18.4.4,0,0,0-.09.28v3.18q.04,2.18.14,4.4v.08a.465.465,0,0,1-.22.42,2.671,2.671,0,0,1-.57.28,1.8,1.8,0,0,1-.61.12.3.3,0,0,1-.28-.14.472.472,0,0,1-.06-.2A1.094,1.094,0,0,1,79.96-2L80-2.2q0-.4-.42-.4H74.7a.419.419,0,0,0-.31.11.419.419,0,0,0-.11.31v.34q0,.16-.4.35a1.934,1.934,0,0,1-.84.19.441.441,0,0,1-.31-.12.37.37,0,0,1-.13-.28q.14-1.8.18-3.96V-7.84a31.3,31.3,0,0,0-.18-3.52v-.08q0-.3.26-.3a.445.445,0,0,1,.2.04l1.08.48a1.328,1.328,0,0,0,.52.12h.68a.4.4,0,0,0,.44-.4l.12-1.02v-.06q0-.38-.4-.38H74.38a19.533,19.533,0,0,0-2.56.22H71.7a.411.411,0,0,1-.4-.26l-.08-.14a.5.5,0,0,1-.06-.22q0-.3.4-.26.68.06,2.06.1h3.94a.468.468,0,0,0,.48-.34,12.169,12.169,0,0,0,.66-2.72q.06-.36.36-.36a.52.52,0,0,1,.16.02q1.86.52,1.86.76,0,.08-.16.14l-.08.04a1.137,1.137,0,0,0-.42.32,19.639,19.639,0,0,1-1.44,1.62.4.4,0,0,0-.14.28.2.2,0,0,0,.1.17.444.444,0,0,0,.26.07h1.46a.564.564,0,0,0,.5-.28l.26-.38q.08-.12.21-.31a2.988,2.988,0,0,1,.21-.28.222.222,0,0,1,.16-.09,2.088,2.088,0,0,1,.76.5,5.146,5.146,0,0,1,.86.86.44.44,0,0,1,.1.24.286.286,0,0,1-.12.22.72.72,0,0,1-.36.08H78.02a.557.557,0,0,0-.5.3q-.22.4-.6,1.06a.372.372,0,0,0-.08.24q0,.26.36.26Zm-5.94-5.24a1.025,1.025,0,0,1-.18-.36q0-.08.14-.08a.959.959,0,0,1,.28.06,3.872,3.872,0,0,1,1.64.95,1.716,1.716,0,0,1,.52,1.15,1.009,1.009,0,0,1-.24.68.738.738,0,0,1-.58.28,1.118,1.118,0,0,1-.42-.1.5.5,0,0,1-.2-.19,1.122,1.122,0,0,1-.1-.29A5.056,5.056,0,0,0,73.56-16.34Zm-6.64.64a.793.793,0,0,1-.22-.36q0-.06.12-.06a.987.987,0,0,1,.3.06,5.713,5.713,0,0,1,2.39,1.36,2.391,2.391,0,0,1,.77,1.6,1.1,1.1,0,0,1-.23.72.71.71,0,0,1-.57.28,1.088,1.088,0,0,1-.4-.1.553.553,0,0,1-.32-.42,6.7,6.7,0,0,0-.72-1.56A10.644,10.644,0,0,0,66.92-15.7ZM79.58-8.52a.419.419,0,0,0,.31-.11A.419.419,0,0,0,80-8.94V-10.1a.419.419,0,0,0-.11-.31.419.419,0,0,0-.31-.11H74.7a.419.419,0,0,0-.31.11.419.419,0,0,0-.11.31v1.16a.419.419,0,0,0,.11.31.419.419,0,0,0,.31.11Zm-11.46.28a.575.575,0,0,0,.5-.26l.2-.3q.06-.08.17-.25a1.584,1.584,0,0,1,.19-.25.23.23,0,0,1,.16-.08,2.19,2.19,0,0,1,.73.46,6.977,6.977,0,0,1,.91.82.344.344,0,0,1,.08.22.329.329,0,0,1-.18.26l-.32.12a.464.464,0,0,0-.38.46v4.58a.747.747,0,0,0,.2.52,4.311,4.311,0,0,0,1.38.98,6.08,6.08,0,0,0,1.76.43,26.827,26.827,0,0,0,2.74.11q4.84,0,7.08-.06h.1a.569.569,0,0,1,.23.04q.09.04.09.08,0,.06-.1.12t-.24.14a1.211,1.211,0,0,0-.66.84.464.464,0,0,1-.46.38H76.28a16.231,16.231,0,0,1-2.83-.2A4.751,4.751,0,0,1,71.59.19,4.974,4.974,0,0,1,70.2-1.36a.429.429,0,0,0-.32-.22.437.437,0,0,0-.26.16Q68.32-.02,67.32.9q-.22.2-.22.26v.06a.42.42,0,0,1-.22.06.283.283,0,0,1-.28-.18L66.08.04a.533.533,0,0,1-.06-.24.361.361,0,0,1,.24-.32q.62-.26,2.18-1.06a.557.557,0,0,0,.3-.5V-7.22a.419.419,0,0,0-.11-.31.419.419,0,0,0-.31-.11h-.48a5.4,5.4,0,0,0-1.22.18.52.52,0,0,1-.16.02.4.4,0,0,1-.38-.28l-.06-.14a.5.5,0,0,1-.06-.22q0-.28.4-.24t1.24.08ZM80-7.52a.419.419,0,0,0-.11-.31.419.419,0,0,0-.31-.11H74.7a.419.419,0,0,0-.31.11.419.419,0,0,0-.11.31v1.18a.419.419,0,0,0,.11.31.419.419,0,0,0,.31.11h4.88a.419.419,0,0,0,.31-.11A.419.419,0,0,0,80-6.34Zm-5.3,2.2a.419.419,0,0,0-.31.11.419.419,0,0,0-.11.31v1.32a.419.419,0,0,0,.11.31.419.419,0,0,0,.31.11h4.88a.419.419,0,0,0,.31-.11A.419.419,0,0,0,80-3.58V-4.9a.419.419,0,0,0-.11-.31.419.419,0,0,0-.31-.11ZM87.64,2.04a.546.546,0,0,1,.14-.26A16.793,16.793,0,0,0,89.26-.08a12.313,12.313,0,0,0,1.38-2.99A14.132,14.132,0,0,0,91.3-7.6a14.132,14.132,0,0,0-.66-4.53,12.313,12.313,0,0,0-1.38-2.99,16.793,16.793,0,0,0-1.48-1.86.546.546,0,0,1-.14-.26.123.123,0,0,1,.05-.1.172.172,0,0,1,.11-.04.358.358,0,0,1,.22.1,11.2,11.2,0,0,1,1.74,1.61,12.134,12.134,0,0,1,1.98,3.21,11.706,11.706,0,0,1,.94,4.86,11.706,11.706,0,0,1-.94,4.86A12.134,12.134,0,0,1,89.76.47a11.2,11.2,0,0,1-1.74,1.61.358.358,0,0,1-.22.1.194.194,0,0,1-.1-.04A.118.118,0,0,1,87.64,2.04Z" transform="translate(204 31)" fill="#930e02"/>
        <path id="パス_32383" data-name="パス 32383" d="M-38.773-9.628q0-.522-.29-.522-.232,0-.406.348A24.335,24.335,0,0,1-43.7-4.234q-.435.406-.609.232a.2.2,0,0,1-.058-.145.977.977,0,0,1,.232-.493,25.312,25.312,0,0,0,2.827-5.206,38.475,38.475,0,0,0,1.929-6.191l.029-.174a.443.443,0,0,0-.16-.362.643.643,0,0,0-.42-.13h-.812a12.667,12.667,0,0,0-2.2.29l-.174.029a.65.65,0,0,1-.609-.406l-.116-.2a.722.722,0,0,1-.087-.319.347.347,0,0,1,.16-.29.584.584,0,0,1,.421-.087q.957.087,2.842.145h1.131a.608.608,0,0,0,.45-.16.608.608,0,0,0,.16-.449v-.406a46.261,46.261,0,0,0-.261-5.191v-.116a.41.41,0,0,1,.464-.464.754.754,0,0,1,.232.029,17.27,17.27,0,0,1,1.943.653q.551.247.551.42,0,.145-.261.29l-.116.087a.881.881,0,0,0-.377.725v3.973a.608.608,0,0,0,.16.449.608.608,0,0,0,.45.16h.319a.833.833,0,0,0,.725-.377l.348-.522q.116-.145.3-.406t.3-.392a.322.322,0,0,1,.232-.13q.2,0,1,.7a8.79,8.79,0,0,1,1.175,1.189.431.431,0,0,1,.116.319.386.386,0,0,1-.145.319,1.018,1.018,0,0,1-.551.145h-3.828a.608.608,0,0,0-.45.159.608.608,0,0,0-.16.45v1.537a.762.762,0,0,0,.493.725,8.051,8.051,0,0,1,3.089,2,3.383,3.383,0,0,1,.972,2.146,1.521,1.521,0,0,1-.3.986.976.976,0,0,1-.8.377,1.578,1.578,0,0,1-.58-.145,1.032,1.032,0,0,1-.464-.638,12.467,12.467,0,0,0-1.653-3.306q-.2-.29-.406-.29a.3.3,0,0,0-.246.145.7.7,0,0,0-.1.406v6.728q.058,3.132.2,6.409V1.16a.753.753,0,0,1-.232.551,2.712,2.712,0,0,1-.8.435,2.672,2.672,0,0,1-.914.174.832.832,0,0,1-.536-.174.51.51,0,0,1-.217-.406q.116-1.711.2-3.321t.116-4.22Zm8.845-8.439a46.262,46.262,0,0,0-.261-5.191v-.116a.41.41,0,0,1,.464-.464.754.754,0,0,1,.232.029,15.391,15.391,0,0,1,2.015.667q.566.261.566.435,0,.145-.232.29l-.087.058a.833.833,0,0,0-.377.725V-1.653a.956.956,0,0,0,.261.768A1.739,1.739,0,0,0-26.3-.667h2.465a19.326,19.326,0,0,0,2.349-.087.964.964,0,0,0,.377-.116.748.748,0,0,0,.261-.319,20.028,20.028,0,0,0,.986-4.234q.116-.551.29-.551t.174.609l.116,3.915a.808.808,0,0,0,.435.725,1.142,1.142,0,0,1,.363.348.852.852,0,0,1,.1.435A.933.933,0,0,1-18.85.9a4.085,4.085,0,0,1-1.639.406q-1.174.116-3.465.116h-2.813A4.081,4.081,0,0,1-29.261.87a2.532,2.532,0,0,1-.667-2.03Zm23.954-1.218a.843.843,0,0,0,.754-.406l.145-.261q.058-.087.189-.275a2.15,2.15,0,0,1,.232-.29.3.3,0,0,1,.217-.1,2.294,2.294,0,0,1,.885.537,6.74,6.74,0,0,1,1.059,1,.627.627,0,0,1,.145.319q0,.174-.261.377l-.29.145a.665.665,0,0,0-.522.667v11.02A4.136,4.136,0,0,1-3.7-4.843a1.617,1.617,0,0,1-1.116.812.5.5,0,0,1-.2.029q-.406,0-.493-.58L-5.6-5.017a1.43,1.43,0,0,0-.377-.609q-.145-.087-.58-.319-.2-.116-.2-.232,0-.174.435-.174l.783.029a.282.282,0,0,0,.247-.1.588.588,0,0,0,.073-.333V-17.864a.608.608,0,0,0-.159-.449.608.608,0,0,0-.45-.16h-.435a.608.608,0,0,0-.45.16.608.608,0,0,0-.159.449V-5.336q.058,3.161.2,6.38V1.16a.674.674,0,0,1-.319.609,2.423,2.423,0,0,1-1.479.522A.555.555,0,0,1-8.859,2.1a.555.555,0,0,1-.189-.391q.116-1.711.2-3.321t.116-4.219V-17.864a.608.608,0,0,0-.16-.449.608.608,0,0,0-.449-.16H-9.6a.608.608,0,0,0-.45.16.608.608,0,0,0-.16.449v6.9q.058,3.161.2,6.38v.145a.776.776,0,0,1-.261.609,2.423,2.423,0,0,1-1.479.522.605.605,0,0,1-.42-.174.537.537,0,0,1-.189-.406q.116-1.537.189-3.045t.1-3.8v-3.712a44.6,44.6,0,0,0-.261-5.075v-.116q0-.435.377-.435a.646.646,0,0,1,.29.058l1.218.551a1.786,1.786,0,0,0,.754.174h.2a.538.538,0,0,0,.609-.609q-.058-2.32-.2-3.741v-.116a.41.41,0,0,1,.464-.464.754.754,0,0,1,.232.029q2.32.667,2.32,1.044,0,.145-.232.29l-.087.058a.818.818,0,0,0-.406.725v2.175a.608.608,0,0,0,.159.449.608.608,0,0,0,.45.16ZM8.12-22.939a.818.818,0,0,0,.725-.406l.2-.29q.087-.116.232-.319a2.51,2.51,0,0,1,.246-.3.3.3,0,0,1,.218-.1,2.216,2.216,0,0,1,.87.536,6.645,6.645,0,0,1,1.015.972.627.627,0,0,1,.145.319.429.429,0,0,1-.261.377l-.174.087a.665.665,0,0,0-.522.667v2q.087,2.929.145,4.408v.145a.608.608,0,0,1-.319.58,3.107,3.107,0,0,1-1.6.406.319.319,0,0,1-.275-.145.644.644,0,0,1-.1-.377q0-.493-.609-.493H1.015a.608.608,0,0,0-.45.16.608.608,0,0,0-.16.449v.116q0,.174-.508.392a3.041,3.041,0,0,1-1.2.217.468.468,0,0,1-.377-.174.615.615,0,0,1-.145-.406q.116-1.131.174-2.9v-1.74a42.229,42.229,0,0,0-.2-4.495v-.116q0-.464.377-.464a.646.646,0,0,1,.29.058l1.6.7a1.734,1.734,0,0,0,.725.145Zm-.058,3.567a.608.608,0,0,0,.449-.16.608.608,0,0,0,.16-.45V-21.46a.608.608,0,0,0-.16-.449.608.608,0,0,0-.449-.16H1.015a.608.608,0,0,0-.45.16.608.608,0,0,0-.16.449v1.479a.608.608,0,0,0,.16.45.608.608,0,0,0,.45.16Zm-7.047.812a.608.608,0,0,0-.45.159.608.608,0,0,0-.16.45v1.624a.608.608,0,0,0,.16.45.608.608,0,0,0,.45.16H8.062a.608.608,0,0,0,.449-.16.608.608,0,0,0,.16-.45v-1.624a.608.608,0,0,0-.16-.45.608.608,0,0,0-.449-.159ZM8.874-7.83A.818.818,0,0,0,9.6-8.236l.29-.464q.116-.174.275-.42a2.3,2.3,0,0,1,.276-.362.334.334,0,0,1,.232-.116,2.759,2.759,0,0,1,.986.653A6.475,6.475,0,0,1,12.789-7.8a.5.5,0,0,1,.116.319.439.439,0,0,1-.174.348.8.8,0,0,1-.493.116h-4.2a.608.608,0,0,0-.45.16.608.608,0,0,0-.16.45V-.58A.46.46,0,0,0,7.54-.2a1,1,0,0,0,.522.087H9.4L10.7-.145a.509.509,0,0,0,.218-.087,1,1,0,0,0,.188-.261,5.969,5.969,0,0,0,.232-.87q.145-.667.232-.986l.261-1.073q.116-.551.29-.551.058,0,.116.174a1.393,1.393,0,0,1,.058.435L12.354-.87a.726.726,0,0,0,.087.377,2.186,2.186,0,0,0,.319.377.883.883,0,0,1,.261.7,1.057,1.057,0,0,1-.8.986,9.08,9.08,0,0,1-2.944.319H7.453a2.457,2.457,0,0,1-1.711-.42A2.194,2.194,0,0,1,5.336-.058V-6.409a.608.608,0,0,0-.16-.45.608.608,0,0,0-.45-.16H3.654a.574.574,0,0,0-.638.58A10.616,10.616,0,0,1,.827-1,11.031,11.031,0,0,1-4.321,2.146a1.431,1.431,0,0,1-.435.087q-.174,0-.2-.116V2.03q0-.174.435-.406A9.423,9.423,0,0,0-.783-1.61,11.066,11.066,0,0,0,.667-6.38V-6.5q0-.522-.58-.522H-.522a8.532,8.532,0,0,0-1.566.232.92.92,0,0,1-.261.058.558.558,0,0,1-.522-.377l-.087-.174a.772.772,0,0,1-.087-.348A.319.319,0,0,1-2.9-7.9a.583.583,0,0,1,.406-.073q.986.087,2.987.145H2.639a.645.645,0,0,0,.45-.145.521.521,0,0,0,.159-.406,46.261,46.261,0,0,0-.261-5.191v-.116q0-.464.406-.464a1.744,1.744,0,0,1,.29.058,15.323,15.323,0,0,1,1.784.609q.507.232.507.406,0,.087-.232.261l-.058.029a.818.818,0,0,0-.406.725v3.625a.608.608,0,0,0,.16.45.608.608,0,0,0,.45.159Zm-.667-5.191q.087-.464.464-.464a.722.722,0,0,1,.319.087l.754.406a6.28,6.28,0,0,0,.7.319q.9.319.9.551,0,.174-.319.261l-.116.029a1.225,1.225,0,0,0-.667.435A17.784,17.784,0,0,1,7.366-8.874q-.435.29-.58.145A.236.236,0,0,1,6.728-8.9a.981.981,0,0,1,.145-.464A18.406,18.406,0,0,0,8.207-13.021Zm-9.889.522q-.348-.522-.2-.609a.168.168,0,0,1,.116-.029,1.165,1.165,0,0,1,.464.116A6.261,6.261,0,0,1,1.03-11.44a2.7,2.7,0,0,1,.739,1.7,1.315,1.315,0,0,1-.3.9.948.948,0,0,1-.74.348A.965.965,0,0,1,.2-8.642.831.831,0,0,1-.232-9.28,10.488,10.488,0,0,0-1.682-12.5Zm39.469-2.436a.818.818,0,0,0,.725-.406l.232-.348q.058-.087.2-.319a1.533,1.533,0,0,1,.261-.333.354.354,0,0,1,.232-.1,2.778,2.778,0,0,1,1.044.638,8.37,8.37,0,0,1,1.247,1.16.5.5,0,0,1,.116.319.476.476,0,0,1-.261.377l-.261.145a.665.665,0,0,0-.522.667v9.019a4.727,4.727,0,0,1-.188,1.464,1.772,1.772,0,0,1-.8.943,4.769,4.769,0,0,1-1.769.551l-.174.029q-.406,0-.551-.522A1.635,1.635,0,0,0,36.8-2.668a3.952,3.952,0,0,0-1.856-.754q-.58-.087-.58-.319,0-.174.464-.174.58,0,1.856.116l1.189.058a.733.733,0,0,0,.522-.145.636.636,0,0,0,.145-.464v-9.135a.608.608,0,0,0-.16-.45.608.608,0,0,0-.45-.159H33.06a.608.608,0,0,0-.449.159.608.608,0,0,0-.16.45v7.743q.058,3.161.2,6.38V.783a.776.776,0,0,1-.261.609,2.684,2.684,0,0,1-.841.493,2.725,2.725,0,0,1-.986.2.832.832,0,0,1-.537-.174.51.51,0,0,1-.217-.406q.116-1.711.2-3.321t.116-4.22v-7.453a.608.608,0,0,0-.16-.45.608.608,0,0,0-.45-.159H24.737a.608.608,0,0,0-.45.159.608.608,0,0,0-.159.45v4.756q.058,3.161.2,6.38V-2.2a.623.623,0,0,1-.29.58,2.656,2.656,0,0,1-.826.435,3.072,3.072,0,0,1-1,.174.556.556,0,0,1-.406-.174.556.556,0,0,1-.174-.406q.2-2.494.261-5.539v-3.074a44.887,44.887,0,0,0-.261-5.1v-.116q0-.435.377-.435a.646.646,0,0,1,.29.058l1.653.725a1.734,1.734,0,0,0,.725.145h4.843a.608.608,0,0,0,.45-.16.608.608,0,0,0,.16-.45V-18.56a.608.608,0,0,0-.16-.45.608.608,0,0,0-.45-.16H23.461a30.045,30.045,0,0,0-3.828.319h-.145a.653.653,0,0,1-.609-.377l-.116-.232a1.615,1.615,0,0,1-.116-.348.319.319,0,0,1,.145-.275.583.583,0,0,1,.406-.073q.986.087,2.987.145h7.337a.538.538,0,0,0,.609-.609q-.058-1.943-.2-3.19v-.058q0-.522.464-.522a.754.754,0,0,1,.232.029q2.552.667,2.552,1.044,0,.116-.232.261L32.857-23a.818.818,0,0,0-.406.725v1.653a.608.608,0,0,0,.16.45.608.608,0,0,0,.449.16h6.148a.833.833,0,0,0,.725-.377l.464-.638q.087-.145.3-.449a3.739,3.739,0,0,1,.363-.45.4.4,0,0,1,.261-.145,3.65,3.65,0,0,1,1.218.8,10.635,10.635,0,0,1,1.421,1.319.431.431,0,0,1,.116.319.386.386,0,0,1-.145.319,1.018,1.018,0,0,1-.551.145H32.277l.261.029a.884.884,0,0,1,.522.247.222.222,0,0,1-.029.362l-.087.029a1.272,1.272,0,0,0-.377.29.634.634,0,0,0-.116.406v2.262a.608.608,0,0,0,.16.45.608.608,0,0,0,.449.16Z" transform="translate(153.354 35)" fill="#930e02"/>
        <path id="パス_32382" data-name="パス 32382" d="M-12.76-11.4q-.348.087-.348.174t.319.174A7.34,7.34,0,0,1-9.208-9.121a4.61,4.61,0,0,1,1.348,3.35,5.861,5.861,0,0,1-.8,2.9A6.209,6.209,0,0,1-11.093-.522a8.04,8.04,0,0,1-4.016.928A7.058,7.058,0,0,1-18.43-.3a5.018,5.018,0,0,1-2-1.769,3.984,3.984,0,0,1-.653-2.1,1.892,1.892,0,0,1,.522-1.465,1.677,1.677,0,0,1,1.16-.478,2.037,2.037,0,0,1,1.233.391,1.329,1.329,0,0,1,.536,1.145,1.639,1.639,0,0,1-.406.986,2.79,2.79,0,0,0-.29.435.968.968,0,0,0-.087.435,1.935,1.935,0,0,0,.74,1.508A3.474,3.474,0,0,0-15.37-.58a3.9,3.9,0,0,0,3.219-1.537,6.017,6.017,0,0,0,1.218-3.857A5.054,5.054,0,0,0-12.078-9.41a4.088,4.088,0,0,0-3.263-1.32,4.726,4.726,0,0,0-.609.058,5.032,5.032,0,0,1-.7.058.819.819,0,0,1-.551-.174.58.58,0,0,1-.2-.464.536.536,0,0,1,.218-.435.832.832,0,0,1,.536-.174,3.1,3.1,0,0,1,.754.087,6.231,6.231,0,0,0,.725.058,3.947,3.947,0,0,0,2.392-.826q1.116-.826,1.116-3.494a4.586,4.586,0,0,0-1.029-3.379,3.4,3.4,0,0,0-2.451-1,3.515,3.515,0,0,0-1.667.406,1.443,1.443,0,0,0-.769,1.392,1.568,1.568,0,0,0,.116.638q.116.261.145.319a1.788,1.788,0,0,1,.261.87,1.392,1.392,0,0,1-.392,1.03,1.319,1.319,0,0,1-.972.392,1.6,1.6,0,0,1-1.348-.58,2.25,2.25,0,0,1-.45-1.421,3.112,3.112,0,0,1,.7-1.8,5.465,5.465,0,0,1,1.957-1.609,6.062,6.062,0,0,1,2.828-.653,7.029,7.029,0,0,1,3.132.681,5.293,5.293,0,0,1,2.16,1.856,4.69,4.69,0,0,1,.768,2.625A4.732,4.732,0,0,1-9.7-13.253,5.626,5.626,0,0,1-12.76-11.4Zm17.951-.928q0-.522-.29-.522a.555.555,0,0,0-.435.29,23.924,23.924,0,0,1-2.291,2.7.718.718,0,0,1-.464.261.154.154,0,0,1-.174-.174.919.919,0,0,1,.2-.493,45.132,45.132,0,0,0,3.915-8.149q.435-1.247.841-2.813a26.409,26.409,0,0,0,.58-2.755q.058-.493.464-.493a1.744,1.744,0,0,1,.29.058q2.7.9,2.7,1.247,0,.116-.261.232l-.116.029A.871.871,0,0,0,9.6-22.3a53.649,53.649,0,0,1-2.291,5.162.722.722,0,0,0-.087.319.746.746,0,0,0,.29.551q.58.464.58.754,0,.145-.232.29a.658.658,0,0,0-.406.667v9.193q.058,3.161.2,6.38v.116a.674.674,0,0,1-.319.609,3.978,3.978,0,0,1-.812.406,2.554,2.554,0,0,1-.9.174.832.832,0,0,1-.537-.174.51.51,0,0,1-.218-.406q.116-1.711.2-3.321T5.191-5.8Zm17.052-5.6a.833.833,0,0,0,.725-.377l.406-.58q.116-.174.319-.449a3.751,3.751,0,0,1,.333-.406.366.366,0,0,1,.247-.131,3.57,3.57,0,0,1,1.131.74,9.327,9.327,0,0,1,1.334,1.233.638.638,0,0,1,.145.348.415.415,0,0,1-.174.319,1.076,1.076,0,0,1-.58.145H14.268a31.238,31.238,0,0,0-3.828.319h-.174a.6.6,0,0,1-.58-.377l-.116-.232a.772.772,0,0,1-.087-.348.319.319,0,0,1,.145-.276.583.583,0,0,1,.406-.073q.986.087,2.987.145h2.726a.692.692,0,0,0,.449-.131.412.412,0,0,0,.16-.333,46.261,46.261,0,0,0-.261-5.191v-.116q0-.464.435-.464a.754.754,0,0,1,.232.029q2.639.667,2.639,1.044,0,.145-.232.29l-.116.058a.843.843,0,0,0-.406.754v3.451a.608.608,0,0,0,.16.45.608.608,0,0,0,.449.16Zm.522,18.1A.833.833,0,0,0,23.49-.2l.435-.609q.145-.2.333-.479a2.973,2.973,0,0,1,.319-.406.366.366,0,0,1,.246-.131,3.327,3.327,0,0,1,1.16.769A9.1,9.1,0,0,1,27.318.232a.638.638,0,0,1,.145.348A.364.364,0,0,1,27.289.9a.877.877,0,0,1-.522.145H13.543a31.238,31.238,0,0,0-3.828.319H9.541a.6.6,0,0,1-.58-.377L8.816.725A.722.722,0,0,1,8.729.406q0-.435.58-.377Q10.3.116,12.3.174h5.481a.63.63,0,0,0,.7-.522q1.015-4.06,2-9.628A35.49,35.49,0,0,0,21-15.051a.571.571,0,0,1,.174-.464.523.523,0,0,1,.493-.058l2.523.7q.493.174.493.464a.261.261,0,0,1-.174.232.2.2,0,0,1-.145.058,1.264,1.264,0,0,0-.42.246.761.761,0,0,0-.189.363Q22.939-10.5,21.735-7T19.169-.551a.722.722,0,0,0-.087.319q0,.406.522.406ZM11.774-14.5a1.431,1.431,0,0,1-.087-.435q0-.2.087-.232l.058-.029a.892.892,0,0,1,.464.377A20.421,20.421,0,0,1,15.08-9.729a13.309,13.309,0,0,1,.87,4.393,5.6,5.6,0,0,1-.435,2.393q-.435.913-1.015.913a.913.913,0,0,1-.667-.348.835.835,0,0,1-.261-.609,49.813,49.813,0,0,0-.435-5.9A24.47,24.47,0,0,0,11.774-14.5Z" transform="translate(53 35)" fill="#930e02"/>
      </g>
    </g>
    <g id="グループ_87" data-name="グループ 87" transform="translate(0.998 48.139)">
      <rect id="長方形_40005" data-name="長方形 40005" width="320" height="40" transform="translate(-1)" fill="#70a1b4"/>
      <g id="グループ_53549" data-name="グループ 53549" transform="translate(0 0.96)">
        <path id="パス_32381" data-name="パス 32381" d="M16.758,1.962a.322.322,0,0,1-.2-.09A11.262,11.262,0,0,1,15.03.405,10.881,10.881,0,0,1,13.3-2.475a10.75,10.75,0,0,1-.828-4.365A10.75,10.75,0,0,1,13.3-11.2a10.881,10.881,0,0,1,1.728-2.88,11.262,11.262,0,0,1,1.53-1.467.322.322,0,0,1,.2-.09.155.155,0,0,1,.1.036.111.111,0,0,1,.045.09.492.492,0,0,1-.126.234q-.054.072-.891,1.008A9.265,9.265,0,0,0,14.31-11.25a13.135,13.135,0,0,0-.738,4.41,12.208,12.208,0,0,0,.63,4.1A11.177,11.177,0,0,0,15.4-.171q.567.8,1.377,1.773a.492.492,0,0,1,.126.234.1.1,0,0,1-.054.1A.212.212,0,0,1,16.758,1.962Zm6.264-8.01q0-.324-.2-.324a.4.4,0,0,0-.27.144,16.02,16.02,0,0,1-1.926,1.674.615.615,0,0,1-.288.144q-.126,0-.126-.072,0-.108.216-.324a20.524,20.524,0,0,0,2.3-2.79,19.806,19.806,0,0,0,1.782-3.06.571.571,0,0,0,.036-.162.24.24,0,0,0-.09-.2.394.394,0,0,0-.252-.072h-.828a15.047,15.047,0,0,0-2.124.2H21.15a.393.393,0,0,1-.36-.234l-.054-.126a.69.69,0,0,1-.054-.216q0-.216.342-.2.414.036,1.206.072h.432a.334.334,0,0,0,.378-.378q-.036-1.53-.162-2.7v-.036a.336.336,0,0,1,.081-.234.266.266,0,0,1,.207-.09l.162.036a6.713,6.713,0,0,1,.981.36q.279.144.279.252,0,.09-.162.18l-.072.036a.523.523,0,0,0-.252.468v1.728a.4.4,0,0,0,.09.279.3.3,0,0,0,.234.1h.018a.549.549,0,0,0,.468-.216l.144-.162q.072-.072.207-.225a.362.362,0,0,1,.243-.153q.126,0,.477.333a3.6,3.6,0,0,1,.549.639.448.448,0,0,1,.054.2.227.227,0,0,1-.054.153.261.261,0,0,1-.162.081l-.144.018a.818.818,0,0,0-.261.1.5.5,0,0,0-.171.207,19.291,19.291,0,0,1-1.4,2.25.482.482,0,0,0-.09.234q0,.18.234.288a3.763,3.763,0,0,1,1.35.927,1.541,1.541,0,0,1,.432.963.69.69,0,0,1-.135.441.426.426,0,0,1-.351.171,1.082,1.082,0,0,1-.18-.036.407.407,0,0,1-.2-.117.7.7,0,0,1-.126-.243A5.143,5.143,0,0,0,24.57-7a.34.34,0,0,0-.252-.162.183.183,0,0,0-.153.09.4.4,0,0,0-.063.234v3.492q.036,1.962.126,3.96V.7a.482.482,0,0,1-.162.378,1.36,1.36,0,0,1-.882.306.344.344,0,0,1-.243-.117.344.344,0,0,1-.117-.243q.072-1.062.126-2.061t.072-2.619Zm6.534-7.308a19.389,19.389,0,0,0-2.376.2h-.108a.37.37,0,0,1-.36-.234l-.072-.144a.479.479,0,0,1-.054-.216.2.2,0,0,1,.09-.171.362.362,0,0,1,.252-.045q.612.054,1.854.09H33.8a.517.517,0,0,0,.45-.234l.18-.27q.054-.072.153-.225a1.425,1.425,0,0,1,.171-.225A.207.207,0,0,1,34.9-14.9a1.539,1.539,0,0,1,.612.387,4.275,4.275,0,0,1,.684.675.4.4,0,0,1,.09.216.224.224,0,0,1-.072.162.468.468,0,0,1-.342.108Zm3.762,1.62a.508.508,0,0,0,.45-.252l.072-.126q.054-.072.126-.18a1.1,1.1,0,0,1,.126-.162.173.173,0,0,1,.126-.054,1.1,1.1,0,0,1,.477.288,2.951,2.951,0,0,1,.531.54.31.31,0,0,1,.072.2.215.215,0,0,1-.09.189.711.711,0,0,1-.252.1.515.515,0,0,0-.2.378v.756l.036.864q0,.36.036.972v.09a.386.386,0,0,1-.18.36,1.454,1.454,0,0,1-.81.234.144.144,0,0,1-.135-.09.524.524,0,0,1-.045-.234.3.3,0,0,0-.1-.234.4.4,0,0,0-.279-.09H29.07a.377.377,0,0,0-.279.1.377.377,0,0,0-.1.279v.072q0,.09-.261.216a1.462,1.462,0,0,1-.639.126.191.191,0,0,1-.171-.108.491.491,0,0,1-.063-.252q.054-.414.072-.846a3.88,3.88,0,0,1,.018-.414v-.828q0-.972-.09-2.016v-.072q0-.27.234-.27a.4.4,0,0,1,.18.036l.72.324a1.2,1.2,0,0,0,.468.108Zm-4.248.522a.377.377,0,0,0-.279.1.377.377,0,0,0-.1.279V-9.09a.377.377,0,0,0,.1.279.377.377,0,0,0,.279.1h4.212a.377.377,0,0,0,.279-.1.377.377,0,0,0,.1-.279v-1.746a.377.377,0,0,0-.1-.279.377.377,0,0,0-.279-.1ZM28.206.216a.377.377,0,0,0-.279.1.377.377,0,0,0-.1.279v.432q0,.09-.252.225a1.323,1.323,0,0,1-.63.135.273.273,0,0,1-.216-.108.382.382,0,0,1-.09-.252q.108-1.4.144-2.808v-1.6a27.861,27.861,0,0,0-.162-3.168v-.072q0-.27.234-.27a.4.4,0,0,1,.18.036l.792.342a1.076,1.076,0,0,0,.45.09h5.94a.517.517,0,0,0,.45-.234l.072-.108q.036-.054.144-.2A.29.29,0,0,1,35.1-7.11a1.229,1.229,0,0,1,.5.261,3.058,3.058,0,0,1,.567.5.244.244,0,0,1,.072.18.268.268,0,0,1-.144.234l-.126.054a.413.413,0,0,0-.324.414v2.088q.036,1.98.126,3.942V.63a.435.435,0,0,1-.2.4,1.548,1.548,0,0,1-.846.252.209.209,0,0,1-.18-.126.425.425,0,0,1-.054-.18.985.985,0,0,1,.036-.216l.036-.18q0-.36-.378-.36ZM30.24-3.51a.377.377,0,0,0,.279-.1.377.377,0,0,0,.1-.279v-1.62a.377.377,0,0,0-.1-.279.377.377,0,0,0-.279-.1H28.206a.377.377,0,0,0-.279.1.377.377,0,0,0-.1.279v1.62a.377.377,0,0,0,.1.279.377.377,0,0,0,.279.1Zm3.942,0a.377.377,0,0,0,.279-.1.377.377,0,0,0,.1-.279v-1.62a.377.377,0,0,0-.1-.279.377.377,0,0,0-.279-.1H32.058a.377.377,0,0,0-.279.1.377.377,0,0,0-.1.279v1.62a.377.377,0,0,0,.1.279.377.377,0,0,0,.279.1Zm-3.564.918a.377.377,0,0,0-.1-.279.377.377,0,0,0-.279-.1H28.206a.377.377,0,0,0-.279.1.377.377,0,0,0-.1.279V-.7a.377.377,0,0,0,.1.279.377.377,0,0,0,.279.1H30.24a.377.377,0,0,0,.279-.1.377.377,0,0,0,.1-.279Zm1.44-.378a.377.377,0,0,0-.279.1.377.377,0,0,0-.1.279V-.7a.377.377,0,0,0,.1.279.377.377,0,0,0,.279.1h2.124a.377.377,0,0,0,.279-.1.377.377,0,0,0,.1-.279v-1.89a.377.377,0,0,0-.1-.279.377.377,0,0,0-.279-.1ZM42.606-13.3a.377.377,0,0,0-.279.1.377.377,0,0,0-.1.279v9.558q.036,1.944.126,3.978V.7a.488.488,0,0,1-.144.36,1.23,1.23,0,0,1-.4.261,1.235,1.235,0,0,1-.486.1.408.408,0,0,1-.27-.108.324.324,0,0,1-.126-.252Q41,0,41.058-1t.072-2.619v-7.218a27.681,27.681,0,0,0-.162-3.15v-.072q0-.288.216-.288a.448.448,0,0,1,.2.054l.738.342a1.2,1.2,0,0,0,.468.108H53.082a.534.534,0,0,0,.468-.234l.09-.126a2.045,2.045,0,0,0,.171-.216q.117-.162.225-.162a1.512,1.512,0,0,1,.558.306,3.766,3.766,0,0,1,.666.576.389.389,0,0,1,.09.2q0,.126-.18.252a.454.454,0,0,1-.108.054.7.7,0,0,0-.09.036.413.413,0,0,0-.324.414V-.288A1.785,1.785,0,0,1,54.333.846a2.053,2.053,0,0,1-1.323.54L52.9,1.4q-.252,0-.342-.306a.878.878,0,0,0-.4-.45A4.056,4.056,0,0,0,50.67.216q-.36-.054-.36-.18,0-.108.288-.108.45,0,1.53.072.594.054.9.054a.6.6,0,0,0,.4-.108.472.472,0,0,0,.117-.36v-12.51a.377.377,0,0,0-.1-.279.377.377,0,0,0-.279-.1ZM50.67-9.144a.517.517,0,0,0,.45-.234l.18-.252q.072-.09.171-.225a1.841,1.841,0,0,1,.171-.207.207.207,0,0,1,.144-.072,1.509,1.509,0,0,1,.6.369,3.936,3.936,0,0,1,.675.657.4.4,0,0,1,.09.216.257.257,0,0,1-.108.2.6.6,0,0,1-.324.09h-4.05a.377.377,0,0,0-.279.1.377.377,0,0,0-.1.279v4.842a.377.377,0,0,0,.1.279.377.377,0,0,0,.279.1H50.2a.377.377,0,0,0,.279-.1.377.377,0,0,0,.1-.279V-3.51a28.226,28.226,0,0,0-.162-3.2v-.072q0-.288.252-.288a1.082,1.082,0,0,1,.18.036Q52-6.678,52-6.48q0,.072-.144.162H51.84a.5.5,0,0,0-.252.468v.972Q51.642-2.916,51.7-2v.09a.482.482,0,0,1-.162.378,1.318,1.318,0,0,1-.774.27.22.22,0,0,1-.2-.126.448.448,0,0,1-.054-.2,1.517,1.517,0,0,1,.036-.252l.036-.234v-.036a.377.377,0,0,0-.1-.279.377.377,0,0,0-.279-.1H45.45a.377.377,0,0,0-.279.1.377.377,0,0,0-.1.279v.018q.018.18.018.414l.018.162a.4.4,0,0,1-.126.288,1.067,1.067,0,0,1-.342.2,1.152,1.152,0,0,1-.4.072.265.265,0,0,1-.225-.108.408.408,0,0,1-.081-.252q.072-.666.108-1.692V-4.032a24.685,24.685,0,0,0-.126-2.682v-.072q0-.288.252-.288a1.082,1.082,0,0,1,.18.036q1.116.36,1.116.558,0,.072-.126.162h-.018a.5.5,0,0,0-.252.468v2.466a.377.377,0,0,0,.1.279.377.377,0,0,0,.279.1h1.4a.377.377,0,0,0,.279-.1.377.377,0,0,0,.1-.279V-8.226a.377.377,0,0,0-.1-.279.377.377,0,0,0-.279-.1H45.792a19.389,19.389,0,0,0-2.376.2h-.108a.37.37,0,0,1-.36-.252l-.072-.162a.448.448,0,0,1-.054-.2q0-.252.36-.216.612.054,1.872.09h3.2a.439.439,0,0,0,.432-.288l.036-.09a15.9,15.9,0,0,0,.567-1.575A15.955,15.955,0,0,0,49.7-12.69q.054-.288.306-.288a.546.546,0,0,1,.162.018q1.368.468,1.368.666,0,.054-.162.126l-.072.036a.79.79,0,0,0-.378.324,18.667,18.667,0,0,1-1.53,2.2.389.389,0,0,0-.108.252q0,.216.324.216ZM44.8-12.4q-.18-.342-.09-.4a.1.1,0,0,1,.072-.018.44.44,0,0,1,.288.126,4.344,4.344,0,0,1,1.341,1.26,2.327,2.327,0,0,1,.423,1.224.978.978,0,0,1-.162.585.491.491,0,0,1-.414.225.639.639,0,0,1-.288-.072.5.5,0,0,1-.234-.414,6.057,6.057,0,0,0-.351-1.269A9.639,9.639,0,0,0,44.8-12.4ZM59.418,1.836a.492.492,0,0,1,.126-.234q.054-.072.891-1.008A9.265,9.265,0,0,0,62.01-2.43a13.135,13.135,0,0,0,.738-4.41,12.208,12.208,0,0,0-.63-4.1,11.177,11.177,0,0,0-1.2-2.574q-.567-.8-1.377-1.773a.492.492,0,0,1-.126-.234.111.111,0,0,1,.045-.09.155.155,0,0,1,.1-.036.322.322,0,0,1,.2.09,11.262,11.262,0,0,1,1.53,1.467,10.881,10.881,0,0,1,1.728,2.88,10.75,10.75,0,0,1,.828,4.365,10.75,10.75,0,0,1-.828,4.365A10.881,10.881,0,0,1,61.29.405a11.261,11.261,0,0,1-1.53,1.467.322.322,0,0,1-.2.09.212.212,0,0,1-.09-.027A.1.1,0,0,1,59.418,1.836Z" transform="translate(217 26)" fill="#f7f7f7"/>
        <path id="パス_32380" data-name="パス 32380" d="M-24.858-6.048q0-.324-.2-.324a.4.4,0,0,0-.27.144,16.02,16.02,0,0,1-1.926,1.674.615.615,0,0,1-.288.144q-.126,0-.126-.072,0-.108.216-.324a20.524,20.524,0,0,0,2.3-2.79,19.806,19.806,0,0,0,1.782-3.06.571.571,0,0,0,.036-.162.24.24,0,0,0-.09-.2.394.394,0,0,0-.252-.072H-24.5a15.047,15.047,0,0,0-2.124.2h-.108a.393.393,0,0,1-.36-.234l-.054-.126a.69.69,0,0,1-.054-.216q0-.216.342-.2.414.036,1.206.072h.432a.334.334,0,0,0,.378-.378q-.036-1.53-.162-2.7v-.036a.336.336,0,0,1,.081-.234.266.266,0,0,1,.207-.09l.162.036a6.713,6.713,0,0,1,.981.36q.279.144.279.252,0,.09-.162.18l-.072.036a.523.523,0,0,0-.252.468v1.728a.4.4,0,0,0,.09.279.3.3,0,0,0,.234.1h.018a.549.549,0,0,0,.468-.216l.144-.162q.072-.072.207-.225a.362.362,0,0,1,.243-.153q.126,0,.477.333a3.6,3.6,0,0,1,.549.639.448.448,0,0,1,.054.2.227.227,0,0,1-.054.153.261.261,0,0,1-.162.081l-.144.018a.818.818,0,0,0-.261.1.5.5,0,0,0-.171.207,19.291,19.291,0,0,1-1.4,2.25.482.482,0,0,0-.09.234q0,.18.234.288A3.763,3.763,0,0,1-22-6.921a1.541,1.541,0,0,1,.432.963.69.69,0,0,1-.135.441.426.426,0,0,1-.351.171,1.082,1.082,0,0,1-.18-.036.407.407,0,0,1-.2-.117.7.7,0,0,1-.126-.243A5.143,5.143,0,0,0-23.31-7a.34.34,0,0,0-.252-.162.183.183,0,0,0-.153.09.4.4,0,0,0-.063.234v3.492q.036,1.962.126,3.96V.7a.482.482,0,0,1-.162.378,1.36,1.36,0,0,1-.882.306.344.344,0,0,1-.243-.117.344.344,0,0,1-.117-.243q.072-1.062.126-2.061t.072-2.619Zm6.534-7.308a19.389,19.389,0,0,0-2.376.2h-.108a.37.37,0,0,1-.36-.234l-.072-.144a.479.479,0,0,1-.054-.216.2.2,0,0,1,.09-.171.362.362,0,0,1,.252-.045q.612.054,1.854.09h5.022a.517.517,0,0,0,.45-.234l.18-.27q.054-.072.153-.225a1.425,1.425,0,0,1,.171-.225.207.207,0,0,1,.144-.072,1.539,1.539,0,0,1,.612.387,4.275,4.275,0,0,1,.684.675.4.4,0,0,1,.09.216.224.224,0,0,1-.072.162.468.468,0,0,1-.342.108Zm3.762,1.62a.508.508,0,0,0,.45-.252l.072-.126q.054-.072.126-.18a1.1,1.1,0,0,1,.126-.162.173.173,0,0,1,.126-.054,1.1,1.1,0,0,1,.477.288,2.951,2.951,0,0,1,.531.54.31.31,0,0,1,.072.2.215.215,0,0,1-.09.189.711.711,0,0,1-.252.1.515.515,0,0,0-.2.378v.756l.036.864q0,.36.036.972v.09a.386.386,0,0,1-.18.36,1.454,1.454,0,0,1-.81.234.144.144,0,0,1-.135-.09.524.524,0,0,1-.045-.234.3.3,0,0,0-.1-.234.4.4,0,0,0-.279-.09H-18.81a.377.377,0,0,0-.279.1.377.377,0,0,0-.1.279v.072q0,.09-.261.216a1.462,1.462,0,0,1-.639.126.191.191,0,0,1-.171-.108.491.491,0,0,1-.063-.252q.054-.414.072-.846a3.88,3.88,0,0,1,.018-.414v-.828q0-.972-.09-2.016v-.072q0-.27.234-.27a.4.4,0,0,1,.18.036l.72.324a1.2,1.2,0,0,0,.468.108Zm-4.248.522a.377.377,0,0,0-.279.1.377.377,0,0,0-.1.279V-9.09a.377.377,0,0,0,.1.279.377.377,0,0,0,.279.1H-14.6a.377.377,0,0,0,.279-.1.377.377,0,0,0,.1-.279v-1.746a.377.377,0,0,0-.1-.279.377.377,0,0,0-.279-.1ZM-19.674.216a.377.377,0,0,0-.279.1.377.377,0,0,0-.1.279v.432q0,.09-.252.225a1.323,1.323,0,0,1-.63.135.273.273,0,0,1-.216-.108.382.382,0,0,1-.09-.252q.108-1.4.144-2.808v-1.6a27.861,27.861,0,0,0-.162-3.168v-.072q0-.27.234-.27a.4.4,0,0,1,.18.036l.792.342a1.076,1.076,0,0,0,.45.09h5.94a.517.517,0,0,0,.45-.234l.072-.108q.036-.054.144-.2a.29.29,0,0,1,.216-.144,1.229,1.229,0,0,1,.495.261,3.057,3.057,0,0,1,.567.5.244.244,0,0,1,.072.18.268.268,0,0,1-.144.234l-.126.054a.413.413,0,0,0-.324.414v2.088q.036,1.98.126,3.942V.63a.435.435,0,0,1-.2.4,1.548,1.548,0,0,1-.846.252.209.209,0,0,1-.18-.126.425.425,0,0,1-.054-.18.985.985,0,0,1,.036-.216l.036-.18q0-.36-.378-.36ZM-17.64-3.51a.377.377,0,0,0,.279-.1.377.377,0,0,0,.1-.279v-1.62a.377.377,0,0,0-.1-.279.377.377,0,0,0-.279-.1h-2.034a.377.377,0,0,0-.279.1.377.377,0,0,0-.1.279v1.62a.377.377,0,0,0,.1.279.377.377,0,0,0,.279.1Zm3.942,0a.377.377,0,0,0,.279-.1.377.377,0,0,0,.1-.279v-1.62a.377.377,0,0,0-.1-.279.377.377,0,0,0-.279-.1h-2.124a.377.377,0,0,0-.279.1.377.377,0,0,0-.1.279v1.62a.377.377,0,0,0,.1.279.377.377,0,0,0,.279.1Zm-3.564.918a.377.377,0,0,0-.1-.279.377.377,0,0,0-.279-.1h-2.034a.377.377,0,0,0-.279.1.377.377,0,0,0-.1.279V-.7a.377.377,0,0,0,.1.279.377.377,0,0,0,.279.1h2.034a.377.377,0,0,0,.279-.1.377.377,0,0,0,.1-.279Zm1.44-.378a.377.377,0,0,0-.279.1.377.377,0,0,0-.1.279V-.7a.377.377,0,0,0,.1.279.377.377,0,0,0,.279.1H-13.7a.377.377,0,0,0,.279-.1.377.377,0,0,0,.1-.279v-1.89a.377.377,0,0,0-.1-.279.377.377,0,0,0-.279-.1ZM-5.274-13.3a.377.377,0,0,0-.279.1.377.377,0,0,0-.1.279v9.558q.036,1.944.126,3.978V.7a.488.488,0,0,1-.144.36,1.23,1.23,0,0,1-.4.261,1.235,1.235,0,0,1-.486.1.408.408,0,0,1-.27-.108.324.324,0,0,1-.126-.252Q-6.876,0-6.822-1t.072-2.619v-7.218a27.68,27.68,0,0,0-.162-3.15v-.072q0-.288.216-.288a.448.448,0,0,1,.2.054l.738.342a1.2,1.2,0,0,0,.468.108H5.2a.534.534,0,0,0,.468-.234l.09-.126a2.045,2.045,0,0,0,.171-.216q.117-.162.225-.162a1.512,1.512,0,0,1,.558.306,3.766,3.766,0,0,1,.666.576.389.389,0,0,1,.09.2q0,.126-.18.252a.454.454,0,0,1-.108.054.7.7,0,0,0-.09.036.413.413,0,0,0-.324.414V-.288A1.785,1.785,0,0,1,6.453.846a2.053,2.053,0,0,1-1.323.54L5.022,1.4Q4.77,1.4,4.68,1.1a.878.878,0,0,0-.4-.45A4.056,4.056,0,0,0,2.79.216Q2.43.162,2.43.036q0-.108.288-.108.45,0,1.53.072.594.054.9.054a.6.6,0,0,0,.4-.108.472.472,0,0,0,.117-.36v-12.51a.377.377,0,0,0-.1-.279.377.377,0,0,0-.279-.1ZM2.79-9.144a.517.517,0,0,0,.45-.234l.18-.252q.072-.09.171-.225a1.841,1.841,0,0,1,.171-.207.207.207,0,0,1,.144-.072,1.509,1.509,0,0,1,.6.369,3.935,3.935,0,0,1,.675.657.4.4,0,0,1,.09.216.257.257,0,0,1-.108.2.6.6,0,0,1-.324.09H.792a.377.377,0,0,0-.279.1.377.377,0,0,0-.1.279v4.842a.377.377,0,0,0,.1.279.377.377,0,0,0,.279.1h1.53a.377.377,0,0,0,.279-.1.377.377,0,0,0,.1-.279V-3.51a28.227,28.227,0,0,0-.162-3.2v-.072q0-.288.252-.288a1.082,1.082,0,0,1,.18.036q1.152.36,1.152.558,0,.072-.144.162H3.96a.5.5,0,0,0-.252.468v.972Q3.762-2.916,3.816-2v.09a.482.482,0,0,1-.162.378,1.318,1.318,0,0,1-.774.27.22.22,0,0,1-.2-.126.448.448,0,0,1-.054-.2,1.517,1.517,0,0,1,.036-.252L2.7-2.07v-.036a.377.377,0,0,0-.1-.279.377.377,0,0,0-.279-.1H-2.43a.377.377,0,0,0-.279.1.377.377,0,0,0-.1.279v.018q.018.18.018.414l.018.162a.4.4,0,0,1-.126.288,1.067,1.067,0,0,1-.342.2,1.152,1.152,0,0,1-.4.072.265.265,0,0,1-.225-.108.408.408,0,0,1-.081-.252q.072-.666.108-1.692V-4.032A24.685,24.685,0,0,0-3.96-6.714v-.072q0-.288.252-.288a1.082,1.082,0,0,1,.18.036q1.116.36,1.116.558,0,.072-.126.162h-.018a.5.5,0,0,0-.252.468v2.466a.377.377,0,0,0,.1.279.377.377,0,0,0,.279.1h1.4a.377.377,0,0,0,.279-.1.377.377,0,0,0,.1-.279V-8.226a.377.377,0,0,0-.1-.279.377.377,0,0,0-.279-.1H-2.088a19.389,19.389,0,0,0-2.376.2h-.108a.37.37,0,0,1-.36-.252L-5-8.82a.448.448,0,0,1-.054-.2q0-.252.36-.216.612.054,1.872.09h3.2A.439.439,0,0,0,.81-9.432l.036-.09A15.9,15.9,0,0,0,1.413-11.1a15.955,15.955,0,0,0,.405-1.593q.054-.288.306-.288a.546.546,0,0,1,.162.018q1.368.468,1.368.666,0,.054-.162.126l-.072.036a.79.79,0,0,0-.378.324,18.667,18.667,0,0,1-1.53,2.2A.389.389,0,0,0,1.4-9.36q0,.216.324.216ZM-3.078-12.4q-.18-.342-.09-.4a.1.1,0,0,1,.072-.018.44.44,0,0,1,.288.126,4.344,4.344,0,0,1,1.341,1.26,2.327,2.327,0,0,1,.423,1.224.978.978,0,0,1-.162.585A.491.491,0,0,1-1.62-9.4a.639.639,0,0,1-.288-.072.5.5,0,0,1-.234-.414,6.057,6.057,0,0,0-.351-1.269A9.639,9.639,0,0,0-3.078-12.4ZM23.616-9.234a.523.523,0,0,0,.468-.252l.09-.162q.054-.072.126-.189a.968.968,0,0,1,.126-.171.173.173,0,0,1,.126-.054,1.554,1.554,0,0,1,.576.351,4.283,4.283,0,0,1,.684.639.31.31,0,0,1,.072.2.3.3,0,0,1-.144.234.425.425,0,0,1-.2.09.442.442,0,0,0-.324.432V-2.34a1.747,1.747,0,0,1-.3,1.1,1.925,1.925,0,0,1-1.233.522H23.6a.362.362,0,0,1-.36-.306,1.094,1.094,0,0,0-.306-.468,2.763,2.763,0,0,0-1.224-.414q-.36-.054-.36-.2,0-.108.4-.108,1.674.108,1.89.108a.569.569,0,0,0,.351-.081.342.342,0,0,0,.1-.279v-5.85a.377.377,0,0,0-.1-.279.377.377,0,0,0-.279-.1H20.394a.377.377,0,0,0-.279.1.377.377,0,0,0-.1.279v4.752q.036,1.944.126,3.978V.522A.467.467,0,0,1,20,.864a1.643,1.643,0,0,1-.45.279,1.241,1.241,0,0,1-.486.117.454.454,0,0,1-.306-.108A.324.324,0,0,1,18.63.9q.072-1.062.126-2.061t.072-2.619V-8.316a.377.377,0,0,0-.1-.279.377.377,0,0,0-.279-.1H15.192a.377.377,0,0,0-.279.1.377.377,0,0,0-.1.279v2.988q.036,1.962.126,3.96v.09a.4.4,0,0,1-.162.36,1.483,1.483,0,0,1-.9.306.317.317,0,0,1-.243-.108.361.361,0,0,1-.1-.252q.108-1.674.144-3.366V-6.21a28.165,28.165,0,0,0-.162-3.168V-9.45q0-.27.234-.27a.4.4,0,0,1,.18.036l.756.342a1.2,1.2,0,0,0,.468.108H18.45a.377.377,0,0,0,.279-.1.377.377,0,0,0,.1-.279V-11.52a.377.377,0,0,0-.1-.279.377.377,0,0,0-.279-.1H14.6a19.389,19.389,0,0,0-2.376.2h-.108a.37.37,0,0,1-.36-.234l-.09-.162a.448.448,0,0,1-.054-.2q0-.27.36-.234.612.054,1.854.09H18.45a.334.334,0,0,0,.378-.378q-.036-1.1-.108-1.926v-.036q0-.324.27-.324l.162.036q1.3.4,1.3.63,0,.09-.144.18l-.054.036a.517.517,0,0,0-.234.45v.954a.377.377,0,0,0,.1.279.377.377,0,0,0,.279.1h4.14a.517.517,0,0,0,.45-.234L25.218-13l.18-.243a2.328,2.328,0,0,1,.207-.252.227.227,0,0,1,.153-.081,1.892,1.892,0,0,1,.684.432,5.534,5.534,0,0,1,.792.738.4.4,0,0,1,.09.216.257.257,0,0,1-.108.2.632.632,0,0,1-.342.09H20.52a.727.727,0,0,0-.369.072q-.117.072.027.144.252.18.252.306,0,.108-.162.216l-.018.018a.547.547,0,0,0-.234.45v1.08a.377.377,0,0,0,.1.279.377.377,0,0,0,.279.1Z" transform="translate(144.218 26)" fill="#f7f7f7"/>
        <path id="パス_32379" data-name="パス 32379" d="M-12.616,0q-.133,0-.133-.266,0-.285.133-.285h.3a3.372,3.372,0,0,0,1.5-.285.939.939,0,0,0,.57-.893v-9.1a1.885,1.885,0,0,0-.1-.769.64.64,0,0,0-.494-.266,10.319,10.319,0,0,0-1.454-.067h-.323q-.133,0-.133-.285,0-.266.133-.266a6.237,6.237,0,0,0,1.852-.257A4.988,4.988,0,0,0-9.2-13.566a.46.46,0,0,1,.247-.114q.228,0,.228.342V-1.729q0,1.178,2.071,1.178h.285a.1.1,0,0,1,.1.067.6.6,0,0,1,.028.218q0,.266-.133.266ZM3.534-8.3q0-.342-.209-.342-.133,0-.266.19A19.044,19.044,0,0,1,1.5-6.479q-.209.209-.3.209-.114,0-.114-.133A.662.662,0,0,1,1.2-6.726a27.522,27.522,0,0,0,2.641-5.3,16.088,16.088,0,0,0,.579-1.786,15.7,15.7,0,0,0,.389-1.824q.057-.323.323-.323a1.143,1.143,0,0,1,.19.038q1.463.494,1.463.722,0,.076-.171.133l-.057.019a.525.525,0,0,0-.38.38,33.086,33.086,0,0,1-1.482,3.439A.506.506,0,0,0,4.636-11a.476.476,0,0,0,.19.342q.323.3.323.456,0,.1-.171.19a.493.493,0,0,0-.266.456v6.042q.038,2.071.133,4.18V.76a.408.408,0,0,1-.19.38,1.489,1.489,0,0,1-.893.323.454.454,0,0,1-.3-.114.342.342,0,0,1-.133-.266Q3.4-.038,3.458-1.092t.076-2.764Zm11.229-3.439a.546.546,0,0,0,.475-.247l.228-.323q.057-.076.171-.237a1.945,1.945,0,0,1,.2-.247A.24.24,0,0,1,16-12.882a1.861,1.861,0,0,1,.655.427,4.852,4.852,0,0,1,.77.751.418.418,0,0,1,.095.228.272.272,0,0,1-.114.209.575.575,0,0,1-.342.1H9.291a20.466,20.466,0,0,0-2.508.209H6.669a.39.39,0,0,1-.38-.247l-.095-.171a.473.473,0,0,1-.057-.209q0-.285.38-.247.646.057,1.957.1H10.45a.453.453,0,0,0,.295-.086.27.27,0,0,0,.1-.219,30.309,30.309,0,0,0-.171-3.4v-.076q0-.3.266-.3a1.142,1.142,0,0,1,.19.038q1.425.418,1.425.646,0,.095-.171.19l-.076.038a.552.552,0,0,0-.266.494v2.28a.4.4,0,0,0,.1.295.4.4,0,0,0,.294.1Zm.342,11.8A.546.546,0,0,0,15.58-.19l.228-.342Q15.9-.646,16-.779a2.6,2.6,0,0,1,.19-.237.256.256,0,0,1,.171-.1q.152,0,.684.447a5.254,5.254,0,0,1,.779.77A.411.411,0,0,1,17.917.3a.291.291,0,0,1-.095.209.632.632,0,0,1-.342.1h-8.7A20.466,20.466,0,0,0,6.27.817H6.156a.39.39,0,0,1-.38-.266L5.7.418A.473.473,0,0,1,5.643.209q0-.285.38-.247Q6.669.019,8,.057h3.667A.4.4,0,0,0,12.1-.285q.8-2.926,1.406-6.137a25.629,25.629,0,0,0,.4-3.344q0-.342.323-.342a.494.494,0,0,1,.152.019Q16-9.728,16-9.5q0,.076-.171.171l-.057.038a.692.692,0,0,0-.342.418q-.475,1.919-1.235,4.218T12.6-.4a.448.448,0,0,0-.057.19q0,.266.361.266ZM7.752-9.4a2.277,2.277,0,0,1-.076-.3.136.136,0,0,1,.076-.133H7.79q.133,0,.3.247A14.669,14.669,0,0,1,9.785-6.232a9.139,9.139,0,0,1,.532,2.85,3.62,3.62,0,0,1-.237,1.434q-.238.542-.561.541a.464.464,0,0,1-.3-.133.547.547,0,0,1-.171-.4A33.944,33.944,0,0,0,8.693-5.8,15.646,15.646,0,0,0,7.752-9.4Z" transform="translate(52 26)" fill="#f7f7f7"/>
      </g>
    </g>
    <g id="グループ_86" data-name="グループ 86" transform="translate(0.998 0.139)">
      <rect id="長方形_40004" data-name="長方形 40004" width="320" height="39" transform="translate(-1)" fill="#4f8ea7"/>
      <g id="グループ_53548" data-name="グループ 53548" transform="translate(0 0.96)">
        <path id="パス_32376" data-name="パス 32376" d="M16.758,1.962a.322.322,0,0,1-.2-.09A11.262,11.262,0,0,1,15.03.405,10.881,10.881,0,0,1,13.3-2.475a10.75,10.75,0,0,1-.828-4.365A10.75,10.75,0,0,1,13.3-11.2a10.881,10.881,0,0,1,1.728-2.88,11.262,11.262,0,0,1,1.53-1.467.322.322,0,0,1,.2-.09.155.155,0,0,1,.1.036.111.111,0,0,1,.045.09.492.492,0,0,1-.126.234q-.054.072-.891,1.008A9.265,9.265,0,0,0,14.31-11.25a13.135,13.135,0,0,0-.738,4.41,12.208,12.208,0,0,0,.63,4.1A11.177,11.177,0,0,0,15.4-.171q.567.8,1.377,1.773a.492.492,0,0,1,.126.234.1.1,0,0,1-.054.1A.212.212,0,0,1,16.758,1.962Zm8.028-9.018a.348.348,0,0,0-.252-.144q-.216,0-.216.324V-3.33q.036,1.962.126,3.96V.72a.431.431,0,0,1-.18.378A1.434,1.434,0,0,1,23.4,1.4a.408.408,0,0,1-.27-.108A.324.324,0,0,1,23,1.044q.072-1.062.126-2.061T23.2-3.636V-6.1a.4.4,0,0,0-.063-.234.183.183,0,0,0-.153-.09.363.363,0,0,0-.252.126A18.58,18.58,0,0,1,20.61-4.554q-.252.216-.36.108a.073.073,0,0,1-.018-.054q0-.09.216-.306A20.39,20.39,0,0,0,22.9-7.569,19.45,19.45,0,0,0,24.8-10.638a.448.448,0,0,0,.054-.2q0-.252-.342-.252H23.6a17.58,17.58,0,0,0-2.3.2H21.2a.419.419,0,0,1-.4-.234l-.072-.126a.479.479,0,0,1-.054-.216q0-.234.36-.2.414.036,1.278.072h.486a.334.334,0,0,0,.378-.378q-.036-1.53-.162-2.7v-.036a.336.336,0,0,1,.081-.234.266.266,0,0,1,.207-.09l.162.036q1.242.4,1.242.612,0,.09-.144.18l-.054.036a.517.517,0,0,0-.234.45v1.746a.377.377,0,0,0,.1.279.377.377,0,0,0,.279.1h.126a.583.583,0,0,0,.45-.2l.162-.18q.054-.054.207-.216a.413.413,0,0,1,.261-.162q.126,0,.459.333a4.98,4.98,0,0,1,.549.639.425.425,0,0,1,.054.18.246.246,0,0,1-.216.252l-.144.036a.626.626,0,0,0-.45.288,13.319,13.319,0,0,1-1.494,2.25.373.373,0,0,0-.108.234q0,.162.252.27a3.927,3.927,0,0,1,1.4.927,1.526,1.526,0,0,1,.45.981.653.653,0,0,1-.135.432.435.435,0,0,1-.351.162,1.082,1.082,0,0,1-.18-.036.487.487,0,0,1-.306-.324A5.608,5.608,0,0,0,24.786-7.056Zm9.4-4.788a.517.517,0,0,0,.45-.234l.09-.108q.054-.054.171-.2a.314.314,0,0,1,.225-.144,1.263,1.263,0,0,1,.5.27,3.335,3.335,0,0,1,.594.522.31.31,0,0,1,.072.2.3.3,0,0,1-.162.234.276.276,0,0,1-.108.036.442.442,0,0,0-.324.432v3.078Q35.73-5.8,35.82-3.8v.09a.386.386,0,0,1-.18.36,2.927,2.927,0,0,1-.432.225,1.117,1.117,0,0,1-.432.1.209.209,0,0,1-.18-.126.3.3,0,0,1-.036-.162,1.516,1.516,0,0,1,.036-.27l.036-.216v-.018a.377.377,0,0,0-.1-.279.377.377,0,0,0-.279-.1H32.328a.377.377,0,0,0-.279.1.377.377,0,0,0-.1.279v1.332Q32-.432,32.058.558V.666a.467.467,0,0,1-.144.342,1.251,1.251,0,0,1-.4.252,1.2,1.2,0,0,1-.468.108.366.366,0,0,1-.27-.108.345.345,0,0,1-.108-.252q.108-1.674.144-3.348V-3.816a.377.377,0,0,0-.1-.279.377.377,0,0,0-.279-.1H28.62a.4.4,0,0,0-.279.09.323.323,0,0,0-.1.252,2.632,2.632,0,0,1,.018.324l.018.18a.417.417,0,0,1-.126.306,1.442,1.442,0,0,1-.36.189,1.223,1.223,0,0,1-.432.081.29.29,0,0,1-.225-.117.373.373,0,0,1-.1-.243q.126-1.674.162-3.672V-8.82a27.681,27.681,0,0,0-.162-3.15v-.072a.327.327,0,0,1,.063-.207.188.188,0,0,1,.153-.081.448.448,0,0,1,.2.054l.666.324a.963.963,0,0,0,.468.108h1.854a.334.334,0,0,0,.378-.378q-.036-1.494-.126-2.412v-.072q0-.288.252-.288a1.082,1.082,0,0,1,.18.036q1.26.4,1.26.63,0,.09-.144.18l-.054.036a.517.517,0,0,0-.234.45v1.44a.377.377,0,0,0,.1.279.377.377,0,0,0,.279.1Zm-3.744,3.51a.377.377,0,0,0,.279-.1.377.377,0,0,0,.1-.279v-2.232a.377.377,0,0,0-.1-.279.377.377,0,0,0-.279-.1H28.62a.377.377,0,0,0-.279.1.377.377,0,0,0-.1.279v2.232a.377.377,0,0,0,.1.279.377.377,0,0,0,.279.1Zm3.816,0a.377.377,0,0,0,.279-.1.377.377,0,0,0,.1-.279v-2.232a.377.377,0,0,0-.1-.279.377.377,0,0,0-.279-.1H32.328a.377.377,0,0,0-.279.1.377.377,0,0,0-.1.279v2.232a.377.377,0,0,0,.1.279.377.377,0,0,0,.279.1Zm-5.634.522a.377.377,0,0,0-.279.1.377.377,0,0,0-.1.279v2.34a.377.377,0,0,0,.1.279.377.377,0,0,0,.279.1h1.818a.377.377,0,0,0,.279-.1.377.377,0,0,0,.1-.279v-2.34a.377.377,0,0,0-.1-.279.377.377,0,0,0-.279-.1Zm3.708,0a.377.377,0,0,0-.279.1.377.377,0,0,0-.1.279v2.34a.377.377,0,0,0,.1.279.377.377,0,0,0,.279.1h1.926a.377.377,0,0,0,.279-.1.377.377,0,0,0,.1-.279v-2.34a.377.377,0,0,0-.1-.279.377.377,0,0,0-.279-.1ZM52.92-12.276a.517.517,0,0,0,.45-.234l.234-.324.18-.243a2.328,2.328,0,0,1,.207-.252.227.227,0,0,1,.153-.081q.144,0,.666.441a5.217,5.217,0,0,1,.756.747.389.389,0,0,1,.09.2.275.275,0,0,1-.09.2.632.632,0,0,1-.342.09H50.346q-.342,0-.342.234a.482.482,0,0,0,.09.234,9.385,9.385,0,0,0,2.394,2.25,13.434,13.434,0,0,0,3.168,1.566q.324.108.324.18a.086.086,0,0,1-.054.081q-.054.027-.117.054t-.135.063a1.176,1.176,0,0,0-.54.54q-.144.252-.324.252a.323.323,0,0,1-.162-.054A11.869,11.869,0,0,1,51.6-8.478a9.993,9.993,0,0,1-2.133-2.97.439.439,0,0,0-.432-.288H46.944a.482.482,0,0,0-.45.252,14.154,14.154,0,0,1-6.246,5.652q-.342.144-.4.036v-.036q0-.108.252-.27a14.736,14.736,0,0,0,4.968-5.184.448.448,0,0,0,.054-.2.222.222,0,0,0-.09-.18.363.363,0,0,0-.234-.072h-1.62a19.389,19.389,0,0,0-2.376.2H40.7a.37.37,0,0,1-.36-.234l-.09-.162a.479.479,0,0,1-.054-.216.2.2,0,0,1,.09-.171.362.362,0,0,1,.252-.045q.612.054,1.854.09h2.916a.439.439,0,0,0,.432-.288,10.3,10.3,0,0,0,.792-2.358q.036-.288.288-.288a1.082,1.082,0,0,1,.18.036q1.368.468,1.368.648,0,.09-.18.144l-.072.036a.6.6,0,0,0-.378.342q-.306.756-.576,1.278a.448.448,0,0,0-.054.2q0,.252.342.252ZM46.566-7.74a8.81,8.81,0,0,0-1.62.18.309.309,0,0,1-.126.018.359.359,0,0,1-.342-.252l-.072-.126a.448.448,0,0,1-.054-.2q0-.27.36-.234.612.054,1.854.09h2.358a.517.517,0,0,0,.45-.234l.18-.234.153-.207a1.841,1.841,0,0,1,.171-.207.207.207,0,0,1,.144-.072,1.5,1.5,0,0,1,.567.351,3.727,3.727,0,0,1,.657.639.31.31,0,0,1,.072.2.244.244,0,0,1-.072.18.537.537,0,0,1-.36.108Zm4.968,2.124a.517.517,0,0,0,.45-.234l.2-.288.171-.225a2.391,2.391,0,0,1,.189-.225.207.207,0,0,1,.144-.072,1.579,1.579,0,0,1,.621.4A4.386,4.386,0,0,1,54-5.58a.275.275,0,0,1,.09.2.246.246,0,0,1-.108.18.6.6,0,0,1-.324.09H48.816a.377.377,0,0,0-.279.1.377.377,0,0,0-.1.279V-.378a1.948,1.948,0,0,1-.3,1.152,1.721,1.721,0,0,1-1.161.558l-.108.018q-.252,0-.342-.324a.853.853,0,0,0-.288-.5,2.733,2.733,0,0,0-1.152-.4q-.36-.054-.36-.2,0-.108.4-.108l.963.072q.495.036.819.036A.417.417,0,0,0,47.2-.144.351.351,0,0,0,47.268-.4V-4.734a.377.377,0,0,0-.1-.279.377.377,0,0,0-.279-.1H44.658a19.389,19.389,0,0,0-2.376.2h-.108a.37.37,0,0,1-.36-.234l-.072-.126a.479.479,0,0,1-.054-.216.2.2,0,0,1,.09-.171.362.362,0,0,1,.252-.045q.612.054,1.854.09Zm-7.542,1.71q.108-.252.288-.252a.335.335,0,0,1,.216.072l.4.252a4.356,4.356,0,0,0,.414.216q.432.234.432.342,0,.09-.2.126h-.054a.576.576,0,0,0-.432.252,12.157,12.157,0,0,1-1.71,1.728A13.615,13.615,0,0,1,41.184.324q-.306.162-.4.036A.073.073,0,0,1,40.77.306q0-.108.216-.306a9.438,9.438,0,0,0,1.278-1.224,9.911,9.911,0,0,0,.99-1.3A8.949,8.949,0,0,0,43.992-3.906Zm6.1.45q-.324-.234-.234-.324a.176.176,0,0,1,.126-.036.863.863,0,0,1,.252.054,8.85,8.85,0,0,1,2.286,1.053,4.7,4.7,0,0,1,1.278,1.2,2,2,0,0,1,.4,1.08.726.726,0,0,1-.153.486.486.486,0,0,1-.387.18.632.632,0,0,1-.18-.018.531.531,0,0,1-.342-.306A6.776,6.776,0,0,0,51.9-1.809,15.521,15.521,0,0,0,50.094-3.456Zm22.3-7.2a29.334,29.334,0,0,0-.162-3.222v-.072a.3.3,0,0,1,.072-.207.251.251,0,0,1,.2-.081.571.571,0,0,1,.162.036q1.314.4,1.314.63,0,.09-.144.18l-.054.036a.517.517,0,0,0-.234.45v9.5q.036,1.962.126,3.96v.09a.511.511,0,0,1-.144.378,1.392,1.392,0,0,1-.9.36.454.454,0,0,1-.306-.108.324.324,0,0,1-.126-.252q.072-1.062.126-2.061T72.4-3.654Zm-10.548-.45a25.6,25.6,0,0,0-.126-2.736v-.072q0-.288.252-.288a1.082,1.082,0,0,1,.18.036q1.242.378,1.242.612,0,.09-.144.18l-.054.036a.508.508,0,0,0-.252.45v4.9a19.51,19.51,0,0,1-.684,5.256A8.289,8.289,0,0,1,59.868,1.17q-.27.252-.4.126a.122.122,0,0,1-.036-.09.563.563,0,0,1,.126-.288,9.357,9.357,0,0,0,1.8-3.87,23.625,23.625,0,0,0,.486-5.04Zm5.094,1.134a29.332,29.332,0,0,0-.162-3.222v-.072a.3.3,0,0,1,.072-.207.251.251,0,0,1,.2-.081.571.571,0,0,1,.162.036,9.946,9.946,0,0,1,1.008.369q.288.135.288.261,0,.09-.162.18l-.054.036a.508.508,0,0,0-.252.45v7.056q.036,1.962.126,3.96v.09A.482.482,0,0,1,68-.738a1.434,1.434,0,0,1-.864.306.345.345,0,0,1-.252-.108.345.345,0,0,1-.108-.252q.126-1.818.162-4.014ZM78.858,1.836a.492.492,0,0,1,.126-.234q.054-.072.891-1.008A9.264,9.264,0,0,0,81.45-2.43a13.136,13.136,0,0,0,.738-4.41,12.208,12.208,0,0,0-.63-4.1,11.177,11.177,0,0,0-1.2-2.574q-.567-.8-1.377-1.773a.492.492,0,0,1-.126-.234.111.111,0,0,1,.045-.09.155.155,0,0,1,.1-.036.322.322,0,0,1,.2.09,11.262,11.262,0,0,1,1.53,1.467,10.881,10.881,0,0,1,1.728,2.88,10.75,10.75,0,0,1,.828,4.365,10.75,10.75,0,0,1-.828,4.365A10.881,10.881,0,0,1,80.73.405,11.262,11.262,0,0,1,79.2,1.872a.322.322,0,0,1-.2.09.212.212,0,0,1-.09-.027A.1.1,0,0,1,78.858,1.836Z" transform="translate(205 26)" fill="#f7f7f7"/>
        <path id="パス_32377" data-name="パス 32377" d="M-14.076-12.978a.517.517,0,0,0,.45-.234l.18-.27q.054-.072.153-.225a1.425,1.425,0,0,1,.171-.225A.207.207,0,0,1-12.978-14q.144,0,.594.387a4.575,4.575,0,0,1,.666.675.31.31,0,0,1,.072.2.273.273,0,0,1-.108.216.5.5,0,0,1-.306.072h-2.394a.377.377,0,0,0-.279.1.377.377,0,0,0-.1.279V-10.8a.377.377,0,0,0,.1.279.377.377,0,0,0,.279.1h.63a.517.517,0,0,0,.45-.234l.18-.252q.054-.072.153-.216a1.588,1.588,0,0,1,.171-.216.207.207,0,0,1,.144-.072q.144,0,.585.378a4.462,4.462,0,0,1,.657.666.268.268,0,0,1,.072.2.275.275,0,0,1-.09.2.544.544,0,0,1-.324.09h-4.3a.377.377,0,0,0-.279.1.377.377,0,0,0-.1.279v.72a.377.377,0,0,0,.1.279.377.377,0,0,0,.279.1h2a.517.517,0,0,0,.45-.234l.072-.108a2.067,2.067,0,0,0,.162-.2.29.29,0,0,1,.216-.144,1.164,1.164,0,0,1,.477.243,2.819,2.819,0,0,1,.549.477.31.31,0,0,1,.072.2.266.266,0,0,1-.162.234A.276.276,0,0,1-12.4-7.9a.442.442,0,0,0-.324.432v1.53q.054,2.268.108,3.348v.09a.386.386,0,0,1-.18.36,1.328,1.328,0,0,1-.81.252q-.18,0-.18-.342a.323.323,0,0,0-.1-.252.4.4,0,0,0-.279-.09h-5.6a.377.377,0,0,0-.279.1.377.377,0,0,0-.1.279v.216q0,.09-.252.225a1.281,1.281,0,0,1-.612.135.234.234,0,0,1-.189-.108.408.408,0,0,1-.081-.252q.072-.828.108-2.124v-1.26a28.165,28.165,0,0,0-.162-3.168V-8.6q0-.27.234-.27a.4.4,0,0,1,.18.036l.756.342a1.123,1.123,0,0,0,.468.09h1.764a.377.377,0,0,0,.279-.1.377.377,0,0,0,.1-.279V-9.5a.377.377,0,0,0-.1-.279.377.377,0,0,0-.279-.1H-21.69q-.342,0-.4-.216t-.4-.216h-.972a.377.377,0,0,0-.279.1.377.377,0,0,0-.1.279v.9a.5.5,0,0,0,.27.45A4.615,4.615,0,0,1-22.14-7.425a1.907,1.907,0,0,1,.45,1.107.726.726,0,0,1-.144.468.443.443,0,0,1-.36.18.992.992,0,0,1-.2-.036.621.621,0,0,1-.306-.4,8.414,8.414,0,0,0-.666-1.422.279.279,0,0,0-.252-.2q-.216,0-.216.324v4.014q.036,1.944.126,3.978V.7a.467.467,0,0,1-.144.342,1.281,1.281,0,0,1-.4.234,1.252,1.252,0,0,1-.45.09A.454.454,0,0,1-25,1.26a.324.324,0,0,1-.126-.252q.072-1.062.126-2.061t.072-2.619v-2.2q0-.324-.18-.324-.126,0-.234.234A14.122,14.122,0,0,1-27.18-3.024a.731.731,0,0,1-.225.189.127.127,0,0,1-.153-.009.147.147,0,0,1-.036-.108.633.633,0,0,1,.09-.306A19.772,19.772,0,0,0-25.218-9.9l.018-.108a.275.275,0,0,0-.1-.225.4.4,0,0,0-.261-.081h-.27a3.636,3.636,0,0,0-.81.144.468.468,0,0,1-.144.018.393.393,0,0,1-.36-.234l-.054-.126a.448.448,0,0,1-.054-.2q0-.252.36-.216.4.036,1.152.072h.432a.377.377,0,0,0,.279-.1.377.377,0,0,0,.1-.279v-.234a29.021,29.021,0,0,0-.162-3.222v-.072a.3.3,0,0,1,.072-.207.251.251,0,0,1,.2-.081.571.571,0,0,1,.162.036,7.448,7.448,0,0,1,1.017.378q.279.144.279.27,0,.09-.162.18l-.054.036a.508.508,0,0,0-.252.45v2.466a.692.692,0,0,0,.045.279q.045.1.117.1a.44.44,0,0,0,.342-.234l.342-.468a.317.317,0,0,1,.27-.162.408.408,0,0,1,.27.108q.36.306.846.792.2.2.2.288,0,.036-.072.108h1.782a.377.377,0,0,0,.279-.1.377.377,0,0,0,.1-.279v-1.278a.377.377,0,0,0-.1-.279.377.377,0,0,0-.279-.1h-.45a4.55,4.55,0,0,0-1.062.162.468.468,0,0,1-.144.018.358.358,0,0,1-.342-.234l-.054-.126a.448.448,0,0,1-.054-.2q0-.252.342-.216.432.036,1.3.072h.468a.334.334,0,0,0,.378-.378q-.036-.9-.072-1.3v-.036q0-.306.27-.306a1.082,1.082,0,0,1,.18.036q1.08.378,1.08.576,0,.072-.144.162l-.018.018a.536.536,0,0,0-.252.45v.4a.377.377,0,0,0,.1.279.377.377,0,0,0,.279.1h1.638a.334.334,0,0,0,.378-.378q-.036-.9-.072-1.278v-.036q0-.324.27-.324a1.082,1.082,0,0,1,.18.036q1.044.378,1.044.576,0,.072-.126.162l-.018.018a.547.547,0,0,0-.234.45v.4a.377.377,0,0,0,.1.279.377.377,0,0,0,.279.1Zm-1.8.9a.377.377,0,0,0-.1-.279.377.377,0,0,0-.279-.1h-1.638a.377.377,0,0,0-.279.1.377.377,0,0,0-.1.279V-10.8a.377.377,0,0,0,.1.279.377.377,0,0,0,.279.1h1.638a.377.377,0,0,0,.279-.1.377.377,0,0,0,.1-.279Zm-2.052,6.192a.377.377,0,0,0,.279-.1.377.377,0,0,0,.1-.279V-7.506a.377.377,0,0,0-.1-.279.377.377,0,0,0-.279-.1h-1.836a.377.377,0,0,0-.279.1.377.377,0,0,0-.1.279v1.242a.377.377,0,0,0,.1.279.377.377,0,0,0,.279.1Zm3.762,0a.377.377,0,0,0,.279-.1.377.377,0,0,0,.1-.279V-7.506a.377.377,0,0,0-.1-.279.377.377,0,0,0-.279-.1h-1.962a.377.377,0,0,0-.279.1.377.377,0,0,0-.1.279v1.242a.377.377,0,0,0,.1.279.377.377,0,0,0,.279.1Zm-3.384.918a.377.377,0,0,0-.1-.279.377.377,0,0,0-.279-.1h-1.836a.377.377,0,0,0-.279.1.377.377,0,0,0-.1.279v1.476a.377.377,0,0,0,.1.279.377.377,0,0,0,.279.1h1.836a.377.377,0,0,0,.279-.1.377.377,0,0,0,.1-.279Zm1.422-.378a.377.377,0,0,0-.279.1.377.377,0,0,0-.1.279v1.476a.377.377,0,0,0,.1.279.377.377,0,0,0,.279.1h1.962a.377.377,0,0,0,.279-.1.377.377,0,0,0,.1-.279V-4.968a.377.377,0,0,0-.1-.279.377.377,0,0,0-.279-.1Zm-3.1,3.582a.325.325,0,0,1,.288-.18.411.411,0,0,1,.234.09l.414.288a3.629,3.629,0,0,0,.4.252q.432.2.432.324,0,.09-.27.126l-.144.018a.893.893,0,0,0-.45.18A12.872,12.872,0,0,1-20.232.441a14.833,14.833,0,0,1-2.3.891l-.234.036q-.144,0-.162-.09V1.242q0-.126.27-.27.414-.2,1.062-.594a8.731,8.731,0,0,0,1.323-.99A7.337,7.337,0,0,0-19.224-1.764Zm3.348.486q-.27-.162-.27-.252,0-.144.4-.09a8.971,8.971,0,0,1,2.232.711A3.943,3.943,0,0,1-12.24.009a1.425,1.425,0,0,1,.4.873.5.5,0,0,1-.135.369.5.5,0,0,1-.369.135h-.036a.4.4,0,0,1-.2-.063.641.641,0,0,1-.18-.153A7.6,7.6,0,0,0-14.112-.1,15.842,15.842,0,0,0-15.876-1.278ZM4.968-9.648a.517.517,0,0,0,.45-.234l.216-.288q.054-.072.162-.225a1.842,1.842,0,0,1,.189-.234.227.227,0,0,1,.153-.081,1.668,1.668,0,0,1,.6.4,3.924,3.924,0,0,1,.693.7.389.389,0,0,1,.09.2.275.275,0,0,1-.09.2.632.632,0,0,1-.342.09H5.022a.377.377,0,0,0-.279.1.377.377,0,0,0-.1.279v4.1a.377.377,0,0,0,.1.279.377.377,0,0,0,.279.1h.54a.508.508,0,0,0,.45-.252l.2-.288q.072-.09.171-.243a1.425,1.425,0,0,1,.171-.225A.207.207,0,0,1,6.7-5.346q.126,0,.594.4a4.256,4.256,0,0,1,.684.711.4.4,0,0,1,.09.216.257.257,0,0,1-.108.2.648.648,0,0,1-.324.072H-1.53a19.389,19.389,0,0,0-2.376.2h-.108a.37.37,0,0,1-.36-.234l-.072-.144a.448.448,0,0,1-.054-.2.2.2,0,0,1,.09-.171.4.4,0,0,1,.27-.045q.432.036,1.3.072h.5a.377.377,0,0,0,.279-.1.377.377,0,0,0,.1-.279V-9.738a28.043,28.043,0,0,0-.162-3.186V-13q0-.288.234-.288l.162.036,1.008.36a.771.771,0,0,0,.27.054,1.58,1.58,0,0,0,.234-.036q.468-.144,1.926-.684a12.625,12.625,0,0,0,2.754-1.44.5.5,0,0,1,.252-.09.533.533,0,0,1,.306.144q.99.972.99,1.17,0,.126-.27.09l-.2-.018H5.436a1.538,1.538,0,0,0-.36.054q-1.152.378-2.646.729t-2.952.567a.372.372,0,0,0-.342.414v1.908a.377.377,0,0,0,.1.279.377.377,0,0,0,.279.1ZM-6.354-14.526q-.306-.27-.234-.342a.208.208,0,0,1,.144-.036,1.234,1.234,0,0,1,.234.018,3.961,3.961,0,0,1,1.89.8,1.532,1.532,0,0,1,.612,1.107.734.734,0,0,1-.162.5.54.54,0,0,1-.432.189.546.546,0,0,1-.162-.018.487.487,0,0,1-.324-.324,3.8,3.8,0,0,0-.63-.972A7.509,7.509,0,0,0-6.354-14.526ZM-7.668-3.456q0-.2.378-.2h.4a.4.4,0,0,0,.234-.054,1,1,0,0,0,.2-.306Q-6.228-4.5-4.932-7.6l1.71-4.068q.144-.324.288-.324.126,0,.126.162a1.5,1.5,0,0,1-.072.252l-.9,2.664Q-5-5.31-5.238-4.5a6.01,6.01,0,0,0-.27,1.566,4.46,4.46,0,0,0,.18.972q.018.072.135.612A5.711,5.711,0,0,1-5.076-.144,2.26,2.26,0,0,1-5.31.981a.775.775,0,0,1-.72.405.41.41,0,0,1-.333-.171A1.059,1.059,0,0,1-6.552.738L-6.57.54A2.362,2.362,0,0,1-6.534.27q.09-.99.09-1.584,0-1.422-.36-1.674a1.525,1.525,0,0,0-.5-.216Q-7.668-3.294-7.668-3.456Zm.018-7.056q-.306-.216-.252-.306a.22.22,0,0,1,.162-.054,1.118,1.118,0,0,1,.216.018,3.8,3.8,0,0,1,1.836.729A1.417,1.417,0,0,1-5.094-9.09a.681.681,0,0,1-.162.459.521.521,0,0,1-.414.189.546.546,0,0,1-.162-.018.456.456,0,0,1-.216-.108.6.6,0,0,1-.126-.216,3.676,3.676,0,0,0-.594-.909A5.431,5.431,0,0,0-7.65-10.512Zm11.2,1.764a.377.377,0,0,0-.1-.279.377.377,0,0,0-.279-.1H-.486a.377.377,0,0,0-.279.1.377.377,0,0,0-.1.279v4.1a.377.377,0,0,0,.1.279.377.377,0,0,0,.279.1H3.168a.377.377,0,0,0,.279-.1.377.377,0,0,0,.1-.279ZM-.9-2.7q.126-.234.306-.234a.4.4,0,0,1,.216.09l.4.288q.072.054.4.234.45.216.45.36,0,.072-.2.108H.612a.7.7,0,0,0-.45.216,13.082,13.082,0,0,1-2,1.6A14.225,14.225,0,0,1-4.284,1.278a.5.5,0,0,1-.252.072.171.171,0,0,1-.144-.072A.073.073,0,0,1-4.7,1.224q0-.126.252-.288A13.635,13.635,0,0,0-2.916-.252,10.688,10.688,0,0,0-1.773-1.431,7.419,7.419,0,0,0-.9-2.7Zm4.1.45q-.27-.18-.27-.306,0-.072.126-.072a.888.888,0,0,1,.27.054A10.961,10.961,0,0,1,5.886-1.467,5.334,5.334,0,0,1,7.317-.261,1.822,1.822,0,0,1,7.758.792a.626.626,0,0,1-.144.432.5.5,0,0,1-.4.162.546.546,0,0,1-.162-.018A.563.563,0,0,1,6.7,1.1,10.062,10.062,0,0,0,5.2-.585,21.591,21.591,0,0,0,3.2-2.25ZM23.616-9.234a.523.523,0,0,0,.468-.252l.09-.162q.054-.072.126-.189a.968.968,0,0,1,.126-.171.173.173,0,0,1,.126-.054,1.554,1.554,0,0,1,.576.351,4.283,4.283,0,0,1,.684.639.31.31,0,0,1,.072.2.3.3,0,0,1-.144.234.425.425,0,0,1-.2.09.442.442,0,0,0-.324.432V-2.34a1.747,1.747,0,0,1-.3,1.1,1.925,1.925,0,0,1-1.233.522H23.6a.362.362,0,0,1-.36-.306,1.094,1.094,0,0,0-.306-.468,2.763,2.763,0,0,0-1.224-.414q-.36-.054-.36-.2,0-.108.4-.108,1.674.108,1.89.108a.569.569,0,0,0,.351-.081.342.342,0,0,0,.1-.279v-5.85a.377.377,0,0,0-.1-.279.377.377,0,0,0-.279-.1H20.394a.377.377,0,0,0-.279.1.377.377,0,0,0-.1.279v4.752q.036,1.944.126,3.978V.522A.467.467,0,0,1,20,.864a1.643,1.643,0,0,1-.45.279,1.241,1.241,0,0,1-.486.117.454.454,0,0,1-.306-.108A.324.324,0,0,1,18.63.9q.072-1.062.126-2.061t.072-2.619V-8.316a.377.377,0,0,0-.1-.279.377.377,0,0,0-.279-.1H15.192a.377.377,0,0,0-.279.1.377.377,0,0,0-.1.279v2.988q.036,1.962.126,3.96v.09a.4.4,0,0,1-.162.36,1.483,1.483,0,0,1-.9.306.317.317,0,0,1-.243-.108.361.361,0,0,1-.1-.252q.108-1.674.144-3.366V-6.21a28.165,28.165,0,0,0-.162-3.168V-9.45q0-.27.234-.27a.4.4,0,0,1,.18.036l.756.342a1.2,1.2,0,0,0,.468.108H18.45a.377.377,0,0,0,.279-.1.377.377,0,0,0,.1-.279V-11.52a.377.377,0,0,0-.1-.279.377.377,0,0,0-.279-.1H14.6a19.389,19.389,0,0,0-2.376.2h-.108a.37.37,0,0,1-.36-.234l-.09-.162a.448.448,0,0,1-.054-.2q0-.27.36-.234.612.054,1.854.09H18.45a.334.334,0,0,0,.378-.378q-.036-1.1-.108-1.926v-.036q0-.324.27-.324l.162.036q1.3.4,1.3.63,0,.09-.144.18l-.054.036a.517.517,0,0,0-.234.45v.954a.377.377,0,0,0,.1.279.377.377,0,0,0,.279.1h4.14a.517.517,0,0,0,.45-.234L25.218-13l.18-.243a2.328,2.328,0,0,1,.207-.252.227.227,0,0,1,.153-.081,1.892,1.892,0,0,1,.684.432,5.534,5.534,0,0,1,.792.738.4.4,0,0,1,.09.216.257.257,0,0,1-.108.2.632.632,0,0,1-.342.09H20.52a.727.727,0,0,0-.369.072q-.117.072.027.144.252.18.252.306,0,.108-.162.216l-.018.018a.547.547,0,0,0-.234.45v1.08a.377.377,0,0,0,.1.279.377.377,0,0,0,.279.1Z" transform="translate(144.218 26)" fill="#f7f7f7"/>
        <path id="パス_32378" data-name="パス 32378" d="M-12.616,0q-.133,0-.133-.266,0-.285.133-.285h.3a3.372,3.372,0,0,0,1.5-.285.939.939,0,0,0,.57-.893v-9.1a1.885,1.885,0,0,0-.1-.769.64.64,0,0,0-.494-.266,10.319,10.319,0,0,0-1.454-.067h-.323q-.133,0-.133-.285,0-.266.133-.266a6.237,6.237,0,0,0,1.852-.257A4.988,4.988,0,0,0-9.2-13.566a.46.46,0,0,1,.247-.114q.228,0,.228.342V-1.729q0,1.178,2.071,1.178h.285a.1.1,0,0,1,.1.067.6.6,0,0,1,.028.218q0,.266-.133.266ZM3.534-8.3q0-.342-.209-.342-.133,0-.266.19A19.044,19.044,0,0,1,1.5-6.479q-.209.209-.3.209-.114,0-.114-.133A.662.662,0,0,1,1.2-6.726a27.522,27.522,0,0,0,2.641-5.3,16.088,16.088,0,0,0,.579-1.786,15.7,15.7,0,0,0,.389-1.824q.057-.323.323-.323a1.143,1.143,0,0,1,.19.038q1.463.494,1.463.722,0,.076-.171.133l-.057.019a.525.525,0,0,0-.38.38,33.086,33.086,0,0,1-1.482,3.439A.506.506,0,0,0,4.636-11a.476.476,0,0,0,.19.342q.323.3.323.456,0,.1-.171.19a.493.493,0,0,0-.266.456v6.042q.038,2.071.133,4.18V.76a.408.408,0,0,1-.19.38,1.489,1.489,0,0,1-.893.323.454.454,0,0,1-.3-.114.342.342,0,0,1-.133-.266Q3.4-.038,3.458-1.092t.076-2.764Zm11.229-3.439a.546.546,0,0,0,.475-.247l.228-.323q.057-.076.171-.237a1.945,1.945,0,0,1,.2-.247A.24.24,0,0,1,16-12.882a1.861,1.861,0,0,1,.655.427,4.852,4.852,0,0,1,.77.751.418.418,0,0,1,.095.228.272.272,0,0,1-.114.209.575.575,0,0,1-.342.1H9.291a20.466,20.466,0,0,0-2.508.209H6.669a.39.39,0,0,1-.38-.247l-.095-.171a.473.473,0,0,1-.057-.209q0-.285.38-.247.646.057,1.957.1H10.45a.453.453,0,0,0,.295-.086.27.27,0,0,0,.1-.219,30.309,30.309,0,0,0-.171-3.4v-.076q0-.3.266-.3a1.142,1.142,0,0,1,.19.038q1.425.418,1.425.646,0,.095-.171.19l-.076.038a.552.552,0,0,0-.266.494v2.28a.4.4,0,0,0,.1.295.4.4,0,0,0,.294.1Zm.342,11.8A.546.546,0,0,0,15.58-.19l.228-.342Q15.9-.646,16-.779a2.6,2.6,0,0,1,.19-.237.256.256,0,0,1,.171-.1q.152,0,.684.447a5.254,5.254,0,0,1,.779.77A.411.411,0,0,1,17.917.3a.291.291,0,0,1-.095.209.632.632,0,0,1-.342.1h-8.7A20.466,20.466,0,0,0,6.27.817H6.156a.39.39,0,0,1-.38-.266L5.7.418A.473.473,0,0,1,5.643.209q0-.285.38-.247Q6.669.019,8,.057h3.667A.4.4,0,0,0,12.1-.285q.8-2.926,1.406-6.137a25.629,25.629,0,0,0,.4-3.344q0-.342.323-.342a.494.494,0,0,1,.152.019Q16-9.728,16-9.5q0,.076-.171.171l-.057.038a.692.692,0,0,0-.342.418q-.475,1.919-1.235,4.218T12.6-.4a.448.448,0,0,0-.057.19q0,.266.361.266ZM7.752-9.4a2.277,2.277,0,0,1-.076-.3.136.136,0,0,1,.076-.133H7.79q.133,0,.3.247A14.669,14.669,0,0,1,9.785-6.232a9.139,9.139,0,0,1,.532,2.85,3.62,3.62,0,0,1-.237,1.434q-.238.542-.561.541a.464.464,0,0,1-.3-.133.547.547,0,0,1-.171-.4A33.944,33.944,0,0,0,8.693-5.8,15.646,15.646,0,0,0,7.752-9.4Z" transform="translate(52 26)" fill="#f7f7f7"/>
      </g>
    </g>
  </g>
</svg>
