<svg xmlns="http://www.w3.org/2000/svg" width="286.471" height="147.931" viewBox="0 0 286.471 147.931">
  <g id="グループ_51" data-name="グループ 51" transform="translate(-1.705 -5399.505)">
    <path id="パス_32386" data-name="パス 32386" d="M-147.963-10.974q0-.558-.31-.558-.217,0-.434.4a27.8,27.8,0,0,1-3.906,6.169q-.4.5-.62.31a.253.253,0,0,1-.062-.186,1.049,1.049,0,0,1,.155-.5,38.519,38.519,0,0,0,4.526-11.78l.031-.186a.473.473,0,0,0-.171-.388.688.688,0,0,0-.45-.139h-.713a11.639,11.639,0,0,0-1.922.279.806.806,0,0,1-.248.031.656.656,0,0,1-.589-.4l-.124-.217a.772.772,0,0,1-.093-.341.371.371,0,0,1,.171-.31.624.624,0,0,1,.449-.093q.868.093,2.6.155h1.054a.65.65,0,0,0,.48-.17.65.65,0,0,0,.171-.481v-.372a48.611,48.611,0,0,0-.279-5.518v-.124q0-.527.465-.527a.984.984,0,0,1,.279.062q2.232.744,2.232,1.116,0,.155-.248.31l-.093.062a.891.891,0,0,0-.4.775v4.216a.689.689,0,0,0,.155.481.557.557,0,0,0,.434.17h.093a.874.874,0,0,0,.775-.434l.31-.465q.093-.124.264-.387a2.454,2.454,0,0,1,.294-.387.357.357,0,0,1,.248-.124q.217,0,.992.666a7,7,0,0,1,1.147,1.194.461.461,0,0,1,.124.341.474.474,0,0,1-.155.341,1.089,1.089,0,0,1-.589.155h-3.441a.65.65,0,0,0-.48.17.65.65,0,0,0-.171.481V-15.5a.758.758,0,0,0,.527.744,8.894,8.894,0,0,1,3.178,2.2,3.6,3.6,0,0,1,1.007,2.2,1.251,1.251,0,0,1-.248.806.793.793,0,0,1-.651.31,1.742,1.742,0,0,1-.4-.062.875.875,0,0,1-.527-.651,13.446,13.446,0,0,0-2.077-3.441.6.6,0,0,0-.434-.248q-.372,0-.372.558V-5.8q.062,3.379.217,6.82v.155a.829.829,0,0,1-.279.651,2.207,2.207,0,0,1-.682.4,2.156,2.156,0,0,1-.775.155.843.843,0,0,1-.542-.186.545.545,0,0,1-.232-.434q.124-1.829.217-3.549t.124-4.51ZM-137.7-.589a.65.65,0,0,0-.48.17.65.65,0,0,0-.171.481V.093q.062.744.062.713V.992a.926.926,0,0,1-.186.62,1.675,1.675,0,0,1-.62.418,2.127,2.127,0,0,1-.837.171.741.741,0,0,1-.5-.186.558.558,0,0,1-.217-.434q.124-1.829.217-3.549t.124-4.511v-11.9a47.671,47.671,0,0,0-.279-5.425v-.124q0-.5.372-.5a.772.772,0,0,1,.341.093l1.271.589a2.058,2.058,0,0,0,.806.186h7.657a.971.971,0,0,0,.806-.4l.186-.248.232-.31a1.783,1.783,0,0,1,.248-.279.351.351,0,0,1,.232-.093,2.556,2.556,0,0,1,.961.558,6.214,6.214,0,0,1,1.116,1.023.534.534,0,0,1,.124.341.509.509,0,0,1-.279.4.783.783,0,0,1-.186.093,1.2,1.2,0,0,0-.155.062.711.711,0,0,0-.558.713V-6.107q.062,3.379.217,6.82V.868a.666.666,0,0,1-.31.62,3.973,3.973,0,0,1-.775.434,2,2,0,0,1-.775.186.442.442,0,0,1-.372-.248.507.507,0,0,1-.062-.279,4.067,4.067,0,0,1,.062-.465q0-.062.062-.806V.062a.65.65,0,0,0-.171-.481.65.65,0,0,0-.48-.17Zm7.688-15.81a.65.65,0,0,0,.48-.17.65.65,0,0,0,.171-.481v-4.991a.65.65,0,0,0-.171-.48.65.65,0,0,0-.48-.17H-137.7a.65.65,0,0,0-.48.17.65.65,0,0,0-.171.48v4.991a.65.65,0,0,0,.171.481.65.65,0,0,0,.48.17Zm0,7.378a.65.65,0,0,0,.48-.17.65.65,0,0,0,.171-.481v-5.146a.65.65,0,0,0-.171-.481.65.65,0,0,0-.48-.171H-137.7a.65.65,0,0,0-.48.171.65.65,0,0,0-.171.481v5.146a.65.65,0,0,0,.171.481.65.65,0,0,0,.48.17Zm-7.688.93a.65.65,0,0,0-.48.171.65.65,0,0,0-.171.48v5.332a.65.65,0,0,0,.171.481.65.65,0,0,0,.48.171h7.688a.65.65,0,0,0,.48-.171.65.65,0,0,0,.171-.481V-7.44a.65.65,0,0,0-.171-.48.65.65,0,0,0-.48-.171Zm17.67-12.586a.772.772,0,0,0,.341.093.493.493,0,0,0,.5-.4,23.4,23.4,0,0,0,1.333-4.588q.062-.5.5-.5a.773.773,0,0,1,.341.062q2.232.9,2.232,1.24,0,.093-.279.217l-.093.031a1.133,1.133,0,0,0-.651.558,31.318,31.318,0,0,1-2.542,3.565.657.657,0,0,0-.155.434.683.683,0,0,0,.217.5,2.619,2.619,0,0,1,.837,1.829,1.317,1.317,0,0,1-.248.821.78.78,0,0,1-.651.326,1.3,1.3,0,0,1-.31-.031.875.875,0,0,1-.527-.651,7.255,7.255,0,0,0-.883-1.736,12.231,12.231,0,0,0-1.318-1.643q-.341-.341-.341-.527,0-.155.217-.155a1.914,1.914,0,0,1,.558.155Q-120.342-20.832-120.032-20.677ZM-100.1-17.67a.891.891,0,0,0,.775-.4l.279-.4q.093-.124.263-.357a3.172,3.172,0,0,1,.295-.357.357.357,0,0,1,.248-.124,2.39,2.39,0,0,1,.992.6,5.615,5.615,0,0,1,1.085,1.1.682.682,0,0,1,.155.372.443.443,0,0,1-.186.341.938.938,0,0,1-.558.155h-8.432a33.392,33.392,0,0,0-4.092.341h-.186a.637.637,0,0,1-.62-.4l-.124-.279a.825.825,0,0,1-.093-.372.341.341,0,0,1,.155-.294.624.624,0,0,1,.434-.077q1.023.093,3.007.155h1.209a.65.65,0,0,0,.48-.17.65.65,0,0,0,.17-.481v-2.263a.65.65,0,0,0-.17-.48.65.65,0,0,0-.48-.171h-1.488a21.136,21.136,0,0,0-3.286.341h-.186a.676.676,0,0,1-.62-.4l-.124-.217a.825.825,0,0,1-.093-.372.341.341,0,0,1,.155-.295.624.624,0,0,1,.434-.077q1.054.093,3.193.155h2.015a.575.575,0,0,0,.651-.651q-.062-1.736-.124-2.449v-.124q0-.5.434-.5a1.864,1.864,0,0,1,.31.062q1.984.651,1.984,1.054,0,.124-.217.279l-.031.031a.924.924,0,0,0-.434.775v.868a.65.65,0,0,0,.171.481.65.65,0,0,0,.48.17h2.976a.874.874,0,0,0,.775-.434l.31-.465a4.464,4.464,0,0,0,.263-.372,2.226,2.226,0,0,1,.295-.372.428.428,0,0,1,.279-.155,2.651,2.651,0,0,1,1.054.667,7.363,7.363,0,0,1,1.178,1.162.67.67,0,0,1,.155.341.474.474,0,0,1-.155.341,1.089,1.089,0,0,1-.589.155h-6.541a.65.65,0,0,0-.48.171.65.65,0,0,0-.171.48v2.263a.65.65,0,0,0,.171.481.65.65,0,0,0,.48.17ZM-117.8-13.7a.67.67,0,0,0-.186.434.285.285,0,0,0,.14.248.631.631,0,0,0,.418.062q1.984-.217,2.635-.31a.641.641,0,0,0,.48-.217.593.593,0,0,0,.047-.527,14.291,14.291,0,0,0-.558-1.519q-.248-.62-.062-.682l.093-.031a1.014,1.014,0,0,1,.5.279,6.715,6.715,0,0,1,1.736,1.922A3.78,3.78,0,0,1-112-12.214a1.816,1.816,0,0,1-.295,1.069.868.868,0,0,1-.729.418.922.922,0,0,1-.465-.124.583.583,0,0,1-.279-.295,2.073,2.073,0,0,1-.093-.481,1.088,1.088,0,0,0-.031-.31.536.536,0,0,0-.232-.434.692.692,0,0,0-.512-.062l-.558.124a.674.674,0,0,0-.558.744V-5.7q.062,3.379.217,6.82v.155a.666.666,0,0,1-.31.62,2.432,2.432,0,0,1-1.457.5.622.622,0,0,1-.45-.2.593.593,0,0,1-.2-.419q.124-1.829.217-3.549t.124-4.51v-4.65a.61.61,0,0,0-.186-.5.559.559,0,0,0-.527-.062l-1.891.465a.975.975,0,0,0-.527.217.179.179,0,0,1-.062.124.423.423,0,0,1-.31.186.5.5,0,0,1-.31-.124.651.651,0,0,1-.217-.341l-.279-.868-.062-.279q0-.4.558-.5l1.488-.124a.925.925,0,0,0,.744-.434,36.188,36.188,0,0,0,1.984-3.5,25.283,25.283,0,0,0,2.108-5.177q.093-.5.5-.5a.825.825,0,0,1,.372.093q2.108.961,2.108,1.333a.149.149,0,0,1-.093.14,1.061,1.061,0,0,1-.217.077l-.093.031a1.015,1.015,0,0,0-.651.465A38.653,38.653,0,0,1-117.8-13.7Zm19.623-.124a.971.971,0,0,0,.806-.4l.217-.279q.093-.124.326-.419t.418-.294q.217,0,.822.635a9.061,9.061,0,0,1,.977,1.193.772.772,0,0,1,.093.341.4.4,0,0,1-.341.4l-.155.031a1.14,1.14,0,0,0-.775.4,25.105,25.105,0,0,1-2.2,2.232.872.872,0,0,1-.5.279q-.217,0-.217-.248a1.045,1.045,0,0,1,.124-.465q.186-.4.682-1.736a.984.984,0,0,0,.062-.279.413.413,0,0,0-.155-.341.678.678,0,0,0-.434-.124h-10.2a.626.626,0,0,0-.682.651,4.265,4.265,0,0,1-.837,2.418,1.415,1.415,0,0,1-1.116.5.817.817,0,0,1-.806-.434,1.047,1.047,0,0,1-.124-.527,1.451,1.451,0,0,1,.651-1.178,3.879,3.879,0,0,0,.9-1.3,5.5,5.5,0,0,0,.5-1.736q.093-.651.279-.651.279.062.372.558l.031.186a.664.664,0,0,0,.713.589Zm-4.309,8.339a44.436,44.436,0,0,0-.217-4.743v-.124q0-.5.434-.5a1.864,1.864,0,0,1,.31.062,11.559,11.559,0,0,1,1.519.6q.434.232.434.418,0,.124-.217.279l-.031.031a.942.942,0,0,0-.4.775V-.558q0,.31.139.4a1.259,1.259,0,0,0,.6.093h1.519q1.271,0,1.488-.031a.649.649,0,0,0,.295-.093.615.615,0,0,0,.139-.31q.155-.434.775-3.906.093-.589.279-.589t.186.651l.093,3.5a.764.764,0,0,0,.108.419,2.389,2.389,0,0,0,.326.388.743.743,0,0,1,.248.589q0,.651-.853.946a11,11,0,0,1-3.116.294h-1.922a2.586,2.586,0,0,1-1.721-.4,2,2,0,0,1-.418-1.457Zm-5.177-4.929a.486.486,0,0,1,.155-.4.554.554,0,0,1,.465-.062l.806.155q.124.031.775.093.93.093.93.341,0,.124-.31.341l-.093.062a.873.873,0,0,0-.465.744,15.6,15.6,0,0,1-1.736,6.789,10.663,10.663,0,0,1-5.549,4.526,1.1,1.1,0,0,1-.5.124A.241.241,0,0,1-113.4,2.2V2.139q0-.186.465-.465A10.253,10.253,0,0,0-108-4.464a11.719,11.719,0,0,0,.465-3.627,15.767,15.767,0,0,0-.124-2.17Zm-6.944,1.86a1.2,1.2,0,0,1-.124-.465q0-.186.062-.217l.093-.031a1.332,1.332,0,0,1,.465.31,7.883,7.883,0,0,1,1.968,2.232,4.368,4.368,0,0,1,.635,2.077A2.008,2.008,0,0,1-111.8-3.5a.862.862,0,0,1-.729.434,1.421,1.421,0,0,1-.434-.124,1.057,1.057,0,0,1-.4-.775A14.733,14.733,0,0,0-114.607-8.556Zm-6.231.217q0-.589.465-.589a.806.806,0,0,1,.248.031l.992.31q1.147.186,1.147.434,0,.186-.341.341l-.062.031a1.129,1.129,0,0,0-.558.682,22.74,22.74,0,0,1-2.6,6.355q-.248.434-.465.434t-.217-.31a1.029,1.029,0,0,1,.093-.4,14.059,14.059,0,0,0,.5-1.55,26.647,26.647,0,0,0,.573-2.9A20.1,20.1,0,0,0-120.838-8.339ZM-67.58-19.995q.062-.093.2-.295a1.582,1.582,0,0,1,.248-.294.351.351,0,0,1,.233-.093q.217,0,.759.527a6.274,6.274,0,0,1,.853.992.5.5,0,0,1,.093.31.54.54,0,0,1-.31.465.105.105,0,0,1-.077.031.105.105,0,0,0-.077.031.8.8,0,0,0-.527.744v2.2q.093,3.224.155,4.9v.155a.666.666,0,0,1-.31.62,2.312,2.312,0,0,1-1.364.465.312.312,0,0,1-.263-.17.894.894,0,0,1-.109-.481.65.65,0,0,0-.17-.481.65.65,0,0,0-.481-.17h-.558a.65.65,0,0,0-.48.17.65.65,0,0,0-.17.481V-.4A.555.555,0,0,0-69.8.047a1.186,1.186,0,0,0,.636.109h1.581q1.271,0,1.519-.031a.584.584,0,0,0,.279-.109.6.6,0,0,0,.155-.294,33.159,33.159,0,0,0,.744-3.782q.093-.589.279-.589t.186.651l.093,3.348a1.11,1.11,0,0,0,.465.806.735.735,0,0,1,.217.589q0,.651-.822.914a12.2,12.2,0,0,1-3.146.263h-2.015a2.65,2.65,0,0,1-1.752-.4A2,2,0,0,1-71.8.062V-9.889a.65.65,0,0,0-.171-.481.65.65,0,0,0-.48-.17h-.9a.613.613,0,0,0-.682.62,21.305,21.305,0,0,1-1.147,5.332A11.158,11.158,0,0,1-77.639-.682,13.852,13.852,0,0,1-81.964,2.2q-.589.248-.682.031V2.139q0-.186.4-.5a12.1,12.1,0,0,0,4.51-4.712A18.505,18.505,0,0,0-76.1-9.858V-9.92a.6.6,0,0,0-.171-.465.642.642,0,0,0-.45-.155.65.65,0,0,0-.48.17.65.65,0,0,0-.171.481v.248q0,.155-.527.387a2.593,2.593,0,0,1-1.054.233.4.4,0,0,1-.326-.186.7.7,0,0,1-.139-.434q.124-1.209.186-3.131v-1.891a45.6,45.6,0,0,0-.248-4.836v-.124q0-.465.4-.465a.69.69,0,0,1,.31.062l1.178.527a2.058,2.058,0,0,0,.806.186h4.34a.774.774,0,0,0,.744-.4l.217-.4q.62-1.271,1.162-2.713a21.777,21.777,0,0,0,.822-2.619q.155-.465.527-.465a.773.773,0,0,1,.341.062q2.263.837,2.263,1.178,0,.093-.279.217l-.124.031a1.287,1.287,0,0,0-.682.527,27.97,27.97,0,0,1-2.976,3.782.829.829,0,0,0-.217.434.316.316,0,0,0,.155.263.688.688,0,0,0,.4.108h1.581a2.054,2.054,0,0,0,.434-.031h.062Zm-16.089,3.348a.874.874,0,0,0,.775-.434l.279-.434q.093-.124.263-.372a2.735,2.735,0,0,1,.295-.372.357.357,0,0,1,.248-.124q.248,0,1.007.667a6.773,6.773,0,0,1,1.1,1.163.461.461,0,0,1,.124.341.474.474,0,0,1-.155.341,1.089,1.089,0,0,1-.589.155H-83.7a.65.65,0,0,0-.48.171.65.65,0,0,0-.171.481v2.015a.814.814,0,0,0,.527.775,7.63,7.63,0,0,1,2.774,1.813,2.981,2.981,0,0,1,.883,1.907,1.155,1.155,0,0,1-.264.775.807.807,0,0,1-.635.31,1.086,1.086,0,0,1-.341-.062,1.191,1.191,0,0,1-.558-.651,12.629,12.629,0,0,0-1.581-2.728.6.6,0,0,0-.434-.248q-.372,0-.372.558v4.929q.062,3.379.217,6.82V1.3a.666.666,0,0,1-.31.62,2.387,2.387,0,0,1-1.55.527.57.57,0,0,1-.387-.2.593.593,0,0,1-.2-.418q.124-1.829.217-3.549t.124-4.51V-9.207q0-.558-.31-.558-.248,0-.434.372a24.614,24.614,0,0,1-3.968,5.642q-.434.434-.651.248a.253.253,0,0,1-.062-.186,1.08,1.08,0,0,1,.186-.527A30.87,30.87,0,0,0-86.955-15l.031-.186a.473.473,0,0,0-.17-.387.688.688,0,0,0-.45-.14h-.62a9.564,9.564,0,0,0-1.767.279.806.806,0,0,1-.248.031.616.616,0,0,1-.589-.4l-.124-.248a.772.772,0,0,1-.093-.341.371.371,0,0,1,.171-.31.624.624,0,0,1,.45-.093q.837.093,2.48.155h.992a.65.65,0,0,0,.48-.171.65.65,0,0,0,.171-.48V-21.2a.61.61,0,0,0-.186-.5.559.559,0,0,0-.527-.062q-1.426.341-3.472.744a1.3,1.3,0,0,1-.31.031q-.31,0-.372-.186v-.062q0-.217.527-.4A25.9,25.9,0,0,0-87.7-22.754,23.065,23.065,0,0,0-85.157-24.1a14.669,14.669,0,0,0,2.108-1.535.683.683,0,0,1,.5-.217.652.652,0,0,1,.465.217q1.8,1.643,1.8,2.015,0,.155-.434.155h-.31a2.056,2.056,0,0,0-.806.124l-1.953.713a.655.655,0,0,0-.558.713V-17.3a.65.65,0,0,0,.171.48.65.65,0,0,0,.48.171Zm5.518-8.153q-.372-.558-.217-.682a.18.18,0,0,1,.124-.031,1.993,1.993,0,0,1,.527.155,8.712,8.712,0,0,1,2.79,2.185,3.623,3.623,0,0,1,.9,2.155,1.44,1.44,0,0,1-.279.914.867.867,0,0,1-.713.356,1.328,1.328,0,0,1-.465-.093.857.857,0,0,1-.5-.651,11.3,11.3,0,0,0-.868-2.17A16.83,16.83,0,0,0-78.151-24.8Zm10.075,7.006a.65.65,0,0,0-.17-.48.65.65,0,0,0-.481-.171h-8a.65.65,0,0,0-.48.171.65.65,0,0,0-.171.48v5.673a.65.65,0,0,0,.171.481.65.65,0,0,0,.48.17h8a.65.65,0,0,0,.481-.17.65.65,0,0,0,.17-.481Zm16-4.8a.65.65,0,0,0,.171.48.65.65,0,0,0,.48.17h1.767a.914.914,0,0,0,.775-.372l.465-.558a.672.672,0,0,1,.465-.279.623.623,0,0,1,.5.279q1.364,1.457,1.364,1.829,0,.155-.31.217H-46.5a1.067,1.067,0,0,0-.775.4,13.957,13.957,0,0,1-1.674,1.457q-.434.31-.651.186A.241.241,0,0,1-49.693-19a1.53,1.53,0,0,1,.093-.465l.279-.868a.806.806,0,0,0,.031-.248q0-.5-.589-.5h-6.6q-.589,0-.682.651a3.751,3.751,0,0,1-.744,1.922,1.6,1.6,0,0,1-1.209.651.949.949,0,0,1-.651-.248.8.8,0,0,1-.279-.62,1.094,1.094,0,0,1,.093-.434.892.892,0,0,1,.294-.4,3.245,3.245,0,0,0,.264-.217,3.693,3.693,0,0,0,.977-1.24,6.452,6.452,0,0,0,.6-1.829q.155-.651.31-.651.217.062.31.589l.031.341a.594.594,0,0,0,.682.62h1.922a.575.575,0,0,0,.651-.651q-.062-1.736-.124-2.48V-25.2a.517.517,0,0,1,.124-.357.433.433,0,0,1,.341-.139.984.984,0,0,1,.279.062,12.308,12.308,0,0,1,1.566.6q.449.232.449.418,0,.124-.279.341l-.093.062a.874.874,0,0,0-.434.775Zm14.942,3.472a.891.891,0,0,0,.775-.4l.186-.248q.062-.093.2-.295a1.583,1.583,0,0,1,.248-.295.351.351,0,0,1,.233-.093,2.079,2.079,0,0,1,.868.543,5.968,5.968,0,0,1,.992,1.007.421.421,0,0,1,.124.31.526.526,0,0,1-.279.434l-.155.062a.729.729,0,0,0-.558.744v5.8q.062,3.41.217,6.789v.124a.75.75,0,0,1-.341.682,3.531,3.531,0,0,1-.744.357,2.217,2.217,0,0,1-.713.139.248.248,0,0,1-.233-.155.9.9,0,0,1-.077-.4.519.519,0,0,0-.17-.4.689.689,0,0,0-.48-.155h-6.107a.65.65,0,0,0-.48.171.65.65,0,0,0-.171.48v.186q0,.217-.48.465a2.231,2.231,0,0,1-1.038.248.563.563,0,0,1-.4-.186.6.6,0,0,1-.186-.434q.217-3.007.279-6.6v-3.627a47.672,47.672,0,0,0-.279-5.425v-.124q0-.465.4-.465a.69.69,0,0,1,.31.062l1.178.527a2.058,2.058,0,0,0,.806.186h.9a.624.624,0,0,0,.682-.589,19.021,19.021,0,0,0,.372-2.294v-.124q0-.558-.62-.558H-43.09a19.433,19.433,0,0,0-2.852.31.532.532,0,0,1-.217.031.618.618,0,0,1-.589-.434L-46.872-23a.772.772,0,0,1-.093-.341q0-.465.62-.4,1.054.093,3.193.155h5.983a.874.874,0,0,0,.775-.434l.341-.5q.093-.124.279-.388a3.173,3.173,0,0,1,.326-.4.391.391,0,0,1,.264-.139,2.089,2.089,0,0,1,.806.481,10.931,10.931,0,0,1,1.147,1.023q.527.542.527.759-.031.5-.775.5h-4.9a.757.757,0,0,0-.744.5q-.5,1.023-1.209,2.294a.785.785,0,0,0-.124.372q0,.4.558.4ZM-51.4-7.719a.891.891,0,0,0,.775-.4l.155-.217a1.886,1.886,0,0,0,.217-.279,1.27,1.27,0,0,1,.217-.264.329.329,0,0,1,.217-.078,1.894,1.894,0,0,1,.822.5,6.226,6.226,0,0,1,.945.93.421.421,0,0,1,.124.31q0,.217-.31.434l-.062.031a.744.744,0,0,0-.558.713v1.7q.093,2.573.155,3.875V-.31a.666.666,0,0,1-.31.62,2.4,2.4,0,0,1-.666.357,2.085,2.085,0,0,1-.7.139q-.248,0-.248-.589a.557.557,0,0,0-.17-.434.689.689,0,0,0-.481-.155h-3.565q-.651,0-.651.62a5.338,5.338,0,0,1,.031.589v.248a.735.735,0,0,1-.217.589,2.06,2.06,0,0,1-1.3.434.514.514,0,0,1-.388-.186.622.622,0,0,1-.17-.434q.186-2.79.248-5.642V-6.386a.688.688,0,0,0-.108-.4.341.341,0,0,0-.295-.155.785.785,0,0,0-.372.124l-1.488.744a1,1,0,0,1-.434.124.3.3,0,0,1-.248-.124.126.126,0,0,1-.031-.093q0-.186.465-.465a22.9,22.9,0,0,0,5.89-5.27.765.765,0,0,0,.186-.434.665.665,0,0,0-.341-.5q-1.085-.62-1.953-1.054a.825.825,0,0,0-.372-.093.646.646,0,0,0-.5.248,18.447,18.447,0,0,1-2.046,1.767q-.465.279-.682.124-.062-.062-.062-.093a1.23,1.23,0,0,1,.341-.558,12.2,12.2,0,0,0,1.705-2.077,17.26,17.26,0,0,0,1.41-2.635,19.787,19.787,0,0,0,1.007-2.79q.155-.465.527-.465a.773.773,0,0,1,.341.062q1.922.775,1.922,1.116,0,.093-.279.217l-.062.031a1.156,1.156,0,0,0-.682.558l-.155.279a.952.952,0,0,0-.124.372.341.341,0,0,0,.155.294.688.688,0,0,0,.4.109h1.643a1,1,0,0,0,.775-.341l.248-.279q.093-.093.341-.357a.67.67,0,0,1,.434-.264,1.954,1.954,0,0,1,.837.512,5.627,5.627,0,0,1,.961.976.534.534,0,0,1,.124.341q0,.248-.341.4l-.248.031a1.409,1.409,0,0,0-.45.17.867.867,0,0,0-.295.356q-.9,1.612-1.519,2.511a.83.83,0,0,0-.155.4.559.559,0,0,0,.372.5,9.515,9.515,0,0,1,2.449,1.844,2.6,2.6,0,0,1,.806,1.566.67.67,0,0,1-.186.5.713.713,0,0,1-.527.186q-.093-.031-.341-.14a1.215,1.215,0,0,1-.372-.233,18.988,18.988,0,0,0-2.976-2.48.708.708,0,0,0-.4-.155.715.715,0,0,0-.5.248,20.78,20.78,0,0,1-2.79,2.48,1.26,1.26,0,0,0-.388.434.2.2,0,0,0,.108.279l.062.031a1.659,1.659,0,0,0,.806.186Zm14.353-6.913a.65.65,0,0,0,.48-.17.65.65,0,0,0,.17-.481v-2.263a.65.65,0,0,0-.17-.481.65.65,0,0,0-.48-.17h-6.107a.65.65,0,0,0-.48.17.65.65,0,0,0-.171.481v2.263a.65.65,0,0,0,.171.481.65.65,0,0,0,.48.17ZM-51.46-15.748a.772.772,0,0,0,.093-.341q0-.434-.589-.434h-2.17a.891.891,0,0,0-.775.4l-.651.868a.643.643,0,0,0-.186.4q0,.31.465.465a17.223,17.223,0,0,1,1.984.651.69.69,0,0,0,.31.062.659.659,0,0,0,.589-.372Q-51.956-14.756-51.46-15.748Zm15.066,2.635a.65.65,0,0,0-.17-.48.65.65,0,0,0-.48-.171h-6.107a.65.65,0,0,0-.48.171.65.65,0,0,0-.171.48v2.356a.65.65,0,0,0,.171.481.65.65,0,0,0,.48.17h6.107a.65.65,0,0,0,.48-.17.65.65,0,0,0,.17-.481Zm-6.758,3.906a.65.65,0,0,0-.48.17.65.65,0,0,0-.171.481v2.418a.65.65,0,0,0,.171.48.65.65,0,0,0,.48.171h6.107a.65.65,0,0,0,.48-.171.65.65,0,0,0,.17-.48V-8.556a.65.65,0,0,0-.17-.481.65.65,0,0,0-.48-.17ZM-54.839-6.789a.65.65,0,0,0-.48.171.65.65,0,0,0-.171.48v4.216a.65.65,0,0,0,.171.48.65.65,0,0,0,.48.171h3.565a.65.65,0,0,0,.481-.171.65.65,0,0,0,.17-.48V-6.138a.65.65,0,0,0-.17-.48.65.65,0,0,0-.481-.171Zm11.5,3.6q.248-.372.5-.372a.83.83,0,0,1,.4.155l.651.465a6.251,6.251,0,0,0,.682.434q.713.4.713.62,0,.155-.31.155a1.159,1.159,0,0,0-.806.31A16.942,16.942,0,0,1-44.624.651a25.191,25.191,0,0,1-3.829,1.674,1.487,1.487,0,0,1-.434.093.3.3,0,0,1-.248-.124.126.126,0,0,1-.031-.093q0-.217.434-.5a14.649,14.649,0,0,0,1.488-.93A17.61,17.61,0,0,0-45.012-1.1,10.025,10.025,0,0,0-43.338-3.193Zm4.681.62q-.434-.279-.434-.5,0-.155.31-.155a1.029,1.029,0,0,1,.4.093,11.98,11.98,0,0,1,3.146,1.349A5.929,5.929,0,0,1-33.465-.17a2.791,2.791,0,0,1,.543,1.5,1.125,1.125,0,0,1-.233.744.783.783,0,0,1-.635.279.806.806,0,0,1-.248-.031.547.547,0,0,1-.356-.155,2.134,2.134,0,0,1-.232-.341,10.53,10.53,0,0,0-1.69-2.248A22.657,22.657,0,0,0-38.657-2.573Zm23.684-19.034A13.544,13.544,0,0,1-9.8-20.538,10.337,10.337,0,0,1-5.41-17.1a9.812,9.812,0,0,1,1.783,6.061q0,4.836-2.961,7.378a14.61,14.61,0,0,1-6.324,3.3A26.4,26.4,0,0,1-18.538.4q-.434,0-.434-.155,0-.186,1.24-.4A18.853,18.853,0,0,0-9.114-3.72,8.956,8.956,0,0,0-5.8-11.16a9.588,9.588,0,0,0-1.411-5.409,8.388,8.388,0,0,0-3.58-3.1,10.911,10.911,0,0,0-4.526-.976.959.959,0,0,0-.387.341.514.514,0,0,0-.078.434,11.052,11.052,0,0,1,.387,1.674,10.623,10.623,0,0,1,.14,1.612,15.279,15.279,0,0,1-1.116,5.27,24.326,24.326,0,0,1-2.34,4.79A14.07,14.07,0,0,1-21.25-3.457a3.512,3.512,0,0,1-1.969,1.039,2.8,2.8,0,0,1-2.093-1.1,7.947,7.947,0,0,1-1.55-2.9,12.268,12.268,0,0,1-.573-3.751,10.422,10.422,0,0,1,1.767-5.967,11.836,11.836,0,0,1,4.65-4.045A13.465,13.465,0,0,1-14.973-21.607Zm-1.271,3.472a8.711,8.711,0,0,0-.186-1.829.58.58,0,0,0-.744-.5,10.614,10.614,0,0,0-4.216,1.8,10.053,10.053,0,0,0-3.069,3.5,9.94,9.94,0,0,0-1.147,4.774,9.188,9.188,0,0,0,.449,3.1,5.3,5.3,0,0,0,1.007,1.829q.558.589.9.589A2.873,2.873,0,0,0-21.405-6.03a17.943,17.943,0,0,0,1.968-2.589,21.47,21.47,0,0,0,2.465-4.975A14.843,14.843,0,0,0-16.244-18.135ZM9.889-4.092a.65.65,0,0,0-.481.171.65.65,0,0,0-.17.48v1.3L9.3-.62q0,.62.062,1.736V1.3a.763.763,0,0,1-.279.589,2.2,2.2,0,0,1-1.4.434.428.428,0,0,1-.356-.186.7.7,0,0,1-.14-.434q.124-1.426.186-3.658V-3.441a.65.65,0,0,0-.171-.48.65.65,0,0,0-.481-.171H5.549a16.876,16.876,0,0,0-2.666.31.687.687,0,0,1-.217.031.7.7,0,0,1-.589-.434L1.953-4.4a.825.825,0,0,1-.093-.372.341.341,0,0,1,.155-.294.624.624,0,0,1,.434-.077q.992.093,3.038.155h1.24a.65.65,0,0,0,.481-.17.65.65,0,0,0,.171-.48V-7.967a.65.65,0,0,0-.171-.481.65.65,0,0,0-.481-.17H5.518a.65.65,0,0,0-.481.17.65.65,0,0,0-.17.481v.341q0,.155-.481.388a2.221,2.221,0,0,1-.976.233.4.4,0,0,1-.326-.186.7.7,0,0,1-.14-.434q.124-1.333.186-3.379V-13.02q0-2.759-.248-5.239v-.124q0-.5.372-.5a.772.772,0,0,1,.341.093l1.054.5a1.909,1.909,0,0,0,.806.186H6.727a.65.65,0,0,0,.481-.17.65.65,0,0,0,.171-.481v-1.488a.65.65,0,0,0-.171-.48.65.65,0,0,0-.481-.171H5.642a17.267,17.267,0,0,0-2.6.31H2.852a.637.637,0,0,1-.62-.4L2.108-21.2a.772.772,0,0,1-.093-.341.371.371,0,0,1,.171-.31.624.624,0,0,1,.449-.093q.961.093,2.914.155H6.727a.575.575,0,0,0,.651-.651q-.062-1.612-.186-2.883v-.062a.579.579,0,0,1,.14-.4.458.458,0,0,1,.356-.155l.279.062q2.015.651,2.015,1.023,0,.155-.248.31l-.062.031a.874.874,0,0,0-.434.775v1.3a.65.65,0,0,0,.17.48.65.65,0,0,0,.481.17h1.023a.891.891,0,0,0,.775-.4l.31-.465a4.465,4.465,0,0,0,.264-.372,2.226,2.226,0,0,1,.295-.372.428.428,0,0,1,.279-.155q.248,0,1.038.667a7.605,7.605,0,0,1,1.163,1.163.461.461,0,0,1,.124.341.474.474,0,0,1-.155.341,1.089,1.089,0,0,1-.589.155H9.889a.65.65,0,0,0-.481.171.65.65,0,0,0-.17.48v1.488a.65.65,0,0,0,.17.481.65.65,0,0,0,.481.17H11.1a.971.971,0,0,0,.806-.4L12-18.631q.093-.093.279-.31a.511.511,0,0,1,.372-.217,1.921,1.921,0,0,1,.806.418,5.034,5.034,0,0,1,.93.821.534.534,0,0,1,.124.341.509.509,0,0,1-.279.4l-.031.031a1.123,1.123,0,0,0-.388.279.622.622,0,0,0-.17.434v2.387q.031.558.031,1.488a.614.614,0,0,0,.124.419.4.4,0,0,0,.31.139.772.772,0,0,0,.341-.093,23.324,23.324,0,0,0,5.239-3.751.694.694,0,0,0,.248-.465.67.67,0,0,0-.186-.434,17.146,17.146,0,0,1-3.007-5.642A.725.725,0,0,0,16-22.909H15.9a1.263,1.263,0,0,0-.434.093,1.029,1.029,0,0,1-.4.093.54.54,0,0,1-.465-.341l-.093-.186a.772.772,0,0,1-.093-.341.371.371,0,0,1,.155-.326A.624.624,0,0,1,15-23.994q1.116.093,3.224.155h5.89a.946.946,0,0,0,.806-.372l.31-.341q.124-.124.387-.418t.45-.295q.217,0,.837.62A9.035,9.035,0,0,1,27.9-23.5a.5.5,0,0,1,.093.31.421.421,0,0,1-.31.4,1.02,1.02,0,0,1-.31.062.965.965,0,0,0-.744.527,22.416,22.416,0,0,1-3.6,5.208.652.652,0,0,0-.217.465.54.54,0,0,0,.31.465,21.658,21.658,0,0,0,5.611,2.387q.589.186.589.341-.031.124-.233.2t-.326.139a2,2,0,0,0-.961.93q-.248.434-.558.434a.984.984,0,0,1-.279-.062,17.872,17.872,0,0,1-5.394-3.162.652.652,0,0,0-.465-.217.765.765,0,0,0-.434.186,23.783,23.783,0,0,1-6.2,3.441q-.558.186-.651,0-.093-.155-.093,1.178l.093,1.488v.155a.666.666,0,0,1-.31.62,3.309,3.309,0,0,1-.713.372,2.023,2.023,0,0,1-.713.155q-.248,0-.248-.589a.519.519,0,0,0-.17-.4.689.689,0,0,0-.481-.155h-1.3a.65.65,0,0,0-.481.17.65.65,0,0,0-.17.481v2.325a.65.65,0,0,0,.17.48.65.65,0,0,0,.481.17h1.395a.891.891,0,0,0,.775-.4l.31-.465q.093-.124.264-.372a2.735,2.735,0,0,1,.295-.372.357.357,0,0,1,.248-.124,2.6,2.6,0,0,1,1.038.635A6.778,6.778,0,0,1,15.376-4.96a.534.534,0,0,1,.124.341.413.413,0,0,1-.155.341.758.758,0,0,1-.558.186ZM24.211-22.134a.772.772,0,0,0,.093-.341q0-.434-.589-.434H18.042q-.589,0-.589.434a.772.772,0,0,0,.093.341,15.281,15.281,0,0,0,3.162,4.247.6.6,0,0,0,.434.186.623.623,0,0,0,.5-.279A18.4,18.4,0,0,0,24.211-22.134ZM4.867-14.446a.65.65,0,0,0,.17.481.65.65,0,0,0,.481.17h1.24a.65.65,0,0,0,.481-.17.65.65,0,0,0,.17-.481v-2.077A.65.65,0,0,0,7.239-17a.65.65,0,0,0-.481-.17H5.518a.65.65,0,0,0-.481.17.65.65,0,0,0-.17.481Zm6.975-2.077a.65.65,0,0,0-.17-.481.65.65,0,0,0-.481-.17H9.827a.65.65,0,0,0-.481.17.65.65,0,0,0-.17.481v2.077a.65.65,0,0,0,.17.481.65.65,0,0,0,.481.17h1.364a.65.65,0,0,0,.481-.17.65.65,0,0,0,.17-.481ZM4.867-10.137a.65.65,0,0,0,.17.48.65.65,0,0,0,.481.171h1.24a.65.65,0,0,0,.481-.171.65.65,0,0,0,.17-.48v-2.077a.65.65,0,0,0-.17-.481.65.65,0,0,0-.481-.17H5.518a.65.65,0,0,0-.481.17.65.65,0,0,0-.17.481Zm4.96-2.728a.65.65,0,0,0-.481.17.65.65,0,0,0-.17.481v2.077a.65.65,0,0,0,.17.48.65.65,0,0,0,.481.171h1.364a.65.65,0,0,0,.481-.171.65.65,0,0,0,.17-.48v-2.077a.65.65,0,0,0-.17-.481.65.65,0,0,0-.481-.17ZM26.97-1.333q.217,0,1.039.7A7.115,7.115,0,0,1,29.2.589a.682.682,0,0,1,.155.372.389.389,0,0,1-.186.341.858.858,0,0,1-.527.124H17.98a33.392,33.392,0,0,0-4.092.341H13.7a.637.637,0,0,1-.62-.4l-.124-.248a.772.772,0,0,1-.093-.341A.371.371,0,0,1,13.02.449a.624.624,0,0,1,.434-.077q1.116.093,3.224.155h2.48a.65.65,0,0,0,.481-.171.65.65,0,0,0,.17-.481v-5.8a.65.65,0,0,0-.17-.48.65.65,0,0,0-.481-.171h-.992a13.541,13.541,0,0,0-2.356.31h-.186a.637.637,0,0,1-.62-.4l-.124-.248a.825.825,0,0,1-.093-.372.341.341,0,0,1,.155-.294.624.624,0,0,1,.434-.077q.9.093,2.728.155h1.054a.575.575,0,0,0,.651-.651q-.062-2.263-.217-3.658v-.062a.579.579,0,0,1,.139-.4.458.458,0,0,1,.356-.155l.279.062q2.139.682,2.139,1.023,0,.093-.248.279l-.062.031a.874.874,0,0,0-.434.775v2.108a.65.65,0,0,0,.17.48.65.65,0,0,0,.481.171h1.271a.891.891,0,0,0,.775-.4l.341-.5a4.465,4.465,0,0,0,.263-.372,2.226,2.226,0,0,1,.295-.372.428.428,0,0,1,.279-.155,2.872,2.872,0,0,1,1.038.682,6.759,6.759,0,0,1,1.194,1.209.461.461,0,0,1,.124.341.474.474,0,0,1-.155.341,1.089,1.089,0,0,1-.589.155H22.413a.65.65,0,0,0-.481.171.65.65,0,0,0-.17.48v5.8a.65.65,0,0,0,.17.481.65.65,0,0,0,.481.171h2.6a.874.874,0,0,0,.775-.434l.341-.5q.124-.155.295-.419a2.455,2.455,0,0,1,.295-.387A.357.357,0,0,1,26.97-1.333Zm33.077-3.6q.217,0,.155.651L59.768-.465v.217a1.376,1.376,0,0,0,.155.62,3.549,3.549,0,0,1,.434,1.395A.587.587,0,0,1,60.2,2.2a.88.88,0,0,1-.651.248,2.559,2.559,0,0,1-1.457-.589A5.6,5.6,0,0,1,56.73.434a23.432,23.432,0,0,1-2.046-3.782Q54.5-3.72,54.25-3.72a.663.663,0,0,0-.434.279,18.592,18.592,0,0,1-8.06,5.58,1.1,1.1,0,0,1-.4.062.363.363,0,0,1-.31-.124.126.126,0,0,1-.031-.093q0-.186.5-.465A19.028,19.028,0,0,0,53.444-5.7a.961.961,0,0,0,.186-.527,1.709,1.709,0,0,0-.062-.341A61.57,61.57,0,0,1,51.739-19a.593.593,0,0,0-.651-.651H43.369a.65.65,0,0,0-.48.17.65.65,0,0,0-.171.481v5.611a54.039,54.039,0,0,1-.264,5.549A22.517,22.517,0,0,1,41.277-2.7a14.078,14.078,0,0,1-2.743,4.681q-.434.5-.62.31a.253.253,0,0,1-.062-.186,1.091,1.091,0,0,1,.155-.527,18.162,18.162,0,0,0,2.356-6.6,55.223,55.223,0,0,0,.558-8.37v-4.154q0-1.953-.124-3.348v-.124q0-.5.341-.5a1.727,1.727,0,0,1,.372.124l1.147.62a1.469,1.469,0,0,0,.806.217h7.533a.642.642,0,0,0,.45-.155.557.557,0,0,0,.17-.434q0-1.333-.031-1.984l-.031-2.015q0-.589.527-.589a.94.94,0,0,1,.279.031q1.984.62,1.984.961a.126.126,0,0,1-.031.093.717.717,0,0,1,.527-.217.94.94,0,0,1,.279.031,4.363,4.363,0,0,1,2.124.852,1.694,1.694,0,0,1,.7,1.256,1.2,1.2,0,0,0,.31.713q.868.744,1.581,1.457a.783.783,0,0,1,.279.527.28.28,0,0,1-.155.248.735.735,0,0,1-.465.124h-5.27a.65.65,0,0,0-.48.17A.565.565,0,0,0,53.6-19a52.187,52.187,0,0,0,.961,8.959,1.368,1.368,0,0,0,.326.728q.233.232.357-.016l.279-.868a21.231,21.231,0,0,0,.682-2.79,22.148,22.148,0,0,0,.341-2.852.625.625,0,0,1,.124-.4.413.413,0,0,1,.341-.155,1.709,1.709,0,0,1,.341.062q2.2.775,2.2,1.116,0,.155-.31.248l-.124.031a.862.862,0,0,0-.558.682,28.338,28.338,0,0,1-2.728,7.781.982.982,0,0,0-.124.5,1,1,0,0,0,.062.372,14.915,14.915,0,0,0,1.953,3.782l.186.248q.31.4.341.434l.124.062q.155,0,.372-.5.248-.589.961-2.79Q59.861-4.929,60.047-4.929ZM38.285-21.359a1.035,1.035,0,0,1-.558-.558,11.166,11.166,0,0,0-2.511-3.007q-.527-.434-.372-.589a.359.359,0,0,1,.248-.062,2.125,2.125,0,0,1,.4.031,6.371,6.371,0,0,1,3.1,1.364,2.6,2.6,0,0,1,.992,1.829,1.1,1.1,0,0,1-.263.76.856.856,0,0,1-.667.295A1.7,1.7,0,0,1,38.285-21.359Zm15.686-2.976a.874.874,0,0,0-.434.775V-21.2a.65.65,0,0,0,.17.481.65.65,0,0,0,.481.17h1.86a.891.891,0,0,0,.775-.4q.527-.775.372-.775a.532.532,0,0,1-.217.031.94.94,0,0,1-.279-.031.715.715,0,0,1-.372-.2,1.207,1.207,0,0,1-.217-.419,6.088,6.088,0,0,0-1.3-1.86.768.768,0,0,0-.5-.279.335.335,0,0,0-.248.093ZM36.983-7.719a10.163,10.163,0,0,0-.4,2.635,8.467,8.467,0,0,0,.279,1.767q.217,1.085.326,1.7a8.558,8.558,0,0,1,.108,1.457,3.566,3.566,0,0,1-.4,1.844,1.3,1.3,0,0,1-1.178.666q-.62,0-.837-1.116L34.844.9a4.067,4.067,0,0,1,.062-.465q.155-1.705.155-2.728,0-2.449-.62-2.883a2.046,2.046,0,0,0-.806-.372q-.62-.155-.62-.434,0-.341.651-.341h.62a.681.681,0,0,0,.4-.093A1.471,1.471,0,0,0,35-6.944q.372-.775,1.085-2.589t2.48-6.526l1.147-3.007q.248-.558.5-.558.124,0,.124.279a3.814,3.814,0,0,1-.217,1.085L38.9-14.229Q37.293-8.9,36.983-7.719Zm-.992-7.254a.946.946,0,0,1-.527-.589,7.127,7.127,0,0,0-2.108-2.666q-.527-.465-.4-.589a.359.359,0,0,1,.248-.062,2.125,2.125,0,0,1,.4.031A5.8,5.8,0,0,1,36.44-17.7a2.27,2.27,0,0,1,.915,1.674,1.218,1.218,0,0,1-.279.822.9.9,0,0,1-.713.325A.825.825,0,0,1,35.991-14.973Zm10.137.186a7.809,7.809,0,0,0-1.333.217.984.984,0,0,1-.279.062.656.656,0,0,1-.589-.4l-.093-.217a.825.825,0,0,1-.093-.372q0-.4.589-.341.744.062,2.17.124h.992a.874.874,0,0,0,.775-.434l.279-.4q.093-.155.264-.388t.279-.356a.31.31,0,0,1,.232-.124q.217,0,.93.635a8.139,8.139,0,0,1,1.085,1.131.577.577,0,0,1,.124.372.421.421,0,0,1-.124.31.926.926,0,0,1-.62.186ZM45.6-3.131a.653.653,0,0,1-.248.558,1.609,1.609,0,0,1-1.085.372.364.364,0,0,1-.31-.186.764.764,0,0,1-.124-.434q.124-1.085.186-2.852V-7.409a38.608,38.608,0,0,0-.217-4.4v-.124a.564.564,0,0,1,.108-.357.324.324,0,0,1,.264-.139.772.772,0,0,1,.341.093l.806.4a1.659,1.659,0,0,0,.806.186h2.263a.891.891,0,0,0,.775-.4l.124-.155q.093-.093.279-.325a.5.5,0,0,1,.372-.233,1.54,1.54,0,0,1,.729.418,5.126,5.126,0,0,1,.821.821.421.421,0,0,1,.124.31.461.461,0,0,1-.31.4l-.124.062a.777.777,0,0,0-.527.713v1.674q.093,2.542.155,3.782v.155a.69.69,0,0,1-.279.62,1.979,1.979,0,0,1-1.178.434q-.248,0-.248-.651v-.124a.65.65,0,0,0-.171-.481.65.65,0,0,0-.48-.171H46.19a.65.65,0,0,0-.481.171.65.65,0,0,0-.17.481v.062l.062.806ZM49.1-10.2a.65.65,0,0,0-.171-.481.65.65,0,0,0-.48-.17H46.19a.65.65,0,0,0-.481.17.65.65,0,0,0-.17.481v3.72a.65.65,0,0,0,.17.481.65.65,0,0,0,.481.171h2.263A.65.65,0,0,0,48.933-6a.65.65,0,0,0,.171-.481ZM77.376-20.677A20.169,20.169,0,0,1,73.9-18.786a.926.926,0,0,0-.589.62Q72.168-15,70.835-11.547T68.7-6.014a1.407,1.407,0,0,1-.511.62,1.223,1.223,0,0,1-.7.248A.618.618,0,0,1,66.9-5.58a2.763,2.763,0,0,1-.186-1.085,1.536,1.536,0,0,1,.047-.465,2.378,2.378,0,0,1,.2-.372q.341-.62.589-1.116l.744-1.488q.341-.682.62-1.209.992-1.891,1.643-3.24A27.491,27.491,0,0,0,71.7-17.3a1.188,1.188,0,0,0,.093-.372q0-.372-.341-.372a1.742,1.742,0,0,0-.341.031,1.577,1.577,0,0,1-.31.031,3.489,3.489,0,0,1-2.108-.589A4.065,4.065,0,0,1,67.487-19.9a1.182,1.182,0,0,1-.217-.62q0-.186.155-.186.124,0,.434.31a3.166,3.166,0,0,0,2.232.651,8.546,8.546,0,0,0,1.922-.31.763.763,0,0,0,.589-.682,5.344,5.344,0,0,0,.031-.682A2.757,2.757,0,0,0,72.23-23a1.822,1.822,0,0,0-.7-.6q-.45-.233-.45-.326,0-.124.2-.217a1.139,1.139,0,0,1,.48-.093,2.566,2.566,0,0,1,.868.155,2.987,2.987,0,0,1,1.333.775,1.734,1.734,0,0,1,.4,1.178,1.471,1.471,0,0,1-.031.341l-.031.558q0,.31.124.279l.279-.155q.248-.155.434-.295t.186-.264q0-.124-.279-.341a2.864,2.864,0,0,0-.356-.217q-.233-.124-.233-.217,0-.124.279-.124l1.116.031a2.049,2.049,0,0,0,.542-.093,2.21,2.21,0,0,1,.6-.093.943.943,0,0,1,.7.264.9.9,0,0,1,.263.666,1.376,1.376,0,0,1-.155.62A1.263,1.263,0,0,1,77.376-20.677Zm6.355,4.526a2.955,2.955,0,0,0-2.279.961,4.132,4.132,0,0,0-.883,2.883A40.126,40.126,0,0,0,81-7.316l.186,1.457a.763.763,0,0,0,.589.713,19.5,19.5,0,0,1,2.527.93,6.382,6.382,0,0,1,1.72,1.054,1.888,1.888,0,0,1,.682,1.24.832.832,0,0,1-.232.589.755.755,0,0,1-.574.248,1.406,1.406,0,0,1-.635-.186q-.357-.186-.977-.589A11.191,11.191,0,0,0,82.15-2.976a1.045,1.045,0,0,0-.465-.124q-.279,0-.279.186v.4A3.039,3.039,0,0,1,80.119.078a4.965,4.965,0,0,1-3.022.946A5.558,5.558,0,0,1,75,.6,4.346,4.346,0,0,1,73.3-.589a2.715,2.715,0,0,1-.667-1.829,2.72,2.72,0,0,1,1.581-2.465,7.842,7.842,0,0,1,3.875-.884,7.445,7.445,0,0,1,.775.031h.093q.589,0,.589-.62-.186-2.6-.186-3.844a13.872,13.872,0,0,1,.326-3.379A4.153,4.153,0,0,1,81.034-15.7a8.808,8.808,0,0,1,3.131-1.535q.589-.155.589-.589a1.519,1.519,0,0,0-.449-.9,5.467,5.467,0,0,0-.915-.868q-.186-.155-.186-.217t.217-.062a3.406,3.406,0,0,1,.713.108,4.34,4.34,0,0,1,.806.263,7.208,7.208,0,0,1,2.046,1.41,2.611,2.611,0,0,1,.992,1.783,1.267,1.267,0,0,1-.434.961,1.417,1.417,0,0,1-.992.4,1.367,1.367,0,0,1-.62-.14,4.445,4.445,0,0,1-.682-.449A5.209,5.209,0,0,0,84.491-16,1.749,1.749,0,0,0,83.731-16.151ZM76.663-.589a2.85,2.85,0,0,0,2.2-.7,3.192,3.192,0,0,0,.713-1.937v-.093a.581.581,0,0,0-.558-.62,13.6,13.6,0,0,0-1.891-.155,5.711,5.711,0,0,0-2.356.434,1.377,1.377,0,0,0-.961,1.271,1.454,1.454,0,0,0,.852,1.333A4.112,4.112,0,0,0,76.663-.589ZM109.523.682a11.263,11.263,0,0,1-5.13-1.116,4.189,4.189,0,0,1-2.216-4.123q0-3.658,3.937-6.355a.523.523,0,0,0,.31-.434.68.68,0,0,0-.248-.434,4.667,4.667,0,0,1-1.286-1.829,7.228,7.228,0,0,1-.388-2.542,16.858,16.858,0,0,1,.434-3.565,12.6,12.6,0,0,0,.341-2.635,3.373,3.373,0,0,0-.155-1.116,2.176,2.176,0,0,0-.527-.806q-.217-.217-.419-.388t-.2-.233q0-.186.434-.186a3.144,3.144,0,0,1,.744.109,3.65,3.65,0,0,1,.744.264,2.7,2.7,0,0,1,1.132.93,2.7,2.7,0,0,1,.326,1.426,4.392,4.392,0,0,1-.124,1.038q-.124.511-.279.961t-.217.6q-.031.093-.248.682a7.205,7.205,0,0,0-.465,1.349,7.473,7.473,0,0,0-.155,1.658,5.328,5.328,0,0,0,.295,1.752,4.256,4.256,0,0,0,.759,1.395,1.3,1.3,0,0,0,.961.543,2.894,2.894,0,0,0,.93-.217q.589-.217,1.178-.5a5.193,5.193,0,0,1,1.643-.589,2.181,2.181,0,0,1,1.163.356q.573.357.574.729a.857.857,0,0,1-.434.806,4.323,4.323,0,0,1-1.364.4,18.751,18.751,0,0,0-5.332,1.829,4.659,4.659,0,0,0-2.573,4.5,3.517,3.517,0,0,0,1.178,2.7,5.059,5.059,0,0,0,3.534,1.085,10.586,10.586,0,0,0,1.612-.124q.806-.124.961-.155a13.7,13.7,0,0,1,2.015-.248q1.736,0,1.736,1.023,0,.713-1.395,1.085A15.27,15.27,0,0,1,109.523.682ZM117.459-20.8a1.446,1.446,0,0,1-1.054-.527,7.6,7.6,0,0,0-1.116-1.085,4.71,4.71,0,0,0-1.333-.651q-.217-.062-.45-.124a2.6,2.6,0,0,1-.4-.139q-.171-.078-.171-.2.031-.341,1.457-.341a7.026,7.026,0,0,1,2.666.542q1.333.542,1.333,1.628a.783.783,0,0,1-.31.666A1.031,1.031,0,0,1,117.459-20.8Zm-2.976,2.7a1.283,1.283,0,0,1-.6-.155,1.174,1.174,0,0,1-.481-.5,6.529,6.529,0,0,0-1.023-1.364,3.811,3.811,0,0,0-1.4-.868,4.018,4.018,0,0,1-.527-.217q-.248-.124-.248-.279,0-.248.62-.248a9.122,9.122,0,0,1,1.814.233,5.481,5.481,0,0,1,1.984.837,1.878,1.878,0,0,1,.883,1.627.816.816,0,0,1-.31.7A1.156,1.156,0,0,1,114.483-18.1ZM130.448,1.054a17.733,17.733,0,0,0-4.092-5.208l-.326-.248q-.2-.155-.2-.248,0-.155.217-.155a2.792,2.792,0,0,1,.558.124,13.379,13.379,0,0,1,2.542,1.054,13.009,13.009,0,0,1,2.806,1.906A3.07,3.07,0,0,1,133.176.5a1.65,1.65,0,0,1-.418,1.24,1.329,1.329,0,0,1-.946.4Q131.037,2.139,130.448,1.054Zm-260.6,38.641q.558.279.651.155l.093-.186a28.549,28.549,0,0,0,1.24-2.635,19.948,19.948,0,0,0,.9-2.635q.155-.465.5-.465a.821.821,0,0,1,.4.124q2.015,1.116,2.015,1.457,0,.124-.279.186l-.093.031a1.492,1.492,0,0,0-.4.155,1.1,1.1,0,0,0-.31.31q-1.674,2.232-3.069,3.813a.643.643,0,0,0-.186.4.715.715,0,0,0,.248.5,2.661,2.661,0,0,1,.806,1.736,1.079,1.079,0,0,1-.248.744.8.8,0,0,1-.62.279.773.773,0,0,1-.341-.062q-.372-.062-.527-.62a6.754,6.754,0,0,0-.946-1.643,15.423,15.423,0,0,0-1.379-1.581q-.4-.372-.4-.558,0-.124.217-.124a1.769,1.769,0,0,1,.589.124A9.018,9.018,0,0,1-130.156,39.695Zm21.328-.341a.891.891,0,0,0,.775-.4l.341-.5a4.464,4.464,0,0,0,.263-.372,2.226,2.226,0,0,1,.295-.372.428.428,0,0,1,.279-.155,2.719,2.719,0,0,1,1.07.682,7.553,7.553,0,0,1,1.193,1.178.67.67,0,0,1,.155.341.474.474,0,0,1-.155.341.938.938,0,0,1-.558.155h-6.355a.65.65,0,0,0-.48.171.65.65,0,0,0-.171.48v4.185a.65.65,0,0,0,.171.48.65.65,0,0,0,.48.17h2.108a.891.891,0,0,0,.775-.4l.341-.5a4.466,4.466,0,0,0,.264-.372,2.226,2.226,0,0,1,.295-.372.428.428,0,0,1,.279-.155,2.664,2.664,0,0,1,1.054.651,6.961,6.961,0,0,1,1.178,1.147.682.682,0,0,1,.155.372.443.443,0,0,1-.186.341.938.938,0,0,1-.558.155H-115a33.392,33.392,0,0,0-4.092.341h-.186a.637.637,0,0,1-.62-.4l-.124-.217a.825.825,0,0,1-.093-.372.341.341,0,0,1,.155-.295.624.624,0,0,1,.434-.077q1.054.093,3.193.155h1.55a.65.65,0,0,0,.48-.17.65.65,0,0,0,.171-.48V40.9a.65.65,0,0,0-.171-.48.65.65,0,0,0-.48-.171h-1.55a22.673,22.673,0,0,0-3.41.341h-.186a.637.637,0,0,1-.62-.4l-.124-.248a.825.825,0,0,1-.093-.372.341.341,0,0,1,.155-.294.624.624,0,0,1,.434-.078q1.054.093,3.193.155h2.2a.575.575,0,0,0,.651-.651q-.062-2.356-.217-3.813v-.124a.517.517,0,0,1,.124-.356.433.433,0,0,1,.341-.139.984.984,0,0,1,.279.062,10.748,10.748,0,0,1,1.674.62q.465.248.465.434,0,.093-.248.279l-.031.031a.924.924,0,0,0-.434.775V38.7a.65.65,0,0,0,.171.48.65.65,0,0,0,.48.171ZM-127.8,46.7a.67.67,0,0,0-.186.434q0,.4.589.341l3.6-.279q.558-.062.558-.465a.772.772,0,0,0-.093-.341,14.744,14.744,0,0,0-.9-1.519q-.341-.589-.155-.682a.18.18,0,0,1,.124-.031.758.758,0,0,1,.5.217,8.655,8.655,0,0,1,2.5,2.294,3.945,3.945,0,0,1,.79,2.139,1.569,1.569,0,0,1-.263.93.766.766,0,0,1-.635.372.889.889,0,0,1-.4-.093,1.058,1.058,0,0,1-.465-.713,5.941,5.941,0,0,0-.279-.992.572.572,0,0,0-.775-.434l-1.457.31a.664.664,0,0,0-.589.713v5.425q.062,3.379.217,6.82V61.3a.666.666,0,0,1-.31.62,2.5,2.5,0,0,1-1.488.465.57.57,0,0,1-.388-.2.593.593,0,0,1-.2-.419q.124-1.829.217-3.549t.124-4.51V49.429a.571.571,0,0,0-.186-.465.619.619,0,0,0-.527-.093l-2.263.434q-.434.093-.527.248l-.093.124a.382.382,0,0,1-.31.155.549.549,0,0,1-.527-.434l-.372-.9a1.864,1.864,0,0,1-.062-.31q0-.4.558-.465.4,0,1.581-.062a.99.99,0,0,0,.775-.465q1.457-2.356,2.294-3.782a33.906,33.906,0,0,0,2.356-5.084.511.511,0,0,1,.527-.4,1.188,1.188,0,0,1,.372.093q2.046,1.023,2.046,1.4,0,.093-.341.217l-.124.031a1.038,1.038,0,0,0-.682.4A73.364,73.364,0,0,1-127.8,46.7Zm11.315,13.392a.65.65,0,0,0-.48.171.65.65,0,0,0-.171.48v.868q0,.186-.434.4a2.5,2.5,0,0,1-1.116.217.428.428,0,0,1-.356-.186.7.7,0,0,1-.139-.434q.155-1.4.217-3.72v-2.17a48.505,48.505,0,0,0-.279-5.456v-.124q0-.465.4-.465a.69.69,0,0,1,.31.062l1.395.62a1.934,1.934,0,0,0,.806.155h7.037a.891.891,0,0,0,.775-.4l.155-.186a1.887,1.887,0,0,0,.217-.279,1.269,1.269,0,0,1,.217-.264.329.329,0,0,1,.217-.077,2.06,2.06,0,0,1,.837.434,5.058,5.058,0,0,1,.961.837.67.67,0,0,1,.155.341.458.458,0,0,1-.279.4l-.217.093a.711.711,0,0,0-.558.713v2.7q.093,3.937.186,5.89v.155a.666.666,0,0,1-.31.62,2.5,2.5,0,0,1-1.488.465.36.36,0,0,1-.31-.217.772.772,0,0,1-.093-.341,1.7,1.7,0,0,1,.062-.372l.062-.31q0-.62-.651-.62Zm-14.26-8.122q.062-.589.527-.589l.248.062.558.217q.186.062.387.109t.388.108q.713.124.713.372,0,.155-.341.31l-.093.031a1.028,1.028,0,0,0-.558.682,26.083,26.083,0,0,1-1.271,3.395,17.175,17.175,0,0,1-1.581,2.806q-.279.372-.5.372a.219.219,0,0,1-.248-.248,3.717,3.717,0,0,1,.124-.5l.558-1.4a21.722,21.722,0,0,0,.744-2.868A17.439,17.439,0,0,0-130.745,51.971Zm7.037.124q-.279-.589-.093-.682l.093-.031a1.157,1.157,0,0,1,.527.279,8.543,8.543,0,0,1,2.092,2.387,4.637,4.637,0,0,1,.667,2.2,2.031,2.031,0,0,1-.279,1.116.826.826,0,0,1-.713.434.868.868,0,0,1-.434-.124.89.89,0,0,1-.4-.744A13.5,13.5,0,0,0-123.708,52.1Zm7.223-.682a.65.65,0,0,0-.48.17.65.65,0,0,0-.171.48v6.448a.65.65,0,0,0,.171.48.65.65,0,0,0,.48.17h7.13a.65.65,0,0,0,.48-.17.65.65,0,0,0,.17-.48V52.064a.65.65,0,0,0-.17-.48.65.65,0,0,0-.48-.17Zm37.789-.868a.891.891,0,0,0,.775-.4l.4-.589q.124-.155.325-.434t.326-.418a.344.344,0,0,1,.248-.139,3.476,3.476,0,0,1,1.147.729,9.014,9.014,0,0,1,1.364,1.255.682.682,0,0,1,.155.372.443.443,0,0,1-.186.341.938.938,0,0,1-.558.155h-9.889q-.589,0-.589.4a.75.75,0,0,0,.186.4,22.824,22.824,0,0,0,4.9,4.076,27.213,27.213,0,0,0,5.859,2.836q.62.186.558.341a.326.326,0,0,1-.217.2q-.186.077-.31.139a2.258,2.258,0,0,0-.961.9q-.248.434-.527.434a.731.731,0,0,1-.31-.093,25.706,25.706,0,0,1-5.735-3.875,21.716,21.716,0,0,1-4.4-5.3q-.248-.465-.341-.465-.124,0-.124.651v2.79q.093,4.154.186,6.262v.155a.829.829,0,0,1-.279.651,2.617,2.617,0,0,1-1.581.5.563.563,0,0,1-.4-.186.6.6,0,0,1-.186-.434q.217-2.7.279-6.014V53.676a.776.776,0,0,0-.093-.4.28.28,0,0,0-.248-.155.663.663,0,0,0-.434.279,27.875,27.875,0,0,1-4.96,4.433,33.358,33.358,0,0,1-6.2,3.441,1.487,1.487,0,0,1-.434.093.335.335,0,0,1-.248-.093.126.126,0,0,1-.031-.093q0-.186.5-.465a31.486,31.486,0,0,0,5.41-3.829,30.535,30.535,0,0,0,4.355-4.665.83.83,0,0,0,.155-.4.341.341,0,0,0-.155-.295.688.688,0,0,0-.4-.108h-4.4a33.392,33.392,0,0,0-4.092.341h-.186a.637.637,0,0,1-.62-.4l-.124-.217a.825.825,0,0,1-.093-.372.341.341,0,0,1,.155-.295.624.624,0,0,1,.434-.077q1.054.093,3.193.155h7.874a.65.65,0,0,0,.48-.17.65.65,0,0,0,.171-.48V47.445a.65.65,0,0,0-.171-.48.65.65,0,0,0-.48-.171h-5.3a.65.65,0,0,0-.48.171.65.65,0,0,0-.171.48v.279q0,.186-.511.419a2.556,2.556,0,0,1-1.069.232.469.469,0,0,1-.372-.186.657.657,0,0,1-.155-.434q.155-1.612.217-4.309v-2.48a48.507,48.507,0,0,0-.279-5.456v-.124q0-.465.4-.465a.69.69,0,0,1,.31.062l1.271.558a2.058,2.058,0,0,0,.806.186h13.95a.946.946,0,0,0,.806-.372l.155-.186q.093-.093.294-.341a.541.541,0,0,1,.388-.248,2.353,2.353,0,0,1,.9.465,5.379,5.379,0,0,1,1.054.9.534.534,0,0,1,.124.341.509.509,0,0,1-.279.4l-.186.093a.711.711,0,0,0-.558.713v2.945q.062,3.193.217,6.355v.124a.721.721,0,0,1-.341.651,3.574,3.574,0,0,1-.744.388,2.153,2.153,0,0,1-.775.17q-.124,0-.2-.17a1.193,1.193,0,0,1-.077-.481v-.031a.65.65,0,0,0-.171-.48.65.65,0,0,0-.48-.171H-85.95a.65.65,0,0,0-.48.171.65.65,0,0,0-.171.48v2.449a.65.65,0,0,0,.171.48.65.65,0,0,0,.48.17Zm-10.54-9.8a.65.65,0,0,0,.48-.171.65.65,0,0,0,.171-.48v-2.79a.65.65,0,0,0-.171-.48.65.65,0,0,0-.48-.171h-5.3a.65.65,0,0,0-.48.171.65.65,0,0,0-.171.48V40.1a.65.65,0,0,0,.171.48.65.65,0,0,0,.48.171Zm8.742,0a.65.65,0,0,0,.48-.171.65.65,0,0,0,.171-.48v-2.79a.65.65,0,0,0-.171-.48.65.65,0,0,0-.48-.171H-85.95a.65.65,0,0,0-.48.171.65.65,0,0,0-.171.48V40.1a.65.65,0,0,0,.171.48.65.65,0,0,0,.48.171Zm-14.043.9a.65.65,0,0,0-.48.171.65.65,0,0,0-.171.48v2.945a.65.65,0,0,0,.171.48.65.65,0,0,0,.48.171h5.3a.65.65,0,0,0,.48-.171.65.65,0,0,0,.171-.48V42.3a.65.65,0,0,0-.171-.48.65.65,0,0,0-.48-.171Zm8.587,0a.65.65,0,0,0-.48.171.65.65,0,0,0-.171.48v2.945a.65.65,0,0,0,.171.48.65.65,0,0,0,.48.171h5.456a.65.65,0,0,0,.48-.171.65.65,0,0,0,.171-.48V42.3a.65.65,0,0,0-.171-.48.65.65,0,0,0-.48-.171ZM-55.1,60.682a11.263,11.263,0,0,1-5.131-1.116,4.189,4.189,0,0,1-2.216-4.123q0-3.658,3.937-6.355a.523.523,0,0,0,.31-.434.68.68,0,0,0-.248-.434,4.667,4.667,0,0,1-1.287-1.829,7.228,7.228,0,0,1-.387-2.542,16.858,16.858,0,0,1,.434-3.565,12.6,12.6,0,0,0,.341-2.635,3.373,3.373,0,0,0-.155-1.116,2.175,2.175,0,0,0-.527-.806q-.217-.217-.418-.388t-.2-.232q0-.186.434-.186a3.144,3.144,0,0,1,.744.109,3.65,3.65,0,0,1,.744.263,2.7,2.7,0,0,1,1.132.93,2.7,2.7,0,0,1,.326,1.426,4.392,4.392,0,0,1-.124,1.038q-.124.511-.279.961t-.217.6q-.031.093-.248.682a7.2,7.2,0,0,0-.465,1.349,7.473,7.473,0,0,0-.155,1.659,5.328,5.328,0,0,0,.295,1.751,4.256,4.256,0,0,0,.759,1.4,1.3,1.3,0,0,0,.961.542,2.9,2.9,0,0,0,.93-.217q.589-.217,1.178-.5A5.193,5.193,0,0,1-53,46.329a2.181,2.181,0,0,1,1.163.357q.573.357.573.729a.857.857,0,0,1-.434.806,4.323,4.323,0,0,1-1.364.4,18.751,18.751,0,0,0-5.332,1.829,4.659,4.659,0,0,0-2.573,4.495,3.517,3.517,0,0,0,1.178,2.7,5.059,5.059,0,0,0,3.534,1.085A10.586,10.586,0,0,0-54.64,58.6q.806-.124.961-.155a13.7,13.7,0,0,1,2.015-.248q1.736,0,1.736,1.023,0,.713-1.395,1.085A15.271,15.271,0,0,1-55.1,60.682Zm28.861-.062A6.8,6.8,0,0,1-30.2,59.612,5.269,5.269,0,0,1-32.212,56.7a17.178,17.178,0,0,1-.573-4.852q0-2.945.4-6.913.248-2.6.248-3.441a9.605,9.605,0,0,0-.233-2.4A2.239,2.239,0,0,0-33.4,37.742q-.248-.155-.248-.341,0-.341.868-.341a2.48,2.48,0,0,1,2.216.9,4.337,4.337,0,0,1,.6,2.449q0,1.023-.434,4.65a59.953,59.953,0,0,0-.5,6.975,13.478,13.478,0,0,0,.481,4.076,3.529,3.529,0,0,0,1.628,2.077,6.727,6.727,0,0,0,3.224.635q3.72,0,9.858-4.495.062-.031.295-.186a.745.745,0,0,1,.357-.155q.093,0,.093.124,0,.217-.4.62a27.708,27.708,0,0,1-5.378,4.278A10.663,10.663,0,0,1-26.244,60.62ZM12.847,37.494a3.638,3.638,0,0,1,1.968.574,1.637,1.637,0,0,1,.915,1.379.633.633,0,0,1-.2.512.764.764,0,0,1-.511.171,9.336,9.336,0,0,1-1.736-.217l-.837-.124a7.153,7.153,0,0,0-1.023-.093,6.745,6.745,0,0,0-1.782.232,7.284,7.284,0,0,0-1.225.419,5.916,5.916,0,0,0-2.278,2.728A19.771,19.771,0,0,0,4.585,47.6a20.662,20.662,0,0,0-.542,4.34q0,3.131,1.069,4.386a4.021,4.021,0,0,0,3.24,1.256l.868-.062a11.646,11.646,0,0,1,1.426-.124q2.232,0,2.232,1.085,0,.806-1.255,1.069a12.268,12.268,0,0,1-2.526.264,8.219,8.219,0,0,1-4.046-.837,4.63,4.63,0,0,1-2.092-2.542,13.324,13.324,0,0,1-.62-4.464,16.475,16.475,0,0,1,1.085-5.937,17.129,17.129,0,0,1,2.821-4.914q.961-1.023.837-.961l-.124.031A17.633,17.633,0,0,0,4.493,41q-1.6.62-4.077,1.7l-1.333.558q-.248.124-1.085.558-.589.31-.93.465a1.7,1.7,0,0,1-.713.155A2.71,2.71,0,0,1-5.3,43.725,6.338,6.338,0,0,1-6.652,42.3a.682.682,0,0,1-.155-.372.3.3,0,0,1,.093-.217.3.3,0,0,1,.217-.093.821.821,0,0,1,.4.124q.062.031.527.294A2.3,2.3,0,0,0-4.42,42.3a3.721,3.721,0,0,0,.527-.062L-2,41.617q3.472-1.178,6.371-2.03a34.418,34.418,0,0,1,5.347-1.163,3.836,3.836,0,0,0,.9-.232q.434-.17.558-.233A3.811,3.811,0,0,1,12.847,37.494Zm38.493-6.03q-.656,0-.656.328,0,.205.41.574a3.838,3.838,0,0,1,1.6,2.911,1.836,1.836,0,0,1-.39,1.21,1.243,1.243,0,0,1-1,.471,3.6,3.6,0,0,1-.533-.082,1.241,1.241,0,0,1-.615-.943,9.236,9.236,0,0,0-1.886-3.977,1.251,1.251,0,0,0-1.066-.492H45.723A1.284,1.284,0,0,0,44.657,32a22.745,22.745,0,0,1-3.608,3.813q-.615.492-.861.246a.278.278,0,0,1-.082-.205,1.382,1.382,0,0,1,.328-.7q.287-.41,1.189-1.722a26.074,26.074,0,0,0,1.722-3.546,26.488,26.488,0,0,0,1.23-3.751q.123-.615.656-.615a1.023,1.023,0,0,1,.451.082q2.829,1.189,2.829,1.64,0,.164-.41.287l-.123.041a1.529,1.529,0,0,0-.9.738l-.533.984a.763.763,0,0,0-.164.492q0,.533.738.533h6.888a1.178,1.178,0,0,0,1.025-.533l.41-.615a5.906,5.906,0,0,0,.349-.492,2.943,2.943,0,0,1,.389-.492.566.566,0,0,1,.369-.2,3.714,3.714,0,0,1,1.353.861,9.206,9.206,0,0,1,1.558,1.517.9.9,0,0,1,.205.492.591.591,0,0,1-.205.41,1.24,1.24,0,0,1-.738.2ZM36.908,30.316a1.178,1.178,0,0,0,1.025-.533l.369-.533q.164-.205.328-.451a3.937,3.937,0,0,1,.348-.451.5.5,0,0,1,.348-.2q.328,0,1.25.779a6.524,6.524,0,0,1,1.333,1.435.9.9,0,0,1,.2.492.5.5,0,0,1-.287.451,1.135,1.135,0,0,1-.7.164H34.694q-.656,0-.656.328a1.007,1.007,0,0,0,.369.615A3.7,3.7,0,0,1,35.8,35.154a1.992,1.992,0,0,1-.369,1.23,1.131,1.131,0,0,1-.943.492,1.077,1.077,0,0,1-1.107-1.148A7.944,7.944,0,0,0,31.988,32a1.178,1.178,0,0,0-1.025-.533H30.43a1.1,1.1,0,0,0-1.025.574,23.714,23.714,0,0,1-5.084,5.453q-.656.492-.9.246l-.082-.164a1.157,1.157,0,0,1,.369-.7,26.233,26.233,0,0,0,2.378-3.362,21.931,21.931,0,0,0,1.784-3.547,30.152,30.152,0,0,0,1.292-3.833q.205-.615.656-.615a1.092,1.092,0,0,1,.492.123q2.706,1.148,2.706,1.64,0,.123-.369.287l-.123.041a1.529,1.529,0,0,0-.9.738l-.533.943a1.021,1.021,0,0,0-.123.451q0,.574.738.574Zm10.7,9.02a.784.784,0,0,0-.861.861V52.5q.082,4.469.287,9.02v.205a.981.981,0,0,1-.41.861,3.114,3.114,0,0,1-2.009.656.823.823,0,0,1-.594-.266.785.785,0,0,1-.266-.554q.164-2.419.287-4.694t.164-5.965V44.994a63.462,63.462,0,0,0-.369-7.216v-.164q0-.615.533-.615a.913.913,0,0,1,.41.082l1.927.82a2.451,2.451,0,0,0,1.025.205h5.945a1.178,1.178,0,0,0,1.025-.533l.205-.287a2.494,2.494,0,0,0,.287-.369,1.679,1.679,0,0,1,.287-.348.435.435,0,0,1,.287-.1,3.568,3.568,0,0,1,1.292.7A9.585,9.585,0,0,1,58.6,38.434a.706.706,0,0,1,.164.451.682.682,0,0,1-.328.533q-.369.164-.492.205a1.051,1.051,0,0,0-.7.984V55.08a4.514,4.514,0,0,1-.574,2.5,3.584,3.584,0,0,1-2.46,1.189l-.246.041q-.574,0-.779-.738a6.014,6.014,0,0,0-.287-.738,2.108,2.108,0,0,0-.7-.7,7.273,7.273,0,0,0-1.8-.615q-.82-.123-.82-.451,0-.246.656-.246.7,0,1.312.041t1.066.082l1.23.082a1.039,1.039,0,0,0,.7-.184.825.825,0,0,0,.2-.636V40.2a.784.784,0,0,0-.861-.861ZM36.006,56.72a.807.807,0,0,0,.472-.226.549.549,0,0,0,.184-.389.9.9,0,0,0-.2-.492,28.171,28.171,0,0,0-1.8-2.173q-.451-.451-.451-.7,0-.164.2-.164a1.443,1.443,0,0,1,.7.2,14.524,14.524,0,0,1,4.818,3.71,6.149,6.149,0,0,1,1.537,3.629,2.15,2.15,0,0,1-.328,1.25,1,1,0,0,1-.861.472,2.243,2.243,0,0,1-.492-.082.845.845,0,0,1-.41-.328,2.832,2.832,0,0,1-.246-.615,14.022,14.022,0,0,0-1.148-2.911.711.711,0,0,0-.7-.451,1.023,1.023,0,0,0-.451.082Q31.783,59.631,26.494,61.6a1.461,1.461,0,0,0-.7.369l-.082.205a.5.5,0,0,1-.451.287q-.451,0-.7-.574l-.738-1.558a.913.913,0,0,1-.082-.41q0-.533.656-.656l.943-.164a4.934,4.934,0,0,1,.943-.2.878.878,0,0,0,.779-.943V45.035a63.462,63.462,0,0,0-.369-7.216v-.164q0-.656.533-.656a.913.913,0,0,1,.41.082l1.927.82a2.451,2.451,0,0,0,1.025.205h6.56a1.358,1.358,0,0,0,1.066-.533l.164-.2q.123-.123.369-.431a.667.667,0,0,1,.492-.307,2.877,2.877,0,0,1,1.148.615,6.375,6.375,0,0,1,1.312,1.189.556.556,0,0,1,.164.41.585.585,0,0,1-.369.492l-.164.082a1.051,1.051,0,0,0-.7.984v3.239q.123,4.756.246,7.052v.164a.827.827,0,0,1-.533.861,4.447,4.447,0,0,1-1.845.451.3.3,0,0,1-.266-.2,1.307,1.307,0,0,1-.1-.574.736.736,0,0,0-.226-.574.911.911,0,0,0-.635-.205H30.43a.784.784,0,0,0-.861.861v5.74a.859.859,0,0,0,.225.636.688.688,0,0,0,.595.185Q33.054,57.458,36.006,56.72Zm1.271-13.079a.784.784,0,0,0,.861-.861V40.2a.784.784,0,0,0-.861-.861H30.43a.784.784,0,0,0-.861.861V42.78a.784.784,0,0,0,.861.861ZM30.43,44.83a.784.784,0,0,0-.861.861v2.87a.784.784,0,0,0,.861.861h6.847a.784.784,0,0,0,.861-.861v-2.87a.784.784,0,0,0-.861-.861ZM95.62,33.555q.082-.123.267-.389a2.093,2.093,0,0,1,.328-.389.465.465,0,0,1,.308-.123q.287,0,1,.7a8.3,8.3,0,0,1,1.127,1.312.664.664,0,0,1,.123.41.714.714,0,0,1-.41.615.139.139,0,0,1-.1.041.139.139,0,0,0-.1.041,1.051,1.051,0,0,0-.7.984v2.911q.123,4.264.205,6.478v.205a.88.88,0,0,1-.41.82,3.058,3.058,0,0,1-1.8.615.412.412,0,0,1-.349-.225,1.183,1.183,0,0,1-.143-.636.784.784,0,0,0-.861-.861h-.738a.784.784,0,0,0-.861.861V59.467a.734.734,0,0,0,.185.595,1.568,1.568,0,0,0,.84.144H95.62q1.681,0,2.009-.041A.772.772,0,0,0,98,60.021a.787.787,0,0,0,.205-.389,43.853,43.853,0,0,0,.984-5q.123-.779.369-.779t.246.861l.123,4.428a1.468,1.468,0,0,0,.615,1.066.972.972,0,0,1,.287.779q0,.861-1.087,1.209a16.133,16.133,0,0,1-4.161.348H92.914a3.5,3.5,0,0,1-2.316-.533,2.639,2.639,0,0,1-.554-1.927V46.921a.784.784,0,0,0-.861-.861H87.994a.811.811,0,0,0-.9.82,28.179,28.179,0,0,1-1.517,7.052A14.757,14.757,0,0,1,82.315,59.1,18.321,18.321,0,0,1,76.6,62.911q-.779.328-.9.041v-.123q0-.246.533-.656a16.006,16.006,0,0,0,5.966-6.232,24.475,24.475,0,0,0,2.152-8.979V46.88a.79.79,0,0,0-.226-.615.85.85,0,0,0-.594-.205.784.784,0,0,0-.861.861v.328q0,.205-.7.513a3.429,3.429,0,0,1-1.394.307.532.532,0,0,1-.43-.246.93.93,0,0,1-.185-.574q.164-1.6.246-4.141v-2.5a60.312,60.312,0,0,0-.328-6.4v-.164q0-.615.533-.615a.913.913,0,0,1,.41.082l1.558.7a2.722,2.722,0,0,0,1.066.246h5.74a1.024,1.024,0,0,0,.984-.533l.287-.533q.82-1.681,1.537-3.587a28.8,28.8,0,0,0,1.087-3.464q.2-.615.7-.615a1.023,1.023,0,0,1,.451.082q2.993,1.107,2.993,1.558,0,.123-.369.287l-.164.041a1.7,1.7,0,0,0-.9.7,36.993,36.993,0,0,1-3.936,5,1.1,1.1,0,0,0-.287.574.418.418,0,0,0,.2.348.91.91,0,0,0,.533.144H94.39a2.716,2.716,0,0,0,.574-.041h.082ZM74.341,37.983a1.156,1.156,0,0,0,1.025-.574l.369-.574q.123-.164.348-.492a3.617,3.617,0,0,1,.39-.492.473.473,0,0,1,.328-.164q.328,0,1.332.882a8.958,8.958,0,0,1,1.455,1.538.609.609,0,0,1,.164.451.627.627,0,0,1-.2.451,1.44,1.44,0,0,1-.779.2H74.3a.784.784,0,0,0-.861.861v2.665a1.077,1.077,0,0,0,.7,1.025,10.091,10.091,0,0,1,3.67,2.4,3.942,3.942,0,0,1,1.168,2.521,1.528,1.528,0,0,1-.348,1.025,1.067,1.067,0,0,1-.84.41,1.437,1.437,0,0,1-.451-.082,1.575,1.575,0,0,1-.738-.861A16.7,16.7,0,0,0,74.5,45.568a.792.792,0,0,0-.574-.328q-.492,0-.492.738V52.5q.082,4.469.287,9.02v.205a.88.88,0,0,1-.41.82,3.157,3.157,0,0,1-2.05.7.753.753,0,0,1-.512-.266.785.785,0,0,1-.267-.554q.164-2.419.287-4.694t.164-5.965V47.823q0-.738-.41-.738-.328,0-.574.492a32.554,32.554,0,0,1-5.248,7.462q-.574.574-.861.328a.334.334,0,0,1-.082-.246,1.429,1.429,0,0,1,.246-.7A40.828,40.828,0,0,0,70,40.156l.041-.246a.626.626,0,0,0-.226-.513.909.909,0,0,0-.594-.185H68.4a12.649,12.649,0,0,0-2.337.369,1.067,1.067,0,0,1-.328.041.815.815,0,0,1-.779-.533l-.164-.328a1.021,1.021,0,0,1-.123-.451.491.491,0,0,1,.226-.41.826.826,0,0,1,.594-.123q1.107.123,3.28.205h1.312a.784.784,0,0,0,.861-.861V31.956a.807.807,0,0,0-.246-.656.739.739,0,0,0-.7-.082q-1.886.451-4.592.984a1.725,1.725,0,0,1-.41.041q-.41,0-.492-.246v-.082q0-.287.7-.533a34.256,34.256,0,0,0,3.813-1.476,30.5,30.5,0,0,0,3.362-1.783,19.4,19.4,0,0,0,2.788-2.03.9.9,0,0,1,.656-.287.862.862,0,0,1,.615.287q2.378,2.173,2.378,2.665,0,.205-.574.2h-.41a2.719,2.719,0,0,0-1.066.164l-2.583.943a.867.867,0,0,0-.738.943v6.109a.784.784,0,0,0,.861.861Zm7.3-10.783q-.492-.738-.287-.9a.237.237,0,0,1,.164-.041,2.636,2.636,0,0,1,.7.2,11.522,11.522,0,0,1,3.69,2.891,4.792,4.792,0,0,1,1.189,2.85,1.9,1.9,0,0,1-.369,1.209,1.147,1.147,0,0,1-.943.472,1.757,1.757,0,0,1-.615-.123,1.134,1.134,0,0,1-.656-.861,14.944,14.944,0,0,0-1.148-2.87A22.259,22.259,0,0,0,81.639,27.2Zm13.325,9.266A.784.784,0,0,0,94.1,35.6H83.525a.784.784,0,0,0-.861.861v7.5a.784.784,0,0,0,.861.861H94.1a.784.784,0,0,0,.861-.861Zm16.22,23.72a1.455,1.455,0,0,1-.945-.48,2.706,2.706,0,0,1-.729-1.132,22.058,22.058,0,0,1-1.147-7.657,20.18,20.18,0,0,1,.31-3.72,34.026,34.026,0,0,1,.837-3.41q.217-.837.4-1.643a6.334,6.334,0,0,0,.186-1.4,3.648,3.648,0,0,0-.217-1.209,2.836,2.836,0,0,0-.558-.992,1.105,1.105,0,0,1-.248-.465q0-.155.124-.155a1.06,1.06,0,0,1,.5.186,5.448,5.448,0,0,1,1.628,1.55,4.029,4.029,0,0,1,.6,2.294,4.2,4.2,0,0,1-.186,1.209,11.994,11.994,0,0,1-.434,1.209q-.248.589-.31.775a16.5,16.5,0,0,0-.961,2.635,9.822,9.822,0,0,0-.31,2.449,8.6,8.6,0,0,0,.124,1.5q.124.7.372.7.155,0,.527-.62l.558-1.147,1.054-2.108q.217-.341.31-.341t.093.124l-.093.372q-.4,1.085-.9,2.806a10.745,10.745,0,0,0-.5,2.868,22.212,22.212,0,0,0,.527,3.968,9.269,9.269,0,0,1,.155.992.78.78,0,0,1-.248.62A.789.789,0,0,1,111.184,60.186Zm11.222-17.453a8.319,8.319,0,0,1-2.232-.248,6.169,6.169,0,0,1-1.813-.806,3.019,3.019,0,0,1-1.07-1.085.952.952,0,0,1-.124-.372.082.082,0,0,1,.093-.093.766.766,0,0,1,.326.155,2.816,2.816,0,0,0,.45.248,5.884,5.884,0,0,0,2.232.4,20.475,20.475,0,0,0,2.372-.186q1.5-.186,2.5-.4a1.994,1.994,0,0,1,.589-.124,1.819,1.819,0,0,1,1.085.356.975.975,0,0,1,.5.759q0,.713-1.581,1.054A15.7,15.7,0,0,1,122.406,42.733Zm1.085,16a12.549,12.549,0,0,1-4.185-.636,4.135,4.135,0,0,1-2.542-2.526,2.59,2.59,0,0,1-.186-.558.11.11,0,0,1,.124-.124.417.417,0,0,1,.233.109q.139.109.232.171a7.267,7.267,0,0,0,2.7,1.3,9.118,9.118,0,0,0,2.139.186,29.762,29.762,0,0,0,4.123-.372l1.054-.124a1.763,1.763,0,0,1,1.162.372,1.053,1.053,0,0,1,.449.806q0,.837-1.472,1.116A21.286,21.286,0,0,1,123.491,58.729Zm-220.4,59.876q-.465,0-.465-.248t.434-.31a19.92,19.92,0,0,0,6.835-1.813,13.776,13.776,0,0,0,4.852-3.642,7.123,7.123,0,0,0,1.767-4.557,5.669,5.669,0,0,0-.822-3.115,5.306,5.306,0,0,0-2.123-1.937,5.96,5.96,0,0,0-2.7-.651,9.134,9.134,0,0,0-3.859.93,19.674,19.674,0,0,0-3.038,1.674q-1.039.744-2.682,2.015-.217.155-.93.744a9,9,0,0,1-1.426.977,2.769,2.769,0,0,1-1.3.387,3.134,3.134,0,0,1-1.6-.511,11.06,11.06,0,0,1-1.473-1.038q-.527-.434-.527-.682t.4-.248q.217,0,.883.078a9.455,9.455,0,0,0,.946.077,4.187,4.187,0,0,0,1.891-.465q.93-.465,2.48-1.457,1.643-1.054,2.961-1.751a16.073,16.073,0,0,1,3.116-1.209,14.35,14.35,0,0,1,3.937-.512,8.385,8.385,0,0,1,3.906.946,7.591,7.591,0,0,1,2.929,2.635,6.859,6.859,0,0,1,1.1,3.828,8.47,8.47,0,0,1-.961,3.611q-.961,2-4.4,3.906T-96.906,118.605Zm34.782-19.282a20.169,20.169,0,0,1-3.472,1.891.926.926,0,0,0-.589.62q-1.147,3.162-2.48,6.618t-2.139,5.534a1.407,1.407,0,0,1-.511.62,1.223,1.223,0,0,1-.7.248.618.618,0,0,1-.589-.434,2.763,2.763,0,0,1-.186-1.085,1.536,1.536,0,0,1,.047-.465,2.379,2.379,0,0,1,.2-.372q.341-.62.589-1.116l.744-1.488q.341-.682.62-1.209.992-1.891,1.643-3.24A27.49,27.49,0,0,0-67.8,102.7a1.188,1.188,0,0,0,.093-.372q0-.372-.341-.372a1.742,1.742,0,0,0-.341.031,1.577,1.577,0,0,1-.31.031,3.488,3.488,0,0,1-2.108-.589,4.065,4.065,0,0,1-1.209-1.333,1.182,1.182,0,0,1-.217-.62q0-.186.155-.186.124,0,.434.31a3.166,3.166,0,0,0,2.232.651,8.547,8.547,0,0,0,1.922-.31.763.763,0,0,0,.589-.682,5.344,5.344,0,0,0,.031-.682A2.757,2.757,0,0,0-67.27,97a1.822,1.822,0,0,0-.7-.6q-.45-.233-.45-.326,0-.124.2-.217a1.139,1.139,0,0,1,.48-.093,2.566,2.566,0,0,1,.868.155,2.987,2.987,0,0,1,1.333.775,1.734,1.734,0,0,1,.4,1.178,1.471,1.471,0,0,1-.031.341l-.031.558q0,.31.124.279l.279-.155q.248-.155.434-.295t.186-.263q0-.124-.279-.341a2.865,2.865,0,0,0-.356-.217q-.233-.124-.233-.217,0-.124.279-.124l1.116.031a2.049,2.049,0,0,0,.542-.093,2.21,2.21,0,0,1,.6-.093.943.943,0,0,1,.7.263.9.9,0,0,1,.264.667,1.376,1.376,0,0,1-.155.62A1.263,1.263,0,0,1-62.124,99.323Zm6.355,4.526a2.955,2.955,0,0,0-2.278.961,4.132,4.132,0,0,0-.883,2.883,40.125,40.125,0,0,0,.434,4.991l.186,1.457a.763.763,0,0,0,.589.713,19.5,19.5,0,0,1,2.527.93,6.382,6.382,0,0,1,1.721,1.054,1.888,1.888,0,0,1,.682,1.24.832.832,0,0,1-.232.589.755.755,0,0,1-.574.248,1.406,1.406,0,0,1-.635-.186q-.357-.186-.977-.589a11.191,11.191,0,0,0-2.139-1.116,1.045,1.045,0,0,0-.465-.124q-.279,0-.279.186v.4a3.039,3.039,0,0,1-1.286,2.589,4.965,4.965,0,0,1-3.022.946A5.558,5.558,0,0,1-64.5,120.6a4.346,4.346,0,0,1-1.705-1.193,2.715,2.715,0,0,1-.667-1.829,2.72,2.72,0,0,1,1.581-2.465,7.842,7.842,0,0,1,3.875-.883,7.445,7.445,0,0,1,.775.031h.093q.589,0,.589-.62-.186-2.6-.186-3.844a13.872,13.872,0,0,1,.326-3.379,4.153,4.153,0,0,1,1.348-2.123,8.808,8.808,0,0,1,3.131-1.535q.589-.155.589-.589a1.519,1.519,0,0,0-.45-.9,5.467,5.467,0,0,0-.915-.868q-.186-.155-.186-.217t.217-.062a3.406,3.406,0,0,1,.713.109,4.34,4.34,0,0,1,.806.263,7.208,7.208,0,0,1,2.046,1.41,2.611,2.611,0,0,1,.992,1.783,1.267,1.267,0,0,1-.434.961,1.417,1.417,0,0,1-.992.4,1.367,1.367,0,0,1-.62-.139,4.445,4.445,0,0,1-.682-.45,5.209,5.209,0,0,0-.759-.465A1.749,1.749,0,0,0-55.769,103.849Zm-7.068,15.562a2.85,2.85,0,0,0,2.2-.7,3.192,3.192,0,0,0,.713-1.937v-.093a.581.581,0,0,0-.558-.62,13.6,13.6,0,0,0-1.891-.155,5.711,5.711,0,0,0-2.356.434,1.377,1.377,0,0,0-.961,1.271,1.454,1.454,0,0,0,.852,1.333A4.112,4.112,0,0,0-62.837,119.411Zm43.214-23.56a8.409,8.409,0,0,1,2.728.465,1.7,1.7,0,0,1,1.364,1.643.8.8,0,0,1-.264.635.817.817,0,0,1-.542.232,1.325,1.325,0,0,1-1.085-.5,5.864,5.864,0,0,0-1.008-1.054,5.007,5.007,0,0,0-1.318-.682,3.3,3.3,0,0,0-.465-.14,1.846,1.846,0,0,1-.357-.108.2.2,0,0,1-.139-.186Q-20.708,95.851-19.623,95.851Zm-11.47,7.378a3.124,3.124,0,0,1,2.743,1.255,5.983,5.983,0,0,1,.884,3.488,20.681,20.681,0,0,1-.341,3.162,23.97,23.97,0,0,1-1.054,4.061,8.119,8.119,0,0,1-1.767,3.069,6.662,6.662,0,0,1-1.147.93,2.034,2.034,0,0,1-1.054.372.816.816,0,0,1-.7-.31,2.939,2.939,0,0,1-.388-.713q-.155-.4-.217-.527a9.909,9.909,0,0,0-1.488-2.356,1.23,1.23,0,0,1-.341-.558q0-.062.093-.062a5.326,5.326,0,0,1,1.209.682l.558.372a5.7,5.7,0,0,0,.806.527,1.376,1.376,0,0,0,.62.155q1.054,0,1.875-1.674a16.525,16.525,0,0,0,1.286-3.89,18.385,18.385,0,0,0,.465-3.612q0-3.255-2.015-3.255a8.893,8.893,0,0,0-3.193.9,1.028,1.028,0,0,0-.558.682,36.414,36.414,0,0,1-4.526,11.16,4.069,4.069,0,0,1-.868,1.07,1.426,1.426,0,0,1-.9.387.8.8,0,0,1-.589-.248.841.841,0,0,1-.248-.62,4.734,4.734,0,0,1,1.209-2.449,24.319,24.319,0,0,0,4.03-8,.806.806,0,0,0,.031-.248q0-.434-.4-.434a.772.772,0,0,0-.341.093,11.373,11.373,0,0,1-2.821.93,2.534,2.534,0,0,1-1.318-.4,3.68,3.68,0,0,1-1.1-1.007,1.976,1.976,0,0,1-.434-1.132q0-.279.155-.279a1.057,1.057,0,0,1,.388.124q.264.124.419.186a4.52,4.52,0,0,0,1.8.372,8.812,8.812,0,0,0,1.907-.232q.791-.2,1.938-.6a.862.862,0,0,0,.558-.682,13.47,13.47,0,0,0,.341-2.883,3.6,3.6,0,0,0-.651-2.356q-.217-.248-.574-.62t-.356-.5q0-.186.264-.279a2.029,2.029,0,0,1,.667-.093A4.515,4.515,0,0,1-35,97.37a3.152,3.152,0,0,1,1.023.465,1.233,1.233,0,0,1,.5.992,5.213,5.213,0,0,1-.186.992q-.155.62-.248,1.209-.031.248-.093.713t-.186,1.24l-.031.217a.423.423,0,0,0,.17.387.582.582,0,0,0,.45.047A9.389,9.389,0,0,1-31.093,103.229Zm8.618-4.123q-.093-.031-.325-.093a1.091,1.091,0,0,1-.341-.14.237.237,0,0,1-.108-.2q0-.31.992-.31a6.857,6.857,0,0,1,2.836.6,1.926,1.926,0,0,1,1.349,1.783.81.81,0,0,1-.294.651,1.048,1.048,0,0,1-.7.248,1.1,1.1,0,0,1-.992-.558A5.945,5.945,0,0,0-21.1,99.835,3.581,3.581,0,0,0-22.475,99.106Zm-1.891,3.844a8.879,8.879,0,0,1,3.922.93,5.71,5.71,0,0,1,2.216,1.953,4.034,4.034,0,0,1,.682,2.077,2.869,2.869,0,0,1-.6,1.844,1.661,1.661,0,0,1-1.256.759,1.111,1.111,0,0,1-.682-.232,4.329,4.329,0,0,0-.372-.264,2.81,2.81,0,0,0-1.178-.434q-.744-.124-1.767-.248-.434-.062-.434-.186,0-.155.372-.186,2.015-.217,2.108-.217a3.367,3.367,0,0,0,1.163-.372.793.793,0,0,0,.326-.713,3.619,3.619,0,0,0-1.4-2.728,7.326,7.326,0,0,0-3.193-1.674q-.279-.062-.279-.186T-24.366,102.95Zm25.42-2.418a3.168,3.168,0,0,1,2.17.992,7.055,7.055,0,0,1,1.7,2.79,12.174,12.174,0,0,1,.651,4.154A14.61,14.61,0,0,1,3.549,116.4a11.857,11.857,0,0,1-6.681,4.743,1.718,1.718,0,0,1-.558.124q-.279,0-.279-.217a.262.262,0,0,1,.155-.217,10.485,10.485,0,0,0,5.657-5.084,16.161,16.161,0,0,0,1.628-7.1,14.175,14.175,0,0,0-.775-4.976q-.775-2.061-2.077-2.061a2.538,2.538,0,0,0-1.953,1.255,10.986,10.986,0,0,0-1.519,2.945,8.892,8.892,0,0,0-.589,2.806,2.99,2.99,0,0,0,.17,1.007,7.646,7.646,0,0,0,.512,1.1q.186.372.341.775a1.969,1.969,0,0,1,.155.682.693.693,0,0,1-.2.511.733.733,0,0,1-.543.2,1.724,1.724,0,0,1-1.364-.729,4.882,4.882,0,0,1-.883-1.8,7.654,7.654,0,0,1-.295-2.03,15.791,15.791,0,0,1,.325-2.976q.326-1.674.884-4.061.279-1.178.5-2.263a9.114,9.114,0,0,0,.217-1.55,1.7,1.7,0,0,0-.465-1.209,3.966,3.966,0,0,0-.418-.419q-.264-.232-.264-.387t.217-.248a1.336,1.336,0,0,1,.527-.093,1.662,1.662,0,0,1,1.333.7,2.764,2.764,0,0,1,.558,1.783A8.357,8.357,0,0,1-2.4,99.68q-.264,1.038-.791,2.681l-.31.93a.385.385,0,0,0,.279.124q.248,0,.465-.341Q-1.147,100.532,1.054,100.532Zm31.527,14.477a.68.68,0,0,0,.589.682,11.776,11.776,0,0,1,3.364,1.736,2.927,2.927,0,0,1,1.317,2.325.771.771,0,0,1-.217.635.739.739,0,0,1-.465.171,1.883,1.883,0,0,1-1.209-.589q-.217-.186-1.038-.915t-1.628-1.348a.507.507,0,0,0-.372-.155q-.31,0-.465.465a4.074,4.074,0,0,1-1.721,2.092,5.7,5.7,0,0,1-3.053.759,6.537,6.537,0,0,1-3.224-.79,2.461,2.461,0,0,1-1.426-2.247,2.34,2.34,0,0,1,.759-1.752,4.739,4.739,0,0,1,1.891-1.085,7.543,7.543,0,0,1,2.278-.356,12.083,12.083,0,0,1,2.263.279l.186.031q.558,0,.5-.62-.062-.651-.124-2.2-.062-.558-.124-1.8-.062-.682-.713-.589a15.156,15.156,0,0,1-2.573.248,6.026,6.026,0,0,1-2.867-.635,3.947,3.947,0,0,1-1.752-1.783,1.206,1.206,0,0,1-.093-.341q0-.155.124-.155a.383.383,0,0,1,.217.093,1.4,1.4,0,0,0,.186.124,8.849,8.849,0,0,0,1.612.821,6.1,6.1,0,0,0,2.325.419,19.584,19.584,0,0,0,2.821-.279q.589-.093.589-.527v-.4q0-1.922.093-3.875v-.186q0-.465-.186-.465h-.248a4.217,4.217,0,0,1-1.55-.279,5.829,5.829,0,0,1-1.271-.775,4.919,4.919,0,0,1-.992-.961,1.172,1.172,0,0,1-.217-.465.11.11,0,0,1,.124-.124,1.2,1.2,0,0,1,.5.155l.651.341a4.539,4.539,0,0,0,.9.45,3.174,3.174,0,0,0,1.023.14,3.957,3.957,0,0,0,.961-.124.727.727,0,0,0,.651-.651,13.767,13.767,0,0,0,.186-1.86,3.842,3.842,0,0,0-.341-1.674,4.2,4.2,0,0,0-.589-.837,4.361,4.361,0,0,1-.279-.372.6.6,0,0,1-.124-.31.361.361,0,0,1,.2-.31.962.962,0,0,1,.512-.124,2.711,2.711,0,0,1,.9.232,2.979,2.979,0,0,1,1.054.713,1.688,1.688,0,0,1,.465,1.224,5.762,5.762,0,0,1-.186,1.225q-.186.791-.4,1.472a.989.989,0,0,0,.186.419.4.4,0,0,0,.5.2l.9-.279a1.669,1.669,0,0,1,.527-.093.938.938,0,0,1,.558.155.534.534,0,0,1,.217.465,1.031,1.031,0,0,1-.233.62,1.594,1.594,0,0,1-.667.5,11.782,11.782,0,0,1-1.891.62.722.722,0,0,0-.62.682q-.124,1.457-.124,3.224a6.918,6.918,0,0,0,.031.775.55.55,0,0,0,.2.465.6.6,0,0,0,.542.062,6.4,6.4,0,0,0,1.674-.775.928.928,0,0,0,.465-.713,1.988,1.988,0,0,0-.558-1.054q-.062-.093-.171-.232a2.959,2.959,0,0,1-.2-.295,1.172,1.172,0,0,1-.217-.465.082.082,0,0,1,.093-.093,1.485,1.485,0,0,1,.558.341,4.692,4.692,0,0,0,2.387.93,1.239,1.239,0,0,1,.744.31.884.884,0,0,1,.217.651,1.667,1.667,0,0,1-.31.93,2.308,2.308,0,0,1-.961.775,21.079,21.079,0,0,1-3.751,1.209q-.62.186-.527,1.023.093,1.054.434,3.317Zm-5.487,4.34a4.78,4.78,0,0,0,2.588-.635,2.723,2.723,0,0,0,1.256-1.813v-.155a.608.608,0,0,0-.465-.62,8.281,8.281,0,0,0-2.79-.5,5.185,5.185,0,0,0-2.434.574,1.722,1.722,0,0,0-1.1,1.535,1.321,1.321,0,0,0,.914,1.178A4.676,4.676,0,0,0,27.094,119.349ZM72.478,100.5a3.612,3.612,0,0,1,1.178.388.8.8,0,0,1,.372.729q0,.837-1.023.837-.031,0-1.209-.124a51.214,51.214,0,0,0-5.673-.4q-.651,0-1.829.062-.62,0-.62.651-.062,2.294-.062,3.441v1.612a2.345,2.345,0,0,0,.217.806,12.024,12.024,0,0,1,.837,2.31,9.114,9.114,0,0,1,.31,2.216,7.652,7.652,0,0,1-1.209,4.371,9.112,9.112,0,0,1-2.821,2.774,11.017,11.017,0,0,1-2.976,1.317,1.314,1.314,0,0,1-.31.062q-.217,0-.217-.155,0-.217.341-.341a7.8,7.8,0,0,0,4.139-3.519,8.893,8.893,0,0,0,1.007-3.7q0-.031-.171.108t-.48.356a2.488,2.488,0,0,1-1.3.527,2.195,2.195,0,0,1-1.566-.635,4.813,4.813,0,0,1-1.069-1.535,9.22,9.22,0,0,1-.589-1.705,7.052,7.052,0,0,1-.217-1.643,4,4,0,0,1,.791-2.5,2.625,2.625,0,0,1,2.216-1.039,2.754,2.754,0,0,1,.868.155.773.773,0,0,0,.341.062q.372,0,.4-.4a20.286,20.286,0,0,0,.217-2.728.61.61,0,0,0-.186-.5.7.7,0,0,0-.527-.124,27.314,27.314,0,0,0-6.293,2.015q-.682.31-1.209.5a3.624,3.624,0,0,1-1.209.186,3.524,3.524,0,0,1-1.767-.5,5.689,5.689,0,0,1-1.24-.992q-.558-.589-.558-.9,0-.186.217-.186a3.159,3.159,0,0,1,.837.155,8.27,8.27,0,0,0,1.612.217,9.977,9.977,0,0,0,2.232-.279q1.054-.217,3.085-.589t4.386-.744a.608.608,0,0,0,.589-.651q0-.341-.062-1.209l-.031-.775a3.737,3.737,0,0,0-.341-1.441,2.672,2.672,0,0,0-.651-.946,4.677,4.677,0,0,0-.45-.341q-.233-.155-.233-.248,0-.217.388-.341a2.484,2.484,0,0,1,.759-.124,2.521,2.521,0,0,1,1.085.248q1.333.589,1.333,1.488a1.152,1.152,0,0,1-.031.279l-.031.217a.729.729,0,0,0,.372.62A21.618,21.618,0,0,0,68.7,99.912a12.441,12.441,0,0,0,1.612.356q.744.109,1.3.139A7.728,7.728,0,0,1,72.478,100.5Zm-6.665.093q.155,0,.449-.016a1.781,1.781,0,0,0,.434-.062q.139-.046.139-.14,0-.124-.2-.248a1.655,1.655,0,0,1-.263-.186L64.635,98.7a.83.83,0,0,0-.4-.155q-.372,0-.434.527-.031.31-.031,1.116,0,.62.93.527Zm-5.177,11.9a1.307,1.307,0,0,0,1.069-.527,2.818,2.818,0,0,0,.419-1.736,6.872,6.872,0,0,0-.434-2.325q-.434-1.209-1.364-1.209a1.553,1.553,0,0,0-1.348.775,3.659,3.659,0,0,0-.512,2.046,3.405,3.405,0,0,0,.682,2.03A1.885,1.885,0,0,0,60.636,112.5Zm22.847,9.362a4.036,4.036,0,0,1-4.061-4.061,3.93,3.93,0,0,1,.543-2.015,4.087,4.087,0,0,1,3.519-2.015,3.93,3.93,0,0,1,2.015.543,4.025,4.025,0,0,1,1.472,1.472,3.93,3.93,0,0,1,.543,2.015,4.036,4.036,0,0,1-2.015,3.518A3.93,3.93,0,0,1,83.483,121.86Zm0-.775a3.281,3.281,0,0,0,3.286-3.286,3.131,3.131,0,0,0-.961-2.294,3.293,3.293,0,0,0-4.65,0A3.131,3.131,0,0,0,80.2,117.8a3.281,3.281,0,0,0,3.286,3.286Z" transform="translate(155 5425.576)" fill="#fff"/>
    <g id="強調" transform="translate(195 5436)">
      <circle id="楕円形_9" data-name="楕円形 9" cx="4.5" cy="4.5" r="4.5" fill="#f4d272"/>
      <circle id="楕円形_10" data-name="楕円形 10" cx="4.5" cy="4.5" r="4.5" transform="translate(41)" fill="#f4d272"/>
    </g>
  </g>
</svg>
