<svg xmlns="http://www.w3.org/2000/svg" width="522.944" height="53.28" viewBox="0 0 522.944 53.28">
  <g id="copy" transform="translate(-548.392 -5376)">
    <path id="パス_32351" data-name="パス 32351" d="M-258.368-5.152a.7.7,0,0,0,.608.7,12.155,12.155,0,0,1,3.472,1.792,3.022,3.022,0,0,1,1.36,2.4.8.8,0,0,1-.224.656.763.763,0,0,1-.48.176,1.944,1.944,0,0,1-1.248-.608q-.224-.192-1.072-.944t-1.68-1.392a.524.524,0,0,0-.384-.16q-.32,0-.48.48a4.206,4.206,0,0,1-1.776,2.16A5.879,5.879,0,0,1-263.424.9,6.748,6.748,0,0,1-266.752.08a2.541,2.541,0,0,1-1.472-2.32,2.416,2.416,0,0,1,.784-1.808,4.892,4.892,0,0,1,1.952-1.12,7.786,7.786,0,0,1,2.352-.368,12.472,12.472,0,0,1,2.336.288l.192.032q.576,0,.512-.64-.064-.672-.128-2.272-.064-.576-.128-1.856-.064-.7-.736-.608a15.644,15.644,0,0,1-2.656.256,6.221,6.221,0,0,1-2.96-.656,4.074,4.074,0,0,1-1.808-1.84,1.245,1.245,0,0,1-.1-.352q0-.16.128-.16a.4.4,0,0,1,.224.1,1.449,1.449,0,0,0,.192.128,9.134,9.134,0,0,0,1.664.848,6.293,6.293,0,0,0,2.4.432,20.215,20.215,0,0,0,2.912-.288q.608-.1.608-.544v-.416q0-1.984.1-4v-.192q0-.48-.192-.48h-.256a4.353,4.353,0,0,1-1.6-.288,6.017,6.017,0,0,1-1.312-.8,5.079,5.079,0,0,1-1.024-.992,1.21,1.21,0,0,1-.224-.48.113.113,0,0,1,.128-.128,1.24,1.24,0,0,1,.512.16l.672.352a4.687,4.687,0,0,0,.928.464,3.276,3.276,0,0,0,1.056.144,4.085,4.085,0,0,0,.992-.128.75.75,0,0,0,.672-.672,14.208,14.208,0,0,0,.192-1.92,3.966,3.966,0,0,0-.352-1.728,4.338,4.338,0,0,0-.608-.864,4.509,4.509,0,0,1-.288-.384.622.622,0,0,1-.128-.32.372.372,0,0,1,.208-.32.993.993,0,0,1,.528-.128,2.8,2.8,0,0,1,.928.24,3.075,3.075,0,0,1,1.088.736,1.743,1.743,0,0,1,.48,1.264,5.949,5.949,0,0,1-.192,1.264q-.192.816-.416,1.52a1.021,1.021,0,0,0,.192.432.417.417,0,0,0,.512.208l.928-.288a1.723,1.723,0,0,1,.544-.1.968.968,0,0,1,.576.16.551.551,0,0,1,.224.48,1.064,1.064,0,0,1-.24.64,1.645,1.645,0,0,1-.688.512,12.162,12.162,0,0,1-1.952.64.745.745,0,0,0-.64.7q-.128,1.5-.128,3.328a7.14,7.14,0,0,0,.032.8.568.568,0,0,0,.208.48.615.615,0,0,0,.56.064,6.605,6.605,0,0,0,1.728-.8.958.958,0,0,0,.48-.736,2.052,2.052,0,0,0-.576-1.088q-.064-.1-.176-.24a3.051,3.051,0,0,1-.208-.3,1.21,1.21,0,0,1-.224-.48.085.085,0,0,1,.1-.1,1.533,1.533,0,0,1,.576.352,4.08,4.08,0,0,0,1.728.832,4.079,4.079,0,0,0,.736.128,1.279,1.279,0,0,1,.768.32.913.913,0,0,1,.224.672,1.72,1.72,0,0,1-.32.96,2.383,2.383,0,0,1-.992.8,21.76,21.76,0,0,1-3.872,1.248q-.64.192-.544,1.056.1,1.088.448,3.424Zm-5.664,4.48a4.934,4.934,0,0,0,2.672-.656,2.811,2.811,0,0,0,1.3-1.872v-.16a.627.627,0,0,0-.48-.64,8.548,8.548,0,0,0-2.88-.512,5.353,5.353,0,0,0-2.512.592,1.777,1.777,0,0,0-1.136,1.584,1.364,1.364,0,0,0,.944,1.216A4.827,4.827,0,0,0-264.032-.672Zm47.744-24.48a6.884,6.884,0,0,1,1.664.256,5.134,5.134,0,0,1,1.776.832,1.728,1.728,0,0,1,.784,1.44.773.773,0,0,1-.272.656.913.913,0,0,1-.56.208,1.292,1.292,0,0,1-1.152-.576,4.534,4.534,0,0,0-.96-1.072,9.466,9.466,0,0,0-1.44-.88q-.288-.128-.512-.224t-.368-.176q-.144-.08-.144-.176Q-217.472-25.152-216.288-25.152Zm-15.264,4.48a2.171,2.171,0,0,0,.56.08,3.34,3.34,0,0,1,.576.064.634.634,0,0,1,.368.272.637.637,0,0,1,.1.384,1.328,1.328,0,0,1-.544.96,13.641,13.641,0,0,1-3.008,2.144.979.979,0,0,0-.544.736q-.96,4.992-1.712,8.384t-1.424,5.408Q-237.984.1-238.592.1a1.309,1.309,0,0,1-.928-.4,1.378,1.378,0,0,1-.416-1.04,4.99,4.99,0,0,1,.544-1.6,42.429,42.429,0,0,0,1.664-4.448q1.248-3.936,2.048-7.744a.549.549,0,0,0,.032-.224.4.4,0,0,0-.176-.368.671.671,0,0,0-.5-.048,7,7,0,0,1-1.152.1,3.67,3.67,0,0,1-1.472-.336,5.674,5.674,0,0,1-1.408-.88q-.32-.256-.32-.416,0-.1.16-.1l.544.064a6.841,6.841,0,0,0,1.344.128,7.951,7.951,0,0,0,3.04-.576.833.833,0,0,0,.576-.7,23.381,23.381,0,0,0,.288-2.944,3.459,3.459,0,0,0-.288-1.536,2.143,2.143,0,0,0-.816-.9q-.528-.32-.56-.352a.27.27,0,0,1-.16-.224q0-.192.448-.192a5.472,5.472,0,0,1,.928.1,3.909,3.909,0,0,1,.96.288,3.18,3.18,0,0,1,1.072.752,1.613,1.613,0,0,1,.336,1.072v.352a1.036,1.036,0,0,0,.352.8A2.648,2.648,0,0,0-231.552-20.672Zm11.744-2.144a8.506,8.506,0,0,1,2.08.3,5.849,5.849,0,0,1,2.08.976,2.041,2.041,0,0,1,.9,1.7.87.87,0,0,1-.336.736,1.21,1.21,0,0,1-.752.256,1.409,1.409,0,0,1-.656-.176,1.227,1.227,0,0,1-.528-.56,6.505,6.505,0,0,0-1.04-1.472,4.376,4.376,0,0,0-1.488-.96q-.128-.064-.384-.16a1.7,1.7,0,0,1-.368-.176.245.245,0,0,1-.112-.208q0-.128.176-.192A1.272,1.272,0,0,1-219.808-22.816Zm-13.5,3.136a.2.2,0,0,0,.128.208.233.233,0,0,0,.256-.08,1.221,1.221,0,0,0,.352-.608q-.48-.9-.512-.768a1.764,1.764,0,0,1-.064.352l-.16.8Zm9.088,2.592a4.739,4.739,0,0,1-1.3-.64q-.592-.416-.592-.64,0-.16.224-.16l.48.1a7.947,7.947,0,0,0,1.7.256q.288,0,1.312-.128a11.938,11.938,0,0,1,1.344-.128,3.552,3.552,0,0,1,1.92.448,1.517,1.517,0,0,1,.7,1.376,1.078,1.078,0,0,1-.192.608,1.392,1.392,0,0,1-1.12.384,2.651,2.651,0,0,0-.48.032,4.141,4.141,0,0,0-1.424.512,12.538,12.538,0,0,0-1.424.992q-.576.416-.672.48a1.29,1.29,0,0,1-.576.192q-.128,0-.128-.1a.483.483,0,0,1,.128-.288,4.711,4.711,0,0,1,.608-.672,6.173,6.173,0,0,0,1.344-1.792q0-.256-.352-.4a5.9,5.9,0,0,0-.8-.256Zm5.344,14.72q1.216,0,1.216.928,0,1.056-1.44,1.376a14.886,14.886,0,0,1-3.328.352,10.075,10.075,0,0,1-4.7-.96,3.254,3.254,0,0,1-1.824-3.1,4.088,4.088,0,0,1,.08-.768,5.244,5.244,0,0,1,.144-.608,3.293,3.293,0,0,1,.368-.752q.208-.3.4-.3.16,0,.16.224v.128l-.032.864q0,3.1,4.544,3.1a27.67,27.67,0,0,0,3.168-.32A10.012,10.012,0,0,1-218.88-2.368Zm24.512-2.784a.7.7,0,0,0,.608.7,12.155,12.155,0,0,1,3.472,1.792,3.022,3.022,0,0,1,1.36,2.4.8.8,0,0,1-.224.656.763.763,0,0,1-.48.176,1.944,1.944,0,0,1-1.248-.608q-.224-.192-1.072-.944t-1.68-1.392a.524.524,0,0,0-.384-.16q-.32,0-.48.48a4.206,4.206,0,0,1-1.776,2.16A5.878,5.878,0,0,1-199.424.9,6.747,6.747,0,0,1-202.752.08a2.541,2.541,0,0,1-1.472-2.32,2.416,2.416,0,0,1,.784-1.808,4.892,4.892,0,0,1,1.952-1.12,7.786,7.786,0,0,1,2.352-.368,12.472,12.472,0,0,1,2.336.288l.192.032q.576,0,.512-.64-.064-.672-.128-2.272-.064-.576-.128-1.856-.064-.7-.736-.608a15.645,15.645,0,0,1-2.656.256,6.221,6.221,0,0,1-2.96-.656,4.074,4.074,0,0,1-1.808-1.84,1.245,1.245,0,0,1-.1-.352q0-.16.128-.16a.4.4,0,0,1,.224.1,1.446,1.446,0,0,0,.192.128,9.135,9.135,0,0,0,1.664.848,6.292,6.292,0,0,0,2.4.432,20.215,20.215,0,0,0,2.912-.288q.608-.1.608-.544v-.416q0-1.984.1-4v-.192q0-.48-.192-.48h-.256a4.353,4.353,0,0,1-1.6-.288,6.018,6.018,0,0,1-1.312-.8,5.078,5.078,0,0,1-1.024-.992,1.209,1.209,0,0,1-.224-.48.113.113,0,0,1,.128-.128,1.24,1.24,0,0,1,.512.16l.672.352a4.686,4.686,0,0,0,.928.464,3.276,3.276,0,0,0,1.056.144,4.085,4.085,0,0,0,.992-.128.75.75,0,0,0,.672-.672,14.21,14.21,0,0,0,.192-1.92,3.966,3.966,0,0,0-.352-1.728,4.337,4.337,0,0,0-.608-.864,4.5,4.5,0,0,1-.288-.384.622.622,0,0,1-.128-.32.372.372,0,0,1,.208-.32.993.993,0,0,1,.528-.128,2.8,2.8,0,0,1,.928.24,3.075,3.075,0,0,1,1.088.736,1.743,1.743,0,0,1,.48,1.264,5.948,5.948,0,0,1-.192,1.264q-.192.816-.416,1.52a1.021,1.021,0,0,0,.192.432.417.417,0,0,0,.512.208l.928-.288a1.723,1.723,0,0,1,.544-.1.968.968,0,0,1,.576.16.551.551,0,0,1,.224.48,1.064,1.064,0,0,1-.24.64,1.645,1.645,0,0,1-.688.512,12.162,12.162,0,0,1-1.952.64.745.745,0,0,0-.64.7q-.128,1.5-.128,3.328a7.136,7.136,0,0,0,.032.8.568.568,0,0,0,.208.48.615.615,0,0,0,.56.064,6.6,6.6,0,0,0,1.728-.8.958.958,0,0,0,.48-.736,2.052,2.052,0,0,0-.576-1.088q-.064-.1-.176-.24a3.056,3.056,0,0,1-.208-.3,1.209,1.209,0,0,1-.224-.48.085.085,0,0,1,.1-.1,1.532,1.532,0,0,1,.576.352,4.08,4.08,0,0,0,1.728.832,4.079,4.079,0,0,0,.736.128,1.279,1.279,0,0,1,.768.32.913.913,0,0,1,.224.672,1.72,1.72,0,0,1-.32.96,2.383,2.383,0,0,1-.992.8,21.759,21.759,0,0,1-3.872,1.248q-.64.192-.544,1.056.1,1.088.448,3.424Zm-5.664,4.48a4.934,4.934,0,0,0,2.672-.656,2.811,2.811,0,0,0,1.3-1.872v-.16a.627.627,0,0,0-.48-.64,8.548,8.548,0,0,0-2.88-.512,5.353,5.353,0,0,0-2.512.592,1.777,1.777,0,0,0-1.136,1.584,1.364,1.364,0,0,0,.944,1.216A4.827,4.827,0,0,0-200.032-.672Zm47.744-24.48a6.884,6.884,0,0,1,1.664.256,5.134,5.134,0,0,1,1.776.832,1.728,1.728,0,0,1,.784,1.44.773.773,0,0,1-.272.656.913.913,0,0,1-.56.208,1.292,1.292,0,0,1-1.152-.576,4.534,4.534,0,0,0-.96-1.072,9.466,9.466,0,0,0-1.44-.88q-.288-.128-.512-.224t-.368-.176q-.144-.08-.144-.176Q-153.472-25.152-152.288-25.152Zm-15.264,4.48a2.171,2.171,0,0,0,.56.08,3.34,3.34,0,0,1,.576.064.634.634,0,0,1,.368.272.637.637,0,0,1,.1.384,1.328,1.328,0,0,1-.544.96,13.641,13.641,0,0,1-3.008,2.144.979.979,0,0,0-.544.736q-.96,4.992-1.712,8.384t-1.424,5.408Q-173.984.1-174.592.1a1.309,1.309,0,0,1-.928-.4,1.378,1.378,0,0,1-.416-1.04,4.99,4.99,0,0,1,.544-1.6,42.429,42.429,0,0,0,1.664-4.448q1.248-3.936,2.048-7.744a.549.549,0,0,0,.032-.224.4.4,0,0,0-.176-.368.671.671,0,0,0-.5-.048,7,7,0,0,1-1.152.1,3.67,3.67,0,0,1-1.472-.336,5.674,5.674,0,0,1-1.408-.88q-.32-.256-.32-.416,0-.1.16-.1l.544.064a6.841,6.841,0,0,0,1.344.128,7.951,7.951,0,0,0,3.04-.576.833.833,0,0,0,.576-.7,23.381,23.381,0,0,0,.288-2.944,3.459,3.459,0,0,0-.288-1.536,2.143,2.143,0,0,0-.816-.9q-.528-.32-.56-.352a.27.27,0,0,1-.16-.224q0-.192.448-.192a5.472,5.472,0,0,1,.928.1,3.909,3.909,0,0,1,.96.288,3.18,3.18,0,0,1,1.072.752,1.613,1.613,0,0,1,.336,1.072v.352a1.036,1.036,0,0,0,.352.8A2.648,2.648,0,0,0-167.552-20.672Zm11.744-2.144a8.506,8.506,0,0,1,2.08.3,5.849,5.849,0,0,1,2.08.976,2.041,2.041,0,0,1,.9,1.7.87.87,0,0,1-.336.736,1.21,1.21,0,0,1-.752.256,1.409,1.409,0,0,1-.656-.176,1.227,1.227,0,0,1-.528-.56,6.505,6.505,0,0,0-1.04-1.472,4.376,4.376,0,0,0-1.488-.96q-.128-.064-.384-.16a1.7,1.7,0,0,1-.368-.176.245.245,0,0,1-.112-.208q0-.128.176-.192A1.272,1.272,0,0,1-155.808-22.816Zm-13.5,3.136a.2.2,0,0,0,.128.208.233.233,0,0,0,.256-.08,1.221,1.221,0,0,0,.352-.608q-.48-.9-.512-.768a1.764,1.764,0,0,1-.064.352l-.16.8Zm9.088,2.592a4.739,4.739,0,0,1-1.3-.64q-.592-.416-.592-.64,0-.16.224-.16l.48.1a7.947,7.947,0,0,0,1.7.256q.288,0,1.312-.128a11.938,11.938,0,0,1,1.344-.128,3.552,3.552,0,0,1,1.92.448,1.517,1.517,0,0,1,.7,1.376,1.078,1.078,0,0,1-.192.608,1.392,1.392,0,0,1-1.12.384,2.651,2.651,0,0,0-.48.032,4.141,4.141,0,0,0-1.424.512,12.538,12.538,0,0,0-1.424.992q-.576.416-.672.48a1.29,1.29,0,0,1-.576.192q-.128,0-.128-.1a.483.483,0,0,1,.128-.288,4.711,4.711,0,0,1,.608-.672,6.173,6.173,0,0,0,1.344-1.792q0-.256-.352-.4a5.9,5.9,0,0,0-.8-.256Zm5.344,14.72q1.216,0,1.216.928,0,1.056-1.44,1.376a14.886,14.886,0,0,1-3.328.352,10.075,10.075,0,0,1-4.7-.96,3.254,3.254,0,0,1-1.824-3.1,4.088,4.088,0,0,1,.08-.768,5.244,5.244,0,0,1,.144-.608,3.293,3.293,0,0,1,.368-.752q.208-.3.4-.3.16,0,.16.224v.128l-.032.864q0,3.1,4.544,3.1a27.67,27.67,0,0,0,3.168-.32A10.012,10.012,0,0,1-154.88-2.368Zm32.352-12.64a.9.9,0,0,0,.8-.448l.352-.512a5.034,5.034,0,0,1,.3-.432q.208-.272.336-.416a.355.355,0,0,1,.256-.144,2.879,2.879,0,0,1,1.12.72,7.145,7.145,0,0,1,1.248,1.264.692.692,0,0,1,.16.352.489.489,0,0,1-.16.352.968.968,0,0,1-.576.16h-6.048a.63.63,0,0,0-.512.192.639.639,0,0,0-.1.544,28.579,28.579,0,0,0,1.92,6.416,11.486,11.486,0,0,0,3.136,4.336.7.7,0,0,0,.448.256q.224,0,.416-.416.1-.224.4-1.04t.528-1.584q.192-.576.352-.576a.156.156,0,0,1,.16.144,2.074,2.074,0,0,1,0,.528l-.352,3.392v.192a1.287,1.287,0,0,0,.192.672A2.988,2.988,0,0,1-117.728.16a.811.811,0,0,1-.16.48,1.11,1.11,0,0,1-.864.352A2.7,2.7,0,0,1-120.1.56,7.688,7.688,0,0,1-121.5-.512Q-125.856-4.64-127.36-13.5a.644.644,0,0,0-.7-.608h-5.056a.671.671,0,0,0-.5.176.671.671,0,0,0-.176.5v7.648a.63.63,0,0,0,.192.512.577.577,0,0,0,.544.064l5.12-1.216.416-.064q.256,0,.32.128v.032a.32.32,0,0,1-.128.24,2.2,2.2,0,0,1-.352.24q-2.976,1.376-8.512,3.648a1.044,1.044,0,0,0-.512.32q0,.032-.064.1a.371.371,0,0,1-.32.224q-.32,0-.544-.416l-.64-1.344a.8.8,0,0,1-.1-.352q0-.384.512-.48l.736-.128a3.851,3.851,0,0,1,.736-.16.685.685,0,0,0,.608-.736V-17.44a49.855,49.855,0,0,0-.288-5.664v-.128q0-.512.448-.512a1.016,1.016,0,0,1,.288.064l2.08.768a1.205,1.205,0,0,0,.48.1,1.751,1.751,0,0,0,.384-.064q1.76-.448,4.8-1.472a19.888,19.888,0,0,0,4.864-2.4.88.88,0,0,1,.448-.16.808.808,0,0,1,.544.288q1.664,1.7,1.664,2.08,0,.224-.448.16l-.352-.032-.288-.032a1.723,1.723,0,0,0-.544.1q-.992.32-3.9,1.024a.676.676,0,0,0-.576.736,51.365,51.365,0,0,0,.448,6.976.661.661,0,0,0,.736.608Zm-19.648,1.056a.932.932,0,0,0-.08-.416.256.256,0,0,0-.24-.16q-.224,0-.48.352a28.866,28.866,0,0,1-2.528,3.168q-.416.48-.64.288a.277.277,0,0,1-.1-.192,1.409,1.409,0,0,1,.224-.512,47.586,47.586,0,0,0,4.384-8.8,26.726,26.726,0,0,0,.976-3.024A27.124,27.124,0,0,0-140-26.336q.1-.544.544-.544a1.924,1.924,0,0,1,.32.064q2.464.864,2.464,1.216,0,.16-.288.256l-.128.032a.885.885,0,0,0-.64.64,48.239,48.239,0,0,1-2.464,5.792.852.852,0,0,0-.1.384.83.83,0,0,0,.288.576q.512.48.512.736,0,.192-.288.352a.726.726,0,0,0-.448.736V-5.888q.064,3.52.224,7.008v.128a.774.774,0,0,1-.352.7,2.425,2.425,0,0,1-1.44.512.764.764,0,0,1-.512-.192.576.576,0,0,1-.224-.448q.128-1.888.224-3.664t.128-4.656Zm14.016-8.064a.581.581,0,0,0-.192-.5.68.68,0,0,0-.544-.08q-1.7.352-4.256.7a.633.633,0,0,0-.64.7v5.5a.671.671,0,0,0,.176.5.671.671,0,0,0,.5.176h4.8a.63.63,0,0,0,.512-.192.665.665,0,0,0,.128-.512Q-128.064-18.752-128.16-22.016Zm-4.224,23.168a21.046,21.046,0,0,0-3.328.352h-.16a.679.679,0,0,1-.672-.448L-136.672.8a.852.852,0,0,1-.1-.384.352.352,0,0,1,.16-.3.644.644,0,0,1,.448-.08q1.088.1,3.3.16h5.216a.92.92,0,0,0,.8-.416l.352-.512q.1-.128.288-.4a3.275,3.275,0,0,1,.336-.416A.4.4,0,0,1-125.6-1.7q.256,0,1.1.72A7.345,7.345,0,0,1-123.264.288a.7.7,0,0,1,.16.384.426.426,0,0,1-.1.256.849.849,0,0,1-.672.224ZM-98.368-25.6a.259.259,0,0,0-.224.256,1.094,1.094,0,0,0,.256.512,23.277,23.277,0,0,0,5.2,4.736,39.624,39.624,0,0,0,6.992,3.808q.544.224.544.448a.355.355,0,0,1-.144.208,1.2,1.2,0,0,1-.224.128q-.112.048-.176.08a2.582,2.582,0,0,0-1.12.96q-.224.384-.512.384a.755.755,0,0,1-.32-.1,31.864,31.864,0,0,1-6.4-4.56,22.234,22.234,0,0,1-4.544-5.648q-.192-.352-.448-.352a.543.543,0,0,0-.448.288,34.951,34.951,0,0,1-6.016,6.3,40.579,40.579,0,0,1-7.648,5.12,1.576,1.576,0,0,1-.464.144.24.24,0,0,1-.24-.08v-.064q0-.192.448-.48a37.435,37.435,0,0,0,5.008-3.856,43.009,43.009,0,0,0,4.56-4.752,14.376,14.376,0,0,0,2.56-4.608.545.545,0,0,1,.544-.48.971.971,0,0,1,.288.032l2.464.768a1.109,1.109,0,0,1,.544.336.2.2,0,0,1-.064.336A.735.735,0,0,1-98.368-25.6Zm6.048,15.552a.92.92,0,0,0,.8-.416l.384-.544q.1-.128.288-.4a3.275,3.275,0,0,1,.336-.416.4.4,0,0,1,.272-.144,3.242,3.242,0,0,1,1.12.7,8.862,8.862,0,0,1,1.344,1.248.551.551,0,0,1,.128.352.485.485,0,0,1-.192.384.886.886,0,0,1-.544.128H-98.432a.671.671,0,0,0-.5.176.671.671,0,0,0-.176.5V-.1a.671.671,0,0,0,.176.5.671.671,0,0,0,.5.176h7.2a.92.92,0,0,0,.8-.416l.416-.608q.1-.128.32-.432a4.138,4.138,0,0,1,.368-.448.4.4,0,0,1,.272-.144,3.351,3.351,0,0,1,1.216.784A8.752,8.752,0,0,1-86.464.64a.551.551,0,0,1,.128.352.431.431,0,0,1-.192.384,1.027,1.027,0,0,1-.608.128h-21.088a34.469,34.469,0,0,0-4.224.352h-.192a.658.658,0,0,1-.64-.416l-.128-.256A.852.852,0,0,1-113.5.8a.352.352,0,0,1,.16-.3.644.644,0,0,1,.448-.08q1.088.1,3.3.16h7.744a.671.671,0,0,0,.5-.176.671.671,0,0,0,.176-.5V-8.48a.671.671,0,0,0-.176-.5.671.671,0,0,0-.5-.176h-4.9a34.469,34.469,0,0,0-4.224.352h-.192a.658.658,0,0,1-.64-.416l-.128-.224a.852.852,0,0,1-.1-.384.352.352,0,0,1,.16-.3.644.644,0,0,1,.448-.08q1.088.1,3.3.16h6.272a.671.671,0,0,0,.5-.176.671.671,0,0,0,.176-.5V-14.5a.671.671,0,0,0-.176-.5.671.671,0,0,0-.5-.176h-1.472a20.808,20.808,0,0,0-3.264.352h-.192a.658.658,0,0,1-.64-.416l-.128-.256a.852.852,0,0,1-.1-.384.352.352,0,0,1,.16-.3.644.644,0,0,1,.448-.08q1.088.1,3.3.16h6.624a.92.92,0,0,0,.8-.416l.32-.416q.128-.16.272-.352a3.279,3.279,0,0,1,.3-.352.442.442,0,0,1,.288-.16,2.7,2.7,0,0,1,1.072.64,7.474,7.474,0,0,1,1.2,1.12.692.692,0,0,1,.16.352.489.489,0,0,1-.16.352,1.124,1.124,0,0,1-.608.16h-4.96a.671.671,0,0,0-.5.176.671.671,0,0,0-.176.5v3.776a.671.671,0,0,0,.176.5.671.671,0,0,0,.5.176Zm-1.824,2.5q.1-.48.512-.48a.8.8,0,0,1,.352.1l.768.384a4.98,4.98,0,0,0,.768.32q.864.32.864.544,0,.192-.352.288l-.128.032a1.189,1.189,0,0,0-.7.544,33.524,33.524,0,0,1-3.9,4.96q-.416.48-.672.288a.307.307,0,0,1-.1-.224,1.228,1.228,0,0,1,.16-.48l.32-.608a22.662,22.662,0,0,0,1.216-2.8A29.236,29.236,0,0,0-94.144-7.552Zm-14.24.512q-.352-.608-.16-.7a.185.185,0,0,1,.128-.032,1,1,0,0,1,.512.224,9.4,9.4,0,0,1,2.8,2.672,4.862,4.862,0,0,1,.88,2.544,1.936,1.936,0,0,1-.32,1.152.953.953,0,0,1-.8.448,1.009,1.009,0,0,1-.544-.16.889.889,0,0,1-.416-.736,9.852,9.852,0,0,0-.7-2.672A18.756,18.756,0,0,0-108.384-7.04Zm34.272-3.712q0-.544-.32-.544-.256,0-.48.352A28.841,28.841,0,0,1-81.6-3.2q-.48.416-.7.192l-.064-.128a.874.874,0,0,1,.32-.544,30.925,30.925,0,0,0,3.936-5.328,38.186,38.186,0,0,0,2.976-6.224l.064-.288q0-.48-.608-.48h-1.376a21.818,21.818,0,0,0-3.392.352h-.16a.679.679,0,0,1-.672-.448l-.128-.224a.8.8,0,0,1-.1-.352q0-.48.64-.416,1.088.1,3.3.16h2.784a.671.671,0,0,0,.5-.176.671.671,0,0,0,.176-.5v-4.416a.589.589,0,0,0-.192-.48.639.639,0,0,0-.544-.1q-3.392.608-5.952.864h-.192q-.48,0-.512-.224v-.032q0-.256.608-.384a51.516,51.516,0,0,0,7.2-2.112,19.592,19.592,0,0,0,4.736-2.368.679.679,0,0,1,.448-.16.765.765,0,0,1,.544.256q1.792,1.792,1.792,2.208,0,.224-.48.16l-.352-.032-.32-.032a1.723,1.723,0,0,0-.544.1q-1.536.512-3.68,1.024a.753.753,0,0,0-.576.768v4.96a.671.671,0,0,0,.176.5.671.671,0,0,0,.5.176h1.92a.9.9,0,0,0,.8-.448l.352-.512q.1-.128.288-.4a3.275,3.275,0,0,1,.336-.416.4.4,0,0,1,.272-.144,2.965,2.965,0,0,1,1.072.7A6.977,6.977,0,0,1-65.184-16.9a.7.7,0,0,1,.16.384.458.458,0,0,1-.192.352.968.968,0,0,1-.576.16h-5.664a.671.671,0,0,0-.5.176.671.671,0,0,0-.176.5v1.12a.885.885,0,0,0,.512.8,11.657,11.657,0,0,1,4,2.8,4.479,4.479,0,0,1,1.28,2.736,1.408,1.408,0,0,1-.24.864.776.776,0,0,1-.656.32.852.852,0,0,1-.384-.1.989.989,0,0,1-.544-.672,15.875,15.875,0,0,0-3.136-4.7.7.7,0,0,0-.448-.256.326.326,0,0,0-.272.16.773.773,0,0,0-.112.448V-5.92q.064,3.488.224,7.04v.16a.766.766,0,0,1-.32.672,2.556,2.556,0,0,1-1.536.512.725.725,0,0,1-.48-.192.576.576,0,0,1-.224-.448q.128-1.888.224-3.664t.128-4.656Zm16.736-9.088a52.147,52.147,0,0,0-.288-5.728V-25.7a.533.533,0,0,1,.128-.368.447.447,0,0,1,.352-.144,1.016,1.016,0,0,1,.288.064,14.318,14.318,0,0,1,1.824.672q.512.256.512.448,0,.16-.288.32l-.1.064a.857.857,0,0,0-.448.8V-.7A3.442,3.442,0,0,1-55.9,1.36a3.309,3.309,0,0,1-2.112.976h-.16a.66.66,0,0,1-.672-.544,3.4,3.4,0,0,0-.256-.576A1.6,1.6,0,0,0-59.712.7,7.365,7.365,0,0,0-61.536.128q-.64-.1-.64-.352,0-.16.48-.16.768,0,2.3.128a11.89,11.89,0,0,0,1.216.1.873.873,0,0,0,.624-.176.766.766,0,0,0,.176-.56ZM-64-17.7a52.147,52.147,0,0,0-.288-5.728v-.128a.533.533,0,0,1,.128-.368.447.447,0,0,1,.352-.144A1.016,1.016,0,0,1-63.52-24a11.753,11.753,0,0,1,1.776.64q.5.256.5.448,0,.16-.288.32l-.1.064a.9.9,0,0,0-.448.8v9.344q.064,3.488.224,7.04v.16a.856.856,0,0,1-.288.672,2.745,2.745,0,0,1-.7.384,2.225,2.225,0,0,1-.8.16.563.563,0,0,1-.432-.192.642.642,0,0,1-.176-.448q.192-3.04.256-6.048ZM-35.456-22.3a13.981,13.981,0,0,1,5.344,1.1,10.671,10.671,0,0,1,4.528,3.552,10.128,10.128,0,0,1,1.84,6.256q0,4.992-3.056,7.616A15.081,15.081,0,0,1-33.328-.368a27.256,27.256,0,0,1-5.808.784q-.448,0-.448-.16,0-.192,1.28-.416a19.461,19.461,0,0,0,8.9-3.68,9.245,9.245,0,0,0,3.424-7.68A9.9,9.9,0,0,0-27.44-17.1a8.659,8.659,0,0,0-3.7-3.2,11.262,11.262,0,0,0-4.672-1.008.99.99,0,0,0-.4.352.531.531,0,0,0-.08.448,11.408,11.408,0,0,1,.4,1.728,10.966,10.966,0,0,1,.144,1.664A15.772,15.772,0,0,1-36.9-11.68a25.11,25.11,0,0,1-2.416,4.944,14.524,14.524,0,0,1-2.624,3.168A3.626,3.626,0,0,1-43.968-2.5a2.894,2.894,0,0,1-2.16-1.136,8.2,8.2,0,0,1-1.6-2.992A12.664,12.664,0,0,1-48.32-10.5a10.758,10.758,0,0,1,1.824-6.16,12.218,12.218,0,0,1,4.8-4.176A13.9,13.9,0,0,1-35.456-22.3Zm-1.312,3.584a8.992,8.992,0,0,0-.192-1.888.6.6,0,0,0-.768-.512,10.957,10.957,0,0,0-4.352,1.856,10.377,10.377,0,0,0-3.168,3.616,10.26,10.26,0,0,0-1.184,4.928,9.484,9.484,0,0,0,.464,3.2,5.47,5.47,0,0,0,1.04,1.888q.576.608.928.608a2.966,2.966,0,0,0,1.9-1.2A18.522,18.522,0,0,0-40.064-8.9a22.162,22.162,0,0,0,2.544-5.136A15.322,15.322,0,0,0-36.768-18.72ZM1.2-30.68q-.2-.44-.52-.44a.675.675,0,0,0-.56.4,46.811,46.811,0,0,1-7.52,8.7,51.563,51.563,0,0,1-9.68,7.18,1.309,1.309,0,0,1-.56.22.293.293,0,0,1-.32-.14v-.08q0-.28.52-.64a42.973,42.973,0,0,0,6.56-5.5A57.747,57.747,0,0,0-5.04-27.8a17.621,17.621,0,0,0,2.96-5.92.74.74,0,0,1,.72-.6,1.04,1.04,0,0,1,.32.04l3,.96a1.2,1.2,0,0,1,.48.26.515.515,0,0,1,.2.38q0,.24-.28.28a.9.9,0,0,0-.44.72.684.684,0,0,0,.12.32A31.461,31.461,0,0,0,8.58-24.5a50.5,50.5,0,0,0,8.98,5.66,2.169,2.169,0,0,1,.44.24.346.346,0,0,1,.16.28q0,.2-.68.52a2.633,2.633,0,0,0-1.28,1.12.858.858,0,0,1-.64.44,1.06,1.06,0,0,1-.52-.16,42.5,42.5,0,0,1-8.12-6.46A30.941,30.941,0,0,1,1.2-30.68ZM-2.96-18.72a26.01,26.01,0,0,0-4.08.44h-.2a.849.849,0,0,1-.84-.56l-.16-.32a1,1,0,0,1-.12-.44.479.479,0,0,1,.2-.42.8.8,0,0,1,.56-.1q1.4.12,4.16.2H2.8a1.149,1.149,0,0,0,1-.52l.44-.64q.12-.16.36-.5a4.094,4.094,0,0,1,.42-.52.5.5,0,0,1,.34-.18q.32,0,1.36.9A11.31,11.31,0,0,1,8.28-19.8a.688.688,0,0,1,.16.44.543.543,0,0,1-.16.4,1.039,1.039,0,0,1-.76.24Zm11,7.64a.533.533,0,0,0-.2-.44.807.807,0,0,0-.52-.16H-6.24a43.086,43.086,0,0,0-5.28.44h-.24a.822.822,0,0,1-.8-.52l-.16-.28a1.065,1.065,0,0,1-.12-.48.44.44,0,0,1,.2-.38.8.8,0,0,1,.56-.1q1.36.12,4.12.2H7.8a1.252,1.252,0,0,0,1.04-.52l.24-.32q.12-.12.42-.48t.54-.36q.28,0,1.18.76a10.9,10.9,0,0,1,1.42,1.4.543.543,0,0,1,.16.4.621.621,0,0,1-.44.56,2.556,2.556,0,0,1-.6.16,1.245,1.245,0,0,0-.96.68Q9.68-7.88,7.96-4.14T4.76,2.6q-.28.6-.64.64a1.213,1.213,0,0,1-.36.04,4.076,4.076,0,0,1-1.08-.2.709.709,0,0,1-.56-.68,1.834,1.834,0,0,1,.16-.56Q5.48-4.6,7.96-10.72ZM54.68-31.16a10.85,10.85,0,0,1,3.52.6,2.189,2.189,0,0,1,1.76,2.12,1.037,1.037,0,0,1-.34.82,1.054,1.054,0,0,1-.7.3,1.71,1.71,0,0,1-1.4-.64,7.566,7.566,0,0,0-1.3-1.36,6.46,6.46,0,0,0-1.7-.88,4.265,4.265,0,0,0-.6-.18,2.381,2.381,0,0,1-.46-.14.257.257,0,0,1-.18-.24Q53.28-31.16,54.68-31.16Zm-14.8,9.52a4.031,4.031,0,0,1,3.54,1.62,7.719,7.719,0,0,1,1.14,4.5,26.685,26.685,0,0,1-.44,4.08A30.93,30.93,0,0,1,42.76-6.2a10.476,10.476,0,0,1-2.28,3.96A8.6,8.6,0,0,1,39-1.04a2.625,2.625,0,0,1-1.36.48,1.053,1.053,0,0,1-.9-.4,3.792,3.792,0,0,1-.5-.92q-.2-.52-.28-.68A12.786,12.786,0,0,0,34.04-5.6a1.587,1.587,0,0,1-.44-.72q0-.08.12-.08a6.872,6.872,0,0,1,1.56.88l.72.48a7.356,7.356,0,0,0,1.04.68,1.775,1.775,0,0,0,.8.2q1.36,0,2.42-2.16a21.322,21.322,0,0,0,1.66-5.02,23.723,23.723,0,0,0,.6-4.66q0-4.2-2.6-4.2a11.475,11.475,0,0,0-4.12,1.16,1.326,1.326,0,0,0-.72.88,46.986,46.986,0,0,1-5.84,14.4,5.25,5.25,0,0,1-1.12,1.38,1.84,1.84,0,0,1-1.16.5,1.038,1.038,0,0,1-.76-.32,1.085,1.085,0,0,1-.32-.8,6.109,6.109,0,0,1,1.56-3.16,31.38,31.38,0,0,0,5.2-10.32,1.04,1.04,0,0,0,.04-.32q0-.56-.52-.56a1,1,0,0,0-.44.12,14.675,14.675,0,0,1-3.64,1.2,3.27,3.27,0,0,1-1.7-.52,4.748,4.748,0,0,1-1.42-1.3,2.55,2.55,0,0,1-.56-1.46q0-.36.2-.36a1.364,1.364,0,0,1,.5.16q.34.16.54.24a5.832,5.832,0,0,0,2.32.48,11.369,11.369,0,0,0,2.46-.3q1.02-.26,2.5-.78a1.113,1.113,0,0,0,.72-.88,17.381,17.381,0,0,0,.44-3.72,4.647,4.647,0,0,0-.84-3.04q-.28-.32-.74-.8t-.46-.64q0-.24.34-.36a2.619,2.619,0,0,1,.86-.12,5.826,5.826,0,0,1,1.6.24,4.067,4.067,0,0,1,1.32.6,1.591,1.591,0,0,1,.64,1.28,6.726,6.726,0,0,1-.24,1.28q-.2.8-.32,1.56-.04.32-.12.92t-.24,1.6l-.04.28a.546.546,0,0,0,.22.5.751.751,0,0,0,.58.06A12.115,12.115,0,0,1,39.88-21.64ZM51-26.96q-.12-.04-.42-.12a1.408,1.408,0,0,1-.44-.18.306.306,0,0,1-.14-.26q0-.4,1.28-.4a8.848,8.848,0,0,1,3.66.78,2.485,2.485,0,0,1,1.74,2.3,1.045,1.045,0,0,1-.38.84,1.353,1.353,0,0,1-.9.32,1.412,1.412,0,0,1-1.28-.72,7.67,7.67,0,0,0-1.34-1.62A4.621,4.621,0,0,0,51-26.96ZM48.56-22a11.457,11.457,0,0,1,5.06,1.2,7.367,7.367,0,0,1,2.86,2.52,5.205,5.205,0,0,1,.88,2.68,3.7,3.7,0,0,1-.78,2.38,2.143,2.143,0,0,1-1.62.98,1.434,1.434,0,0,1-.88-.3,5.586,5.586,0,0,0-.48-.34,3.626,3.626,0,0,0-1.52-.56q-.96-.16-2.28-.32-.56-.08-.56-.24,0-.2.48-.24,2.6-.28,2.72-.28a4.344,4.344,0,0,0,1.5-.48,1.024,1.024,0,0,0,.42-.92,4.67,4.67,0,0,0-1.8-3.52,9.452,9.452,0,0,0-4.12-2.16q-.36-.08-.36-.24T48.56-22Zm42.08-9.32a1.149,1.149,0,0,0,1-.52l.24-.32q.12-.16.4-.5A.747.747,0,0,1,92.8-33a2.8,2.8,0,0,1,1.14.68,8.35,8.35,0,0,1,1.34,1.28.884.884,0,0,1,.2.4q0,.28-.4.56l-.24.12a.918.918,0,0,0-.72.92v1.48l.08,1.68q0,.68.08,1.88v.2a.89.89,0,0,1-.36.8,3.631,3.631,0,0,1-.94.46,3.129,3.129,0,0,1-.98.18.3.3,0,0,1-.26-.2,1.275,1.275,0,0,1-.1-.56.67.67,0,0,0-.22-.52.889.889,0,0,0-.62-.2H69.44a.838.838,0,0,0-.62.22.838.838,0,0,0-.22.62v.2q0,.16-.72.48a3.436,3.436,0,0,1-1.4.32.47.47,0,0,1-.4-.24.986.986,0,0,1-.16-.56q.12-.88.16-1.84a8.157,8.157,0,0,1,.04-.88v-1.76q0-2.52-.16-4.32v-.16a.645.645,0,0,1,.14-.44.436.436,0,0,1,.34-.16,1,1,0,0,1,.44.12l1.52.68a2.656,2.656,0,0,0,1.04.24ZM73.76-24.96a.838.838,0,0,0,.62-.22.838.838,0,0,0,.22-.62v-3.52a.838.838,0,0,0-.22-.62.838.838,0,0,0-.62-.22H69.44a.838.838,0,0,0-.62.22.838.838,0,0,0-.22.62v3.52a.838.838,0,0,0,.22.62.838.838,0,0,0,.62.22Zm8.48,0a.838.838,0,0,0,.62-.22.838.838,0,0,0,.22-.62v-3.52a.838.838,0,0,0-.22-.62.838.838,0,0,0-.62-.22h-4.4a.838.838,0,0,0-.62.22.838.838,0,0,0-.22.62v3.52a.838.838,0,0,0,.22.62.838.838,0,0,0,.62.22Zm8.56,0a.838.838,0,0,0,.62-.22.838.838,0,0,0,.22-.62v-3.52a.838.838,0,0,0-.22-.62.838.838,0,0,0-.62-.22H86.32a.838.838,0,0,0-.62.22.838.838,0,0,0-.22.62v3.52a.838.838,0,0,0,.22.62.838.838,0,0,0,.62.22Zm-3.2,4.24a1.149,1.149,0,0,0,1-.52l.28-.36.3-.4a2.3,2.3,0,0,1,.32-.36.453.453,0,0,1,.3-.12,2.783,2.783,0,0,1,1.14.7,7.911,7.911,0,0,1,1.34,1.34.884.884,0,0,1,.2.4q0,.28-.4.56l-.28.12a.918.918,0,0,0-.72.92v4.96q.08,4.36.28,8.8v.2a.859.859,0,0,1-.4.8A4.033,4.033,0,0,1,90-3.2,3.017,3.017,0,0,1,89-3q-.4,0-.4-.76a.718.718,0,0,0-.22-.56.889.889,0,0,0-.62-.2H72.48a.838.838,0,0,0-.62.22.838.838,0,0,0-.22.62v.32q0,.2-.68.56a2.957,2.957,0,0,1-1.4.36.7.7,0,0,1-.54-.24.8.8,0,0,1-.22-.56q.24-3.4.32-6.88V-14a63.274,63.274,0,0,0-.36-7.04v-.16q0-.6.52-.6a.89.89,0,0,1,.4.08l1.68.76a2.463,2.463,0,0,0,1.04.24Zm.16,4.96a.838.838,0,0,0,.62-.22.838.838,0,0,0,.22-.62v-2.12a.838.838,0,0,0-.22-.62.838.838,0,0,0-.62-.22H72.48a.838.838,0,0,0-.62.22.838.838,0,0,0-.22.62v2.12a.838.838,0,0,0,.22.62.838.838,0,0,0,.62.22ZM71.64-11.6a.838.838,0,0,0,.22.62.838.838,0,0,0,.62.22H87.76a.838.838,0,0,0,.62-.22.838.838,0,0,0,.22-.62v-2.16a.838.838,0,0,0-.22-.62.838.838,0,0,0-.62-.22H72.48a.838.838,0,0,0-.62.22.838.838,0,0,0-.22.62Zm.84,2.04a.838.838,0,0,0-.62.22.838.838,0,0,0-.22.62v2.24a.838.838,0,0,0,.22.62.838.838,0,0,0,.62.22H87.76a.838.838,0,0,0,.62-.22.838.838,0,0,0,.22-.62V-8.72a.838.838,0,0,0-.22-.62.838.838,0,0,0-.62-.22Zm2.44,6.12a.841.841,0,0,1,.6-.28.841.841,0,0,1,.6.28l.8.8a7.508,7.508,0,0,0,.8.68q.88.6.88.88,0,.2-.6.2h-.36a2.5,2.5,0,0,0-1.04.2,45.834,45.834,0,0,1-5.78,2.1,50.9,50.9,0,0,1-6.62,1.5,1.213,1.213,0,0,1-.36.04q-.44,0-.52-.24V2.64q0-.28.72-.52A53.089,53.089,0,0,0,69.16.2,21.242,21.242,0,0,0,74.92-3.44Zm8.4,1.6q-.72-.2-.72-.52a.256.256,0,0,1,.22-.26,2.221,2.221,0,0,1,.7-.02,39.9,39.9,0,0,1,7.26,1.2A12.657,12.657,0,0,1,94.72.24q1.16.88,1.16,1.68a1.006,1.006,0,0,1-.42.84,1.634,1.634,0,0,1-1.02.32,2.348,2.348,0,0,1-1.36-.48A20.841,20.841,0,0,0,89.04.22,36.043,36.043,0,0,0,83.32-1.84Zm32.48.56a5.231,5.231,0,0,1-2.08-.6,12,12,0,0,1-2.8-1.96q-3.88-3.52-3.88-10a33.966,33.966,0,0,1,.44-4.92,21.585,21.585,0,0,0,.24-2.4,4.31,4.31,0,0,0-.34-1.74,4.627,4.627,0,0,0-1.18-1.54q-.24-.2-.24-.32t.16-.18a.906.906,0,0,1,.32-.06,4.221,4.221,0,0,1,1.82.5A5.521,5.521,0,0,1,110-23.18a2.52,2.52,0,0,1,.72,1.66,4.54,4.54,0,0,1-.18,1.18q-.18.66-.42,1.38-.52,1.68-.78,2.88a13.342,13.342,0,0,0-.26,2.8,9.037,9.037,0,0,0,.82,3.9,8.354,8.354,0,0,0,1.92,2.72,3.125,3.125,0,0,0,1.9.98q.48,0,.64-.84a31.174,31.174,0,0,1,.78-3.04,14.555,14.555,0,0,1,.66-1.8,2.563,2.563,0,0,1,.28-.5q.16-.22.28-.22t.12.24a4.8,4.8,0,0,1-.08.68,19.473,19.473,0,0,0-.4,3.72q0,.6.04,1.14t.08.86a5.272,5.272,0,0,0,.44,1.72,5.142,5.142,0,0,1,.32,1.32,1.154,1.154,0,0,1-.28.82A1.041,1.041,0,0,1,115.8-1.28Zm16.6-10.64a1.485,1.485,0,0,1-1.1-.32,2.5,2.5,0,0,1-.5-.88q-.04-.08-.7-2.58a5.052,5.052,0,0,0-2.58-3.46,5.4,5.4,0,0,0-2.48-.48h-.48q-.36,0-.36-.24,0-.16.4-.32a3.961,3.961,0,0,1,.78-.2,7.287,7.287,0,0,1,1.38-.12,6.749,6.749,0,0,1,4.84,1.96,7.635,7.635,0,0,1,1.96,2.7,6.263,6.263,0,0,1,.52,2.06,2.039,2.039,0,0,1-.46,1.3A1.48,1.48,0,0,1,132.4-11.92ZM172-20.28a1.128,1.128,0,0,0,1-.56l.44-.64q.16-.2.38-.54a3.168,3.168,0,0,1,.38-.5.461.461,0,0,1,.32-.16,3.6,3.6,0,0,1,1.4.9,8.931,8.931,0,0,1,1.56,1.58.865.865,0,0,1,.2.44.612.612,0,0,1-.2.44,1.21,1.21,0,0,1-.72.2H161.2a43.087,43.087,0,0,0-5.28.44h-.24a.822.822,0,0,1-.8-.52l-.16-.32a1,1,0,0,1-.12-.44.479.479,0,0,1,.2-.42.8.8,0,0,1,.56-.1q1.4.12,4.16.2h3.64a.838.838,0,0,0,.62-.22.838.838,0,0,0,.22-.62v-4.2a.838.838,0,0,0-.22-.62.838.838,0,0,0-.62-.22h-1.88a26.308,26.308,0,0,0-4.16.44h-.24a.822.822,0,0,1-.8-.52l-.16-.32a1.065,1.065,0,0,1-.12-.48.44.44,0,0,1,.2-.38.8.8,0,0,1,.56-.1q1.36.12,4.12.2h2.48a.742.742,0,0,0,.84-.84q-.08-2.52-.24-4.4v-.16a.667.667,0,0,1,.16-.46.558.558,0,0,1,.44-.18,1.27,1.27,0,0,1,.36.08,14.919,14.919,0,0,1,2.18.8q.62.32.62.56t-.36.44l-.16.08a1.162,1.162,0,0,0-.56,1.04v2.2a.838.838,0,0,0,.22.62.838.838,0,0,0,.62.22h3.48a1.149,1.149,0,0,0,1-.52l.44-.64a5.762,5.762,0,0,0,.34-.48,2.871,2.871,0,0,1,.38-.48.552.552,0,0,1,.36-.2,3.421,3.421,0,0,1,1.36.86,11.456,11.456,0,0,1,1.56,1.5.88.88,0,0,1,.2.48.572.572,0,0,1-.24.44,1.4,1.4,0,0,1-.76.2h-8.12a.838.838,0,0,0-.62.22.838.838,0,0,0-.22.62v4.2a.838.838,0,0,0,.22.62.838.838,0,0,0,.62.22ZM146.92-4.84a.838.838,0,0,0-.62.22.838.838,0,0,0-.22.62v.4l.12,1.68a3.372,3.372,0,0,1-.04.58.8.8,0,0,1-.24.42,2.433,2.433,0,0,1-1.8.68.8.8,0,0,1-.58-.26.765.765,0,0,1-.26-.54q.16-2.36.28-4.58t.16-5.82V-23.16a61.913,61.913,0,0,0-.36-7.04v-.16q0-.6.52-.6a.891.891,0,0,1,.4.08l1.84.8a2.391,2.391,0,0,0,1,.2h3.32a1.187,1.187,0,0,0,1.04-.52l.2-.28q.12-.16.4-.5a.747.747,0,0,1,.52-.34,3.127,3.127,0,0,1,1.2.68,7.519,7.519,0,0,1,1.4,1.28.865.865,0,0,1,.2.44q0,.24-.36.52a1.01,1.01,0,0,1-.24.12,1.552,1.552,0,0,0-.2.08.918.918,0,0,0-.72.92v14.84q.08,4.36.28,8.8v.2a.859.859,0,0,1-.4.8,4.815,4.815,0,0,1-.96.54,2.482,2.482,0,0,1-.96.22.464.464,0,0,1-.4-.28,1,1,0,0,1-.12-.44,5.248,5.248,0,0,1,.08-.6v-.04a2.666,2.666,0,0,0,.08-.96q0-.44-.84-.44ZM150.64-18a.838.838,0,0,0,.62-.22.838.838,0,0,0,.22-.62v-9a.838.838,0,0,0-.22-.62.838.838,0,0,0-.62-.22h-3.72a.838.838,0,0,0-.62.22.838.838,0,0,0-.22.62v9a.838.838,0,0,0,.22.62.838.838,0,0,0,.62.22Zm21.88,4.36a1.149,1.149,0,0,0,1-.52l.4-.6q.12-.16.34-.48a3.527,3.527,0,0,1,.38-.48.461.461,0,0,1,.32-.16q.32,0,1.32.84a9.566,9.566,0,0,1,1.48,1.48.6.6,0,0,1,.16.44.612.612,0,0,1-.2.44,1.4,1.4,0,0,1-.76.2h-4.8a.838.838,0,0,0-.62.22.838.838,0,0,0-.22.62V-.76a6.215,6.215,0,0,1-.22,1.82,2.239,2.239,0,0,1-.92,1.18,5.029,5.029,0,0,1-2.1.68l-.24.04q-.56,0-.76-.72a1.686,1.686,0,0,0-.72-1.04,5.979,5.979,0,0,0-2.6-.88q-.8-.12-.8-.44,0-.28.88-.28.32,0,1.04.08,2.48.16,3.08.16a1.09,1.09,0,0,0,.72-.18.8.8,0,0,0,.2-.62V-11.64a.838.838,0,0,0-.22-.62.838.838,0,0,0-.62-.22H161.4a43.087,43.087,0,0,0-5.28.44h-.24a.822.822,0,0,1-.8-.52l-.16-.32a1,1,0,0,1-.12-.44.479.479,0,0,1,.2-.42.8.8,0,0,1,.56-.1q1.44.12,4.16.2h8.32a.742.742,0,0,0,.84-.84q-.08-2.08-.16-3v-.08q0-.68.56-.68a2.4,2.4,0,0,1,.4.08,15.882,15.882,0,0,1,2.02.78q.58.3.58.54,0,.16-.32.36l-.08.04a1.128,1.128,0,0,0-.56,1v.96a.838.838,0,0,0,.22.62.838.838,0,0,0,.62.22Zm-25.6-3.16a.838.838,0,0,0-.62.22.838.838,0,0,0-.22.62V-6.8a.838.838,0,0,0,.22.62.838.838,0,0,0,.62.22h3.72a.838.838,0,0,0,.62-.22.838.838,0,0,0,.22-.62v-9.16a.838.838,0,0,0-.22-.62.838.838,0,0,0-.62-.22Zm11.2,6.76a1.24,1.24,0,0,1-.4-.68q0-.2.24-.2a4.794,4.794,0,0,1,.64.16,10.846,10.846,0,0,1,4.08,2.72,4.587,4.587,0,0,1,1.28,2.88,1.855,1.855,0,0,1-.38,1.22,1.174,1.174,0,0,1-.94.46,1.507,1.507,0,0,1-.6-.12.824.824,0,0,1-.4-.32,3.238,3.238,0,0,1-.24-.52,11.331,11.331,0,0,0-1.28-2.84A19.8,19.8,0,0,0,158.12-10.04Zm43.8-13.192a3.756,3.756,0,0,1,2.032.592,1.69,1.69,0,0,1,.944,1.424.653.653,0,0,1-.208.528.789.789,0,0,1-.528.176,9.637,9.637,0,0,1-1.792-.224l-.864-.128a7.384,7.384,0,0,0-1.056-.1,6.963,6.963,0,0,0-1.84.24,7.518,7.518,0,0,0-1.264.432,6.107,6.107,0,0,0-2.352,2.816,20.408,20.408,0,0,0-1.6,4.672,21.328,21.328,0,0,0-.56,4.48q0,3.232,1.1,4.528a4.15,4.15,0,0,0,3.344,1.3l.9-.064a12.022,12.022,0,0,1,1.472-.128q2.3,0,2.3,1.12,0,.832-1.3,1.1a12.664,12.664,0,0,1-2.608.272,8.484,8.484,0,0,1-4.176-.864,4.779,4.779,0,0,1-2.16-2.624,13.754,13.754,0,0,1-.64-4.608,17.006,17.006,0,0,1,1.12-6.128,17.681,17.681,0,0,1,2.912-5.072q.992-1.056.864-.992l-.128.032a17.335,17.335,0,0,0-2.544.848q-1.648.656-4.208,1.744l-1.376.576q-.256.128-1.12.576-.608.32-.96.48a1.759,1.759,0,0,1-.736.16,2.8,2.8,0,0,1-1.712-.736,6.543,6.543,0,0,1-1.392-1.472.7.7,0,0,1-.16-.384.307.307,0,0,1,.1-.224.307.307,0,0,1,.224-.1.848.848,0,0,1,.416.128q.064.032.544.3a2.371,2.371,0,0,0,1.184.272,3.84,3.84,0,0,0,.544-.064l1.952-.64q3.584-1.216,6.576-2.1a35.528,35.528,0,0,1,5.52-1.2,3.96,3.96,0,0,0,.928-.24q.448-.176.576-.24A3.934,3.934,0,0,1,201.92-23.232Zm8.64-.352a1.05,1.05,0,0,1-.592-.208,1.486,1.486,0,0,1-.5-.624,5.591,5.591,0,0,0-.816-1.328,5.324,5.324,0,0,0-1.2-.976q-.192-.128-.4-.24a2.526,2.526,0,0,1-.352-.224.311.311,0,0,1-.144-.24q0-.192.384-.192a6,6,0,0,1,1.808.368,6.156,6.156,0,0,1,1.952,1.056,2.034,2.034,0,0,1,.848,1.616.892.892,0,0,1-.3.768A1.131,1.131,0,0,1,210.56-23.584Zm-3.52,2.08a1.326,1.326,0,0,1-.672-.208,1.2,1.2,0,0,1-.512-.688,6.27,6.27,0,0,0-.784-1.584,4.224,4.224,0,0,0-1.232-1.136q-.1-.064-.3-.192a1.722,1.722,0,0,1-.3-.224.277.277,0,0,1-.1-.192q0-.224.32-.224a6.584,6.584,0,0,1,1.52.384,7.348,7.348,0,0,1,2.144,1.12,2.21,2.21,0,0,1,.976,1.824,1.062,1.062,0,0,1-.32.832A1.068,1.068,0,0,1,207.04-21.5Zm31.776,1.376a3.729,3.729,0,0,1,1.216.4.823.823,0,0,1,.384.752q0,.864-1.056.864-.032,0-1.248-.128a52.866,52.866,0,0,0-5.856-.416q-.672,0-1.888.064-.64,0-.64.672-.064,2.368-.064,3.552V-12.7a2.42,2.42,0,0,0,.224.832,12.412,12.412,0,0,1,.864,2.384,9.408,9.408,0,0,1,.32,2.288,7.9,7.9,0,0,1-1.248,4.512A9.406,9.406,0,0,1,226.912.176a11.373,11.373,0,0,1-3.072,1.36,1.356,1.356,0,0,1-.32.064q-.224,0-.224-.16,0-.224.352-.352a8.056,8.056,0,0,0,4.272-3.632,9.18,9.18,0,0,0,1.04-3.824q0-.032-.176.112t-.5.368a2.569,2.569,0,0,1-1.344.544A2.266,2.266,0,0,1,225.328-6a4.968,4.968,0,0,1-1.1-1.584,9.518,9.518,0,0,1-.608-1.76,7.279,7.279,0,0,1-.224-1.7,4.129,4.129,0,0,1,.816-2.576,2.71,2.71,0,0,1,2.288-1.072,2.843,2.843,0,0,1,.9.16.8.8,0,0,0,.352.064q.384,0,.416-.416a20.939,20.939,0,0,0,.224-2.816.63.63,0,0,0-.192-.512.72.72,0,0,0-.544-.128,28.194,28.194,0,0,0-6.5,2.08q-.7.32-1.248.512a3.741,3.741,0,0,1-1.248.192,3.638,3.638,0,0,1-1.824-.512,5.873,5.873,0,0,1-1.28-1.024q-.576-.608-.576-.928,0-.192.224-.192a3.261,3.261,0,0,1,.864.16,8.537,8.537,0,0,0,1.664.224,10.3,10.3,0,0,0,2.3-.288q1.088-.224,3.184-.608t4.528-.768a.628.628,0,0,0,.608-.672q0-.352-.064-1.248l-.032-.8A3.857,3.857,0,0,0,227.9-23.7a2.758,2.758,0,0,0-.672-.976,4.829,4.829,0,0,0-.464-.352q-.24-.16-.24-.256,0-.224.4-.352a2.564,2.564,0,0,1,.784-.128,2.6,2.6,0,0,1,1.12.256q1.376.608,1.376,1.536a1.189,1.189,0,0,1-.032.288l-.032.224a.752.752,0,0,0,.384.64,22.315,22.315,0,0,0,4.384,2.08,12.842,12.842,0,0,0,1.664.368q.768.112,1.344.144A7.977,7.977,0,0,1,238.816-20.128Zm-6.88.1q.16,0,.464-.016a1.838,1.838,0,0,0,.448-.064q.144-.048.144-.144,0-.128-.208-.256a1.71,1.71,0,0,1-.272-.192l-1.792-1.28a.856.856,0,0,0-.416-.16q-.384,0-.448.544-.032.32-.032,1.152,0,.64.96.544ZM226.592-7.744a1.349,1.349,0,0,0,1.1-.544,2.908,2.908,0,0,0,.432-1.792,7.093,7.093,0,0,0-.448-2.4q-.448-1.248-1.408-1.248a1.6,1.6,0,0,0-1.392.8,3.777,3.777,0,0,0-.528,2.112,3.515,3.515,0,0,0,.7,2.1A1.946,1.946,0,0,0,226.592-7.744ZM250.176,1.92a4.143,4.143,0,0,1-2.1-.56,4.119,4.119,0,0,1-1.536-1.52,4.116,4.116,0,0,1-.56-2.112,4.057,4.057,0,0,1,.56-2.08,4.119,4.119,0,0,1,1.536-1.52,4.143,4.143,0,0,1,2.1-.56,4.057,4.057,0,0,1,2.08.56,4.155,4.155,0,0,1,1.52,1.52,4.057,4.057,0,0,1,.56,2.08,4.116,4.116,0,0,1-.56,2.112,4.155,4.155,0,0,1-1.52,1.52A4.057,4.057,0,0,1,250.176,1.92Zm0-.8a3.269,3.269,0,0,0,2.4-.992,3.269,3.269,0,0,0,.992-2.4,3.232,3.232,0,0,0-.992-2.368,3.269,3.269,0,0,0-2.4-.992,3.269,3.269,0,0,0-2.4.992,3.232,3.232,0,0,0-.992,2.368,3.269,3.269,0,0,0,.992,2.4A3.269,3.269,0,0,0,250.176,1.12Z" transform="translate(817 5426)" fill="#fff"/>
    <g id="強調" transform="translate(21 2)">
      <path id="パス_32350" data-name="パス 32350" d="M4.5,0A4.5,4.5,0,1,1,0,4.5,4.5,4.5,0,0,1,4.5,0Z" transform="translate(791 5374)" fill="#f4d272"/>
      <path id="パス_32349" data-name="パス 32349" d="M4.5,0A4.5,4.5,0,1,1,0,4.5,4.5,4.5,0,0,1,4.5,0Z" transform="translate(832 5374)" fill="#f4d272"/>
      <path id="パス_32348" data-name="パス 32348" d="M4.5,0A4.5,4.5,0,1,1,0,4.5,4.5,4.5,0,0,1,4.5,0Z" transform="translate(873 5374)" fill="#f4d272"/>
      <path id="パス_32347" data-name="パス 32347" d="M4.5,0A4.5,4.5,0,1,1,0,4.5,4.5,4.5,0,0,1,4.5,0Z" transform="translate(914 5374)" fill="#f4d272"/>
      <path id="パス_32346" data-name="パス 32346" d="M4.5,0A4.5,4.5,0,1,1,0,4.5,4.5,4.5,0,0,1,4.5,0Z" transform="translate(955 5374)" fill="#f4d272"/>
    </g>
  </g>
</svg>
