<?xml version="1.0" encoding="UTF-8"?><svg id="_レイヤー_2" xmlns="http://www.w3.org/2000/svg" viewBox="0 0 163.96 17.29"><defs><style>.cls-1{fill:#231815;}</style></defs><g id="_レイヤー_1-2"><path class="cls-1" d="M11.39,5.77c-.53.17-.75.44-1.14,1.16-2.22,4.1-4.17,5.97-6.47,7.39-.7.42-2.26,1.32-3.71,1.6l-.07-.13c4.02-2.46,7.38-6.08,9.28-10.45-.42.06-1.89.26-2.68.39-.09.02-.39.13-.52.13-.18,0-.5-.11-.84-.31-1.65,2-2.44,2.68-4.91,4.13l-.13-.13c2.5-2.7,3.18-3.58,4.19-5.33.4-.7.57-1.12.57-1.34,0-.2-.62-.68-1.01-.9.29-.09.61-.17.92-.17.64,0,2.24.85,2.24,1.47,0,.2-.04.26-.53.68-.24.22-.31.31-.68.75.46.04,2.72-.11,3.14-.26.2-.07.97-.62,1.16-.62.15,0,.24.07,1.03.77.53.48.62.59.62.77,0,.26-.11.29-.46.4Z"/><path class="cls-1" d="M17.07,3.91c-.16.37-.29.73-.29,2.08,0,.46.07,2.48.07,2.9,0,.28,0,1.51-.68,1.51-.35,0-1.01-.57-1.01-1.56,0-.17.09-.81.13-1.16.05-.59.07-1.84.07-2.77,0-1.34,0-1.71-1.54-2.08.29-.18.73-.44,1.16-.44.52,0,2.24.59,2.24,1.1,0,.09-.02.17-.15.42ZM23.29,3.84c-.09.72-.04,1.87-.05,2.59-.07,3.4-.31,5.71-2.24,7.77-.64.68-1.91,1.8-3.51,1.98l-.05-.13c2.42-1.34,3.6-4,3.91-5.53.4-2.04.4-4.94.4-5.51,0-2.55-.09-2.61-1.78-2.96.28-.22.66-.53,1.4-.53.92,0,2.26.55,2.26.99,0,.2-.31,1.12-.33,1.32Z"/><path class="cls-1" d="M39.5,6.74c-.09,0-.2,0-.31-.02-.97-.13-1.95-.2-2.94-.2-.64,0-1.05.02-1.34.04,0,.37,0,1.27.04,2.68.02.62.13,3.4.13,3.97,0,2.39-.75,2.94-1.18,2.94-.35,0-.5-.35-.81-1.03-.18-.39-.64-1.08-1.97-1.86l.06-.17c.88.26,2.08.37,2.13.37.24,0,.29-.09.33-.2.05-.2.15-3.77.15-4.68v-.42c-1.76,2.75-4.39,4.85-7.49,5.88l-.07-.13c2.31-1.6,5.75-4.72,7.05-7.2-2.39.28-3.88.75-3.95.79-.18.07-.53.17-.61.17-.35,0-1.8-.61-1.8-2.13,0-.28.04-.44.07-.64.81.88,1.18,1.25,2.52,1.25s3.54-.26,4.26-.35c-.04-1.98-.09-2.7-.28-3.14-.18-.44-.5-.55-1.43-.9.48-.48,1.2-.48,1.25-.48.66,0,2.17.64,2.17,1.16,0,.13-.2.5-.28.64-.24.51-.26,1.3-.29,2.59,1.71-.2,1.89-.22,2.22-.29.15-.04.77-.28.92-.28.16,0,1.89.35,1.89,1.12,0,.26-.11.53-.44.53Z"/><path class="cls-1" d="M44.7,5.27c-1.14,0-1.54.05-2,.13l-.29-.68c.86.07,1.75.11,2.63.11h1.16c-.05-3.01-.33-3.86-.48-4.33l2.24.62c.18.06.37.11.37.33s-.17.35-.66.75c-.02.62-.04,1.95-.05,2.63h.88l.71-.92c.11-.13.2-.24.29-.24s.22.13.33.22l.99.9c.07.05.18.18.18.28,0,.18-.16.2-.28.2h-3.12l-.04,1.73c1.29.39,2.79,1.27,2.79,2.46,0,.51-.29.85-.75.85-.68,0-.92-.35-1.25-1.56-.11-.39-.44-.99-.79-1.4-.05,2.61-.05,2.88-.05,4.04,0,.74.07,3.93.07,4.59,0,.57-.13.94-.96.94-.62,0-.77-.28-.77-.66,0-.62.2-3.4.22-3.95.07-1.56.09-2.54.11-3.64-1.2,1.86-2.55,3.31-4.28,4.48l-.17-.13c1.78-1.95,3.49-5.6,4.26-7.75h-1.3ZM53.94,1.27c.13.04.24.11.24.29,0,.26-.26.44-.61.59-.02,1.03-.07,4.43-.07,5.47v6.65c0,.31.19.37.85.37h1.14c1.14,0,1.65-.31,2.17-3.42h.15c.35,1.89.35,2.08.59,2.65.04.09.35.28.51.35.09.04.15.15.15.24,0,.37-.26,1.78-2.85,1.78h-2.17c-1.86,0-2.19-.44-2.19-1.8,0-.28.05-1.41.05-1.65.02-1.6.02-3.2.02-4.81,0-1.16-.02-5.49-.15-6.3-.05-.31-.15-.75-.24-1.08l2.41.68Z"/><path class="cls-1" d="M65.73,3.34l.53-.59s.13-.13.22-.13c.07,0,.24.11.29.17l.88.72c.07.05.17.2.17.29,0,.18-.15.31-.5.62,0,.28,0,.57.02,3.16,0,.5.11,2.88.11,3.44,0,1.97-1.43,2.32-1.93,2.26-.02-.24-.22-1.51-.72-1.86,0,.55.04,3.64.04,4.04,0,.13.05.9.05,1.05,0,.59-.51.77-.96.77-.59,0-.59-.33-.59-.59,0-.37.07-2.22.09-2.65.06-2.2.07-3.99.07-5.29,0-.9,0-1.3-.04-4.98h-.99c.09,2.26.07,5.9.11,8.16,0,.15.04.92.04,1.08,0,.77-.66.77-.87.77-.53,0-.61-.29-.61-.51,0-.51.11-5.44.11-6.47,0-2-.07-3.21-.22-4.32l1.6.85h.83c0-.37-.02-.88-.02-1.19,0-.92-.07-1.56-.37-2.15l1.93.64c.06.02.35.13.35.31,0,.22-.26.35-.61.53,0,.22.02,1.23.02,1.86h.94ZM64.79,3.78c-.02,3.49-.02,3.88.02,7.5.37.04.61.05.88.05.35,0,.37-.04.37-.29,0-.81-.07-6.96-.07-7.11v-.15h-1.19ZM75.12,10.51l.61-.88c.07-.09.2-.22.28-.22.11,0,.22.07.35.18l1.03.88c.09.07.18.18.18.28,0,.17-.15.2-.28.2h-4.3c-.02.66-.02,3.03-.02,3.82,0,.39,0,.61.59.61,1.36,0,1.71-.04,1.91-.17.35-.22.81-2.09.85-2.3h.15c.05.37.29,1.8.53,2,.07.06.29.2.44.29.07.05.16.2.16.35,0,.33-.33.73-.59.9-.46.29-1.3.39-2.63.39-2.48,0-2.81-.17-2.81-2.22v-3.67h-1.69l.86.31c.35.13.46.2.46.31,0,.24-.44.31-.59.33-.26.99-.61,1.75-1.25,2.54-1.01,1.25-2.22,1.95-3.82,2.41l-.09-.13c2.02-1.45,3.54-3.29,3.78-5.77-.13,0-.64.02-1.23.13l-.31-.68c1.12.09,2.43.11,2.63.11h.9c0-.61.02-2.21.02-2.57,0-.44-.13-1.45-.26-1.97h-1.14c0,.57,0,1.07-1.05,1.07-.31,0-.5-.15-.5-.46,0-.17.05-.68.05-.79.04-.86.04-1.51.04-2,0-1.03-.07-2.08-.17-3.1-.02-.11-.02-.28-.04-.37l1.69.9h4.04l.4-.57c.05-.09.15-.2.26-.2s.22.06.31.13l1.03.79c.11.07.17.15.17.22,0,.26-.46.57-.57.64,0,.55.09,3.05.09,3.55,0,1.01-.88,1.01-.96,1.01-.51,0-.55-.35-.59-.81h-3.05l1.96.72c.05.02.33.11.33.28,0,.26-.46.46-.68.57-.02.46,0,2.55,0,2.98h2.48ZM68.25,7.11c.96.29,2.19.9,2.19,2.06,0,.55-.42.83-.75.83-.64,0-.77-.75-.86-1.19-.15-.83-.31-1.14-.62-1.56l.05-.13ZM69.85,1.65v1.69h4.21v-1.69h-4.21ZM69.85,3.78v1.75h4.21v-1.75h-4.21ZM75.71,7.73c.09.05.22.15.22.28,0,.17-.18.28-.51.22-.31.33-1.8,1.63-2.09,1.91l-.13-.11c.18-.46.7-1.75.86-3.2l1.65.9Z"/><path class="cls-1" d="M78.81,15.93c4.12-2.5,7.4-6.15,9.26-10.43-.88.09-2.33.28-2.74.39q-.42.11-.5.11c-.16,0-.62-.18-.81-.29-1.51,1.86-2.68,2.9-4.89,4.13l-.15-.13c4.12-4.28,4.76-6.47,4.78-6.67.04-.24-.64-.66-1.01-.92.26-.07.64-.15.9-.15.66,0,2.26.83,2.26,1.45,0,.2-.05.26-.55.7-.24.22-.42.46-.66.73.55.04,2.72-.11,3.14-.26.2-.07.96-.62,1.14-.62s.26.07,1.03.77c.57.53.64.59.64.81,0,.18-.02.2-.59.42-.51.2-.64.44-1.01,1.12-1.78,3.22-4.54,7.51-10.2,8.97l-.05-.13ZM91.78,3.99c0,.37-.2.61-.53.61-.26,0-.42-.18-.61-.4-.53-.68-1.12-1.45-2.17-2.06,1.4-.02,3.31.68,3.31,1.86ZM93.49,3.05c0,.44-.31.55-.52.55-.24,0-.29-.07-.92-.73-.17-.18-1.03-1.01-1.93-1.38,1.51-.02,3.36.37,3.36,1.56Z"/><path class="cls-1" d="M105.67,7.64c-.09.07-.15.17-.53,1.01-.83,1.76-1.65,3.62-3.93,5.44-.92.75-2.99,2.19-5,2.24v-.13c1.86-.73,4.46-3.34,4.96-3.91.79-.9,1.93-2.52,2.74-5.14-1.1.11-5.62.57-6.67,1.01-.11.05-.59.31-.7.31-.39,0-1.86-1.05-1.86-2.31,0-.2.04-.39.15-.66.15.2.33.48.81.84.42.31.55.35,1.06.35,1.21,0,7.05-.46,7.28-.57.15-.09.64-.72.79-.72.18,0,1.63,1.03,1.63,1.51,0,.24-.18.37-.73.74ZM103.23,4.04c-.86.04-3.58.2-4.36.35-.83.15-.92.18-1.18.18-.86,0-1.69-1.29-1.6-2.2.86.88,1.87.88,2.61.88,2.08,0,3.51-.39,3.73-.46.17-.04.81-.37.96-.37s.94.28,1.16.39c.26.11.5.29.5.66,0,.48-.29.51-1.82.57Z"/><path class="cls-1" d="M113.28,5.88c-.31,0-.55-.26-1.18-.88-1.51-1.53-2.41-1.93-3.07-2.24.33-.04.55-.06.9-.06.62,0,4.06.26,4.06,2.3,0,.57-.42.88-.72.88ZM114.93,12c-.68.53-1.78,1.32-2.41,1.89-.11.09-.53.59-.64.64-.09.06-.18.07-.26.07-.66,0-1.96-1.67-1.96-2.57,0-.31.07-.62.13-.86.59.99,1.14,1.25,1.45,1.25.51,0,3.58-2.24,4.24-2.76,2.99-2.33,4.76-4.32,5.75-5.46l.07.04c-.29,1.18-2.13,4.45-6.37,7.75Z"/><path class="cls-1" d="M133.93,5.77c-.53.17-.75.44-1.14,1.16-2.22,4.1-4.17,5.97-6.47,7.39-.7.42-2.26,1.32-3.71,1.6l-.07-.13c4.02-2.46,7.38-6.08,9.28-10.45-.42.06-1.89.26-2.68.39-.09.02-.39.13-.52.13-.18,0-.5-.11-.84-.31-1.65,2-2.44,2.68-4.91,4.13l-.13-.13c2.5-2.7,3.18-3.58,4.19-5.33.4-.7.57-1.12.57-1.34,0-.2-.62-.68-1.01-.9.29-.09.61-.17.92-.17.64,0,2.24.85,2.24,1.47,0,.2-.04.26-.53.68-.24.22-.31.31-.68.75.46.04,2.72-.11,3.14-.26.2-.07.97-.62,1.16-.62.15,0,.24.07,1.03.77.53.48.62.59.62.77,0,.26-.11.29-.46.4Z"/><path class="cls-1" d="M147.89,7.64c-.09.07-.15.17-.53,1.01-.83,1.76-1.65,3.62-3.93,5.44-.92.75-2.99,2.19-5,2.24v-.13c1.86-.73,4.46-3.34,4.96-3.91.79-.9,1.93-2.52,2.74-5.14-1.1.11-5.62.57-6.67,1.01-.11.05-.59.31-.7.31-.39,0-1.86-1.05-1.86-2.31,0-.2.04-.39.15-.66.15.2.33.48.81.84.42.31.55.35,1.06.35,1.21,0,7.05-.46,7.28-.57.15-.09.64-.72.79-.72.18,0,1.63,1.03,1.63,1.51,0,.24-.18.37-.73.74ZM145.45,4.04c-.86.04-3.58.2-4.36.35-.83.15-.92.18-1.18.18-.86,0-1.69-1.29-1.6-2.2.86.88,1.87.88,2.61.88,2.08,0,3.51-.39,3.73-.46.17-.04.81-.37.96-.37s.94.28,1.16.39c.26.11.5.29.5.66,0,.48-.29.51-1.82.57Z"/><path class="cls-1" d="M163.25,15.06c-.5,0-.77-.48-.96-.77-1.41-2.35-2.26-3.53-3.73-4.68-2.81,3.34-5.6,5.12-8.19,5.58v-.15c4.39-2.04,8.93-8.19,9.54-10.8-.06.02-3.73.68-4.7,1.16-.53.28-.61.29-.75.29-.28,0-1.43-.85-1.43-2.02,0-.48.07-.61.17-.81.75.97.9,1.18,1.51,1.18.44,0,4.46-.35,5.22-.83.13-.09.71-.59.86-.59.24,0,1.67,1.36,1.67,1.65,0,.2-.13.26-.72.48-.17.07-.24.2-.52.7-1.21,2.21-1.41,2.57-2.37,3.8,2.24.94,5.12,3.14,5.12,4.79,0,.44-.16,1.01-.72,1.01Z"/></g></svg>