<?xml version="1.0" encoding="UTF-8"?><svg id="_レイヤー_2" xmlns="http://www.w3.org/2000/svg" viewBox="0 0 142.17 113.9"><defs><style>.cls-1{fill:none;}.cls-1,.cls-2{stroke:#231815;stroke-miterlimit:10;stroke-width:.32px;}.cls-3{fill:#231815;}.cls-2,.cls-4{fill:#fff;}.cls-5{fill:#004ea2;}.cls-6{fill:#009d8e;}</style></defs><g id="_レイヤー_1-2"><rect class="cls-4" x=".16" y=".16" width="141.85" height="113.58"/><rect class="cls-2" x=".16" y=".16" width="141.85" height="113.58"/><path class="cls-3" d="M32.5,57.42c-.4.13-.57.34-.86.88-1.68,3.12-3.14,4.55-4.88,5.63-.53.32-1.7,1.01-2.8,1.22l-.05-.1c3.03-1.88,5.57-4.64,7-7.97-.32.04-1.43.2-2.02.29-.07.01-.29.1-.39.1-.14,0-.37-.08-.64-.24-1.25,1.53-1.84,2.04-3.7,3.15l-.1-.1c1.88-2.06,2.4-2.73,3.16-4.06.3-.53.43-.85.43-1.02,0-.15-.47-.52-.76-.69.22-.07.46-.13.69-.13.49,0,1.69.64,1.69,1.12,0,.15-.03.2-.4.52-.18.17-.24.24-.51.57.35.03,2.05-.08,2.37-.2.15-.06.73-.48.87-.48.11,0,.18.06.78.59.4.36.47.45.47.59,0,.2-.08.22-.35.31Z"/><path class="cls-3" d="M46.06,56c-.12.28-.22.56-.22,1.58,0,.35.05,1.89.05,2.21,0,.21,0,1.15-.51,1.15-.26,0-.76-.43-.76-1.19,0-.13.07-.62.1-.88.04-.45.06-1.4.06-2.12,0-1.02,0-1.3-1.16-1.58.22-.14.55-.34.87-.34.39,0,1.69.45,1.69.84,0,.07-.01.13-.11.32ZM50.76,55.94c-.07.55-.03,1.43-.04,1.97-.06,2.59-.24,4.36-1.69,5.93-.49.52-1.44,1.37-2.65,1.51l-.04-.1c1.83-1.02,2.72-3.05,2.95-4.22.3-1.55.3-3.77.3-4.2,0-1.95-.07-1.99-1.34-2.25.21-.17.5-.41,1.05-.41.69,0,1.71.42,1.71.76,0,.15-.24.85-.25,1.01Z"/><path class="cls-3" d="M72.25,58.16c-.07,0-.15,0-.24-.01-.73-.1-1.47-.15-2.22-.15-.49,0-.79.01-1.01.03,0,.28,0,.97.03,2.04.01.48.1,2.59.1,3.03,0,1.82-.57,2.24-.89,2.24-.26,0-.37-.27-.61-.78-.14-.29-.49-.83-1.48-1.42l.04-.13c.67.2,1.57.28,1.61.28.18,0,.22-.07.25-.15.04-.15.11-2.87.11-3.57v-.32c-1.33,2.1-3.31,3.7-5.65,4.48l-.06-.1c1.75-1.22,4.34-3.6,5.32-5.49-1.8.21-2.92.57-2.98.6-.14.06-.4.13-.46.13-.26,0-1.36-.46-1.36-1.62,0-.21.03-.34.05-.49.61.67.89.95,1.9.95s2.67-.2,3.21-.27c-.03-1.51-.07-2.06-.21-2.39-.14-.34-.37-.42-1.08-.69.36-.36.9-.36.94-.36.5,0,1.63.49,1.63.88,0,.1-.15.38-.21.49-.18.39-.19.99-.22,1.97,1.29-.15,1.43-.17,1.68-.22.11-.03.58-.21.69-.21.12,0,1.43.27,1.43.85,0,.2-.08.41-.33.41Z"/><path class="cls-3" d="M85.46,57.04c-.86,0-1.16.04-1.51.1l-.22-.52c.65.06,1.32.08,1.98.08h.87c-.04-2.3-.25-2.94-.36-3.31l1.69.48c.14.04.28.08.28.25s-.12.27-.5.57c-.01.48-.03,1.49-.04,2h.67l.54-.7c.08-.1.15-.18.22-.18s.17.1.25.17l.75.69c.06.04.14.14.14.21,0,.14-.12.15-.21.15h-2.36l-.03,1.32c.97.29,2.11.97,2.11,1.88,0,.39-.22.64-.57.64-.51,0-.69-.27-.94-1.19-.08-.29-.33-.76-.6-1.06-.04,1.99-.04,2.2-.04,3.08,0,.56.06,3,.06,3.5,0,.43-.1.71-.72.71-.47,0-.58-.21-.58-.5,0-.48.15-2.59.17-3.01.06-1.19.07-1.93.08-2.77-.9,1.42-1.93,2.52-3.23,3.42l-.12-.1c1.34-1.49,2.63-4.27,3.21-5.91h-.98ZM92.42,53.98c.1.03.18.08.18.22,0,.2-.19.34-.46.45-.01.79-.05,3.38-.05,4.17v5.07c0,.24.14.28.64.28h.86c.86,0,1.25-.24,1.63-2.61h.11c.26,1.44.26,1.58.44,2.02.03.07.26.21.39.27.07.03.11.11.11.18,0,.28-.19,1.36-2.15,1.36h-1.63c-1.4,0-1.65-.34-1.65-1.37,0-.21.04-1.08.04-1.26.01-1.22.01-2.44.01-3.67,0-.88-.01-4.19-.11-4.8-.04-.24-.11-.57-.18-.83l1.81.52Z"/><path class="cls-3" d="M110.6,55.57l.4-.45s.1-.1.17-.1c.05,0,.18.08.22.13l.67.55c.05.04.12.15.12.22,0,.14-.11.24-.37.48,0,.21,0,.43.01,2.41,0,.38.08,2.2.08,2.62,0,1.5-1.08,1.77-1.46,1.72-.01-.18-.17-1.15-.54-1.42,0,.42.03,2.77.03,3.08,0,.1.04.69.04.8,0,.45-.39.59-.72.59-.44,0-.44-.25-.44-.45,0-.28.06-1.7.07-2.02.04-1.68.05-3.04.05-4.03,0-.69,0-.99-.03-3.8h-.75c.07,1.72.06,4.5.08,6.22,0,.11.03.7.03.83,0,.59-.5.59-.65.59-.4,0-.46-.22-.46-.39,0-.39.08-4.15.08-4.93,0-1.53-.06-2.45-.17-3.29l1.21.64h.62c0-.28-.01-.67-.01-.91,0-.7-.06-1.19-.28-1.64l1.46.49s.26.1.26.24c0,.17-.19.27-.46.41,0,.17.01.94.01,1.42h.71ZM109.89,55.9c-.01,2.66-.01,2.96.01,5.71.28.03.46.04.67.04.26,0,.28-.03.28-.22,0-.62-.05-5.31-.05-5.42v-.11h-.9ZM117.68,61.03l.46-.67c.06-.07.15-.17.21-.17.08,0,.17.06.26.14l.78.67c.07.06.14.14.14.21,0,.13-.11.15-.21.15h-3.24c-.01.5-.01,2.31-.01,2.91,0,.29,0,.46.44.46,1.03,0,1.29-.03,1.44-.13.26-.17.61-1.6.64-1.75h.11c.04.28.22,1.37.4,1.53.06.04.22.15.33.22.06.04.12.15.12.27,0,.25-.25.56-.44.69-.35.22-.98.29-1.98.29-1.87,0-2.12-.13-2.12-1.69v-2.8h-1.28l.65.24c.26.1.35.15.35.24,0,.18-.33.24-.44.25-.19.76-.46,1.33-.94,1.93-.76.95-1.68,1.49-2.88,1.83l-.07-.1c1.52-1.11,2.67-2.51,2.85-4.4-.1,0-.49.01-.93.1l-.24-.52c.84.07,1.83.08,1.98.08h.68c0-.46.01-1.68.01-1.96,0-.34-.1-1.11-.19-1.5h-.86c0,.43,0,.81-.79.81-.24,0-.37-.11-.37-.35,0-.13.04-.52.04-.6.03-.66.03-1.15.03-1.53,0-.78-.06-1.58-.12-2.37-.01-.08-.01-.21-.03-.28l1.27.69h3.05l.3-.43c.04-.07.11-.15.19-.15s.17.04.24.1l.78.6c.08.06.12.11.12.17,0,.2-.35.43-.43.49,0,.42.07,2.33.07,2.7,0,.77-.67.77-.72.77-.39,0-.42-.27-.44-.62h-2.3l1.48.55s.25.08.25.21c0,.2-.35.35-.51.43-.01.35,0,1.95,0,2.27h1.87ZM112.5,58.44c.72.22,1.65.69,1.65,1.57,0,.42-.32.63-.57.63-.48,0-.58-.57-.65-.91-.11-.63-.24-.87-.47-1.19l.04-.1ZM113.7,54.28v1.29h3.17v-1.29h-3.17ZM113.7,55.9v1.33h3.17v-1.33h-3.17ZM118.12,58.91c.07.04.17.11.17.21,0,.13-.14.21-.39.17-.24.25-1.36,1.25-1.58,1.46l-.1-.08c.14-.35.53-1.33.65-2.44l1.25.69Z"/><path class="cls-3" d="M15.33,80.67c3.14-1.91,5.65-4.7,7.07-7.96-.67.07-1.78.21-2.09.29q-.32.08-.38.08c-.13,0-.48-.14-.62-.22-1.15,1.42-2.05,2.22-3.73,3.16l-.11-.1c3.14-3.27,3.63-4.94,3.65-5.09.03-.18-.49-.5-.77-.7.2-.06.49-.11.69-.11.5,0,1.72.63,1.72,1.11,0,.15-.04.2-.42.53-.18.17-.32.35-.5.56.42.03,2.08-.08,2.4-.2.15-.06.73-.48.87-.48s.2.06.79.59c.44.41.49.45.49.62,0,.14-.01.15-.45.32-.39.15-.49.34-.77.86-1.36,2.45-3.46,5.74-7.78,6.84l-.04-.1ZM25.23,71.56c0,.28-.15.46-.41.46-.2,0-.32-.14-.46-.31-.41-.52-.86-1.11-1.66-1.57,1.07-.01,2.52.52,2.52,1.42ZM26.53,70.84c0,.34-.24.42-.39.42-.18,0-.22-.06-.7-.56-.13-.14-.79-.77-1.47-1.05,1.15-.01,2.57.28,2.57,1.19Z"/><path class="cls-3" d="M45.2,74.35c-.07.06-.11.13-.41.77-.63,1.35-1.26,2.76-3,4.15-.7.58-2.29,1.67-3.81,1.71v-.1c1.42-.56,3.41-2.55,3.79-2.99.6-.69,1.47-1.92,2.09-3.93-.84.08-4.29.43-5.09.77-.08.04-.45.24-.53.24-.29,0-1.42-.8-1.42-1.77,0-.15.03-.29.11-.5.11.15.25.37.62.65.32.24.42.27.81.27.92,0,5.38-.35,5.55-.44.11-.07.49-.55.6-.55.14,0,1.25.79,1.25,1.15,0,.18-.14.28-.56.56ZM43.33,71.6c-.66.03-2.73.15-3.32.27-.63.11-.7.14-.9.14-.66,0-1.29-.98-1.22-1.68.66.67,1.43.67,1.99.67,1.58,0,2.68-.29,2.85-.35.13-.03.62-.28.73-.28s.71.21.88.29c.2.08.38.22.38.5,0,.36-.22.39-1.39.43Z"/><path class="cls-3" d="M60.38,73c-.24,0-.42-.2-.9-.67-1.15-1.16-1.84-1.47-2.34-1.71.25-.03.42-.04.69-.04.48,0,3.1.2,3.1,1.75,0,.43-.32.67-.55.67ZM61.64,77.67c-.52.41-1.36,1.01-1.84,1.44-.08.07-.41.45-.49.49-.07.04-.14.06-.2.06-.5,0-1.5-1.28-1.5-1.96,0-.24.06-.48.1-.66.45.76.87.95,1.11.95.39,0,2.74-1.71,3.24-2.1,2.29-1.78,3.63-3.3,4.39-4.17l.06.03c-.22.9-1.63,3.39-4.87,5.92Z"/><path class="cls-3" d="M85.51,72.92c-.41.13-.58.34-.87.88-1.7,3.13-3.18,4.56-4.94,5.64-.53.32-1.72,1.01-2.83,1.22l-.06-.1c3.07-1.88,5.64-4.64,7.08-7.98-.32.04-1.44.2-2.05.29-.07.01-.29.1-.39.1-.14,0-.38-.08-.65-.24-1.26,1.53-1.87,2.05-3.74,3.16l-.1-.1c1.91-2.06,2.43-2.73,3.2-4.07.31-.53.43-.86.43-1.02,0-.15-.48-.52-.77-.69.22-.07.46-.13.7-.13.49,0,1.71.65,1.71,1.12,0,.15-.03.2-.41.52-.18.17-.24.24-.52.58.35.03,2.08-.08,2.4-.2.15-.06.74-.48.88-.48.11,0,.18.06.79.59.41.36.48.45.48.59,0,.2-.08.22-.35.31Z"/><path class="cls-3" d="M105.54,74.35c-.07.06-.11.13-.41.77-.63,1.35-1.26,2.76-3,4.15-.7.58-2.29,1.67-3.81,1.71v-.1c1.42-.56,3.41-2.55,3.79-2.99.6-.69,1.47-1.92,2.09-3.93-.84.08-4.29.43-5.09.77-.08.04-.45.24-.53.24-.29,0-1.42-.8-1.42-1.77,0-.15.03-.29.11-.5.11.15.25.37.62.65.32.24.42.27.81.27.93,0,5.38-.35,5.55-.44.11-.07.49-.55.6-.55.14,0,1.25.79,1.25,1.15,0,.18-.14.28-.56.56ZM103.68,71.6c-.66.03-2.73.15-3.32.27-.63.11-.7.14-.9.14-.66,0-1.29-.98-1.22-1.68.66.67,1.43.67,1.99.67,1.58,0,2.68-.29,2.85-.35.13-.03.62-.28.73-.28s.71.21.88.29c.2.08.38.22.38.5,0,.36-.22.39-1.39.43Z"/><path class="cls-3" d="M126.64,80.02c-.38,0-.59-.37-.73-.59-1.08-1.79-1.72-2.69-2.85-3.58-2.15,2.55-4.28,3.91-6.25,4.26v-.11c3.35-1.56,6.82-6.25,7.28-8.25-.04.01-2.85.52-3.59.88-.41.21-.46.22-.57.22-.21,0-1.09-.64-1.09-1.54,0-.37.06-.46.13-.62.58.74.69.9,1.15.9.34,0,3.41-.27,3.98-.63.1-.07.55-.45.66-.45.18,0,1.28,1.04,1.28,1.26,0,.15-.1.2-.55.36-.13.06-.18.15-.39.53-.93,1.68-1.08,1.96-1.81,2.9,1.71.71,3.91,2.4,3.91,3.66,0,.34-.13.77-.55.77Z"/><path class="cls-5" d="M109.38,14.76c-11.16,0-18.44,6.42-18.44,14.74s7.34,14.6,18.44,14.6,18.34-6.39,18.34-14.6-7.19-14.74-18.34-14.74M109.4,41.65c-6.53,0-10.65-5.54-10.65-12.15s3.78-12.29,10.65-12.29,10.52,5.69,10.52,12.29-3.99,12.15-10.52,12.15"/><path class="cls-5" d="M34.92,41.58c-7.5,0-11.6-5.19-11.6-12.36s4.74-11.94,11.74-11.94c5.31,0,9.92,3.96,12.64,6.91l-.87-6.64c-2.76-1.58-7.54-2.78-12.72-2.78-10.94,0-18.93,6.19-18.93,14.62s7.79,14.72,18.66,14.72c5.59,0,10.2-1.18,12.99-2.67l.87-6.74c-2.96,3.13-7.26,6.89-12.78,6.89"/><polyline class="cls-6" points="87.73 15.54 79.76 15.54 79.76 23.29 87.73 17.97 87.73 15.54"/><polyline class="cls-5" points="87.73 43.45 87.73 20.83 79.76 26.15 79.76 43.45 87.73 43.45"/><path class="cls-5" d="M73.72,43.45l3.96-2.65h-18.11V15.54h-9.89c1.29,1.69,1.92,3.42,1.92,5.65v22.25h22.12"/><path class="cls-3" d="M19.85,98.82c-.1.05-.22.09-.37.13-.14.04-.3.07-.48.11-.18.03-.36.05-.56.05-.41,0-.8-.06-1.15-.18-.35-.12-.65-.3-.91-.54-.25-.24-.45-.54-.6-.88-.14-.35-.22-.74-.22-1.19s.07-.84.22-1.19c.14-.35.35-.64.6-.88s.57-.42.93-.55.76-.19,1.19-.19c.35,0,.66.04.95.11.29.07.54.16.76.25-.04.07-.08.17-.1.3-.03.13-.05.23-.06.31l-.05.02c-.05-.06-.12-.13-.22-.21-.09-.08-.2-.15-.33-.23-.12-.07-.27-.13-.42-.18s-.33-.07-.52-.07c-.31,0-.6.05-.86.15-.26.1-.5.25-.69.46s-.35.47-.46.79c-.11.32-.17.69-.17,1.13s.05.81.17,1.13c.11.32.26.58.46.79s.43.36.69.46c.26.1.55.15.86.15.19,0,.36-.02.52-.07s.31-.1.44-.17c.13-.07.25-.14.36-.21s.2-.14.27-.2l.03.03-.07.46s-.12.09-.22.14Z"/><path class="cls-3" d="M21.31,94.63c-.01-.33-.03-.67-.04-1.02.07,0,.13.02.2.03.06,0,.12.01.19.01s.12,0,.19-.01c.06,0,.13-.02.2-.03-.02.34-.03.68-.04,1.02-.01.33-.02.67-.02,1.02,0,.66,0,1.23,0,1.72,0,.48,0,.92.02,1.3.37,0,.73,0,1.07-.01.34,0,.71-.04,1.1-.09-.03.09-.04.17-.04.24,0,.06.01.13.04.21-.24-.01-.48-.02-.72-.02h-1.45c-.23,0-.48,0-.73.02.02-.32.03-.65.04-.99s.02-.68.02-1.02v-1.35c0-.35,0-.68-.02-1.02Z"/><path class="cls-3" d="M25.31,94.63c-.01-.33-.03-.67-.04-1.02.07,0,.13.02.2.03.06,0,.12.01.19.01s.12,0,.19-.01c.06,0,.13-.02.2-.03-.02.34-.03.68-.04,1.02-.01.33-.02.67-.02,1.02v1.35c0,.35,0,.69.02,1.02.01.33.03.67.04.99-.12-.01-.25-.02-.38-.02s-.26,0-.38.02c.02-.32.03-.65.04-.99s.02-.68.02-1.02v-1.35c0-.35,0-.68-.02-1.02Z"/><path class="cls-3" d="M27.15,96.32c0-.45.07-.84.22-1.19.14-.35.35-.64.6-.88s.57-.42.93-.55.76-.19,1.19-.19.83.06,1.19.19.67.31.93.55c.26.24.46.54.6.88.14.35.22.74.22,1.19s-.07.84-.22,1.19c-.14.35-.35.64-.6.88-.26.24-.57.42-.93.54-.36.12-.76.18-1.19.18s-.82-.06-1.19-.18c-.36-.12-.67-.3-.93-.54-.26-.24-.46-.54-.6-.88-.14-.35-.22-.74-.22-1.19ZM32.27,96.32c0-.43-.05-.81-.17-1.13s-.26-.58-.46-.79c-.2-.21-.43-.36-.69-.46-.26-.1-.55-.15-.86-.15s-.59.05-.85.15c-.26.1-.5.25-.69.46s-.35.47-.46.79c-.11.32-.17.69-.17,1.13s.05.81.17,1.13c.11.32.26.58.46.79s.43.36.69.46c.26.1.55.15.85.15s.6-.05.86-.15c.26-.1.49-.25.69-.46.2-.21.35-.47.46-.79s.17-.69.17-1.13Z"/><path class="cls-3" d="M36.47,98.27c.07.1.16.18.26.26.1.08.22.14.36.19.14.05.29.07.46.07s.33-.03.47-.09c.14-.06.26-.14.35-.24.1-.1.17-.22.22-.36.05-.14.08-.29.08-.44,0-.24-.06-.43-.18-.57s-.28-.26-.46-.35c-.18-.09-.38-.18-.59-.26-.21-.08-.41-.18-.59-.29-.18-.12-.34-.27-.46-.45-.12-.18-.18-.43-.18-.74,0-.22.04-.42.12-.6.08-.18.19-.34.34-.47s.33-.23.54-.31c.21-.07.44-.11.71-.11s.47.03.65.09c.18.06.35.15.51.28-.05.09-.09.18-.12.28-.03.1-.06.23-.09.38h-.09c-.03-.07-.06-.15-.11-.24-.04-.09-.11-.17-.18-.24-.08-.07-.17-.13-.27-.18s-.23-.07-.38-.07-.28.02-.4.07-.23.11-.32.2-.16.19-.21.31c-.05.12-.07.25-.07.39,0,.25.06.44.18.58s.28.26.46.36c.18.1.38.18.59.26s.41.17.59.28c.18.11.34.25.46.42s.18.4.18.69c0,.24-.04.47-.13.68-.09.21-.21.4-.38.56-.17.16-.37.28-.6.37-.24.09-.51.13-.81.13-.33,0-.59-.04-.79-.13-.2-.09-.37-.18-.51-.29.05-.12.08-.23.1-.33.02-.1.04-.22.05-.37h.09c.04.09.1.19.17.29Z"/><path class="cls-3" d="M44.82,99.01c-.07-.01-.14-.02-.21-.02h-.42c-.07,0-.13,0-.21.02-.04-.12-.09-.27-.15-.44-.06-.17-.13-.35-.21-.53-.08-.19-.15-.37-.23-.57-.08-.19-.15-.37-.22-.55-.17,0-.34,0-.51-.01s-.35,0-.52,0c-.16,0-.32,0-.48,0-.16,0-.32,0-.48.01-.17.41-.32.8-.46,1.17-.14.37-.24.67-.31.92-.09-.01-.19-.02-.29-.02s-.2,0-.29.02c.42-.92.84-1.83,1.24-2.73.4-.91.81-1.83,1.22-2.76h.15c.12.3.26.63.41.99s.29.71.45,1.07c.15.36.3.72.46,1.08.15.36.29.69.43.99.13.31.25.58.36.82.11.24.19.42.26.55ZM41.34,96.57c.14,0,.28,0,.42,0,.15,0,.29,0,.42,0,.15,0,.29,0,.44,0,.15,0,.29,0,.44-.01l-.87-1.99-.86,1.99Z"/><path class="cls-3" d="M45.8,95.65c0-.35,0-.68-.02-1.02s-.03-.67-.04-1.02c.12,0,.25.02.38.03.13,0,.25.01.38.01.06,0,.14,0,.23,0,.09,0,.18,0,.27-.01.09,0,.18,0,.26-.01.08,0,.15,0,.21,0,.08,0,.17,0,.29,0,.12,0,.24.02.37.05.13.03.26.07.38.12.13.05.24.13.34.23.1.1.18.22.25.37.06.15.09.33.09.55,0,.34-.07.62-.22.84s-.33.38-.55.5c-.22.12-.45.2-.69.24-.24.04-.46.06-.65.06-.12,0-.23,0-.33,0-.1,0-.2,0-.31-.02v.43c0,.35,0,.69.02,1.02.01.33.03.67.04.99-.12-.01-.25-.02-.38-.02s-.26,0-.38.02c.02-.32.03-.65.04-.99s.02-.68.02-1.02v-1.35ZM46.44,96.24c.18.04.36.06.56.06.16,0,.33-.02.5-.06.17-.04.33-.1.48-.2.14-.1.26-.23.35-.4.09-.17.14-.39.14-.66,0-.23-.03-.41-.09-.55-.06-.14-.15-.25-.26-.33-.11-.08-.25-.13-.41-.16-.16-.03-.35-.04-.55-.04h-.71v2.33Z"/><path class="cls-3" d="M50.24,95.65c0-.35,0-.68-.02-1.02s-.03-.67-.04-1.02c.12,0,.25.02.38.03.13,0,.25.01.38.01.06,0,.14,0,.23,0,.09,0,.18,0,.27-.01.09,0,.18,0,.26-.01.08,0,.15,0,.21,0,.08,0,.17,0,.29,0,.12,0,.24.02.37.05.13.03.26.07.38.12.13.05.24.13.34.23.1.1.18.22.25.37.06.15.09.33.09.55,0,.34-.07.62-.22.84s-.33.38-.55.5c-.22.12-.45.2-.69.24-.24.04-.46.06-.65.06-.12,0-.23,0-.33,0-.1,0-.2,0-.31-.02v.43c0,.35,0,.69.02,1.02.01.33.03.67.04.99-.12-.01-.25-.02-.38-.02s-.26,0-.38.02c.02-.32.03-.65.04-.99s.02-.68.02-1.02v-1.35ZM50.89,96.24c.18.04.36.06.56.06.16,0,.33-.02.5-.06.17-.04.33-.1.48-.2.14-.1.26-.23.35-.4.09-.17.14-.39.14-.66,0-.23-.03-.41-.09-.55-.06-.14-.15-.25-.26-.33-.11-.08-.25-.13-.41-.16-.16-.03-.35-.04-.55-.04h-.71v2.33Z"/><path class="cls-3" d="M54.25,96.32c0-.45.07-.84.22-1.19.14-.35.35-.64.6-.88s.57-.42.93-.55.76-.19,1.19-.19.83.06,1.19.19.67.31.93.55c.26.24.46.54.6.88.14.35.22.74.22,1.19s-.07.84-.22,1.19c-.14.35-.35.64-.6.88-.26.24-.57.42-.93.54-.36.12-.76.18-1.19.18s-.82-.06-1.19-.18c-.36-.12-.67-.3-.93-.54-.26-.24-.46-.54-.6-.88-.14-.35-.22-.74-.22-1.19ZM59.36,96.32c0-.43-.05-.81-.17-1.13s-.26-.58-.46-.79c-.2-.21-.43-.36-.69-.46-.26-.1-.55-.15-.86-.15s-.59.05-.85.15c-.26.1-.5.25-.69.46s-.35.47-.46.79c-.11.32-.17.69-.17,1.13s.05.81.17,1.13c.11.32.26.58.46.79s.43.36.69.46c.26.1.55.15.85.15s.6-.05.86-.15c.26-.1.49-.25.69-.46.2-.21.35-.47.46-.79s.17-.69.17-1.13Z"/><path class="cls-3" d="M61.31,95.65c0-.35,0-.68-.02-1.02s-.03-.67-.04-1.02c.15,0,.3.02.45.03s.3.01.45.01.3,0,.45-.02c.15-.01.3-.02.45-.02.22,0,.43.02.63.06.2.04.37.11.52.21.15.1.27.22.35.38.09.16.13.35.13.59,0,.25-.06.47-.17.65-.11.18-.25.33-.41.45s-.34.21-.52.27-.35.11-.51.13c.06.08.15.19.26.33.11.14.23.3.37.47.14.17.28.35.42.53s.29.36.42.53.26.33.38.47c.12.14.22.25.29.32-.08-.01-.16-.02-.24-.02h-.46c-.08,0-.15,0-.23.02-.08-.11-.2-.27-.36-.5-.16-.22-.34-.46-.53-.71-.19-.25-.39-.5-.59-.75-.2-.25-.39-.46-.55-.63h-.3v.57c0,.35,0,.69.02,1.02.01.33.03.67.04.99-.12-.01-.25-.02-.38-.02s-.26,0-.38.02c.02-.32.03-.65.04-.99s.02-.68.02-1.02v-1.35ZM61.95,96.1c.07.02.15.03.24.03.09,0,.18,0,.29,0,.16,0,.33-.02.51-.05.17-.04.34-.1.48-.19.15-.09.27-.21.37-.37.1-.15.15-.35.15-.58,0-.21-.04-.37-.11-.51-.08-.13-.17-.24-.29-.32-.12-.08-.25-.13-.39-.16-.14-.03-.28-.04-.42-.04-.18,0-.33,0-.46.01-.12,0-.22.02-.31.03-.01.29-.02.57-.03.86-.01.28-.02.57-.02.85v.45Z"/><path class="cls-3" d="M65.75,96.32c0-.45.07-.84.22-1.19.14-.35.35-.64.6-.88s.57-.42.93-.55.76-.19,1.19-.19.83.06,1.19.19.67.31.93.55c.26.24.46.54.6.88.14.35.22.74.22,1.19s-.07.84-.22,1.19c-.14.35-.35.64-.6.88-.26.24-.57.42-.93.54-.36.12-.76.18-1.19.18s-.82-.06-1.19-.18c-.36-.12-.67-.3-.93-.54-.26-.24-.46-.54-.6-.88-.14-.35-.22-.74-.22-1.19ZM70.86,96.32c0-.43-.05-.81-.17-1.13s-.26-.58-.46-.79c-.2-.21-.43-.36-.69-.46-.26-.1-.55-.15-.86-.15s-.59.05-.85.15c-.26.1-.5.25-.69.46s-.35.47-.46.79c-.11.32-.17.69-.17,1.13s.05.81.17,1.13c.11.32.26.58.46.79s.43.36.69.46c.26.1.55.15.85.15s.6-.05.86-.15c.26-.1.49-.25.69-.46.2-.21.35-.47.46-.79s.17-.69.17-1.13Z"/><path class="cls-3" d="M79.27,94.29c-.12-.09-.25-.18-.39-.25-.14-.07-.3-.13-.48-.17-.18-.04-.36-.07-.56-.07-.33,0-.63.05-.91.15-.28.1-.52.25-.73.46s-.37.47-.49.79c-.12.32-.18.69-.18,1.13,0,.38.05.73.16,1.04.11.31.26.57.46.78.2.21.45.38.74.49.29.12.62.17.99.17.11,0,.22,0,.35-.02.12-.01.24-.03.35-.05.11-.02.22-.05.31-.08s.18-.07.25-.11c0-.16,0-.31.01-.47,0-.16,0-.32,0-.48,0-.18,0-.37-.01-.55,0-.18-.02-.36-.03-.53.13.03.26.04.38.04.06,0,.12,0,.17,0,.06,0,.11-.02.17-.03-.01.12-.02.31-.02.57s0,.6,0,1.02c0,.11,0,.21,0,.32s0,.21,0,.32c-.11.04-.25.08-.41.13-.17.04-.34.08-.53.11s-.37.05-.56.08c-.19.02-.35.04-.51.04-.47,0-.89-.06-1.26-.17s-.69-.29-.95-.52-.46-.53-.6-.88c-.14-.35-.21-.76-.21-1.22s.07-.84.22-1.19c.15-.35.35-.64.62-.88s.59-.42.97-.55.8-.19,1.26-.19c.27,0,.5.01.71.04.21.03.39.07.55.11.16.05.3.1.42.15.12.05.23.1.32.15-.04.07-.08.17-.11.28s-.06.22-.07.32h-.09c-.08-.09-.18-.19-.29-.28Z"/><path class="cls-3" d="M81.26,95.65c0-.35,0-.68-.02-1.02s-.03-.67-.04-1.02c.15,0,.3.02.45.03s.3.01.45.01.3,0,.45-.02c.15-.01.3-.02.45-.02.22,0,.43.02.63.06.2.04.37.11.52.21.15.1.27.22.35.38.09.16.13.35.13.59,0,.25-.06.47-.17.65-.11.18-.25.33-.41.45s-.34.21-.52.27-.35.11-.51.13c.06.08.15.19.26.33.11.14.23.3.37.47.14.17.28.35.42.53s.29.36.42.53.26.33.38.47c.12.14.22.25.29.32-.08-.01-.16-.02-.24-.02h-.46c-.08,0-.15,0-.23.02-.08-.11-.2-.27-.36-.5-.16-.22-.34-.46-.53-.71-.19-.25-.39-.5-.59-.75-.2-.25-.39-.46-.55-.63h-.3v.57c0,.35,0,.69.02,1.02.01.33.03.67.04.99-.12-.01-.25-.02-.38-.02s-.26,0-.38.02c.02-.32.03-.65.04-.99s.02-.68.02-1.02v-1.35ZM81.9,96.1c.07.02.15.03.24.03.09,0,.18,0,.29,0,.16,0,.33-.02.51-.05.17-.04.34-.1.48-.19.15-.09.27-.21.37-.37.1-.15.15-.35.15-.58,0-.21-.04-.37-.11-.51-.08-.13-.17-.24-.29-.32-.12-.08-.25-.13-.39-.16-.14-.03-.28-.04-.42-.04-.18,0-.33,0-.46.01-.12,0-.22.02-.31.03-.01.29-.02.57-.03.86-.01.28-.02.57-.02.85v.45Z"/><path class="cls-3" d="M90.47,99.01c-.07-.01-.14-.02-.21-.02h-.42c-.07,0-.13,0-.21.02-.04-.12-.09-.27-.15-.44-.06-.17-.13-.35-.21-.53-.08-.19-.15-.37-.23-.57-.08-.19-.15-.37-.22-.55-.17,0-.34,0-.51-.01s-.35,0-.52,0c-.16,0-.32,0-.48,0-.16,0-.32,0-.48.01-.17.41-.32.8-.46,1.17-.14.37-.24.67-.31.92-.09-.01-.19-.02-.29-.02s-.2,0-.29.02c.42-.92.84-1.83,1.24-2.73.4-.91.81-1.83,1.22-2.76h.15c.12.3.26.63.41.99s.29.71.45,1.07c.15.36.3.72.46,1.08.15.36.29.69.43.99.13.31.25.58.36.82.11.24.19.42.26.55ZM86.99,96.57c.14,0,.28,0,.42,0,.15,0,.29,0,.42,0,.15,0,.29,0,.44,0,.15,0,.29,0,.44-.01l-.87-1.99-.86,1.99Z"/><path class="cls-3" d="M93.95,96.97c-.68-.73-1.36-1.46-2.04-2.18,0,.15,0,.34-.02.59,0,.25,0,.58,0,1,0,.11,0,.25,0,.41,0,.16,0,.33,0,.51,0,.18,0,.36.01.54,0,.18.01.35.02.51,0,.16,0,.29.02.41,0,.12,0,.2.02.24-.08-.01-.18-.02-.28-.02-.1,0-.2,0-.29.02,0-.05.02-.15.04-.29.01-.14.02-.31.04-.51s.02-.41.04-.64c.01-.23.02-.46.03-.69,0-.23.01-.46.02-.68,0-.22,0-.42,0-.59,0-.5,0-.93,0-1.3,0-.36,0-.63-.02-.81h.13c.32.35.66.72,1.03,1.11.36.4.72.79,1.08,1.17s.7.75,1.02,1.09c.32.34.6.63.84.88v-1.07c0-.55,0-1.08-.01-1.61,0-.52-.02-1.01-.05-1.47.1.03.19.04.27.04.06,0,.15-.01.25-.04-.01.12-.02.29-.04.52-.01.23-.03.48-.04.74-.01.26-.02.52-.04.77-.01.25-.02.45-.02.6v.47c0,.18,0,.36,0,.56s0,.39,0,.58,0,.38,0,.55,0,.32,0,.44v.26h-.11c-.6-.7-1.24-1.41-1.92-2.14Z"/><path class="cls-3" d="M97.64,95.65c0-.35,0-.68-.02-1.02s-.03-.67-.04-1.02c.2,0,.4.02.59.03s.39.01.59.01.4,0,.59-.02c.2-.01.39-.02.59-.02.46,0,.85.06,1.18.18.33.12.59.29.8.51.21.22.36.5.46.82.1.32.15.68.15,1.09,0,.52-.09.96-.27,1.32-.18.36-.41.65-.69.87s-.59.38-.93.47c-.34.09-.66.14-.97.14-.18,0-.35,0-.53,0s-.35,0-.53,0h-.53c-.17,0-.35,0-.53.02.02-.32.03-.65.04-.99s.02-.68.02-1.02v-1.35ZM98.28,97c0,.57.02,1.12.05,1.67.11.03.26.05.45.06.19.01.38.02.58.02.29,0,.58-.03.86-.1.29-.07.55-.2.77-.38s.41-.45.56-.77c.14-.33.22-.75.22-1.27,0-.46-.06-.83-.17-1.12-.11-.29-.27-.52-.46-.69s-.43-.29-.7-.35-.57-.1-.9-.1c-.24,0-.46,0-.66.02s-.39.03-.55.06c-.02.25-.03.51-.04.79,0,.27-.01.55-.01.84v1.35Z"/><path class="cls-3" d="M109.92,98.82c-.1.05-.22.09-.37.13-.14.04-.3.07-.48.11-.18.03-.36.05-.56.05-.41,0-.8-.06-1.15-.18-.35-.12-.65-.3-.91-.54-.25-.24-.45-.54-.6-.88-.14-.35-.22-.74-.22-1.19s.07-.84.22-1.19c.14-.35.35-.64.6-.88s.57-.42.93-.55.76-.19,1.19-.19c.35,0,.66.04.95.11.29.07.54.16.76.25-.04.07-.08.17-.1.3-.03.13-.05.23-.06.31l-.05.02c-.05-.06-.12-.13-.22-.21-.09-.08-.2-.15-.33-.23-.12-.07-.27-.13-.42-.18s-.33-.07-.52-.07c-.31,0-.6.05-.86.15-.26.1-.5.25-.69.46s-.35.47-.46.79c-.11.32-.17.69-.17,1.13s.05.81.17,1.13c.11.32.26.58.46.79s.43.36.69.46c.26.1.55.15.86.15.19,0,.36-.02.52-.07s.31-.1.44-.17c.13-.07.25-.14.36-.21s.2-.14.27-.2l.03.03-.07.46s-.12.09-.22.14Z"/><path class="cls-3" d="M111.38,94.63c-.01-.33-.03-.67-.04-1.02.07,0,.13.02.2.03.06,0,.12.01.19.01s.12,0,.19-.01c.06,0,.13-.02.2-.03-.02.34-.03.68-.04,1.02-.01.33-.02.67-.02,1.02,0,.66,0,1.23,0,1.72,0,.48,0,.92.02,1.3.37,0,.73,0,1.07-.01.34,0,.71-.04,1.1-.09-.03.09-.04.17-.04.24,0,.06.01.13.04.21-.24-.01-.48-.02-.72-.02h-1.45c-.23,0-.48,0-.73.02.02-.32.03-.65.04-.99s.02-.68.02-1.02v-1.35c0-.35,0-.68-.02-1.02Z"/><path class="cls-3" d="M119.74,99.01c-.07-.01-.14-.02-.21-.02h-.42c-.07,0-.13,0-.21.02-.04-.12-.09-.27-.15-.44-.06-.17-.13-.35-.21-.53-.08-.19-.15-.37-.23-.57-.08-.19-.15-.37-.22-.55-.17,0-.34,0-.51-.01s-.35,0-.52,0c-.16,0-.32,0-.48,0-.16,0-.32,0-.48.01-.17.41-.32.8-.46,1.17-.14.37-.24.67-.31.92-.09-.01-.19-.02-.29-.02s-.2,0-.29.02c.42-.92.84-1.83,1.24-2.73.4-.91.81-1.83,1.22-2.76h.15c.12.3.26.63.41.99s.29.71.45,1.07c.15.36.3.72.46,1.08.15.36.29.69.43.99.13.31.25.58.36.82.11.24.19.42.26.55ZM116.27,96.57c.14,0,.28,0,.42,0,.15,0,.29,0,.42,0,.15,0,.29,0,.44,0,.15,0,.29,0,.44-.01l-.87-1.99-.86,1.99Z"/><path class="cls-3" d="M120.72,98.27c.07.1.16.18.26.26.1.08.22.14.36.19.14.05.29.07.46.07s.33-.03.47-.09c.14-.06.26-.14.35-.24.1-.1.17-.22.22-.36.05-.14.08-.29.08-.44,0-.24-.06-.43-.18-.57s-.28-.26-.46-.35c-.18-.09-.38-.18-.59-.26-.21-.08-.41-.18-.59-.29-.18-.12-.34-.27-.46-.45-.12-.18-.18-.43-.18-.74,0-.22.04-.42.12-.6.08-.18.19-.34.34-.47s.33-.23.54-.31c.21-.07.44-.11.71-.11s.47.03.65.09c.18.06.35.15.51.28-.05.09-.09.18-.12.28-.03.1-.06.23-.09.38h-.09c-.03-.07-.06-.15-.11-.24-.04-.09-.11-.17-.18-.24-.08-.07-.17-.13-.27-.18s-.23-.07-.38-.07-.28.02-.4.07-.23.11-.32.2-.16.19-.21.31c-.05.12-.07.25-.07.39,0,.25.06.44.18.58s.28.26.46.36c.18.1.38.18.59.26s.41.17.59.28c.18.11.34.25.46.42s.18.4.18.69c0,.24-.04.47-.13.68-.09.21-.21.4-.38.56-.17.16-.37.28-.6.37-.24.09-.51.13-.81.13-.33,0-.59-.04-.79-.13-.2-.09-.37-.18-.51-.29.05-.12.08-.23.1-.33.02-.1.04-.22.05-.37h.09c.04.09.1.19.17.29Z"/><path class="cls-3" d="M124.73,98.27c.07.1.16.18.26.26.1.08.22.14.36.19.14.05.29.07.46.07s.33-.03.47-.09c.14-.06.26-.14.35-.24.1-.1.17-.22.22-.36.05-.14.08-.29.08-.44,0-.24-.06-.43-.18-.57s-.28-.26-.46-.35c-.18-.09-.38-.18-.59-.26-.21-.08-.41-.18-.59-.29-.18-.12-.34-.27-.46-.45-.12-.18-.18-.43-.18-.74,0-.22.04-.42.12-.6.08-.18.19-.34.34-.47s.33-.23.54-.31c.21-.07.44-.11.71-.11s.47.03.65.09c.18.06.35.15.51.28-.05.09-.09.18-.12.28-.03.1-.06.23-.09.38h-.09c-.03-.07-.06-.15-.11-.24-.04-.09-.11-.17-.18-.24-.08-.07-.17-.13-.27-.18s-.23-.07-.38-.07-.28.02-.4.07-.23.11-.32.2-.16.19-.21.31c-.05.12-.07.25-.07.39,0,.25.06.44.18.58s.28.26.46.36c.18.1.38.18.59.26s.41.17.59.28c.18.11.34.25.46.42s.18.4.18.69c0,.24-.04.47-.13.68-.09.21-.21.4-.38.56-.17.16-.37.28-.6.37-.24.09-.51.13-.81.13-.33,0-.59-.04-.79-.13-.2-.09-.37-.18-.51-.29.05-.12.08-.23.1-.33.02-.1.04-.22.05-.37h.09c.04.09.1.19.17.29Z"/><line class="cls-1" x1="15.38" y1="86.38" x2="127.72" y2="86.38"/></g></svg>