<svg xmlns="http://www.w3.org/2000/svg" width="471.069" height="182.063" viewBox="0 0 471.069 182.063">
  <g id="download-2" transform="translate(0 0)">
    <rect id="長方形_1" data-name="長方形 1" width="471.069" height="182.063" fill="none"/>
    <g id="グループ_33" data-name="グループ 33">
      <g id="グループ_11" data-name="グループ 11">
        <path id="パス_1" data-name="パス 1" d="M83.582,262.8c0-.13-.065-.2-.13-.2s-.13.065-.2.13a9.9,9.9,0,0,1-1.7,2.282c-.13.13-.2.13-.261.065v-.065a.239.239,0,0,1,.065-.2,9.146,9.146,0,0,0,1.174-2.087,15.656,15.656,0,0,0,.783-2.478v-.065c0-.065,0-.13-.065-.13s-.13-.065-.2-.065h-.326a4.4,4.4,0,0,0-.913.13h-.065c-.13,0-.2-.065-.261-.2l-.065-.065c0-.065-.065-.065-.065-.13s0-.065.065-.13a.24.24,0,0,1,.2-.065c.261,0,.652.065,1.174.065h.456a.231.231,0,0,0,.261-.261v-.2a18.779,18.779,0,0,0-.13-2.087V257a.173.173,0,0,1,.2-.2h.065c.391.13.652.2.783.261s.2.13.2.2-.065.065-.13.13l-.065.065a.26.26,0,0,0-.13.261v1.63a.231.231,0,0,0,.261.261h.13a.674.674,0,0,0,.326-.13l.13-.2c0-.065.065-.065.13-.2.065-.065.065-.13.13-.13a.064.064,0,0,1,.065-.065c.065,0,.2.065.391.261a2.942,2.942,0,0,1,.456.456.228.228,0,0,1,.065.13c0,.065,0,.13-.065.13a.24.24,0,0,1-.2.065H84.56a.231.231,0,0,0-.261.261v.652a.359.359,0,0,0,.2.326,4.063,4.063,0,0,1,1.239.783,1.4,1.4,0,0,1,.391.848.551.551,0,0,1-.13.391c-.065.13-.2.13-.326.13a.493.493,0,0,1-.261-.065.9.9,0,0,1-.2-.261,6.322,6.322,0,0,0-.652-1.369c-.065-.065-.13-.13-.2-.13s-.065,0-.13.065c0,.065-.065.065-.065.2v2.739c0,.848.065,1.7.065,2.608v.065a.24.24,0,0,1-.065.2,1.426,1.426,0,0,1-.326.2.827.827,0,0,1-.391.065.231.231,0,0,1-.261-.261c0-.456.065-.913.065-1.369s.065-.978.065-1.7v-1.5Zm3.586-3.391a18.781,18.781,0,0,0-.13-2.087v-.065a.173.173,0,0,1,.2-.2H87.3c.391.13.652.2.848.261.13.065.261.13.261.2s0,.065-.065.13h-.065c-.13.065-.13.2-.13.326v8.086a.5.5,0,0,0,.13.326c.065.065.2.065.391.065h.978a3.753,3.753,0,0,0,.978-.065c.065,0,.13,0,.13-.065s.065-.065.13-.13a13.74,13.74,0,0,0,.391-1.7c0-.13.065-.2.13-.2s.065.065.065.261l.065,1.565c0,.13.065.2.2.326.065.065.13.065.13.13s.065.13.065.2a.359.359,0,0,1-.2.326,2.641,2.641,0,0,1-.652.2c-.326,0-.783.065-1.435.065H88.538a1.548,1.548,0,0,1-.978-.2c-.2-.13-.261-.391-.261-.848V259.4Z" transform="translate(-28.285 -89.344)" fill="#0b3852"/>
        <path id="パス_2" data-name="パス 2" d="M104.865,258.656l.065-.13a.228.228,0,0,0,.065-.13c.065-.065.065-.065.065-.13l.065-.065a.6.6,0,0,1,.326.2,2.836,2.836,0,0,1,.456.391.2.2,0,0,1,.065.13.14.14,0,0,1-.13.13l-.13.065c-.13.065-.2.13-.2.261v4.434a2.013,2.013,0,0,1-.13.717.645.645,0,0,1-.456.326h-.065c-.13,0-.2-.065-.2-.261l-.065-.2c-.065-.13-.065-.2-.13-.261-.065,0-.13-.065-.261-.13a.064.064,0,0,1-.065-.065c0-.065.065-.065.2-.065h.326c.065,0,.065,0,.13-.065v-4.63a.231.231,0,0,0-.261-.261h-.2a.231.231,0,0,0-.261.261v5.086c0,.848.065,1.7.065,2.608v.065a.339.339,0,0,1-.13.261,1.052,1.052,0,0,1-.587.2c-.065,0-.13,0-.13-.065a.228.228,0,0,0-.065-.13c0-.456.065-.913.065-1.369s.065-.978.065-1.7v-4.891a.231.231,0,0,0-.261-.261h-.13a.231.231,0,0,0-.261.261v2.8c0,.848.065,1.7.065,2.608v.065a.339.339,0,0,1-.13.261,1.052,1.052,0,0,1-.587.2.231.231,0,0,1-.261-.261c0-.391.065-.848.065-1.239s.065-.913.065-1.565v-1.3a19.869,19.869,0,0,0-.13-2.087v-.065c0-.13.065-.2.13-.2h.13l.522.2a.588.588,0,0,0,.326.065h.065c.2,0,.261-.065.261-.261,0-.652-.065-1.109-.065-1.5V256.9a.173.173,0,0,1,.2-.2h.065c.652.2.913.326.913.391s0,.065-.065.13h-.065a.359.359,0,0,0-.2.326v.913a.231.231,0,0,0,.261.261h.065C104.669,258.852,104.8,258.787,104.865,258.656Zm6,4.7.13-.2c0-.065.065-.13.13-.2s.065-.13.13-.13a.064.064,0,0,0,.065-.065c.065,0,.2.065.391.261a2.943,2.943,0,0,1,.456.456c0,.065.065.065.065.13s0,.13-.065.13-.13.065-.2.065h-1.7a.231.231,0,0,0-.261.261v2.348c0,.065,0,.13.065.13a.657.657,0,0,0,.2.065h1.043c.065,0,.065,0,.065-.065a.228.228,0,0,0,.065-.13,2.826,2.826,0,0,0,.065-.326c0-.13.065-.326.065-.391l.13-.456c0-.13.065-.2.13-.2l.065.065v1.174c0,.065,0,.13.065.13,0,.065.065.065.13.13a.339.339,0,0,1,.13.261.413.413,0,0,1-.326.391,4.072,4.072,0,0,1-1.174.13h-.717a1.049,1.049,0,0,1-.717-.2.8.8,0,0,1-.2-.587v-2.478a.231.231,0,0,0-.261-.261h-.391a.239.239,0,0,0-.261.261,4.569,4.569,0,0,1-.913,2.217,4.99,4.99,0,0,1-2.087,1.3c-.065,0-.13.065-.2.065s-.065,0-.065-.065v-.065q0-.1.2-.2a3.752,3.752,0,0,0,1.5-1.3,4.325,4.325,0,0,0,.587-1.956V264c0-.13-.065-.2-.261-.2h-.261c-.2,0-.391.065-.652.065h-.13c-.065,0-.2-.065-.2-.13l-.065-.065c0-.065-.065-.065-.065-.13s0-.065.065-.13c.065,0,.065-.065.2,0,.261,0,.652.065,1.239.065h.848a.24.24,0,0,0,.2-.065c.065-.065.065-.065.065-.2a18.777,18.777,0,0,0-.13-2.087v-.065a.173.173,0,0,1,.2-.2h.13c.326.13.587.2.717.261s.2.13.2.2a.2.2,0,0,1-.065.13h0a.359.359,0,0,0-.2.326v1.435a.231.231,0,0,0,.261.261h1.239a.5.5,0,0,0,.33-.12Zm-4.7-2.021h0c.13,0,.2,0,.261.065a2.061,2.061,0,0,1,.913.652,1.189,1.189,0,0,1,.326.717.927.927,0,0,1-.13.391.5.5,0,0,1-.326.13.24.24,0,0,1-.2-.065.9.9,0,0,1-.2-.261,3.682,3.682,0,0,0-.587-1.3.873.873,0,0,1-.053-.334Zm4.369-4.108.065-.13a.228.228,0,0,0,.065-.13c0-.065.065-.065.13-.13l.065-.065a.6.6,0,0,1,.326.2,1.107,1.107,0,0,1,.391.391c.065.065.065.065.065.13a.14.14,0,0,1-.13.13l-.065.065c-.13.065-.2.13-.2.261v.783c0,.783.065,1.369.065,1.761v.065a.339.339,0,0,1-.13.261,1.1,1.1,0,0,1-.652.2c-.065,0-.065,0-.13-.065,0-.065-.065-.065-.065-.13,0-.13-.065-.2-.261-.2H107.2a.231.231,0,0,0-.261.261v.065c0,.065-.065.13-.2.13s-.326.065-.456.065c-.065,0-.13,0-.13-.065a.24.24,0,0,1-.065-.2c0-.326.065-.717.065-1.174v-.717a15.339,15.339,0,0,0-.065-1.826V257.1c0-.13.065-.2.13-.2h.13l.652.261a.489.489,0,0,0,.326.065h2.8a.285.285,0,0,0,.408,0Zm-.13,1.5a.24.24,0,0,0,.065-.2v-.587a.231.231,0,0,0-.261-.261h-2.869a.231.231,0,0,0-.261.261v.587a.231.231,0,0,0,.261.261h2.869a.24.24,0,0,0,.2-.067Zm-3.2.456a.24.24,0,0,0-.065.2v.652a.231.231,0,0,0,.261.261h2.869a.231.231,0,0,0,.261-.261v-.652a.231.231,0,0,0-.261-.261H107.4a.286.286,0,0,0-.188.056Zm3.26,2.021c.065,0,.065,0,.13.065l.326.2c.065.065.2.065.261.13q.391.1.391.2c0,.065-.065.065-.13.13h-.065a.9.9,0,0,0-.261.2,6.093,6.093,0,0,1-1.174,1.043c-.13.065-.2.13-.261.065v-.065a.24.24,0,0,1,.065-.2,8.048,8.048,0,0,0,.522-1.5c.009-.207.074-.272.2-.272Z" transform="translate(-35.417 -89.309)" fill="#0b3852"/>
        <path id="パス_3" data-name="パス 3" d="M123.152,264.047a.064.064,0,0,1,.065.065c0,.065.065.065.065.2a7.186,7.186,0,0,1,.13,1.174,1.833,1.833,0,0,1-.2.978c-.13.2-.261.326-.456.326a.24.24,0,0,1-.2-.065c-.065-.065-.065-.13-.065-.261a.5.5,0,0,1,.13-.326,1.834,1.834,0,0,0,.326-.717,5.069,5.069,0,0,0,.13-1.043C123.087,264.112,123.152,264.047,123.152,264.047Zm3.26-3.13.13-.13.13-.13c.065-.065.065-.13.13-.13l.065-.065a.6.6,0,0,1,.326.2,1.107,1.107,0,0,1,.391.391.2.2,0,0,1,.065.13c0,.065,0,.065-.065.13a.24.24,0,0,1-.2.065h-1.369a.231.231,0,0,0-.261.261v.783a.231.231,0,0,0,.261.261h.391a.5.5,0,0,0,.326-.13l.065-.065.13-.13.13-.13a.6.6,0,0,1,.326.2,1.107,1.107,0,0,1,.391.391c0,.065.065.065.065.13a.14.14,0,0,1-.13.13l-.065.065c-.13,0-.2.13-.261.261a15.349,15.349,0,0,1-.326,2.478,1.971,1.971,0,0,1-.587,1.174,1.431,1.431,0,0,1-.783.326h-.065c-.065,0-.13,0-.13-.065a.24.24,0,0,1-.065-.2.674.674,0,0,0-.13-.326,1.4,1.4,0,0,0-.456-.261c-.13,0-.2-.065-.2-.13s.065-.065.261-.065c.391,0,.652.065.783.065h.2l.13-.065a1.777,1.777,0,0,0,.326-.913c.065-.456.2-1.239.261-2.087h0c0-.2-.065-.261-.261-.261H124.2a.231.231,0,0,0-.261.261v.13c0,.065-.065.065-.2.2a.942.942,0,0,1-.456.13.231.231,0,0,1-.261-.261c.065-.717.065-1.5.13-2.348v-1.3a19.876,19.876,0,0,0-.13-2.087v-.065c0-.13.065-.2.13-.2h.13l.587.261a.489.489,0,0,0,.326.065h1.956a.674.674,0,0,0,.326-.13l.13-.2.13-.13c.065-.065.065-.13.13-.13l.065-.065c.065,0,.2.065.391.261l.456.456c0,.065.065.065.065.13s0,.13-.065.13-.13.065-.2.065h-1.63a.231.231,0,0,0-.261.261v.783a.231.231,0,0,0,.261.261h.261a.674.674,0,0,0,.326-.13l.065-.13a.228.228,0,0,0,.065-.13.14.14,0,0,1,.13-.13l.065-.065a1.168,1.168,0,0,1,.456.326c.2.2.326.326.326.456s-.13.2-.261.2h-1.435a.231.231,0,0,0-.261.261v.783a.231.231,0,0,0,.261.261h.2a1.786,1.786,0,0,1,.266-.338Zm-2.608,3.13c0-.065,0-.13.065-.13h0c.065,0,.13.065.2.13a2.4,2.4,0,0,1,.522,1.369,1.228,1.228,0,0,1-.13.522.349.349,0,0,1-.261.2c-.065,0-.065,0-.13-.065a.383.383,0,0,1-.13-.326c0-.2.065-.326.065-.522a9.164,9.164,0,0,0-.13-1.174c-.075.126-.075.061-.075,0Zm1.109-4.7a.24.24,0,0,0,.065-.2v-.783a.231.231,0,0,0-.261-.261H124.2a.231.231,0,0,0-.261.261v.783a.231.231,0,0,0,.261.261h.522a.24.24,0,0,0,.191-.056Zm-.913,1.63a.239.239,0,0,0,.2.065h.522a.231.231,0,0,0,.261-.261V260a.231.231,0,0,0-.261-.261H124.2a.231.231,0,0,0-.261.261v.783c0,.069.061.134.061.2Zm.913.456a.24.24,0,0,0-.2-.065H124.2a.231.231,0,0,0-.261.261v.783a.231.231,0,0,0,.261.261h.522a.231.231,0,0,0,.261-.261v-.783c-.005-.06-.07-.129-.07-.19Zm-.391,2.348h0a.24.24,0,0,1,.2.065,2.843,2.843,0,0,1,.587.717,1.458,1.458,0,0,1,.2.652.489.489,0,0,1-.065.326.339.339,0,0,1-.261.13h-.13c-.065,0-.13-.13-.13-.261a4.43,4.43,0,0,0-.391-1.369c-.076-.19-.076-.255-.011-.255Zm.652-.261c0-.065,0-.065.065-.065a.24.24,0,0,1,.2.065,1.517,1.517,0,0,1,.717.456.867.867,0,0,1,.2.522c0,.13,0,.2-.065.261s-.13.13-.2.13h-.065c-.065,0-.065-.065-.13-.065,0-.065-.065-.065-.065-.13a3.268,3.268,0,0,0-.522-.913c-.07-.125-.135-.191-.135-.256Zm6.456-5.8.065-.13.13-.13c.065-.065.065-.13.13-.13l.065-.065c.065,0,.2.065.391.261a2.944,2.944,0,0,1,.456.456c0,.065.065.065.065.13s0,.13-.065.13-.065.065-.13.065c-.13.065-.2.13-.2.261v1.109c0,.848.065,1.63.065,2.413v.065a.339.339,0,0,1-.13.261.5.5,0,0,1-.326.13.709.709,0,0,1-.326.065c-.065,0-.13,0-.13-.065s-.065-.065-.065-.13v-.261a.231.231,0,0,0-.261-.261h-1.1a.231.231,0,0,0-.261.261,10.456,10.456,0,0,0,1.109,2.739,5.655,5.655,0,0,0,1.761,1.761.806.806,0,0,1,.2.13.064.064,0,0,1-.065.065c-.065,0-.065.065-.13.065a1.208,1.208,0,0,0-.456.522q-.1.2-.2.2a.2.2,0,0,1-.13-.065,4.754,4.754,0,0,1-1.5-2.152,13.127,13.127,0,0,1-.848-3.26.28.28,0,0,0-.261-.261h-.13c-.2,0-.261.065-.261.261a14.414,14.414,0,0,1-.456,3.065,5.57,5.57,0,0,1-1.5,2.413c-.065.065-.13.13-.2.13s-.065,0-.065-.065a.322.322,0,0,1,.065-.2,6.384,6.384,0,0,0,1.043-2.674,25.645,25.645,0,0,0,.261-3.391v-1.956a13.122,13.122,0,0,0-.065-1.7v-.065c0-.13.065-.2.13-.2h.13l.652.261a.392.392,0,0,0,.261.065h1.826a.624.624,0,0,0,.459-.121Zm-2.413.522a.24.24,0,0,0-.065.2v2.869a.231.231,0,0,0,.261.261h1.956a.231.231,0,0,0,.261-.261v-2.869a.231.231,0,0,0-.261-.261h-1.956c-.066,0-.131.062-.2.062Z" transform="translate(-42.619 -89.483)" fill="#0b3852"/>
        <path id="パス_4" data-name="パス 4" d="M151.768,258.887l.2-.261c.065-.065.065-.13.13-.2s.065-.13.13-.2.065-.065.13-.065.2.13.456.326a1.917,1.917,0,0,1,.522.522c.065.065.065.065.065.13s0,.065-.065.13a.24.24,0,0,1-.2.065H144.92a13.8,13.8,0,0,0-1.565.13h-.065a.339.339,0,0,1-.261-.13l-.065-.065a.228.228,0,0,0-.065-.13c0-.065,0-.065.065-.13s.065-.065.2,0c.261,0,.652.065,1.239.065h2.021c-.065,0-.065-.065-.13-.065,0-.065-.065-.065-.065-.2a3.18,3.18,0,0,0-.391-.848l-.587-.783a.807.807,0,0,0-.13-.2.064.064,0,0,1,.065-.065h.2a2.739,2.739,0,0,1,1.3.717,1.4,1.4,0,0,1,.391.848.927.927,0,0,1-.13.391.2.2,0,0,0-.065.13.228.228,0,0,0,.13.065h1.565c.13,0,.2,0,.261-.065a5.05,5.05,0,0,0,.456-1.043c.13-.391.261-.717.326-.978a.173.173,0,0,1,.2-.2h.13c.717.2,1.109.391,1.109.456a.228.228,0,0,1-.13.065h-.065a.9.9,0,0,0-.261.2,9.96,9.96,0,0,1-1.174,1.174c-.065.065-.13.13-.13.2s0,.065.065.065.065.065.13.065h1.761C151.573,259.017,151.7,259.017,151.768,258.887Zm-6.912,5.738a.24.24,0,0,0-.065.2v.652c0,.717.065,1.239.065,1.565v.065a.239.239,0,0,1-.065.2,1.423,1.423,0,0,1-.326.2.827.827,0,0,1-.391.065.231.231,0,0,1-.261-.261c0-.456.065-.913.065-1.369s.065-.978.065-1.7v-1.826a19.875,19.875,0,0,0-.13-2.087v-.065c0-.13.065-.2.13-.2h.13l.587.261a.392.392,0,0,0,.261.065h1.435a.674.674,0,0,0,.326-.13l.065-.13.13-.13.13-.13c.065,0,.2.065.391.261a3.618,3.618,0,0,1,.522.391c0,.065.065.065.065.13a.14.14,0,0,1-.13.13c-.065,0-.065.065-.13.065-.13.065-.2.13-.2.261v5.151a1.391,1.391,0,0,1-.2.783c-.13.2-.326.261-.717.326h-.065c-.13,0-.2-.065-.261-.2a.927.927,0,0,0-.13-.391.982.982,0,0,0-.522-.261c-.13-.065-.2-.065-.2-.13s.065-.065.261-.065c.326,0,.587.065.717.065.065,0,.13,0,.13-.065s.065-.065.065-.2V264.56a.231.231,0,0,0-.261-.261h-1.5C144.987,264.56,144.921,264.56,144.856,264.625Zm1.891-2.348a.239.239,0,0,0,.065-.2v-.913a.231.231,0,0,0-.261-.261h-1.5a.231.231,0,0,0-.261.261v.913a.231.231,0,0,0,.261.261h1.5a.24.24,0,0,0,.2-.06Zm-1.891.456a.24.24,0,0,0-.065.2v1.043a.231.231,0,0,0,.261.261h1.5a.231.231,0,0,0,.261-.261V262.93a.231.231,0,0,0-.261-.261h-1.5c-.065,0-.131.065-.2.065Zm4.239,0a18.781,18.781,0,0,0-.13-2.087v-.065a.173.173,0,0,1,.2-.2h.13q.978.293.978.391l-.13.13h-.065a.359.359,0,0,0-.2.326V262.6c0,.848.065,1.7.065,2.608v.065a.339.339,0,0,1-.13.261.5.5,0,0,1-.326.13.709.709,0,0,1-.326.065.231.231,0,0,1-.261-.261,10.61,10.61,0,0,0,.065-1.565v-1.174Zm2.413-.261a18.777,18.777,0,0,0-.13-2.087v-.065a.173.173,0,0,1,.2-.2h.065q.978.293.978.391l-.13.13h-.065a.3.3,0,0,0-.2.326v5.412a1.447,1.447,0,0,1-.065.587.869.869,0,0,1-.326.391,1.049,1.049,0,0,1-.717.2h-.065c-.13,0-.2-.065-.261-.2a1.062,1.062,0,0,0-.2-.391,1.534,1.534,0,0,0-.783-.261c-.13-.065-.261-.065-.261-.13s.065-.065.2-.065a4.45,4.45,0,0,1,.783.065h.456a.24.24,0,0,0,.2-.065c.065-.065.065-.065.065-.2v-3.847Z" transform="translate(-49.716 -89.343)" fill="#0b3852"/>
        <path id="パス_5" data-name="パス 5" d="M170.551,259.608l.065-.13.13-.13c.065-.065.065-.13.13-.13a.064.064,0,0,0,.065-.065c.065,0,.2.065.456.261a4.253,4.253,0,0,1,.522.456.2.2,0,0,1,.065.13c0,.065,0,.13-.065.13a.24.24,0,0,1-.2.065c-.13.065-.2.13-.2.261v3.456a.064.064,0,0,0,.065.065q.1,0,.2-.2l.13-.2c0-.065.065-.13.13-.2s.065-.13.13-.13a.064.064,0,0,0,.065-.065c.065,0,.2.065.391.261l.456.456a.228.228,0,0,1,.065.13c0,.065,0,.065-.065.13a.24.24,0,0,1-.2.065h-1.1a.231.231,0,0,0-.261.261v1.761a1.447,1.447,0,0,1-.065.587,1.729,1.729,0,0,1-.326.391,1.815,1.815,0,0,1-.783.261h-.065c-.13,0-.2-.065-.261-.2-.065-.2-.13-.391-.261-.456a2.067,2.067,0,0,0-.913-.326c-.13,0-.261-.065-.261-.13s.065-.065.2-.065a5.323,5.323,0,0,1,.913.065,3.513,3.513,0,0,1,.522.065c.13,0,.2,0,.261-.065a.24.24,0,0,0,.065-.2v-1.63a.231.231,0,0,0-.261-.261H165.2a.231.231,0,0,0-.261.261v.783c0,.783.065,1.369.065,1.761v.065a.392.392,0,0,1-.065.261.981.981,0,0,1-.717.261.231.231,0,0,1-.261-.261c.065-.652.065-1.3.065-1.956v-.848a.231.231,0,0,0-.261-.261H163.5c-.2,0-.391.065-.652.065h-.13c-.065,0-.2-.065-.2-.13l-.065-.065c0-.065-.065-.065-.065-.13,0-.13.065-.13.2-.13a3.741,3.741,0,0,1,.783.065h.261a.231.231,0,0,0,.261-.261V261.63a19.879,19.879,0,0,0-.13-2.087v-.065c0-.13.065-.2.13-.2h.13l.717.326a.392.392,0,0,0,.261.065h1.761a.231.231,0,0,0,.261-.261v-1.043a.231.231,0,0,0-.261-.261h-2.152a13.8,13.8,0,0,0-1.565.13h-.065a.339.339,0,0,1-.261-.13l-.065-.065c0-.065-.065-.065-.065-.13s0-.065.065-.13.065-.065.2,0c.261,0,.652.065,1.239.065h6.521a.339.339,0,0,0,.261-.13l.2-.261c.065-.065.065-.13.13-.2s.065-.13.13-.2.065-.065.13-.065.2.13.456.326a5.335,5.335,0,0,1,.587.522c.065.065.065.065.065.13s0,.065-.065.13-.13.065-.261.065H168.2a.231.231,0,0,0-.261.261v1.043a.231.231,0,0,0,.261.261h1.826C170.355,259.739,170.486,259.739,170.551,259.608Zm-3.326,2.217a.24.24,0,0,0,.065-.2v-1.3a.231.231,0,0,0-.261-.261h-1.761a.231.231,0,0,0-.261.261v1.3a.231.231,0,0,0,.261.261h1.761a.24.24,0,0,0,.2-.061Zm0,.456a.24.24,0,0,0-.2-.065h-1.761a.231.231,0,0,0-.261.261v1.369a.231.231,0,0,0,.261.261h1.761a.231.231,0,0,0,.261-.261v-1.369c.005-.065-.061-.13-.061-.195Zm3.26-.456a.24.24,0,0,0,.065-.2v-1.3a.231.231,0,0,0-.261-.261H168.4a.231.231,0,0,0-.261.261v1.3a.231.231,0,0,0,.261.261h1.891c.13.005.195.005.195-.061Zm-2.217.456a.24.24,0,0,0-.065.2v1.369a.231.231,0,0,0,.261.261h1.891a.231.231,0,0,0,.261-.261v-1.369a.231.231,0,0,0-.261-.261h-1.891c-.064,0-.13.062-.195.062Z" transform="translate(-56.501 -89.413)" fill="#0b3852"/>
        <path id="パス_6" data-name="パス 6" d="M186.73,257.522l.065-.13a.228.228,0,0,0,.065-.13l.13-.13.065-.065c.065,0,.2.065.391.261a2.838,2.838,0,0,1,.456.391c0,.065.065.065.065.13s-.065.13-.13.2h-.065c-.13.065-.2.13-.2.261v.783c0,.783.065,1.3.065,1.761v.065a.339.339,0,0,1-.13.261,1.425,1.425,0,0,1-.326.2.709.709,0,0,1-.326.065c-.065,0-.13-.065-.13-.261v-.065a.231.231,0,0,0-.261-.261h-1.63a.231.231,0,0,0-.261.261V264.5c0,.848.065,1.7.065,2.608v.065a.239.239,0,0,1-.065.2,1.422,1.422,0,0,1-.326.2.827.827,0,0,1-.391.065.231.231,0,0,1-.261-.261c0-.456.065-.913.065-1.369s.065-.978.065-1.7v-4.7a19.871,19.871,0,0,0-.13-2.087v-.065c0-.13.065-.2.13-.2s.065,0,.13.065l.652.326a.588.588,0,0,0,.326.065h1.63A.349.349,0,0,0,186.73,257.522Zm-.065,1.5a.24.24,0,0,0,.065-.2V258.3a.231.231,0,0,0-.261-.261h-1.63a.231.231,0,0,0-.261.261v.587a.231.231,0,0,0,.261.261h1.63c.065-.061.131-.061.2-.127Zm-2.021.456a.24.24,0,0,0-.065.2v.587a.231.231,0,0,0,.261.261h1.63a.231.231,0,0,0,.261-.261v-.587a.231.231,0,0,0-.261-.261h-1.63c-.131,0-.131.061-.2.061Zm5.478,4.434.13-.2c0-.065.065-.065.13-.13s.065-.13.13-.13c.065-.065.065-.065.13-.065s.2.065.391.261a2.08,2.08,0,0,1,.391.456.2.2,0,0,1,.065.13c0,.065,0,.065-.065.13a.239.239,0,0,1-.2.065h-1.109a.231.231,0,0,0-.261.261v.587c0,.652.065,1.109.065,1.435v.065a.339.339,0,0,1-.13.261,1.052,1.052,0,0,1-.587.2c-.065,0-.13,0-.13-.065a.24.24,0,0,1-.065-.2,11.59,11.59,0,0,0,.065-1.63v-.652a.231.231,0,0,0-.261-.261h-1.043c-.13,0-.261.065-.261.2a3.058,3.058,0,0,1-.587,1.435,3.186,3.186,0,0,1-1.3,1.109.493.493,0,0,1-.261.065v-.065c0-.065.065-.13.13-.2a3.776,3.776,0,0,0,1.239-2.282v-.065a.173.173,0,0,0-.2-.2h-.261c-.2,0-.391.065-.587.065h-.065a.494.494,0,0,1-.261-.13l-.065-.065c0-.065-.065-.065-.065-.13s0-.065.065-.13.065-.065.2,0a4.07,4.07,0,0,1,.783.065h.261a.239.239,0,0,0,.2-.065c.065-.065.065-.065.065-.13v-1.174a.231.231,0,0,0-.261-.261h-.2c-.2,0-.326.065-.456.065h-.13c-.065,0-.2-.065-.2-.13l-.065-.065c0-.065-.065-.065-.065-.13s0-.065.065-.13.065-.065.2,0c.261,0,.652.065,1.239.065h2.608a.674.674,0,0,0,.326-.13l.13-.2c0-.065.065-.065.13-.13s.065-.13.13-.13c.065-.065.065-.065.13-.065s.2.065.391.261l.456.456a.228.228,0,0,1,.065.13c0,.065,0,.065-.065.13a.24.24,0,0,1-.2.065h-.913a.231.231,0,0,0-.261.261v1.174c0,.2.065.261.13.261s.074-.187.139-.318Zm-2.478-1.435a.24.24,0,0,0-.065.2v1.174c0,.2.065.261.261.261h.848a.231.231,0,0,0,.261-.261v-1.174a.231.231,0,0,0-.261-.261h-.848a.24.24,0,0,0-.2.062Zm2.087-1.435c0,.065-.065.13-.261.2a1.535,1.535,0,0,1-.522.13c-.065,0-.13,0-.13-.065a.24.24,0,0,1-.065-.2c0-.326.065-.652.065-1.109v-.652a14.756,14.756,0,0,0-.065-1.761v-.065c0-.13.065-.2.13-.2h.13l.587.261a.588.588,0,0,0,.326.065h1.7c.13,0,.2-.065.261-.2l.065-.13a.228.228,0,0,0,.065-.13l.13-.13.065-.065c.065,0,.2.065.391.261s.391.326.522.456c0,.065.065.065.065.13a.14.14,0,0,1-.13.13.2.2,0,0,0-.13.065c-.13.065-.2.13-.2.261v8.086a1.133,1.133,0,0,1-.2.783,1.115,1.115,0,0,1-.783.391h-.065c-.13,0-.2-.065-.261-.2-.065-.2-.065-.326-.2-.391a1.311,1.311,0,0,0-.522-.261c-.13,0-.2-.065-.2-.13s.065-.065.2-.065h.913a.239.239,0,0,0,.2-.065c.065-.065.065-.065.065-.2v-5.217a.231.231,0,0,0-.261-.261H189.86c-.065.149-.13.214-.13.279Zm2.152-2.021a.24.24,0,0,0,.065-.2V258.3a.231.231,0,0,0-.261-.261h-1.761a.231.231,0,0,0-.261.261v.587a.231.231,0,0,0,.261.261h1.761c.129-.061.2-.061.2-.127Zm-2.087.456a.24.24,0,0,0-.065.2v.587a.231.231,0,0,0,.261.261h1.761a.231.231,0,0,0,.261-.261v-.587a.231.231,0,0,0-.261-.261H189.99c-.065,0-.13.062-.2.062Z" transform="translate(-63.876 -89.413)" fill="#0b3852"/>
        <path id="パス_7" data-name="パス 7" d="M211.516,263.451l.2-.261a.808.808,0,0,0,.13-.2c.065-.13.13-.13.13-.2.065-.065.065-.065.13-.065s.2.13.456.326a3.866,3.866,0,0,1,.522.522.2.2,0,0,1,.065.13c0,.065,0,.065-.065.13a.24.24,0,0,1-.2.065h-2.413a.231.231,0,0,0-.261.261v2.021c0,.13,0,.2.065.2a.489.489,0,0,0,.326.065h1.761a.339.339,0,0,0,.261-.13,5.8,5.8,0,0,0,.326-1.174c0-.13.065-.2.13-.2s.065.065.065.261v.978c0,.13.065.2.2.326a.37.37,0,0,1,0,.652,3.03,3.03,0,0,1-.587.2,7.132,7.132,0,0,1-1.3.065h-1.174a2.23,2.23,0,0,1-.717-.065.651.651,0,0,1-.326-.261,1.271,1.271,0,0,1-.065-.522V264.3a.231.231,0,0,0-.261-.261H207.74c-.13,0-.261.065-.261.2a3.981,3.981,0,0,1-.978,1.956,6.088,6.088,0,0,1-2.608,1.435c-.065,0-.13.065-.2.065s-.065,0-.13-.065h0q0-.1.2-.2A5.861,5.861,0,0,0,205.719,266a3.789,3.789,0,0,0,.848-1.7v-.065c0-.13-.065-.2-.261-.2h-.652a12.733,12.733,0,0,0-1.5.13h-.065a.339.339,0,0,1-.261-.13l-.065-.065c0-.065-.065-.065-.065-.13s0-.065.065-.13c.065,0,.065-.065.2,0,.261,0,.652.065,1.239.065h1.174c.2,0,.261-.065.261-.2v-1.5a.231.231,0,0,0-.261-.261h-.652a.339.339,0,0,1-.261-.13.064.064,0,0,0-.065-.065.24.24,0,0,0-.2.065,9.546,9.546,0,0,1-1.63.848c-.065,0-.13.065-.2.065s-.065,0-.065-.065v-.065q0-.1.2-.2a8.808,8.808,0,0,0,2.087-1.7,8.075,8.075,0,0,0,1.435-2.217v-.13c0-.065,0-.13-.065-.13s-.065-.065-.2-.065h-.522a9.73,9.73,0,0,0-1.369.13H204.8a.339.339,0,0,1-.261-.13l-.065-.065c0-.065-.065-.065-.065-.13s0-.065.065-.13c.065,0,.065-.065.2,0,.261,0,.652.065,1.239.065h1.043a.674.674,0,0,0,.326-.13l.13-.13a.806.806,0,0,0,.13-.2c.065-.065.13-.13.2-.13s.2.065.391.261l.456.456a.228.228,0,0,0,.065.13.14.14,0,0,1-.13.13h-.13c-.13,0-.2.065-.261.2a8.714,8.714,0,0,1-2.152,2.739c-.065.065-.13.13-.13.2s0,.065.065.065.065.065.13.065h3.717c.13,0,.2-.065.261-.2l.13-.2c0-.065.065-.13.13-.2s.065-.13.13-.13a.064.064,0,0,0,.065-.065c.065,0,.13.065.326.2l.391.391a1.126,1.126,0,0,1,.2.261c0,.13-.13.2-.261.2h-.783a.231.231,0,0,0-.261.261v1.5a.231.231,0,0,0,.261.261h.848C211.321,263.582,211.386,263.582,211.516,263.451Zm-7.434-4.76c0-.065-.065-.065,0-.065h.2a2.458,2.458,0,0,1,1.174.522.9.9,0,0,1,.391.717.927.927,0,0,1-.13.391c-.065.13-.2.13-.326.13a.24.24,0,0,1-.2-.065c-.13-.065-.2-.13-.2-.261a6.031,6.031,0,0,0-.326-.652c-.13-.2-.326-.391-.456-.587-.061-.065-.061-.13-.127-.13Zm3.521,3a.239.239,0,0,0-.065.2v1.5c0,.2.065.261.261.261h1.109a.231.231,0,0,0,.261-.261v-1.5a.231.231,0,0,0-.261-.261H207.8a.24.24,0,0,0-.2.061Zm3.913-1.7c0,.065.065.13.13.2a9.144,9.144,0,0,0,1.956.978.806.806,0,0,1,.2.13l-.065.065a.228.228,0,0,1-.13.065,1.01,1.01,0,0,0-.522.522c-.065.13-.13.13-.2.13s-.065,0-.13-.065A7.276,7.276,0,0,1,210.343,260a8.925,8.925,0,0,1-1.5-2.934v-.13c0-.065,0-.13.065-.13h0q.1,0,.2.2a4.691,4.691,0,0,0,.783,1.369c.065.065.13.13.2.13a.24.24,0,0,0,.2-.065,6.856,6.856,0,0,0,.913-1.3c.065-.065.13-.13.2-.13a.24.24,0,0,1,.2.065c.522.326.783.587.783.652a.228.228,0,0,1-.13.065h-.065a.339.339,0,0,0-.261.13c-.522.326-.978.652-1.369.848-.065.065-.13.13-.13.2a.24.24,0,0,0,.065.2l.587.587a.326.326,0,0,0,.391,0,6.1,6.1,0,0,0,1.043-1.3c.065-.065.13-.13.2-.13a.239.239,0,0,1,.2.065c.522.391.783.587.783.717a.228.228,0,0,1-.13.065h-.065c-.13,0-.2.065-.261.065a9.463,9.463,0,0,1-1.435.783c-.294-.157-.294-.092-.294-.022Z" transform="translate(-70.73 -89.344)" fill="#0b3852"/>
        <path id="パス_8" data-name="パス 8" d="M232.329,265.008a2.644,2.644,0,0,1,.587.326.472.472,0,0,1,.261.391.339.339,0,0,1-.13.261.489.489,0,0,1-.326.065.588.588,0,0,1-.326-.065,10.711,10.711,0,0,0-2.608-.261,14.179,14.179,0,0,0-1.63.065,17.051,17.051,0,0,0-2.739.456.674.674,0,0,0-.326.13,2.015,2.015,0,0,1-.522.13,1.458,1.458,0,0,1-.652-.2,1.758,1.758,0,0,1-.522-.456.867.867,0,0,1-.2-.456v-.065h.065c.065,0,.065,0,.2.065a.228.228,0,0,1,.13.065,1.929,1.929,0,0,0,.652.13c.13,0,1.239-.13,3.2-.326A.28.28,0,0,0,227.7,265c.065-1.043.13-1.7.13-2.021v-.326a.564.564,0,0,0-.2-.391.5.5,0,0,0-.326-.13l-.913.2c-.13,0-.326.065-.391.065a.7.7,0,0,1-.391-.13c-.065,0-.065-.065-.13-.065s-.13,0-.13-.065c-.13-.065-.2-.065-.261-.2a.9.9,0,0,1-.2-.261.24.24,0,0,1-.065-.2c0-.065,0-.065.065-.065.13,0,.261.065.391.065h.326a6.327,6.327,0,0,0,1.109-.065,10.281,10.281,0,0,0,1.5-.2c.717-.13,1.3-.2,1.5-.261a1.273,1.273,0,0,1,.456-.065.967.967,0,0,1,.456.065.588.588,0,0,0,.326.065.339.339,0,0,1,.261.13l.2.2v.065a.14.14,0,0,1-.13.13c-.065,0-.13.065-.261.065a2.925,2.925,0,0,0-.717.065,1.723,1.723,0,0,1-.456.065c-.261,0-.587.065-1.043.065-.13,0-.2.065-.2.13s.065.13.13.2c.13.13.261.261.261.326a.24.24,0,0,1-.065.2.494.494,0,0,0-.13.261,8.871,8.871,0,0,0-.2,1.761h0a.231.231,0,0,0,.261.261c.783-.065,1.3-.13,1.565-.13a4.012,4.012,0,0,0,.848-.065,2.561,2.561,0,0,0,.391-.13.968.968,0,0,1,.391-.065C231.938,264.878,232.134,264.943,232.329,265.008Z" transform="translate(-77.654 -90.77)" fill="#0b3852"/>
        <path id="パス_9" data-name="パス 9" d="M240.6,267.72a.808.808,0,0,1,.2-.13,8.187,8.187,0,0,0,2.413-1.891,5.918,5.918,0,0,0,1.109-2.217,12.536,12.536,0,0,0,.261-2.934,7.541,7.541,0,0,0-.065-1.109,1.1,1.1,0,0,0-.261-.783.494.494,0,0,0-.261-.13.228.228,0,0,1-.13-.065l-.065-.065c0-.065.065-.13.2-.13a.967.967,0,0,1,.456-.065h.326a2.656,2.656,0,0,1,.717.391c.261.2.326.326.326.456a.493.493,0,0,1-.065.261c0,.065-.065.13-.065.261,0,.065-.065.13-.065.261V261a10.127,10.127,0,0,1-.456,3.065,4.349,4.349,0,0,1-1.435,2.152,8.77,8.77,0,0,1-2.8,1.565.588.588,0,0,0-.326-.065Zm1.174-4.173a1.052,1.052,0,0,1-.2-.587,2.443,2.443,0,0,1,.065-.522c0-.326.065-.587.065-.848a9,9,0,0,0-.13-1.63.676.676,0,0,0-.391-.522.228.228,0,0,1-.13-.065.064.064,0,0,1-.065-.065q0-.1.2-.2a.942.942,0,0,1,.456-.13c.13,0,.2,0,.261.065a2.347,2.347,0,0,1,.587.326.564.564,0,0,1,.2.391v.2a.24.24,0,0,1-.065.2c0,.2-.065.587-.065,1.109v.913a2.955,2.955,0,0,0,.065.522v.456a.944.944,0,0,1-.13.456.359.359,0,0,1-.326.2.44.44,0,0,1-.4-.269Z" transform="translate(-83.707 -89.831)" fill="#0b3852"/>
        <path id="パス_10" data-name="パス 10" d="M266.29,259.043a1.374,1.374,0,0,1,.391.522c0,.065,0,.065-.065.13a1.062,1.062,0,0,1-.391.2l-.326.2c-.261.13-.652.391-1.109.587a13.041,13.041,0,0,1-1.369.652c-.13.065-.2.13-.2.261a1.1,1.1,0,0,1-.13.326c-.065.13-.065.261-.13.391a14.273,14.273,0,0,1-1.435,2.8,6.687,6.687,0,0,1-2.543,2.282.24.24,0,0,1-.2.065c-.065,0-.065,0-.065-.065a.807.807,0,0,0,.13-.2,8.315,8.315,0,0,0,1.891-2.087,11.218,11.218,0,0,0,1.109-2.413,6.076,6.076,0,0,0,.391-1.63.8.8,0,0,0-.2-.587,1.261,1.261,0,0,0-.587-.326.064.064,0,0,1-.065-.065c0-.065.065-.13.2-.13a1.11,1.11,0,0,1,.456-.065,1.929,1.929,0,0,1,.652.13,1.42,1.42,0,0,1,.522.326.6.6,0,0,1,.2.326.927.927,0,0,0,.391-.13,6.985,6.985,0,0,0,1.174-1.239.421.421,0,0,0,.13-.326q0-.2-.391-.2c-.2,0-.587.065-1.174.13a7.426,7.426,0,0,0-1.5.326,9.285,9.285,0,0,0-1.043.326c-.391.13-.652.2-.848.261a1.619,1.619,0,0,1-.522.065,1.054,1.054,0,0,1-.652-.261,2.113,2.113,0,0,1-.522-.587c0-.065-.065-.13-.065-.2s0-.13.065-.13a.2.2,0,0,1,.13.065.24.24,0,0,0,.2.065,2.445,2.445,0,0,0,.717.065,3.174,3.174,0,0,0,.783-.065c.391-.065,1.109-.13,2.152-.261a16.212,16.212,0,0,0,1.891-.326c.065,0,.13-.065.391-.13a2.656,2.656,0,0,1,.456-.13c.065,0,.13.065.261.13a6,6,0,0,0,.849.922Z" transform="translate(-89.9 -89.761)" fill="#0b3852"/>
        <path id="パス_11" data-name="パス 11" d="M285.129,260.26a.934.934,0,0,1,.326.717.987.987,0,0,1-.456.913,4.883,4.883,0,0,1-1.3.717l-.522.2a12.909,12.909,0,0,1-1.239.456c-.13.065-.2.13-.2.261v1.3a.927.927,0,0,1-.13.391.359.359,0,0,1-.326.2.674.674,0,0,1-.326-.13c-.065-.13-.13-.2-.13-.326a2.955,2.955,0,0,1,.065-.522v-.326c0-.13-.065-.2-.13-.2s-.13,0-.13.065c-.717.456-1.109.913-1.109,1.435,0,.587.587.848,1.7.848a1.621,1.621,0,0,0,.587-.065,1.9,1.9,0,0,0,.587-.13.871.871,0,0,0,.326-.065,1.11,1.11,0,0,1,.456-.065.551.551,0,0,1,.391.13.5.5,0,0,1,.13.326c0,.261-.2.456-.652.587a5.085,5.085,0,0,1-1.435.2,3.09,3.09,0,0,1-1.956-.456,1.281,1.281,0,0,1-.587-1.109,1.527,1.527,0,0,1,.456-1.109,6.837,6.837,0,0,1,1.239-.978.349.349,0,0,0,.2-.261v-.2a1.727,1.727,0,0,0-.2-.913c-.13-.2-.261-.326-.456-.326a.9.9,0,0,0-.717.391c-.2.261-.522.652-.783,1.043l-.13.2a1.126,1.126,0,0,1-.2.261c-.13.13-.2.261-.261.326a.5.5,0,0,1-.261.13.359.359,0,0,1-.326-.2.912.912,0,0,1,.13-1.109l.2-.2.587-.587a4.6,4.6,0,0,0,.453-.58,10.276,10.276,0,0,0,.848-1.7v-.13c0-.065,0-.065-.065-.13-.065,0-.13-.065-.2,0a3.509,3.509,0,0,0-.522.065,2.346,2.346,0,0,1-.717-.13,8.075,8.075,0,0,1-.717-.522l-.065-.065a.064.064,0,0,1,.065-.065.5.5,0,0,1,.2.065,1.926,1.926,0,0,0,.848.13,4.432,4.432,0,0,0,1.239-.2c.13,0,.2-.13.2-.261s.065-.261.065-.391a.929.929,0,0,0-.391-.783c-.065-.065-.065-.065-.065-.13a.24.24,0,0,1,.065-.2c.065-.065.065-.065.2-.065a1.273,1.273,0,0,1,.456.065,1.062,1.062,0,0,1,.391.2c.065.065.065.13.065.326h0a.24.24,0,0,0,.065.2.14.14,0,0,0,.13.13c.13,0,.2.065.326.065s.2,0,.261-.065h.261c.2,0,.261.065.261.2a.564.564,0,0,1-.2.391,3.617,3.617,0,0,1-.522.391,2.087,2.087,0,0,1-.848.326.509.509,0,0,0-.261.261q-.293.88-.587,1.565a.228.228,0,0,1-.065.13c0,.065,0,.065.065.065h.065a2.819,2.819,0,0,0,.326-.065,1.151,1.151,0,0,1,1.239.848.2.2,0,0,1,.065.13c.065,0,.065-.065.13-.13a4.935,4.935,0,0,1,.848-1.3,4.186,4.186,0,0,1,.848-.652,1.914,1.914,0,0,1,1.043-.261C284.673,260,284.869,260.13,285.129,260.26Zm-4.369-2.021a.809.809,0,0,0-.13.2c0,.13,0,.2.065.13l.13-.065a.064.064,0,0,0,.065-.065.2.2,0,0,0-.065-.13l-.065-.065Zm3.456,3.13a1.216,1.216,0,0,0,.326-.652c0-.261-.13-.391-.456-.391a1.7,1.7,0,0,0-.717.2,2.038,2.038,0,0,0-.717.587,5.635,5.635,0,0,0-.456.652,6.352,6.352,0,0,0-.326.717c0,.065-.065.13-.065.2v.065h.065l.261-.13c.522-.261.913-.456,1.239-.652a1.351,1.351,0,0,0,.846-.6Z" transform="translate(-96.545 -89.413)" fill="#0b3852"/>
        <path id="パス_12" data-name="パス 12" d="M298.909,266.751a.064.064,0,0,0-.065.065v.391a.24.24,0,0,1-.065.2,1.426,1.426,0,0,1-.326.2.829.829,0,0,1-.391.065.23.23,0,0,1-.261-.261c0-.456.065-.913.065-1.369s.065-.978.065-1.7v-4.7a19.867,19.867,0,0,0-.13-2.087v-.065c0-.13.065-.2.13-.2h.13l.717.326a.588.588,0,0,0,.326.065h4.63a.674.674,0,0,0,.326-.13l.13-.13c0-.065.065-.065.13-.13l.13-.13c.065-.065.065-.065.13-.065s.2.065.456.261a4.253,4.253,0,0,1,.522.456c.065.065.065.065.065.13s0,.13-.065.13-.065.065-.2.065c-.13.065-.2.13-.2.261v5.869c0,.848.065,1.7.065,2.608v.065a.339.339,0,0,1-.13.261l-.391.2a.827.827,0,0,1-.391.065h-.065c-.065,0-.13-.13-.13-.261v-.456a.231.231,0,0,0-.261-.261h-4.63C298.974,266.751,298.974,266.751,298.909,266.751Zm5.021-6.2a.24.24,0,0,0,.065-.2V258.4a.231.231,0,0,0-.261-.261H299.1a.231.231,0,0,0-.261.261v1.956a.231.231,0,0,0,.261.261h4.63a.24.24,0,0,0,.2-.061Zm0,2.869a.24.24,0,0,0,.065-.2V261.2a.231.231,0,0,0-.261-.261H299.1a.231.231,0,0,0-.261.261v2.021a.231.231,0,0,0,.261.261h4.63a.24.24,0,0,0,.2-.061Zm-5.021.456a.24.24,0,0,0-.065.2v2.087a.231.231,0,0,0,.261.261h4.63a.231.231,0,0,0,.261-.261v-2.087a.231.231,0,0,0-.261-.261H299.1c-.126,0-.126.062-.191.062Z" transform="translate(-103.608 -89.448)" fill="#0b3852"/>
        <path id="パス_13" data-name="パス 13" d="M323.2,258.887l.2-.261c.065-.065.065-.13.13-.2s.065-.13.13-.2.065-.065.13-.065.2.13.456.326a1.917,1.917,0,0,1,.522.522c.065.065.065.065.065.13s0,.065-.065.13a.24.24,0,0,1-.2.065h-8.151a13.8,13.8,0,0,0-1.565.13h-.065a.339.339,0,0,1-.261-.13l-.065-.065a.228.228,0,0,0-.065-.13c0-.065,0-.065.065-.13s.065-.065.2,0c.261,0,.652.065,1.239.065h2.021c-.065,0-.065-.065-.13-.065,0-.065-.065-.065-.065-.2a3.18,3.18,0,0,0-.391-.848l-.587-.783a.806.806,0,0,0-.13-.2.064.064,0,0,1,.065-.065h.2a2.739,2.739,0,0,1,1.3.717,1.4,1.4,0,0,1,.391.848.927.927,0,0,1-.13.391.2.2,0,0,0-.065.13.228.228,0,0,0,.13.065h1.565c.13,0,.2,0,.261-.065a5.048,5.048,0,0,0,.456-1.043c.13-.391.261-.717.326-.978a.173.173,0,0,1,.2-.2h.13c.717.2,1.109.391,1.109.456a.228.228,0,0,1-.13.065h-.065a.9.9,0,0,0-.261.2,9.957,9.957,0,0,1-1.174,1.174c-.065.065-.13.13-.13.2s0,.065.065.065.065.065.13.065h1.761C323.008,259.017,323.138,259.017,323.2,258.887Zm-6.912,5.738a.24.24,0,0,0-.065.2v.652c0,.717.065,1.239.065,1.565v.065a.239.239,0,0,1-.065.2,1.423,1.423,0,0,1-.326.2.827.827,0,0,1-.391.065.231.231,0,0,1-.261-.261c0-.456.065-.913.065-1.369s.065-.978.065-1.7v-1.826a19.858,19.858,0,0,0-.13-2.087v-.065c0-.13.065-.2.13-.2h.13l.587.261a.392.392,0,0,0,.261.065h1.435a.674.674,0,0,0,.326-.13l.065-.13.13-.13.13-.13c.065,0,.2.065.391.261a3.617,3.617,0,0,1,.522.391c0,.065.065.065.065.13a.14.14,0,0,1-.13.13c-.065,0-.065.065-.13.065-.13.065-.2.13-.2.261v5.151a1.391,1.391,0,0,1-.2.783c-.13.2-.326.261-.717.326h-.065c-.13,0-.2-.065-.261-.2a.927.927,0,0,0-.13-.391.982.982,0,0,0-.522-.261c-.13-.065-.2-.065-.2-.13s.065-.065.261-.065c.326,0,.587.065.717.065.065,0,.13,0,.13-.065s.065-.065.065-.2V264.56a.231.231,0,0,0-.261-.261h-1.5c.147.261.082.261.017.326Zm1.891-2.348a.24.24,0,0,0,.065-.2v-.913a.231.231,0,0,0-.261-.261h-1.5a.231.231,0,0,0-.261.261v.913a.231.231,0,0,0,.261.261h1.5a.24.24,0,0,0,.2-.06Zm-1.891.456a.24.24,0,0,0-.065.2v1.043a.231.231,0,0,0,.261.261h1.5a.231.231,0,0,0,.261-.261V262.93a.231.231,0,0,0-.261-.261h-1.5c-.063,0-.128.065-.193.065Zm4.239,0a18.781,18.781,0,0,0-.13-2.087v-.065a.173.173,0,0,1,.2-.2h.13q.978.293.978.391l-.13.13h-.065a.359.359,0,0,0-.2.326V262.6c0,.848.065,1.7.065,2.608v.065a.339.339,0,0,1-.13.261.5.5,0,0,1-.326.13.709.709,0,0,1-.326.065.231.231,0,0,1-.261-.261,10.606,10.606,0,0,0,.065-1.565v-1.174Zm2.413-.261a18.781,18.781,0,0,0-.13-2.087v-.065a.173.173,0,0,1,.2-.2h.065q.978.293.978.391l-.13.13h-.065a.3.3,0,0,0-.2.326v5.412a1.447,1.447,0,0,1-.065.587.869.869,0,0,1-.326.391,1.049,1.049,0,0,1-.717.2h-.065c-.13,0-.2-.065-.261-.2a1.062,1.062,0,0,0-.2-.391,1.533,1.533,0,0,0-.783-.261c-.13-.065-.261-.065-.261-.13s.065-.065.2-.065a4.45,4.45,0,0,1,.783.065h.456a.24.24,0,0,0,.2-.065c.065-.065.065-.065.065-.2v-3.847Z" transform="translate(-109.383 -89.343)" fill="#0b3852"/>
        <path id="パス_14" data-name="パス 14" d="M334.783,267.312a1.419,1.419,0,0,1-.326-.522,7.224,7.224,0,0,1-.456-2.8,8.142,8.142,0,0,1,.13-1.369,12.671,12.671,0,0,1,.326-1.3,5.292,5.292,0,0,1,.2-.717,2.12,2.12,0,0,0,0-1.043.6.6,0,0,0-.261-.391l-.065-.065a.228.228,0,0,1-.065-.13.064.064,0,0,1,.065-.065.239.239,0,0,1,.2.065,1.78,1.78,0,0,1,.783.587,1.38,1.38,0,0,1,.261.913,1.9,1.9,0,0,1-.13.587,6.033,6.033,0,0,1-.326.652,3.85,3.85,0,0,1-.261.522c-.065.2-.13.326-.2.522a3.851,3.851,0,0,0-.13.913,1.271,1.271,0,0,0,.065.522c.065.2.065.261.13.261l.13-.13a.2.2,0,0,0,.065-.13l.652-1.3c.065-.065.065-.13.13-.13a.064.064,0,0,1,.065.065l-.065.13a12.307,12.307,0,0,0-.391,1.174,4.4,4.4,0,0,0-.2,1.109,1.8,1.8,0,0,0,.065.587,6.749,6.749,0,0,0,.2.783c.065.261.13.456.13.522a.339.339,0,0,1-.13.261c-.065.065-.13.065-.261.065C335.109,267.508,334.978,267.442,334.783,267.312Zm3.391-.587a1.726,1.726,0,0,1-.978-1.043.493.493,0,0,1-.065-.261.065.065,0,0,1,.13,0,.064.064,0,0,0,.065.065,3.137,3.137,0,0,0,1.043.522,2.687,2.687,0,0,0,.783.065c.391,0,.848-.065,1.435-.13a1.129,1.129,0,0,0,.456-.065.741.741,0,0,1,.522.2.564.564,0,0,1,.2.391c0,.261-.2.391-.587.522a4.673,4.673,0,0,1-1.435.13,10.978,10.978,0,0,1-1.57-.4Zm.261-6a2.04,2.04,0,0,1-.652-.326.877.877,0,0,1-.391-.456.228.228,0,0,0-.065-.13.064.064,0,0,1,.065-.065.2.2,0,0,1,.13.065.24.24,0,0,0,.2.065,2.083,2.083,0,0,0,.913.2,4.327,4.327,0,0,0,.848-.065c.326-.065.652-.13.913-.2a.493.493,0,0,1,.261-.065.943.943,0,0,1,.456.13c.13.13.2.2.2.326,0,.2-.2.391-.587.456a4.013,4.013,0,0,1-1.239.13,1.426,1.426,0,0,1-1.053-.064Z" transform="translate(-116.202 -90.074)" fill="#0b3852"/>
        <path id="パス_15" data-name="パス 15" d="M355.478,270.343a10.029,10.029,0,0,0-.783-.848.228.228,0,0,0-.13-.065l-.065-.065c0-.065,0-.065.065-.065a.24.24,0,0,1,.2.065,5.031,5.031,0,0,1,.978.391,4.2,4.2,0,0,1,1.043.717,1.116,1.116,0,0,1,.456.848.508.508,0,0,1-.2.456.564.564,0,0,1-.391.2.611.611,0,0,1-.522-.391,7.127,7.127,0,0,0-.651-1.243Z" transform="translate(-123.334 -93.692)" fill="#0b3852"/>
        <path id="パス_16" data-name="パス 16" d="M371.643,257.678c-.065,0-.13.065-.2.13a10.809,10.809,0,0,1-2.217,2.413,15.971,15.971,0,0,1-2.869,1.956c-.13.065-.261.065-.261,0h0c0-.065.065-.065.13-.2a11.988,11.988,0,0,0,1.761-1.5,14.221,14.221,0,0,0,1.63-1.826,8.8,8.8,0,0,0,1.043-1.761.3.3,0,0,1,.326-.2l1.043.261a.228.228,0,0,1,.13.065c.065.065.065.065.065.13s0,.065-.065.065c-.065.065-.13.13-.13.2a.064.064,0,0,0,.065.065,7.053,7.053,0,0,0,1.891,1.761,19.514,19.514,0,0,0,2.608,1.435.228.228,0,0,1,.13.065l.065.065q0,.1-.2.2a1.01,1.01,0,0,0-.522.522c-.065.13-.13.13-.2.13s-.065,0-.13-.065a15.177,15.177,0,0,1-2.282-1.761,6.07,6.07,0,0,1-1.565-2.152C371.773,257.743,371.708,257.678,371.643,257.678Zm2.087,6.13.13-.2c0-.065.065-.065.13-.13s.065-.13.13-.13c.065-.065.065-.065.13-.065s.2.065.456.261a4.251,4.251,0,0,1,.522.456.2.2,0,0,1,.065.13c0,.065,0,.065-.065.13s-.13.065-.261.065h-2.934a.231.231,0,0,0-.261.261v2.021a.231.231,0,0,0,.261.261h2.413a.674.674,0,0,0,.326-.13l.2-.261c.065-.065.065-.13.13-.2s.065-.13.13-.2.065-.065.13-.065.2.13.456.326a1.917,1.917,0,0,1,.522.522.2.2,0,0,1,.065.13c0,.065,0,.065-.065.13a.24.24,0,0,1-.2.065h-7.7a15.124,15.124,0,0,0-1.565.13h-.065a.339.339,0,0,1-.261-.13l-.065-.13c0-.065-.065-.065-.065-.13s0-.065.065-.13c.065,0,.065-.065.2,0,.261,0,.652.065,1.239.065H370.6a.23.23,0,0,0,.261-.261V264.59a.231.231,0,0,0-.261-.261h-.783a15.134,15.134,0,0,0-1.565.13h-.065a.339.339,0,0,1-.261-.13l-.065-.065c0-.065-.065-.065-.065-.13s0-.065.065-.13c.065,0,.065-.065.2,0,.261,0,.652.065,1.239.065h1.3a.231.231,0,0,0,.261-.261v-1.7a.231.231,0,0,0-.261-.261h-.652a11.707,11.707,0,0,0-1.435.13h-.065a.339.339,0,0,1-.261-.13l-.065-.065c0-.065-.065-.065-.065-.13s0-.065.065-.13c.065,0,.065-.065.2,0,.261,0,.652.065,1.239.065h3.456a.674.674,0,0,0,.326-.13l.13-.2c0-.065.065-.065.13-.13s.065-.13.13-.13l.065-.065c.065,0,.2.065.456.261a4.251,4.251,0,0,1,.522.456.2.2,0,0,1,.065.13c0,.065,0,.065-.065.13a.24.24,0,0,1-.2.065H372.1a.231.231,0,0,0-.261.261v1.7a.231.231,0,0,0,.261.261h1.369c.065-.258.2-.258.26-.388Z" transform="translate(-127.37 -89.309)" fill="#0b3852"/>
        <path id="パス_17" data-name="パス 17" d="M391.634,262.286a2.169,2.169,0,0,1,.783.913,2.647,2.647,0,0,1,.261,1.239,4.2,4.2,0,0,1-.326,1.565,2.226,2.226,0,0,1-.913,1.109A2.48,2.48,0,0,1,390,267.5a2.407,2.407,0,0,1-1.5-.456,2.493,2.493,0,0,1-.978-1.3,4.443,4.443,0,0,1-.326-1.891,7.17,7.17,0,0,1,.522-2.8,4.064,4.064,0,0,1,1.239-1.761,2.432,2.432,0,0,1,1.5-.587,2.7,2.7,0,0,1,1.043.2,1.42,1.42,0,0,1,.587.456,1.041,1.041,0,0,1,.2.522.652.652,0,0,1-1.174.391,1.229,1.229,0,0,1-.261-.587.943.943,0,0,0-.13-.456.551.551,0,0,0-.391-.13,1.351,1.351,0,0,0-1.239.978,7.605,7.605,0,0,0-.652,2.413c0,.13.065.2.13.2a1.1,1.1,0,0,0,.326-.13,2.3,2.3,0,0,1,1.5-.587,2.5,2.5,0,0,1,1.238.311Zm-.848,4.434a2.4,2.4,0,0,0,.522-.913,3.8,3.8,0,0,0,.2-1.239,2.121,2.121,0,0,0-.456-1.63,1.6,1.6,0,0,0-1.043-.391,1.434,1.434,0,0,0-.848.261,2.355,2.355,0,0,0-.717.848.488.488,0,0,0-.065.326,5.287,5.287,0,0,0,.391,2.152,1.33,1.33,0,0,0,1.3.913,1.047,1.047,0,0,0,.716-.326Z" transform="translate(-134.711 -90.005)" fill="#0b3852"/>
        <path id="パス_18" data-name="パス 18" d="M404.834,262.286a2.168,2.168,0,0,1,.783.913,2.646,2.646,0,0,1,.261,1.239,4.2,4.2,0,0,1-.326,1.565,2.226,2.226,0,0,1-.913,1.109,2.48,2.48,0,0,1-1.435.391,2.407,2.407,0,0,1-1.5-.456,2.493,2.493,0,0,1-.978-1.3,4.444,4.444,0,0,1-.326-1.891,7.17,7.17,0,0,1,.522-2.8,4.064,4.064,0,0,1,1.239-1.761,2.432,2.432,0,0,1,1.5-.587,2.7,2.7,0,0,1,1.043.2,1.42,1.42,0,0,1,.587.456,1.04,1.04,0,0,1,.2.522.652.652,0,0,1-1.174.391,1.229,1.229,0,0,1-.261-.587.943.943,0,0,0-.13-.456.551.551,0,0,0-.391-.13,1.351,1.351,0,0,0-1.239.978,7.606,7.606,0,0,0-.652,2.413c0,.13.065.2.13.2a1.1,1.1,0,0,0,.326-.13,2.3,2.3,0,0,1,1.5-.587A2.7,2.7,0,0,1,404.834,262.286Zm-.848,4.434a2.4,2.4,0,0,0,.522-.913,3.8,3.8,0,0,0,.2-1.239,2.121,2.121,0,0,0-.456-1.63,1.6,1.6,0,0,0-1.043-.391,1.434,1.434,0,0,0-.848.261,2.355,2.355,0,0,0-.717.848.489.489,0,0,0-.065.326,5.287,5.287,0,0,0,.391,2.152,1.33,1.33,0,0,0,1.3.913,1.047,1.047,0,0,0,.717-.326Z" transform="translate(-139.304 -90.005)" fill="#0b3852"/>
        <path id="パス_19" data-name="パス 19" d="M415.391,261.3a.24.24,0,0,0-.065.2v2.674a.231.231,0,0,0,.261.261c.456-.065.913-.2,1.369-.261l.391-.065h.13c.065,0,.13,0,.13.065h0c0,.065-.065.065-.2.2-.913.456-1.956.913-3,1.369-.065.065-.13.065-.2.13l-.065.065c0,.065-.065.065-.13.065s-.13-.065-.2-.2l-.326-.652v-.13a.173.173,0,0,1,.2-.2l.522-.065c.13,0,.2-.13.2-.261V260a19.883,19.883,0,0,0-.13-2.087v-.065c0-.13.065-.2.13-.2s.065,0,.13.065l.783.391a.24.24,0,0,0,.2.065h.13c.522-.2,1.043-.326,1.5-.522a7.423,7.423,0,0,0,1.239-.587c.065,0,.065-.065.13-.065a.24.24,0,0,1,.2.065,4.3,4.3,0,0,1,.717.783c0,.065-.065.065-.2.065h-.456l-.782.2c-.13,0-.2.13-.261.261v.717a14.754,14.754,0,0,0,.065,1.63.28.28,0,0,0,.261.261h.2c.13,0,.2-.065.326-.2l.13-.2c0-.065.065-.065.13-.13s.065-.13.13-.13a.064.064,0,0,1,.065-.065c.065,0,.2.065.391.261l.456.456a.2.2,0,0,1,.065.13c0,.065,0,.065-.065.13a.239.239,0,0,1-.2.065h-1.5a.231.231,0,0,0-.261.261,6.783,6.783,0,0,0,.913,3c.065.065.065.13.13.13s.065-.065.13-.13c.065-.2.2-.522.326-.848.065-.13.065-.261.13-.2.065,0,.065.065.065.261l-.13,1.174v.065a.493.493,0,0,0,.065.261,2.66,2.66,0,0,1,.13.456.392.392,0,0,1-.065.261.5.5,0,0,1-.326.13.7.7,0,0,1-.456-.2c-.13-.13-.326-.261-.391-.391a8.907,8.907,0,0,1-1.239-3.913.28.28,0,0,0-.261-.261h-1.369C415.456,261.239,415.391,261.3,415.391,261.3Zm.326,5.738a8.912,8.912,0,0,0-1.239.13h0a.339.339,0,0,1-.261-.13l-.065-.065c0-.065-.065-.065-.065-.13s0-.065.065-.13c.065,0,.065-.065.2,0,.261,0,.652.065,1.239.065h1.826a.674.674,0,0,0,.326-.13l.13-.2c0-.065.065-.065.13-.2a.5.5,0,0,1,.13-.2c.065-.065.065-.065.13-.065s.2.065.456.261a2.948,2.948,0,0,1,.456.456.2.2,0,0,1,.065.13c0,.065,0,.065-.065.13s-.13.065-.261.065h-3.2Zm1.043-8.738a11.493,11.493,0,0,1-1.239.13.28.28,0,0,0-.261.261v1.956a.23.23,0,0,0,.261.261h1.369c.2,0,.261-.065.261-.261a20.3,20.3,0,0,1-.065-2.087c-.065-.191-.13-.26-.326-.26Zm4.3-.13a.239.239,0,0,0-.065.2v6.2c0,.848.065,1.7.065,2.608v.065a.339.339,0,0,1-.13.261,1.187,1.187,0,0,1-.717.261.23.23,0,0,1-.261-.261c0-.456.065-.913.065-1.369s.065-.978.065-1.7V259.6a19.883,19.883,0,0,0-.13-2.087v-.065c0-.13.065-.2.13-.2s.065,0,.13.065l.652.326a.588.588,0,0,0,.326.065h1.11a.5.5,0,0,0,.326-.13l.13-.13.13-.13.13-.13c.065-.065.065-.065.13-.065s.2.13.391.326a2.851,2.851,0,0,1,.456.522c0,.065.065.065.065.13a.14.14,0,0,1-.13.13h-.13c-.065,0-.13.065-.2.065s-.065.065-.13.13c-.2.391-.391.848-.652,1.369s-.456.913-.652,1.239a.228.228,0,0,1-.065.13c0,.065.065.13.13.2A4.745,4.745,0,0,1,423.4,262.8a3.126,3.126,0,0,1,.326,1.5,2.16,2.16,0,0,1-.326,1.239,1.452,1.452,0,0,1-1.043.522h-.06c-.13,0-.2-.065-.2-.261a.76.76,0,0,0-.13-.456,1.061,1.061,0,0,0-.391-.2c-.13-.065-.2-.065-.2-.13s.065-.065.261-.065h.782c.065,0,.13-.065.261-.13a1.049,1.049,0,0,0,.2-.717,4.061,4.061,0,0,0-.978-2.608.24.24,0,0,1-.065-.2v-.13c.261-.913.522-1.891.717-2.869v-.065c0-.065,0-.13-.065-.13a.24.24,0,0,0-.2-.065h-1.109a.14.14,0,0,1-.119.139Z" transform="translate(-143.861 -89.413)" fill="#0b3852"/>
        <path id="パス_20" data-name="パス 20" d="M440.547,259.756a4.107,4.107,0,0,1,1.7,1.3,3.641,3.641,0,0,1,.652,2.282,3.442,3.442,0,0,1-1.043,2.674,4.671,4.671,0,0,1-2.348,1.3,7.811,7.811,0,0,1-2.348.326h-.13c-.065,0-.065,0-.065-.065a.228.228,0,0,1,.13-.065,2.822,2.822,0,0,1,.326-.065,5.989,5.989,0,0,0,3.2-1.369,3.647,3.647,0,0,0,1.239-2.8,3.949,3.949,0,0,0-.522-2.087,3.883,3.883,0,0,0-1.369-1.174,4.483,4.483,0,0,0-1.565-.326.35.35,0,0,0-.2.261c.065.2.13.391.2.652a2.447,2.447,0,0,1,.065.652,5.033,5.033,0,0,1-.13.978,7.126,7.126,0,0,1-.326,1.109,11.039,11.039,0,0,1-.848,1.761,4.647,4.647,0,0,1-.978,1.174,1.435,1.435,0,0,1-.783.391,1.116,1.116,0,0,1-.848-.456,2.564,2.564,0,0,1-.587-1.109,5.086,5.086,0,0,1-.261-1.435,3.953,3.953,0,0,1,.717-2.282,5.092,5.092,0,0,1,1.761-1.565,4.688,4.688,0,0,1,2.282-.522A6.979,6.979,0,0,1,440.547,259.756Zm-2.543.2c0-.13-.13-.2-.326-.2a3.444,3.444,0,0,0-1.565.717,3.593,3.593,0,0,0-1.109,1.3,3.883,3.883,0,0,0-.391,1.761,2.6,2.6,0,0,0,.2,1.109,3.538,3.538,0,0,0,.391.717.6.6,0,0,0,.326.2c.2,0,.391-.13.652-.391a6.414,6.414,0,0,0,.783-.978,9.522,9.522,0,0,0,.913-1.826,4.862,4.862,0,0,0,.261-1.7c-.07-.256-.07-.517-.139-.713Z" transform="translate(-150.889 -90.213)" fill="#0b3852"/>
        <path id="パス_21" data-name="パス 21" d="M457.93,262.147l.065-.13c0-.065.065-.065.13-.2s.13-.13.13-.13c.065,0,.2.065.391.261l.456.456c0,.065.065.065.065.13a.14.14,0,0,1-.13.13l-.13.065a.14.14,0,0,0-.13.13c-.065.065-.065.065-.065.2V264.3c0,.848.065,1.7.065,2.543v.065a.339.339,0,0,1-.13.261.5.5,0,0,1-.326.13.709.709,0,0,1-.326.065h-.065c-.065,0-.13-.13-.13-.261v-.391a.231.231,0,0,0-.261-.261h-1.761a.231.231,0,0,0-.261.261v.326a.24.24,0,0,1-.065.2,1.1,1.1,0,0,1-.652.2.231.231,0,0,1-.261-.261c.065-.783.065-1.63.13-2.543v-1.043c0-.065,0-.13-.065-.13,0-.065-.065-.065-.13-.065s-.13,0-.13.065c-.261.13-.522.326-.783.456-.13.065-.2.065-.261,0v-.065a.064.064,0,0,1,.065-.065c0-.065.065-.065.13-.13.391-.261.717-.522,1.043-.783a.5.5,0,0,0,.13-.326v-.522c0-.13.065-.2.13-.2s.065,0,.13.065l.261.13c.065,0,.065.065.13.065a.239.239,0,0,0,.2-.065c.2-.2.326-.391.522-.587l.2-.2a.24.24,0,0,0,.065-.2c0-.065-.065-.13-.2-.13h-.717a15.109,15.109,0,0,0-1.565.13h-.065a.339.339,0,0,1-.261-.13l-.065-.13c0-.065-.065-.065-.065-.13s0-.065.065-.13c.065,0,.065-.065.2,0,.261,0,.652.065,1.174.065h.456a.231.231,0,0,0,.261-.261v-1.174a.231.231,0,0,0-.261-.261h-.326a3.271,3.271,0,0,0-.783.13h-.065c-.13,0-.2-.065-.2-.13l-.065-.065c0-.065-.065-.065-.065-.13,0-.13.065-.13.2-.13a5.326,5.326,0,0,1,.913.065h.326c.2,0,.261-.065.261-.261,0-.456-.065-.913-.065-1.3V257a.173.173,0,0,1,.2-.2h.065q.978.293.978.391c0,.065-.065.065-.13.13h-.065a.359.359,0,0,0-.2.326v.652a.231.231,0,0,0,.261.261h.065a.339.339,0,0,0,.261-.13l.261-.326c.065-.065.13-.13.2-.13a.239.239,0,0,1,.2.065l.13.13.13.13a.24.24,0,0,0,.2.065c.065,0,.13-.065.2-.13a7.911,7.911,0,0,0,.326-.913q.1-.2.2-.2c.065,0,.065,0,.13.065.522.261.848.456.848.522a.228.228,0,0,1-.13.065h-.065c-.13,0-.2.065-.261.2a16.719,16.719,0,0,1-1.435,2.282.24.24,0,0,0-.065.2.14.14,0,0,0,.13.13h.13a.674.674,0,0,0,.326-.13l.13-.2.13-.13c.065-.065.065-.13.13-.13.065-.065.065-.065.13-.065s.2.065.391.261a2.943,2.943,0,0,1,.456.456.2.2,0,0,1,.065.13c0,.065,0,.065-.065.13a.24.24,0,0,1-.2.065H457.5a.5.5,0,0,0-.326.13l-.848.848a.24.24,0,0,0-.065.2c0,.065.065.13.2.13h.978C457.8,262.343,457.865,262.278,457.93,262.147Zm-.065,2.021a.24.24,0,0,0,.065-.2v-1.109a.231.231,0,0,0-.261-.261h-1.7c-.13,0-.2,0-.261.065s-.065.13-.065.261v1.043a.231.231,0,0,0,.261.261h1.761c.135.006.2.006.2-.059Zm-2.087.456a.24.24,0,0,0-.065.2v1.109a.231.231,0,0,0,.261.261h1.761a.231.231,0,0,0,.261-.261v-1.109a.231.231,0,0,0-.261-.261h-1.761c-.066,0-.131.062-.2.062Zm2.087-5.478c0-.065,0-.065-.065-.13-.065,0-.065-.065-.13-.065h-.848a.23.23,0,0,0-.261.261v1.174a.24.24,0,0,0,.065.2c0,.065.065.065.13.065a.674.674,0,0,0,.326-.13,6.5,6.5,0,0,0,.783-1.239v-.134Zm3.2-.978a.24.24,0,0,0-.065.2v6.2c0,.848.065,1.7.065,2.608v.065a.339.339,0,0,1-.13.261,1.187,1.187,0,0,1-.717.261.231.231,0,0,1-.261-.261c0-.456.065-.913.065-1.369s.065-.978.065-1.7v-4.76a17.552,17.552,0,0,0-.13-2.021v-.065c0-.13.065-.2.13-.2s.065,0,.13.065l.717.326a.489.489,0,0,0,.326.065H462.5a.5.5,0,0,0,.326-.13l.13-.13.13-.13c.065-.065.13-.13.2-.13s.2.13.391.326a2.848,2.848,0,0,1,.456.522c0,.065.065.065.065.13a.14.14,0,0,1-.13.13l-.13.065a.359.359,0,0,0-.326.2l-.13.261c-.065.13-.261.456-.522.978a12.773,12.773,0,0,1-.783,1.369.2.2,0,0,0-.065.13c0,.065.065.13.13.2a4.175,4.175,0,0,1,1.239,1.435,3.217,3.217,0,0,1,.391,1.5,2.32,2.32,0,0,1-.326,1.239,1.619,1.619,0,0,1-1.109.522h-.065a.173.173,0,0,1-.2-.2,2.815,2.815,0,0,0-.065-.326.173.173,0,0,0-.2-.2,2.826,2.826,0,0,0-.326-.065c-.13,0-.2-.065-.2-.13s.065-.065.261-.065h.717a.588.588,0,0,0,.326-.065.944.944,0,0,0,.326-.848,3.892,3.892,0,0,0-1.109-2.608.24.24,0,0,1-.065-.2v-.13a20.7,20.7,0,0,0,.848-2.8v-.065a.173.173,0,0,0-.2-.2h-1.239c-.12-.323-.185-.323-.185-.254Z" transform="translate(-157.708 -89.344)" fill="#0b3852"/>
        <path id="パス_22" data-name="パス 22" d="M476.1,260.807c.065,0,.13.065.13.2a5.815,5.815,0,0,1,.2,1.435,5.085,5.085,0,0,1-.2,1.435,3.457,3.457,0,0,1-.522.978c-.13.13-.261.2-.326.261a.927.927,0,0,1-.391.13.5.5,0,0,1-.326-.13.392.392,0,0,1-.065-.261.8.8,0,0,1,.261-.587,3.16,3.16,0,0,0,.848-1.239,4.677,4.677,0,0,0,.391-1.891C475.969,260.872,476.035,260.807,476.1,260.807Zm1.5,1.174a18.781,18.781,0,0,0-.13-2.087v-.065a.173.173,0,0,1,.2-.2h.13c.391.13.652.2.783.261s.2.13.2.2a.2.2,0,0,1-.065.13h-.065c-.13.065-.13.2-.13.326v5.608a.5.5,0,0,0,.13.326c.065.065.261.065.522.065h1.369a6.048,6.048,0,0,0,1.3-.065.239.239,0,0,0,.2-.065c.065,0,.065-.065.13-.13a7.158,7.158,0,0,0,.391-1.761c0-.13.065-.2.13-.2s.065.065.065.261l.065,1.63c0,.065,0,.13.065.13,0,.065.065.065.13.13a.359.359,0,0,1,.2.326.394.394,0,0,1-.2.391,3.249,3.249,0,0,1-.783.2,12.119,12.119,0,0,1-1.7.065h-1.5a2.941,2.941,0,0,1-.848-.065.755.755,0,0,1-.456-.326,1.637,1.637,0,0,1-.13-.652Zm.391-4.7a5.888,5.888,0,0,1,1.891.587,3.6,3.6,0,0,1,1.043.783,1.374,1.374,0,0,1,.326.717.927.927,0,0,1-.13.391c-.065.13-.2.13-.326.13h-.2c-.065,0-.2-.13-.261-.2a4.747,4.747,0,0,0-.978-1.109,8.708,8.708,0,0,0-1.5-1.043q-.2-.1-.2-.2c.144-.051.2-.117.335-.051Zm4.565,3.456h0a.194.194,0,0,1,.261.065,4.881,4.881,0,0,1,1.7,1.5,3.4,3.4,0,0,1,.522,1.565,1.172,1.172,0,0,1-.2.717c-.13.2-.261.326-.391.326a.674.674,0,0,1-.326-.13.339.339,0,0,1-.13-.261,5.168,5.168,0,0,0-.391-1.891,4.827,4.827,0,0,0-.978-1.7.5.5,0,0,1-.068-.186Z" transform="translate(-165.118 -89.503)" fill="#0b3852"/>
        <path id="パス_23" data-name="パス 23" d="M493,267.464a.064.064,0,0,1,.065-.065,15.2,15.2,0,0,0,3.652-2.282,10.684,10.684,0,0,0,2.478-3.456.5.5,0,0,0,.065-.2c0-.065-.065-.065-.13-.065a9.461,9.461,0,0,0-1.435.261c-.848.2-1.435.261-1.826.391-.2.065-.326.065-.391.13s-.2.065-.2.13c-.065.065-.065.065-.13.065a.489.489,0,0,1-.326.065,1.052,1.052,0,0,1-.587-.2,1.983,1.983,0,0,1-.522-.522.927.927,0,0,1-.13-.391v-.13a.064.064,0,0,1,.065-.065.2.2,0,0,1,.13.065.228.228,0,0,1,.13.065c.13.065.261.065.391.13a2.01,2.01,0,0,0,.652.065h.391c.2,0,.848-.13,1.891-.261,1.043-.2,1.63-.261,1.761-.326a1.007,1.007,0,0,0,.391-.2.228.228,0,0,1,.13-.065.228.228,0,0,0,.13-.065.867.867,0,0,1,.456.2,3.617,3.617,0,0,1,.522.391.564.564,0,0,1,.2.391.239.239,0,0,1-.065.2l-.2.2a3.935,3.935,0,0,0-.522.522,10.749,10.749,0,0,1-2.674,3.2,11.288,11.288,0,0,1-4.173,1.956l-.2-.13Zm1.891-7.955a1.1,1.1,0,0,1-.456-.522c0-.065-.065-.065-.065-.13v-.065h.065a.2.2,0,0,1,.13.065c.065,0,.13.065.2.065a2.22,2.22,0,0,0,.652.065,1.11,1.11,0,0,0,.456-.065c.848-.13,1.435-.261,1.826-.326a.5.5,0,0,0,.326-.13.24.24,0,0,1,.2-.065h.2a1.535,1.535,0,0,1,.522.13,1.17,1.17,0,0,1,.456.326.6.6,0,0,1,.2.326c0,.065-.065.13-.13.2s-.2.065-.391.065h-1.043a7.905,7.905,0,0,0-1.174.065,6.258,6.258,0,0,0-.978.2,1.62,1.62,0,0,1-.522.065A3.752,3.752,0,0,1,494.891,259.509Z" transform="translate(-171.52 -89.9)" fill="#0b3852"/>
        <path id="パス_24" data-name="パス 24" d="M516.991,258.656a.421.421,0,0,1,.13.326c0,.065,0,.065-.065.13s-.065.065-.13.065a.2.2,0,0,0-.13.065c-.065.065-.13.065-.2.2A16.4,16.4,0,0,1,515.36,261a.24.24,0,0,0-.065.2.14.14,0,0,0,.13.13c.065,0,.13.065.261.13a.359.359,0,0,1,.2.326.493.493,0,0,1-.065.261,2.243,2.243,0,0,0-.065.587V264a20.574,20.574,0,0,0,.065,2.478c0,.2.065.326.065.456,0,.456-.13.652-.391.652a.592.592,0,0,1-.456-.2c-.13-.13-.13-.326-.13-.587v-1.174c0-.587.065-.978.065-1.239V262.56a1.272,1.272,0,0,0-.065-.522c0-.065-.065-.13-.2-.13a.24.24,0,0,0-.2.065,15.41,15.41,0,0,1-3.586,2.478.493.493,0,0,1-.261.065c-.065,0-.065,0-.065-.065s.065-.13.261-.261a23.117,23.117,0,0,0,2.608-2.217,13.9,13.9,0,0,0,1.7-2.021,3.025,3.025,0,0,0,.587-1.174.394.394,0,0,0-.2-.391.228.228,0,0,0-.13-.065.064.064,0,0,1-.065-.065c0-.065.065-.065.261-.065a1.941,1.941,0,0,1,.978.326C516.73,258.4,516.86,258.526,516.991,258.656Z" transform="translate(-177.643 -89.831)" fill="#0b3852"/>
        <path id="パス_25" data-name="パス 25" d="M528.1,267.821c0-.065.065-.13.261-.2a12.238,12.238,0,0,0,3.521-2.543,15.908,15.908,0,0,0,2.087-2.674,7.963,7.963,0,0,0,.717-1.63c0-.065-.065-.065-.13-.065s-.391.065-.978.13-1.174.2-1.826.326-1.174.261-1.63.391a1.271,1.271,0,0,1-.456.065,1.1,1.1,0,0,1-.652-.2,2.828,2.828,0,0,1-.391-.456.876.876,0,0,1-.13-.522.14.14,0,0,1,.13-.13.493.493,0,0,1,.261.065,1.655,1.655,0,0,0,.456.13c.13,0,.261.065.391.065.261,0,.978-.065,2.087-.13a12.888,12.888,0,0,0,2.152-.261c.13-.065.261-.065.391-.2a1.766,1.766,0,0,1,.522-.2,1.008,1.008,0,0,1,.391.2,1.757,1.757,0,0,1,.522.456c.13.2.261.326.261.391a.392.392,0,0,1-.065.261c-.065.065-.13.2-.261.261a3.583,3.583,0,0,0-.456.587,11.393,11.393,0,0,1-1.761,2.608,11.8,11.8,0,0,1-2.217,1.826,16.776,16.776,0,0,1-2.869,1.435.239.239,0,0,1-.2.065Z" transform="translate(-183.732 -90.387)" fill="#0b3852"/>
        <path id="パス_26" data-name="パス 26" d="M554.429,260.26a.934.934,0,0,1,.326.717.987.987,0,0,1-.456.913,4.882,4.882,0,0,1-1.3.717l-.522.2a12.914,12.914,0,0,1-1.239.456c-.13.065-.2.13-.2.261v1.3a.925.925,0,0,1-.13.391c-.13.13-.2.2-.326.2a.69.69,0,0,1-.326-.13c-.126-.065-.13-.2-.13-.326a2.952,2.952,0,0,1,.065-.522v-.326c0-.13-.065-.2-.13-.2s-.13,0-.13.065c-.717.456-1.109.913-1.109,1.435,0,.587.587.848,1.7.848a1.619,1.619,0,0,0,.587-.065,1.9,1.9,0,0,0,.587-.13.873.873,0,0,0,.326-.065,1.11,1.11,0,0,1,.456-.065.551.551,0,0,1,.391.13.5.5,0,0,1,.13.326c0,.261-.2.456-.652.587a5.085,5.085,0,0,1-1.435.2,3.09,3.09,0,0,1-1.956-.456,1.281,1.281,0,0,1-.587-1.109,1.527,1.527,0,0,1,.456-1.109,6.841,6.841,0,0,1,1.239-.978.349.349,0,0,0,.2-.261v-.2a1.725,1.725,0,0,0-.2-.913c-.13-.2-.261-.326-.456-.326a.9.9,0,0,0-.717.391c-.2.261-.522.652-.783,1.043l-.13.2a1.125,1.125,0,0,1-.2.261,1.419,1.419,0,0,1-.261.326.5.5,0,0,1-.261.13.359.359,0,0,1-.326-.2.942.942,0,0,1-.13-.456,1.038,1.038,0,0,1,.326-.652l.2-.2.587-.587a2.028,2.028,0,0,0,.456-.587,10.276,10.276,0,0,0,.848-1.7v-.13c0-.065,0-.065-.065-.13-.065,0-.13-.065-.2,0a3.513,3.513,0,0,0-.522.065,2.344,2.344,0,0,1-.717-.13,8.071,8.071,0,0,1-.717-.522l-.065-.065a.064.064,0,0,1,.065-.065.5.5,0,0,1,.2.065,1.925,1.925,0,0,0,.848.13,4.43,4.43,0,0,0,1.239-.2c.13,0,.2-.13.2-.261s.065-.261.065-.391a.93.93,0,0,0-.391-.783c-.065-.065-.065-.065-.065-.13a.24.24,0,0,1,.065-.2c.065-.065.065-.065.2-.065a1.272,1.272,0,0,1,.457.065,1.062,1.062,0,0,1,.391.2c.065.065.065.13.065.326h0a.24.24,0,0,0,.065.2.14.14,0,0,0,.13.13c.13,0,.2.065.326.065s.2,0,.261-.065h.261c.2,0,.261.065.261.2a.564.564,0,0,1-.2.391,3.616,3.616,0,0,1-.522.391,2.087,2.087,0,0,1-.848.326.509.509,0,0,0-.261.261q-.294.88-.587,1.565a.228.228,0,0,1-.065.13c0,.065,0,.065.065.065h.065a2.82,2.82,0,0,0,.326-.065,1.151,1.151,0,0,1,1.239.848.2.2,0,0,1,.065.13c.065,0,.065-.065.13-.13a4.934,4.934,0,0,1,.848-1.3,4.188,4.188,0,0,1,.848-.652,1.914,1.914,0,0,1,1.043-.261A4.385,4.385,0,0,0,554.429,260.26Zm-4.369-2.021a.809.809,0,0,0-.13.2c0,.13,0,.2.065.13l.13-.065a.064.064,0,0,0,.065-.065.2.2,0,0,0-.065-.13l-.065-.065Zm3.456,3.13a1.217,1.217,0,0,0,.326-.652c0-.261-.13-.391-.457-.391a1.7,1.7,0,0,0-.717.2,2.038,2.038,0,0,0-.717.587,5.631,5.631,0,0,0-.456.652,6.341,6.341,0,0,0-.326.717c0,.065-.065.13-.065.2v.065h.065l.261-.13c.522-.261.913-.456,1.239-.652a1.352,1.352,0,0,0,.847-.6Z" transform="translate(-190.238 -89.413)" fill="#0b3852"/>
        <path id="パス_27" data-name="パス 27" d="M575.647,258.2a2.853,2.853,0,0,1,.456.522.228.228,0,0,0,.065.13c0,.065,0,.065-.065.13-.065,0-.13.065-.2.065h-1.435a.231.231,0,0,0-.261.261v.261l.065.717v.065c0,.065,0,.2-.065.2a.5.5,0,0,1-.326.13.709.709,0,0,1-.326.065c-.065,0-.13,0-.13-.065a.24.24,0,0,1-.065-.2c0-.2.065-.456.065-.652v-.587a.231.231,0,0,0-.261-.261h-1.1a.231.231,0,0,0-.261.261v.261l.065.783v.065a.24.24,0,0,1-.065.2.5.5,0,0,1-.326.13.709.709,0,0,1-.326.065c-.065,0-.13,0-.13-.065a.239.239,0,0,1-.065-.2c0-.2.065-.391.065-.652v-.652a.231.231,0,0,0-.261-.261H570.5c-.2,0-.326.065-.456.065a.657.657,0,0,0-.2.065l-.065.065.065.065c0,.065.065.065.065.13s0,.065-.065.13a.24.24,0,0,1-.2.065H568.47a.23.23,0,0,0-.261.261v1.63a.173.173,0,0,0,.2.2h.065l.848-.326c.065,0,.13-.065.2-.065s.065,0,.065.065h0c0,.065-.065.13-.13.2l-1.109.717a.359.359,0,0,0-.2.326v3.717a1.449,1.449,0,0,1-.065.587,1.365,1.365,0,0,1-.261.391.8.8,0,0,1-.587.2h-.065c-.13,0-.2-.065-.261-.2a1.062,1.062,0,0,0-.2-.391,1.229,1.229,0,0,0-.587-.261c-.13-.065-.2-.065-.2-.13s.065-.065.2-.065a2.219,2.219,0,0,1,.652.065h.326a.239.239,0,0,0,.2-.065c.065,0,.065-.065.065-.2v-2.934c0-.13-.065-.2-.13-.2s-.13,0-.13.065c-.065.065-.13.065-.2.13a.494.494,0,0,1-.261.13c-.13.065-.13.13-.2.13v.065c0,.065-.065.065-.13.065s-.13-.065-.2-.2l-.261-.652v-.13q0-.1.2-.2l1.174-.391c.13-.065.2-.13.2-.261V259.7a.231.231,0,0,0-.261-.261h-.261c-.2,0-.391.065-.652.065h-.13c-.065,0-.2-.065-.2-.13l-.065-.065c0-.065-.065-.065-.065-.13,0-.13.065-.13.2-.13a3.74,3.74,0,0,1,.782.065h.261a.24.24,0,0,0,.2-.065c.065-.065.065-.065.065-.2a18.752,18.752,0,0,0-.13-2.087V256.7a.173.173,0,0,1,.2-.2h.065l.782.261q.2.1.2.2c0,.065-.065.065-.13.13h-.065a.359.359,0,0,0-.2.326v1.435c0,.2.065.261.2.261s.2-.065.261-.2l.13-.2c0-.065.065-.13.13-.2s.065-.13.13-.13a.064.064,0,0,0,.065-.065.2.2,0,0,1,.13.065c.13.065.2.2.326.261,0-.065-.065-.065-.065-.13,0-.13.065-.13.2-.13a4.073,4.073,0,0,1,.783.065h.261c.2,0,.261-.065.261-.261,0-.522-.065-.913-.065-1.3v-.065a.173.173,0,0,1,.2-.2h.13a2.825,2.825,0,0,1,.717.261q.2.1.2.2a.064.064,0,0,1-.065.065.359.359,0,0,0-.2.326v.717a.231.231,0,0,0,.261.261H573.1c.2,0,.261-.065.261-.261,0-.522-.065-.913-.065-1.3v-.065a.173.173,0,0,1,.2-.2h.13c.326.13.587.2.717.261a.808.808,0,0,1,.2.13.064.064,0,0,1-.065.065l-.065.065h0a.359.359,0,0,0-.2.326v.717a.23.23,0,0,0,.261.261h.065a.359.359,0,0,0,.326-.2l.13-.2a.8.8,0,0,0,.13-.2.5.5,0,0,1,.13-.2c.065-.065.065-.065.13-.065C575.32,257.869,575.451,258,575.647,258.2Zm-.261,2.739a2.841,2.841,0,0,1,.456.391.228.228,0,0,1,.065.13c0,.065,0,.13-.065.13l-.13.065a.14.14,0,0,0-.13.13c-.065.065-.065.065-.065.2v2.282c0,.848.065,1.7.065,2.608v.065a.339.339,0,0,1-.13.261c-.13.065-.2.13-.326.13a2.82,2.82,0,0,0-.326.065c-.065,0-.13,0-.13-.065s-.065-.065-.065-.13v-.261a.239.239,0,0,0-.261-.261h-3.652a.231.231,0,0,0-.261.261v.261q0,.1-.2.2a1.209,1.209,0,0,1-.457.13.231.231,0,0,1-.261-.261c.065-.783.065-1.63.13-2.608v-1.435a19.859,19.859,0,0,0-.13-2.087v-.065c0-.13.065-.2.13-.2h.13l.587.261a.588.588,0,0,0,.326.065h3.652a.674.674,0,0,0,.326-.13l.065-.13.13-.13.13-.13c.071-.008.2.058.4.253Zm-4.826,2.674a.24.24,0,0,0,.2.065h1.109a.231.231,0,0,0,.261-.261v-1.63a.231.231,0,0,0-.261-.261H570.76a.231.231,0,0,0-.261.261v1.63c0,.126,0,.191.061.191Zm0,2.543a.24.24,0,0,0,.2.065h1.109a.231.231,0,0,0,.261-.261v-1.7a.231.231,0,0,0-.261-.261H570.76a.231.231,0,0,0-.261.261v1.7c0,.126,0,.191.061.191Zm2.413-2.543a.24.24,0,0,0,.2.065h1.174a.231.231,0,0,0,.261-.261v-1.63a.231.231,0,0,0-.261-.261h-1.174a.231.231,0,0,0-.261.261v1.63a.286.286,0,0,0,.061.191Zm0,2.543a.24.24,0,0,0,.2.065h1.174a.231.231,0,0,0,.261-.261v-1.7a.231.231,0,0,0-.261-.261h-1.174a.231.231,0,0,0-.261.261v1.7a.286.286,0,0,0,.061.191Z" transform="translate(-196.848 -89.239)" fill="#0b3852"/>
        <path id="パス_28" data-name="パス 28" d="M588.578,267.477a5.024,5.024,0,0,1-.848-.587,3.941,3.941,0,0,1-1.174-3.13,8.332,8.332,0,0,1,.065-1.239,3.876,3.876,0,0,0,.065-.717,1.927,1.927,0,0,0-.13-.652.877.877,0,0,0-.391-.456c-.065-.065-.065-.065-.065-.13s0-.065.065-.065h.13a2.872,2.872,0,0,1,.652.13,1.569,1.569,0,0,1,.522.391.867.867,0,0,1,.2.522.971.971,0,0,1-.065.391,2.718,2.718,0,0,1-.13.391,5.149,5.149,0,0,0-.2.848,3.173,3.173,0,0,0-.065.783,3.046,3.046,0,0,0,.2,1.109,2.346,2.346,0,0,0,.522.783.951.951,0,0,0,.522.326c.13,0,.2-.065.2-.261a15.351,15.351,0,0,1,.456-1.5q.1-.2.2-.2a.064.064,0,0,1,.065.065l-.065.2a7.268,7.268,0,0,0-.13,1.109,2.7,2.7,0,0,0,.065.652,1.66,1.66,0,0,0,.13.456,2.659,2.659,0,0,1,.13.456.673.673,0,0,1-.13.326c-.065.126-.2.13-.326.13C589.034,267.673,588.839,267.608,588.578,267.477Zm5.217-2.934a1.427,1.427,0,0,1-.2-.326s-.065-.2-.13-.456a3.991,3.991,0,0,0-.326-.783,1.01,1.01,0,0,0-.522-.522,2.432,2.432,0,0,0-.783-.13h-.2c-.065,0-.13,0-.13-.065s.065-.065.13-.13a2.8,2.8,0,0,1,.783-.13,2.149,2.149,0,0,1,1.435.522,2.051,2.051,0,0,1,.587.783,1.728,1.728,0,0,1,.2.652.592.592,0,0,1-.2.456.564.564,0,0,1-.391.2C593.99,264.673,593.86,264.608,593.795,264.543Z" transform="translate(-203.911 -90.631)" fill="#0b3852"/>
        <path id="パス_29" data-name="パス 29" d="M613.181,259.017a.627.627,0,0,1,.391.587.339.339,0,0,1-.13.261c-.065.065-.13.065-.261.065a2.247,2.247,0,0,1-.587-.065,3.74,3.74,0,0,0-.783-.065,1.8,1.8,0,0,0-.587.065,4.148,4.148,0,0,0-.456.13,1.923,1.923,0,0,0-.913.978,6.491,6.491,0,0,0-.587,1.7,8.4,8.4,0,0,0-.2,1.63,3.219,3.219,0,0,0,.326,1.63,1.318,1.318,0,0,0,1.174.456h.326c.261,0,.391-.065.522-.065a1.636,1.636,0,0,1,.652.13.358.358,0,0,1,.261.391c0,.261-.13.391-.456.456a5.034,5.034,0,0,1-.978.13,2.522,2.522,0,0,1-2.021-.717,3.549,3.549,0,0,1-.587-2.282,5.627,5.627,0,0,1,.522-2.348,5.451,5.451,0,0,1,1.3-1.826l.261-.261H610.3a11.943,11.943,0,0,0-1.239.391,17.721,17.721,0,0,0-1.63.717.5.5,0,0,1-.261.13c-.065.065-.13.065-.2.13a3.864,3.864,0,0,0-.391.261.827.827,0,0,1-.391.065,1.374,1.374,0,0,1-.717-.326,2.291,2.291,0,0,1-.522-.652.228.228,0,0,0-.065-.13.14.14,0,0,1,.13-.13c.065,0,.13,0,.13.065.13.065.2.13.326.13a.488.488,0,0,0,.326.065h.2c.065,0,.326-.13.783-.261.783-.261,1.565-.522,2.282-.717a12.694,12.694,0,0,1,2.021-.456,1.458,1.458,0,0,0,.652-.2.927.927,0,0,1,.391-.13c.13,0,.2-.065.326-.065A1,1,0,0,1,613.181,259.017Z" transform="translate(-210.451 -90.061)" fill="#0b3852"/>
        <path id="パス_30" data-name="パス 30" d="M626.978,267.477a5.028,5.028,0,0,1-.848-.587,3.941,3.941,0,0,1-1.174-3.13,8.316,8.316,0,0,1,.065-1.239,3.865,3.865,0,0,0,.065-.717,1.927,1.927,0,0,0-.13-.652.877.877,0,0,0-.391-.456c-.065-.065-.065-.065-.065-.13s0-.065.065-.065h.13a2.872,2.872,0,0,1,.652.13,1.568,1.568,0,0,1,.522.391.867.867,0,0,1,.2.522.969.969,0,0,1-.065.391c-.065.13-.065.261-.13.391a5.15,5.15,0,0,0-.2.848,3.179,3.179,0,0,0-.065.783,3.046,3.046,0,0,0,.2,1.109,2.344,2.344,0,0,0,.522.783.951.951,0,0,0,.522.326c.13,0,.2-.065.2-.261a15.318,15.318,0,0,1,.456-1.5q.1-.2.2-.2a.064.064,0,0,1,.065.065l-.065.2a7.275,7.275,0,0,0-.13,1.109,2.7,2.7,0,0,0,.065.652,1.658,1.658,0,0,0,.13.456,2.654,2.654,0,0,1,.13.456.675.675,0,0,1-.13.326c-.065.126-.2.13-.326.13C627.434,267.673,627.239,267.608,626.978,267.477Zm5.152-2.934a1.426,1.426,0,0,1-.2-.326s-.065-.2-.13-.456a3.987,3.987,0,0,0-.326-.783,1.01,1.01,0,0,0-.522-.522,2.433,2.433,0,0,0-.783-.13h-.13c-.065,0-.13,0-.13-.065s.065-.065.13-.13a2.8,2.8,0,0,1,.783-.13,2.149,2.149,0,0,1,1.435.522,2.051,2.051,0,0,1,.587.783,1.726,1.726,0,0,1,.2.652.592.592,0,0,1-.2.456.563.563,0,0,1-.391.2c-.063.059-.193-.006-.324-.071Z" transform="translate(-217.27 -90.631)" fill="#0b3852"/>
        <path id="パス_31" data-name="パス 31" d="M645.052,267.181a2.086,2.086,0,0,1-.326-.848c-.261-.783-.456-1.3-.587-1.63-.2-.326-.391-.717-.652-1.109a3.712,3.712,0,0,1-.456-.783,1.208,1.208,0,0,1-.13-.456,1.656,1.656,0,0,1,.13-.456,2.442,2.442,0,0,1,.391-.652,22.709,22.709,0,0,0,1.435-2.608,1.658,1.658,0,0,0,.13-.456.592.592,0,0,0-.2-.456c-.065-.065-.13-.065-.2-.13s-.13-.065-.13-.13.065-.065.261-.065a2.016,2.016,0,0,1,.522.13c.2.065.391.2.587.261a.685.685,0,0,1,.326.587.827.827,0,0,1-.065.391,5.745,5.745,0,0,1-.391.652c-.13.2-.391.456-.652.848-.522.587-.978,1.174-1.369,1.7a.928.928,0,0,0-.13.391.564.564,0,0,0,.2.391,18.142,18.142,0,0,1,1.7,2.087,3.785,3.785,0,0,1,.783,2.087.551.551,0,0,1-.13.391c-.065.13-.2.13-.326.13C645.313,267.442,645.182,267.377,645.052,267.181Z" transform="translate(-223.672 -89.552)" fill="#0b3852"/>
        <path id="パス_32" data-name="パス 32" d="M664.282,271.165a1.28,1.28,0,0,1-.587-.587,1.935,1.935,0,0,1,0-1.7,1.28,1.28,0,0,1,.587-.587,1.935,1.935,0,0,1,1.7,0,1.28,1.28,0,0,1,.587.587,1.935,1.935,0,0,1,0,1.7,1.279,1.279,0,0,1-.587.587,1.8,1.8,0,0,1-.848.2,1.183,1.183,0,0,1-.852-.2Zm1.7-.522a1.184,1.184,0,0,0,.391-.913,1.287,1.287,0,0,0-.391-.913,1.184,1.184,0,0,0-.913-.391,1.3,1.3,0,1,0,.913,2.217Z" transform="translate(-230.839 -93.275)" fill="#0b3852"/>
      </g>
      <g id="グループ_10" data-name="グループ 10">
        <path id="パス_33" data-name="パス 33" d="M38.669,6.782l4.3-6.13h3.456l.261,25.627H43.56c-1.96-7.825-4.891-13.563-8.738-17.215A18.921,18.921,0,0,0,21.584,3.652,14.09,14.09,0,0,0,11.346,7.434a12,12,0,0,0-3.978,9.194,11.18,11.18,0,0,0,1.5,5.934,11.114,11.114,0,0,0,4.565,4.108c2.021,1.043,5.8,2.217,11.412,3.391,7.825,1.7,13.3,3.456,16.5,5.152a17.566,17.566,0,0,1,7.04,6.587,17.811,17.811,0,0,1,2.348,9.26,21.282,21.282,0,0,1-6.39,15.781c-4.239,4.173-9.781,6.26-16.5,6.26A27.7,27.7,0,0,1,8.934,66.057L3.586,72.643H0V45.385H3.391c1.3,7.5,4.3,13.433,8.934,17.8a22.194,22.194,0,0,0,15.65,6.521c4.7,0,8.542-1.369,11.477-4.173a13.248,13.248,0,0,0,4.434-10.107,10.152,10.152,0,0,0-1.7-5.934,12.2,12.2,0,0,0-5.282-4.3c-2.413-1.174-7.173-2.543-14.216-4.239-7.76-1.826-13.042-3.913-15.846-6.195C2.869,31.5.913,26.931.913,21c0-6.2,1.956-11.219,5.934-15.2s9-5.8,15.128-5.8a23.188,23.188,0,0,1,8.412,1.565,30.186,30.186,0,0,1,8.282,5.217" fill="#0a324c"/>
        <path id="パス_34" data-name="パス 34" d="M133.52,72.523l1.109,1.761a6.84,6.84,0,0,1-5.151,2.348,5.7,5.7,0,0,1-3.652-1.174,9.907,9.907,0,0,1-2.608-4.108,20.357,20.357,0,0,1-5.282,4.239,13.02,13.02,0,0,1-5.478,1.043c-3.065,0-5.347-.652-6.912-1.956a6.085,6.085,0,0,1-2.348-5.021c0-3.065,1.826-5.673,5.412-7.695,3.652-2.021,8.412-3.391,14.476-4.043v-4.5a5.291,5.291,0,0,0-1.956-4.108,7.12,7.12,0,0,0-4.891-1.7,9.316,9.316,0,0,0-4.76,1.109c-.978.587-1.435,1.109-1.435,1.7a3.326,3.326,0,0,0,.783,1.5,4.15,4.15,0,0,1,.913,2.217,3.538,3.538,0,0,1-.913,2.348,3.579,3.579,0,0,1-2.413.913,3.8,3.8,0,0,1-2.674-1.109,3.629,3.629,0,0,1-1.043-2.739c0-2.087,1.174-3.978,3.521-5.738s5.412-2.608,9.26-2.608c3.521,0,6.195.783,8.086,2.282a6.98,6.98,0,0,1,2.8,5.608V69.327a5.5,5.5,0,0,0,.717,3.2,2.081,2.081,0,0,0,1.826,1.043,5.148,5.148,0,0,0,2.608-1.043M123.152,60c-5.347.717-9.194,1.956-11.412,3.586A6.245,6.245,0,0,0,109.263,69a5.635,5.635,0,0,0,1.3,3.847,4.337,4.337,0,0,0,3.391,1.369,8.822,8.822,0,0,0,6.456-2.8,9.942,9.942,0,0,0,2.739-7.108Z" transform="translate(-35.903 -15.726)" fill="#0a324c"/>
        <path id="パス_35" data-name="パス 35" d="M171.286,45.7a41.813,41.813,0,0,1,.848,6.39,15.065,15.065,0,0,1,4.565-4.956A9.346,9.346,0,0,1,181.98,45.7a9.8,9.8,0,0,1,5.8,1.891,13.187,13.187,0,0,1,4.5,5.478,18.486,18.486,0,0,1,1.7,8.151c0,4.825-1.435,8.8-4.239,11.8a10.857,10.857,0,0,1-8.412,3.782,9.17,9.17,0,0,1-5.021-1.435,13.005,13.005,0,0,1-3.978-4.239v20.15a2.65,2.65,0,0,0,.652,1.956,3.77,3.77,0,0,0,2.348.783h2.217v2.217H161.7V94.017h2.217a3.543,3.543,0,0,0,2.282-.587,1.945,1.945,0,0,0,.783-1.565V52.479a3.79,3.79,0,0,0-1.043-3.065c-.717-.587-2.087-.913-4.173-.978V46.284Zm9.194,2.934a6.951,6.951,0,0,0-5.8,3.326c-1.565,2.217-2.413,5.412-2.413,9.651s.783,7.369,2.282,9.39a7.007,7.007,0,0,0,5.869,3.065,6.055,6.055,0,0,0,5.152-2.608c1.565-2.282,2.282-5.608,2.282-10.042,0-4.63-.717-7.89-2.087-9.847a6.04,6.04,0,0,0-5.282-2.934" transform="translate(-56.257 -15.897)" fill="#0a324c"/>
        <path id="パス_36" data-name="パス 36" d="M233.286,45.7a41.815,41.815,0,0,1,.848,6.39,15.065,15.065,0,0,1,4.565-4.956A9.346,9.346,0,0,1,243.98,45.7a9.8,9.8,0,0,1,5.8,1.891,13.187,13.187,0,0,1,4.5,5.478,18.486,18.486,0,0,1,1.7,8.151c0,4.825-1.435,8.8-4.239,11.8a10.857,10.857,0,0,1-8.412,3.782,9.17,9.17,0,0,1-5.021-1.435,13,13,0,0,1-3.978-4.239v12a2.65,2.65,0,0,0,.652,1.956,3.77,3.77,0,0,0,2.348.783h2.217v2.217H223.7V85.866h2.217a3.543,3.543,0,0,0,2.282-.587,1.945,1.945,0,0,0,.783-1.565V52.479a3.79,3.79,0,0,0-1.043-3.065c-.717-.587-2.087-.913-4.173-.978V46.284Zm9.26,2.934a6.951,6.951,0,0,0-5.8,3.326c-1.565,2.217-2.413,5.412-2.413,9.651s.783,7.369,2.282,9.39a7.172,7.172,0,0,0,5.869,3.065,6.055,6.055,0,0,0,5.152-2.608c1.565-2.282,2.282-5.608,2.282-10.042,0-4.63-.717-7.89-2.087-9.847a6.04,6.04,0,0,0-5.282-2.934" transform="translate(-77.828 -15.897)" fill="#0a324c"/>
        <path id="パス_37" data-name="パス 37" d="M303.055,45.2A13.218,13.218,0,0,1,313.1,49.5c2.739,2.869,4.043,6.651,4.043,11.412a17.724,17.724,0,0,1-1.826,8.347,13.045,13.045,0,0,1-5.217,5.412,14.261,14.261,0,0,1-7.238,2.021,12.827,12.827,0,0,1-9.781-4.369C290.4,69.391,289.1,65.609,289.1,60.98c0-4.7,1.369-8.477,4.043-11.346a12.841,12.841,0,0,1,9.912-4.434m0,2.282a6.8,6.8,0,0,0-5.8,3.2c-1.5,2.152-2.282,5.543-2.282,10.173,0,4.7.783,8.151,2.282,10.3a6.9,6.9,0,0,0,5.869,3.26,7.173,7.173,0,0,0,6-3.26c1.5-2.152,2.282-5.738,2.282-10.694,0-4.565-.783-7.89-2.282-9.977a7.3,7.3,0,0,0-6.064-3" transform="translate(-100.581 -15.725)" fill="#0a324c"/>
        <path id="パス_38" data-name="パス 38" d="M343.8,46.319l10.694-.522v12a26.014,26.014,0,0,1,4.108-8.934,7.383,7.383,0,0,1,5.934-3.065,5.058,5.058,0,0,1,3.847,1.5,5.4,5.4,0,0,1,1.435,3.913,4.6,4.6,0,0,1-.978,3.13,3.13,3.13,0,0,1-2.413,1.109,2.84,2.84,0,0,1-2.282-.978,3.648,3.648,0,0,1-.848-2.543,3.983,3.983,0,0,1,.522-1.956,3.3,3.3,0,0,0,.456-.978c0-.326-.2-.456-.587-.456a4.846,4.846,0,0,0-2.934,1.5,14.085,14.085,0,0,0-3.521,5.8,32.211,32.211,0,0,0-1.891,9.194v6.325a1.818,1.818,0,0,0,.783,1.63,4.533,4.533,0,0,0,2.608.587h3.782v2.348H344.061V73.576H347a3.362,3.362,0,0,0,2.217-.587A1.792,1.792,0,0,0,350,71.554V52.644a4.6,4.6,0,0,0-.913-3.13,3.293,3.293,0,0,0-2.608-.978h-2.608Z" transform="translate(-119.612 -15.931)" fill="#0a324c"/>
        <path id="パス_39" data-name="パス 39" d="M411.055,45.2A13.218,13.218,0,0,1,421.1,49.5c2.739,2.869,4.043,6.651,4.043,11.412a17.723,17.723,0,0,1-1.826,8.347,13.044,13.044,0,0,1-5.217,5.412,14.261,14.261,0,0,1-7.238,2.021,12.827,12.827,0,0,1-9.781-4.369C398.4,69.391,397.1,65.609,397.1,60.98c0-4.7,1.369-8.477,4.043-11.346a12.745,12.745,0,0,1,9.912-4.434m-.065,2.217a6.8,6.8,0,0,0-5.8,3.2c-1.5,2.152-2.282,5.543-2.282,10.173,0,4.7.783,8.151,2.282,10.3a6.9,6.9,0,0,0,5.869,3.26,7.173,7.173,0,0,0,6-3.26c1.5-2.152,2.282-5.738,2.282-10.694,0-4.565-.783-7.89-2.282-9.977a7.476,7.476,0,0,0-6.064-3" transform="translate(-138.155 -15.725)" fill="#0a324c"/>
        <path id="パス_40" data-name="パス 40" d="M80.165,119.4H96.989l42.386,55.232V134.659c0-4.043-.913-6.977-2.739-8.934-1.7-1.761-4.173-2.674-7.5-2.739V119.4H153.72v3.586a11.414,11.414,0,0,0-5.608,1.043,8.759,8.759,0,0,0-3.26,3.782,12.926,12.926,0,0,0-1.369,6.064V189.7h-4.434L95.1,132.181v42.386c0,3.847.978,6.717,2.869,8.608s4.956,2.869,9,2.934V189.7h-26.8v-3.586a10.928,10.928,0,0,0,7.955-3.326,10.576,10.576,0,0,0,2.934-7.629v-47.6l-.848-.913a14.654,14.654,0,0,0-3.391-3.065,8.243,8.243,0,0,0-3.521-.652H80.1V119.4Z" transform="translate(-27.868 -41.541)" fill="#0a324c"/>
        <path id="パス_41" data-name="パス 41" d="M236.892,178.344H215.634q.2,6.749,2.543,9.586a8.76,8.76,0,0,0,6.912,3.13q6.162,0,9.977-7.043l2.087.913c-3.065,6-7.564,9-13.368,9a13.418,13.418,0,0,1-10.042-4.3A15.23,15.23,0,0,1,209.7,178.6c0-4.825,1.3-8.673,3.978-11.672a12.708,12.708,0,0,1,9.847-4.434,12.474,12.474,0,0,1,7.434,2.217,13.164,13.164,0,0,1,4.7,6.39,20.857,20.857,0,0,1,1.239,7.238m-21.258-2.217h12.84a2.047,2.047,0,0,0,1.761-.783,4.209,4.209,0,0,0,.652-2.674,8.662,8.662,0,0,0-2.152-5.934,6.459,6.459,0,0,0-5.086-2.413,6.925,6.925,0,0,0-5.608,2.934c-1.565,1.956-2.348,4.891-2.413,8.868" transform="translate(-72.957 -56.534)" fill="#0a324c"/>
        <path id="パス_42" data-name="パス 42" d="M263.7,163.7h14.346v2.217c-2.348.065-3.456.522-3.456,1.239a2.624,2.624,0,0,0,.587,1.3l5.086,6.782,5.021-6.26a2.071,2.071,0,0,0,.522-1.3c0-.913-1.3-1.5-3.847-1.7v-2.217h12.52v2.217a10.838,10.838,0,0,0-6.912,3.782l-5.869,7.3,9.194,11.868a5.137,5.137,0,0,0,2.021,1.7,8.883,8.883,0,0,0,3.2.522v2.35h-15.2v-2.348h1.109a6.338,6.338,0,0,0,2.478-.326c.326-.2.522-.391.522-.652a2.5,2.5,0,0,0-.587-1.174l-5.934-7.89-4.76,6.13a4.23,4.23,0,0,0-1.043,2.087,1.232,1.232,0,0,0,.717,1.174,7.187,7.187,0,0,0,3.326.587v2.348H263.83v-2.348a8.67,8.67,0,0,0,3.587-.978,15.67,15.67,0,0,0,3.782-3.391l5.869-7.5-8.738-11.281a5.711,5.711,0,0,0-4.565-2.021Z" transform="translate(-91.744 -56.953)" fill="#0a324c"/>
        <path id="パス_43" data-name="パス 43" d="M334.347,145.2H336.5v12.129h9.586v2.934H336.5V179.3a5.579,5.579,0,0,0,1.174,3.782,3.69,3.69,0,0,0,3,1.3,4.325,4.325,0,0,0,3.652-2.021c1.043-1.3,1.63-3.521,1.761-6.586h2.152c-.13,3.978-1.043,6.847-2.674,8.8a8.243,8.243,0,0,1-6.521,2.869,7.708,7.708,0,0,1-5.738-2.021,6.977,6.977,0,0,1-2.087-5.282V160.2H326v-2.217a8.159,8.159,0,0,0,5.347-2.934c1.891-2.348,2.869-5.673,3-9.847" transform="translate(-113.419 -50.517)" fill="#0a324c"/>
        <path id="パス_44" data-name="パス 44" d="M363.9,120h29.6v3.586h-5.151q-3.228,0-4.3.783a2.259,2.259,0,0,0-1.109,2.021,7.007,7.007,0,0,0,.848,2.869l.391.978L402.7,177.319l16.367-44.929a9.187,9.187,0,0,0,.456-3.26,5.263,5.263,0,0,0-1.565-4.108,5.952,5.952,0,0,0-4.239-1.5h-4.825V120h25.953v3.586H432.76A7.088,7.088,0,0,0,428,125.8a19.041,19.041,0,0,0-4.239,7.369l-21.715,58.753H398.59l-24.845-62.8a9.7,9.7,0,0,0-3-4.369,8.173,8.173,0,0,0-4.565-1.239H363.9Z" transform="translate(-126.605 -41.749)" fill="#0a324c"/>
        <path id="パス_45" data-name="パス 45" d="M476.465,154.837l11.8-.326v25.562a1.862,1.862,0,0,0,.522,1.5,2.733,2.733,0,0,0,1.826.652h3.326v2.348H477.052v-2.348h3.13a2.806,2.806,0,0,0,2.021-.652,2.65,2.65,0,0,0,.652-1.956V160.9a3.487,3.487,0,0,0-1.043-2.674,4.549,4.549,0,0,0-3-.913H476.4Zm8.216-17.737a3.265,3.265,0,0,1,2.478,1.109,3.4,3.4,0,0,1,1.109,2.543,3.539,3.539,0,1,1-6-2.608,3.707,3.707,0,0,1,2.413-1.043" transform="translate(-165.745 -47.699)" fill="#0a324c"/>
        <path id="パス_46" data-name="パス 46" d="M520.752,182.471c1.3,3.652,2.8,6.2,4.5,7.564a9.439,9.439,0,0,0,6.26,2.087,8.349,8.349,0,0,0,5.282-1.5,4.666,4.666,0,0,0,1.826-3.847,4.258,4.258,0,0,0-.652-2.348,4.325,4.325,0,0,0-1.891-1.5,39.69,39.69,0,0,0-6.26-1.435,25.283,25.283,0,0,1-6.716-2.021,7.314,7.314,0,0,1-2.934-2.869,7.89,7.89,0,0,1-1.043-3.978,9.049,9.049,0,0,1,2.217-5.934,9.633,9.633,0,0,1,7.89-3.391,11.882,11.882,0,0,1,7.173,2.413l2.087-2.217h1.3l.848,10.564h-2.152A13.247,13.247,0,0,0,534.7,167.6a8.646,8.646,0,0,0-5.869-1.956,7.048,7.048,0,0,0-4.76,1.5,4.512,4.512,0,0,0-1.7,3.587,3.891,3.891,0,0,0,1.565,3.13c1.043.848,3.065,1.5,6.064,2.021a47.345,47.345,0,0,1,6.847,1.5,8.264,8.264,0,0,1,4.043,2.934,8.064,8.064,0,0,1,1.435,4.825,8.686,8.686,0,0,1-3.065,6.651,11.387,11.387,0,0,1-7.825,2.739A12.752,12.752,0,0,1,523.3,191.6l-2.346,2.676h-1.7l-.652-11.8Z" transform="translate(-180.427 -56.814)" fill="#0a324c"/>
        <path id="パス_47" data-name="パス 47" d="M568.265,154.837l11.8-.326v25.562a1.862,1.862,0,0,0,.522,1.5,2.734,2.734,0,0,0,1.826.652h3.326v2.348H568.852v-2.348h3.13a2.806,2.806,0,0,0,2.021-.652,2.65,2.65,0,0,0,.652-1.956V160.9a3.487,3.487,0,0,0-1.043-2.674,4.548,4.548,0,0,0-3-.913H568.2Zm8.216-17.737a3.265,3.265,0,0,1,2.478,1.109,3.4,3.4,0,0,1,1.109,2.543,3.539,3.539,0,1,1-6-2.608,3.852,3.852,0,0,1,2.413-1.043" transform="translate(-197.683 -47.699)" fill="#0a324c"/>
        <path id="パス_48" data-name="パス 48" d="M620.255,162.9a13.218,13.218,0,0,1,10.042,4.3c2.739,2.869,4.043,6.651,4.043,11.412a17.722,17.722,0,0,1-1.826,8.347,13.044,13.044,0,0,1-5.217,5.412,14.261,14.261,0,0,1-7.238,2.021,12.827,12.827,0,0,1-9.781-4.369c-2.674-2.934-3.978-6.717-3.978-11.346,0-4.7,1.369-8.477,4.043-11.346a13.061,13.061,0,0,1,9.912-4.434m0,2.282a6.8,6.8,0,0,0-5.8,3.2c-1.5,2.152-2.282,5.543-2.282,10.173,0,4.7.783,8.151,2.282,10.3a6.9,6.9,0,0,0,5.869,3.26,7.173,7.173,0,0,0,6-3.26c1.5-2.152,2.282-5.738,2.282-10.694,0-4.565-.783-7.89-2.282-9.977a7.386,7.386,0,0,0-6.064-3" transform="translate(-210.938 -56.674)" fill="#0a324c"/>
        <path id="パス_49" data-name="パス 49" d="M661.8,163.987l9.846-.587a54.119,54.119,0,0,1,.913,6.521,13.862,13.862,0,0,1,4.7-4.825,11.826,11.826,0,0,1,6.13-1.63,9.438,9.438,0,0,1,4.956,1.174,7.9,7.9,0,0,1,3.2,3.652,11.9,11.9,0,0,1,1.174,5.608v14.476a3.109,3.109,0,0,0,.717,2.282,3.262,3.262,0,0,0,2.413.652h2.087v2.348h-15.65V191.31h1.5a4.882,4.882,0,0,0,2.934-.652,2.615,2.615,0,0,0,.848-2.021V175.92c0-2.739-.391-4.825-1.239-6.13a5.858,5.858,0,0,0-5.412-2.869,7.6,7.6,0,0,0-6,2.869,11.493,11.493,0,0,0-2.413,7.5v11.02a3.108,3.108,0,0,0,.717,2.282,3.344,3.344,0,0,0,2.478.652h2.087v2.348H662.061v-2.348h2.087a3.669,3.669,0,0,0,2.348-.652,1.945,1.945,0,0,0,.782-1.565V169.856a3.923,3.923,0,0,0-1.043-2.869,4.115,4.115,0,0,0-2.934-.978h-1.5Z" transform="translate(-230.247 -56.849)" fill="#0a324c"/>
      </g>
    </g>
  </g>
</svg>
