<svg id="vision_txt" xmlns="http://www.w3.org/2000/svg" width="284.579" height="143.35" viewBox="0 0 284.579 143.35">
  <rect id="長方形_1" data-name="長方形 1" width="284.579" height="109.987" fill="none"/>
  <g id="グループ_33" data-name="グループ 33">
    <g id="グループ_36" data-name="グループ 36" transform="translate(-9.157 5.931)">
      <g id="グループ_34" data-name="グループ 34" transform="translate(47.16 105.825)">
        <g id="グループ_1" data-name="グループ 1" transform="translate(0 0.075)">
          <path id="パス_1" data-name="パス 1" d="M83.9,263.642c0-.149-.074-.223-.149-.223s-.149.074-.223.149a11.285,11.285,0,0,1-1.933,2.6c-.149.149-.223.149-.3.074v-.074a.273.273,0,0,1,.074-.223,10.43,10.43,0,0,0,1.339-2.38,17.854,17.854,0,0,0,.892-2.826v-.074c0-.074,0-.149-.074-.149s-.149-.074-.223-.074h-.372a5.029,5.029,0,0,0-1.041.149h-.074c-.149,0-.223-.074-.3-.223l-.074-.074c0-.074-.074-.074-.074-.149s0-.074.074-.149a.273.273,0,0,1,.223-.074c.3,0,.744.074,1.339.074h.521a.263.263,0,0,0,.3-.3v-.223a21.417,21.417,0,0,0-.149-2.38v-.074a.2.2,0,0,1,.223-.223h.074c.446.149.744.223.892.3s.223.149.223.223-.074.074-.149.149l-.074.074a.3.3,0,0,0-.149.3V259.7a.263.263,0,0,0,.3.3h.149c.149,0,.223-.074.372-.149l.149-.223c0-.074.074-.074.149-.223.074-.074.074-.149.149-.149a.073.073,0,0,1,.074-.074c.074,0,.223.074.446.3a3.353,3.353,0,0,1,.521.521.259.259,0,0,1,.074.149c0,.074,0,.149-.074.149a.273.273,0,0,1-.223.074H85.018a.263.263,0,0,0-.3.3v.744a.409.409,0,0,0,.223.372,4.635,4.635,0,0,1,1.413.892,1.6,1.6,0,0,1,.446.967.629.629,0,0,1-.149.446c-.074.149-.223.149-.372.149a.562.562,0,0,1-.3-.074,1.027,1.027,0,0,1-.223-.3,7.212,7.212,0,0,0-.744-1.562c-.074-.074-.149-.149-.223-.149s-.074,0-.149.074c0,.074-.074.074-.074.223v3.123c0,.967.074,1.934.074,2.975v.074a.273.273,0,0,1-.074.223,1.627,1.627,0,0,1-.372.223.944.944,0,0,1-.446.074.263.263,0,0,1-.3-.3c0-.521.074-1.041.074-1.562s.074-1.115.074-1.933v-1.71Zm4.09-3.867a21.417,21.417,0,0,0-.149-2.38v-.074a.2.2,0,0,1,.223-.223h.074c.446.149.744.223.967.3.149.074.3.149.3.223s0,.074-.074.149h-.074c-.149.074-.149.223-.149.372v9.221a.568.568,0,0,0,.149.372c.074.074.223.074.446.074h1.115a4.274,4.274,0,0,0,1.115-.074c.074,0,.149,0,.149-.074s.074-.074.149-.149a15.673,15.673,0,0,0,.446-1.933c0-.149.074-.223.149-.223s.074.074.074.3l.074,1.785c0,.149.074.223.223.372.074.074.149.074.149.149s.074.149.074.223a.409.409,0,0,1-.223.372,3.012,3.012,0,0,1-.744.223c-.372,0-.892.074-1.636.074H89.554a1.766,1.766,0,0,1-1.115-.223c-.223-.149-.3-.446-.3-.967v-7.883Z" transform="translate(-81.3 -256.8)" fill="#efefef"/>
        </g>
        <g id="グループ_2" data-name="グループ 2" transform="translate(15.245 0)">
          <path id="パス_2" data-name="パス 2" d="M105.3,258.931l.074-.149a.26.26,0,0,0,.074-.149c.074-.074.074-.074.074-.149l.074-.074a.68.68,0,0,1,.372.223,3.233,3.233,0,0,1,.521.446.23.23,0,0,1,.074.149.16.16,0,0,1-.149.149l-.149.074c-.149.074-.223.149-.223.3v5.057a2.3,2.3,0,0,1-.149.818.736.736,0,0,1-.521.372H105.3c-.149,0-.223-.074-.223-.3l-.074-.223c-.074-.149-.074-.223-.149-.3-.074,0-.149-.074-.3-.149a.073.073,0,0,1-.074-.074c0-.074.074-.074.223-.074h.372c.074,0,.074,0,.149-.074v-5.28a.263.263,0,0,0-.3-.3H104.7a.263.263,0,0,0-.3.3v5.8c0,.967.074,1.933.074,2.975v.074a.386.386,0,0,1-.149.3,1.2,1.2,0,0,1-.669.223c-.074,0-.149,0-.149-.074a.26.26,0,0,0-.074-.149c0-.52.074-1.041.074-1.562s.074-1.115.074-1.933V259.6a.263.263,0,0,0-.3-.3h-.149a.263.263,0,0,0-.3.3v3.2c0,.967.074,1.934.074,2.975v.074a.386.386,0,0,1-.149.3,1.2,1.2,0,0,1-.669.223.263.263,0,0,1-.3-.3c0-.446.074-.967.074-1.413s.074-1.041.074-1.785v-1.487a22.656,22.656,0,0,0-.149-2.38v-.074c0-.149.074-.223.149-.223h.149l.595.223a.67.67,0,0,0,.372.074h.074c.223,0,.3-.074.3-.3,0-.744-.074-1.264-.074-1.71v-.074a.2.2,0,0,1,.223-.223h.074c.744.223,1.041.372,1.041.446s0,.074-.074.149h-.074a.409.409,0,0,0-.223.372v1.041a.263.263,0,0,0,.3.3h.074C105.072,259.154,105.221,259.08,105.3,258.931Zm6.841,5.354.149-.223c0-.074.074-.149.149-.223s.074-.149.149-.149a.073.073,0,0,0,.074-.074c.074,0,.223.074.446.3a3.356,3.356,0,0,1,.521.521c0,.074.074.074.074.149s0,.149-.074.149-.149.074-.223.074h-1.934a.263.263,0,0,0-.3.3v2.677c0,.074,0,.149.074.149a.749.749,0,0,0,.223.074h1.19c.074,0,.074,0,.074-.074a.26.26,0,0,0,.074-.149,3.218,3.218,0,0,0,.074-.372c0-.149.074-.372.074-.446l.149-.521c0-.149.074-.223.149-.223l.074.074v1.338c0,.074,0,.149.074.149,0,.074.074.074.149.149a.386.386,0,0,1,.149.3.471.471,0,0,1-.372.446,4.645,4.645,0,0,1-1.339.149h-.818a1.2,1.2,0,0,1-.818-.223.909.909,0,0,1-.223-.669V265.1a.263.263,0,0,0-.3-.3h-.446a.272.272,0,0,0-.3.3,5.21,5.21,0,0,1-1.041,2.528,5.69,5.69,0,0,1-2.38,1.487c-.074,0-.149.074-.223.074s-.074,0-.074-.074v-.074q0-.112.223-.223a4.279,4.279,0,0,0,1.71-1.487,4.932,4.932,0,0,0,.669-2.231v-.074c0-.149-.074-.223-.3-.223h-.3c-.223,0-.446.074-.744.074h-.149c-.074,0-.223-.074-.223-.149l-.074-.074c0-.074-.074-.074-.074-.149s0-.074.074-.149c.074,0,.074-.074.223,0,.3,0,.744.074,1.413.074h.967a.273.273,0,0,0,.223-.074c.074-.074.074-.074.074-.223a21.413,21.413,0,0,0-.149-2.38v-.074a.2.2,0,0,1,.223-.223h.149c.372.149.669.223.818.3s.223.149.223.223a.23.23,0,0,1-.074.149h0a.409.409,0,0,0-.223.372v1.636a.263.263,0,0,0,.3.3h1.413A.568.568,0,0,0,112.137,264.285Zm-5.354-2.305h0c.149,0,.223,0,.3.074a2.351,2.351,0,0,1,1.041.744,1.356,1.356,0,0,1,.372.818,1.057,1.057,0,0,1-.149.446.568.568,0,0,1-.372.149.273.273,0,0,1-.223-.074,1.026,1.026,0,0,1-.223-.3,4.2,4.2,0,0,0-.669-1.487A1,1,0,0,1,106.782,261.98Zm4.982-4.685.074-.149a.26.26,0,0,0,.074-.149c0-.074.074-.074.149-.149l.074-.074a.68.68,0,0,1,.372.223,1.262,1.262,0,0,1,.446.446c.074.074.074.074.074.149a.16.16,0,0,1-.149.149l-.074.074c-.149.074-.223.149-.223.3v.892c0,.892.074,1.562.074,2.008v.074a.386.386,0,0,1-.149.3,1.256,1.256,0,0,1-.744.223c-.074,0-.074,0-.149-.074,0-.074-.074-.074-.074-.149,0-.149-.074-.223-.3-.223h-3.272a.263.263,0,0,0-.3.3v.074c0,.074-.074.149-.223.149s-.372.074-.521.074c-.074,0-.149,0-.149-.074a.273.273,0,0,1-.074-.223c0-.372.074-.818.074-1.339V259.3a17.5,17.5,0,0,0-.074-2.082v-.074c0-.149.074-.223.149-.223h.149l.744.3a.557.557,0,0,0,.372.074h3.2A.326.326,0,0,0,111.765,257.295Zm-.149,1.71a.273.273,0,0,0,.074-.223v-.669a.263.263,0,0,0-.3-.3h-3.272a.263.263,0,0,0-.3.3v.669a.263.263,0,0,0,.3.3h3.272A.273.273,0,0,0,111.616,259.005Zm-3.644.521a.273.273,0,0,0-.074.223v.744a.263.263,0,0,0,.3.3h3.272a.263.263,0,0,0,.3-.3v-.744a.263.263,0,0,0-.3-.3H108.2A.326.326,0,0,0,107.972,259.526Zm3.718,2.305c.074,0,.074,0,.149.074l.372.223c.074.074.223.074.3.149q.446.112.446.223c0,.074-.074.074-.149.149h-.074a1.028,1.028,0,0,0-.3.223,6.952,6.952,0,0,1-1.339,1.19c-.149.074-.223.149-.3.074v-.074a.273.273,0,0,1,.074-.223,9.178,9.178,0,0,0,.595-1.71C111.467,261.906,111.542,261.831,111.69,261.831Z" transform="translate(-101.8 -256.7)" fill="#efefef"/>
        </g>
        <g id="グループ_3" data-name="グループ 3" transform="translate(30.638 0.372)">
          <path id="パス_3" data-name="パス 3" d="M123.244,265.008a.073.073,0,0,1,.074.074c0,.074.074.074.074.223a8.193,8.193,0,0,1,.149,1.339,2.09,2.09,0,0,1-.223,1.115c-.149.223-.3.372-.521.372a.273.273,0,0,1-.223-.074c-.074-.074-.074-.149-.074-.3a.568.568,0,0,1,.149-.372,2.092,2.092,0,0,0,.372-.818,5.778,5.778,0,0,0,.149-1.19C123.169,265.083,123.244,265.008,123.244,265.008Zm3.718-3.57.149-.149.149-.149c.074-.074.074-.149.149-.149l.074-.074a.679.679,0,0,1,.372.223,1.264,1.264,0,0,1,.446.446.23.23,0,0,1,.074.149c0,.074,0,.074-.074.149a.273.273,0,0,1-.223.074h-1.562a.263.263,0,0,0-.3.3v.892a.263.263,0,0,0,.3.3h.446a.568.568,0,0,0,.372-.149l.074-.074.149-.149.149-.149a.679.679,0,0,1,.372.223,1.262,1.262,0,0,1,.446.446c0,.074.074.074.074.149a.16.16,0,0,1-.149.149l-.074.074c-.149,0-.223.149-.3.3a17.5,17.5,0,0,1-.372,2.826,2.248,2.248,0,0,1-.669,1.339,1.633,1.633,0,0,1-.892.372h-.074c-.074,0-.149,0-.149-.074a.273.273,0,0,1-.074-.223c0-.149-.074-.223-.149-.372a1.594,1.594,0,0,0-.521-.3c-.149,0-.223-.074-.223-.149s.074-.074.3-.074c.446,0,.744.074.892.074h.223l.149-.074a2.028,2.028,0,0,0,.372-1.041c.074-.521.223-1.413.3-2.38h0c0-.223-.074-.3-.3-.3h-2.454a.263.263,0,0,0-.3.3v.149c0,.074-.074.074-.223.223a1.074,1.074,0,0,1-.521.149.263.263,0,0,1-.3-.3c.074-.818.074-1.71.149-2.677v-1.487a22.651,22.651,0,0,0-.149-2.38v-.074c0-.149.074-.223.149-.223h.149l.669.3a.558.558,0,0,0,.372.074h2.231c.149,0,.223-.074.372-.149l.149-.223.149-.149c.074-.074.074-.149.149-.149l.074-.074c.074,0,.223.074.446.3l.521.521c0,.074.074.074.074.149s0,.149-.074.149-.149.074-.223.074h-1.859a.263.263,0,0,0-.3.3v.892a.263.263,0,0,0,.3.3h.3c.149,0,.223-.074.372-.149l.074-.149a.26.26,0,0,0,.074-.149.16.16,0,0,1,.149-.149l.074-.074a1.332,1.332,0,0,1,.521.372c.223.223.372.372.372.521s-.149.223-.3.223h-1.636a.263.263,0,0,0-.3.3v.892a.263.263,0,0,0,.3.3h.223A2.033,2.033,0,0,1,126.962,261.439Zm-2.975,3.57c0-.074,0-.149.074-.149h0c.074,0,.149.074.223.149a2.735,2.735,0,0,1,.595,1.562,1.4,1.4,0,0,1-.149.595.4.4,0,0,1-.3.223c-.074,0-.074,0-.149-.074a.437.437,0,0,1-.149-.372c0-.223.074-.372.074-.595a10.451,10.451,0,0,0-.149-1.339C123.987,265.157,123.987,265.083,123.987,265.008Zm1.264-5.354a.273.273,0,0,0,.074-.223v-.892a.263.263,0,0,0-.3-.3h-.595a.263.263,0,0,0-.3.3v.892a.263.263,0,0,0,.3.3h.595A.273.273,0,0,0,125.251,259.654Zm-1.041,1.859a.273.273,0,0,0,.223.074h.595a.263.263,0,0,0,.3-.3V260.4a.263.263,0,0,0-.3-.3h-.595a.263.263,0,0,0-.3.3v.892C124.136,261.364,124.21,261.439,124.21,261.513Zm1.041.521a.273.273,0,0,0-.223-.074h-.595a.263.263,0,0,0-.3.3v.892a.263.263,0,0,0,.3.3h.595a.263.263,0,0,0,.3-.3v-.892C125.326,262.182,125.251,262.108,125.251,262.034Zm-.446,2.677h0a.273.273,0,0,1,.223.074,3.244,3.244,0,0,1,.669.818,1.662,1.662,0,0,1,.223.744.557.557,0,0,1-.074.372.386.386,0,0,1-.3.149H125.4c-.074,0-.149-.149-.149-.3a5.052,5.052,0,0,0-.446-1.562C124.731,264.785,124.731,264.711,124.805,264.711Zm.744-.3c0-.074,0-.074.074-.074a.273.273,0,0,1,.223.074,1.73,1.73,0,0,1,.818.521.989.989,0,0,1,.223.595c0,.149,0,.223-.074.3s-.149.149-.223.149h-.074c-.074,0-.074-.074-.149-.074,0-.074-.074-.074-.074-.149a3.729,3.729,0,0,0-.595-1.041C125.623,264.562,125.549,264.488,125.549,264.413Zm7.362-6.618.074-.149.149-.149c.074-.074.074-.149.149-.149l.074-.074c.074,0,.223.074.446.3a3.358,3.358,0,0,1,.521.521c0,.074.074.074.074.149s0,.149-.074.149-.074.074-.149.074c-.149.074-.223.149-.223.3v1.264c0,.967.074,1.859.074,2.751v.074a.387.387,0,0,1-.149.3.569.569,0,0,1-.372.149.808.808,0,0,1-.372.074c-.074,0-.149,0-.149-.074s-.074-.074-.074-.149v-.3a.263.263,0,0,0-.3-.3h-1.264a.263.263,0,0,0-.3.3,11.922,11.922,0,0,0,1.264,3.123,6.45,6.45,0,0,0,2.008,2.008.916.916,0,0,1,.223.149.073.073,0,0,1-.074.074c-.074,0-.074.074-.149.074a1.378,1.378,0,0,0-.521.595q-.112.223-.223.223a.23.23,0,0,1-.149-.074,5.421,5.421,0,0,1-1.71-2.454,14.969,14.969,0,0,1-.967-3.718.32.32,0,0,0-.3-.3h-.149c-.223,0-.3.074-.3.3a16.438,16.438,0,0,1-.521,3.5,6.352,6.352,0,0,1-1.71,2.751c-.074.074-.149.149-.223.149s-.074,0-.074-.074a.367.367,0,0,1,.074-.223,7.28,7.28,0,0,0,1.19-3.049,29.241,29.241,0,0,0,.3-3.867V259.8a14.965,14.965,0,0,0-.074-1.934v-.074c0-.149.074-.223.149-.223h.149l.744.3a.447.447,0,0,0,.3.074h2.082A.711.711,0,0,0,132.911,257.795Zm-2.751.595a.273.273,0,0,0-.074.223v3.272a.263.263,0,0,0,.3.3h2.231a.263.263,0,0,0,.3-.3v-3.272a.263.263,0,0,0-.3-.3h-2.231C130.308,258.315,130.234,258.39,130.16,258.39Z" transform="translate(-122.5 -257.2)" fill="#efefef"/>
        </g>
        <g id="グループ_4" data-name="グループ 4" transform="translate(45.808 0.075)">
          <path id="パス_4" data-name="パス 4" d="M153.014,259.18l.223-.3c.074-.074.074-.149.149-.223s.074-.149.149-.223.074-.074.149-.074.223.149.521.372a2.187,2.187,0,0,1,.595.595c.074.074.074.074.074.149s0,.074-.074.149a.273.273,0,0,1-.223.074h-9.37a15.745,15.745,0,0,0-1.785.149h-.074a.386.386,0,0,1-.3-.149l-.074-.074a.26.26,0,0,0-.074-.149c0-.074,0-.074.074-.149s.074-.074.223,0c.3,0,.744.074,1.413.074h2.305c-.074,0-.074-.074-.149-.074,0-.074-.074-.074-.074-.223a3.628,3.628,0,0,0-.446-.967l-.669-.892a.921.921,0,0,0-.149-.223.073.073,0,0,1,.074-.074h.223a3.124,3.124,0,0,1,1.487.818,1.6,1.6,0,0,1,.446.967,1.057,1.057,0,0,1-.149.446.23.23,0,0,0-.074.149.26.26,0,0,0,.149.074h1.785c.149,0,.223,0,.3-.074a5.757,5.757,0,0,0,.521-1.19c.149-.446.3-.818.372-1.115a.2.2,0,0,1,.223-.223h.149c.818.223,1.264.446,1.264.521a.26.26,0,0,1-.149.074h-.074a1.027,1.027,0,0,0-.3.223,11.353,11.353,0,0,1-1.339,1.339c-.074.074-.149.149-.149.223s0,.074.074.074.074.074.149.074h2.008C152.79,259.328,152.939,259.328,153.014,259.18Zm-7.883,6.544a.273.273,0,0,0-.074.223v.744c0,.818.074,1.413.074,1.785v.074a.273.273,0,0,1-.074.223,1.625,1.625,0,0,1-.372.223.943.943,0,0,1-.446.074.263.263,0,0,1-.3-.3c0-.521.074-1.041.074-1.562s.074-1.115.074-1.933V263.2a22.681,22.681,0,0,0-.149-2.38v-.074c0-.149.074-.223.149-.223h.149l.669.3a.447.447,0,0,0,.3.074h1.636c.149,0,.223-.074.372-.149l.074-.149.149-.149.149-.149c.074,0,.223.074.446.3a4.121,4.121,0,0,1,.595.446c0,.074.074.074.074.149a.16.16,0,0,1-.149.149c-.074,0-.074.074-.149.074-.149.074-.223.149-.223.3v5.875a1.586,1.586,0,0,1-.223.892c-.149.223-.372.3-.818.372h-.074c-.149,0-.223-.074-.3-.223a1.057,1.057,0,0,0-.149-.446,1.119,1.119,0,0,0-.595-.3c-.149-.074-.223-.074-.223-.149s.074-.074.3-.074c.372,0,.669.074.818.074.074,0,.149,0,.149-.074s.074-.074.074-.223v-1.785a.263.263,0,0,0-.3-.3h-1.71C145.28,265.649,145.205,265.649,145.131,265.724Zm2.157-2.677a.273.273,0,0,0,.074-.223v-1.041a.263.263,0,0,0-.3-.3h-1.71a.263.263,0,0,0-.3.3v1.041a.263.263,0,0,0,.3.3h1.71A.273.273,0,0,0,147.287,263.047Zm-2.157.521a.273.273,0,0,0-.074.223v1.19a.263.263,0,0,0,.3.3h1.71a.263.263,0,0,0,.3-.3v-1.19a.263.263,0,0,0-.3-.3h-1.71C145.28,263.493,145.205,263.567,145.131,263.567Zm4.834,0a21.4,21.4,0,0,0-.149-2.38v-.074a.2.2,0,0,1,.223-.223h.149q1.115.335,1.115.446l-.149.149h-.074a.409.409,0,0,0-.223.372v1.562c0,.967.074,1.934.074,2.975v.074a.386.386,0,0,1-.149.3.568.568,0,0,1-.372.149.808.808,0,0,1-.372.074.263.263,0,0,1-.3-.3,12.1,12.1,0,0,0,.074-1.785v-1.339Zm2.751-.3a21.425,21.425,0,0,0-.149-2.38v-.074a.2.2,0,0,1,.223-.223h.074q1.115.335,1.115.446l-.149.149h-.074a.344.344,0,0,0-.223.372v6.172a1.651,1.651,0,0,1-.074.669.992.992,0,0,1-.372.446,1.2,1.2,0,0,1-.818.223H152.2c-.149,0-.223-.074-.3-.223a1.211,1.211,0,0,0-.223-.446,1.749,1.749,0,0,0-.892-.3c-.149-.074-.3-.074-.3-.149s.074-.074.223-.074a5.077,5.077,0,0,1,.892.074h.521a.273.273,0,0,0,.223-.074c.074-.074.074-.074.074-.223V263.27Z" transform="translate(-142.9 -256.8)" fill="#efefef"/>
        </g>
        <g id="グループ_5" data-name="グループ 5" transform="translate(60.31 0.224)">
          <path id="パス_5" data-name="パス 5" d="M171.7,259.975l.074-.149.149-.149c.074-.074.074-.149.149-.149a.073.073,0,0,0,.074-.074c.074,0,.223.074.521.3a4.84,4.84,0,0,1,.595.521.23.23,0,0,1,.074.149c0,.074,0,.149-.074.149a.273.273,0,0,1-.223.074c-.149.074-.223.149-.223.3v3.941a.073.073,0,0,0,.074.074q.112,0,.223-.223l.149-.223c0-.074.074-.149.149-.223s.074-.149.149-.149a.073.073,0,0,0,.074-.074c.074,0,.223.074.446.3l.521.521a.26.26,0,0,1,.074.149c0,.074,0,.074-.074.149a.273.273,0,0,1-.223.074h-1.264a.263.263,0,0,0-.3.3v2.008a1.65,1.65,0,0,1-.074.669,1.972,1.972,0,0,1-.372.446,2.07,2.07,0,0,1-.892.3H171.4c-.149,0-.223-.074-.3-.223-.074-.223-.149-.446-.3-.52a2.357,2.357,0,0,0-1.041-.372c-.149,0-.3-.074-.3-.149s.074-.074.223-.074a6.072,6.072,0,0,1,1.041.074,4.006,4.006,0,0,1,.595.074c.149,0,.223,0,.3-.074a.273.273,0,0,0,.074-.223v-1.859a.263.263,0,0,0-.3-.3h-5.8a.263.263,0,0,0-.3.3v.892c0,.892.074,1.562.074,2.008v.074a.447.447,0,0,1-.074.3,1.119,1.119,0,0,1-.818.3.263.263,0,0,1-.3-.3c.074-.744.074-1.487.074-2.231V265.7a.263.263,0,0,0-.3-.3h-.3c-.223,0-.446.074-.744.074h-.149c-.074,0-.223-.074-.223-.149l-.074-.074c0-.074-.074-.074-.074-.149,0-.149.074-.149.223-.149a4.269,4.269,0,0,1,.892.074h.3a.263.263,0,0,0,.3-.3V262.28a22.66,22.66,0,0,0-.149-2.38v-.074c0-.149.074-.223.149-.223h.149l.818.372a.447.447,0,0,0,.3.074h2.008a.263.263,0,0,0,.3-.3v-1.19a.263.263,0,0,0-.3-.3h-2.454a15.713,15.713,0,0,0-1.785.149h-.074a.386.386,0,0,1-.3-.149l-.074-.074c0-.074-.074-.074-.074-.149s0-.074.074-.149.074-.074.223,0c.3,0,.744.074,1.413.074h7.436a.386.386,0,0,0,.3-.149l.223-.3c.074-.074.074-.149.149-.223s.074-.149.149-.223.074-.074.149-.074.223.149.521.372a6.073,6.073,0,0,1,.669.595c.074.074.074.074.074.149s0,.074-.074.149-.149.074-.3.074h-4.611a.263.263,0,0,0-.3.3v1.19a.263.263,0,0,0,.3.3H171.1C171.472,260.123,171.621,260.123,171.7,259.975ZM167.9,262.5a.273.273,0,0,0,.074-.223v-1.487a.263.263,0,0,0-.3-.3h-2.008a.263.263,0,0,0-.3.3v1.487a.263.263,0,0,0,.3.3h2.008A.273.273,0,0,0,167.9,262.5Zm0,.521a.273.273,0,0,0-.223-.074h-2.008a.263.263,0,0,0-.3.3v1.562a.263.263,0,0,0,.3.3h2.008a.263.263,0,0,0,.3-.3v-1.562C167.977,263.172,167.9,263.1,167.9,263.023Zm3.718-.521a.273.273,0,0,0,.074-.223v-1.487a.263.263,0,0,0-.3-.3h-2.157a.263.263,0,0,0-.3.3v1.487a.263.263,0,0,0,.3.3H171.4C171.547,262.577,171.621,262.577,171.621,262.5Zm-2.528.521a.273.273,0,0,0-.074.223v1.562a.263.263,0,0,0,.3.3h2.157a.263.263,0,0,0,.3-.3v-1.562a.263.263,0,0,0-.3-.3h-2.157C169.242,262.949,169.167,263.023,169.093,263.023Z" transform="translate(-162.4 -257)" fill="#efefef"/>
        </g>
        <g id="グループ_6" data-name="グループ 6" transform="translate(76.075 0.223)">
          <path id="パス_6" data-name="パス 6" d="M187.169,257.595l.074-.149a.26.26,0,0,0,.074-.149l.149-.149.074-.074c.074,0,.223.074.446.3a3.231,3.231,0,0,1,.521.446c0,.074.074.074.074.149s-.074.149-.149.223h-.074c-.149.074-.223.149-.223.3v.892c0,.892.074,1.487.074,2.008v.074a.386.386,0,0,1-.149.3,1.623,1.623,0,0,1-.372.223.808.808,0,0,1-.372.074c-.074,0-.149-.074-.149-.3v-.074a.263.263,0,0,0-.3-.3h-1.859a.263.263,0,0,0-.3.3v3.867c0,.967.074,1.934.074,2.975v.074a.273.273,0,0,1-.074.223,1.622,1.622,0,0,1-.372.223.943.943,0,0,1-.446.074.263.263,0,0,1-.3-.3c0-.52.074-1.041.074-1.562s.074-1.115.074-1.933v-5.354a22.657,22.657,0,0,0-.149-2.38v-.074c0-.149.074-.223.149-.223s.074,0,.149.074l.744.372a.671.671,0,0,0,.372.074h1.859A.4.4,0,0,0,187.169,257.595Zm-.074,1.71a.273.273,0,0,0,.074-.223v-.595a.263.263,0,0,0-.3-.3h-1.859a.263.263,0,0,0-.3.3v.669a.263.263,0,0,0,.3.3h1.859C186.946,259.38,187.021,259.38,187.1,259.305Zm-2.305.52a.273.273,0,0,0-.074.223v.669a.263.263,0,0,0,.3.3h1.859a.263.263,0,0,0,.3-.3v-.669a.263.263,0,0,0-.3-.3h-1.859C184.864,259.751,184.864,259.826,184.79,259.826Zm6.247,5.057.149-.223c0-.074.074-.074.149-.149s.074-.149.149-.149c.074-.074.074-.074.149-.074s.223.074.446.3a2.373,2.373,0,0,1,.446.521.23.23,0,0,1,.074.149c0,.074,0,.074-.074.149a.273.273,0,0,1-.223.074h-1.264a.263.263,0,0,0-.3.3v.669c0,.744.074,1.264.074,1.636v.074a.386.386,0,0,1-.149.3,1.2,1.2,0,0,1-.669.223c-.074,0-.149,0-.149-.074a.273.273,0,0,1-.074-.223,13.22,13.22,0,0,0,.074-1.859v-.744a.263.263,0,0,0-.3-.3h-1.19c-.149,0-.3.074-.3.223a3.487,3.487,0,0,1-.669,1.636,3.634,3.634,0,0,1-1.487,1.264.562.562,0,0,1-.3.074V268.6c0-.074.074-.149.149-.223a4.305,4.305,0,0,0,1.413-2.6V265.7a.2.2,0,0,0-.223-.223h-.3c-.223,0-.446.074-.669.074h-.074a.564.564,0,0,1-.3-.149l-.074-.074c0-.074-.074-.074-.074-.149s0-.074.074-.149.074-.074.223,0a4.642,4.642,0,0,1,.892.074h.3a.273.273,0,0,0,.223-.074c.074-.074.074-.074.074-.149v-1.339a.263.263,0,0,0-.3-.3h-.223c-.223,0-.372.074-.521.074h-.149c-.074,0-.223-.074-.223-.149l-.074-.074c0-.074-.074-.074-.074-.149s0-.074.074-.149.074-.074.223,0c.3,0,.744.074,1.413.074h2.975c.149,0,.223-.074.372-.149l.149-.223c0-.074.074-.074.149-.149s.074-.149.149-.149c.074-.074.074-.074.149-.074s.223.074.446.3l.521.521a.26.26,0,0,1,.074.149c0,.074,0,.074-.074.149a.273.273,0,0,1-.223.074h-1.041a.263.263,0,0,0-.3.3v1.339c0,.223.074.3.149.3S190.962,265.031,191.036,264.883Zm-2.826-1.636a.273.273,0,0,0-.074.223v1.339c0,.223.074.3.3.3h.967a.263.263,0,0,0,.3-.3V263.47a.263.263,0,0,0-.3-.3h-.967A.273.273,0,0,0,188.211,263.247Zm2.38-1.636c0,.074-.074.149-.3.223a1.749,1.749,0,0,1-.595.149c-.074,0-.149,0-.149-.074a.273.273,0,0,1-.074-.223c0-.372.074-.744.074-1.264v-.744a16.823,16.823,0,0,0-.074-2.008v-.074c0-.149.074-.223.149-.223h.149l.669.3a.67.67,0,0,0,.372.074h1.934c.149,0,.223-.074.3-.223l.074-.149a.26.26,0,0,0,.074-.149l.149-.149.074-.074c.074,0,.223.074.446.3s.446.372.595.521c0,.074.074.074.074.149a.16.16,0,0,1-.149.149.23.23,0,0,0-.149.074c-.149.074-.223.149-.223.3v9.221a1.292,1.292,0,0,1-.223.892,1.271,1.271,0,0,1-.892.446h-.074c-.149,0-.223-.074-.3-.223-.074-.223-.074-.372-.223-.446a1.5,1.5,0,0,0-.595-.3c-.149,0-.223-.074-.223-.149s.074-.074.223-.074h1.041a.273.273,0,0,0,.223-.074c.074-.074.074-.074.074-.223v-5.949a.263.263,0,0,0-.3-.3h-2.008C190.665,261.462,190.59,261.536,190.59,261.611Zm2.454-2.305a.273.273,0,0,0,.074-.223v-.595a.263.263,0,0,0-.3-.3h-2.008a.263.263,0,0,0-.3.3v.669a.263.263,0,0,0,.3.3h2.008C192.97,259.38,193.044,259.38,193.044,259.305Zm-2.38.52a.273.273,0,0,0-.074.223v.669a.263.263,0,0,0,.3.3H192.9a.263.263,0,0,0,.3-.3v-.669a.263.263,0,0,0-.3-.3h-2.008C190.813,259.751,190.739,259.826,190.665,259.826Z" transform="translate(-183.6 -257)" fill="#efefef"/>
        </g>
        <g id="グループ_7" data-name="グループ 7" transform="translate(90.724 0.075)">
          <path id="パス_7" data-name="パス 7" d="M212.67,264.385l.223-.3a.92.92,0,0,0,.149-.223c.074-.149.149-.149.149-.223.074-.074.074-.074.149-.074s.223.149.521.372a4.413,4.413,0,0,1,.595.595.23.23,0,0,1,.074.149c0,.074,0,.074-.074.149a.273.273,0,0,1-.223.074H211.48a.263.263,0,0,0-.3.3v2.305c0,.149,0,.223.074.223a.557.557,0,0,0,.372.074h2.008a.386.386,0,0,0,.3-.149,6.617,6.617,0,0,0,.372-1.339c0-.149.074-.223.149-.223s.074.074.074.3v1.115c0,.149.074.223.223.372a.422.422,0,0,1,0,.744,3.47,3.47,0,0,1-.669.223,8.123,8.123,0,0,1-1.487.074h-1.339a2.541,2.541,0,0,1-.818-.074.743.743,0,0,1-.372-.3,1.45,1.45,0,0,1-.074-.6v-2.6a.263.263,0,0,0-.3-.3h-1.339c-.149,0-.3.074-.3.223a4.54,4.54,0,0,1-1.115,2.231,6.942,6.942,0,0,1-2.975,1.636c-.074,0-.149.074-.223.074s-.074,0-.149-.074h0q0-.111.223-.223a6.684,6.684,0,0,0,2.231-1.636,4.321,4.321,0,0,0,.967-1.933v-.074c0-.149-.074-.223-.3-.223h-.744a14.513,14.513,0,0,0-1.71.149h-.074a.386.386,0,0,1-.3-.149l-.074-.074c0-.074-.074-.074-.074-.149s0-.074.074-.149c.074,0,.074-.074.223,0,.3,0,.744.074,1.413.074H206.8c.223,0,.3-.074.3-.223v-1.71a.263.263,0,0,0-.3-.3h-.744a.386.386,0,0,1-.3-.149.073.073,0,0,0-.074-.074.273.273,0,0,0-.223.074,10.887,10.887,0,0,1-1.859.967c-.074,0-.149.074-.223.074s-.074,0-.074-.074v-.074q0-.112.223-.223a10.042,10.042,0,0,0,2.38-1.933,9.206,9.206,0,0,0,1.636-2.528v-.149c0-.074,0-.149-.074-.149s-.074-.074-.223-.074h-.595a11.1,11.1,0,0,0-1.562.149h-.074a.386.386,0,0,1-.3-.149l-.074-.074c0-.074-.074-.074-.074-.149s0-.074.074-.149c.074,0,.074-.074.223,0,.3,0,.744.074,1.413.074h1.19c.149,0,.223-.074.372-.149l.149-.149a.92.92,0,0,0,.149-.223c.074-.074.149-.149.223-.149s.223.074.446.3l.521.521a.26.26,0,0,0,.074.149.16.16,0,0,1-.149.149H209.1c-.149,0-.223.074-.3.223a9.939,9.939,0,0,1-2.454,3.123c-.074.074-.149.149-.149.223s0,.074.074.074.074.074.149.074h4.239c.149,0,.223-.074.3-.223l.149-.223c0-.074.074-.149.149-.223s.074-.149.149-.149a.073.073,0,0,0,.074-.074c.074,0,.149.074.372.223l.446.446a1.282,1.282,0,0,1,.223.3c0,.149-.149.223-.3.223h-.892a.263.263,0,0,0-.3.3v1.71a.263.263,0,0,0,.3.3h.967C212.447,264.534,212.521,264.534,212.67,264.385Zm-8.478-5.429c0-.074-.074-.074,0-.074h.223a2.8,2.8,0,0,1,1.339.595,1.027,1.027,0,0,1,.446.818,1.058,1.058,0,0,1-.149.446c-.074.149-.223.149-.372.149a.273.273,0,0,1-.223-.074c-.149-.074-.223-.149-.223-.3a6.9,6.9,0,0,0-.372-.744c-.149-.223-.372-.446-.521-.669C204.267,259.031,204.267,258.957,204.192,258.957Zm4.016,3.421a.273.273,0,0,0-.074.223v1.71c0,.223.074.3.3.3H209.7a.263.263,0,0,0,.3-.3V262.6a.263.263,0,0,0-.3-.3h-1.264A.273.273,0,0,0,208.208,262.377Zm4.462-1.934c0,.074.074.149.149.223a10.431,10.431,0,0,0,2.231,1.115.921.921,0,0,1,.223.149l-.074.074a.26.26,0,0,1-.149.074,1.152,1.152,0,0,0-.595.595c-.074.149-.149.149-.223.149s-.074,0-.149-.074a8.3,8.3,0,0,1-2.752-2.305,10.177,10.177,0,0,1-1.71-3.346v-.149c0-.074,0-.149.074-.149h0q.112,0,.223.223a5.35,5.35,0,0,0,.892,1.562c.074.074.149.149.223.149a.273.273,0,0,0,.223-.074,7.818,7.818,0,0,0,1.041-1.487c.074-.074.149-.149.223-.149a.273.273,0,0,1,.223.074c.595.372.892.669.892.744a.259.259,0,0,1-.149.074h-.074a.386.386,0,0,0-.3.149c-.595.372-1.115.744-1.562.967-.074.074-.149.149-.149.223a.273.273,0,0,0,.074.223l.669.669a.372.372,0,0,0,.446,0,6.953,6.953,0,0,0,1.19-1.487c.074-.074.149-.149.223-.149a.273.273,0,0,1,.223.074c.595.446.892.669.892.818a.26.26,0,0,1-.149.074H214.9c-.149,0-.223.074-.3.074a10.8,10.8,0,0,1-1.636.892C212.67,260.3,212.67,260.369,212.67,260.444Z" transform="translate(-203.3 -256.8)" fill="#efefef"/>
        </g>
        <g id="グループ_8" data-name="グループ 8" transform="translate(105.523 3.123)">
          <path id="パス_8" data-name="パス 8" d="M233.611,265.585a3.015,3.015,0,0,1,.669.372.538.538,0,0,1,.3.446.386.386,0,0,1-.149.3.557.557,0,0,1-.372.074.67.67,0,0,1-.372-.074,12.217,12.217,0,0,0-2.975-.3,16.186,16.186,0,0,0-1.859.074,19.433,19.433,0,0,0-3.123.521c-.149,0-.223.074-.372.149a2.3,2.3,0,0,1-.595.149,1.662,1.662,0,0,1-.744-.223,2,2,0,0,1-.595-.521.989.989,0,0,1-.223-.521v-.074h.074c.074,0,.074,0,.223.074a.259.259,0,0,1,.149.074,2.2,2.2,0,0,0,.744.149c.149,0,1.413-.149,3.644-.372a.32.32,0,0,0,.3-.3c.074-1.19.149-1.934.149-2.305v-.372a.643.643,0,0,0-.223-.446.568.568,0,0,0-.372-.149l-1.041.223c-.149,0-.372.074-.446.074a.8.8,0,0,1-.446-.149c-.074,0-.074-.074-.149-.074s-.149,0-.149-.074c-.149-.074-.223-.074-.3-.223a1.029,1.029,0,0,1-.223-.3.273.273,0,0,1-.074-.223c0-.074,0-.074.074-.074.149,0,.3.074.446.074h.372a7.214,7.214,0,0,0,1.264-.074,11.719,11.719,0,0,0,1.71-.223c.818-.149,1.487-.223,1.71-.3a1.451,1.451,0,0,1,.521-.074,1.1,1.1,0,0,1,.521.074.671.671,0,0,0,.372.074.386.386,0,0,1,.3.149l.223.223v.074a.16.16,0,0,1-.149.149c-.074,0-.149.074-.3.074a3.334,3.334,0,0,0-.818.074,1.962,1.962,0,0,1-.521.074c-.3,0-.669.074-1.19.074-.149,0-.223.074-.223.149s.074.149.149.223c.149.149.3.3.3.372a.273.273,0,0,1-.074.223.564.564,0,0,0-.149.3,10.113,10.113,0,0,0-.223,2.008h0a.263.263,0,0,0,.3.3c.892-.074,1.487-.149,1.785-.149a4.574,4.574,0,0,0,.967-.074,2.932,2.932,0,0,0,.446-.149,1.105,1.105,0,0,1,.446-.074C233.165,265.436,233.388,265.511,233.611,265.585Z" transform="translate(-223.2 -260.9)" fill="#efefef"/>
        </g>
        <g id="グループ_9" data-name="グループ 9" transform="translate(118.462 1.116)">
          <path id="パス_9" data-name="パス 9" d="M240.6,269.057a.921.921,0,0,1,.223-.149,9.336,9.336,0,0,0,2.751-2.157,6.748,6.748,0,0,0,1.264-2.528,14.3,14.3,0,0,0,.3-3.346,8.6,8.6,0,0,0-.074-1.264,1.257,1.257,0,0,0-.3-.892.564.564,0,0,0-.3-.149.26.26,0,0,1-.149-.074l-.074-.074c0-.074.074-.149.223-.149a1.1,1.1,0,0,1,.521-.074h.372a3.03,3.03,0,0,1,.818.446c.3.223.372.372.372.521a.562.562,0,0,1-.074.3c0,.074-.074.149-.074.3,0,.074-.074.149-.074.3V261.4a11.55,11.55,0,0,1-.521,3.495,4.959,4.959,0,0,1-1.636,2.454,10,10,0,0,1-3.2,1.785.671.671,0,0,0-.372-.074Zm1.339-4.759a1.2,1.2,0,0,1-.223-.669,2.786,2.786,0,0,1,.074-.595c0-.372.074-.669.074-.967a10.265,10.265,0,0,0-.149-1.859.771.771,0,0,0-.446-.595.26.26,0,0,1-.149-.074.073.073,0,0,1-.074-.074q0-.112.223-.223a1.075,1.075,0,0,1,.521-.149c.149,0,.223,0,.3.074a2.672,2.672,0,0,1,.669.372.643.643,0,0,1,.223.446v.223a.273.273,0,0,1-.074.223c0,.223-.074.669-.074,1.264v1.041a3.37,3.37,0,0,0,.074.595v.521a1.075,1.075,0,0,1-.149.521.409.409,0,0,1-.372.223A.5.5,0,0,1,241.939,264.3Z" transform="translate(-240.6 -258.2)" fill="#efefef"/>
        </g>
        <g id="グループ_10" data-name="グループ 10" transform="translate(131.699 0.967)">
          <path id="パス_10" data-name="パス 10" d="M267.4,259.19a1.565,1.565,0,0,1,.446.595c0,.074,0,.074-.074.149a1.21,1.21,0,0,1-.446.223l-.372.223c-.3.149-.744.446-1.264.669a14.864,14.864,0,0,1-1.562.744c-.149.074-.223.149-.223.3a1.257,1.257,0,0,1-.149.372c-.074.149-.074.3-.149.446a16.282,16.282,0,0,1-1.636,3.2,7.626,7.626,0,0,1-2.9,2.6.273.273,0,0,1-.223.074c-.074,0-.074,0-.074-.074a.92.92,0,0,0,.149-.223,9.485,9.485,0,0,0,2.157-2.38,12.8,12.8,0,0,0,1.264-2.752,6.933,6.933,0,0,0,.446-1.859.909.909,0,0,0-.223-.669,1.438,1.438,0,0,0-.669-.372.073.073,0,0,1-.074-.074c0-.074.074-.149.223-.149a1.265,1.265,0,0,1,.521-.074,2.2,2.2,0,0,1,.744.149,1.618,1.618,0,0,1,.595.372.68.68,0,0,1,.223.372,1.058,1.058,0,0,0,.446-.149,7.965,7.965,0,0,0,1.339-1.413.481.481,0,0,0,.149-.372q0-.223-.446-.223c-.223,0-.669.074-1.339.149a8.466,8.466,0,0,0-1.71.372,10.6,10.6,0,0,0-1.19.372c-.446.149-.744.223-.967.3a1.85,1.85,0,0,1-.595.074,1.2,1.2,0,0,1-.744-.3,2.408,2.408,0,0,1-.595-.669c0-.074-.074-.149-.074-.223s0-.149.074-.149a.23.23,0,0,1,.149.074.273.273,0,0,0,.223.074,2.788,2.788,0,0,0,.818.074,3.62,3.62,0,0,0,.892-.074c.446-.074,1.264-.149,2.454-.3a18.5,18.5,0,0,0,2.157-.372c.074,0,.149-.074.446-.149a3.025,3.025,0,0,1,.521-.149c.074,0,.149.074.3.149A6.846,6.846,0,0,0,267.4,259.19Z" transform="translate(-258.4 -258)" fill="#efefef"/>
        </g>
        <g id="グループ_11" data-name="グループ 11" transform="translate(145.903 0.223)">
          <path id="パス_11" data-name="パス 11" d="M286.2,260.718a1.065,1.065,0,0,1,.372.818,1.125,1.125,0,0,1-.521,1.041,5.567,5.567,0,0,1-1.487.818l-.6.223a14.644,14.644,0,0,1-1.413.521c-.149.074-.223.149-.223.3v1.487a1.057,1.057,0,0,1-.149.446.409.409,0,0,1-.372.223c-.149,0-.223-.074-.372-.149-.074-.149-.149-.223-.149-.372a3.365,3.365,0,0,1,.074-.595v-.372c0-.149-.074-.223-.149-.223s-.149,0-.149.074c-.818.521-1.264,1.041-1.264,1.636,0,.669.669.967,1.933.967a1.848,1.848,0,0,0,.669-.074,2.168,2.168,0,0,0,.669-.149,1,1,0,0,0,.372-.074,1.265,1.265,0,0,1,.521-.074.628.628,0,0,1,.446.149.568.568,0,0,1,.149.372c0,.3-.223.521-.744.669a5.8,5.8,0,0,1-1.636.223,3.524,3.524,0,0,1-2.231-.521,1.461,1.461,0,0,1-.669-1.264,1.742,1.742,0,0,1,.521-1.264,7.792,7.792,0,0,1,1.413-1.115.4.4,0,0,0,.223-.3v-.223a1.97,1.97,0,0,0-.223-1.041c-.149-.223-.3-.372-.521-.372a1.027,1.027,0,0,0-.818.446c-.223.3-.595.744-.892,1.19l-.149.223a1.283,1.283,0,0,1-.223.3c-.149.149-.223.3-.3.372a.563.563,0,0,1-.3.149.409.409,0,0,1-.372-.223,1.04,1.04,0,0,1,.149-1.264l.223-.223.669-.669a5.238,5.238,0,0,0,.52-.669,11.718,11.718,0,0,0,.967-1.933v-.149c0-.074,0-.074-.074-.149-.074,0-.149-.074-.223,0a4,4,0,0,0-.595.074,2.67,2.67,0,0,1-.818-.149,10.111,10.111,0,0,1-.818-.595l-.074-.074a.073.073,0,0,1,.074-.074.574.574,0,0,1,.223.074,2.2,2.2,0,0,0,.967.149,5.052,5.052,0,0,0,1.413-.223c.149,0,.223-.149.223-.3s.074-.3.074-.446a1.06,1.06,0,0,0-.446-.892c-.074-.074-.074-.074-.074-.149a.273.273,0,0,1,.074-.223c.074-.074.074-.074.223-.074a1.452,1.452,0,0,1,.521.074,1.212,1.212,0,0,1,.446.223c.074.074.074.149.074.372h0a.273.273,0,0,0,.074.223.16.16,0,0,0,.149.149c.149,0,.223.074.372.074s.223,0,.3-.074h.3c.223,0,.3.074.3.223a.643.643,0,0,1-.223.446,4.126,4.126,0,0,1-.595.446,2.381,2.381,0,0,1-.967.372.581.581,0,0,0-.3.3q-.335,1-.669,1.785a.26.26,0,0,1-.074.149c0,.074,0,.074.074.074h.074a3.223,3.223,0,0,0,.372-.074,1.313,1.313,0,0,1,1.413.967.23.23,0,0,1,.074.149c.074,0,.074-.074.149-.149a5.627,5.627,0,0,1,.967-1.487,4.774,4.774,0,0,1,.967-.744,2.182,2.182,0,0,1,1.19-.3C285.68,260.421,285.9,260.57,286.2,260.718Zm-4.982-2.305a.917.917,0,0,0-.149.223c0,.149,0,.223.074.149l.149-.074a.073.073,0,0,0,.074-.074.23.23,0,0,0-.074-.149l-.074-.074Zm3.941,3.569a1.387,1.387,0,0,0,.372-.744c0-.3-.149-.446-.521-.446a1.938,1.938,0,0,0-.818.223,2.323,2.323,0,0,0-.818.669,6.42,6.42,0,0,0-.521.744,7.224,7.224,0,0,0-.372.818c0,.074-.074.149-.074.223v.074h.074l.3-.149c.6-.3,1.041-.52,1.413-.744A1.541,1.541,0,0,0,285.16,261.982Z" transform="translate(-277.5 -257)" fill="#efefef"/>
        </g>
        <g id="グループ_12" data-name="グループ 12" transform="translate(160.999 0.298)">
          <path id="パス_12" data-name="パス 12" d="M299.064,268.106a.073.073,0,0,0-.074.074v.446a.273.273,0,0,1-.074.223,1.625,1.625,0,0,1-.372.223.944.944,0,0,1-.446.074.263.263,0,0,1-.3-.3c0-.521.074-1.041.074-1.562s.075-1.115.075-1.934V260a22.677,22.677,0,0,0-.149-2.38v-.074c0-.149.074-.223.149-.223h.149l.818.372a.671.671,0,0,0,.372.074h5.28c.149,0,.223-.074.372-.149l.149-.149c0-.074.074-.074.149-.149l.149-.149c.074-.074.074-.074.149-.074s.223.074.521.3a4.845,4.845,0,0,1,.595.521c.074.074.074.074.074.149s0,.149-.074.149-.074.074-.223.074c-.149.074-.223.149-.223.3v6.693c0,.967.074,1.934.074,2.975v.074a.386.386,0,0,1-.149.3l-.446.223a.943.943,0,0,1-.446.074h-.074c-.074,0-.149-.149-.149-.3v-.521a.263.263,0,0,0-.3-.3h-5.28C299.139,268.106,299.139,268.106,299.064,268.106Zm5.726-7.065a.273.273,0,0,0,.074-.223v-2.231a.263.263,0,0,0-.3-.3h-5.28a.263.263,0,0,0-.3.3v2.231a.263.263,0,0,0,.3.3h5.28A.273.273,0,0,0,304.79,261.041Zm0,3.272a.273.273,0,0,0,.074-.223v-2.305a.263.263,0,0,0-.3-.3h-5.28a.263.263,0,0,0-.3.3v2.305a.263.263,0,0,0,.3.3h5.28A.273.273,0,0,0,304.79,264.313Zm-5.726.52a.273.273,0,0,0-.074.223v2.38a.263.263,0,0,0,.3.3h5.28a.263.263,0,0,0,.3-.3v-2.38a.263.263,0,0,0-.3-.3h-5.28C299.139,264.759,299.139,264.834,299.064,264.834Z" transform="translate(-297.8 -257.1)" fill="#efefef"/>
        </g>
        <g id="グループ_13" data-name="グループ 13" transform="translate(173.343 0.075)">
          <path id="パス_13" data-name="パス 13" d="M324.439,259.18l.223-.3c.074-.074.074-.149.149-.223s.074-.149.149-.223.074-.074.149-.074.223.149.521.372a2.186,2.186,0,0,1,.595.595c.074.074.074.074.074.149s0,.074-.074.149a.273.273,0,0,1-.223.074h-9.3a15.745,15.745,0,0,0-1.785.149h-.074a.386.386,0,0,1-.3-.149l-.074-.074a.26.26,0,0,0-.074-.149c0-.074,0-.074.074-.149s.074-.074.223,0c.3,0,.744.074,1.413.074h2.305c-.074,0-.074-.074-.149-.074,0-.074-.074-.074-.074-.223a3.627,3.627,0,0,0-.446-.967l-.669-.892a.92.92,0,0,0-.149-.223.073.073,0,0,1,.074-.074h.223a3.124,3.124,0,0,1,1.487.818,1.6,1.6,0,0,1,.446.967,1.057,1.057,0,0,1-.149.446.23.23,0,0,0-.074.149.26.26,0,0,0,.149.074h1.785c.149,0,.223,0,.3-.074a5.759,5.759,0,0,0,.52-1.19c.149-.446.3-.818.372-1.115a.2.2,0,0,1,.223-.223h.149c.818.223,1.264.446,1.264.521a.26.26,0,0,1-.149.074h-.074a1.027,1.027,0,0,0-.3.223,11.349,11.349,0,0,1-1.339,1.339c-.074.074-.149.149-.149.223s0,.074.074.074.074.074.149.074h2.008C324.216,259.328,324.365,259.328,324.439,259.18Zm-7.883,6.544a.273.273,0,0,0-.074.223v.744c0,.818.074,1.413.074,1.785v.074a.273.273,0,0,1-.074.223,1.624,1.624,0,0,1-.372.223.943.943,0,0,1-.446.074.263.263,0,0,1-.3-.3c0-.521.074-1.041.074-1.562s.074-1.115.074-1.933V263.2a22.664,22.664,0,0,0-.149-2.38v-.074c0-.149.074-.223.149-.223h.149l.669.3a.447.447,0,0,0,.3.074h1.636c.149,0,.223-.074.372-.149l.074-.149.149-.149.149-.149c.074,0,.223.074.446.3a4.118,4.118,0,0,1,.595.446c0,.074.074.074.074.149a.16.16,0,0,1-.149.149c-.074,0-.074.074-.149.074-.149.074-.223.149-.223.3v5.875a1.586,1.586,0,0,1-.223.892c-.149.223-.372.3-.818.372h-.074c-.149,0-.223-.074-.3-.223a1.056,1.056,0,0,0-.149-.446,1.119,1.119,0,0,0-.595-.3c-.149-.074-.223-.074-.223-.149s.074-.074.3-.074c.372,0,.669.074.818.074.074,0,.149,0,.149-.074s.074-.074.074-.223v-1.785a.263.263,0,0,0-.3-.3h-1.71C316.705,265.649,316.631,265.649,316.557,265.724Zm2.157-2.677a.273.273,0,0,0,.074-.223v-1.041a.263.263,0,0,0-.3-.3h-1.71a.263.263,0,0,0-.3.3v1.041a.263.263,0,0,0,.3.3h1.71A.273.273,0,0,0,318.713,263.047Zm-2.157.521a.273.273,0,0,0-.074.223v1.19a.263.263,0,0,0,.3.3h1.71a.263.263,0,0,0,.3-.3v-1.19a.263.263,0,0,0-.3-.3h-1.71C316.705,263.493,316.631,263.567,316.557,263.567Zm4.834,0a21.4,21.4,0,0,0-.149-2.38v-.074a.2.2,0,0,1,.223-.223h.149q1.115.335,1.115.446l-.149.149h-.074a.409.409,0,0,0-.223.372v1.562c0,.967.074,1.934.074,2.975v.074a.386.386,0,0,1-.149.3.568.568,0,0,1-.372.149.808.808,0,0,1-.372.074.263.263,0,0,1-.3-.3,12.1,12.1,0,0,0,.074-1.785v-1.339Zm2.751-.3a21.432,21.432,0,0,0-.149-2.38v-.074a.2.2,0,0,1,.223-.223h.074q1.116.335,1.116.446l-.149.149h-.074a.344.344,0,0,0-.223.372v6.172a1.649,1.649,0,0,1-.074.669.992.992,0,0,1-.372.446,1.2,1.2,0,0,1-.818.223h-.074c-.149,0-.223-.074-.3-.223a1.21,1.21,0,0,0-.223-.446,1.749,1.749,0,0,0-.892-.3c-.149-.074-.3-.074-.3-.149s.074-.074.223-.074a5.077,5.077,0,0,1,.892.074h.521a.273.273,0,0,0,.223-.074c.074-.074.074-.074.074-.223V263.27Z" transform="translate(-314.4 -256.8)" fill="#efefef"/>
        </g>
        <g id="グループ_14" data-name="グループ 14" transform="translate(187.919 1.636)">
          <path id="パス_14" data-name="パス 14" d="M334.892,268.493a1.617,1.617,0,0,1-.372-.595,8.238,8.238,0,0,1-.521-3.2,9.272,9.272,0,0,1,.149-1.562,14.411,14.411,0,0,1,.372-1.487,6.017,6.017,0,0,1,.223-.818,2.417,2.417,0,0,0,0-1.19.683.683,0,0,0-.3-.446l-.074-.074a.26.26,0,0,1-.074-.149.073.073,0,0,1,.074-.074.273.273,0,0,1,.223.074,2.03,2.03,0,0,1,.892.669,1.574,1.574,0,0,1,.3,1.041,2.173,2.173,0,0,1-.149.669,6.914,6.914,0,0,1-.372.744,4.405,4.405,0,0,1-.3.595c-.074.223-.149.372-.223.595a4.388,4.388,0,0,0-.149,1.041,1.451,1.451,0,0,0,.074.6c.074.223.074.3.149.3l.149-.149a.23.23,0,0,0,.074-.149l.744-1.487c.074-.074.074-.149.149-.149a.073.073,0,0,1,.074.074l-.074.149a14.04,14.04,0,0,0-.446,1.339,5.019,5.019,0,0,0-.223,1.264,2.059,2.059,0,0,0,.074.669,7.692,7.692,0,0,0,.223.892c.074.3.149.521.149.595a.387.387,0,0,1-.149.3c-.074.074-.149.074-.3.074C335.264,268.716,335.115,268.642,334.892,268.493Zm3.867-.669a1.968,1.968,0,0,1-1.116-1.19.563.563,0,0,1-.074-.3.074.074,0,1,1,.149,0,.073.073,0,0,0,.074.074,3.581,3.581,0,0,0,1.19.6,3.065,3.065,0,0,0,.892.074c.446,0,.967-.074,1.636-.149a1.287,1.287,0,0,0,.521-.074.844.844,0,0,1,.595.223.643.643,0,0,1,.223.446c0,.3-.223.446-.669.595a5.329,5.329,0,0,1-1.636.149A12.535,12.535,0,0,1,338.759,267.824Zm.3-6.841a2.329,2.329,0,0,1-.744-.372,1,1,0,0,1-.446-.521.26.26,0,0,0-.074-.149.073.073,0,0,1,.074-.074.23.23,0,0,1,.149.074.273.273,0,0,0,.223.074,2.375,2.375,0,0,0,1.041.223,4.93,4.93,0,0,0,.967-.074c.372-.074.744-.149,1.041-.223a.562.562,0,0,1,.3-.074,1.075,1.075,0,0,1,.521.149c.149.149.223.223.223.372,0,.223-.223.446-.669.521a4.577,4.577,0,0,1-1.413.149A1.627,1.627,0,0,1,339.057,260.982Z" transform="translate(-334 -258.9)" fill="#efefef"/>
        </g>
        <g id="グループ_15" data-name="グループ 15" transform="translate(203.163 9.37)">
          <path id="パス_15" data-name="パス 15" d="M355.615,270.49a11.412,11.412,0,0,0-.892-.967.259.259,0,0,0-.149-.074l-.074-.074c0-.074,0-.074.074-.074a.273.273,0,0,1,.223.074,5.743,5.743,0,0,1,1.115.446,4.793,4.793,0,0,1,1.19.818,1.273,1.273,0,0,1,.521.967.579.579,0,0,1-.223.52.643.643,0,0,1-.446.223.7.7,0,0,1-.595-.446A8.127,8.127,0,0,0,355.615,270.49Z" transform="translate(-354.5 -269.3)" fill="#efefef"/>
        </g>
      </g>
      <g id="グループ_35" data-name="グループ 35" transform="translate(37.721 124.702)">
        <g id="グループ_16" data-name="グループ 16" transform="translate(0 0.149)">
          <path id="パス_16" data-name="パス 16" d="M372.421,257.816c-.074,0-.149.074-.223.149a12.33,12.33,0,0,1-2.528,2.751,18.22,18.22,0,0,1-3.272,2.231c-.149.074-.3.074-.3,0h0c0-.074.074-.074.149-.223a13.666,13.666,0,0,0,2.008-1.71,16.219,16.219,0,0,0,1.859-2.082,10.041,10.041,0,0,0,1.19-2.008.344.344,0,0,1,.372-.223l1.19.3a.26.26,0,0,1,.149.074c.074.074.074.074.074.149s0,.074-.074.074c-.074.074-.149.149-.149.223a.073.073,0,0,0,.074.074A8.042,8.042,0,0,0,375.1,259.6a22.267,22.267,0,0,0,2.975,1.636.26.26,0,0,1,.149.074l.074.074q0,.112-.223.223a1.152,1.152,0,0,0-.595.595c-.074.149-.149.149-.223.149s-.074,0-.149-.074a17.313,17.313,0,0,1-2.6-2.008,6.922,6.922,0,0,1-1.785-2.454C372.57,257.89,372.5,257.816,372.421,257.816Zm2.38,6.99.149-.223c0-.074.074-.074.149-.149s.074-.149.149-.149c.074-.074.074-.074.149-.074s.223.074.521.3a4.857,4.857,0,0,1,.6.521.23.23,0,0,1,.074.149c0,.074,0,.074-.074.149s-.149.074-.3.074h-3.346a.263.263,0,0,0-.3.3V268a.263.263,0,0,0,.3.3h2.751c.149,0,.223-.074.372-.149l.223-.3c.074-.074.074-.149.149-.223s.074-.149.149-.223.074-.074.149-.074.223.149.52.372a2.184,2.184,0,0,1,.595.595.23.23,0,0,1,.074.149c0,.074,0,.074-.074.149a.273.273,0,0,1-.223.074h-8.775a17.266,17.266,0,0,0-1.785.149h-.074a.386.386,0,0,1-.3-.149l-.074-.149c0-.074-.074-.074-.074-.149s0-.074.074-.149c.074,0,.074-.074.223,0,.3,0,.744.074,1.413.074h3.049a.263.263,0,0,0,.3-.3V265.7a.263.263,0,0,0-.3-.3h-.892a17.278,17.278,0,0,0-1.785.149h-.074a.386.386,0,0,1-.3-.149l-.074-.074c0-.074-.074-.074-.074-.149s0-.074.074-.149c.074,0,.074-.074.223,0,.3,0,.744.074,1.413.074h1.487a.263.263,0,0,0,.3-.3v-1.934a.263.263,0,0,0-.3-.3h-.744a13.359,13.359,0,0,0-1.636.149h-.074a.387.387,0,0,1-.3-.149l-.074-.074c0-.074-.074-.074-.074-.149s0-.074.074-.149c.074,0,.074-.074.223,0,.3,0,.744.074,1.413.074h3.941c.149,0,.223-.074.372-.149l.149-.223c0-.074.074-.074.149-.149s.074-.149.149-.149l.074-.074c.074,0,.223.074.521.3a4.836,4.836,0,0,1,.595.521.23.23,0,0,1,.074.149c0,.074,0,.074-.074.149a.273.273,0,0,1-.223.074h-2.826a.263.263,0,0,0-.3.3v1.934a.263.263,0,0,0,.3.3H374.5C374.578,264.954,374.726,264.954,374.8,264.806Z" transform="translate(-366.1 -256.7)" fill="#efefef"/>
        </g>
        <g id="グループ_17" data-name="グループ 17" transform="translate(15.691 1.636)">
          <path id="パス_17" data-name="パス 17" d="M392.257,262.79a2.473,2.473,0,0,1,.892,1.041,3.017,3.017,0,0,1,.3,1.413,4.785,4.785,0,0,1-.372,1.785,2.539,2.539,0,0,1-1.041,1.264,2.828,2.828,0,0,1-1.636.446,2.745,2.745,0,0,1-1.71-.521,2.843,2.843,0,0,1-1.115-1.487,5.068,5.068,0,0,1-.372-2.157,8.178,8.178,0,0,1,.595-3.2,4.635,4.635,0,0,1,1.413-2.008,2.773,2.773,0,0,1,1.71-.669,3.084,3.084,0,0,1,1.19.223,1.618,1.618,0,0,1,.669.521,1.186,1.186,0,0,1,.223.595.763.763,0,0,1-.744.744.768.768,0,0,1-.595-.3,1.4,1.4,0,0,1-.3-.669,1.075,1.075,0,0,0-.149-.521.629.629,0,0,0-.446-.149,1.54,1.54,0,0,0-1.413,1.115,8.672,8.672,0,0,0-.744,2.751c0,.149.074.223.149.223a1.255,1.255,0,0,0,.372-.149,2.62,2.62,0,0,1,1.71-.669A2.848,2.848,0,0,1,392.257,262.79Zm-.967,5.057a2.742,2.742,0,0,0,.595-1.041,4.331,4.331,0,0,0,.223-1.413,2.419,2.419,0,0,0-.521-1.859,1.823,1.823,0,0,0-1.19-.446,1.636,1.636,0,0,0-.967.3,2.686,2.686,0,0,0-.818.967.557.557,0,0,0-.074.372,6.03,6.03,0,0,0,.446,2.454,1.517,1.517,0,0,0,1.487,1.041A1.194,1.194,0,0,0,391.29,267.847Z" transform="translate(-387.2 -258.7)" fill="#efefef"/>
        </g>
        <g id="グループ_18" data-name="グループ 18" transform="translate(25.507 1.636)">
          <path id="パス_18" data-name="パス 18" d="M405.457,262.79a2.474,2.474,0,0,1,.892,1.041,3.018,3.018,0,0,1,.3,1.413,4.788,4.788,0,0,1-.372,1.785,2.539,2.539,0,0,1-1.041,1.264,2.828,2.828,0,0,1-1.636.446,2.744,2.744,0,0,1-1.71-.521,2.844,2.844,0,0,1-1.116-1.487,5.07,5.07,0,0,1-.372-2.157,8.176,8.176,0,0,1,.6-3.2,4.635,4.635,0,0,1,1.413-2.008,2.773,2.773,0,0,1,1.71-.669,3.084,3.084,0,0,1,1.19.223,1.619,1.619,0,0,1,.669.521,1.187,1.187,0,0,1,.223.595.763.763,0,0,1-.744.744.768.768,0,0,1-.595-.3,1.4,1.4,0,0,1-.3-.669,1.075,1.075,0,0,0-.149-.521.629.629,0,0,0-.446-.149,1.54,1.54,0,0,0-1.413,1.115,8.674,8.674,0,0,0-.744,2.751c0,.149.074.223.149.223a1.256,1.256,0,0,0,.372-.149,2.62,2.62,0,0,1,1.71-.669A3.075,3.075,0,0,1,405.457,262.79Zm-.967,5.057a2.742,2.742,0,0,0,.595-1.041,4.329,4.329,0,0,0,.223-1.413,2.419,2.419,0,0,0-.521-1.859,1.823,1.823,0,0,0-1.19-.446,1.636,1.636,0,0,0-.967.3,2.687,2.687,0,0,0-.818.967.557.557,0,0,0-.074.372,6.03,6.03,0,0,0,.446,2.454,1.517,1.517,0,0,0,1.487,1.041A1.194,1.194,0,0,0,404.49,267.847Z" transform="translate(-400.4 -258.7)" fill="#efefef"/>
        </g>
        <g id="グループ_19" data-name="グループ 19" transform="translate(35.248 0.372)">
          <path id="パス_19" data-name="パス 19" d="M415.657,261.908a.273.273,0,0,0-.074.223v3.049a.263.263,0,0,0,.3.3c.52-.074,1.041-.223,1.562-.3l.446-.074h.149c.074,0,.149,0,.149.074h0c0,.074-.074.074-.223.223-1.041.521-2.231,1.041-3.421,1.562-.074.074-.149.074-.223.149l-.074.074c0,.074-.074.074-.149.074s-.149-.074-.223-.223l-.372-.744v-.149a.2.2,0,0,1,.223-.223l.595-.074c.149,0,.223-.149.223-.3v-5.131a22.681,22.681,0,0,0-.149-2.38v-.074c0-.149.074-.223.149-.223s.074,0,.149.074l.892.446a.273.273,0,0,0,.223.074h.149c.595-.223,1.19-.372,1.71-.595a8.475,8.475,0,0,0,1.413-.669c.074,0,.074-.074.149-.074a.273.273,0,0,1,.223.074,4.9,4.9,0,0,1,.818.892c0,.074-.074.074-.223.074h-.521l-.892.223c-.149,0-.223.149-.3.3v.818a16.83,16.83,0,0,0,.074,1.859.32.32,0,0,0,.3.3h.223c.149,0,.223-.074.372-.223l.149-.223c0-.074.074-.074.149-.149s.074-.149.149-.149a.073.073,0,0,1,.074-.074c.074,0,.223.074.446.3l.521.521a.231.231,0,0,1,.074.149c0,.074,0,.074-.074.149a.273.273,0,0,1-.223.074h-1.71a.263.263,0,0,0-.3.3,7.734,7.734,0,0,0,1.041,3.421c.074.074.074.149.149.149s.074-.074.149-.149c.074-.223.223-.595.372-.967.074-.149.074-.3.149-.223.074,0,.074.074.074.3l-.149,1.339v.074a.562.562,0,0,0,.074.3,3.038,3.038,0,0,1,.149.521.447.447,0,0,1-.074.3.567.567,0,0,1-.372.149.8.8,0,0,1-.521-.223c-.149-.149-.372-.3-.446-.446a10.157,10.157,0,0,1-1.413-4.462.32.32,0,0,0-.3-.3H415.88C415.731,261.834,415.657,261.908,415.657,261.908Zm.372,6.544a10.173,10.173,0,0,0-1.413.149h0a.386.386,0,0,1-.3-.149l-.074-.074c0-.074-.074-.074-.074-.149s0-.074.074-.149c.074,0,.074-.074.223,0,.3,0,.744.074,1.413.074h2.082c.149,0,.223-.074.372-.149l.149-.223c0-.074.074-.074.149-.223a.573.573,0,0,1,.149-.223c.074-.074.074-.074.149-.074s.223.074.521.3a3.356,3.356,0,0,1,.521.521.23.23,0,0,1,.074.149c0,.074,0,.074-.074.149s-.149.074-.3.074Zm1.19-9.965a13.1,13.1,0,0,1-1.413.149.32.32,0,0,0-.3.3v2.231a.263.263,0,0,0,.3.3h1.562c.223,0,.3-.074.3-.3a23.144,23.144,0,0,1-.074-2.38C417.516,258.562,417.441,258.487,417.218,258.487Zm4.908-.149a.273.273,0,0,0-.074.223v7.065c0,.967.074,1.933.074,2.975v.074a.387.387,0,0,1-.149.3,1.354,1.354,0,0,1-.818.3.263.263,0,0,1-.3-.3c0-.521.074-1.041.074-1.562s.074-1.115.074-1.934v-5.5a22.68,22.68,0,0,0-.149-2.38v-.074c0-.149.074-.223.149-.223s.074,0,.149.074l.744.372a.67.67,0,0,0,.372.074h1.264a.567.567,0,0,0,.372-.149l.149-.149.149-.149.149-.149c.074-.074.074-.074.149-.074s.223.149.446.372a3.25,3.25,0,0,1,.521.595c0,.074.074.074.074.149a.16.16,0,0,1-.149.149h-.149c-.074,0-.149.074-.223.074s-.074.074-.149.149c-.223.446-.446.967-.744,1.562s-.521,1.041-.744,1.413a.26.26,0,0,1-.074.149c0,.074.074.149.149.223a5.409,5.409,0,0,1,1.339,1.636,3.564,3.564,0,0,1,.372,1.71,2.464,2.464,0,0,1-.372,1.413,1.656,1.656,0,0,1-1.19.595h-.074c-.149,0-.223-.074-.223-.3a.867.867,0,0,0-.149-.521,1.21,1.21,0,0,0-.446-.223c-.149-.074-.223-.074-.223-.149s.074-.074.3-.074h.892c.074,0,.149-.074.3-.149a1.2,1.2,0,0,0,.223-.818,4.631,4.631,0,0,0-1.115-2.974.273.273,0,0,1-.074-.223v-.149c.3-1.041.595-2.157.818-3.272v-.074c0-.074,0-.149-.074-.149a.273.273,0,0,0-.223-.074h-1.264A.16.16,0,0,1,422.126,258.339Z" transform="translate(-413.5 -257)" fill="#efefef"/>
        </g>
        <g id="グループ_20" data-name="グループ 20" transform="translate(50.27 2.082)">
          <path id="パス_20" data-name="パス 20" d="M441.508,259.821a4.684,4.684,0,0,1,1.933,1.487,4.152,4.152,0,0,1,.744,2.6A3.926,3.926,0,0,1,443,266.96a5.328,5.328,0,0,1-2.677,1.487,8.908,8.908,0,0,1-2.677.372h-.149c-.074,0-.074,0-.074-.074a.259.259,0,0,1,.149-.075,3.22,3.22,0,0,1,.372-.074,6.829,6.829,0,0,0,3.644-1.562,4.158,4.158,0,0,0,1.413-3.2,4.5,4.5,0,0,0-.595-2.38,4.429,4.429,0,0,0-1.562-1.339,5.111,5.111,0,0,0-1.785-.372.4.4,0,0,0-.223.3c.074.223.149.446.223.744a2.79,2.79,0,0,1,.074.744,5.738,5.738,0,0,1-.149,1.116,8.116,8.116,0,0,1-.372,1.264,12.586,12.586,0,0,1-.967,2.008,5.3,5.3,0,0,1-1.115,1.339,1.637,1.637,0,0,1-.892.446,1.273,1.273,0,0,1-.967-.521,2.923,2.923,0,0,1-.669-1.264,5.806,5.806,0,0,1-.3-1.636,4.508,4.508,0,0,1,.818-2.6,5.807,5.807,0,0,1,2.008-1.785,5.348,5.348,0,0,1,2.6-.595A7.962,7.962,0,0,1,441.508,259.821Zm-2.9.223c0-.149-.149-.223-.372-.223a3.928,3.928,0,0,0-1.785.818,4.1,4.1,0,0,0-1.264,1.487,4.429,4.429,0,0,0-.446,2.008,2.962,2.962,0,0,0,.223,1.264,4.032,4.032,0,0,0,.446.818.679.679,0,0,0,.372.223c.223,0,.446-.149.744-.446a7.319,7.319,0,0,0,.892-1.116,10.86,10.86,0,0,0,1.041-2.082,5.545,5.545,0,0,0,.3-1.934C438.682,260.564,438.682,260.267,438.608,260.044Z" transform="translate(-433.7 -259.3)" fill="#efefef"/>
        </g>
        <g id="グループ_21" data-name="グループ 21" transform="translate(64.846 0.223)">
          <path id="パス_21" data-name="パス 21" d="M458.58,262.9l.074-.149c0-.074.074-.074.149-.223s.149-.149.149-.149c.074,0,.223.074.446.3l.521.521c0,.074.074.074.074.149a.16.16,0,0,1-.149.149l-.149.074a.16.16,0,0,0-.149.149c-.074.074-.074.074-.074.223v1.413c0,.967.074,1.933.074,2.9v.074a.386.386,0,0,1-.149.3.568.568,0,0,1-.372.149.807.807,0,0,1-.372.074h-.074c-.074,0-.149-.149-.149-.3V268.1a.263.263,0,0,0-.3-.3h-2.008a.263.263,0,0,0-.3.3v.372a.274.274,0,0,1-.074.223,1.256,1.256,0,0,1-.744.223.263.263,0,0,1-.3-.3c.074-.892.074-1.859.149-2.9v-1.19c0-.074,0-.149-.074-.149,0-.074-.074-.074-.149-.074s-.149,0-.149.074c-.3.149-.595.372-.892.521-.149.074-.223.074-.3,0v-.074a.073.073,0,0,1,.074-.074c0-.074.074-.074.149-.149.446-.3.818-.595,1.19-.892a.568.568,0,0,0,.149-.372v-.595c0-.149.074-.223.149-.223s.074,0,.149.074l.3.149c.074,0,.074.074.149.074a.273.273,0,0,0,.223-.074c.223-.223.372-.446.595-.669l.223-.223a.273.273,0,0,0,.074-.223c0-.074-.074-.149-.223-.149h-.818a17.254,17.254,0,0,0-1.785.149h-.074a.386.386,0,0,1-.3-.149l-.074-.149c0-.074-.074-.074-.074-.149s0-.074.074-.149c.074,0,.074-.074.223,0,.3,0,.744.074,1.339.074h.52a.263.263,0,0,0,.3-.3v-1.339a.263.263,0,0,0-.3-.3h-.372a3.732,3.732,0,0,0-.892.149h-.074c-.149,0-.223-.074-.223-.149l-.074-.074c0-.074-.074-.074-.074-.149,0-.149.074-.149.223-.149a6.079,6.079,0,0,1,1.041.074h.372c.223,0,.3-.074.3-.3,0-.521-.074-1.041-.074-1.487v-.074a.2.2,0,0,1,.223-.223h.074q1.115.335,1.115.446c0,.074-.074.074-.149.149h-.074a.409.409,0,0,0-.223.372v.744a.263.263,0,0,0,.3.3h.074a.386.386,0,0,0,.3-.149l.3-.372c.074-.074.149-.149.223-.149a.273.273,0,0,1,.223.074l.149.149.149.149a.273.273,0,0,0,.223.074c.074,0,.149-.074.223-.149a9.049,9.049,0,0,0,.372-1.041q.112-.223.223-.223c.074,0,.074,0,.149.074.595.3.967.521.967.595a.259.259,0,0,1-.149.074h-.074c-.149,0-.223.074-.3.223a19.077,19.077,0,0,1-1.636,2.6.273.273,0,0,0-.074.223.16.16,0,0,0,.149.149h.149c.149,0,.223-.074.372-.149l.149-.223.149-.149c.074-.074.074-.149.149-.149.074-.074.074-.074.149-.074s.223.074.446.3a3.353,3.353,0,0,1,.521.521.23.23,0,0,1,.074.149c0,.074,0,.074-.074.149a.273.273,0,0,1-.223.074h-2.231a.568.568,0,0,0-.372.149l-.967.967a.273.273,0,0,0-.074.223c0,.074.074.149.223.149h1.115C458.431,263.121,458.505,263.047,458.58,262.9Zm-.074,2.305a.273.273,0,0,0,.074-.223v-1.264a.263.263,0,0,0-.3-.3h-1.934c-.149,0-.223,0-.3.074s-.074.149-.074.3v1.19a.263.263,0,0,0,.3.3h2.008C458.431,265.278,458.505,265.278,458.505,265.2Zm-2.38.521a.273.273,0,0,0-.074.223v1.264a.263.263,0,0,0,.3.3h2.008a.263.263,0,0,0,.3-.3v-1.264a.263.263,0,0,0-.3-.3h-2.008C456.274,265.649,456.2,265.724,456.126,265.724Zm2.38-6.247c0-.074,0-.074-.074-.149-.074,0-.074-.074-.149-.074h-.967a.263.263,0,0,0-.3.3v1.338a.274.274,0,0,0,.074.223c0,.074.074.074.149.074.149,0,.223-.074.372-.149a7.415,7.415,0,0,0,.892-1.413Zm3.644-1.115a.273.273,0,0,0-.074.223v7.065c0,.967.074,1.934.074,2.975v.074a.387.387,0,0,1-.149.3,1.354,1.354,0,0,1-.818.3.263.263,0,0,1-.3-.3c0-.521.074-1.041.074-1.562s.074-1.116.074-1.934v-5.429a19.986,19.986,0,0,0-.149-2.305v-.074c0-.149.074-.223.149-.223s.074,0,.149.074l.818.372a.558.558,0,0,0,.372.074h1.413a.568.568,0,0,0,.372-.149l.149-.149.149-.149c.074-.074.149-.149.223-.149s.223.149.446.372a3.245,3.245,0,0,1,.521.595c0,.074.074.074.074.149a.16.16,0,0,1-.149.149l-.149.074a.409.409,0,0,0-.372.223l-.149.3c-.074.149-.3.521-.595,1.115a14.563,14.563,0,0,1-.892,1.562.23.23,0,0,0-.074.149c0,.074.074.149.149.223a4.762,4.762,0,0,1,1.413,1.636,3.669,3.669,0,0,1,.446,1.71,2.645,2.645,0,0,1-.372,1.413,1.846,1.846,0,0,1-1.264.595h-.074a.2.2,0,0,1-.223-.223,3.228,3.228,0,0,0-.074-.372.2.2,0,0,0-.223-.223,3.222,3.222,0,0,0-.372-.074c-.149,0-.223-.074-.223-.149s.074-.074.3-.074h.818a.67.67,0,0,0,.372-.074,1.076,1.076,0,0,0,.372-.967,4.438,4.438,0,0,0-1.264-2.975.273.273,0,0,1-.074-.223v-.149a23.6,23.6,0,0,0,.967-3.2v-.074a.2.2,0,0,0-.223-.223h-1.413C462.224,258.287,462.149,258.287,462.149,258.362Z" transform="translate(-453.3 -256.8)" fill="#efefef"/>
        </g>
        <g id="グループ_22" data-name="グループ 22" transform="translate(80.685 0.564)">
          <path id="パス_22" data-name="パス 22" d="M476.31,261.305c.074,0,.149.074.149.223a6.63,6.63,0,0,1,.223,1.636,5.8,5.8,0,0,1-.223,1.636,3.947,3.947,0,0,1-.595,1.116c-.149.149-.3.223-.372.3a1.057,1.057,0,0,1-.446.149.568.568,0,0,1-.372-.149.447.447,0,0,1-.074-.3.909.909,0,0,1,.3-.669,3.6,3.6,0,0,0,.967-1.413,5.336,5.336,0,0,0,.446-2.157C476.162,261.379,476.236,261.305,476.31,261.305Zm1.71,1.339a21.408,21.408,0,0,0-.149-2.38v-.074a.2.2,0,0,1,.223-.223h.149c.446.149.744.223.892.3s.223.149.223.223a.23.23,0,0,1-.074.149h-.074c-.149.074-.149.223-.149.372v6.4a.568.568,0,0,0,.149.372c.074.074.3.074.595.074h1.562a6.891,6.891,0,0,0,1.487-.074.273.273,0,0,0,.223-.074c.074,0,.074-.074.149-.149a8.158,8.158,0,0,0,.446-2.008c0-.149.074-.223.149-.223s.074.074.074.3l.074,1.859c0,.074,0,.149.074.149,0,.074.074.074.149.149a.409.409,0,0,1,.223.372.45.45,0,0,1-.223.446,3.7,3.7,0,0,1-.892.223,13.812,13.812,0,0,1-1.933.074h-1.71a3.352,3.352,0,0,1-.967-.074.86.86,0,0,1-.521-.372,1.865,1.865,0,0,1-.149-.744Zm.446-5.354a6.714,6.714,0,0,1,2.157.669,4.1,4.1,0,0,1,1.19.892,1.567,1.567,0,0,1,.372.818,1.058,1.058,0,0,1-.149.446c-.074.149-.223.149-.372.149h-.223c-.074,0-.223-.149-.3-.223a5.42,5.42,0,0,0-1.116-1.264,9.93,9.93,0,0,0-1.71-1.19q-.223-.112-.223-.223C478.244,257.289,478.318,257.215,478.467,257.289Zm5.205,3.941h0c.149-.074.223,0,.3.074a5.566,5.566,0,0,1,1.933,1.71,3.877,3.877,0,0,1,.6,1.785,1.335,1.335,0,0,1-.223.818c-.149.223-.3.372-.446.372s-.223-.074-.372-.149a.387.387,0,0,1-.149-.3,5.9,5.9,0,0,0-.446-2.157,5.5,5.5,0,0,0-1.115-1.934A.575.575,0,0,1,483.672,261.231Z" transform="translate(-474.6 -257.259)" fill="#efefef"/>
        </g>
        <g id="グループ_23" data-name="グループ 23" transform="translate(94.368 1.413)">
          <path id="パス_23" data-name="パス 23" d="M493,268.737a.073.073,0,0,1,.074-.074,17.33,17.33,0,0,0,4.165-2.6,12.185,12.185,0,0,0,2.826-3.941.575.575,0,0,0,.074-.223c0-.074-.074-.074-.149-.074a10.787,10.787,0,0,0-1.636.3c-.967.223-1.636.3-2.082.446-.223.074-.372.074-.446.149s-.223.074-.223.149c-.074.074-.074.074-.149.074a.558.558,0,0,1-.372.074,1.2,1.2,0,0,1-.669-.223,2.262,2.262,0,0,1-.595-.595,1.056,1.056,0,0,1-.149-.446V261.6a.073.073,0,0,1,.074-.074.23.23,0,0,1,.149.074.26.26,0,0,1,.149.074c.149.074.3.074.446.149a2.291,2.291,0,0,0,.744.074h.446c.223,0,.967-.149,2.157-.3,1.19-.223,1.859-.3,2.008-.372a1.151,1.151,0,0,0,.446-.223.26.26,0,0,1,.149-.074.26.26,0,0,0,.149-.074.989.989,0,0,1,.521.223,4.12,4.12,0,0,1,.595.446.643.643,0,0,1,.223.446.273.273,0,0,1-.074.223l-.223.223a4.486,4.486,0,0,0-.6.595,12.259,12.259,0,0,1-3.049,3.644,12.876,12.876,0,0,1-4.759,2.231l-.223-.149Zm2.156-9.073a1.25,1.25,0,0,1-.521-.595c0-.074-.074-.074-.074-.149v-.074h.074a.23.23,0,0,1,.149.074c.074,0,.149.074.223.074a2.528,2.528,0,0,0,.744.074,1.265,1.265,0,0,0,.521-.074c.967-.149,1.636-.3,2.082-.372a.569.569,0,0,0,.372-.149.273.273,0,0,1,.223-.074h.223a1.752,1.752,0,0,1,.595.149,1.335,1.335,0,0,1,.521.372.68.68,0,0,1,.223.372c0,.074-.074.149-.149.223s-.223.074-.446.074h-1.19a9.024,9.024,0,0,0-1.339.074,7.137,7.137,0,0,0-1.116.223,1.847,1.847,0,0,1-.595.074A4.266,4.266,0,0,1,495.156,259.664Z" transform="translate(-493 -258.4)" fill="#efefef"/>
        </g>
        <g id="グループ_24" data-name="グループ 24" transform="translate(107.456 1.264)">
          <path id="パス_24" data-name="パス 24" d="M517.888,258.721a.481.481,0,0,1,.149.372c0,.074,0,.074-.074.149s-.074.074-.149.074a.23.23,0,0,0-.149.074c-.074.074-.149.074-.223.223a18.682,18.682,0,0,1-1.413,1.785.273.273,0,0,0-.074.223.16.16,0,0,0,.149.149c.074,0,.149.074.3.149a.409.409,0,0,1,.223.372.562.562,0,0,1-.074.3,2.563,2.563,0,0,0-.074.669v1.562a23.48,23.48,0,0,0,.074,2.826c0,.223.074.372.074.521,0,.521-.149.744-.446.744a.675.675,0,0,1-.52-.223c-.149-.149-.149-.372-.149-.669v-1.339c0-.669.074-1.115.074-1.413v-2.082a1.452,1.452,0,0,0-.074-.595c0-.074-.074-.149-.223-.149a.273.273,0,0,0-.223.074,17.573,17.573,0,0,1-4.09,2.826.562.562,0,0,1-.3.074c-.074,0-.074,0-.074-.074s.074-.149.3-.3a26.386,26.386,0,0,0,2.975-2.528,15.861,15.861,0,0,0,1.933-2.305,3.449,3.449,0,0,0,.669-1.339.45.45,0,0,0-.223-.446.26.26,0,0,0-.149-.074.073.073,0,0,1-.074-.074c0-.074.074-.074.3-.074a2.213,2.213,0,0,1,1.116.372C517.59,258.423,517.739,258.572,517.888,258.721Z" transform="translate(-510.6 -258.2)" fill="#efefef"/>
        </g>
        <g id="グループ_25" data-name="グループ 25" transform="translate(120.47 2.454)">
          <path id="パス_25" data-name="パス 25" d="M528.1,268.947c0-.074.074-.149.3-.223a13.959,13.959,0,0,0,4.016-2.9,18.151,18.151,0,0,0,2.38-3.049,9.083,9.083,0,0,0,.818-1.859c0-.074-.074-.074-.149-.074s-.446.074-1.115.149-1.338.223-2.082.372-1.339.3-1.859.446a1.45,1.45,0,0,1-.521.075,1.257,1.257,0,0,1-.744-.223,3.231,3.231,0,0,1-.446-.521,1,1,0,0,1-.149-.595.16.16,0,0,1,.149-.149.562.562,0,0,1,.3.074,1.894,1.894,0,0,0,.521.149c.149,0,.3.074.446.074.3,0,1.115-.074,2.38-.149a14.682,14.682,0,0,0,2.454-.3c.149-.074.3-.074.446-.223a2.012,2.012,0,0,1,.6-.223,1.15,1.15,0,0,1,.446.223,2,2,0,0,1,.6.521c.149.223.3.372.3.446a.447.447,0,0,1-.074.3c-.074.074-.149.223-.3.3a4.1,4.1,0,0,0-.521.669,12.988,12.988,0,0,1-2.008,2.975,13.45,13.45,0,0,1-2.528,2.082,19.136,19.136,0,0,1-3.272,1.636.273.273,0,0,1-.223.074Z" transform="translate(-528.1 -259.8)" fill="#efefef"/>
        </g>
        <g id="グループ_26" data-name="グループ 26" transform="translate(134.376 0.371)">
          <path id="パス_26" data-name="パス 26" d="M555.5,260.718a1.066,1.066,0,0,1,.372.818,1.125,1.125,0,0,1-.521,1.041,5.568,5.568,0,0,1-1.487.818l-.595.223a14.642,14.642,0,0,1-1.413.521c-.149.074-.223.149-.223.3v1.487a1.058,1.058,0,0,1-.149.446c-.149.149-.223.223-.372.223s-.223-.074-.372-.149-.149-.223-.149-.372a3.378,3.378,0,0,1,.074-.595v-.372c0-.149-.074-.223-.149-.223s-.149,0-.149.074c-.818.521-1.264,1.041-1.264,1.636,0,.669.669.967,1.933.967a1.849,1.849,0,0,0,.669-.074,2.169,2.169,0,0,0,.669-.149,1,1,0,0,0,.372-.074,1.265,1.265,0,0,1,.521-.074.629.629,0,0,1,.446.149.568.568,0,0,1,.149.372c0,.3-.223.521-.744.669a5.8,5.8,0,0,1-1.636.223,3.523,3.523,0,0,1-2.231-.521,1.461,1.461,0,0,1-.669-1.264,1.742,1.742,0,0,1,.521-1.264,7.8,7.8,0,0,1,1.413-1.115.4.4,0,0,0,.223-.3v-.223a1.969,1.969,0,0,0-.223-1.041c-.149-.223-.3-.372-.52-.372a1.027,1.027,0,0,0-.818.446c-.223.3-.6.744-.892,1.19l-.149.223a1.288,1.288,0,0,1-.223.3,1.622,1.622,0,0,1-.3.372.563.563,0,0,1-.3.149.409.409,0,0,1-.372-.223,1.073,1.073,0,0,1-.149-.521,1.184,1.184,0,0,1,.372-.744l.223-.223.669-.669a2.314,2.314,0,0,0,.521-.669,11.708,11.708,0,0,0,.967-1.933v-.149c0-.074,0-.074-.074-.149-.074,0-.149-.074-.223,0a4,4,0,0,0-.595.074,2.67,2.67,0,0,1-.818-.149c-.223-.149-.446-.3-.818-.595l-.074-.074a.073.073,0,0,1,.074-.074.574.574,0,0,1,.223.074,2.2,2.2,0,0,0,.967.149,5.051,5.051,0,0,0,1.413-.223c.149,0,.223-.149.223-.3s.074-.3.074-.446a1.06,1.06,0,0,0-.446-.892c-.074-.074-.074-.074-.074-.149a.273.273,0,0,1,.074-.223c.074-.074.074-.074.223-.074a1.452,1.452,0,0,1,.521.074,1.21,1.21,0,0,1,.446.223c.074.074.074.149.074.372h0a.274.274,0,0,0,.074.223.16.16,0,0,0,.149.149c.149,0,.223.074.372.074s.223,0,.3-.074h.3c.223,0,.3.074.3.223a.642.642,0,0,1-.223.446,4.124,4.124,0,0,1-.595.446,2.382,2.382,0,0,1-.967.372.58.58,0,0,0-.3.3q-.335,1-.669,1.785a.26.26,0,0,1-.074.149c0,.074,0,.074.074.074h.074a3.222,3.222,0,0,0,.372-.074,1.313,1.313,0,0,1,1.413.967.23.23,0,0,1,.074.149c.074,0,.074-.074.149-.149a5.631,5.631,0,0,1,.967-1.487,4.782,4.782,0,0,1,.967-.744,2.182,2.182,0,0,1,1.19-.3A4.994,4.994,0,0,0,555.5,260.718Zm-4.983-2.305a.918.918,0,0,0-.149.223c0,.149,0,.223.074.149l.149-.074a.073.073,0,0,0,.074-.074.23.23,0,0,0-.074-.149l-.075-.074Zm3.941,3.569a1.387,1.387,0,0,0,.372-.744c0-.3-.149-.446-.521-.446a1.939,1.939,0,0,0-.818.223,2.323,2.323,0,0,0-.818.669,6.423,6.423,0,0,0-.521.744,7.223,7.223,0,0,0-.372.818c0,.074-.074.149-.074.223v.074h.074l.3-.149c.595-.3,1.041-.52,1.413-.744A1.541,1.541,0,0,0,554.459,261.982Z" transform="translate(-546.8 -257)" fill="#efefef"/>
        </g>
        <g id="グループ_27" data-name="グループ 27" transform="translate(148.505 0)">
          <path id="パス_27" data-name="パス 27" d="M577.029,258.434a3.252,3.252,0,0,1,.521.595.26.26,0,0,0,.074.149c0,.074,0,.074-.074.149-.074,0-.149.074-.223.074H575.69a.263.263,0,0,0-.3.3v.3l.074.818v.074c0,.074,0,.223-.074.223a.568.568,0,0,1-.372.149.809.809,0,0,1-.372.074c-.074,0-.149,0-.149-.074a.274.274,0,0,1-.074-.223c0-.223.074-.521.074-.744v-.669a.263.263,0,0,0-.3-.3h-1.264a.263.263,0,0,0-.3.3v.3l.074.892v.074a.273.273,0,0,1-.074.223.568.568,0,0,1-.372.149.808.808,0,0,1-.372.074c-.074,0-.149,0-.149-.074a.273.273,0,0,1-.074-.223c0-.223.074-.446.074-.744v-.744a.263.263,0,0,0-.3-.3h-.3c-.223,0-.372.074-.521.074a.748.748,0,0,0-.223.074l-.074.074.074.074c0,.074.074.074.074.149s0,.074-.074.149a.273.273,0,0,1-.223.074h-1.339a.263.263,0,0,0-.3.3v1.859a.2.2,0,0,0,.223.223h.074l.967-.372c.074,0,.149-.074.223-.074s.074,0,.074.074h0c0,.074-.074.149-.149.223l-1.264.818a.409.409,0,0,0-.223.372v4.239a1.651,1.651,0,0,1-.074.669,1.556,1.556,0,0,1-.3.446.909.909,0,0,1-.669.223h-.074c-.149,0-.223-.074-.3-.223a1.209,1.209,0,0,0-.223-.446,1.4,1.4,0,0,0-.669-.3c-.149-.074-.223-.074-.223-.149s.074-.074.223-.074a2.529,2.529,0,0,1,.744.074h.372a.273.273,0,0,0,.223-.074c.074,0,.074-.074.074-.223V264.16c0-.149-.074-.223-.149-.223s-.149,0-.149.074c-.074.074-.149.074-.223.149a.564.564,0,0,1-.3.149c-.149.074-.149.149-.223.149v.074c0,.074-.074.074-.149.074s-.149-.074-.223-.223l-.3-.744v-.149q0-.112.223-.223l1.339-.446c.149-.074.223-.149.223-.3v-2.38a.263.263,0,0,0-.3-.3h-.3c-.223,0-.446.074-.744.074h-.149c-.074,0-.223-.074-.223-.149l-.074-.074c0-.074-.074-.074-.074-.149,0-.149.074-.149.223-.149a4.271,4.271,0,0,1,.892.074h.3a.273.273,0,0,0,.223-.074c.074-.074.074-.074.074-.223a21.39,21.39,0,0,0-.149-2.38v-.074a.2.2,0,0,1,.223-.223h.074l.892.3q.223.112.223.223c0,.074-.074.074-.149.149h-.074a.409.409,0,0,0-.223.372v1.636c0,.223.074.3.223.3s.223-.074.3-.223l.149-.223c0-.074.074-.149.149-.223s.074-.149.149-.149a.073.073,0,0,0,.074-.074.231.231,0,0,1,.149.074c.149.074.223.223.372.3,0-.074-.074-.074-.074-.149,0-.149.074-.149.223-.149a4.65,4.65,0,0,1,.892.074h.3c.223,0,.3-.074.3-.3,0-.595-.074-1.041-.074-1.487v-.074a.2.2,0,0,1,.223-.223h.149a3.214,3.214,0,0,1,.818.3q.223.111.223.223a.073.073,0,0,1-.074.074.409.409,0,0,0-.223.372v.818a.263.263,0,0,0,.3.3h1.264c.223,0,.3-.074.3-.3,0-.595-.074-1.041-.074-1.487v-.074a.2.2,0,0,1,.223-.223h.149c.372.149.669.223.818.3a.917.917,0,0,1,.223.149.073.073,0,0,1-.074.074l-.074.074h0a.408.408,0,0,0-.223.372v.818a.263.263,0,0,0,.3.3h.074a.409.409,0,0,0,.372-.223l.149-.223a.917.917,0,0,0,.149-.223.576.576,0,0,1,.149-.223c.074-.074.074-.074.149-.074C576.657,258.062,576.806,258.21,577.029,258.434Zm-.3,3.123a3.23,3.23,0,0,1,.521.446.26.26,0,0,1,.074.149c0,.074,0,.149-.074.149l-.149.074a.16.16,0,0,0-.149.149c-.074.074-.074.074-.074.223v2.6c0,.967.074,1.933.074,2.975v.074a.387.387,0,0,1-.149.3c-.149.074-.223.149-.372.149a3.216,3.216,0,0,0-.372.074c-.074,0-.149,0-.149-.074s-.074-.074-.074-.149v-.3a.272.272,0,0,0-.3-.3h-4.164a.263.263,0,0,0-.3.3v.3q0,.112-.223.223a1.38,1.38,0,0,1-.521.149.263.263,0,0,1-.3-.3c.074-.892.074-1.859.149-2.975V264.16a22.706,22.706,0,0,0-.149-2.38v-.074c0-.149.074-.223.149-.223h.149l.669.3a.67.67,0,0,0,.372.074h4.164c.149,0,.223-.074.372-.149l.074-.149.149-.149.149-.149C576.36,261.259,576.508,261.334,576.731,261.557Zm-5.5,3.049a.273.273,0,0,0,.223.074h1.264a.263.263,0,0,0,.3-.3v-1.859a.263.263,0,0,0-.3-.3h-1.264a.263.263,0,0,0-.3.3v1.859C571.154,264.531,571.154,264.606,571.229,264.606Zm0,2.9a.273.273,0,0,0,.223.074h1.264a.263.263,0,0,0,.3-.3v-1.933a.263.263,0,0,0-.3-.3h-1.264a.263.263,0,0,0-.3.3v1.933C571.154,267.432,571.154,267.506,571.229,267.506Zm2.751-2.9a.274.274,0,0,0,.223.074h1.338a.263.263,0,0,0,.3-.3v-1.859a.263.263,0,0,0-.3-.3H574.2a.263.263,0,0,0-.3.3v1.859A.326.326,0,0,0,573.98,264.606Zm0,2.9a.274.274,0,0,0,.223.074h1.338a.263.263,0,0,0,.3-.3v-1.933a.263.263,0,0,0-.3-.3H574.2a.263.263,0,0,0-.3.3v1.933A.326.326,0,0,0,573.98,267.506Z" transform="translate(-565.8 -256.5)" fill="#efefef"/>
        </g>
        <g id="グループ_28" data-name="グループ 28" transform="translate(163.601 2.974)">
          <path id="パス_28" data-name="パス 28" d="M588.926,268.457a5.725,5.725,0,0,1-.967-.669,4.494,4.494,0,0,1-1.339-3.57,9.477,9.477,0,0,1,.074-1.413,4.429,4.429,0,0,0,.074-.818,2.2,2.2,0,0,0-.149-.744,1,1,0,0,0-.446-.521c-.074-.074-.074-.074-.074-.149s0-.074.074-.074h.149a3.275,3.275,0,0,1,.744.149,1.79,1.79,0,0,1,.595.446.988.988,0,0,1,.223.595,1.108,1.108,0,0,1-.074.446,3.129,3.129,0,0,1-.149.446,5.876,5.876,0,0,0-.223.967,3.61,3.61,0,0,0-.075.892,3.476,3.476,0,0,0,.223,1.264,2.671,2.671,0,0,0,.595.892,1.084,1.084,0,0,0,.595.372c.149,0,.223-.074.223-.3a17.475,17.475,0,0,1,.521-1.71q.112-.223.223-.223a.073.073,0,0,1,.075.074l-.075.223a8.291,8.291,0,0,0-.149,1.264,3.081,3.081,0,0,0,.074.744,1.885,1.885,0,0,0,.149.521,3.038,3.038,0,0,1,.149.521c0,.149-.074.223-.149.372s-.223.149-.372.149C589.446,268.68,589.223,268.606,588.926,268.457Zm5.949-3.346a1.628,1.628,0,0,1-.223-.372s-.074-.223-.149-.521a4.567,4.567,0,0,0-.372-.892,1.152,1.152,0,0,0-.595-.595,2.774,2.774,0,0,0-.892-.149h-.223c-.074,0-.149,0-.149-.074s.074-.074.149-.149a3.2,3.2,0,0,1,.892-.149,2.45,2.45,0,0,1,1.636.595,2.339,2.339,0,0,1,.669.892,1.969,1.969,0,0,1,.223.744.675.675,0,0,1-.223.52.642.642,0,0,1-.446.223C595.1,265.259,594.949,265.185,594.875,265.111Z" transform="translate(-586.1 -260.5)" fill="#efefef"/>
        </g>
        <g id="グループ_29" data-name="グループ 29" transform="translate(177.582 1.755)">
          <path id="パス_29" data-name="パス 29" d="M614.344,259.039a.714.714,0,0,1,.446.669.387.387,0,0,1-.149.3c-.074.074-.149.074-.3.074a2.563,2.563,0,0,1-.669-.074,4.268,4.268,0,0,0-.892-.074,2.059,2.059,0,0,0-.669.074,4.717,4.717,0,0,0-.52.149,2.192,2.192,0,0,0-1.041,1.115,7.4,7.4,0,0,0-.669,1.933,9.584,9.584,0,0,0-.223,1.859,3.673,3.673,0,0,0,.372,1.859,1.5,1.5,0,0,0,1.339.521h.372c.3,0,.446-.074.6-.074a1.867,1.867,0,0,1,.744.149.408.408,0,0,1,.3.446c0,.3-.148.446-.52.521a5.74,5.74,0,0,1-1.115.149,2.875,2.875,0,0,1-2.305-.818,4.046,4.046,0,0,1-.669-2.6,6.415,6.415,0,0,1,.595-2.677,6.217,6.217,0,0,1,1.487-2.082l.3-.3h-.074a13.624,13.624,0,0,0-1.413.446,20.211,20.211,0,0,0-1.859.818.564.564,0,0,1-.3.149c-.074.074-.149.074-.223.149a4.421,4.421,0,0,0-.446.3.942.942,0,0,1-.446.074,1.567,1.567,0,0,1-.818-.372,2.613,2.613,0,0,1-.595-.744.26.26,0,0,0-.074-.149.16.16,0,0,1,.149-.149c.074,0,.149,0,.149.074.149.074.223.149.372.149a.557.557,0,0,0,.372.074h.223c.074,0,.372-.149.892-.3.892-.3,1.785-.595,2.6-.818a14.467,14.467,0,0,1,2.305-.521,1.663,1.663,0,0,0,.744-.223,1.058,1.058,0,0,1,.446-.149c.149,0,.223-.074.372-.074A1.145,1.145,0,0,1,614.344,259.039Z" transform="translate(-604.9 -258.861)" fill="#efefef"/>
        </g>
        <g id="グループ_30" data-name="グループ 30" transform="translate(192.157 2.974)">
          <path id="パス_30" data-name="パス 30" d="M627.326,268.457a5.728,5.728,0,0,1-.967-.669,4.494,4.494,0,0,1-1.338-3.57,9.492,9.492,0,0,1,.074-1.413,4.411,4.411,0,0,0,.074-.818,2.2,2.2,0,0,0-.149-.744,1,1,0,0,0-.446-.521c-.074-.074-.074-.074-.074-.149s0-.074.074-.074h.149a3.269,3.269,0,0,1,.744.149,1.788,1.788,0,0,1,.6.446.989.989,0,0,1,.223.595,1.106,1.106,0,0,1-.074.446c-.075.149-.075.3-.149.446a5.861,5.861,0,0,0-.223.967,3.616,3.616,0,0,0-.074.892,3.473,3.473,0,0,0,.223,1.264,2.669,2.669,0,0,0,.6.892,1.084,1.084,0,0,0,.595.372c.149,0,.223-.074.223-.3a17.479,17.479,0,0,1,.521-1.71q.111-.223.223-.223a.073.073,0,0,1,.074.074l-.074.223A8.292,8.292,0,0,0,628,266.3a3.076,3.076,0,0,0,.074.744,1.894,1.894,0,0,0,.148.521,3.017,3.017,0,0,1,.149.521c0,.149-.074.223-.149.372s-.223.149-.372.149C627.846,268.68,627.623,268.606,627.326,268.457Zm5.875-3.346a1.626,1.626,0,0,1-.223-.372s-.074-.223-.149-.521a4.547,4.547,0,0,0-.372-.892,1.152,1.152,0,0,0-.595-.595,2.774,2.774,0,0,0-.892-.149h-.149c-.074,0-.149,0-.149-.074s.074-.074.149-.149a3.2,3.2,0,0,1,.892-.149,2.45,2.45,0,0,1,1.636.595,2.339,2.339,0,0,1,.669.892,1.968,1.968,0,0,1,.223.744.675.675,0,0,1-.223.52.642.642,0,0,1-.446.223C633.5,265.259,633.349,265.185,633.2,265.111Z" transform="translate(-624.5 -260.5)" fill="#efefef"/>
        </g>
        <g id="グループ_31" data-name="グループ 31" transform="translate(205.84 0.669)">
          <path id="パス_31" data-name="パス 31" d="M645.354,268.555a2.381,2.381,0,0,1-.372-.967c-.3-.892-.52-1.487-.669-1.859-.223-.372-.446-.818-.744-1.264a4.229,4.229,0,0,1-.521-.892,1.378,1.378,0,0,1-.149-.52,1.891,1.891,0,0,1,.149-.521,2.785,2.785,0,0,1,.446-.744,25.918,25.918,0,0,0,1.636-2.974,1.9,1.9,0,0,0,.149-.521.676.676,0,0,0-.223-.521c-.074-.074-.149-.074-.223-.149s-.149-.074-.149-.149.074-.074.3-.074a2.3,2.3,0,0,1,.6.149c.223.074.446.223.669.3a.781.781,0,0,1,.372.669.944.944,0,0,1-.074.446,6.567,6.567,0,0,1-.446.744c-.149.223-.446.52-.744.967-.595.669-1.115,1.339-1.562,1.933a1.056,1.056,0,0,0-.149.446.643.643,0,0,0,.223.446,20.7,20.7,0,0,1,1.934,2.38,4.317,4.317,0,0,1,.892,2.38.629.629,0,0,1-.149.446c-.074.149-.223.149-.372.149C645.652,268.852,645.5,268.778,645.354,268.555Z" transform="translate(-642.9 -257.4)" fill="#efefef"/>
        </g>
        <g id="グループ_32" data-name="グループ 32" transform="translate(221.159 8.626)">
          <path id="パス_32" data-name="パス 32" d="M664.393,271.6a1.459,1.459,0,0,1-.669-.669,2.207,2.207,0,0,1,0-1.934,1.46,1.46,0,0,1,.669-.669,2.206,2.206,0,0,1,1.933,0,1.46,1.46,0,0,1,.669.669,2.207,2.207,0,0,1,0,1.934,1.46,1.46,0,0,1-.669.669,2.058,2.058,0,0,1-.967.223A1.348,1.348,0,0,1,664.393,271.6Zm1.933-.595a1.35,1.35,0,0,0,.446-1.041,1.468,1.468,0,0,0-.446-1.041,1.35,1.35,0,0,0-1.041-.446,1.469,1.469,0,0,0-1.041.446A1.472,1.472,0,1,0,666.326,271Z" transform="translate(-663.5 -268.1)" fill="#efefef"/>
        </g>
      </g>
    </g>
    <g id="グループ_37" data-name="グループ 37" transform="translate(0.29)">
      <path id="パス_33" data-name="パス 33" d="M23.36,4.1l2.6-3.7h2.088l.158,15.482H26.315c-1.182-4.727-2.955-8.194-5.279-10.4a11.43,11.43,0,0,0-8-3.27A8.512,8.512,0,0,0,6.854,4.491a7.252,7.252,0,0,0-2.4,5.554,6.754,6.754,0,0,0,.906,3.585,6.714,6.714,0,0,0,2.758,2.482,30.418,30.418,0,0,0,6.894,2.048,42.155,42.155,0,0,1,9.967,3.112,10.612,10.612,0,0,1,4.254,3.979,10.76,10.76,0,0,1,1.418,5.594,12.857,12.857,0,0,1-3.861,9.533,13.641,13.641,0,0,1-9.967,3.782A16.731,16.731,0,0,1,5.4,39.906l-3.23,3.979H0V27.418H2.048a18.709,18.709,0,0,0,5.4,10.754A13.408,13.408,0,0,0,16.9,42.112a9.629,9.629,0,0,0,6.933-2.521,8,8,0,0,0,2.679-6.106A6.133,6.133,0,0,0,25.488,29.9,7.372,7.372,0,0,0,22.3,27.3a51.051,51.051,0,0,0-8.588-2.561C9.021,23.636,5.83,22.376,4.136,21A10.114,10.114,0,0,1,.552,12.685,12.377,12.377,0,0,1,4.136,3.506,12.289,12.289,0,0,1,13.276,0a14.008,14.008,0,0,1,5.082.945,18.236,18.236,0,0,1,5,3.151" fill="#efefef"/>
      <path id="パス_34" data-name="パス 34" d="M121.515,61.706l.67,1.064a4.132,4.132,0,0,1-3.112,1.418,3.441,3.441,0,0,1-2.206-.709A5.985,5.985,0,0,1,115.291,61a12.3,12.3,0,0,1-3.191,2.561,7.866,7.866,0,0,1-3.309.63,6.36,6.36,0,0,1-4.176-1.182,3.676,3.676,0,0,1-1.418-3.033c0-1.851,1.1-3.427,3.27-4.648a23.124,23.124,0,0,1,8.745-2.442V50.164a3.2,3.2,0,0,0-1.182-2.482,4.3,4.3,0,0,0-2.955-1.024,5.628,5.628,0,0,0-2.876.67c-.591.355-.867.67-.867,1.024a2.009,2.009,0,0,0,.473.906,2.507,2.507,0,0,1,.552,1.339,2.137,2.137,0,0,1-.552,1.418,2.162,2.162,0,0,1-1.458.552,2.3,2.3,0,0,1-1.615-.67,2.192,2.192,0,0,1-.63-1.655,4.408,4.408,0,0,1,2.127-3.467,9.059,9.059,0,0,1,5.594-1.576,7.673,7.673,0,0,1,4.885,1.379,4.217,4.217,0,0,1,1.694,3.388v9.809a3.323,3.323,0,0,0,.433,1.93,1.257,1.257,0,0,0,1.1.63,3.11,3.11,0,0,0,1.576-.63m-6.264-7.564c-3.23.433-5.554,1.182-6.894,2.167a3.773,3.773,0,0,0-1.5,3.27,3.4,3.4,0,0,0,.788,2.324,2.62,2.62,0,0,0,2.048.827,5.33,5.33,0,0,0,3.9-1.694,6.006,6.006,0,0,0,1.655-4.294Z" transform="translate(-62.543 -27.394)" fill="#efefef"/>
      <path id="パス_35" data-name="パス 35" d="M167.491,45.695A25.258,25.258,0,0,1,168,49.555a9.1,9.1,0,0,1,2.758-2.994,5.646,5.646,0,0,1,3.191-.867,5.922,5.922,0,0,1,3.506,1.142,7.966,7.966,0,0,1,2.718,3.309,11.168,11.168,0,0,1,1.024,4.924,10.076,10.076,0,0,1-2.561,7.13,6.559,6.559,0,0,1-5.082,2.285,5.54,5.54,0,0,1-3.033-.867,7.856,7.856,0,0,1-2.4-2.561V73.231a1.6,1.6,0,0,0,.394,1.182,2.278,2.278,0,0,0,1.418.473h1.339v1.339H161.7V74.886h1.339a2.141,2.141,0,0,0,1.379-.355,1.175,1.175,0,0,0,.473-.945V49.792a2.289,2.289,0,0,0-.63-1.851,4.408,4.408,0,0,0-2.521-.591v-1.3Zm5.554,1.773a4.2,4.2,0,0,0-3.506,2.009,10.014,10.014,0,0,0-1.458,5.83c0,2.561.473,4.451,1.379,5.673a4.233,4.233,0,0,0,3.545,1.851,3.658,3.658,0,0,0,3.112-1.576c.945-1.379,1.379-3.388,1.379-6.067,0-2.8-.433-4.767-1.261-5.948a3.649,3.649,0,0,0-3.191-1.773" transform="translate(-98.001 -27.692)" fill="#efefef"/>
      <path id="パス_36" data-name="パス 36" d="M229.491,45.695A25.258,25.258,0,0,1,230,49.555a9.1,9.1,0,0,1,2.758-2.994,5.646,5.646,0,0,1,3.191-.867,5.922,5.922,0,0,1,3.506,1.142,7.967,7.967,0,0,1,2.718,3.309,11.167,11.167,0,0,1,1.024,4.924,10.076,10.076,0,0,1-2.561,7.13,6.559,6.559,0,0,1-5.082,2.285,5.54,5.54,0,0,1-3.033-.867,7.857,7.857,0,0,1-2.4-2.561v7.248a1.6,1.6,0,0,0,.394,1.182,2.278,2.278,0,0,0,1.418.473h1.339V71.3H223.7V69.961h1.339a2.141,2.141,0,0,0,1.379-.355,1.175,1.175,0,0,0,.473-.945V49.792a2.289,2.289,0,0,0-.63-1.851,4.408,4.408,0,0,0-2.521-.591v-1.3Zm5.594,1.773a4.2,4.2,0,0,0-3.506,2.009,10.014,10.014,0,0,0-1.458,5.83c0,2.561.473,4.451,1.379,5.673a4.333,4.333,0,0,0,3.545,1.851,3.658,3.658,0,0,0,3.112-1.576c.945-1.379,1.379-3.388,1.379-6.067,0-2.8-.433-4.767-1.261-5.948a3.649,3.649,0,0,0-3.191-1.773" transform="translate(-135.577 -27.692)" fill="#efefef"/>
      <path id="パス_37" data-name="パス 37" d="M297.53,45.2a7.985,7.985,0,0,1,6.067,2.6,9.525,9.525,0,0,1,2.442,6.894,10.707,10.707,0,0,1-1.1,5.042A7.88,7.88,0,0,1,301.785,63a8.615,8.615,0,0,1-4.373,1.221,7.749,7.749,0,0,1-5.909-2.639,9.771,9.771,0,0,1-2.4-6.854,9.662,9.662,0,0,1,2.442-6.854A7.757,7.757,0,0,1,297.53,45.2m0,1.379a4.109,4.109,0,0,0-3.506,1.93c-.906,1.3-1.379,3.348-1.379,6.145,0,2.836.473,4.924,1.379,6.224a4.165,4.165,0,0,0,3.545,1.97,4.333,4.333,0,0,0,3.624-1.97c.906-1.3,1.379-3.467,1.379-6.461,0-2.758-.473-4.767-1.379-6.027a4.409,4.409,0,0,0-3.664-1.812" transform="translate(-175.213 -27.392)" fill="#efefef"/>
      <path id="パス_38" data-name="パス 38" d="M343.8,46.11l6.461-.315v7.248a15.714,15.714,0,0,1,2.482-5.4,4.46,4.46,0,0,1,3.585-1.851,3.055,3.055,0,0,1,2.324.906,3.265,3.265,0,0,1,.867,2.364,2.78,2.78,0,0,1-.591,1.891,1.891,1.891,0,0,1-1.458.67,1.715,1.715,0,0,1-1.379-.591,2.2,2.2,0,0,1-.512-1.536,2.407,2.407,0,0,1,.315-1.182,1.994,1.994,0,0,0,.276-.591c0-.2-.118-.276-.355-.276a2.927,2.927,0,0,0-1.773.906,8.509,8.509,0,0,0-2.127,3.506,19.458,19.458,0,0,0-1.142,5.554v3.821a1.1,1.1,0,0,0,.473.985,2.738,2.738,0,0,0,1.576.355h2.285v1.418H343.958V62.577h1.773a2.031,2.031,0,0,0,1.339-.355,1.083,1.083,0,0,0,.473-.867V49.931a2.778,2.778,0,0,0-.551-1.891,1.989,1.989,0,0,0-1.576-.591h-1.576Z" transform="translate(-208.365 -27.753)" fill="#efefef"/>
      <path id="パス_39" data-name="パス 39" d="M405.53,45.2a7.985,7.985,0,0,1,6.067,2.6,9.525,9.525,0,0,1,2.442,6.894,10.707,10.707,0,0,1-1.1,5.042A7.88,7.88,0,0,1,409.785,63a8.616,8.616,0,0,1-4.373,1.221,7.749,7.749,0,0,1-5.909-2.639,9.771,9.771,0,0,1-2.4-6.854,9.662,9.662,0,0,1,2.442-6.854A7.7,7.7,0,0,1,405.53,45.2m-.039,1.339a4.109,4.109,0,0,0-3.506,1.93c-.906,1.3-1.379,3.348-1.379,6.145,0,2.836.473,4.924,1.379,6.224a4.165,4.165,0,0,0,3.545,1.97,4.333,4.333,0,0,0,3.624-1.97c.906-1.3,1.379-3.467,1.379-6.461,0-2.758-.473-4.767-1.379-6.027a4.516,4.516,0,0,0-3.664-1.812" transform="translate(-240.668 -27.392)" fill="#efefef"/>
      <path id="パス_40" data-name="パス 40" d="M80.139,119.4H90.3l25.606,33.366V128.618c0-2.442-.551-4.215-1.655-5.4a6.165,6.165,0,0,0-4.53-1.655V119.4h14.851v2.167a6.9,6.9,0,0,0-3.388.63,5.291,5.291,0,0,0-1.97,2.285,7.809,7.809,0,0,0-.827,3.664v33.721h-2.679L89.16,127.121v25.606a7.076,7.076,0,0,0,1.733,5.2c1.142,1.142,2.994,1.733,5.436,1.773v2.167H80.139V159.7a6.6,6.6,0,0,0,4.806-2.009,6.389,6.389,0,0,0,1.773-4.609V124.324l-.512-.552a8.853,8.853,0,0,0-2.048-1.851,4.98,4.98,0,0,0-2.127-.394H80.1V119.4Z" transform="translate(-48.546 -72.364)" fill="#efefef"/>
      <path id="パス_41" data-name="パス 41" d="M226.127,172.069H213.285q.118,4.077,1.536,5.791A5.292,5.292,0,0,0,219,179.751q3.723,0,6.027-4.255l1.261.552c-1.851,3.624-4.57,5.436-8.076,5.436a8.106,8.106,0,0,1-6.067-2.6,9.2,9.2,0,0,1-2.442-6.658,10.144,10.144,0,0,1,2.4-7.051,7.677,7.677,0,0,1,5.948-2.679,7.536,7.536,0,0,1,4.491,1.339,7.952,7.952,0,0,1,2.836,3.861,12.6,12.6,0,0,1,.748,4.373m-12.842-1.339h7.76a1.237,1.237,0,0,0,1.064-.473,2.543,2.543,0,0,0,.394-1.615,5.233,5.233,0,0,0-1.3-3.585,3.9,3.9,0,0,0-3.073-1.458,4.184,4.184,0,0,0-3.388,1.773,8.692,8.692,0,0,0-1.458,5.358" transform="translate(-127.092 -98.482)" fill="#efefef"/>
      <path id="パス_42" data-name="パス 42" d="M263.7,163.7h8.667v1.339c-1.418.039-2.088.315-2.088.748a1.586,1.586,0,0,0,.355.788l3.073,4.1,3.033-3.782a1.251,1.251,0,0,0,.315-.788c0-.551-.788-.906-2.324-1.024v-1.339h7.564v1.339a6.547,6.547,0,0,0-4.176,2.285l-3.545,4.412,5.555,7.17a3.1,3.1,0,0,0,1.221,1.024,5.366,5.366,0,0,0,1.93.315V181.7H274.1v-1.418h.67a3.828,3.828,0,0,0,1.5-.2c.2-.118.315-.236.315-.394a1.513,1.513,0,0,0-.355-.709l-3.585-4.767-2.876,3.7a2.555,2.555,0,0,0-.63,1.261.744.744,0,0,0,.433.709,4.342,4.342,0,0,0,2.009.355v1.418h-7.8v-1.418a5.237,5.237,0,0,0,2.167-.591,9.466,9.466,0,0,0,2.285-2.048l3.545-4.53-5.279-6.815a3.45,3.45,0,0,0-2.758-1.221Z" transform="translate(-159.819 -99.213)" fill="#efefef"/>
      <path id="パス_43" data-name="パス 43" d="M331.042,145.2h1.3v7.327h5.791V154.3h-5.791v11.5a3.37,3.37,0,0,0,.709,2.285,2.229,2.229,0,0,0,1.812.788,2.613,2.613,0,0,0,2.206-1.221,6.979,6.979,0,0,0,1.064-3.979h1.3a8.538,8.538,0,0,1-1.615,5.318,4.98,4.98,0,0,1-3.939,1.733,4.657,4.657,0,0,1-3.467-1.221,4.215,4.215,0,0,1-1.261-3.191V154.26H326v-1.339a4.929,4.929,0,0,0,3.23-1.773,9.8,9.8,0,0,0,1.812-5.948" transform="translate(-197.577 -88.001)" fill="#efefef"/>
      <path id="パス_44" data-name="パス 44" d="M363.9,120h17.885v2.167h-3.112a4.846,4.846,0,0,0-2.6.473,1.364,1.364,0,0,0-.67,1.221,4.233,4.233,0,0,0,.512,1.733l.236.591,11.188,28.442,9.888-27.142a5.55,5.55,0,0,0,.276-1.97,3.179,3.179,0,0,0-.945-2.482,3.6,3.6,0,0,0-2.561-.906h-2.915V120H406.76v2.167H405.5a4.282,4.282,0,0,0-2.876,1.339,11.5,11.5,0,0,0-2.561,4.451l-13.118,35.494h-2.088l-15.009-37.936a5.861,5.861,0,0,0-1.812-2.639,4.937,4.937,0,0,0-2.758-.748H363.9Z" transform="translate(-220.547 -72.728)" fill="#efefef"/>
      <path id="パス_45" data-name="パス 45" d="M476.439,147.815l7.13-.2V163.06a1.125,1.125,0,0,0,.315.906,1.651,1.651,0,0,0,1.1.394H487v1.418h-10.2V164.36h1.891a1.7,1.7,0,0,0,1.221-.394,1.6,1.6,0,0,0,.394-1.182V151.479a2.106,2.106,0,0,0-.63-1.615,2.748,2.748,0,0,0-1.812-.552H476.4ZM481.4,137.1a1.972,1.972,0,0,1,1.5.67,2.056,2.056,0,0,1,.67,1.536,2.138,2.138,0,1,1-3.624-1.576,2.239,2.239,0,0,1,1.458-.63" transform="translate(-288.729 -83.092)" fill="#efefef"/>
      <path id="パス_46" data-name="パス 46" d="M519.9,174.882a10.322,10.322,0,0,0,2.718,4.57,5.7,5.7,0,0,0,3.782,1.261,5.044,5.044,0,0,0,3.191-.906,2.819,2.819,0,0,0,1.1-2.324,2.572,2.572,0,0,0-.394-1.418,2.613,2.613,0,0,0-1.142-.906,23.979,23.979,0,0,0-3.782-.867,15.273,15.273,0,0,1-4.057-1.221,4.418,4.418,0,0,1-1.773-1.733,4.766,4.766,0,0,1-.63-2.4,5.467,5.467,0,0,1,1.339-3.585,5.819,5.819,0,0,1,4.767-2.048,7.178,7.178,0,0,1,4.333,1.458l1.261-1.339h.788l.512,6.382h-1.3a8,8,0,0,0-2.285-3.9,5.223,5.223,0,0,0-3.545-1.182,4.258,4.258,0,0,0-2.876.906,2.725,2.725,0,0,0-1.024,2.167,2.351,2.351,0,0,0,.945,1.891,8.606,8.606,0,0,0,3.664,1.221,28.6,28.6,0,0,1,4.136.906,4.993,4.993,0,0,1,2.443,1.773,4.872,4.872,0,0,1,.867,2.915,5.247,5.247,0,0,1-1.852,4.018,6.88,6.88,0,0,1-4.727,1.655,7.7,7.7,0,0,1-4.924-1.773l-1.418,1.615h-1.024l-.394-7.13Z" transform="translate(-314.305 -98.97)" fill="#efefef"/>
      <path id="パス_47" data-name="パス 47" d="M568.239,147.815l7.13-.2V163.06a1.125,1.125,0,0,0,.315.906,1.651,1.651,0,0,0,1.1.394H578.8v1.418h-10.2V164.36h1.891a1.7,1.7,0,0,0,1.221-.394,1.6,1.6,0,0,0,.394-1.182V151.479a2.107,2.107,0,0,0-.63-1.615,2.748,2.748,0,0,0-1.812-.552H568.2ZM573.2,137.1a1.973,1.973,0,0,1,1.5.67,2.057,2.057,0,0,1,.67,1.536,2.138,2.138,0,1,1-3.624-1.576,2.327,2.327,0,0,1,1.458-.63" transform="translate(-344.366 -83.092)" fill="#efefef"/>
      <path id="パス_48" data-name="パス 48" d="M614.73,162.9a7.985,7.985,0,0,1,6.067,2.6,9.525,9.525,0,0,1,2.442,6.894,10.705,10.705,0,0,1-1.1,5.042,7.879,7.879,0,0,1-3.151,3.27,8.616,8.616,0,0,1-4.373,1.221,7.749,7.749,0,0,1-5.909-2.639,9.771,9.771,0,0,1-2.4-6.854,9.662,9.662,0,0,1,2.442-6.854,7.89,7.89,0,0,1,5.988-2.679m0,1.379a4.109,4.109,0,0,0-3.506,1.93c-.906,1.3-1.379,3.348-1.379,6.145,0,2.836.473,4.924,1.379,6.224a4.166,4.166,0,0,0,3.545,1.97,4.333,4.333,0,0,0,3.624-1.97c.906-1.3,1.379-3.467,1.379-6.461,0-2.758-.473-4.767-1.379-6.027a4.462,4.462,0,0,0-3.664-1.812" transform="translate(-367.457 -98.726)" fill="#efefef"/>
      <path id="パス_49" data-name="パス 49" d="M661.8,163.755l5.948-.355a32.694,32.694,0,0,1,.552,3.939,8.373,8.373,0,0,1,2.836-2.915,7.144,7.144,0,0,1,3.7-.985,5.7,5.7,0,0,1,2.994.709,4.772,4.772,0,0,1,1.93,2.206,7.186,7.186,0,0,1,.709,3.388v8.745a1.878,1.878,0,0,0,.433,1.379,1.971,1.971,0,0,0,1.458.394h1.261v1.418h-9.454V180.26h.906a2.95,2.95,0,0,0,1.773-.394,1.58,1.58,0,0,0,.512-1.221v-7.682a7.037,7.037,0,0,0-.749-3.7,3.539,3.539,0,0,0-3.27-1.733,4.594,4.594,0,0,0-3.624,1.733,6.943,6.943,0,0,0-1.458,4.53v6.658a1.878,1.878,0,0,0,.433,1.379,2.02,2.02,0,0,0,1.5.394h1.261v1.418h-9.494v-1.418h1.261a2.217,2.217,0,0,0,1.418-.394,1.175,1.175,0,0,0,.473-.945V167.3a2.369,2.369,0,0,0-.63-1.733,2.486,2.486,0,0,0-1.773-.591H661.8Z" transform="translate(-401.094 -99.031)" fill="#efefef"/>
    </g>
  </g>
</svg>
