<svg id="コピー" xmlns="http://www.w3.org/2000/svg" width="288.703" height="146.506" viewBox="0 0 288.703 146.506">
  <g id="グループ_36" data-name="グループ 36" transform="translate(28.89 114.209)">
    <g id="グループ_34" data-name="グループ 34" transform="translate(9.64)">
      <g id="グループ_1" data-name="グループ 1" transform="translate(0 0.073)">
        <path id="パス_1" data-name="パス 1" d="M83.957,263.792c0-.152-.076-.228-.152-.228s-.152.076-.228.152a11.532,11.532,0,0,1-1.975,2.657c-.152.152-.228.152-.307.076v-.076a.279.279,0,0,1,.076-.228,10.659,10.659,0,0,0,1.368-2.432,18.246,18.246,0,0,0,.912-2.888v-.076c0-.076,0-.152-.076-.152s-.152-.076-.228-.076h-.38a5.138,5.138,0,0,0-1.064.152h-.076c-.152,0-.228-.076-.307-.228l-.076-.076c0-.076-.076-.076-.076-.152s0-.076.076-.152a.279.279,0,0,1,.228-.076c.307,0,.76.076,1.368.076h.532a.269.269,0,0,0,.307-.307v-.228a21.887,21.887,0,0,0-.152-2.432v-.076a.2.2,0,0,1,.228-.228h.076c.456.152.76.228.911.307s.228.152.228.228-.076.076-.152.152l-.076.076a.307.307,0,0,0-.152.307v1.9a.269.269,0,0,0,.307.307h.152c.152,0,.228-.076.38-.152l.152-.228c0-.076.076-.076.152-.228.076-.076.076-.152.152-.152a.075.075,0,0,1,.076-.076c.076,0,.228.076.456.307a3.428,3.428,0,0,1,.532.532.265.265,0,0,1,.076.152c0,.076,0,.152-.076.152a.279.279,0,0,1-.228.076H85.1a.269.269,0,0,0-.307.307v.76a.418.418,0,0,0,.228.38,4.737,4.737,0,0,1,1.444.912,1.635,1.635,0,0,1,.456.988.643.643,0,0,1-.152.456c-.076.152-.228.152-.38.152a.575.575,0,0,1-.307-.076,1.05,1.05,0,0,1-.228-.307,7.369,7.369,0,0,0-.76-1.6c-.076-.076-.152-.152-.228-.152s-.076,0-.152.076c0,.076-.076.076-.076.228v3.191c0,.988.076,1.976.076,3.04v.076a.279.279,0,0,1-.076.228,1.662,1.662,0,0,1-.38.228.965.965,0,0,1-.456.076.269.269,0,0,1-.307-.307c0-.532.076-1.064.076-1.6s.076-1.139.076-1.975v-1.747Zm4.179-3.952a21.88,21.88,0,0,0-.152-2.432v-.076a.2.2,0,0,1,.228-.228h.076c.456.152.76.228.988.307.152.076.307.152.307.228s0,.076-.076.152h-.076c-.152.076-.152.228-.152.38v9.423a.58.58,0,0,0,.152.38c.076.076.228.076.456.076h1.139a4.368,4.368,0,0,0,1.139-.076c.076,0,.152,0,.152-.076s.076-.076.152-.152a16.013,16.013,0,0,0,.456-1.975c0-.152.076-.228.152-.228s.076.076.076.307l.076,1.824c0,.152.076.228.228.38.076.076.152.076.152.152s.076.152.076.228a.418.418,0,0,1-.228.38,3.078,3.078,0,0,1-.76.228c-.38,0-.911.076-1.672.076H89.735a1.8,1.8,0,0,1-1.139-.228c-.228-.152-.307-.456-.307-.988v-8.055Z" transform="translate(-81.293 -256.795)" fill="#0a324c"/>
      </g>
      <g id="グループ_2" data-name="グループ 2" transform="translate(15.57 0)">
        <path id="パス_2" data-name="パス 2" d="M105.377,258.98l.076-.152a.266.266,0,0,0,.076-.152c.076-.076.076-.076.076-.152l.076-.076a.7.7,0,0,1,.38.228,3.306,3.306,0,0,1,.532.456.235.235,0,0,1,.076.152.164.164,0,0,1-.152.152l-.152.076c-.152.076-.228.152-.228.307v5.168a2.351,2.351,0,0,1-.152.836.752.752,0,0,1-.532.38h-.074c-.152,0-.228-.076-.228-.307l-.076-.228c-.076-.152-.076-.228-.152-.307-.076,0-.152-.076-.307-.152a.074.074,0,0,1-.076-.076c0-.076.076-.076.228-.076h.38c.076,0,.076,0,.152-.076v-5.4a.269.269,0,0,0-.307-.307h-.229a.269.269,0,0,0-.307.307v5.927c0,.988.076,1.975.076,3.04v.076a.394.394,0,0,1-.152.307,1.226,1.226,0,0,1-.684.228c-.076,0-.152,0-.152-.076a.266.266,0,0,0-.076-.152c0-.531.076-1.064.076-1.6s.076-1.139.076-1.975v-5.7a.269.269,0,0,0-.307-.307h-.152a.269.269,0,0,0-.307.307v3.27c0,.988.076,1.976.076,3.04v.076a.394.394,0,0,1-.152.307,1.226,1.226,0,0,1-.684.228.269.269,0,0,1-.307-.307c0-.456.076-.988.076-1.444s.076-1.064.076-1.824v-1.52a23.149,23.149,0,0,0-.152-2.432v-.076c0-.152.076-.228.152-.228h.152l.608.228a.685.685,0,0,0,.38.076h.076c.228,0,.307-.076.307-.307,0-.76-.076-1.292-.076-1.747v-.076a.2.2,0,0,1,.228-.228h.076c.76.228,1.064.38,1.064.456s0,.076-.076.152H104.6a.418.418,0,0,0-.228.38v1.064a.269.269,0,0,0,.307.307h.076C105.144,259.208,105.3,259.132,105.377,258.98Zm6.991,5.471.152-.228c0-.076.076-.152.152-.228s.076-.152.152-.152a.074.074,0,0,0,.076-.076c.076,0,.228.076.456.307a3.432,3.432,0,0,1,.532.532c0,.076.076.076.076.152s0,.152-.076.152-.152.076-.228.076h-1.976a.269.269,0,0,0-.307.307v2.736c0,.076,0,.152.076.152a.767.767,0,0,0,.228.076H112.9c.076,0,.076,0,.076-.076a.266.266,0,0,0,.076-.152,3.288,3.288,0,0,0,.076-.38c0-.152.076-.38.076-.456l.152-.532c0-.152.076-.228.152-.228l.076.076v1.367c0,.076,0,.152.076.152,0,.076.076.076.152.152a.394.394,0,0,1,.152.307.481.481,0,0,1-.38.456,4.748,4.748,0,0,1-1.368.152h-.836a1.226,1.226,0,0,1-.836-.228.929.929,0,0,1-.228-.684v-2.9a.269.269,0,0,0-.307-.307h-.456a.278.278,0,0,0-.307.307,5.324,5.324,0,0,1-1.064,2.583,5.814,5.814,0,0,1-2.432,1.519c-.076,0-.152.076-.228.076s-.076,0-.076-.076v-.076q0-.114.228-.228a4.373,4.373,0,0,0,1.747-1.52,5.04,5.04,0,0,0,.684-2.28v-.076c0-.152-.076-.228-.307-.228h-.307c-.228,0-.456.076-.76.076h-.152c-.076,0-.228-.076-.228-.152l-.076-.076c0-.076-.076-.076-.076-.152s0-.076.076-.152c.076,0,.076-.076.228,0,.307,0,.76.076,1.444.076h.988a.279.279,0,0,0,.228-.076c.076-.076.076-.076.076-.228a21.885,21.885,0,0,0-.152-2.432v-.076a.2.2,0,0,1,.228-.228h.152c.38.152.684.228.836.307s.228.152.228.228a.235.235,0,0,1-.076.152h0a.418.418,0,0,0-.228.38V264.3a.269.269,0,0,0,.307.307h1.444a.58.58,0,0,0,.388-.154ZM106.9,262.1h0c.152,0,.228,0,.307.076a2.4,2.4,0,0,1,1.064.76,1.386,1.386,0,0,1,.38.836,1.08,1.08,0,0,1-.152.456.58.58,0,0,1-.38.152.279.279,0,0,1-.228-.076,1.048,1.048,0,0,1-.228-.307,4.292,4.292,0,0,0-.684-1.52,1.021,1.021,0,0,1-.084-.378Zm5.091-4.787.076-.152a.266.266,0,0,0,.076-.152c0-.076.076-.076.152-.152l.076-.076a.7.7,0,0,1,.38.228,1.29,1.29,0,0,1,.456.456c.076.076.076.076.076.152a.163.163,0,0,1-.152.152l-.076.076c-.152.076-.228.152-.228.307v.911c0,.911.076,1.6.076,2.052v.076a.394.394,0,0,1-.152.307,1.283,1.283,0,0,1-.76.228c-.076,0-.076,0-.152-.076,0-.076-.076-.076-.076-.152,0-.152-.076-.228-.307-.228h-3.344a.269.269,0,0,0-.307.307v.076c0,.076-.076.152-.228.152s-.38.076-.532.076c-.076,0-.152,0-.152-.076a.279.279,0,0,1-.076-.228c0-.38.076-.836.076-1.368v-.845a17.883,17.883,0,0,0-.076-2.128v-.076c0-.152.076-.228.152-.228h.152l.76.307a.57.57,0,0,0,.38.076h3.27a.333.333,0,0,0,.456,0Zm-.152,1.747a.279.279,0,0,0,.076-.228v-.684a.269.269,0,0,0-.307-.307h-3.344a.269.269,0,0,0-.307.307v.684a.269.269,0,0,0,.307.307H111.6a.279.279,0,0,0,.227-.079Zm-3.724.532a.279.279,0,0,0-.076.228v.76a.269.269,0,0,0,.307.307h3.344a.269.269,0,0,0,.307-.307v-.76a.269.269,0,0,0-.307-.307H108.34a.333.333,0,0,0-.233.079Zm3.8,2.355c.076,0,.076,0,.152.076l.38.228c.076.076.228.076.307.152q.456.114.456.228c0,.076-.076.076-.152.152h-.076a1.049,1.049,0,0,0-.307.228,7.1,7.1,0,0,1-1.368,1.216c-.152.076-.228.152-.307.076v-.076a.279.279,0,0,1,.076-.228,9.379,9.379,0,0,0,.608-1.747c0-.228.076-.3.227-.3Z" transform="translate(-101.785 -256.699)" fill="#0a324c"/>
      </g>
      <g id="グループ_3" data-name="グループ 3" transform="translate(31.315 0.386)">
        <path id="パス_3" data-name="パス 3" d="M123.26,265.179a.075.075,0,0,1,.076.076c0,.076.076.076.076.228a8.371,8.371,0,0,1,.152,1.368,2.136,2.136,0,0,1-.228,1.139c-.152.228-.307.38-.532.38a.279.279,0,0,1-.228-.076c-.076-.076-.076-.152-.076-.307a.58.58,0,0,1,.152-.38,2.138,2.138,0,0,0,.38-.836,5.9,5.9,0,0,0,.152-1.216C123.184,265.255,123.26,265.179,123.26,265.179Zm3.8-3.648.152-.152.152-.152c.076-.076.076-.152.152-.152l.076-.076a.694.694,0,0,1,.38.228,1.291,1.291,0,0,1,.456.456.235.235,0,0,1,.076.152c0,.076,0,.076-.076.152a.279.279,0,0,1-.228.076h-1.6a.269.269,0,0,0-.307.307v.911a.269.269,0,0,0,.307.307h.456a.581.581,0,0,0,.38-.152l.076-.076.152-.152.152-.152a.694.694,0,0,1,.38.228,1.29,1.29,0,0,1,.456.456c0,.076.076.076.076.152a.164.164,0,0,1-.152.152l-.076.076c-.152,0-.228.152-.307.307a17.883,17.883,0,0,1-.38,2.888,2.3,2.3,0,0,1-.684,1.368,1.669,1.669,0,0,1-.911.38h-.076c-.076,0-.152,0-.152-.076a.279.279,0,0,1-.076-.228c0-.152-.076-.228-.152-.38a1.63,1.63,0,0,0-.532-.307c-.152,0-.228-.076-.228-.152s.076-.076.307-.076c.456,0,.76.076.911.076h.228l.152-.076a2.072,2.072,0,0,0,.38-1.064c.076-.532.228-1.444.307-2.432h0c0-.228-.076-.307-.307-.307h-2.508a.269.269,0,0,0-.307.307v.152c0,.076-.076.076-.228.228a1.1,1.1,0,0,1-.532.152.269.269,0,0,1-.307-.307c.076-.836.076-1.747.152-2.736v-1.52a23.149,23.149,0,0,0-.152-2.432v-.076c0-.152.076-.228.152-.228h.152l.684.307a.57.57,0,0,0,.38.076h2.28c.152,0,.228-.076.38-.152l.152-.228.152-.152c.076-.076.076-.152.152-.152l.076-.076c.076,0,.228.076.456.307l.532.532c0,.076.076.076.076.152s0,.152-.076.152-.152.076-.228.076h-1.9a.269.269,0,0,0-.307.307v.912a.269.269,0,0,0,.307.307h.307c.152,0,.228-.076.38-.152l.076-.152a.266.266,0,0,0,.076-.152.163.163,0,0,1,.152-.152l.076-.076a1.361,1.361,0,0,1,.532.38c.228.228.38.38.38.532s-.152.228-.307.228h-1.672a.269.269,0,0,0-.307.307v.912a.269.269,0,0,0,.307.307h.228a2.076,2.076,0,0,1,.308-.4Zm-3.04,3.648c0-.076,0-.152.076-.152h0c.076,0,.152.076.228.152a2.8,2.8,0,0,1,.608,1.6,1.43,1.43,0,0,1-.152.608.409.409,0,0,1-.307.228c-.076,0-.076,0-.152-.076a.447.447,0,0,1-.152-.38c0-.228.076-.38.076-.608a10.682,10.682,0,0,0-.152-1.368c-.072.152-.072.077-.072,0Zm1.292-5.471a.279.279,0,0,0,.076-.228v-.911a.269.269,0,0,0-.307-.307h-.608a.269.269,0,0,0-.307.307v.912a.269.269,0,0,0,.307.306h.608a.279.279,0,0,0,.231-.079Zm-1.064,1.9a.279.279,0,0,0,.228.076h.608a.269.269,0,0,0,.307-.307v-.906a.269.269,0,0,0-.307-.307h-.608a.269.269,0,0,0-.307.307v.911c0,.074.079.15.079.226Zm1.064.532a.279.279,0,0,0-.228-.076h-.608a.269.269,0,0,0-.307.307v.912a.269.269,0,0,0,.307.307h.608a.269.269,0,0,0,.307-.307v-.911c0-.08-.079-.155-.079-.231Zm-.456,2.736h0a.279.279,0,0,1,.228.076,3.314,3.314,0,0,1,.684.836,1.7,1.7,0,0,1,.228.76.569.569,0,0,1-.076.38.4.4,0,0,1-.307.152h-.149c-.076,0-.152-.152-.152-.307a5.163,5.163,0,0,0-.456-1.6c-.076-.226-.076-.3,0-.3Zm.76-.307c0-.076,0-.076.076-.076a.279.279,0,0,1,.228.076,1.768,1.768,0,0,1,.836.532,1.011,1.011,0,0,1,.228.608c0,.152,0,.228-.076.307s-.152.152-.228.152H126.6c-.076,0-.076-.076-.152-.076,0-.076-.076-.076-.076-.152a3.811,3.811,0,0,0-.608-1.064c-.077-.153-.152-.229-.152-.306Zm7.523-6.763.076-.152.152-.152c.076-.076.076-.152.152-.152l.076-.076c.076,0,.228.076.456.307a3.431,3.431,0,0,1,.532.532c0,.076.076.076.076.152s0,.152-.076.152-.076.076-.152.076c-.152.076-.228.152-.228.307v1.292c0,.988.076,1.9.076,2.811v.076a.4.4,0,0,1-.152.307.581.581,0,0,1-.38.152.826.826,0,0,1-.38.076c-.076,0-.152,0-.152-.076s-.076-.076-.076-.152v-.307a.269.269,0,0,0-.307-.306h-1.292a.269.269,0,0,0-.307.307,12.182,12.182,0,0,0,1.292,3.191,6.591,6.591,0,0,0,2.052,2.052.934.934,0,0,1,.228.152.075.075,0,0,1-.076.076c-.076,0-.076.076-.152.076a1.408,1.408,0,0,0-.532.608q-.114.228-.228.228a.235.235,0,0,1-.152-.076,5.539,5.539,0,0,1-1.747-2.508,15.3,15.3,0,0,1-.988-3.8.327.327,0,0,0-.307-.307h-.152c-.228,0-.307.076-.307.307a16.8,16.8,0,0,1-.532,3.577,6.491,6.491,0,0,1-1.747,2.811c-.076.076-.152.152-.228.152s-.076,0-.076-.076a.375.375,0,0,1,.076-.228,7.439,7.439,0,0,0,1.216-3.116,29.882,29.882,0,0,0,.307-3.952v-2.29a15.3,15.3,0,0,0-.076-1.976V257.8c0-.152.076-.228.152-.228h.152l.76.307a.457.457,0,0,0,.307.076H132.6a.727.727,0,0,0,.537-.151Zm-2.811.608a.279.279,0,0,0-.076.228v3.344a.269.269,0,0,0,.307.307h2.28a.269.269,0,0,0,.307-.307v-3.344a.269.269,0,0,0-.307-.307h-2.28c-.08,0-.155.081-.231.081Z" transform="translate(-122.5 -257.204)" fill="#0a324c"/>
      </g>
      <g id="グループ_4" data-name="グループ 4" transform="translate(46.817 0.077)">
        <path id="パス_4" data-name="パス 4" d="M153.235,259.232l.228-.307c.076-.076.076-.152.152-.228s.076-.152.152-.228.076-.076.152-.076.228.152.532.38a2.235,2.235,0,0,1,.608.608c.076.076.076.076.076.152s0,.076-.076.152a.279.279,0,0,1-.228.076h-9.575a16.085,16.085,0,0,0-1.824.152h-.076a.394.394,0,0,1-.307-.152l-.076-.076a.266.266,0,0,0-.076-.152c0-.076,0-.076.076-.152s.076-.076.228,0c.307,0,.76.076,1.444.076H147c-.076,0-.076-.076-.152-.076,0-.076-.076-.076-.076-.228a3.708,3.708,0,0,0-.456-.988l-.684-.911a.941.941,0,0,0-.152-.228.075.075,0,0,1,.076-.076h.228a3.192,3.192,0,0,1,1.52.836,1.635,1.635,0,0,1,.456.988,1.08,1.08,0,0,1-.152.456.235.235,0,0,0-.076.152.266.266,0,0,0,.152.076h1.824c.152,0,.228,0,.307-.076a5.884,5.884,0,0,0,.532-1.216c.152-.456.307-.836.38-1.139a.2.2,0,0,1,.228-.228h.152c.836.228,1.292.456,1.292.532a.266.266,0,0,1-.152.076h-.076a1.049,1.049,0,0,0-.307.228A11.6,11.6,0,0,1,150.5,259c-.076.076-.152.152-.152.228s0,.076.076.076.076.076.152.076h2.052C153.006,259.383,153.158,259.383,153.235,259.232Zm-8.055,6.687a.279.279,0,0,0-.076.228v.76c0,.836.076,1.444.076,1.824v.076a.279.279,0,0,1-.076.228,1.659,1.659,0,0,1-.38.228.964.964,0,0,1-.456.076.269.269,0,0,1-.307-.307c0-.532.076-1.064.076-1.6s.076-1.139.076-1.975v-2.12a23.171,23.171,0,0,0-.152-2.432v-.076c0-.152.076-.228.152-.228h.152l.684.307a.457.457,0,0,0,.307.076h1.672c.152,0,.228-.076.38-.152l.076-.152.152-.152.152-.152c.076,0,.228.076.456.307a4.208,4.208,0,0,1,.608.456c0,.076.076.076.076.152a.163.163,0,0,1-.152.152c-.076,0-.076.076-.152.076-.152.076-.228.152-.228.307v6a1.621,1.621,0,0,1-.228.911c-.152.228-.38.307-.836.38h-.076c-.152,0-.228-.076-.307-.228a1.079,1.079,0,0,0-.152-.456,1.144,1.144,0,0,0-.608-.307c-.152-.076-.228-.076-.228-.152s.076-.076.307-.076c.38,0,.684.076.836.076.076,0,.152,0,.152-.076s.076-.076.076-.228v-1.824a.269.269,0,0,0-.307-.307h-1.747c.155.3.079.3,0,.374Zm2.2-2.736a.279.279,0,0,0,.076-.228v-1.064a.269.269,0,0,0-.307-.307h-1.747a.269.269,0,0,0-.307.307v1.064a.269.269,0,0,0,.307.307h1.747a.279.279,0,0,0,.23-.079Zm-2.2.532a.279.279,0,0,0-.076.228v1.216a.269.269,0,0,0,.307.307h1.747a.269.269,0,0,0,.307-.307v-1.216a.269.269,0,0,0-.307-.307h-1.747c-.079,0-.155.078-.231.078Zm4.94,0a21.863,21.863,0,0,0-.152-2.432v-.076a.2.2,0,0,1,.228-.228h.152q1.139.342,1.139.456l-.152.152h-.076a.418.418,0,0,0-.228.38v1.6c0,.988.076,1.976.076,3.04v.076a.4.4,0,0,1-.152.307.58.58,0,0,1-.38.152.826.826,0,0,1-.38.076.269.269,0,0,1-.307-.307,12.361,12.361,0,0,0,.076-1.824v-1.368Zm2.811-.307a21.894,21.894,0,0,0-.152-2.432V260.9a.2.2,0,0,1,.228-.228h.076q1.139.342,1.139.456l-.152.152h-.076a.352.352,0,0,0-.228.38v6.307a1.687,1.687,0,0,1-.076.684,1.014,1.014,0,0,1-.38.456,1.226,1.226,0,0,1-.836.228H152.4c-.152,0-.228-.076-.307-.228a1.238,1.238,0,0,0-.228-.456,1.787,1.787,0,0,0-.911-.307c-.152-.076-.307-.076-.307-.152s.076-.076.228-.076a5.19,5.19,0,0,1,.911.076h.532a.279.279,0,0,0,.228-.076c.076-.076.076-.076.076-.228v-4.479Z" transform="translate(-142.9 -256.799)" fill="#0a324c"/>
      </g>
      <g id="グループ_5" data-name="グループ 5" transform="translate(61.619 0.222)">
        <path id="パス_5" data-name="パス 5" d="M171.9,260.04l.076-.152.152-.152c.076-.076.076-.152.152-.152a.075.075,0,0,0,.076-.076c.076,0,.228.076.532.307a4.948,4.948,0,0,1,.608.532.235.235,0,0,1,.076.152c0,.076,0,.152-.076.152a.279.279,0,0,1-.228.076c-.152.076-.228.152-.228.307v4.027a.075.075,0,0,0,.076.076q.114,0,.228-.228l.152-.228c0-.076.076-.152.152-.228s.076-.152.152-.152a.075.075,0,0,0,.076-.076c.076,0,.228.076.456.307l.532.532a.266.266,0,0,1,.076.152c0,.076,0,.076-.076.152a.279.279,0,0,1-.228.076h-1.292a.269.269,0,0,0-.307.307V267.8a1.686,1.686,0,0,1-.076.684,2.016,2.016,0,0,1-.38.456,2.115,2.115,0,0,1-.911.307H171.6c-.152,0-.228-.076-.307-.228-.076-.228-.152-.456-.307-.531a2.409,2.409,0,0,0-1.064-.38c-.152,0-.307-.076-.307-.152s.076-.076.228-.076a6.2,6.2,0,0,1,1.064.076,4.1,4.1,0,0,1,.608.076c.152,0,.228,0,.307-.076a.279.279,0,0,0,.076-.228v-1.9a.269.269,0,0,0-.307-.307h-5.927a.269.269,0,0,0-.307.307v.911c0,.911.076,1.6.076,2.052v.076a.457.457,0,0,1-.076.307,1.143,1.143,0,0,1-.836.307.269.269,0,0,1-.307-.307c.076-.76.076-1.52.076-2.28v-1a.269.269,0,0,0-.307-.307h-.307c-.228,0-.456.076-.76.076h-.152c-.076,0-.228-.076-.228-.152l-.076-.076c0-.076-.076-.076-.076-.152,0-.152.076-.152.228-.152a4.363,4.363,0,0,1,.911.076h.307a.269.269,0,0,0,.307-.307v-2.5a23.152,23.152,0,0,0-.152-2.432v-.076c0-.152.076-.228.152-.228h.152l.836.38a.457.457,0,0,0,.307.076h2.052a.269.269,0,0,0,.307-.307v-1.216a.269.269,0,0,0-.307-.307h-2.508a16.043,16.043,0,0,0-1.824.152h-.076a.394.394,0,0,1-.307-.152l-.076-.076c0-.076-.076-.076-.076-.152s0-.076.076-.152.076-.076.228,0c.307,0,.76.076,1.444.076h7.6a.4.4,0,0,0,.307-.152l.228-.307c.076-.076.076-.152.152-.228s.076-.152.152-.228.076-.076.152-.076.228.152.532.38a6.211,6.211,0,0,1,.684.608c.076.076.076.076.076.152s0,.076-.076.152-.152.076-.307.076h-4.712a.269.269,0,0,0-.307.307v1.216a.269.269,0,0,0,.307.307h2.138C171.671,260.191,171.823,260.191,171.9,260.04Zm-3.883,2.58a.279.279,0,0,0,.076-.228v-1.52a.269.269,0,0,0-.307-.307h-2.052a.269.269,0,0,0-.307.307v1.52a.269.269,0,0,0,.307.307h2.052A.279.279,0,0,0,168.021,262.62Zm0,.532a.279.279,0,0,0-.228-.076h-2.052a.269.269,0,0,0-.307.307v1.6a.269.269,0,0,0,.307.307h2.052a.269.269,0,0,0,.307-.307v-1.6c0-.077-.079-.15-.079-.229Zm3.8-.532a.279.279,0,0,0,.076-.228v-1.519a.269.269,0,0,0-.307-.307h-2.2a.269.269,0,0,0-.307.307v1.52a.269.269,0,0,0,.307.307H171.6c.15,0,.226,0,.226-.079Zm-2.583.532a.279.279,0,0,0-.076.228v1.6a.269.269,0,0,0,.307.307h2.2a.269.269,0,0,0,.307-.307v-1.6a.269.269,0,0,0-.307-.307h-2.2c-.076.005-.152.081-.228.081Z" transform="translate(-162.384 -256.992)" fill="#0a324c"/>
      </g>
      <g id="グループ_6" data-name="グループ 6" transform="translate(77.732 0.231)">
        <path id="パス_6" data-name="パス 6" d="M187.247,257.608l.076-.152a.266.266,0,0,0,.076-.152l.152-.152.076-.076c.076,0,.228.076.456.307a3.3,3.3,0,0,1,.532.456c0,.076.076.076.076.152s-.076.152-.152.228h-.076c-.152.076-.228.152-.228.307v.911c0,.911.076,1.52.076,2.052v.076a.4.4,0,0,1-.152.307,1.658,1.658,0,0,1-.38.228.826.826,0,0,1-.38.076c-.076,0-.152-.076-.152-.307v-.076a.269.269,0,0,0-.307-.307h-1.9a.269.269,0,0,0-.307.307v3.952c0,.988.076,1.976.076,3.04v.076a.279.279,0,0,1-.076.228,1.657,1.657,0,0,1-.38.228.964.964,0,0,1-.456.076.269.269,0,0,1-.307-.307c0-.531.076-1.064.076-1.6s.076-1.139.076-1.975v-5.471a23.151,23.151,0,0,0-.152-2.432v-.076c0-.152.076-.228.152-.228s.076,0,.152.076l.76.38a.686.686,0,0,0,.38.076h1.9A.409.409,0,0,0,187.247,257.608Zm-.076,1.747a.279.279,0,0,0,.076-.228v-.608a.269.269,0,0,0-.307-.307h-1.9a.269.269,0,0,0-.307.307v.684a.269.269,0,0,0,.307.307h1.9c.079-.078.155-.078.236-.154Zm-2.355.531a.279.279,0,0,0-.076.228v.684a.269.269,0,0,0,.307.307h1.9a.269.269,0,0,0,.307-.307v-.684a.269.269,0,0,0-.307-.307h-1.9c-.155,0-.155.08-.231.08Zm6.384,5.168.152-.228c0-.076.076-.076.152-.152s.076-.152.152-.152c.076-.076.076-.076.152-.076s.228.076.456.307a2.425,2.425,0,0,1,.456.532.235.235,0,0,1,.076.152c0,.076,0,.076-.076.152a.279.279,0,0,1-.228.076H191.2a.269.269,0,0,0-.307.307v.684c0,.76.076,1.292.076,1.672v.076a.394.394,0,0,1-.152.307,1.226,1.226,0,0,1-.684.228c-.076,0-.152,0-.152-.076a.279.279,0,0,1-.076-.228,13.509,13.509,0,0,0,.076-1.9v-.76a.269.269,0,0,0-.307-.307h-1.216c-.152,0-.307.076-.307.228a3.563,3.563,0,0,1-.684,1.672,3.714,3.714,0,0,1-1.52,1.292.575.575,0,0,1-.307.076v-.081c0-.076.076-.152.152-.228a4.4,4.4,0,0,0,1.444-2.657v-.079a.2.2,0,0,0-.228-.228H186.7c-.228,0-.456.076-.684.076h-.076a.576.576,0,0,1-.307-.152l-.076-.076c0-.076-.076-.076-.076-.152s0-.076.076-.152.076-.076.228,0a4.742,4.742,0,0,1,.911.076h.307a.279.279,0,0,0,.228-.076c.076-.076.076-.076.076-.152v-1.368a.269.269,0,0,0-.307-.307h-.228c-.228,0-.38.076-.532.076h-.152c-.076,0-.228-.076-.228-.152l-.076-.076c0-.076-.076-.076-.076-.152s0-.076.076-.152.076-.076.228,0c.307,0,.76.076,1.444.076h3.04c.152,0,.228-.076.38-.152l.152-.228c0-.076.076-.076.152-.152s.076-.152.152-.152c.076-.076.076-.076.152-.076s.228.076.456.307l.532.532a.266.266,0,0,1,.076.152c0,.076,0,.076-.076.152a.279.279,0,0,1-.228.076h-1.064a.269.269,0,0,0-.307.307v1.368c0,.228.076.307.152.307s.09-.231.166-.382Zm-2.888-1.672a.279.279,0,0,0-.076.228v1.368c0,.228.076.307.307.307h.988a.269.269,0,0,0,.307-.307v-1.367a.269.269,0,0,0-.307-.307h-.988a.279.279,0,0,0-.231.079Zm2.432-1.672c0,.076-.076.152-.307.228a1.787,1.787,0,0,1-.608.152c-.076,0-.152,0-.152-.076a.279.279,0,0,1-.076-.228c0-.38.076-.76.076-1.292v-.76a17.187,17.187,0,0,0-.076-2.052v-.076c0-.152.076-.228.152-.228h.152l.684.307a.685.685,0,0,0,.38.076h1.976c.152,0,.228-.076.307-.228l.076-.152a.266.266,0,0,0,.076-.152l.152-.152.076-.076c.076,0,.228.076.456.307s.456.38.608.532c0,.076.076.076.076.152a.163.163,0,0,1-.152.152.235.235,0,0,0-.152.076c-.152.076-.228.152-.228.307v9.423a1.32,1.32,0,0,1-.228.911,1.3,1.3,0,0,1-.911.456h-.076c-.152,0-.228-.076-.307-.228-.076-.228-.076-.38-.228-.456a1.533,1.533,0,0,0-.608-.307c-.152,0-.228-.076-.228-.152s.076-.076.228-.076h1.064a.279.279,0,0,0,.228-.076c.076-.076.076-.076.076-.228v-6.079a.269.269,0,0,0-.307-.307H190.89c-.071.149-.147.225-.147.3Zm2.508-2.355a.279.279,0,0,0,.076-.228v-.608a.269.269,0,0,0-.307-.307h-2.052a.269.269,0,0,0-.307.306v.684a.269.269,0,0,0,.307.307h2.052c.154-.078.23-.078.23-.154Zm-2.432.531a.279.279,0,0,0-.076.228v.684a.269.269,0,0,0,.307.307H193.1a.269.269,0,0,0,.307-.307v-.684a.269.269,0,0,0-.307-.307h-2.052c-.081,0-.156.08-.232.08Z" transform="translate(-183.587 -257.002)" fill="#0a324c"/>
      </g>
      <g id="グループ_7" data-name="グループ 7" transform="translate(92.717 0.077)">
        <path id="パス_7" data-name="パス 7" d="M212.875,264.551l.228-.307a.939.939,0,0,0,.152-.228c.076-.152.152-.152.152-.228.076-.076.076-.076.152-.076s.228.152.532.38a4.51,4.51,0,0,1,.608.608.235.235,0,0,1,.076.152c0,.076,0,.076-.076.152a.279.279,0,0,1-.228.076h-2.813a.269.269,0,0,0-.307.307v2.355c0,.152,0,.228.076.228a.569.569,0,0,0,.38.076h2.052a.394.394,0,0,0,.307-.152,6.763,6.763,0,0,0,.38-1.368c0-.152.076-.228.152-.228s.076.076.076.307v1.139c0,.152.076.228.228.38a.431.431,0,0,1,0,.76,3.547,3.547,0,0,1-.684.228,8.3,8.3,0,0,1-1.52.076h-1.368a2.6,2.6,0,0,1-.836-.076.759.759,0,0,1-.38-.307,1.482,1.482,0,0,1-.076-.613v-2.657a.269.269,0,0,0-.307-.307h-1.368c-.152,0-.307.076-.307.228a4.639,4.639,0,0,1-1.139,2.28,7.1,7.1,0,0,1-3.04,1.672c-.076,0-.152.076-.228.076s-.076,0-.152-.076h0q0-.113.228-.228a6.83,6.83,0,0,0,2.28-1.672,4.415,4.415,0,0,0,.988-1.975v-.076c0-.152-.076-.228-.307-.228h-.76a14.832,14.832,0,0,0-1.747.152H204.2a.394.394,0,0,1-.307-.152l-.076-.076c0-.076-.076-.076-.076-.152s0-.076.076-.152c.076,0,.076-.076.228,0,.307,0,.76.076,1.444.076h1.383c.228,0,.307-.076.307-.228v-1.747a.269.269,0,0,0-.307-.307h-.76a.394.394,0,0,1-.307-.152.075.075,0,0,0-.076-.076.279.279,0,0,0-.228.076,11.126,11.126,0,0,1-1.9.988c-.076,0-.152.076-.228.076s-.076,0-.076-.076V263.4q0-.114.228-.228a10.262,10.262,0,0,0,2.432-1.975,9.407,9.407,0,0,0,1.672-2.583v-.152c0-.076,0-.152-.076-.152s-.076-.076-.228-.076h-.608a11.336,11.336,0,0,0-1.6.152h-.076a.394.394,0,0,1-.307-.152l-.076-.076c0-.076-.076-.076-.076-.152s0-.076.076-.152c.076,0,.076-.076.228,0,.307,0,.76.076,1.444.076h1.216c.152,0,.228-.076.38-.152l.152-.152a.94.94,0,0,0,.152-.228c.076-.076.152-.152.228-.152s.228.076.456.307l.532.532a.266.266,0,0,0,.076.152.163.163,0,0,1-.152.152h-.154c-.152,0-.228.076-.307.228a10.157,10.157,0,0,1-2.508,3.191c-.076.076-.152.152-.152.228s0,.076.076.076.076.076.152.076h4.332c.152,0,.228-.076.307-.228l.152-.228c0-.076.076-.152.152-.228s.076-.152.152-.152a.075.075,0,0,0,.076-.076c.076,0,.152.076.38.228l.456.456a1.31,1.31,0,0,1,.228.307c0,.152-.152.228-.307.228H211.5a.269.269,0,0,0-.307.307v1.747a.269.269,0,0,0,.307.307h.988C212.647,264.7,212.722,264.7,212.875,264.551ZM204.211,259c0-.076-.076-.076,0-.076h.228a2.861,2.861,0,0,1,1.368.608,1.049,1.049,0,0,1,.456.836,1.081,1.081,0,0,1-.152.456c-.076.152-.228.152-.38.152a.279.279,0,0,1-.228-.076c-.152-.076-.228-.152-.228-.307a7.048,7.048,0,0,0-.38-.76c-.152-.228-.38-.456-.532-.684-.075-.074-.075-.149-.151-.149Zm4.1,3.5a.279.279,0,0,0-.076.228v1.747c0,.228.076.307.307.307h1.294a.269.269,0,0,0,.307-.307v-1.747a.269.269,0,0,0-.307-.307h-1.292a.279.279,0,0,0-.233.079Zm4.56-1.976c0,.076.076.152.152.228a10.658,10.658,0,0,0,2.28,1.139.94.94,0,0,1,.228.152l-.076.076a.266.266,0,0,1-.152.076,1.177,1.177,0,0,0-.608.608c-.076.152-.152.152-.228.152s-.076,0-.152-.076a8.481,8.481,0,0,1-2.812-2.355,10.4,10.4,0,0,1-1.747-3.419v-.152c0-.076,0-.152.076-.152h0q.114,0,.228.228a5.466,5.466,0,0,0,.911,1.6c.076.076.152.152.228.152a.279.279,0,0,0,.228-.076,7.989,7.989,0,0,0,1.064-1.52c.076-.076.152-.152.228-.152a.279.279,0,0,1,.228.076c.608.38.911.684.911.76a.265.265,0,0,1-.152.076h-.076a.394.394,0,0,0-.307.152c-.608.38-1.139.76-1.6.988-.076.076-.152.152-.152.228a.279.279,0,0,0,.076.228l.684.684a.38.38,0,0,0,.456,0,7.106,7.106,0,0,0,1.216-1.52c.076-.076.152-.152.228-.152a.279.279,0,0,1,.228.076c.608.456.911.684.911.836a.266.266,0,0,1-.152.076h-.071c-.152,0-.228.076-.307.076a11.037,11.037,0,0,1-1.672.911c-.3-.145-.3-.075-.3,0Z" transform="translate(-203.303 -256.799)" fill="#0a324c"/>
      </g>
      <g id="グループ_8" data-name="グループ 8" transform="translate(107.838 3.18)">
        <path id="パス_8" data-name="パス 8" d="M233.839,265.688a3.08,3.08,0,0,1,.684.38.55.55,0,0,1,.307.456.394.394,0,0,1-.152.306.569.569,0,0,1-.38.076.685.685,0,0,1-.38-.076,12.485,12.485,0,0,0-3.04-.306,16.54,16.54,0,0,0-1.9.076,19.857,19.857,0,0,0-3.191.532c-.152,0-.228.076-.38.152a2.351,2.351,0,0,1-.608.152,1.7,1.7,0,0,1-.76-.228,2.044,2.044,0,0,1-.608-.532,1.011,1.011,0,0,1-.228-.532v-.076h.076c.076,0,.076,0,.228.076a.265.265,0,0,1,.152.076,2.249,2.249,0,0,0,.76.152c.152,0,1.444-.152,3.724-.38a.327.327,0,0,0,.307-.307c.076-1.216.152-1.976.152-2.355v-.38a.657.657,0,0,0-.228-.456.58.58,0,0,0-.38-.152l-1.064.228c-.152,0-.38.076-.456.076a.817.817,0,0,1-.456-.152c-.076,0-.076-.076-.152-.076s-.152,0-.152-.076c-.152-.076-.228-.076-.307-.228a1.052,1.052,0,0,1-.228-.307.279.279,0,0,1-.076-.228c0-.076,0-.076.076-.076.152,0,.307.076.456.076h.38a7.366,7.366,0,0,0,1.292-.076,11.977,11.977,0,0,0,1.747-.228c.836-.152,1.52-.228,1.747-.307a1.483,1.483,0,0,1,.532-.076,1.124,1.124,0,0,1,.532.076.686.686,0,0,0,.38.076.394.394,0,0,1,.307.152l.228.228v.076a.163.163,0,0,1-.152.152c-.076,0-.152.076-.307.076a3.408,3.408,0,0,0-.836.076,2.006,2.006,0,0,1-.532.076c-.307,0-.684.076-1.216.076-.152,0-.228.076-.228.152s.076.152.152.228c.152.152.307.307.307.38a.279.279,0,0,1-.076.228.576.576,0,0,0-.152.307,10.334,10.334,0,0,0-.228,2.052h0a.269.269,0,0,0,.307.307c.911-.076,1.52-.152,1.824-.152a4.674,4.674,0,0,0,.988-.076,3,3,0,0,0,.456-.152,1.129,1.129,0,0,1,.456-.076C233.383,265.535,233.611,265.612,233.839,265.688Z" transform="translate(-223.201 -260.887)" fill="#0a324c"/>
      </g>
      <g id="グループ_9" data-name="グループ 9" transform="translate(121.055 1.137)">
        <path id="パス_9" data-name="パス 9" d="M240.6,269.294a.942.942,0,0,1,.228-.152,9.54,9.54,0,0,0,2.811-2.2,6.9,6.9,0,0,0,1.292-2.583,14.611,14.611,0,0,0,.307-3.419,8.786,8.786,0,0,0-.076-1.292,1.284,1.284,0,0,0-.307-.911.577.577,0,0,0-.307-.152.266.266,0,0,1-.152-.076l-.076-.076c0-.076.076-.152.228-.152a1.123,1.123,0,0,1,.532-.076h.38a3.1,3.1,0,0,1,.836.456c.307.228.38.38.38.532a.575.575,0,0,1-.076.307c0,.076-.076.152-.076.307,0,.076-.076.152-.076.307v1.361a11.8,11.8,0,0,1-.532,3.571,5.067,5.067,0,0,1-1.672,2.508,10.22,10.22,0,0,1-3.27,1.824.685.685,0,0,0-.38-.076Zm1.368-4.863a1.226,1.226,0,0,1-.228-.684,2.849,2.849,0,0,1,.076-.608c0-.38.076-.684.076-.988a10.491,10.491,0,0,0-.152-1.9.788.788,0,0,0-.456-.608.266.266,0,0,1-.152-.076.075.075,0,0,1-.076-.076q0-.114.228-.228a1.1,1.1,0,0,1,.532-.152c.152,0,.228,0,.307.076a2.732,2.732,0,0,1,.684.38.657.657,0,0,1,.228.456v.228a.279.279,0,0,1-.076.228c0,.228-.076.684-.076,1.292v1.064a3.443,3.443,0,0,0,.076.608v.532a1.1,1.1,0,0,1-.152.532.418.418,0,0,1-.38.228.511.511,0,0,1-.458-.3Z" transform="translate(-240.596 -258.195)" fill="#0a324c"/>
      </g>
      <g id="グループ_10" data-name="グループ 10" transform="translate(134.589 0.989)">
        <path id="パス_10" data-name="パス 10" d="M267.6,259.216a1.6,1.6,0,0,1,.456.608c0,.076,0,.076-.076.152a1.237,1.237,0,0,1-.456.228l-.38.228c-.307.152-.76.456-1.292.684a15.188,15.188,0,0,1-1.6.76c-.152.076-.228.152-.228.307a1.285,1.285,0,0,1-.152.38c-.076.152-.076.307-.152.456a16.642,16.642,0,0,1-1.672,3.27,7.793,7.793,0,0,1-2.963,2.657.279.279,0,0,1-.228.076c-.076,0-.076,0-.076-.076a.942.942,0,0,0,.152-.228,9.694,9.694,0,0,0,2.2-2.432,13.08,13.08,0,0,0,1.292-2.812,7.085,7.085,0,0,0,.456-1.9.929.929,0,0,0-.228-.684,1.469,1.469,0,0,0-.684-.38.075.075,0,0,1-.076-.076c0-.076.076-.152.228-.152a1.292,1.292,0,0,1,.532-.076,2.247,2.247,0,0,1,.76.152,1.653,1.653,0,0,1,.608.38.694.694,0,0,1,.228.38,1.081,1.081,0,0,0,.456-.152,8.138,8.138,0,0,0,1.368-1.444.491.491,0,0,0,.152-.38q0-.228-.456-.228c-.228,0-.684.076-1.368.152a8.651,8.651,0,0,0-1.747.38,10.831,10.831,0,0,0-1.216.38c-.456.152-.76.228-.988.307a1.89,1.89,0,0,1-.608.076,1.226,1.226,0,0,1-.76-.307,2.46,2.46,0,0,1-.608-.684c0-.076-.076-.152-.076-.228s0-.152.076-.152a.235.235,0,0,1,.152.076.279.279,0,0,0,.228.076,2.849,2.849,0,0,0,.836.076,3.7,3.7,0,0,0,.911-.076c.456-.076,1.292-.152,2.508-.307a18.9,18.9,0,0,0,2.2-.38c.076,0,.152-.076.456-.152a3.087,3.087,0,0,1,.532-.152c.076,0,.152.076.307.152a7,7,0,0,0,.983,1.065Z" transform="translate(-258.404 -257.999)" fill="#0a324c"/>
      </g>
      <g id="グループ_11" data-name="グループ 11" transform="translate(149.087 0.23)">
        <path id="パス_11" data-name="パス 11" d="M286.39,260.8a1.088,1.088,0,0,1,.38.836,1.15,1.15,0,0,1-.532,1.064,5.689,5.689,0,0,1-1.52.836l-.613.228a14.974,14.974,0,0,1-1.444.532c-.152.076-.228.152-.228.307v1.52a1.08,1.08,0,0,1-.152.456.418.418,0,0,1-.38.228c-.152,0-.228-.076-.38-.152-.076-.152-.152-.228-.152-.38a3.441,3.441,0,0,1,.076-.608v-.38c0-.152-.076-.228-.152-.228s-.152,0-.152.076c-.836.532-1.292,1.064-1.292,1.672,0,.684.684.988,1.975.988a1.887,1.887,0,0,0,.684-.076,2.215,2.215,0,0,0,.684-.152,1.021,1.021,0,0,0,.38-.076,1.293,1.293,0,0,1,.532-.076.642.642,0,0,1,.456.152.58.58,0,0,1,.152.38c0,.307-.228.532-.76.684a5.927,5.927,0,0,1-1.672.228,3.6,3.6,0,0,1-2.28-.532,1.493,1.493,0,0,1-.684-1.292,1.78,1.78,0,0,1,.532-1.292,7.963,7.963,0,0,1,1.444-1.139.409.409,0,0,0,.228-.307v-.228a2.013,2.013,0,0,0-.228-1.064c-.152-.228-.306-.38-.532-.38a1.05,1.05,0,0,0-.836.456c-.228.307-.608.76-.911,1.216l-.152.228a1.312,1.312,0,0,1-.228.307c-.152.152-.228.307-.307.38a.575.575,0,0,1-.307.152.418.418,0,0,1-.38-.228,1.063,1.063,0,0,1,.152-1.292l.228-.228.684-.684a5.349,5.349,0,0,0,.531-.684,11.97,11.97,0,0,0,.988-1.975v-.152c0-.076,0-.076-.076-.152-.076,0-.152-.076-.228,0a4.091,4.091,0,0,0-.608.076,2.728,2.728,0,0,1-.836-.152,10.32,10.32,0,0,1-.836-.608l-.076-.076a.075.075,0,0,1,.076-.076.587.587,0,0,1,.228.076,2.248,2.248,0,0,0,.988.152,5.164,5.164,0,0,0,1.444-.228c.152,0,.228-.152.228-.307s.076-.307.076-.456a1.083,1.083,0,0,0-.456-.911c-.076-.076-.076-.076-.076-.152a.279.279,0,0,1,.076-.228c.076-.076.076-.076.228-.076a1.484,1.484,0,0,1,.532.076,1.239,1.239,0,0,1,.456.228c.076.076.076.152.076.38h0a.279.279,0,0,0,.076.228.163.163,0,0,0,.152.152c.152,0,.228.076.38.076s.228,0,.307-.076h.307c.228,0,.307.076.307.228a.657.657,0,0,1-.228.456,4.213,4.213,0,0,1-.608.456,2.433,2.433,0,0,1-.988.38.594.594,0,0,0-.307.307q-.342,1.022-.684,1.824a.266.266,0,0,1-.076.152c0,.076,0,.076.076.076h.076a3.3,3.3,0,0,0,.38-.076,1.342,1.342,0,0,1,1.444.988.235.235,0,0,1,.076.152c.076,0,.076-.076.152-.152a5.751,5.751,0,0,1,.988-1.52,4.878,4.878,0,0,1,.988-.76,2.23,2.23,0,0,1,1.216-.307C285.859,260.5,286.084,260.648,286.39,260.8Zm-5.091-2.355a.936.936,0,0,0-.152.228c0,.152,0,.228.076.152l.152-.076a.075.075,0,0,0,.076-.076.235.235,0,0,0-.076-.152l-.076-.076Zm4.027,3.647a1.417,1.417,0,0,0,.38-.76c0-.307-.152-.456-.532-.456a1.98,1.98,0,0,0-.836.228,2.374,2.374,0,0,0-.836.684,6.56,6.56,0,0,0-.532.76,7.383,7.383,0,0,0-.38.836c0,.076-.076.152-.076.228v.076h.076l.307-.152c.613-.307,1.064-.531,1.444-.76a1.575,1.575,0,0,0,.987-.683Z" transform="translate(-277.488 -257.001)" fill="#0a324c"/>
      </g>
      <g id="グループ_12" data-name="グループ 12" transform="translate(164.52 0.305)">
        <path id="パス_12" data-name="パス 12" d="M299.092,268.347a.075.075,0,0,0-.076.076v.456a.279.279,0,0,1-.076.228,1.661,1.661,0,0,1-.38.228.964.964,0,0,1-.456.076.269.269,0,0,1-.307-.306c0-.532.076-1.064.076-1.6s.077-1.139.077-1.976v-5.467a23.167,23.167,0,0,0-.152-2.432v-.076c0-.152.076-.228.152-.228h.152l.836.38a.685.685,0,0,0,.38.076h5.4c.152,0,.228-.076.38-.152l.152-.152c0-.076.076-.076.152-.152l.152-.152c.076-.076.076-.076.152-.076s.228.076.532.307a4.955,4.955,0,0,1,.608.532c.076.076.076.076.076.152s0,.152-.076.152-.076.076-.228.076c-.152.076-.228.152-.228.307v6.839c0,.988.076,1.976.076,3.04v.076a.4.4,0,0,1-.152.307l-.456.228a.963.963,0,0,1-.456.076h-.076c-.076,0-.152-.152-.152-.307v-.532a.269.269,0,0,0-.307-.307h-5.4C299.168,268.347,299.168,268.347,299.092,268.347Zm5.851-7.219a.279.279,0,0,0,.076-.228v-2.28a.269.269,0,0,0-.307-.307h-5.4a.269.269,0,0,0-.307.307v2.28a.269.269,0,0,0,.307.307h5.4a.279.279,0,0,0,.231-.079Zm0,3.344a.279.279,0,0,0,.076-.228v-2.355a.269.269,0,0,0-.307-.307h-5.4a.269.269,0,0,0-.307.307v2.355a.269.269,0,0,0,.307.307h5.4a.279.279,0,0,0,.231-.079Zm-5.851.531a.279.279,0,0,0-.076.228v2.432a.269.269,0,0,0,.307.306h5.4a.269.269,0,0,0,.307-.307V265.23a.269.269,0,0,0-.307-.307h-5.4c-.154,0-.154.08-.231.08Z" transform="translate(-297.795 -257.099)" fill="#0a324c"/>
      </g>
      <g id="グループ_13" data-name="グループ 13" transform="translate(177.134 0.077)">
        <path id="パス_13" data-name="パス 13" d="M324.659,259.232l.228-.307c.076-.076.076-.152.152-.228s.076-.152.152-.228.076-.076.152-.076.228.152.532.38a2.234,2.234,0,0,1,.608.608c.076.076.076.076.076.152s0,.076-.076.152a.279.279,0,0,1-.228.076h-9.5a16.084,16.084,0,0,0-1.824.152h-.076a.394.394,0,0,1-.307-.152l-.076-.076a.265.265,0,0,0-.076-.152c0-.076,0-.076.076-.152s.076-.076.228,0c.307,0,.76.076,1.444.076H318.5c-.076,0-.076-.076-.152-.076,0-.076-.076-.076-.076-.228a3.707,3.707,0,0,0-.456-.988l-.684-.911a.938.938,0,0,0-.152-.228.075.075,0,0,1,.076-.076h.228a3.192,3.192,0,0,1,1.52.836,1.635,1.635,0,0,1,.456.988,1.081,1.081,0,0,1-.152.456.235.235,0,0,0-.076.152.265.265,0,0,0,.152.076h1.824c.152,0,.228,0,.307-.076a5.884,5.884,0,0,0,.531-1.216c.152-.456.307-.836.38-1.139a.2.2,0,0,1,.228-.228h.152c.836.228,1.292.456,1.292.532a.266.266,0,0,1-.152.076h-.076a1.05,1.05,0,0,0-.307.228A11.6,11.6,0,0,1,321.992,259c-.076.076-.152.152-.152.228s0,.076.076.076.076.076.152.076h2.052C324.431,259.383,324.583,259.383,324.659,259.232Zm-8.055,6.687a.279.279,0,0,0-.076.228v.76c0,.836.076,1.444.076,1.824v.076a.279.279,0,0,1-.076.228,1.66,1.66,0,0,1-.38.228.964.964,0,0,1-.456.076.269.269,0,0,1-.307-.307c0-.532.076-1.064.076-1.6s.076-1.139.076-1.975v-2.12a23.168,23.168,0,0,0-.152-2.432v-.076c0-.152.076-.228.152-.228h.152l.684.307a.457.457,0,0,0,.307.076h1.672c.152,0,.228-.076.38-.152l.076-.152.152-.152.152-.152c.076,0,.228.076.456.307a4.209,4.209,0,0,1,.608.456c0,.076.076.076.076.152a.164.164,0,0,1-.152.152c-.076,0-.076.076-.152.076-.152.076-.228.152-.228.307v6a1.621,1.621,0,0,1-.228.912c-.152.228-.38.307-.836.38h-.076c-.152,0-.228-.076-.307-.228a1.079,1.079,0,0,0-.152-.456,1.144,1.144,0,0,0-.608-.307c-.152-.076-.228-.076-.228-.152s.076-.076.307-.076c.38,0,.684.076.836.076.076,0,.152,0,.152-.076s.076-.076.076-.228v-1.824a.269.269,0,0,0-.307-.307H316.6c.155.3.08.3,0,.374Zm2.2-2.736a.279.279,0,0,0,.076-.228v-1.064a.269.269,0,0,0-.307-.307h-1.747a.269.269,0,0,0-.307.307v1.064a.269.269,0,0,0,.307.307h1.747a.279.279,0,0,0,.231-.079Zm-2.2.532a.279.279,0,0,0-.076.228v1.216a.269.269,0,0,0,.307.307h1.747a.269.269,0,0,0,.307-.307v-1.216a.269.269,0,0,0-.307-.307h-1.747c-.079,0-.154.078-.23.078Zm4.94,0a21.863,21.863,0,0,0-.152-2.432v-.076a.2.2,0,0,1,.228-.228h.152q1.139.342,1.139.456l-.152.152h-.076a.418.418,0,0,0-.228.38v1.6c0,.988.076,1.976.076,3.04v.076a.394.394,0,0,1-.152.307.58.58,0,0,1-.38.152.826.826,0,0,1-.38.076.269.269,0,0,1-.307-.307,12.367,12.367,0,0,0,.076-1.824v-1.368Zm2.811-.307a21.9,21.9,0,0,0-.152-2.432V260.9a.2.2,0,0,1,.228-.228h.076q1.14.342,1.14.456l-.152.152h-.076a.352.352,0,0,0-.228.38v6.307a1.686,1.686,0,0,1-.076.684,1.014,1.014,0,0,1-.38.456,1.226,1.226,0,0,1-.836.228h-.076c-.152,0-.228-.076-.307-.228a1.237,1.237,0,0,0-.228-.456,1.788,1.788,0,0,0-.911-.307c-.152-.076-.307-.076-.307-.152s.076-.076.228-.076a5.19,5.19,0,0,1,.911.076h.532a.279.279,0,0,0,.228-.076c.076-.076.076-.076.076-.228v-4.479Z" transform="translate(-314.395 -256.799)" fill="#0a324c"/>
      </g>
      <g id="グループ_14" data-name="グループ 14" transform="translate(192.027 1.669)">
        <path id="パス_14" data-name="パス 14" d="M334.912,268.7a1.653,1.653,0,0,1-.38-.608,8.417,8.417,0,0,1-.532-3.27,9.474,9.474,0,0,1,.152-1.6,14.715,14.715,0,0,1,.38-1.52,6.156,6.156,0,0,1,.228-.836,2.47,2.47,0,0,0,0-1.216.7.7,0,0,0-.307-.456l-.076-.076a.266.266,0,0,1-.076-.152.075.075,0,0,1,.076-.076.279.279,0,0,1,.228.076,2.075,2.075,0,0,1,.911.684,1.609,1.609,0,0,1,.307,1.064,2.221,2.221,0,0,1-.152.684,7.059,7.059,0,0,1-.38.76,4.493,4.493,0,0,1-.307.608c-.076.228-.152.38-.228.608a4.483,4.483,0,0,0-.152,1.064,1.483,1.483,0,0,0,.076.613c.076.228.076.306.152.306l.152-.152a.235.235,0,0,0,.076-.152l.76-1.519c.076-.076.076-.152.152-.152a.075.075,0,0,1,.076.076l-.076.152a14.345,14.345,0,0,0-.456,1.368,5.13,5.13,0,0,0-.228,1.292,2.1,2.1,0,0,0,.076.684,7.862,7.862,0,0,0,.228.911c.076.307.152.532.152.608a.4.4,0,0,1-.152.307c-.076.076-.152.076-.307.076C335.292,268.931,335.139,268.855,334.912,268.7Zm3.952-.684a2.011,2.011,0,0,1-1.14-1.216.575.575,0,0,1-.076-.307.076.076,0,0,1,.152,0,.075.075,0,0,0,.076.076,3.659,3.659,0,0,0,1.216.613,3.132,3.132,0,0,0,.912.076,16.706,16.706,0,0,0,1.672-.152,1.315,1.315,0,0,0,.532-.076.863.863,0,0,1,.608.228.657.657,0,0,1,.228.456c0,.307-.228.456-.684.608a5.444,5.444,0,0,1-1.672.152,12.8,12.8,0,0,1-1.824-.458Zm.307-6.991a2.379,2.379,0,0,1-.76-.38,1.022,1.022,0,0,1-.456-.532.266.266,0,0,0-.076-.152.075.075,0,0,1,.076-.076.235.235,0,0,1,.152.076.279.279,0,0,0,.228.076,2.428,2.428,0,0,0,1.064.228,5.039,5.039,0,0,0,.988-.076c.38-.076.76-.152,1.064-.228a.574.574,0,0,1,.307-.076,1.1,1.1,0,0,1,.532.152c.152.152.228.228.228.38,0,.228-.228.456-.684.532a4.677,4.677,0,0,1-1.444.152,1.663,1.663,0,0,1-1.221-.078Z" transform="translate(-333.993 -258.896)" fill="#0a324c"/>
      </g>
      <g id="グループ_15" data-name="グループ 15" transform="translate(207.611 9.575)">
        <path id="パス_15" data-name="パス 15" d="M355.639,270.516a11.656,11.656,0,0,0-.911-.988.265.265,0,0,0-.152-.076l-.076-.076c0-.076,0-.076.076-.076a.279.279,0,0,1,.228.076,5.871,5.871,0,0,1,1.139.456,4.9,4.9,0,0,1,1.216.836,1.3,1.3,0,0,1,.532.988.592.592,0,0,1-.228.531.657.657,0,0,1-.456.228.715.715,0,0,1-.608-.456A8.3,8.3,0,0,0,355.639,270.516Z" transform="translate(-354.5 -269.299)" fill="#0a324c"/>
      </g>
    </g>
    <g id="グループ_35" data-name="グループ 35" transform="translate(0 19.284)">
      <g id="グループ_16" data-name="グループ 16" transform="translate(0 0.157)">
        <path id="パス_16" data-name="パス 16" d="M372.559,257.84c-.076,0-.152.076-.228.152a12.6,12.6,0,0,1-2.583,2.811,18.618,18.618,0,0,1-3.344,2.28c-.152.076-.307.076-.307,0h0c0-.076.076-.076.152-.228a13.969,13.969,0,0,0,2.052-1.747,16.576,16.576,0,0,0,1.9-2.128,10.26,10.26,0,0,0,1.216-2.052.352.352,0,0,1,.38-.228l1.216.307a.266.266,0,0,1,.152.076c.076.076.076.076.076.152s0,.076-.076.076c-.076.076-.152.152-.152.228a.075.075,0,0,0,.076.076,8.218,8.218,0,0,0,2.207,2.049,22.757,22.757,0,0,0,3.04,1.672.266.266,0,0,1,.152.076l.076.076q0,.114-.228.228a1.177,1.177,0,0,0-.608.608c-.076.152-.152.152-.228.152s-.076,0-.152-.076a17.7,17.7,0,0,1-2.657-2.052,7.073,7.073,0,0,1-1.824-2.508C372.711,257.916,372.64,257.84,372.559,257.84Zm2.432,7.143.152-.228c0-.076.076-.076.152-.152s.076-.152.152-.152c.076-.076.076-.076.152-.076s.228.076.532.307a4.97,4.97,0,0,1,.613.532.235.235,0,0,1,.076.152c0,.076,0,.076-.076.152s-.152.076-.307.076H373.02a.269.269,0,0,0-.307.307v2.346a.269.269,0,0,0,.307.306h2.811c.152,0,.228-.076.38-.152l.228-.307c.076-.076.076-.152.152-.228s.076-.152.152-.228.076-.076.152-.076.228.152.531.38a2.232,2.232,0,0,1,.608.608.235.235,0,0,1,.076.152c0,.076,0,.076-.076.152a.279.279,0,0,1-.228.076h-8.967a17.645,17.645,0,0,0-1.824.152h-.076a.4.4,0,0,1-.307-.152l-.076-.152c0-.076-.076-.076-.076-.152s0-.076.076-.152c.076,0,.076-.076.228,0,.307,0,.76.076,1.444.076h3.116a.269.269,0,0,0,.307-.307V265.9a.269.269,0,0,0-.307-.307h-.911a17.655,17.655,0,0,0-1.824.152h-.076a.4.4,0,0,1-.307-.152l-.076-.076c0-.076-.076-.076-.076-.152s0-.076.076-.152c.076,0,.076-.076.228,0,.307,0,.76.076,1.444.076h1.52a.269.269,0,0,0,.307-.307V263a.269.269,0,0,0-.307-.307h-.76a13.654,13.654,0,0,0-1.672.152h-.076a.4.4,0,0,1-.307-.152l-.076-.076c0-.076-.076-.076-.076-.152s0-.076.076-.152c.076,0,.076-.076.228,0,.307,0,.76.076,1.444.076h4.027c.152,0,.228-.076.38-.152l.152-.228c0-.076.076-.076.152-.152s.076-.152.152-.152l.076-.076c.076,0,.228.076.532.307a4.943,4.943,0,0,1,.608.532.235.235,0,0,1,.076.152c0,.076,0,.076-.076.152a.279.279,0,0,1-.228.076h-2.888a.269.269,0,0,0-.307.307v1.976a.269.269,0,0,0,.307.307h1.593c.08-.306.231-.306.307-.457Z" transform="translate(-366.098 -256.697)" fill="#0a324c"/>
      </g>
      <g id="グループ_17" data-name="グループ 17" transform="translate(16.033 1.676)">
        <path id="パス_17" data-name="パス 17" d="M392.368,262.879a2.527,2.527,0,0,1,.911,1.064,3.083,3.083,0,0,1,.307,1.444,4.89,4.89,0,0,1-.38,1.824,2.594,2.594,0,0,1-1.064,1.292,2.889,2.889,0,0,1-1.672.456,2.8,2.8,0,0,1-1.747-.532,2.905,2.905,0,0,1-1.139-1.519,5.179,5.179,0,0,1-.38-2.2,8.357,8.357,0,0,1,.608-3.27,4.736,4.736,0,0,1,1.444-2.052A2.833,2.833,0,0,1,391,258.7a3.151,3.151,0,0,1,1.216.228,1.653,1.653,0,0,1,.684.532,1.212,1.212,0,0,1,.228.608.759.759,0,0,1-1.368.454,1.431,1.431,0,0,1-.307-.684,1.1,1.1,0,0,0-.152-.532.643.643,0,0,0-.456-.152,1.574,1.574,0,0,0-1.444,1.139,8.861,8.861,0,0,0-.76,2.811c0,.152.076.228.152.228a1.281,1.281,0,0,0,.38-.152,2.678,2.678,0,0,1,1.747-.684A2.91,2.91,0,0,1,392.368,262.879Zm-.988,5.168a2.8,2.8,0,0,0,.608-1.064,4.426,4.426,0,0,0,.228-1.444,2.472,2.472,0,0,0-.532-1.9,1.863,1.863,0,0,0-1.216-.456,1.672,1.672,0,0,0-.988.307,2.745,2.745,0,0,0-.836.988.569.569,0,0,0-.076.38,6.161,6.161,0,0,0,.456,2.508,1.55,1.55,0,0,0,1.52,1.064,1.22,1.22,0,0,0,.837-.383Z" transform="translate(-387.197 -258.697)" fill="#0a324c"/>
      </g>
      <g id="グループ_18" data-name="グループ 18" transform="translate(26.063 1.676)">
        <path id="パス_18" data-name="パス 18" d="M405.568,262.879a2.528,2.528,0,0,1,.911,1.064,3.083,3.083,0,0,1,.307,1.444,4.892,4.892,0,0,1-.38,1.824,2.594,2.594,0,0,1-1.064,1.292,2.89,2.89,0,0,1-1.672.456,2.8,2.8,0,0,1-1.747-.532,2.906,2.906,0,0,1-1.14-1.519,5.181,5.181,0,0,1-.38-2.2,8.355,8.355,0,0,1,.613-3.27,4.737,4.737,0,0,1,1.444-2.052,2.834,2.834,0,0,1,1.747-.684,3.151,3.151,0,0,1,1.216.228,1.654,1.654,0,0,1,.684.532,1.213,1.213,0,0,1,.228.608.759.759,0,0,1-1.368.454,1.43,1.43,0,0,1-.307-.684,1.1,1.1,0,0,0-.152-.532.643.643,0,0,0-.456-.152,1.574,1.574,0,0,0-1.444,1.139,8.864,8.864,0,0,0-.76,2.811c0,.152.076.228.152.228a1.283,1.283,0,0,0,.38-.152,2.678,2.678,0,0,1,1.747-.684,3.142,3.142,0,0,1,1.441.386Zm-.988,5.168a2.8,2.8,0,0,0,.608-1.064,4.423,4.423,0,0,0,.228-1.444,2.472,2.472,0,0,0-.532-1.9,1.863,1.863,0,0,0-1.216-.456,1.672,1.672,0,0,0-.988.307,2.746,2.746,0,0,0-.836.988.569.569,0,0,0-.076.38,6.16,6.16,0,0,0,.456,2.508,1.55,1.55,0,0,0,1.52,1.064,1.22,1.22,0,0,0,.837-.383Z" transform="translate(-400.396 -258.697)" fill="#0a324c"/>
      </g>
      <g id="グループ_19" data-name="グループ 19" transform="translate(36.023 0.383)">
        <path id="パス_19" data-name="パス 19" d="M415.7,262.015a.279.279,0,0,0-.076.228v3.116a.269.269,0,0,0,.307.306c.531-.076,1.064-.228,1.6-.306l.456-.076h.152c.076,0,.152,0,.152.076h0c0,.076-.076.076-.228.228-1.064.532-2.28,1.064-3.5,1.6-.076.076-.152.076-.228.152l-.076.076c0,.076-.076.076-.152.076s-.152-.076-.228-.228l-.38-.76v-.152a.2.2,0,0,1,.228-.228l.608-.076c.152,0,.228-.152.228-.307v-5.243a23.167,23.167,0,0,0-.152-2.432v-.076c0-.152.076-.228.152-.228s.076,0,.152.076l.911.456a.279.279,0,0,0,.228.076h.152c.608-.228,1.216-.38,1.747-.608a8.66,8.66,0,0,0,1.444-.684c.076,0,.076-.076.152-.076a.279.279,0,0,1,.228.076,5.007,5.007,0,0,1,.836.911c0,.076-.076.076-.228.076h-.532l-.911.228c-.152,0-.228.152-.307.307v.836a17.194,17.194,0,0,0,.076,1.9.327.327,0,0,0,.307.307h.228c.152,0,.228-.076.38-.228l.152-.228c0-.076.076-.076.152-.152s.076-.152.152-.152a.075.075,0,0,1,.076-.076c.076,0,.228.076.456.307l.532.532a.236.236,0,0,1,.076.152c0,.076,0,.076-.076.152a.279.279,0,0,1-.228.076h-1.747a.269.269,0,0,0-.307.307,7.9,7.9,0,0,0,1.064,3.5c.076.076.076.152.152.152s.076-.076.152-.152c.076-.228.228-.608.38-.988.076-.152.076-.307.152-.228.076,0,.076.076.076.307l-.152,1.368v.076a.574.574,0,0,0,.076.307,3.1,3.1,0,0,1,.152.532.457.457,0,0,1-.076.307.579.579,0,0,1-.38.152.817.817,0,0,1-.532-.228,2.659,2.659,0,0,1-.456-.456,10.379,10.379,0,0,1-1.444-4.56.327.327,0,0,0-.307-.307h-1.6C415.78,261.94,415.7,262.015,415.7,262.015Zm.38,6.687a10.393,10.393,0,0,0-1.444.152h0a.4.4,0,0,1-.307-.152l-.076-.076c0-.076-.076-.076-.076-.152s0-.076.076-.152c.076,0,.076-.076.228,0,.307,0,.76.076,1.444.076h2.128c.152,0,.228-.076.38-.152l.152-.228c0-.076.076-.076.152-.228a.586.586,0,0,1,.152-.228c.076-.076.076-.076.152-.076s.228.076.532.307a3.431,3.431,0,0,1,.532.532.235.235,0,0,1,.076.152c0,.076,0,.076-.076.152s-.152.076-.307.076ZM417.3,258.52a13.376,13.376,0,0,1-1.444.152.327.327,0,0,0-.307.307v2.28a.269.269,0,0,0,.307.307h1.6c.228,0,.307-.076.307-.307a23.657,23.657,0,0,1-.076-2.432c-.08-.23-.156-.307-.384-.307Zm5.015-.152a.279.279,0,0,0-.076.228v7.219c0,.988.076,1.975.076,3.04v.076a.4.4,0,0,1-.152.307,1.384,1.384,0,0,1-.836.307.269.269,0,0,1-.307-.307c0-.532.076-1.064.076-1.6s.076-1.139.076-1.976v-5.62a23.167,23.167,0,0,0-.152-2.432v-.076c0-.152.076-.228.152-.228s.076,0,.152.076l.76.38a.685.685,0,0,0,.38.076h1.292a.579.579,0,0,0,.38-.152l.152-.152.152-.152.152-.152c.076-.076.076-.076.152-.076s.228.152.456.38a3.322,3.322,0,0,1,.532.608c0,.076.076.076.076.152a.164.164,0,0,1-.152.152H425.5c-.076,0-.152.076-.228.076s-.076.076-.152.152c-.228.456-.456.988-.76,1.6s-.532,1.064-.76,1.444a.266.266,0,0,1-.076.152c0,.076.076.152.152.228a5.526,5.526,0,0,1,1.368,1.672,3.642,3.642,0,0,1,.38,1.747,2.518,2.518,0,0,1-.38,1.444,1.692,1.692,0,0,1-1.216.608h-.076c-.152,0-.228-.076-.228-.307a.886.886,0,0,0-.152-.532,1.237,1.237,0,0,0-.456-.228c-.152-.076-.228-.076-.228-.152s.076-.076.307-.076h.911c.076,0,.152-.076.307-.152a1.226,1.226,0,0,0,.228-.836,4.732,4.732,0,0,0-1.139-3.039.279.279,0,0,1-.076-.228v-.152c.307-1.064.608-2.2.836-3.344v-.076c0-.076,0-.152-.076-.152a.279.279,0,0,0-.228-.076h-1.292a.163.163,0,0,1-.157.15Z" transform="translate(-413.503 -256.995)" fill="#0a324c"/>
      </g>
      <g id="グループ_20" data-name="グループ 20" transform="translate(51.373 2.136)">
        <path id="パス_20" data-name="パス 20" d="M441.679,259.832a4.786,4.786,0,0,1,1.975,1.52,4.243,4.243,0,0,1,.76,2.657,4.012,4.012,0,0,1-1.211,3.119,5.445,5.445,0,0,1-2.735,1.52,9.1,9.1,0,0,1-2.736.38h-.152c-.076,0-.076,0-.076-.076a.265.265,0,0,1,.152-.077,3.3,3.3,0,0,1,.38-.076,6.978,6.978,0,0,0,3.724-1.6,4.249,4.249,0,0,0,1.444-3.27,4.6,4.6,0,0,0-.608-2.432,4.526,4.526,0,0,0-1.6-1.368,5.223,5.223,0,0,0-1.824-.38.409.409,0,0,0-.228.307c.076.228.152.456.228.76a2.852,2.852,0,0,1,.076.76,5.865,5.865,0,0,1-.152,1.14,8.292,8.292,0,0,1-.38,1.292,12.867,12.867,0,0,1-.988,2.052,5.417,5.417,0,0,1-1.139,1.368,1.673,1.673,0,0,1-.911.456,1.3,1.3,0,0,1-.988-.532,2.987,2.987,0,0,1-.684-1.292,5.931,5.931,0,0,1-.307-1.672,4.606,4.606,0,0,1,.836-2.657,5.934,5.934,0,0,1,2.052-1.824,5.465,5.465,0,0,1,2.657-.608A8.135,8.135,0,0,1,441.679,259.832Zm-2.963.228c0-.152-.152-.228-.38-.228a4.014,4.014,0,0,0-1.824.836,4.189,4.189,0,0,0-1.292,1.52,4.525,4.525,0,0,0-.456,2.052,3.027,3.027,0,0,0,.228,1.292,4.121,4.121,0,0,0,.456.836.694.694,0,0,0,.38.228c.228,0,.456-.152.76-.456A7.48,7.48,0,0,0,437.5,265a11.1,11.1,0,0,0,1.064-2.128,5.665,5.665,0,0,0,.307-1.976C438.791,260.592,438.791,260.288,438.715,260.06Z" transform="translate(-433.702 -259.301)" fill="#0a324c"/>
      </g>
      <g id="グループ_21" data-name="グループ 21" transform="translate(66.254 0.22)">
        <path id="パス_21" data-name="パス 21" d="M458.7,263.034l.076-.152c0-.076.076-.076.152-.228s.152-.152.152-.152c.076,0,.228.076.456.307l.532.532c0,.076.076.076.076.152a.164.164,0,0,1-.152.152l-.152.076a.163.163,0,0,0-.152.152c-.076.076-.076.076-.076.228v1.444c0,.988.076,1.975.076,2.963v.076a.394.394,0,0,1-.152.307.58.58,0,0,1-.38.152.824.824,0,0,1-.38.076h-.076c-.076,0-.152-.152-.152-.307v-.464a.269.269,0,0,0-.307-.307h-2.052a.269.269,0,0,0-.307.307v.38a.28.28,0,0,1-.076.228,1.283,1.283,0,0,1-.76.228.269.269,0,0,1-.307-.307c.076-.911.076-1.9.152-2.963V264.7c0-.076,0-.152-.076-.152,0-.076-.076-.076-.152-.076s-.152,0-.152.076c-.307.152-.608.38-.911.532-.152.076-.228.076-.307,0V265a.075.075,0,0,1,.076-.076c0-.076.076-.076.152-.152.456-.307.836-.608,1.216-.911a.58.58,0,0,0,.152-.38v-.608c0-.152.076-.228.152-.228s.076,0,.152.076l.307.152c.076,0,.076.076.152.076a.279.279,0,0,0,.228-.076c.228-.228.38-.456.608-.684l.228-.228a.279.279,0,0,0,.076-.228c0-.076-.076-.152-.228-.152h-.836a17.637,17.637,0,0,0-1.824.152h-.076a.4.4,0,0,1-.307-.152l-.076-.152c0-.076-.076-.076-.076-.152s0-.076.076-.152c.076,0,.076-.076.228,0,.307,0,.76.076,1.368.076h.531a.269.269,0,0,0,.307-.307v-1.368a.269.269,0,0,0-.307-.307h-.38a3.816,3.816,0,0,0-.911.152H454.2c-.152,0-.228-.076-.228-.152l-.076-.076c0-.076-.076-.076-.076-.152,0-.152.076-.152.228-.152a6.217,6.217,0,0,1,1.064.076h.38c.228,0,.307-.076.307-.307,0-.532-.076-1.064-.076-1.52v-.076a.2.2,0,0,1,.228-.228h.076q1.139.342,1.139.456c0,.076-.076.076-.152.152h-.076a.418.418,0,0,0-.228.38v.76a.269.269,0,0,0,.307.307h.076a.4.4,0,0,0,.307-.152l.307-.38c.076-.076.152-.152.228-.152a.279.279,0,0,1,.228.076l.152.152.152.152a.279.279,0,0,0,.228.076c.076,0,.152-.076.228-.152a9.254,9.254,0,0,0,.38-1.064q.114-.228.228-.228c.076,0,.076,0,.152.076.608.307.988.532.988.608a.265.265,0,0,1-.152.076h-.076c-.152,0-.228.076-.307.228a19.491,19.491,0,0,1-1.672,2.657.279.279,0,0,0-.076.228.164.164,0,0,0,.152.152h.152c.152,0,.228-.076.38-.152l.152-.228.152-.152c.076-.076.076-.152.152-.152.076-.076.076-.076.152-.076s.228.076.456.307a3.43,3.43,0,0,1,.532.532.235.235,0,0,1,.076.152c0,.076,0,.076-.076.152a.279.279,0,0,1-.228.076h-2.28a.58.58,0,0,0-.38.152l-.988.988a.279.279,0,0,0-.076.228c0,.076.076.152.228.152h1.139C458.543,263.26,458.619,263.184,458.7,263.034Zm-.076,2.355a.279.279,0,0,0,.076-.228V263.87a.269.269,0,0,0-.307-.307h-1.976c-.152,0-.228,0-.307.076s-.076.152-.076.307v1.216a.269.269,0,0,0,.307.307h2.052c.154,0,.23,0,.23-.084Zm-2.432.532a.279.279,0,0,0-.076.228v1.292a.269.269,0,0,0,.307.307h2.052a.269.269,0,0,0,.307-.307v-1.292a.269.269,0,0,0-.307-.307h-2.052c-.08,0-.155.077-.231.077Zm2.432-6.384c0-.076,0-.076-.076-.152-.076,0-.076-.076-.152-.076H457.4a.269.269,0,0,0-.307.307v1.367a.28.28,0,0,0,.076.228c0,.076.076.076.152.076.152,0,.228-.076.38-.152a7.578,7.578,0,0,0,.911-1.444Zm3.724-1.139a.279.279,0,0,0-.076.228v7.219c0,.988.076,1.976.076,3.04v.076a.4.4,0,0,1-.152.307,1.384,1.384,0,0,1-.836.307.269.269,0,0,1-.307-.307c0-.532.076-1.064.076-1.6s.076-1.14.076-1.976v-5.548a20.414,20.414,0,0,0-.152-2.355v-.076c0-.152.076-.228.152-.228s.076,0,.152.076l.836.38a.57.57,0,0,0,.38.076h1.444a.58.58,0,0,0,.38-.152l.152-.152.152-.152c.076-.076.152-.152.228-.152s.228.152.456.38a3.315,3.315,0,0,1,.532.608c0,.076.076.076.076.152a.164.164,0,0,1-.152.152l-.152.076a.418.418,0,0,0-.38.228l-.152.307c-.076.152-.307.532-.608,1.139a14.881,14.881,0,0,1-.911,1.6.235.235,0,0,0-.076.152c0,.076.076.152.152.228a4.866,4.866,0,0,1,1.444,1.672,3.75,3.75,0,0,1,.456,1.747,2.7,2.7,0,0,1-.38,1.444,1.886,1.886,0,0,1-1.292.608h-.076a.2.2,0,0,1-.228-.228,3.3,3.3,0,0,0-.076-.38.2.2,0,0,0-.228-.228,3.291,3.291,0,0,0-.38-.076c-.152,0-.228-.076-.228-.152s.076-.076.307-.076h.836a.685.685,0,0,0,.38-.076,1.1,1.1,0,0,0,.38-.988,4.535,4.535,0,0,0-1.292-3.04.279.279,0,0,1-.076-.228v-.152a24.1,24.1,0,0,0,.988-3.27v-.076a.2.2,0,0,0-.228-.228h-1.444c-.154-.384-.231-.384-.231-.308Z" transform="translate(-453.289 -256.785)" fill="#0a324c"/>
      </g>
      <g id="グループ_22" data-name="グループ 22" transform="translate(82.448 0.583)">
        <path id="パス_22" data-name="パス 22" d="M476.347,261.393c.076,0,.152.076.152.228a6.776,6.776,0,0,1,.228,1.672,5.928,5.928,0,0,1-.228,1.672,4.034,4.034,0,0,1-.608,1.14c-.152.152-.307.228-.38.307a1.08,1.08,0,0,1-.456.152.581.581,0,0,1-.38-.152.457.457,0,0,1-.076-.307.929.929,0,0,1,.307-.684,3.679,3.679,0,0,0,.988-1.444,5.452,5.452,0,0,0,.456-2.2C476.2,261.469,476.272,261.393,476.347,261.393Zm1.747,1.368a21.871,21.871,0,0,0-.152-2.432v-.076a.2.2,0,0,1,.228-.228h.152c.456.152.76.228.911.307s.228.152.228.228a.235.235,0,0,1-.076.152h-.076c-.152.076-.152.228-.152.38v6.54a.581.581,0,0,0,.152.38c.076.076.307.076.608.076h1.6a7.04,7.04,0,0,0,1.52-.076.279.279,0,0,0,.228-.076c.076,0,.076-.076.152-.152a8.336,8.336,0,0,0,.456-2.052c0-.152.076-.228.152-.228s.076.076.076.307l.076,1.9c0,.076,0,.152.076.152,0,.076.076.076.152.152a.418.418,0,0,1,.228.38.46.46,0,0,1-.228.456,3.78,3.78,0,0,1-.912.228,14.115,14.115,0,0,1-1.975.076h-1.747a3.424,3.424,0,0,1-.988-.076.879.879,0,0,1-.532-.38,1.906,1.906,0,0,1-.152-.76Zm.456-5.471a6.86,6.86,0,0,1,2.2.684,4.189,4.189,0,0,1,1.216.912,1.6,1.6,0,0,1,.38.836,1.081,1.081,0,0,1-.152.456c-.076.152-.228.152-.38.152h-.228c-.076,0-.228-.152-.307-.228a5.54,5.54,0,0,0-1.14-1.292,10.149,10.149,0,0,0-1.747-1.216q-.228-.114-.228-.228c.155-.077.231-.152.383-.077Zm5.319,4.027h0c.152-.076.228,0,.307.076a5.687,5.687,0,0,1,1.975,1.747,3.963,3.963,0,0,1,.613,1.824,1.364,1.364,0,0,1-.228.836c-.152.228-.307.38-.456.38s-.228-.076-.38-.152a.4.4,0,0,1-.152-.307,6.028,6.028,0,0,0-.456-2.2,5.62,5.62,0,0,0-1.139-1.976.587.587,0,0,1-.083-.224Z" transform="translate(-474.597 -257.258)" fill="#0a324c"/>
      </g>
      <g id="グループ_23" data-name="グループ 23" transform="translate(96.43 1.448)">
        <path id="パス_23" data-name="パス 23" d="M493,268.963a.075.075,0,0,1,.076-.076,17.71,17.71,0,0,0,4.256-2.657,12.451,12.451,0,0,0,2.888-4.027.587.587,0,0,0,.076-.228c0-.076-.076-.076-.152-.076a11.025,11.025,0,0,0-1.672.307c-.988.228-1.672.307-2.128.456-.228.076-.38.076-.456.152s-.228.076-.228.152c-.076.076-.076.076-.152.076a.57.57,0,0,1-.38.076,1.226,1.226,0,0,1-.684-.228,2.311,2.311,0,0,1-.608-.608,1.079,1.079,0,0,1-.152-.456v-.156a.075.075,0,0,1,.076-.076.235.235,0,0,1,.152.076.266.266,0,0,1,.152.076c.152.076.307.076.456.152a2.34,2.34,0,0,0,.76.076h.456c.228,0,.988-.152,2.2-.307,1.216-.228,1.9-.307,2.052-.38a1.177,1.177,0,0,0,.456-.228.266.266,0,0,1,.152-.076.266.266,0,0,0,.152-.076,1.01,1.01,0,0,1,.532.228,4.211,4.211,0,0,1,.608.456.657.657,0,0,1,.228.456.279.279,0,0,1-.076.228l-.228.228a4.586,4.586,0,0,0-.613.608,12.528,12.528,0,0,1-3.116,3.724,13.156,13.156,0,0,1-4.863,2.28l-.228-.152Zm2.2-9.271a1.277,1.277,0,0,1-.532-.608c0-.076-.076-.076-.076-.152v-.076h.076a.235.235,0,0,1,.152.076c.076,0,.152.076.228.076a2.584,2.584,0,0,0,.76.076,1.293,1.293,0,0,0,.532-.076c.988-.152,1.672-.307,2.128-.38a.581.581,0,0,0,.38-.152.279.279,0,0,1,.228-.076h.228a1.792,1.792,0,0,1,.608.152,1.364,1.364,0,0,1,.532.38.7.7,0,0,1,.228.38c0,.076-.076.152-.152.228s-.228.076-.456.076h-1.216a9.217,9.217,0,0,0-1.368.076,7.3,7.3,0,0,0-1.14.228,1.89,1.89,0,0,1-.608.076,4.354,4.354,0,0,1-.531-.3Z" transform="translate(-492.997 -258.397)" fill="#0a324c"/>
      </g>
      <g id="グループ_24" data-name="グループ 24" transform="translate(109.809 1.302)">
        <path id="パス_24" data-name="パス 24" d="M518.047,258.732a.491.491,0,0,1,.152.38c0,.076,0,.076-.076.152s-.076.076-.152.076a.235.235,0,0,0-.152.076c-.076.076-.152.076-.228.228a19.07,19.07,0,0,1-1.444,1.824.279.279,0,0,0-.076.228.163.163,0,0,0,.152.152c.076,0,.152.076.307.152a.418.418,0,0,1,.228.38.574.574,0,0,1-.076.307,2.616,2.616,0,0,0-.076.684v1.6a24,24,0,0,0,.076,2.888c0,.228.076.38.076.532,0,.532-.152.76-.456.76a.69.69,0,0,1-.531-.228c-.152-.152-.152-.38-.152-.684v-1.368c0-.684.076-1.139.076-1.444V263.3a1.485,1.485,0,0,0-.076-.608c0-.076-.076-.152-.228-.152a.279.279,0,0,0-.228.076,17.956,17.956,0,0,1-4.179,2.888.574.574,0,0,1-.307.076c-.076,0-.076,0-.076-.076s.076-.152.307-.307a26.963,26.963,0,0,0,3.04-2.583,16.2,16.2,0,0,0,1.975-2.355,3.524,3.524,0,0,0,.684-1.368.46.46,0,0,0-.228-.456.266.266,0,0,0-.152-.076.075.075,0,0,1-.076-.076c0-.076.076-.076.307-.076a2.262,2.262,0,0,1,1.14.38C517.743,258.428,517.895,258.58,518.047,258.732Z" transform="translate(-510.602 -258.203)" fill="#0a324c"/>
      </g>
      <g id="グループ_25" data-name="グループ 25" transform="translate(123.105 2.513)">
        <path id="パス_25" data-name="パス 25" d="M528.1,269.147c0-.076.076-.152.307-.228a14.266,14.266,0,0,0,4.1-2.963,18.549,18.549,0,0,0,2.432-3.116,9.282,9.282,0,0,0,.836-1.9c0-.076-.076-.076-.152-.076s-.456.076-1.139.152-1.367.228-2.128.38-1.368.307-1.9.456a1.484,1.484,0,0,1-.532.077,1.285,1.285,0,0,1-.76-.228,3.3,3.3,0,0,1-.456-.532,1.022,1.022,0,0,1-.152-.608.164.164,0,0,1,.152-.152.575.575,0,0,1,.307.076,1.935,1.935,0,0,0,.532.152c.152,0,.307.076.456.076.307,0,1.139-.076,2.432-.152a15,15,0,0,0,2.508-.307c.152-.076.307-.076.456-.228a2.054,2.054,0,0,1,.613-.228,1.175,1.175,0,0,1,.456.228,2.046,2.046,0,0,1,.613.532c.152.228.307.38.307.456a.457.457,0,0,1-.076.307c-.076.076-.152.228-.307.307a4.19,4.19,0,0,0-.532.684,13.268,13.268,0,0,1-2.052,3.04,13.743,13.743,0,0,1-2.583,2.128,19.554,19.554,0,0,1-3.344,1.672.279.279,0,0,1-.228.076Z" transform="translate(-528.1 -259.798)" fill="#0a324c"/>
      </g>
      <g id="グループ_26" data-name="グループ 26" transform="translate(137.308 0.386)">
        <path id="パス_26" data-name="パス 26" d="M555.69,260.8a1.089,1.089,0,0,1,.38.836,1.15,1.15,0,0,1-.532,1.064,5.69,5.69,0,0,1-1.52.836l-.608.228a14.974,14.974,0,0,1-1.444.532c-.152.076-.228.152-.228.307v1.52a1.079,1.079,0,0,1-.152.456c-.152.152-.228.228-.38.228s-.228-.076-.38-.152-.152-.228-.152-.38a3.455,3.455,0,0,1,.076-.608v-.38c0-.152-.076-.228-.152-.228s-.152,0-.152.076c-.836.532-1.292,1.064-1.292,1.672,0,.684.684.988,1.975.988a1.89,1.89,0,0,0,.684-.076,2.217,2.217,0,0,0,.684-.152,1.021,1.021,0,0,0,.38-.076,1.294,1.294,0,0,1,.532-.076.643.643,0,0,1,.456.152.58.58,0,0,1,.152.38c0,.307-.228.532-.76.684a5.925,5.925,0,0,1-1.672.228,3.6,3.6,0,0,1-2.28-.532,1.493,1.493,0,0,1-.684-1.292,1.78,1.78,0,0,1,.532-1.292A7.97,7.97,0,0,1,550.6,264.6a.409.409,0,0,0,.228-.306v-.228A2.011,2.011,0,0,0,550.6,263c-.152-.228-.307-.38-.531-.38a1.05,1.05,0,0,0-.836.456c-.228.307-.613.76-.911,1.216l-.152.228a1.315,1.315,0,0,1-.228.307,1.659,1.659,0,0,1-.307.38.576.576,0,0,1-.307.152.418.418,0,0,1-.38-.228,1.1,1.1,0,0,1-.152-.532,1.21,1.21,0,0,1,.38-.76l.228-.228.684-.684a2.365,2.365,0,0,0,.532-.684,11.968,11.968,0,0,0,.988-1.975v-.152c0-.076,0-.076-.076-.152-.076,0-.152-.076-.228,0a4.086,4.086,0,0,0-.608.076,2.727,2.727,0,0,1-.836-.152c-.228-.152-.456-.307-.836-.608l-.076-.076a.075.075,0,0,1,.076-.076.586.586,0,0,1,.228.076,2.248,2.248,0,0,0,.988.152,5.16,5.16,0,0,0,1.444-.228c.152,0,.228-.152.228-.307s.076-.307.076-.456a1.083,1.083,0,0,0-.456-.911c-.076-.076-.076-.076-.076-.152a.279.279,0,0,1,.076-.228c.076-.076.076-.076.228-.076a1.484,1.484,0,0,1,.532.076,1.236,1.236,0,0,1,.456.228c.076.076.076.152.076.38h0a.28.28,0,0,0,.076.228.164.164,0,0,0,.152.152c.152,0,.228.076.38.076s.228,0,.307-.076h.307c.228,0,.307.076.307.228a.656.656,0,0,1-.228.456,4.218,4.218,0,0,1-.608.456,2.434,2.434,0,0,1-.988.38.593.593,0,0,0-.307.307q-.342,1.022-.684,1.824a.266.266,0,0,1-.076.152c0,.076,0,.076.076.076h.076a3.294,3.294,0,0,0,.38-.076,1.342,1.342,0,0,1,1.444.988.235.235,0,0,1,.076.152c.076,0,.076-.076.152-.152a5.754,5.754,0,0,1,.988-1.52,4.887,4.887,0,0,1,.988-.76,2.23,2.23,0,0,1,1.216-.307,5.107,5.107,0,0,0,.836.53Zm-5.092-2.355a.938.938,0,0,0-.152.228c0,.152,0,.228.076.152l.152-.076a.075.075,0,0,0,.076-.076.235.235,0,0,0-.076-.152l-.077-.076Zm4.027,3.647a1.417,1.417,0,0,0,.38-.76c0-.307-.152-.456-.532-.456a1.982,1.982,0,0,0-.836.228,2.373,2.373,0,0,0-.836.684,6.556,6.556,0,0,0-.532.76,7.387,7.387,0,0,0-.38.836c0,.076-.076.152-.076.228v.076h.076l.307-.152c.608-.307,1.064-.531,1.444-.76a1.575,1.575,0,0,0,.987-.683Z" transform="translate(-546.793 -257)" fill="#0a324c"/>
      </g>
      <g id="グループ_27" data-name="グループ 27" transform="translate(151.721 0)">
        <path id="パス_27" data-name="パス 27" d="M577.275,258.476a3.325,3.325,0,0,1,.532.608.266.266,0,0,0,.076.152c0,.076,0,.076-.076.152-.076,0-.152.076-.228.076h-1.673a.269.269,0,0,0-.307.307v.307l.076.836v.076c0,.076,0,.228-.076.228a.581.581,0,0,1-.38.152.826.826,0,0,1-.38.076c-.076,0-.152,0-.152-.076a.28.28,0,0,1-.076-.228c0-.228.076-.532.076-.76V259.7a.269.269,0,0,0-.307-.307H573.09a.269.269,0,0,0-.307.306V260l.076.911v.076a.279.279,0,0,1-.076.228.58.58,0,0,1-.38.152.826.826,0,0,1-.38.076c-.076,0-.152,0-.152-.076a.279.279,0,0,1-.076-.228c0-.228.076-.456.076-.76v-.76a.269.269,0,0,0-.307-.307h-.307c-.228,0-.38.076-.532.076a.763.763,0,0,0-.228.076l-.076.076.076.076c0,.076.076.076.076.152s0,.076-.076.152a.279.279,0,0,1-.228.076H568.9a.269.269,0,0,0-.307.307v1.9a.2.2,0,0,0,.228.228h.076l.988-.38c.076,0,.152-.076.228-.076s.076,0,.076.076h0c0,.076-.076.152-.152.228l-1.292.836a.418.418,0,0,0-.228.38v4.332a1.687,1.687,0,0,1-.076.684,1.592,1.592,0,0,1-.306.456.929.929,0,0,1-.684.228h-.076c-.152,0-.228-.076-.307-.228a1.235,1.235,0,0,0-.228-.456,1.431,1.431,0,0,0-.684-.306c-.152-.076-.228-.076-.228-.152s.076-.076.228-.076a2.584,2.584,0,0,1,.76.076h.38a.279.279,0,0,0,.228-.076c.076,0,.076-.076.076-.228v-3.422c0-.152-.076-.228-.152-.228s-.152,0-.152.076c-.076.076-.152.076-.228.152a.577.577,0,0,1-.307.152c-.152.076-.152.152-.228.152v.076c0,.076-.076.076-.152.076s-.152-.076-.228-.228l-.307-.76v-.152q0-.114.228-.228l1.368-.456c.152-.076.228-.152.228-.307v-2.432a.269.269,0,0,0-.307-.307h-.307c-.228,0-.456.076-.76.076h-.152c-.076,0-.228-.076-.228-.152l-.076-.076c0-.076-.076-.076-.076-.152,0-.152.076-.152.228-.152a4.365,4.365,0,0,1,.911.076h.307a.279.279,0,0,0,.228-.076c.076-.076.076-.076.076-.228a21.856,21.856,0,0,0-.152-2.432v-.076a.2.2,0,0,1,.228-.228h.076l.911.307q.228.114.228.228c0,.076-.076.076-.152.152h-.076a.418.418,0,0,0-.228.38v1.672c0,.228.076.307.228.307s.228-.076.307-.228l.152-.228c0-.076.076-.152.152-.228s.076-.152.152-.152a.075.075,0,0,0,.076-.076.236.236,0,0,1,.152.076c.152.076.228.228.38.307,0-.076-.076-.076-.076-.152,0-.152.076-.152.228-.152a4.749,4.749,0,0,1,.912.076h.307c.228,0,.307-.076.307-.307,0-.608-.076-1.064-.076-1.52v-.076a.2.2,0,0,1,.228-.228h.152a3.284,3.284,0,0,1,.836.307q.228.113.228.228a.075.075,0,0,1-.076.076.418.418,0,0,0-.228.38v.836a.269.269,0,0,0,.307.307h1.292c.228,0,.307-.076.307-.307,0-.608-.076-1.064-.076-1.52v-.076a.2.2,0,0,1,.228-.228h.152c.38.152.684.228.836.307a.94.94,0,0,1,.228.152.075.075,0,0,1-.076.076l-.076.076h0a.417.417,0,0,0-.228.38v.836a.269.269,0,0,0,.307.307h.076a.418.418,0,0,0,.38-.228l.152-.228a.937.937,0,0,0,.152-.228.588.588,0,0,1,.152-.228c.076-.076.076-.076.152-.076C576.9,258.1,577.047,258.248,577.275,258.476Zm-.307,3.191a3.3,3.3,0,0,1,.532.456.266.266,0,0,1,.076.152c0,.076,0,.152-.076.152l-.152.076a.164.164,0,0,0-.152.152c-.076.076-.076.076-.076.228v2.657c0,.988.076,1.975.076,3.04v.076a.4.4,0,0,1-.152.307c-.152.076-.228.152-.38.152a3.289,3.289,0,0,0-.38.076c-.076,0-.152,0-.152-.076s-.076-.076-.076-.152v-.307a.278.278,0,0,0-.307-.307h-4.255a.269.269,0,0,0-.307.307v.307q0,.114-.228.228a1.41,1.41,0,0,1-.532.152.269.269,0,0,1-.307-.307c.076-.911.076-1.9.152-3.04v-1.669a23.2,23.2,0,0,0-.152-2.432v-.076c0-.152.076-.228.152-.228h.152l.684.307a.685.685,0,0,0,.38.076h4.255c.152,0,.228-.076.38-.152l.076-.152.152-.152.152-.152c.087,0,.238.075.466.3Zm-5.62,3.116a.279.279,0,0,0,.228.076h1.292a.269.269,0,0,0,.307-.307v-1.9a.269.269,0,0,0-.307-.307h-1.292a.269.269,0,0,0-.307.307v1.9C571.272,264.707,571.272,264.783,571.348,264.783Zm0,2.963a.279.279,0,0,0,.228.076h1.292a.269.269,0,0,0,.307-.307v-1.975a.269.269,0,0,0-.307-.307h-1.292a.269.269,0,0,0-.307.307v1.975c0,.155,0,.231.079.231Zm2.811-2.963a.28.28,0,0,0,.228.076h1.367a.269.269,0,0,0,.307-.307v-1.9a.269.269,0,0,0-.307-.307h-1.37a.269.269,0,0,0-.307.307v1.9a.333.333,0,0,0,.082.231Zm0,2.963a.28.28,0,0,0,.228.076h1.367a.269.269,0,0,0,.307-.307v-1.975a.269.269,0,0,0-.307-.307h-1.37a.269.269,0,0,0-.307.307v1.975a.333.333,0,0,0,.082.231Z" transform="translate(-565.768 -256.493)" fill="#0a324c"/>
      </g>
      <g id="グループ_28" data-name="グループ 28" transform="translate(167.178 3.046)">
        <path id="パス_28" data-name="パス 28" d="M588.988,268.631a5.851,5.851,0,0,1-.988-.684,4.593,4.593,0,0,1-1.368-3.648,9.684,9.684,0,0,1,.076-1.444,4.533,4.533,0,0,0,.076-.836,2.246,2.246,0,0,0-.152-.76,1.022,1.022,0,0,0-.456-.532c-.076-.076-.076-.076-.076-.152s0-.076.076-.076h.152a3.345,3.345,0,0,1,.76.152,1.83,1.83,0,0,1,.608.456,1.01,1.01,0,0,1,.228.608,1.133,1.133,0,0,1-.076.456,3.212,3.212,0,0,1-.152.456,6,6,0,0,0-.228.988,3.7,3.7,0,0,0-.077.911,3.551,3.551,0,0,0,.228,1.292,2.73,2.73,0,0,0,.608.911,1.107,1.107,0,0,0,.608.38c.152,0,.228-.076.228-.307a17.873,17.873,0,0,1,.532-1.747q.114-.228.228-.228a.075.075,0,0,1,.077.076l-.077.228a8.475,8.475,0,0,0-.152,1.292,3.149,3.149,0,0,0,.076.76,1.929,1.929,0,0,0,.152.532,3.108,3.108,0,0,1,.152.532c0,.152-.076.228-.152.38s-.228.152-.38.152C589.519,268.859,589.291,268.783,588.988,268.631Zm6.079-3.419a1.665,1.665,0,0,1-.228-.38s-.076-.228-.152-.532a4.667,4.667,0,0,0-.38-.911,1.177,1.177,0,0,0-.608-.608,2.835,2.835,0,0,0-.912-.152h-.228c-.076,0-.152,0-.152-.076s.076-.076.152-.152a3.27,3.27,0,0,1,.912-.152,2.5,2.5,0,0,1,1.672.608,2.391,2.391,0,0,1,.684.911,2.013,2.013,0,0,1,.228.76.69.69,0,0,1-.228.531.656.656,0,0,1-.456.228C595.3,265.363,595.142,265.287,595.067,265.212Z" transform="translate(-586.099 -260.499)" fill="#0a324c"/>
      </g>
      <g id="グループ_29" data-name="グループ 29" transform="translate(181.476 1.812)">
        <path id="パス_29" data-name="パス 29" d="M614.55,259.043a.73.73,0,0,1,.456.684.4.4,0,0,1-.152.306c-.076.076-.152.076-.306.076a2.62,2.62,0,0,1-.684-.076,4.359,4.359,0,0,0-.911-.076,2.1,2.1,0,0,0-.684.076,4.825,4.825,0,0,0-.531.152,2.24,2.24,0,0,0-1.064,1.139,7.562,7.562,0,0,0-.684,1.975,9.786,9.786,0,0,0-.228,1.9,3.753,3.753,0,0,0,.38,1.9,1.533,1.533,0,0,0,1.368.532h.38c.307,0,.456-.076.613-.076a1.907,1.907,0,0,1,.76.152.417.417,0,0,1,.307.456c0,.307-.151.456-.531.532a5.868,5.868,0,0,1-1.139.152,2.938,2.938,0,0,1-2.355-.836,4.135,4.135,0,0,1-.684-2.657,6.555,6.555,0,0,1,.608-2.736,6.353,6.353,0,0,1,1.519-2.128l.307-.307h-.076a13.929,13.929,0,0,0-1.444.456,20.665,20.665,0,0,0-1.9.836.577.577,0,0,1-.306.152c-.076.076-.152.076-.228.152a4.519,4.519,0,0,0-.456.307.962.962,0,0,1-.456.076,1.6,1.6,0,0,1-.836-.38,2.67,2.67,0,0,1-.608-.76.266.266,0,0,0-.076-.152.164.164,0,0,1,.152-.152c.076,0,.152,0,.152.076.152.076.228.152.38.152a.569.569,0,0,0,.38.076h.228c.076,0,.38-.152.912-.307.911-.307,1.824-.608,2.657-.836a14.787,14.787,0,0,1,2.355-.532,1.7,1.7,0,0,0,.76-.228,1.081,1.081,0,0,1,.456-.152c.152,0,.228-.076.38-.076A1.17,1.17,0,0,1,614.55,259.043Z" transform="translate(-604.91 -258.872)" fill="#0a324c"/>
      </g>
      <g id="グループ_30" data-name="グループ 30" transform="translate(196.359 3.046)">
        <path id="パス_30" data-name="パス 30" d="M627.388,268.631a5.855,5.855,0,0,1-.988-.684,4.592,4.592,0,0,1-1.367-3.648,9.7,9.7,0,0,1,.076-1.444,4.512,4.512,0,0,0,.076-.836,2.245,2.245,0,0,0-.152-.76,1.021,1.021,0,0,0-.456-.532c-.076-.076-.076-.076-.076-.152s0-.076.076-.076h.152a3.339,3.339,0,0,1,.76.152,1.827,1.827,0,0,1,.613.456,1.011,1.011,0,0,1,.228.608,1.13,1.13,0,0,1-.076.456c-.077.152-.077.306-.152.456a5.986,5.986,0,0,0-.228.988,3.7,3.7,0,0,0-.076.911,3.547,3.547,0,0,0,.228,1.292,2.727,2.727,0,0,0,.613.911,1.107,1.107,0,0,0,.608.38c.152,0,.228-.076.228-.307a17.868,17.868,0,0,1,.532-1.747q.114-.228.228-.228a.075.075,0,0,1,.076.076l-.076.228a8.47,8.47,0,0,0-.158,1.3,3.146,3.146,0,0,0,.076.76,1.935,1.935,0,0,0,.151.532,3.084,3.084,0,0,1,.152.532c0,.152-.076.228-.152.38s-.228.152-.38.152C627.919,268.859,627.691,268.783,627.388,268.631Zm6-3.419a1.662,1.662,0,0,1-.228-.38s-.076-.228-.152-.532a4.642,4.642,0,0,0-.38-.911,1.177,1.177,0,0,0-.608-.608,2.834,2.834,0,0,0-.912-.152h-.152c-.076,0-.152,0-.152-.076s.076-.076.152-.152a3.271,3.271,0,0,1,.912-.152,2.5,2.5,0,0,1,1.672.608,2.391,2.391,0,0,1,.684.911,2.012,2.012,0,0,1,.228.76.69.69,0,0,1-.228.531.656.656,0,0,1-.456.228c-.074.077-.228,0-.38-.075Z" transform="translate(-624.5 -260.499)" fill="#0a324c"/>
      </g>
      <g id="グループ_31" data-name="グループ 31" transform="translate(210.341 0.691)">
        <path id="パス_31" data-name="パス 31" d="M645.408,268.8a2.434,2.434,0,0,1-.38-.988c-.307-.911-.531-1.52-.684-1.9-.228-.38-.456-.836-.76-1.292a4.322,4.322,0,0,1-.532-.911,1.408,1.408,0,0,1-.152-.531,1.933,1.933,0,0,1,.152-.532,2.845,2.845,0,0,1,.456-.76,26.475,26.475,0,0,0,1.672-3.039,1.947,1.947,0,0,0,.152-.532.691.691,0,0,0-.228-.532c-.076-.076-.152-.076-.228-.152s-.152-.076-.152-.152.076-.076.307-.076a2.349,2.349,0,0,1,.613.152c.228.076.456.228.684.307a.8.8,0,0,1,.38.684.966.966,0,0,1-.076.456,6.717,6.717,0,0,1-.456.76c-.152.228-.456.531-.76.988-.608.684-1.139,1.368-1.6,1.975a1.078,1.078,0,0,0-.152.456.657.657,0,0,0,.228.456,21.147,21.147,0,0,1,1.976,2.432,4.411,4.411,0,0,1,.912,2.432.643.643,0,0,1-.152.456c-.076.152-.228.152-.38.152C645.712,269.1,645.557,269.027,645.408,268.8Z" transform="translate(-642.899 -257.4)" fill="#0a324c"/>
      </g>
      <g id="グループ_32" data-name="グループ 32" transform="translate(225.996 8.827)">
        <path id="パス_32" data-name="パス 32" d="M664.412,271.676a1.491,1.491,0,0,1-.684-.684,2.256,2.256,0,0,1,0-1.976,1.492,1.492,0,0,1,.684-.684,2.254,2.254,0,0,1,1.975,0,1.492,1.492,0,0,1,.684.684,2.256,2.256,0,0,1,0,1.976,1.492,1.492,0,0,1-.684.684,2.1,2.1,0,0,1-.988.228A1.378,1.378,0,0,1,664.412,271.676Zm1.975-.608a1.38,1.38,0,0,0,.456-1.064,1.5,1.5,0,0,0-.456-1.064,1.38,1.38,0,0,0-1.064-.456,1.534,1.534,0,1,0,1.064,2.578Z" transform="translate(-663.501 -268.105)" fill="#0a324c"/>
      </g>
    </g>
  </g>
  <g id="グループ_37" data-name="グループ 37">
    <path id="パス_33" data-name="パス 33" d="M23.871,4.19,26.527.409h2.134l.161,15.82H26.89C25.682,11.4,23.871,7.856,21.5,5.6a11.68,11.68,0,0,0-8.175-3.341A8.7,8.7,0,0,0,7,4.589a7.411,7.411,0,0,0-2.452,5.675,6.9,6.9,0,0,0,.926,3.663A6.861,6.861,0,0,0,8.3,16.464a31.083,31.083,0,0,0,7.045,2.093,43.076,43.076,0,0,1,10.185,3.18A10.844,10.844,0,0,1,29.872,25.8a11,11,0,0,1,1.449,5.716,13.138,13.138,0,0,1-3.945,9.741,13.939,13.939,0,0,1-10.185,3.865A17.1,17.1,0,0,1,5.518,40.779l-3.3,4.066H0V28.018H2.093A19.118,19.118,0,0,0,7.611,39.007a13.7,13.7,0,0,0,9.659,4.026,9.839,9.839,0,0,0,7.085-2.576,8.175,8.175,0,0,0,2.738-6.239,6.267,6.267,0,0,0-1.046-3.663A7.533,7.533,0,0,0,22.787,27.9a52.166,52.166,0,0,0-8.776-2.617c-4.794-1.127-8.054-2.415-9.785-3.821a10.335,10.335,0,0,1-3.662-8.5,12.648,12.648,0,0,1,3.662-9.38A12.558,12.558,0,0,1,13.566,0a14.314,14.314,0,0,1,5.193.966,18.635,18.635,0,0,1,5.109,3.22" transform="translate(0 0.012)" fill="#0a324c"/>
    <path id="パス_34" data-name="パス 34" d="M121.915,62.067l.685,1.087a4.222,4.222,0,0,1-3.18,1.449,3.516,3.516,0,0,1-2.254-.725,6.116,6.116,0,0,1-1.61-2.533,12.569,12.569,0,0,1-3.261,2.617,8.038,8.038,0,0,1-3.381.644,6.5,6.5,0,0,1-4.267-1.208,3.756,3.756,0,0,1-1.449-3.1c0-1.891,1.124-3.5,3.341-4.75a23.629,23.629,0,0,1,8.936-2.5V50.273a3.27,3.27,0,0,0-1.208-2.536,4.394,4.394,0,0,0-3.02-1.046,5.751,5.751,0,0,0-2.939.685c-.6.363-.886.685-.886,1.046a2.053,2.053,0,0,0,.483.926,2.562,2.562,0,0,1,.564,1.368,2.184,2.184,0,0,1-.564,1.449,2.209,2.209,0,0,1-1.49.564,2.35,2.35,0,0,1-1.65-.685,2.24,2.24,0,0,1-.644-1.691A4.5,4.5,0,0,1,106.3,46.81a9.257,9.257,0,0,1,5.716-1.61A7.841,7.841,0,0,1,117,46.608a4.309,4.309,0,0,1,1.731,3.462V60.094a3.4,3.4,0,0,0,.442,1.972,1.284,1.284,0,0,0,1.124.644,3.178,3.178,0,0,0,1.61-.644m-6.4-7.729c-3.3.442-5.675,1.208-7.045,2.214a3.855,3.855,0,0,0-1.533,3.341,3.474,3.474,0,0,0,.805,2.375,2.677,2.677,0,0,0,2.093.845,5.446,5.446,0,0,0,3.985-1.731,6.137,6.137,0,0,0,1.691-4.388Z" transform="translate(-61.654 -26.993)" fill="#0a324c"/>
    <path id="パス_35" data-name="パス 35" d="M167.618,45.7a25.808,25.808,0,0,1,.52,3.944,9.3,9.3,0,0,1,2.818-3.059,5.769,5.769,0,0,1,3.261-.886,6.051,6.051,0,0,1,3.583,1.167,8.14,8.14,0,0,1,2.777,3.381,11.412,11.412,0,0,1,1.046,5.032,10.3,10.3,0,0,1-2.617,7.286,6.7,6.7,0,0,1-5.193,2.335,5.661,5.661,0,0,1-3.1-.886,8.028,8.028,0,0,1-2.452-2.617V73.833a1.635,1.635,0,0,0,.4,1.208,2.328,2.328,0,0,0,1.449.483h1.368v1.368H161.7V75.524h1.368a2.188,2.188,0,0,0,1.409-.363,1.2,1.2,0,0,0,.483-.966V49.882a2.339,2.339,0,0,0-.644-1.891,4.5,4.5,0,0,0-2.576-.6V46.058Zm5.675,1.812a4.292,4.292,0,0,0-3.583,2.053,10.233,10.233,0,0,0-1.49,5.957c0,2.617.483,4.548,1.409,5.8a4.325,4.325,0,0,0,3.622,1.891,3.738,3.738,0,0,0,3.18-1.61c.966-1.409,1.409-3.462,1.409-6.2,0-2.861-.442-4.871-1.289-6.078a3.729,3.729,0,0,0-3.261-1.812" transform="translate(-96.609 -27.287)" fill="#0a324c"/>
    <path id="パス_36" data-name="パス 36" d="M229.618,45.7a25.812,25.812,0,0,1,.52,3.944,9.3,9.3,0,0,1,2.818-3.059,5.769,5.769,0,0,1,3.261-.886,6.051,6.051,0,0,1,3.583,1.167,8.141,8.141,0,0,1,2.777,3.381,11.412,11.412,0,0,1,1.046,5.032,10.3,10.3,0,0,1-2.617,7.286,6.7,6.7,0,0,1-5.193,2.335,5.661,5.661,0,0,1-3.1-.886,8.029,8.029,0,0,1-2.452-2.617V68.8a1.635,1.635,0,0,0,.4,1.208,2.328,2.328,0,0,0,1.449.483h1.368v1.37H223.7V70.492h1.368a2.188,2.188,0,0,0,1.409-.363,1.2,1.2,0,0,0,.483-.966V49.882a2.339,2.339,0,0,0-.644-1.891,4.5,4.5,0,0,0-2.576-.6V46.058Zm5.716,1.812a4.292,4.292,0,0,0-3.583,2.053,10.233,10.233,0,0,0-1.49,5.957c0,2.617.483,4.548,1.409,5.8a4.428,4.428,0,0,0,3.622,1.891,3.738,3.738,0,0,0,3.18-1.61c.966-1.409,1.409-3.462,1.409-6.2,0-2.861-.442-4.871-1.289-6.078a3.729,3.729,0,0,0-3.261-1.812" transform="translate(-133.651 -27.287)" fill="#0a324c"/>
    <path id="パス_37" data-name="パス 37" d="M297.714,45.2a8.159,8.159,0,0,1,6.2,2.657,9.733,9.733,0,0,1,2.5,7.045,10.941,10.941,0,0,1-1.124,5.152,8.052,8.052,0,0,1-3.223,3.335,8.8,8.8,0,0,1-4.469,1.248,7.918,7.918,0,0,1-6.038-2.7,9.985,9.985,0,0,1-2.452-7,9.873,9.873,0,0,1,2.5-7,7.926,7.926,0,0,1,6.116-2.732m0,1.409a4.2,4.2,0,0,0-3.583,1.972c-.926,1.328-1.409,3.421-1.409,6.279,0,2.9.483,5.032,1.409,6.36a4.256,4.256,0,0,0,3.622,2.013,4.428,4.428,0,0,0,3.7-2.013c.926-1.328,1.409-3.543,1.409-6.6,0-2.818-.483-4.871-1.409-6.159a4.505,4.505,0,0,0-3.744-1.852" transform="translate(-172.724 -26.991)" fill="#0a324c"/>
    <path id="パス_38" data-name="パス 38" d="M343.8,46.117l6.6-.322V53.2a16.057,16.057,0,0,1,2.536-5.518,4.557,4.557,0,0,1,3.663-1.891,3.122,3.122,0,0,1,2.375.926,3.336,3.336,0,0,1,.886,2.416,2.841,2.841,0,0,1-.6,1.932,1.932,1.932,0,0,1-1.49.685,1.752,1.752,0,0,1-1.409-.6,2.248,2.248,0,0,1-.523-1.57,2.46,2.46,0,0,1,.322-1.208,2.037,2.037,0,0,0,.282-.6c0-.2-.121-.282-.363-.282a2.991,2.991,0,0,0-1.812.926,8.7,8.7,0,0,0-2.173,3.583,19.884,19.884,0,0,0-1.167,5.675v3.9a1.124,1.124,0,0,0,.483,1.007,2.8,2.8,0,0,0,1.61.363h2.335V64.39H343.961V62.944h1.812a2.075,2.075,0,0,0,1.368-.363,1.107,1.107,0,0,0,.483-.886V50.022a2.839,2.839,0,0,0-.563-1.932,2.032,2.032,0,0,0-1.61-.6h-1.61Z" transform="translate(-205.404 -27.347)" fill="#0a324c"/>
    <path id="パス_39" data-name="パス 39" d="M405.714,45.2a8.159,8.159,0,0,1,6.2,2.657,9.733,9.733,0,0,1,2.5,7.045,10.941,10.941,0,0,1-1.124,5.152,8.053,8.053,0,0,1-3.223,3.335,8.8,8.8,0,0,1-4.469,1.248,7.918,7.918,0,0,1-6.038-2.7,9.984,9.984,0,0,1-2.452-7,9.873,9.873,0,0,1,2.5-7,7.868,7.868,0,0,1,6.116-2.732m-.04,1.368a4.2,4.2,0,0,0-3.583,1.972c-.926,1.328-1.409,3.421-1.409,6.279,0,2.9.483,5.032,1.409,6.36a4.256,4.256,0,0,0,3.623,2.013,4.428,4.428,0,0,0,3.7-2.013c.926-1.328,1.409-3.543,1.409-6.6,0-2.818-.483-4.871-1.409-6.159a4.615,4.615,0,0,0-3.744-1.852" transform="translate(-237.249 -26.991)" fill="#0a324c"/>
    <path id="パス_40" data-name="パス 40" d="M80.14,119.4H90.523l26.166,34.1V128.819c0-2.5-.563-4.307-1.691-5.518a6.3,6.3,0,0,0-4.629-1.691V119.4h15.176v2.214a7.051,7.051,0,0,0-3.462.644,5.407,5.407,0,0,0-2.013,2.335,7.98,7.98,0,0,0-.845,3.744V162.8h-2.738L89.358,127.29v26.166a7.231,7.231,0,0,0,1.771,5.314c1.167,1.167,3.059,1.771,5.555,1.812V162.8H80.14v-2.214a6.744,6.744,0,0,0,4.911-2.053,6.529,6.529,0,0,0,1.812-4.71V124.432l-.523-.564a9.047,9.047,0,0,0-2.093-1.891,5.089,5.089,0,0,0-2.173-.4H80.1V119.4Z" transform="translate(-47.856 -71.324)" fill="#0a324c"/>
    <path id="パス_41" data-name="パス 41" d="M226.486,172.278H213.364q.121,4.166,1.57,5.918a5.408,5.408,0,0,0,4.27,1.932q3.8,0,6.159-4.348l1.289.564c-1.891,3.7-4.67,5.555-8.253,5.555a8.283,8.283,0,0,1-6.2-2.657,9.4,9.4,0,0,1-2.5-6.8,10.366,10.366,0,0,1,2.452-7.205,7.845,7.845,0,0,1,6.078-2.738,7.7,7.7,0,0,1,4.589,1.368,8.126,8.126,0,0,1,2.9,3.945,12.876,12.876,0,0,1,.764,4.469m-13.123-1.368h7.93a1.264,1.264,0,0,0,1.087-.483,2.6,2.6,0,0,0,.4-1.65,5.347,5.347,0,0,0-1.328-3.663,3.985,3.985,0,0,0-3.14-1.49,4.275,4.275,0,0,0-3.462,1.812,8.882,8.882,0,0,0-1.49,5.475" transform="translate(-125.286 -97.071)" fill="#0a324c"/>
    <path id="パス_42" data-name="パス 42" d="M263.7,163.7h8.856v1.368c-1.449.04-2.134.322-2.134.764a1.621,1.621,0,0,0,.363.805l3.14,4.19,3.1-3.865a1.278,1.278,0,0,0,.322-.805c0-.563-.805-.926-2.375-1.046v-1.368H282.7v1.368a6.69,6.69,0,0,0-4.267,2.335l-3.622,4.508,5.676,7.327a3.168,3.168,0,0,0,1.248,1.046,5.483,5.483,0,0,0,1.972.322v1.444h-9.381v-1.449h.685a3.912,3.912,0,0,0,1.533-.2c.2-.121.322-.241.322-.4a1.546,1.546,0,0,0-.363-.725l-3.663-4.871-2.939,3.781a2.611,2.611,0,0,0-.644,1.289.76.76,0,0,0,.442.724,4.437,4.437,0,0,0,2.053.363v1.449h-7.971V180.6a5.351,5.351,0,0,0,2.214-.6,9.672,9.672,0,0,0,2.335-2.093l3.623-4.629-5.394-6.964a3.525,3.525,0,0,0-2.818-1.248Z" transform="translate(-157.548 -97.791)" fill="#0a324c"/>
    <path id="パス_43" data-name="パス 43" d="M331.152,145.2h1.328v7.487H338.4V154.5h-5.918V166.25a3.443,3.443,0,0,0,.725,2.335,2.278,2.278,0,0,0,1.852.805,2.67,2.67,0,0,0,2.254-1.248,7.132,7.132,0,0,0,1.087-4.066h1.328a8.725,8.725,0,0,1-1.65,5.434,5.089,5.089,0,0,1-4.025,1.771,4.759,4.759,0,0,1-3.543-1.248,4.307,4.307,0,0,1-1.289-3.261V154.458H326V153.09a5.037,5.037,0,0,0,3.3-1.812,10.014,10.014,0,0,0,1.852-6.078" transform="translate(-194.77 -86.739)" fill="#0a324c"/>
    <path id="パス_44" data-name="パス 44" d="M363.9,120h18.276v2.214H379a4.952,4.952,0,0,0-2.657.483,1.394,1.394,0,0,0-.685,1.248,4.326,4.326,0,0,0,.523,1.771l.241.6,11.433,29.064,10.1-27.735a5.67,5.67,0,0,0,.282-2.013,3.248,3.248,0,0,0-.966-2.536,3.679,3.679,0,0,0-2.617-.926h-2.979V120H407.7v2.214h-1.288a4.376,4.376,0,0,0-2.939,1.368,11.752,11.752,0,0,0-2.617,4.548l-13.4,36.27h-2.134l-15.337-38.765a5.989,5.989,0,0,0-1.852-2.7,5.045,5.045,0,0,0-2.818-.764H363.9Z" transform="translate(-217.413 -71.683)" fill="#0a324c"/>
    <path id="パス_45" data-name="パス 45" d="M476.44,148.049l7.286-.2v15.783a1.15,1.15,0,0,0,.322.926,1.687,1.687,0,0,0,1.124.4h2.06V166.4H476.809v-1.449h1.932a1.737,1.737,0,0,0,1.248-.4,1.635,1.635,0,0,0,.4-1.208V151.793a2.152,2.152,0,0,0-.644-1.65,2.808,2.808,0,0,0-1.852-.564h-1.5Zm5.069-10.949a2.015,2.015,0,0,1,1.533.685,2.1,2.1,0,0,1,.685,1.57,2.185,2.185,0,1,1-3.7-1.61,2.288,2.288,0,0,1,1.49-.644" transform="translate(-284.627 -81.9)" fill="#0a324c"/>
    <path id="パス_46" data-name="パス 46" d="M519.928,175.135a10.548,10.548,0,0,0,2.777,4.67,5.824,5.824,0,0,0,3.865,1.289,5.154,5.154,0,0,0,3.261-.926,2.881,2.881,0,0,0,1.124-2.375,2.628,2.628,0,0,0-.4-1.449,2.67,2.67,0,0,0-1.167-.926,24.5,24.5,0,0,0-3.865-.886,15.606,15.606,0,0,1-4.146-1.248,4.515,4.515,0,0,1-1.812-1.771,4.87,4.87,0,0,1-.644-2.452,5.586,5.586,0,0,1,1.369-3.664,5.946,5.946,0,0,1,4.871-2.092,7.335,7.335,0,0,1,4.428,1.49l1.288-1.368h.805l.523,6.522h-1.328a8.175,8.175,0,0,0-2.335-3.985,5.337,5.337,0,0,0-3.623-1.208,4.351,4.351,0,0,0-2.939.926,2.785,2.785,0,0,0-1.046,2.214,2.4,2.4,0,0,0,.966,1.932,8.794,8.794,0,0,0,3.744,1.248,29.221,29.221,0,0,1,4.226.926,5.1,5.1,0,0,1,2.5,1.812,4.979,4.979,0,0,1,.886,2.979,5.362,5.362,0,0,1-1.892,4.106,7.03,7.03,0,0,1-4.83,1.691,7.869,7.869,0,0,1-5.032-1.812l-1.449,1.65H519l-.4-7.286Z" transform="translate(-309.839 -97.552)" fill="#0a324c"/>
    <path id="パス_47" data-name="パス 47" d="M568.24,148.049l7.286-.2v15.783a1.15,1.15,0,0,0,.322.926,1.687,1.687,0,0,0,1.124.4h2.06V166.4H568.609v-1.449h1.932a1.737,1.737,0,0,0,1.248-.4,1.635,1.635,0,0,0,.4-1.208V151.793a2.153,2.153,0,0,0-.644-1.65,2.808,2.808,0,0,0-1.852-.564h-1.5Zm5.069-10.949a2.016,2.016,0,0,1,1.533.685,2.1,2.1,0,0,1,.685,1.57,2.185,2.185,0,1,1-3.7-1.61,2.378,2.378,0,0,1,1.49-.644" transform="translate(-339.473 -81.9)" fill="#0a324c"/>
    <path id="パス_48" data-name="パス 48" d="M614.914,162.9a8.16,8.16,0,0,1,6.2,2.657,9.733,9.733,0,0,1,2.5,7.045,10.939,10.939,0,0,1-1.124,5.152,8.052,8.052,0,0,1-3.22,3.342,8.8,8.8,0,0,1-4.469,1.248,7.918,7.918,0,0,1-6.038-2.7,9.985,9.985,0,0,1-2.453-7,9.874,9.874,0,0,1,2.5-7,8.062,8.062,0,0,1,6.119-2.738m0,1.409a4.2,4.2,0,0,0-3.583,1.972c-.926,1.328-1.409,3.421-1.409,6.279,0,2.9.483,5.032,1.409,6.36a4.257,4.257,0,0,0,3.622,2.013,4.428,4.428,0,0,0,3.7-2.013c.926-1.328,1.409-3.543,1.409-6.6,0-2.818-.483-4.871-1.409-6.159a4.56,4.56,0,0,0-3.744-1.852" transform="translate(-362.236 -97.311)" fill="#0a324c"/>
    <path id="パス_49" data-name="パス 49" d="M661.8,163.763l6.078-.363a33.418,33.418,0,0,1,.564,4.025,8.556,8.556,0,0,1,2.9-2.979,7.3,7.3,0,0,1,3.781-1.007,5.824,5.824,0,0,1,3.059.725,4.876,4.876,0,0,1,1.972,2.254,7.341,7.341,0,0,1,.724,3.462v8.936a1.919,1.919,0,0,0,.443,1.409,2.014,2.014,0,0,0,1.49.4H684.1v1.449h-9.661v-1.449h.926a3.015,3.015,0,0,0,1.812-.4,1.615,1.615,0,0,0,.523-1.248v-7.85a7.191,7.191,0,0,0-.765-3.781,3.616,3.616,0,0,0-3.341-1.771,4.694,4.694,0,0,0-3.7,1.771,7.094,7.094,0,0,0-1.49,4.629v6.8a1.919,1.919,0,0,0,.443,1.409,2.064,2.064,0,0,0,1.533.4h1.289v1.449h-9.7v-1.449h1.289a2.265,2.265,0,0,0,1.449-.4,1.2,1.2,0,0,0,.483-.966V167.385a2.421,2.421,0,0,0-.644-1.771,2.54,2.54,0,0,0-1.812-.6H661.8Z" transform="translate(-395.395 -97.612)" fill="#0a324c"/>
  </g>
</svg>
