<svg xmlns="http://www.w3.org/2000/svg" width="541" height="151" viewBox="0 0 541 151">
  <g id="price" transform="translate(-299.483 -1823.5)">
    <rect id="長方形_12" data-name="長方形 12" width="540" height="150" transform="translate(299.983 1824)" fill="#fff" stroke="#000" stroke-width="1"/>
    <g id="グループ_58" data-name="グループ 58" transform="translate(-17 0.282)">
      <g id="グループ_277" data-name="グループ 277" transform="translate(291.434 1769.767)">
        <g id="グループ_276" data-name="グループ 276" transform="translate(0.046)">
          <g id="グループ_63" data-name="グループ 63">
            <g id="グループ_275" data-name="グループ 275" transform="translate(-1 0.37)">
              <path id="パス_1688" data-name="パス 1688" d="M-87.221,0Q-87.4,0-87.4-.364q0-.39.182-.39h.416a4.614,4.614,0,0,0,2.054-.39,1.285,1.285,0,0,0,.78-1.222V-14.82a2.58,2.58,0,0,0-.143-1.053.875.875,0,0,0-.676-.364,14.121,14.121,0,0,0-1.989-.091h-.442q-.182,0-.182-.39,0-.364.182-.364a8.207,8.207,0,0,0,2.912-.481,7.381,7.381,0,0,0,2.418-1.547V-2.366q0,1.612,2.834,1.612h.39a.143.143,0,0,1,.143.091.824.824,0,0,1,.039.3q0,.364-.182.364Zm14.286,0a.121.121,0,0,1-.121-.077.616.616,0,0,1-.033-.231q0-.33.154-.33h.352a2.684,2.684,0,0,0,1.452-.3A1.194,1.194,0,0,0-70.691-2V-13.97a1.2,1.2,0,0,0-.462-1.078,2.621,2.621,0,0,0-1.43-.308h-.352q-.154,0-.154-.308t.154-.308h6.248a.139.139,0,0,1,.143.077.616.616,0,0,1,.033.231q0,.308-.176.308h-.33a2.6,2.6,0,0,0-1.452.319,1.2,1.2,0,0,0-.462,1.067V-2A1.1,1.1,0,0,0-68.48-.979a3.2,3.2,0,0,0,1.463.319l.506.022.88-.022a5.6,5.6,0,0,0,3.146-.891,9.272,9.272,0,0,0,2.222-2.277.2.2,0,0,1,.176-.11.507.507,0,0,1,.2.066q.176.088.176.22l-.022.11q-.418,1.144-.638,1.672L-61.055,0Zm17.908,0Q-55.2,0-55.2-.308t.176-.308h.352a2.631,2.631,0,0,0,1.43-.3A1.194,1.194,0,0,0-52.8-1.98V-13.97a1.221,1.221,0,0,0-.44-1.089,2.631,2.631,0,0,0-1.43-.3h-.352q-.154,0-.154-.308t.154-.308L-52.558-16q2.376,0,4,.066a10.355,10.355,0,0,1,3.883.9,6.787,6.787,0,0,1,2.926,2.563,8.093,8.093,0,0,1,1.133,4.477,8.05,8.05,0,0,1-1.134,4.46A6.862,6.862,0,0,1-44.676-.957a10.225,10.225,0,0,1-3.883.913q-1.452.066-3.63.066Zm6.05-.66a6.929,6.929,0,0,0,2.717-.616,5.859,5.859,0,0,0,2.53-2.255,7.961,7.961,0,0,0,1.089-4.455,8.007,8.007,0,0,0-1.089-4.477,5.782,5.782,0,0,0-2.53-2.244,7.035,7.035,0,0,0-2.717-.6h-.176A2.547,2.547,0,0,0-50.594-15a1.239,1.239,0,0,0-.429,1.078v11.9a1.212,1.212,0,0,0,.429,1.056,2.547,2.547,0,0,0,1.441.308Zm29.436.022a.121.121,0,0,1,.121.077.616.616,0,0,1,.033.231q0,.33-.154.33h-6.578q-.154,0-.154-.33,0-.308.154-.308,1.782,0,1.782-.66a1.235,1.235,0,0,0-.33-.682l-5.1-6.05-1.892,1.87V-2a1.194,1.194,0,0,0,.44,1.067,2.631,2.631,0,0,0,1.43.3h.374q.154,0,.154.308,0,.33-.154.33h-6.248q-.154,0-.154-.33a.616.616,0,0,1,.033-.231.121.121,0,0,1,.121-.077h.33a2.6,2.6,0,0,0,1.452-.308A1.2,1.2,0,0,0-33.445-2V-13.97a1.207,1.207,0,0,0-.451-1.089,2.692,2.692,0,0,0-1.441-.3h-.33q-.154,0-.154-.308t.154-.308h6.248a.139.139,0,0,1,.143.077.616.616,0,0,1,.033.231q0,.308-.176.308h-.374a2.547,2.547,0,0,0-1.441.308,1.239,1.239,0,0,0-.429,1.078V-7.3q3.564-3.52,5.742-5.742l.77-.77a1.085,1.085,0,0,0,.33-.682.711.711,0,0,0-.4-.616,2.161,2.161,0,0,0-1.122-.242q-.154,0-.154-.308t.154-.308h5.7a.139.139,0,0,1,.143.077.616.616,0,0,1,.033.231q0,.308-.176.308a4.512,4.512,0,0,0-3.036,1.408q-.506.462-4.8,4.664l1.98,2.354q3.454,4.136,3.784,4.51a6.336,6.336,0,0,0,1.54,1.408,3.26,3.26,0,0,0,1.634.37Z" transform="translate(145.403 106.17)" fill="#333"/>
              <g id="グループ_268" data-name="グループ 268" transform="translate(-0.14 0.138)">
                <path id="パス_1696" data-name="パス 1696" d="M11.145-11q.066-.088.187-.242a1.635,1.635,0,0,1,.2-.22.249.249,0,0,1,.165-.066q.2,0,.858.649t.66.891a1.476,1.476,0,0,1-.9.33A50.5,50.5,0,0,1,11.6-3.014,7.337,7.337,0,0,1,10.287.528a3.63,3.63,0,0,1-2.574.88A1.174,1.174,0,0,0,7.251.352a3.19,3.19,0,0,0-.957-.363A15.251,15.251,0,0,0,4.743-.33l.022-.4q.968.11,2.112.209t1.518.1a1.717,1.717,0,0,0,.528-.066,1.341,1.341,0,0,0,.4-.22q.572-.506,1-3.014a54.889,54.889,0,0,0,.627-6.116H4.479A18.162,18.162,0,0,1,2.191-3.4,16.128,16.128,0,0,1-3.045,1.782l-.308-.374a15.964,15.964,0,0,0,4.367-5.06,17.312,17.312,0,0,0,1.848-5.4,47.273,47.273,0,0,0,.473-6.215H.343a22.292,22.292,0,0,0-3.3.308l-.594-1.1q1.21.132,2.926.176h13.4l.484-.7.22-.3a2.845,2.845,0,0,1,.253-.308.278.278,0,0,1,.187-.1,1.58,1.58,0,0,1,.594.363,9.72,9.72,0,0,1,.869.77q.407.407.407.561-.022.33-.55.33H4.919a42.858,42.858,0,0,1-.352,4.8h6.182ZM23.707-4.18q.044,2.728.176,5.17a1.365,1.365,0,0,1-.517.473,1.539,1.539,0,0,1-.781.209.526.526,0,0,1-.352-.132.4.4,0,0,1-.154-.308q.088-1.3.154-2.519t.088-3.2v-8.36a28.781,28.781,0,0,0-.286-4.51l1.782.858H37l.308-.462q.066-.088.2-.275t.264-.187a1.487,1.487,0,0,1,.561.3,7.667,7.667,0,0,1,.8.638q.374.341.374.5a1.644,1.644,0,0,1-.374.264,1.616,1.616,0,0,1-.55.176v15A2.653,2.653,0,0,1,38.4.5a1.441,1.441,0,0,1-.726.682,4.842,4.842,0,0,1-1.606.385A1.7,1.7,0,0,0,35.9.946a1,1,0,0,0-.418-.4A6.114,6.114,0,0,0,33.26-.026V-.374q2.794.22,3.3.22a.728.728,0,0,0,.495-.132.577.577,0,0,0,.143-.44V-7.964H23.707Zm5.962-11.66H23.707v7.26h5.962Zm1.408,0v7.26h6.116v-7.26ZM49.8-11.286q3.058-.11,8.074-.374l2.552-.132a23.777,23.777,0,0,0-3.432-3.652l.242-.2a16.761,16.761,0,0,1,3.52,2.178,9,9,0,0,1,1.969,2.156,3.572,3.572,0,0,1,.605,1.76,1.1,1.1,0,0,1-.176.66.566.566,0,0,1-.484.242,1.074,1.074,0,0,1-.572-.2,9.437,9.437,0,0,0-1.342-2.464Q55.08-10.5,46.588-9.64a.9.9,0,0,1-.616.462l-.55-2q1.584,0,3.586-.088,1.122-1.958,1.848-3.432a19.756,19.756,0,0,0,.957-2.145,15.23,15.23,0,0,0,.627-2.013q2.354.88,2.354,1.166,0,.088-.2.176l-.418.132q-.858,1.43-2.035,3.091T49.8-11.286ZM49.557.264q.022.286.033.517a2.52,2.52,0,0,0,.033.341q-.044.2-.429.407a1.661,1.661,0,0,1-.8.209.355.355,0,0,1-.286-.132A.467.467,0,0,1,48,1.3q.11-1.166.154-3.1V-3.586a28.78,28.78,0,0,0-.286-4.51l1.8.858H59.48l.352-.462L60-7.92a1.265,1.265,0,0,1,.176-.2.249.249,0,0,1,.165-.066,1.487,1.487,0,0,1,.561.3,6.843,6.843,0,0,1,.792.638q.363.341.363.5a1.54,1.54,0,0,1-.946.44V-3.85q.066,3.08.154,4.774a1.358,1.358,0,0,1-.572.4,1.96,1.96,0,0,1-.792.2.251.251,0,0,1-.231-.132.6.6,0,0,1-.077-.308l.088-.7v-.6H49.557Zm0-6.864V-.88h10.12V-6.6Z" transform="translate(374 106)" fill="#333"/>
                <path id="パス_136" data-name="パス 136" d="M12.693.006H1.77l-.3-.66A18.825,18.825,0,0,1,3.6-4.855q1.29-1.891,3.451-4.5a32.266,32.266,0,0,0,3.181-4.216,6.589,6.589,0,0,0,.99-3.406,4.7,4.7,0,0,0-.9-2.851A3.261,3.261,0,0,0,7.5-21.06a4.03,4.03,0,0,0-2.4.705,2.07,2.07,0,0,0-.99,1.725,1.828,1.828,0,0,0,.105.66,2.74,2.74,0,0,0,.345.6,3.859,3.859,0,0,1,.315.585,1.614,1.614,0,0,1,.105.615,1.562,1.562,0,0,1-.435,1.155,1.523,1.523,0,0,1-1.125.435,1.427,1.427,0,0,1-1.1-.585,2.408,2.408,0,0,1-.5-1.605,4.88,4.88,0,0,1,.675-2.341,5.72,5.72,0,0,1,2.041-2.086,6.184,6.184,0,0,1,3.346-.855,6.316,6.316,0,0,1,3.481.855,4.83,4.83,0,0,1,1.876,2.131,6.586,6.586,0,0,1,.555,2.656,5.389,5.389,0,0,1-.42,2.206,6.537,6.537,0,0,1-1.14,1.74q-.72.8-2.161,2.116-.33.33-.84.78t-1.17,1.11a22.335,22.335,0,0,0-4.5,6.272H7.142a15.412,15.412,0,0,0,3.271-.255,2.942,2.942,0,0,0,1.635-.915,7.361,7.361,0,0,0,1.1-2.131q.06-.18.21-.18a2.485,2.485,0,0,1,.27.06,1.176,1.176,0,0,1,.27.12.2.2,0,0,1,.09.18l-.03.15Zm8.252,3.211a.176.176,0,0,1-.15-.09.292.292,0,0,1-.06-.15.173.173,0,0,1,.06-.12,4.15,4.15,0,0,0,.825-.96,1.708,1.708,0,0,0,.285-.84.724.724,0,0,0-.39-.69,2.359,2.359,0,0,1-.8-.57,1.285,1.285,0,0,1-.285-.87,1.629,1.629,0,0,1,.48-1.2,1.593,1.593,0,0,1,1.17-.48,1.568,1.568,0,0,1,1.17.5,1.717,1.717,0,0,1,.48,1.245,4.073,4.073,0,0,1-.825,2.491,6.154,6.154,0,0,1-1.876,1.71ZM36.309-14.008a6.689,6.689,0,0,1,2.566.585,5.761,5.761,0,0,1,2.476,2.161,7.576,7.576,0,0,1,1.08,4.336,7.481,7.481,0,0,1-.99,3.871A7.1,7.1,0,0,1,38.92-.474a6.04,6.04,0,0,1-3.091.9,7.554,7.554,0,0,1-2.716-.51,5.236,5.236,0,0,1-2.191-1.53,3.662,3.662,0,0,1-.855-2.431A1.96,1.96,0,0,1,30.5-5.471a1.349,1.349,0,0,1,.975-.435,1.99,1.99,0,0,1,1.14.345,1.2,1.2,0,0,1,.51,1.065,3.019,3.019,0,0,1-.18.93l-.09.36a1.861,1.861,0,0,0-.06.45,1.826,1.826,0,0,0,.855,1.635,3.425,3.425,0,0,0,1.906.555,3.3,3.3,0,0,0,2.1-.765A5.321,5.321,0,0,0,39.205-3.49a8.287,8.287,0,0,0,.585-3.226A7.727,7.727,0,0,0,38.68-11.1a3.42,3.42,0,0,0-2.971-1.65q-2.251,0-4.261,2.881l-.87-.57L31-21.78H41.531l-.42,2.251H31.958l-.33,7.862a8.254,8.254,0,0,1,2.341-1.815A5.408,5.408,0,0,1,36.309-14.008ZM54.674.426a4.707,4.707,0,0,1-3.136-1.26A8.692,8.692,0,0,1,49.2-4.615a18.688,18.688,0,0,1-.885-6.152,18.671,18.671,0,0,1,.9-6.182,8.919,8.919,0,0,1,2.356-3.826,4.711,4.711,0,0,1,3.166-1.275,4.677,4.677,0,0,1,3.136,1.275,8.81,8.81,0,0,1,2.341,3.826,18.963,18.963,0,0,1,.885,6.182,18.4,18.4,0,0,1-.9,6.152A8.8,8.8,0,0,1,57.84-.834,4.742,4.742,0,0,1,54.674.426Zm.06-1.02q1.74,0,2.746-2.536a21.909,21.909,0,0,0,1.005-7.637,22.179,22.179,0,0,0-1.005-7.667Q56.475-21,54.734-21q-1.77,0-2.791,2.566a21.877,21.877,0,0,0-1.02,7.667,21.611,21.611,0,0,0,1.02,7.637Q52.964-.594,54.734-.594ZM73.279.426a4.707,4.707,0,0,1-3.136-1.26A8.692,8.692,0,0,1,67.8-4.615a18.688,18.688,0,0,1-.885-6.152,18.671,18.671,0,0,1,.9-6.182,8.919,8.919,0,0,1,2.356-3.826,4.711,4.711,0,0,1,3.166-1.275,4.677,4.677,0,0,1,3.136,1.275,8.811,8.811,0,0,1,2.341,3.826,18.963,18.963,0,0,1,.885,6.182,18.4,18.4,0,0,1-.9,6.152A8.8,8.8,0,0,1,76.445-.834,4.742,4.742,0,0,1,73.279.426Zm.06-1.02q1.74,0,2.746-2.536a21.909,21.909,0,0,0,1.005-7.637,22.179,22.179,0,0,0-1.005-7.667Q75.08-21,73.339-21q-1.77,0-2.791,2.566a21.876,21.876,0,0,0-1.02,7.667,21.611,21.611,0,0,0,1.02,7.637Q71.569-.594,73.339-.594Z" transform="translate(284.21 105.993)" fill="#952600"/>
              </g>
              <path id="パス_1706" data-name="パス 1706" d="M18.193-9.984A6.725,6.725,0,0,1,21.7-8.32a4.18,4.18,0,0,1,1.352,3.172,6.232,6.232,0,0,1-.533,2.431A4.967,4.967,0,0,1,20.637-.546a6.378,6.378,0,0,1-3.614.91,5.766,5.766,0,0,1-2.9-.65,3.973,3.973,0,0,1-1.612-1.573A3.85,3.85,0,0,1,12.03-3.64a1.681,1.681,0,0,1,.4-1.235,1.27,1.27,0,0,1,.923-.4,1.628,1.628,0,0,1,.988.325,1.078,1.078,0,0,1,.442.923,1.584,1.584,0,0,1-.286.754,2.722,2.722,0,0,0-.221.364.918.918,0,0,0-.091.416,2,2,0,0,0,.572,1.378,2.677,2.677,0,0,0,2.028.624,3.547,3.547,0,0,0,2.054-.624,4.236,4.236,0,0,0,1.43-1.716,5.738,5.738,0,0,0,.52-2.5A4.446,4.446,0,0,0,19.753-8.4a3.661,3.661,0,0,0-2.886-1.17,4.237,4.237,0,0,0-.546.052,4.511,4.511,0,0,1-.624.052.791.791,0,0,1-.481-.143.471.471,0,0,1-.2-.4.48.48,0,0,1,.2-.39.746.746,0,0,1,.481-.156,2.782,2.782,0,0,1,.676.078,5.586,5.586,0,0,0,.65.052,3.564,3.564,0,0,0,2.106-.728q1.014-.728,1.014-3.12a4.154,4.154,0,0,0-.923-3.055,2.984,2.984,0,0,0-2.145-.9,3.3,3.3,0,0,0-1.469.351,1.325,1.325,0,0,0-.715,1.313,2.182,2.182,0,0,0,.208.884,1.318,1.318,0,0,1,.182.676,1.117,1.117,0,0,1-.3.806.985.985,0,0,1-.741.312,1.306,1.306,0,0,1-1.157-.507,1.942,1.942,0,0,1-.351-1.131,2.788,2.788,0,0,1,.585-1.547,4.837,4.837,0,0,1,1.651-1.443,4.91,4.91,0,0,1,2.444-.6,5.288,5.288,0,0,1,2.639.637,4.444,4.444,0,0,1,1.729,1.69,4.53,4.53,0,0,1,.6,2.275,4.363,4.363,0,0,1-1.053,2.925A5.108,5.108,0,0,1,18.193-9.984Zm16.562-1.794a4.408,4.408,0,0,1,2.6.767A4.916,4.916,0,0,1,39.019-9a6.35,6.35,0,0,1,.572,2.678A8.028,8.028,0,0,1,38.9-2.99,5.947,5.947,0,0,1,36.95-.546a4.827,4.827,0,0,1-2.9.91,5.029,5.029,0,0,1-3.042-.988A6.44,6.44,0,0,1,28.9-3.393a10.427,10.427,0,0,1-.754-4.095,17.348,17.348,0,0,1,1.04-6.357A9.623,9.623,0,0,1,31.8-17.8a4.858,4.858,0,0,1,3.081-1.313,5.517,5.517,0,0,1,2.067.351,3.052,3.052,0,0,1,1.313.923,1.93,1.93,0,0,1,.442,1.2,1.255,1.255,0,0,1-.377.923,1.225,1.225,0,0,1-.9.377,1.243,1.243,0,0,1-.962-.481A2.081,2.081,0,0,1,36-17.082a1.482,1.482,0,0,0-.312-.884,1.113,1.113,0,0,0-.858-.286,2.71,2.71,0,0,0-2.288,1.417,10.862,10.862,0,0,0-1.43,3.484,26.267,26.267,0,0,0-.65,4.147,5.38,5.38,0,0,1,1.924-1.924,4.729,4.729,0,0,1,2.369-.65Zm-.7,11.154a2.4,2.4,0,0,0,1.7-.7A4.663,4.663,0,0,0,36.913-3.25a8.436,8.436,0,0,0,.416-2.73q0-2.756-1.053-3.666A3.416,3.416,0,0,0,34-10.556a3.47,3.47,0,0,0-2.093.767A4.37,4.37,0,0,0,30.413-7.41a14.068,14.068,0,0,0,.767,4.836,2.817,2.817,0,0,0,2.873,1.95Zm27-7.164c0-2.992-1.122-4.2-3.3-4.2A4.484,4.484,0,0,0,54.1-9.834a2.8,2.8,0,0,0-2.97-2.156,4.369,4.369,0,0,0-3.564,2.134L47.5-11.682l-.308-.176-3.256.7v.7l1.76.044c.066,1.144.088,2.442.088,3.982V-5.17c0,1.188-.022,2.948-.044,4.224L44.065-.77V0h5.28V-.77L47.629-.946c-.022-1.276-.044-3.036-.044-4.224V-9A3.688,3.688,0,0,1,50.4-10.692c1.3,0,2.134.792,2.134,2.9V-5.17c0,1.232-.022,2.97-.044,4.224L50.819-.77V0h5.236V-.77L54.361-.946c-.022-1.276-.044-2.992-.044-4.224V-7.964a8.45,8.45,0,0,0-.066-1.1,3.871,3.871,0,0,1,2.9-1.628c1.21,0,2.09.77,2.09,3.036V-5.17c0,1.21-.022,2.97-.044,4.224l-1.69.176V0h5.324V-.77L61.093-.946c-.022-1.254-.044-3.014-.044-4.224Zm.88-5.764,1.144-.946c1.1-.9,1.716-1.562,1.716-2.42,0-.836-.594-1.5-1.738-1.5-1.012,0-1.782.462-1.892,1.408a.4.4,0,0,0,.418.286c.242,0,.484-.088.616-.616l.154-.594a2.391,2.391,0,0,1,.4-.022.944.944,0,0,1,.742.3.944.944,0,0,1,.248.759c0,.792-.462,1.3-1.254,2.156l-1.389,1.4v.66h3.938v-.88Zm14.85,1.892q.088-.11.209-.275a2.251,2.251,0,0,1,.209-.253.254.254,0,0,1,.176-.088,1.39,1.39,0,0,1,.55.319,6.321,6.321,0,0,1,.77.693q.352.374.352.528-.088.352-.55.352H72.577a22.292,22.292,0,0,0-3.3.308l-.55-1.144q1.21.132,2.926.176h1.584v-3.41H72.093a8.267,8.267,0,0,0-2.024.308L69.5-15.29q1.056.132,2.552.176H73.24a21.642,21.642,0,0,0-.22-3.432q2.112.616,2.112.924,0,.11-.176.22l-.374.242v2.046h1.364l.4-.594q.066-.088.187-.264a1.94,1.94,0,0,1,.209-.264.254.254,0,0,1,.176-.088,1.331,1.331,0,0,1,.539.319,7.5,7.5,0,0,1,.759.682q.352.363.352.517-.088.352-.55.352H74.579v3.41h1.782Zm9.592-6.028q.044-.066.143-.209a1.123,1.123,0,0,1,.176-.209.249.249,0,0,1,.165-.066q.2,0,.836.594t.638.836a1.323,1.323,0,0,1-.792.308,24.219,24.219,0,0,1-.407,3.817,3.575,3.575,0,0,1-.825,1.859,2.821,2.821,0,0,1-1.914.594,1.211,1.211,0,0,0-.352-.99,4.632,4.632,0,0,0-1.694-.484l.022-.374q.616.066,1.3.11t1.122.044a2.06,2.06,0,0,0,.429-.033.624.624,0,0,0,.253-.121q.55-.506.748-4.576h-3.1A10.194,10.194,0,0,1,81.85-12.43a8.744,8.744,0,0,1-3.707,3.212l-.308-.33a8.061,8.061,0,0,0,2.9-3.19,10.835,10.835,0,0,0,.924-3.85H80.585a7.805,7.805,0,0,0-1.936.308l-.572-1.12q1.21.132,2.926.176h5.038ZM76.7-6.888q.066-.088.187-.275a1.742,1.742,0,0,1,.209-.275.254.254,0,0,1,.176-.088,1.265,1.265,0,0,1,.528.33,7.448,7.448,0,0,1,.737.7q.341.374.341.528-.066.352-.572.352H74.975V-.77A8.173,8.173,0,0,0,76.9-.352a26.3,26.3,0,0,0,2.629.11q6.864,0,8.954-.066v.286a1.021,1.021,0,0,0-.638.385,1.456,1.456,0,0,0-.264.737h-8.1a15.059,15.059,0,0,1-3.8-.4A5.389,5.389,0,0,1,73.16-.77a8.55,8.55,0,0,1-1.771-3.146,11.6,11.6,0,0,1-2.552,5.654l-.22-.264a14.322,14.322,0,0,0,1.672-5.588A16.5,16.5,0,0,0,70.4-6.27a14.307,14.307,0,0,0-.176-2.574q2.178.308,2.178.594,0,.088-.176.2l-.352.22q-.11,1.694-.352,3.168A7.041,7.041,0,0,0,73.678-1.45v-4.4a28.781,28.781,0,0,0-.286-4.51,15.458,15.458,0,0,1,1.683.561q.473.209.473.363,0,.132-.2.242l-.374.242V-6.27h1.3Zm9.064-2.42q.066-.088.231-.3t.3-.209a1.287,1.287,0,0,1,.528.308,5.746,5.746,0,0,1,.726.671q.33.363.33.517a1.006,1.006,0,0,1-.33.231A2.307,2.307,0,0,1,87-7.9v1.98q.066,2.486.154,3.85a1.429,1.429,0,0,1-.55.407,1.74,1.74,0,0,1-.77.209.234.234,0,0,1-.209-.132.6.6,0,0,1-.077-.308l.088-.528v-.506H80.8v.44q.022.242.033.451a1.768,1.768,0,0,0,.033.3q-.044.2-.429.385a1.771,1.771,0,0,1-.781.187A.3.3,0,0,1,79.4-1.3a.5.5,0,0,1-.1-.308q.088-.924.132-2.332V-5.324a28.79,28.79,0,0,0-.264-4.268l1.738.792H85.4ZM80.8-8.162v4.6h4.818v-4.6Z" transform="translate(166.403 106.17)" fill="#333"/>
              <path id="パス_1707" data-name="パス 1707" d="M16.8-18.546,7.978,2.178l-.792-.352L16.03-18.9Z" transform="translate(152.247 104.73)" fill="#333"/>
            </g>
            <path id="パス_138" data-name="パス 138" d="M3.876,1.212a.149.149,0,0,1-.108-.048A8.157,8.157,0,0,1,1.842-1.344,7,7,0,0,1,1.08-4.56a7,7,0,0,1,.762-3.216,8.157,8.157,0,0,1,1.926-2.508.149.149,0,0,1,.108-.048.139.139,0,0,1,.1.042.126.126,0,0,1,.042.09.115.115,0,0,1-.036.084,6.921,6.921,0,0,0-1.3,2.46,10.3,10.3,0,0,0-.462,3.1,10.3,10.3,0,0,0,.462,3.1A6.921,6.921,0,0,0,3.984,1a.115.115,0,0,1,.036.084.12.12,0,0,1-.042.1A.151.151,0,0,1,3.876,1.212ZM14.472-6.4A8.631,8.631,0,0,0,17.04-4.812L17-4.692a.789.789,0,0,0-.444.186.978.978,0,0,0-.288.438A8.523,8.523,0,0,1,13.5-6.438a9.66,9.66,0,0,1-1.656-3.51l.192-.12a7.555,7.555,0,0,0,1.1,2.2,9.123,9.123,0,0,0,.8-.924,5.214,5.214,0,0,0,.576-.912q.936.624.936.756,0,.06-.12.06l-.216.012a9.352,9.352,0,0,1-.822.612q-.5.336-1,.624A8.51,8.51,0,0,0,14.244-6.6a7.271,7.271,0,0,0,.858-.888,5.117,5.117,0,0,0,.63-.936q.936.648.936.792,0,.06-.12.06l-.216.012q-.324.252-.84.576T14.472-6.4ZM9.42-6.252a9.743,9.743,0,0,1-3.2,2.328L6.084-4.1A9.882,9.882,0,0,0,8.712-6.4l-.084.012a.607.607,0,0,1-.288-.1,2.156,2.156,0,0,0-.492-.846,4.157,4.157,0,0,0-.816-.726l.1-.12a3.835,3.835,0,0,1,1.11.366,1.747,1.747,0,0,1,.612.5.834.834,0,0,1,.174.51,9.25,9.25,0,0,0,1.164-2.076H9.324A9.539,9.539,0,0,0,7.74-8.7l-.324-.624q.66.072,1.6.1h1.2l.228-.24q.036-.036.132-.138a.264.264,0,0,1,.18-.1q.108,0,.456.33t.348.462a.356.356,0,0,1-.168.1,2.624,2.624,0,0,1-.3.048,10.013,10.013,0,0,1-1.6,2.448q.66.06,1.488.084h1.26l.216-.312.1-.138a1.227,1.227,0,0,1,.114-.138.138.138,0,0,1,.1-.048.7.7,0,0,1,.288.168,3.847,3.847,0,0,1,.4.36q.186.192.186.276-.048.192-.3.192h-2.52A4.817,4.817,0,0,0,9.7-5.712Zm5.6,1.74a.794.794,0,0,1-.444.2v.732l.012.444q.012.492.048.948a.567.567,0,0,1-.282.2,1.058,1.058,0,0,1-.414.1h-.12v-.468H9.264v.372q0,.06-.21.156a1.042,1.042,0,0,1-.438.1A.128.128,0,0,1,8.5-1.8a.327.327,0,0,1-.042-.168q.036-.324.048-.612l.012-.288v-.576a12.157,12.157,0,0,0-.108-1.764l.912.444h4.392l.18-.264.09-.12a.69.69,0,0,1,.1-.108.136.136,0,0,1,.09-.036.678.678,0,0,1,.282.162,3.611,3.611,0,0,1,.39.348Q15.024-4.6,15.024-4.512ZM9.264-2.7h4.56V-4.416H9.264ZM15.732-.48a.862.862,0,0,1,.324.2,5.3,5.3,0,0,1,.474.42q.222.222.222.306Q16.7.636,16.44.636H8.448A12.159,12.159,0,0,0,6.648.8L6.336.192q.66.072,1.6.1H12.2a9.271,9.271,0,0,0,.414-1.206,6.17,6.17,0,0,0,.21-1.1Q14-1.6,14-1.44q0,.036-.108.084l-.2.072A13.509,13.509,0,0,1,12.528.288h2.58L15.372-.1l.12-.162a1.552,1.552,0,0,1,.138-.168A.151.151,0,0,1,15.732-.48Zm-6.4-1.392a2.649,2.649,0,0,1,1.014.714,1.264,1.264,0,0,1,.318.774.631.631,0,0,1-.12.4.365.365,0,0,1-.3.156A.5.5,0,0,1,9.912.012a2.671,2.671,0,0,0-.222-.93A4.084,4.084,0,0,0,9.2-1.8Zm14.58.54Q22.128-.36,20.256.54a.414.414,0,0,1-.228.3l-.6-.936q.636-.156,1.884-.564V-4.344h-.576a3.628,3.628,0,0,0-.984.168l-.312-.612a12.61,12.61,0,0,0,1.272.1h.6V-6.228H21a1.106,1.106,0,0,0-.5.168L20.22-6.6a6.346,6.346,0,0,1-.852.876l-.156-.132a9.7,9.7,0,0,0,1.2-1.956,8.258,8.258,0,0,0,.48-1.194,5.641,5.641,0,0,0,.252-1.122l1.236.48a.221.221,0,0,1-.114.156.833.833,0,0,1-.318.06,4.566,4.566,0,0,1,1.476.9,1.313,1.313,0,0,1,.456.864.449.449,0,0,1-.108.312.33.33,0,0,1-.252.12.465.465,0,0,1-.276-.108,4.891,4.891,0,0,0-.546-.924,6.994,6.994,0,0,0-.846-.96,11.436,11.436,0,0,1-1.584,2.58q.576.06,1.32.084h.648l.2-.312q.036-.048.1-.138a1.381,1.381,0,0,1,.1-.138.12.12,0,0,1,.09-.048q.12,0,.474.324t.354.456q-.048.192-.3.192H22v1.536h.6l.216-.324q.036-.06.1-.15t.108-.138a.12.12,0,0,1,.09-.048q.108,0,.474.348t.366.48q-.048.18-.3.18H22V-.888l1.356-.456.492-.168ZM27.972-2.82a5.026,5.026,0,0,0,.942,1.254,6.847,6.847,0,0,0,1.23.93l-.024.12a.678.678,0,0,0-.36.228,1.244,1.244,0,0,0-.24.444,6.327,6.327,0,0,1-1.494-1.83,8.916,8.916,0,0,1-.858-2.718V-.216a1.312,1.312,0,0,1-.2.8,1.213,1.213,0,0,1-.852.342A.8.8,0,0,0,25.92.372,1.413,1.413,0,0,0,25.152.1v-.18q.888.06,1.056.06a.255.255,0,0,0,.18-.048.234.234,0,0,0,.048-.168V-2.52l-.48.492q-1.3,1.3-1.764,1.74v.036a.435.435,0,0,1-.042.186.377.377,0,0,1-.1.138L23.34-.7q.432-.264,1.314-.858t1.782-1.23v-2.7h-.864a9.1,9.1,0,0,0-1.56.168L23.7-5.928q.66.072,1.6.1h2.736V-7.248H26.748a12.159,12.159,0,0,0-1.8.168l-.324-.612q.66.072,1.6.1h1.812V-8.952H26.46a12.159,12.159,0,0,0-1.8.168l-.324-.624q.66.072,1.6.1h1.992l.18-.216q.024-.024.1-.12a.215.215,0,0,1,.162-.1,1.113,1.113,0,0,1,.468.276q.348.276.348.408a.553.553,0,0,1-.18.132.934.934,0,0,1-.252.084v3.012h.1l.192-.324q.036-.048.1-.138a1.381,1.381,0,0,1,.1-.138.12.12,0,0,1,.09-.048q.108,0,.444.342t.336.474q-.036.18-.288.18H27.168v.264a7.685,7.685,0,0,0,.684,2.2,11.4,11.4,0,0,0,.69-1.038A4.841,4.841,0,0,0,29-5.04q.516.312.726.468t.21.228q0,.048-.12.072l-.216.024q-.3.312-.75.708T27.972-2.82ZM25.764-3.3a.484.484,0,0,1-.1.312.3.3,0,0,1-.24.12.5.5,0,0,1-.3-.12,3.1,3.1,0,0,0-.378-.882,6.475,6.475,0,0,0-.606-.87l.144-.084a3.119,3.119,0,0,1,1.116.756A1.236,1.236,0,0,1,25.764-3.3ZM22.356-1.416v-.012a10.189,10.189,0,0,0,.2-1.242,9.508,9.508,0,0,0,.06-1.206l.672.252q.456.084.456.192,0,.06-.132.12l-.192.1a11.186,11.186,0,0,1-.864,1.884Zm-1.9.324a.363.363,0,0,1-.276-.168,3.2,3.2,0,0,0,.012-.324,5.756,5.756,0,0,0-.1-1.044,7.588,7.588,0,0,0-.258-1.02L20-3.684a3.477,3.477,0,0,1,.648.984,2.35,2.35,0,0,1,.2.888,1.048,1.048,0,0,1-.114.516A.329.329,0,0,1,20.46-1.092Zm20.952-7.2a1.364,1.364,0,0,0,.114-.144q.078-.108.15-.108a.787.787,0,0,1,.3.156,3.2,3.2,0,0,1,.42.342q.192.186.192.27a.849.849,0,0,1-.48.24v2.472q.024,1.488.1,2.82a.863.863,0,0,1-.33.216,1.091,1.091,0,0,1-.426.108.137.137,0,0,1-.126-.072.327.327,0,0,1-.042-.168l.048-.336v-.288H38.316v1.14q.036,1.428.084,2.2a.7.7,0,0,1-.288.27.832.832,0,0,1-.42.126.244.244,0,0,1-.18-.072A.23.23,0,0,1,37.44.708q.072-1.116.1-2.244V-2.784H34.584v.252q.012.144.018.264a1,1,0,0,0,.018.168q-.024.12-.234.228a.946.946,0,0,1-.438.108.23.23,0,0,1-.168-.072A.23.23,0,0,1,33.708-2q.084-1.176.108-2.616V-6.048a15.7,15.7,0,0,0-.156-2.46l.984.456h2.892a12.611,12.611,0,0,0-.132-2.064,7.187,7.187,0,0,1,.942.318q.27.126.27.21,0,.06-.1.12l-.2.132v1.284h2.916ZM37.536-5.6V-7.692H34.584V-5.6Zm3.792,0V-7.692H38.316V-5.6Zm-6.744.336v2.124h2.952V-5.268Zm3.732,0v2.124h3.012V-5.268Zm13.572-3.96q.252-.4.408-.684l1.08.888a1.2,1.2,0,0,1-.852.288q.78,5.1,4,6.792l-.036.132a1,1,0,0,0-.432.234,1.106,1.106,0,0,0-.288.414,6.728,6.728,0,0,1-1.92-2.028,10.524,10.524,0,0,1-1.176-2.88,9.772,9.772,0,0,1-1.59,2.814A9.593,9.593,0,0,1,48.648-1.1l-.144-.18a9.333,9.333,0,0,0,2.412-2.808A11.883,11.883,0,0,0,52.3-7.98q-.048-.312-.12-.9H51.4A7.177,7.177,0,0,0,50-8.712l-.312-.612q.612.072,1.488.1ZM46.4-9.684A3.844,3.844,0,0,1,48.03-8.8a1.526,1.526,0,0,1,.522,1.008.557.557,0,0,1-.108.354.336.336,0,0,1-.276.138.561.561,0,0,1-.324-.12,3.837,3.837,0,0,0-.606-1.128A6.524,6.524,0,0,0,46.3-9.588Zm1.26,4.4q.036-.06.09-.156a.886.886,0,0,1,.1-.144.12.12,0,0,1,.09-.048.8.8,0,0,1,.312.2A4.533,4.533,0,0,1,48.7-5q.21.228.21.312a.931.931,0,0,1-.552.216v3.228a2.742,2.742,0,0,0,.852.714A3.248,3.248,0,0,0,50.3-.222a14.673,14.673,0,0,0,1.7.078q3.168,0,4.548-.048v.168a.671.671,0,0,0-.576.66H52.02A9.779,9.779,0,0,1,50.232.5,2.837,2.837,0,0,1,49.068.018,3.48,3.48,0,0,1,48.18-1.02q-.348.4-.846.876t-.846.768L46.5.7a.255.255,0,0,1-.144.228L45.828-.1q.744-.348,1.8-.948v-3.54h-.564a3.9,3.9,0,0,0-1.008.168l-.288-.624a10.415,10.415,0,0,0,1.152.1h.552ZM60.6-5.688A11.085,11.085,0,0,1,59.124-3.84l-.168-.12a17.259,17.259,0,0,0,1.9-3.624,11.518,11.518,0,0,0,.432-1.326,8.186,8.186,0,0,0,.252-1.242q1.224.384,1.224.552,0,.048-.108.084l-.228.084a18.753,18.753,0,0,1-1.392,3.048q.588.384.588.54,0,.072-.1.108l-.18.072v3.456q.024,1.488.1,2.82a1.386,1.386,0,0,1-.3.216.8.8,0,0,1-.4.108.287.287,0,0,1-.192-.072A.216.216,0,0,1,60.468.7q.048-.708.084-1.374T60.6-2.424Zm3.636-4.26a4.862,4.862,0,0,1,1.32.54,2.427,2.427,0,0,1,.744.666,1.159,1.159,0,0,1,.228.63.465.465,0,0,1-.1.312.324.324,0,0,1-.258.12.507.507,0,0,1-.276-.084,3.669,3.669,0,0,0-.708-1.086,6.984,6.984,0,0,0-1.068-.99Zm3.708,5.676.114-.15a1.6,1.6,0,0,1,.126-.15.138.138,0,0,1,.1-.048.783.783,0,0,1,.306.18,4.49,4.49,0,0,1,.438.384q.2.2.2.288-.036.192-.3.192h-2.94V.048h2.124l.264-.384Q68.424-.4,68.5-.5t.126-.162a.133.133,0,0,1,.1-.054.9.9,0,0,1,.33.2A4.939,4.939,0,0,1,69.54-.1q.228.228.228.312-.048.192-.3.192H63.852a12.159,12.159,0,0,0-1.8.168l-.3-.624q.66.072,1.6.1h1.86V-3.576h-.9a9.915,9.915,0,0,0-1.632.168l-.3-.612q.66.072,1.6.1h1.236V-6.972H64.116a12.159,12.159,0,0,0-1.8.168l-.3-.612q.66.072,1.6.1h4.3l.252-.36q.06-.072.12-.156a1.64,1.64,0,0,1,.12-.15.162.162,0,0,1,.108-.066.842.842,0,0,1,.318.186,4.436,4.436,0,0,1,.462.4q.216.216.216.3-.048.192-.312.192h-3.2v3.048H67.7ZM74.568-8.7a12.16,12.16,0,0,0-1.8.168l-.324-.624q.66.072,1.6.1h6.972l.264-.372q.048-.06.126-.162a1.62,1.62,0,0,1,.132-.156.151.151,0,0,1,.1-.054.9.9,0,0,1,.33.192,4.352,4.352,0,0,1,.48.414q.222.222.222.306-.036.192-.3.192Zm0,5.088a7.754,7.754,0,0,1-.624,2.538A5.04,5.04,0,0,1,72.276.948L72.132.816a5.806,5.806,0,0,0,1.356-2.484,12.587,12.587,0,0,0,.348-3.1V-6.12a9.73,9.73,0,0,0-.084-1.416l1.008.48h5.748l.18-.24q.036-.036.12-.138a.224.224,0,0,1,.156-.1.8.8,0,0,1,.3.15,3.118,3.118,0,0,1,.42.33q.192.18.192.264a.888.888,0,0,1-.48.252v1.164q.036,1.464.084,2.256a.742.742,0,0,1-.318.216,1.091,1.091,0,0,1-.426.108.137.137,0,0,1-.126-.072.327.327,0,0,1-.042-.168q0-.024.048-.3v-.276Zm.048-1.164q0,.528-.024.8h6.024V-6.7h-6Zm10.62,5.988a.151.151,0,0,1-.1-.036.12.12,0,0,1-.042-.1A.115.115,0,0,1,85.128,1a6.921,6.921,0,0,0,1.3-2.46,10.3,10.3,0,0,0,.462-3.1,10.3,10.3,0,0,0-.462-3.1,6.921,6.921,0,0,0-1.3-2.46.115.115,0,0,1-.036-.084.126.126,0,0,1,.042-.09.139.139,0,0,1,.1-.042.149.149,0,0,1,.108.048A8.157,8.157,0,0,1,87.27-7.776a7,7,0,0,1,.762,3.216,7,7,0,0,1-.762,3.216,8.157,8.157,0,0,1-1.926,2.508A.149.149,0,0,1,85.236,1.212Z" transform="translate(445.397 108.783)" fill="#333"/>
          </g>
          <g id="グループ_64" data-name="グループ 64" transform="translate(0 -37)">
            <g id="グループ_272" data-name="グループ 272" transform="translate(-1 8.711)">
              <path id="パス_1690" data-name="パス 1690" d="M16.8-18.546,7.978,2.178l-.792-.352L16.03-18.9Z" transform="translate(152.246 177.67)" fill="#333"/>
              <g id="グループ_270" data-name="グループ 270" transform="translate(0.73 -1.21)">
                <path id="パス_1693" data-name="パス 1693" d="M22.975-11q.066-.088.187-.242a1.635,1.635,0,0,1,.2-.22.249.249,0,0,1,.165-.066q.2,0,.858.649t.66.891a1.476,1.476,0,0,1-.9.33,50.5,50.5,0,0,1-.715,6.644A7.337,7.337,0,0,1,22.117.528a3.63,3.63,0,0,1-2.574.88A1.174,1.174,0,0,0,19.081.352a3.19,3.19,0,0,0-.957-.363A15.251,15.251,0,0,0,16.573-.33l.022-.4q.968.11,2.112.209t1.518.1a1.717,1.717,0,0,0,.528-.066,1.341,1.341,0,0,0,.4-.22q.572-.506,1-3.014a54.889,54.889,0,0,0,.627-6.116H16.309A18.162,18.162,0,0,1,14.021-3.4,16.128,16.128,0,0,1,8.785,1.782l-.308-.374a15.964,15.964,0,0,0,4.367-5.06,17.312,17.312,0,0,0,1.848-5.4,47.271,47.271,0,0,0,.473-6.215H12.173a22.292,22.292,0,0,0-3.3.308l-.594-1.1q1.21.132,2.926.176H24.6l.484-.7.22-.3a2.845,2.845,0,0,1,.253-.308.278.278,0,0,1,.187-.1,1.58,1.58,0,0,1,.594.363,9.72,9.72,0,0,1,.869.77q.407.407.407.561-.022.33-.55.33H16.749a42.859,42.859,0,0,1-.352,4.8h6.182ZM35.537-4.18q.044,2.728.176,5.17a1.365,1.365,0,0,1-.517.473,1.539,1.539,0,0,1-.781.209.526.526,0,0,1-.352-.132.4.4,0,0,1-.154-.308q.088-1.3.154-2.519t.088-3.2v-8.36a28.781,28.781,0,0,0-.286-4.51l1.782.858H48.825l.308-.462q.066-.088.2-.275t.264-.187a1.487,1.487,0,0,1,.561.3,7.668,7.668,0,0,1,.8.638q.374.341.374.5a1.644,1.644,0,0,1-.374.264,1.616,1.616,0,0,1-.55.176v15A2.653,2.653,0,0,1,50.233.5a1.441,1.441,0,0,1-.726.682,4.842,4.842,0,0,1-1.606.385,1.7,1.7,0,0,0-.176-.616,1,1,0,0,0-.418-.4,6.114,6.114,0,0,0-2.222-.572V-.374q2.794.22,3.3.22a.728.728,0,0,0,.495-.132.577.577,0,0,0,.143-.44V-7.964H35.537ZM41.5-15.84H35.537v7.26H41.5Zm1.408,0v7.26h6.116v-7.26ZM61.63-11.286q3.058-.11,8.074-.374l2.552-.132a23.777,23.777,0,0,0-3.432-3.652l.242-.2a16.761,16.761,0,0,1,3.52,2.178,9,9,0,0,1,1.969,2.156,3.572,3.572,0,0,1,.605,1.76,1.1,1.1,0,0,1-.176.66.566.566,0,0,1-.484.242,1.074,1.074,0,0,1-.572-.2,9.437,9.437,0,0,0-1.342-2.464Q66.91-10.5,58.418-9.64a.9.9,0,0,1-.616.462l-.55-2q1.584,0,3.586-.088,1.122-1.958,1.848-3.432a19.759,19.759,0,0,0,.957-2.145,15.232,15.232,0,0,0,.627-2.013q2.354.88,2.354,1.166,0,.088-.2.176l-.418.132q-.858,1.43-2.035,3.091t-2.342,3.005ZM61.387.264q.022.286.033.517a2.521,2.521,0,0,0,.033.341q-.044.2-.429.407a1.661,1.661,0,0,1-.8.209.355.355,0,0,1-.286-.132.467.467,0,0,1-.11-.308q.11-1.166.154-3.1V-3.586A28.78,28.78,0,0,0,59.7-8.1l1.8.858h9.812L71.66-7.7l.165-.22A1.266,1.266,0,0,1,72-8.12a.249.249,0,0,1,.165-.066,1.487,1.487,0,0,1,.561.3,6.843,6.843,0,0,1,.792.638q.363.341.363.5a1.54,1.54,0,0,1-.946.44V-3.85Q73-.77,73.091.924a1.358,1.358,0,0,1-.572.4,1.96,1.96,0,0,1-.792.2.251.251,0,0,1-.231-.132.6.6,0,0,1-.077-.308l.088-.7v-.6H61.387Zm0-6.864V-.88h10.12V-6.6Z" transform="translate(361 181)" fill="#333"/>
                <path id="パス_137" data-name="パス 137" d="M14.61-4.92H11.22v2.97a.838.838,0,0,0,.57.87,4.429,4.429,0,0,0,1.5.21h.39q.27,0,.27.42,0,.45-.27.45H6.48q-.24,0-.24-.45,0-.42.24-.42h.39a4.429,4.429,0,0,0,1.5-.21.838.838,0,0,0,.57-.87V-4.92H.87V-6.18l9.15-15.87,1.2.27v15.6h3.39ZM8.94-17.7,2.31-6.18H8.94ZM20.7,3.21a.176.176,0,0,1-.15-.09.292.292,0,0,1-.06-.15.173.173,0,0,1,.06-.12,4.149,4.149,0,0,0,.825-.96,1.708,1.708,0,0,0,.285-.84.724.724,0,0,0-.39-.69,2.358,2.358,0,0,1-.795-.57,1.284,1.284,0,0,1-.285-.87,1.628,1.628,0,0,1,.48-1.2,1.592,1.592,0,0,1,1.17-.48,1.568,1.568,0,0,1,1.17.495,1.716,1.716,0,0,1,.48,1.245,4.072,4.072,0,0,1-.825,2.49A6.152,6.152,0,0,1,20.79,3.18ZM36.09-22.02a5.8,5.8,0,0,1,3.51,1.14,7.431,7.431,0,0,1,2.43,3.195,12.031,12.031,0,0,1,.87,4.725,20.017,20.017,0,0,1-1.2,7.335,11.1,11.1,0,0,1-3.015,4.56A5.605,5.605,0,0,1,35.13.45a6.366,6.366,0,0,1-2.385-.4A3.522,3.522,0,0,1,31.23-1.02a2.227,2.227,0,0,1-.51-1.38,1.448,1.448,0,0,1,.435-1.065A1.414,1.414,0,0,1,32.19-3.9a1.434,1.434,0,0,1,1.11.555,2.4,2.4,0,0,1,.54,1.455A1.71,1.71,0,0,0,34.2-.87a1.284,1.284,0,0,0,.99.33,3.127,3.127,0,0,0,2.64-1.635A12.533,12.533,0,0,0,39.48-6.2a30.307,30.307,0,0,0,.75-4.785,6.208,6.208,0,0,1-2.22,2.22,5.456,5.456,0,0,1-2.73.75,5.086,5.086,0,0,1-3-.885,5.673,5.673,0,0,1-1.92-2.325,7.327,7.327,0,0,1-.66-3.09,9.263,9.263,0,0,1,.795-3.84,6.861,6.861,0,0,1,2.25-2.82A5.569,5.569,0,0,1,36.09-22.02Zm.06,12.6a4,4,0,0,0,2.415-.885A5.042,5.042,0,0,0,40.29-13.05a16.232,16.232,0,0,0-.885-5.58,3.25,3.25,0,0,0-3.315-2.25,2.775,2.775,0,0,0-1.965.81,5.38,5.38,0,0,0-1.335,2.22,9.734,9.734,0,0,0-.48,3.15q0,3.18,1.215,4.23A3.942,3.942,0,0,0,36.15-9.42ZM55.32.42A4.706,4.706,0,0,1,52.185-.84a8.69,8.69,0,0,1-2.34-3.78,18.683,18.683,0,0,1-.885-6.15,18.666,18.666,0,0,1,.9-6.18,8.917,8.917,0,0,1,2.355-3.825A4.71,4.71,0,0,1,55.38-22.05a4.676,4.676,0,0,1,3.135,1.275,8.808,8.808,0,0,1,2.34,3.825,18.958,18.958,0,0,1,.885,6.18,18.4,18.4,0,0,1-.9,6.15A8.8,8.8,0,0,1,58.485-.84,4.74,4.74,0,0,1,55.32.42ZM55.38-.6q1.74,0,2.745-2.535a21.9,21.9,0,0,0,1-7.635,22.173,22.173,0,0,0-1-7.665Q57.12-21,55.38-21q-1.77,0-2.79,2.565a21.871,21.871,0,0,0-1.02,7.665,21.605,21.605,0,0,0,1.02,7.635Q53.61-.6,55.38-.6ZM73.92.42A4.706,4.706,0,0,1,70.785-.84a8.69,8.69,0,0,1-2.34-3.78,18.683,18.683,0,0,1-.885-6.15,18.666,18.666,0,0,1,.9-6.18,8.917,8.917,0,0,1,2.355-3.825A4.71,4.71,0,0,1,73.98-22.05a4.676,4.676,0,0,1,3.135,1.275,8.808,8.808,0,0,1,2.34,3.825,18.957,18.957,0,0,1,.885,6.18,18.4,18.4,0,0,1-.9,6.15A8.8,8.8,0,0,1,77.085-.84,4.74,4.74,0,0,1,73.92.42ZM73.98-.6q1.74,0,2.745-2.535A21.9,21.9,0,0,0,77.73-10.77a22.173,22.173,0,0,0-1.005-7.665Q75.72-21,73.98-21q-1.77,0-2.79,2.565a21.871,21.871,0,0,0-1.02,7.665,21.605,21.605,0,0,0,1.02,7.635Q72.21-.6,73.98-.6Z" transform="translate(283.921 181)" fill="#952600"/>
              </g>
              <g id="グループ_278" data-name="グループ 278" transform="translate(0.046)">
                <path id="パス_1703" data-name="パス 1703" d="M-95.008,0h-9.464l-.26-.572a16.31,16.31,0,0,1,1.846-3.64q1.118-1.638,2.99-3.9a27.958,27.958,0,0,0,2.756-3.653,5.709,5.709,0,0,0,.858-2.951,4.072,4.072,0,0,0-.78-2.47,2.826,2.826,0,0,0-2.444-1.066,3.492,3.492,0,0,0-2.08.611,1.794,1.794,0,0,0-.858,1.5,1.583,1.583,0,0,0,.091.572,2.375,2.375,0,0,0,.3.52,3.344,3.344,0,0,1,.273.507,1.4,1.4,0,0,1,.091.533,1.353,1.353,0,0,1-.377,1,1.319,1.319,0,0,1-.975.377,1.237,1.237,0,0,1-.949-.507,2.086,2.086,0,0,1-.429-1.391,4.228,4.228,0,0,1,.585-2.028,4.956,4.956,0,0,1,1.768-1.807,5.358,5.358,0,0,1,2.9-.741,5.473,5.473,0,0,1,3.016.741,4.185,4.185,0,0,1,1.625,1.846,5.706,5.706,0,0,1,.481,2.3,4.669,4.669,0,0,1-.364,1.911A5.664,5.664,0,0,1-95.4-10.8q-.624.689-1.872,1.833-.286.286-.728.676t-1.014.962a19.352,19.352,0,0,0-3.9,5.434h3.094a13.353,13.353,0,0,0,2.834-.221,2.549,2.549,0,0,0,1.417-.793,6.378,6.378,0,0,0,.949-1.846q.052-.156.182-.156a2.153,2.153,0,0,1,.234.052,1.019,1.019,0,0,1,.234.1.175.175,0,0,1,.078.156l-.026.13Zm6.252,0a.121.121,0,0,1-.121-.077.616.616,0,0,1-.033-.231q0-.33.154-.33h.352a2.684,2.684,0,0,0,1.452-.3A1.194,1.194,0,0,0-86.512-2V-13.97a1.2,1.2,0,0,0-.462-1.078,2.621,2.621,0,0,0-1.43-.308h-.352q-.154,0-.154-.308t.154-.308h6.248a.139.139,0,0,1,.143.077.616.616,0,0,1,.033.231q0,.308-.176.308h-.33a2.6,2.6,0,0,0-1.452.319,1.2,1.2,0,0,0-.462,1.067V-2A1.1,1.1,0,0,0-84.3-.979a3.2,3.2,0,0,0,1.463.319l.506.022.88-.022a5.6,5.6,0,0,0,3.146-.891,9.272,9.272,0,0,0,2.222-2.277.2.2,0,0,1,.176-.11.507.507,0,0,1,.2.066q.176.088.176.22l-.022.11q-.418,1.144-.638,1.672L-76.876,0Zm17.908,0q-.176,0-.176-.308t.176-.308h.352a2.631,2.631,0,0,0,1.43-.3,1.194,1.194,0,0,0,.44-1.067V-13.97a1.221,1.221,0,0,0-.44-1.089,2.631,2.631,0,0,0-1.43-.3h-.352q-.154,0-.154-.308t.154-.308L-68.384-16q2.376,0,4,.066a10.355,10.355,0,0,1,3.883.9,6.787,6.787,0,0,1,2.926,2.563,8.093,8.093,0,0,1,1.133,4.477,8.05,8.05,0,0,1-1.133,4.455A6.862,6.862,0,0,1-60.5-.957a10.225,10.225,0,0,1-3.883.913q-1.452.066-3.63.066Zm6.05-.66a6.929,6.929,0,0,0,2.717-.616,5.859,5.859,0,0,0,2.53-2.255,7.961,7.961,0,0,0,1.089-4.455,8.007,8.007,0,0,0-1.089-4.477,5.782,5.782,0,0,0-2.53-2.244,7.035,7.035,0,0,0-2.717-.6h-.176A2.547,2.547,0,0,0-66.415-15a1.239,1.239,0,0,0-.429,1.078v11.9a1.212,1.212,0,0,0,.429,1.056,2.547,2.547,0,0,0,1.441.308Zm29.436.022a.121.121,0,0,1,.121.077.616.616,0,0,1,.033.231q0,.33-.154.33H-41.94q-.154,0-.154-.33,0-.308.154-.308,1.782,0,1.782-.66a1.235,1.235,0,0,0-.33-.682l-5.1-6.05L-47.48-6.16V-2a1.194,1.194,0,0,0,.44,1.067,2.631,2.631,0,0,0,1.43.3h.374q.154,0,.154.308,0,.33-.154.33h-6.248q-.154,0-.154-.33A.616.616,0,0,1-51.6-.556a.121.121,0,0,1,.121-.077h.33A2.605,2.605,0,0,0-49.7-.941,1.2,1.2,0,0,0-49.266-2V-13.97a1.207,1.207,0,0,0-.451-1.089,2.692,2.692,0,0,0-1.441-.3h-.33q-.154,0-.154-.308t.154-.308h6.248a.139.139,0,0,1,.143.077.616.616,0,0,1,.033.231q0,.308-.176.308h-.374a2.547,2.547,0,0,0-1.441.308,1.239,1.239,0,0,0-.429,1.078V-7.3q3.564-3.52,5.742-5.742l.77-.77a1.085,1.085,0,0,0,.33-.682.711.711,0,0,0-.4-.616,2.161,2.161,0,0,0-1.122-.242q-.154,0-.154-.308t.154-.308h5.7a.139.139,0,0,1,.143.077.616.616,0,0,1,.033.231q0,.308-.176.308a4.512,4.512,0,0,0-3.036,1.4q-.506.462-4.8,4.664l1.98,2.354q3.454,4.136,3.784,4.51A6.336,6.336,0,0,0-37-1.012a3.26,3.26,0,0,0,1.638.374Z" transform="translate(162.732 180.11)" fill="#333"/>
                <path id="パス_1704" data-name="パス 1704" d="M-27.055-10.264h4.116v.847h-4.116V-5.3H-27.9V-9.417h-4.116v-.847H-27.9V-14.38h.847Zm12.4,6.758a7.647,7.647,0,0,1-1.445-.16,9,9,0,0,1-1.448-.4,1.33,1.33,0,0,0-.423-.068A.949.949,0,0,0-18.442-4a3.454,3.454,0,0,0-.584.449l-.779-3.3-.017-.1q0-.085.169-.152l.1-.017a.207.207,0,0,1,.186.136,4.987,4.987,0,0,0,4.539,2.9,4.091,4.091,0,0,0,2.075-.55A2,2,0,0,0-11.8-6.523a2.179,2.179,0,0,0-.339-1.16,2.471,2.471,0,0,0-.982-.889,7.691,7.691,0,0,0-1.016-.44q-.491-.169-1.2-.39a11.882,11.882,0,0,1-1.491-.508,4.171,4.171,0,0,1-1.787-1.355,2.96,2.96,0,0,1-.483-1.643,3.686,3.686,0,0,1,.3-1.389,3.01,3.01,0,0,1,1.1-1.3,3.608,3.608,0,0,1,2.126-.559,5.1,5.1,0,0,1,1.05.11,9.209,9.209,0,0,1,1.152.33,1.726,1.726,0,0,0,.457.085,1.226,1.226,0,0,0,.932-.542l.847,2.88.017.119q0,.1-.136.152a.538.538,0,0,1-.152.034.2.2,0,0,1-.169-.1A6.4,6.4,0,0,0-12.3-14a5.825,5.825,0,0,0-1.406-1.084,3.86,3.86,0,0,0-1.965-.508,2.324,2.324,0,0,0-1.592.483,2.232,2.232,0,0,0-.694.982,2.858,2.858,0,0,0-.152.754,2.181,2.181,0,0,0,1.44,1.931,14.064,14.064,0,0,0,1.9.678q.745.22,1.279.407a8.855,8.855,0,0,1,1.042.44,3.334,3.334,0,0,1,1.965,3.151,2.943,2.943,0,0,1-.5,1.677,3.37,3.37,0,0,1-1.448,1.177,5.31,5.31,0,0,1-2.22.41Z" transform="translate(160.732 183.637)" fill="#333"/>
              </g>
              <path id="パス_1705" data-name="パス 1705" d="M34.768-11.778a4.408,4.408,0,0,1,2.6.767A4.916,4.916,0,0,1,39.032-9,6.35,6.35,0,0,1,39.6-6.318a8.028,8.028,0,0,1-.689,3.328,5.947,5.947,0,0,1-1.95,2.444,4.827,4.827,0,0,1-2.9.91,5.029,5.029,0,0,1-3.042-.988,6.44,6.44,0,0,1-2.106-2.769,10.427,10.427,0,0,1-.754-4.095,17.348,17.348,0,0,1,1.04-6.357A9.623,9.623,0,0,1,31.817-17.8,4.858,4.858,0,0,1,34.9-19.11a5.517,5.517,0,0,1,2.067.351,3.052,3.052,0,0,1,1.313.923,1.93,1.93,0,0,1,.442,1.2,1.255,1.255,0,0,1-.377.923,1.225,1.225,0,0,1-.9.377,1.243,1.243,0,0,1-.962-.481,2.081,2.081,0,0,1-.468-1.261,1.482,1.482,0,0,0-.312-.884,1.113,1.113,0,0,0-.858-.286,2.71,2.71,0,0,0-2.288,1.417,10.862,10.862,0,0,0-1.43,3.484,26.267,26.267,0,0,0-.65,4.147A5.38,5.38,0,0,1,32.4-11.128,4.729,4.729,0,0,1,34.768-11.778Zm-.7,11.154a2.4,2.4,0,0,0,1.7-.7A4.663,4.663,0,0,0,36.926-3.25a8.436,8.436,0,0,0,.416-2.73q0-2.756-1.053-3.666a3.416,3.416,0,0,0-2.275-.91,3.47,3.47,0,0,0-2.093.767A4.37,4.37,0,0,0,30.426-7.41a14.068,14.068,0,0,0,.767,4.836,2.817,2.817,0,0,0,2.873,1.95ZM51.2-11.778a4.408,4.408,0,0,1,2.6.767A4.916,4.916,0,0,1,55.464-9a6.35,6.35,0,0,1,.572,2.678,8.028,8.028,0,0,1-.689,3.328A5.947,5.947,0,0,1,53.4-.546a4.827,4.827,0,0,1-2.9.91,5.029,5.029,0,0,1-3.042-.988A6.44,6.44,0,0,1,45.35-3.393a10.427,10.427,0,0,1-.75-4.095,17.348,17.348,0,0,1,1.04-6.357A9.623,9.623,0,0,1,48.249-17.8a4.858,4.858,0,0,1,3.081-1.31,5.517,5.517,0,0,1,2.067.351,3.052,3.052,0,0,1,1.313.923,1.93,1.93,0,0,1,.442,1.2,1.255,1.255,0,0,1-.377.923,1.225,1.225,0,0,1-.9.377,1.243,1.243,0,0,1-.962-.481,2.081,2.081,0,0,1-.468-1.261,1.482,1.482,0,0,0-.312-.884,1.113,1.113,0,0,0-.858-.286,2.71,2.71,0,0,0-2.288,1.417,10.862,10.862,0,0,0-1.43,3.484A26.267,26.267,0,0,0,46.91-9.2a5.38,5.38,0,0,1,1.924-1.924,4.729,4.729,0,0,1,2.366-.654ZM50.5-.624a2.4,2.4,0,0,0,1.7-.7A4.663,4.663,0,0,0,53.358-3.25a8.436,8.436,0,0,0,.416-2.73q0-2.756-1.053-3.666a3.416,3.416,0,0,0-2.275-.91,3.47,3.47,0,0,0-2.093.767,4.37,4.37,0,0,0-1.5,2.379,14.068,14.068,0,0,0,.767,4.836A2.817,2.817,0,0,0,50.5-.624Zm27-7.164c0-2.992-1.122-4.2-3.3-4.2a4.484,4.484,0,0,0-3.652,2.156,2.8,2.8,0,0,0-2.97-2.156,4.369,4.369,0,0,0-3.564,2.134l-.066-1.826-.308-.176-3.256.7v.7l1.76.044c.066,1.144.088,2.442.088,3.982v1.26c0,1.188-.022,2.948-.044,4.224L60.51-.77V0h5.28V-.77L64.074-.946c-.022-1.276-.044-3.036-.044-4.224V-9a3.688,3.688,0,0,1,2.816-1.694c1.3,0,2.134.792,2.134,2.9V-5.17c0,1.232-.022,2.97-.044,4.224L67.264-.77V0H72.5V-.77L70.806-.946c-.022-1.276-.044-2.992-.044-4.224V-7.964a8.449,8.449,0,0,0-.066-1.1,3.871,3.871,0,0,1,2.9-1.628c1.21,0,2.09.77,2.09,3.036V-5.17c0,1.21-.022,2.97-.044,4.224l-1.69.176V0h5.324V-.77L77.538-.946c-.022-1.254-.044-3.014-.044-4.224Zm.88-5.764,1.144-.946c1.1-.9,1.716-1.562,1.716-2.42,0-.836-.594-1.5-1.738-1.5-1.012,0-1.782.462-1.892,1.408a.4.4,0,0,0,.418.286c.242,0,.484-.088.616-.616l.154-.594a2.391,2.391,0,0,1,.4-.022.944.944,0,0,1,.742.3.944.944,0,0,1,.248.759c0,.792-.462,1.3-1.254,2.156l-1.386,1.408v.66h3.938v-.88ZM93.23-11.66q.088-.11.209-.275a2.251,2.251,0,0,1,.209-.253.254.254,0,0,1,.176-.088,1.39,1.39,0,0,1,.55.319,6.321,6.321,0,0,1,.77.693q.352.374.352.528-.088.352-.55.352H89.022a22.292,22.292,0,0,0-3.3.308l-.55-1.144q1.21.132,2.926.176h1.584v-3.41H88.538a8.267,8.267,0,0,0-2.024.308l-.572-1.144q1.056.132,2.552.176h1.188a21.64,21.64,0,0,0-.22-3.432q2.112.616,2.112.924,0,.11-.176.22l-.374.242v2.046h1.364l.4-.594q.066-.088.187-.264a1.941,1.941,0,0,1,.209-.264.254.254,0,0,1,.176-.088,1.331,1.331,0,0,1,.539.319,7.5,7.5,0,0,1,.759.682q.352.363.352.517-.088.352-.55.352H91.024v3.41h1.782Zm9.592-6.028q.044-.066.143-.209a1.123,1.123,0,0,1,.176-.209.249.249,0,0,1,.165-.066q.2,0,.836.594t.638.836a1.323,1.323,0,0,1-.792.308,24.218,24.218,0,0,1-.407,3.817,3.575,3.575,0,0,1-.825,1.859,2.821,2.821,0,0,1-1.914.594,1.211,1.211,0,0,0-.352-.99,4.632,4.632,0,0,0-1.694-.484l.022-.374q.616.066,1.3.11t1.122.044a2.06,2.06,0,0,0,.429-.033.624.624,0,0,0,.253-.121q.55-.506.748-4.576h-3.1a10.194,10.194,0,0,1-1.265,4.158A8.744,8.744,0,0,1,94.6-9.218l-.308-.33a8.061,8.061,0,0,0,2.9-3.19,10.835,10.835,0,0,0,.924-3.85H97.03a7.8,7.8,0,0,0-1.936.308l-.572-1.12q1.21.132,2.926.176h5.038Zm-9.68,10.8q.066-.088.187-.275a1.742,1.742,0,0,1,.209-.275.254.254,0,0,1,.176-.088,1.265,1.265,0,0,1,.528.33,7.45,7.45,0,0,1,.737.7q.341.374.341.528-.066.352-.572.352H91.42V-.77a8.173,8.173,0,0,0,1.925.418,26.3,26.3,0,0,0,2.629.11q6.864,0,8.954-.066v.286a1.021,1.021,0,0,0-.638.385,1.456,1.456,0,0,0-.264.737h-8.1a15.059,15.059,0,0,1-3.8-.4A5.389,5.389,0,0,1,89.6-.77a8.55,8.55,0,0,1-1.771-3.146,11.6,11.6,0,0,1-2.552,5.654l-.22-.264a14.322,14.322,0,0,0,1.672-5.588,16.494,16.494,0,0,0,.11-2.156,14.307,14.307,0,0,0-.176-2.574q2.178.308,2.178.594,0,.088-.176.2l-.352.22q-.11,1.694-.352,3.168A7.041,7.041,0,0,0,90.117-1.45v-4.4a28.78,28.78,0,0,0-.286-4.51,15.458,15.458,0,0,1,1.683.561q.473.209.473.363,0,.132-.2.242l-.374.242V-6.27h1.3Zm9.064-2.42q.066-.088.231-.3t.3-.209a1.287,1.287,0,0,1,.528.308,5.747,5.747,0,0,1,.726.671q.33.363.33.517a1.006,1.006,0,0,1-.33.231,2.307,2.307,0,0,1-.55.187v1.98q.066,2.486.154,3.85a1.429,1.429,0,0,1-.55.407,1.74,1.74,0,0,1-.77.209.234.234,0,0,1-.209-.132.6.6,0,0,1-.077-.308l.088-.528v-.506H97.25v.44q.022.242.033.451a1.769,1.769,0,0,0,.033.3q-.044.2-.429.385a1.771,1.771,0,0,1-.781.187.3.3,0,0,1-.253-.132.5.5,0,0,1-.1-.308q.088-.924.132-2.332V-5.324a28.789,28.789,0,0,0-.264-4.268L97.36-8.8h4.488ZM97.25-8.162v4.6h4.818v-4.6Z" transform="translate(149.882 180.11)" fill="#333"/>
            </g>
            <path id="パス_139" data-name="パス 139" d="M3.876,1.212a.149.149,0,0,1-.108-.048A8.157,8.157,0,0,1,1.842-1.344,7,7,0,0,1,1.08-4.56a7,7,0,0,1,.762-3.216,8.157,8.157,0,0,1,1.926-2.508.149.149,0,0,1,.108-.048.139.139,0,0,1,.1.042.126.126,0,0,1,.042.09.115.115,0,0,1-.036.084,6.921,6.921,0,0,0-1.3,2.46,10.3,10.3,0,0,0-.462,3.1,10.3,10.3,0,0,0,.462,3.1A6.921,6.921,0,0,0,3.984,1a.115.115,0,0,1,.036.084.12.12,0,0,1-.042.1A.151.151,0,0,1,3.876,1.212ZM14.472-6.4A8.631,8.631,0,0,0,17.04-4.812L17-4.692a.789.789,0,0,0-.444.186.978.978,0,0,0-.288.438A8.523,8.523,0,0,1,13.5-6.438a9.66,9.66,0,0,1-1.656-3.51l.192-.12a7.555,7.555,0,0,0,1.1,2.2,9.123,9.123,0,0,0,.8-.924,5.214,5.214,0,0,0,.576-.912q.936.624.936.756,0,.06-.12.06l-.216.012a9.352,9.352,0,0,1-.822.612q-.5.336-1,.624A8.51,8.51,0,0,0,14.244-6.6a7.271,7.271,0,0,0,.858-.888,5.117,5.117,0,0,0,.63-.936q.936.648.936.792,0,.06-.12.06l-.216.012q-.324.252-.84.576T14.472-6.4ZM9.42-6.252a9.743,9.743,0,0,1-3.2,2.328L6.084-4.1A9.882,9.882,0,0,0,8.712-6.4l-.084.012a.607.607,0,0,1-.288-.1,2.156,2.156,0,0,0-.492-.846,4.157,4.157,0,0,0-.816-.726l.1-.12a3.835,3.835,0,0,1,1.11.366,1.747,1.747,0,0,1,.612.5.834.834,0,0,1,.174.51,9.25,9.25,0,0,0,1.164-2.076H9.324A9.539,9.539,0,0,0,7.74-8.7l-.324-.624q.66.072,1.6.1h1.2l.228-.24q.036-.036.132-.138a.264.264,0,0,1,.18-.1q.108,0,.456.33t.348.462a.356.356,0,0,1-.168.1,2.624,2.624,0,0,1-.3.048,10.013,10.013,0,0,1-1.6,2.448q.66.06,1.488.084h1.26l.216-.312.1-.138a1.227,1.227,0,0,1,.114-.138.138.138,0,0,1,.1-.048.7.7,0,0,1,.288.168,3.847,3.847,0,0,1,.4.36q.186.192.186.276-.048.192-.3.192h-2.52A4.817,4.817,0,0,0,9.7-5.712Zm5.6,1.74a.794.794,0,0,1-.444.2v.732l.012.444q.012.492.048.948a.567.567,0,0,1-.282.2,1.058,1.058,0,0,1-.414.1h-.12v-.468H9.264v.372q0,.06-.21.156a1.042,1.042,0,0,1-.438.1A.128.128,0,0,1,8.5-1.8a.327.327,0,0,1-.042-.168q.036-.324.048-.612l.012-.288v-.576a12.157,12.157,0,0,0-.108-1.764l.912.444h4.392l.18-.264.09-.12a.69.69,0,0,1,.1-.108.136.136,0,0,1,.09-.036.678.678,0,0,1,.282.162,3.611,3.611,0,0,1,.39.348Q15.024-4.6,15.024-4.512ZM9.264-2.7h4.56V-4.416H9.264ZM15.732-.48a.862.862,0,0,1,.324.2,5.3,5.3,0,0,1,.474.42q.222.222.222.306Q16.7.636,16.44.636H8.448A12.159,12.159,0,0,0,6.648.8L6.336.192q.66.072,1.6.1H12.2a9.271,9.271,0,0,0,.414-1.206,6.17,6.17,0,0,0,.21-1.1Q14-1.6,14-1.44q0,.036-.108.084l-.2.072A13.509,13.509,0,0,1,12.528.288h2.58L15.372-.1l.12-.162a1.552,1.552,0,0,1,.138-.168A.151.151,0,0,1,15.732-.48Zm-6.4-1.392a2.649,2.649,0,0,1,1.014.714,1.264,1.264,0,0,1,.318.774.631.631,0,0,1-.12.4.365.365,0,0,1-.3.156A.5.5,0,0,1,9.912.012a2.671,2.671,0,0,0-.222-.93A4.084,4.084,0,0,0,9.2-1.8Zm14.58.54Q22.128-.36,20.256.54a.414.414,0,0,1-.228.3l-.6-.936q.636-.156,1.884-.564V-4.344h-.576a3.628,3.628,0,0,0-.984.168l-.312-.612a12.61,12.61,0,0,0,1.272.1h.6V-6.228H21a1.106,1.106,0,0,0-.5.168L20.22-6.6a6.346,6.346,0,0,1-.852.876l-.156-.132a9.7,9.7,0,0,0,1.2-1.956,8.258,8.258,0,0,0,.48-1.194,5.641,5.641,0,0,0,.252-1.122l1.236.48a.221.221,0,0,1-.114.156.833.833,0,0,1-.318.06,4.566,4.566,0,0,1,1.476.9,1.313,1.313,0,0,1,.456.864.449.449,0,0,1-.108.312.33.33,0,0,1-.252.12.465.465,0,0,1-.276-.108,4.891,4.891,0,0,0-.546-.924,6.994,6.994,0,0,0-.846-.96,11.436,11.436,0,0,1-1.584,2.58q.576.06,1.32.084h.648l.2-.312q.036-.048.1-.138a1.381,1.381,0,0,1,.1-.138.12.12,0,0,1,.09-.048q.12,0,.474.324t.354.456q-.048.192-.3.192H22v1.536h.6l.216-.324q.036-.06.1-.15t.108-.138a.12.12,0,0,1,.09-.048q.108,0,.474.348t.366.48q-.048.18-.3.18H22V-.888l1.356-.456.492-.168ZM27.972-2.82a5.026,5.026,0,0,0,.942,1.254,6.847,6.847,0,0,0,1.23.93l-.024.12a.678.678,0,0,0-.36.228,1.244,1.244,0,0,0-.24.444,6.327,6.327,0,0,1-1.494-1.83,8.916,8.916,0,0,1-.858-2.718V-.216a1.312,1.312,0,0,1-.2.8,1.213,1.213,0,0,1-.852.342A.8.8,0,0,0,25.92.372,1.413,1.413,0,0,0,25.152.1v-.18q.888.06,1.056.06a.255.255,0,0,0,.18-.048.234.234,0,0,0,.048-.168V-2.52l-.48.492q-1.3,1.3-1.764,1.74v.036a.435.435,0,0,1-.042.186.377.377,0,0,1-.1.138L23.34-.7q.432-.264,1.314-.858t1.782-1.23v-2.7h-.864a9.1,9.1,0,0,0-1.56.168L23.7-5.928q.66.072,1.6.1h2.736V-7.248H26.748a12.159,12.159,0,0,0-1.8.168l-.324-.612q.66.072,1.6.1h1.812V-8.952H26.46a12.159,12.159,0,0,0-1.8.168l-.324-.624q.66.072,1.6.1h1.992l.18-.216q.024-.024.1-.12a.215.215,0,0,1,.162-.1,1.113,1.113,0,0,1,.468.276q.348.276.348.408a.553.553,0,0,1-.18.132.934.934,0,0,1-.252.084v3.012h.1l.192-.324q.036-.048.1-.138a1.381,1.381,0,0,1,.1-.138.12.12,0,0,1,.09-.048q.108,0,.444.342t.336.474q-.036.18-.288.18H27.168v.264a7.685,7.685,0,0,0,.684,2.2,11.4,11.4,0,0,0,.69-1.038A4.841,4.841,0,0,0,29-5.04q.516.312.726.468t.21.228q0,.048-.12.072l-.216.024q-.3.312-.75.708T27.972-2.82ZM25.764-3.3a.484.484,0,0,1-.1.312.3.3,0,0,1-.24.12.5.5,0,0,1-.3-.12,3.1,3.1,0,0,0-.378-.882,6.475,6.475,0,0,0-.606-.87l.144-.084a3.119,3.119,0,0,1,1.116.756A1.236,1.236,0,0,1,25.764-3.3ZM22.356-1.416v-.012a10.189,10.189,0,0,0,.2-1.242,9.508,9.508,0,0,0,.06-1.206l.672.252q.456.084.456.192,0,.06-.132.12l-.192.1a11.186,11.186,0,0,1-.864,1.884Zm-1.9.324a.363.363,0,0,1-.276-.168,3.2,3.2,0,0,0,.012-.324,5.756,5.756,0,0,0-.1-1.044,7.588,7.588,0,0,0-.258-1.02L20-3.684a3.477,3.477,0,0,1,.648.984,2.35,2.35,0,0,1,.2.888,1.048,1.048,0,0,1-.114.516A.329.329,0,0,1,20.46-1.092Zm20.952-7.2a1.364,1.364,0,0,0,.114-.144q.078-.108.15-.108a.787.787,0,0,1,.3.156,3.2,3.2,0,0,1,.42.342q.192.186.192.27a.849.849,0,0,1-.48.24v2.472q.024,1.488.1,2.82a.863.863,0,0,1-.33.216,1.091,1.091,0,0,1-.426.108.137.137,0,0,1-.126-.072.327.327,0,0,1-.042-.168l.048-.336v-.288H38.316v1.14q.036,1.428.084,2.2a.7.7,0,0,1-.288.27.832.832,0,0,1-.42.126.244.244,0,0,1-.18-.072A.23.23,0,0,1,37.44.708q.072-1.116.1-2.244V-2.784H34.584v.252q.012.144.018.264a1,1,0,0,0,.018.168q-.024.12-.234.228a.946.946,0,0,1-.438.108.23.23,0,0,1-.168-.072A.23.23,0,0,1,33.708-2q.084-1.176.108-2.616V-6.048a15.7,15.7,0,0,0-.156-2.46l.984.456h2.892a12.611,12.611,0,0,0-.132-2.064,7.187,7.187,0,0,1,.942.318q.27.126.27.21,0,.06-.1.12l-.2.132v1.284h2.916ZM37.536-5.6V-7.692H34.584V-5.6Zm3.792,0V-7.692H38.316V-5.6Zm-6.744.336v2.124h2.952V-5.268Zm3.732,0v2.124h3.012V-5.268Zm13.572-3.96q.252-.4.408-.684l1.08.888a1.2,1.2,0,0,1-.852.288q.78,5.1,4,6.792l-.036.132a1,1,0,0,0-.432.234,1.106,1.106,0,0,0-.288.414,6.728,6.728,0,0,1-1.92-2.028,10.524,10.524,0,0,1-1.176-2.88,9.772,9.772,0,0,1-1.59,2.814A9.593,9.593,0,0,1,48.648-1.1l-.144-.18a9.333,9.333,0,0,0,2.412-2.808A11.883,11.883,0,0,0,52.3-7.98q-.048-.312-.12-.9H51.4A7.177,7.177,0,0,0,50-8.712l-.312-.612q.612.072,1.488.1ZM46.4-9.684A3.844,3.844,0,0,1,48.03-8.8a1.526,1.526,0,0,1,.522,1.008.557.557,0,0,1-.108.354.336.336,0,0,1-.276.138.561.561,0,0,1-.324-.12,3.837,3.837,0,0,0-.606-1.128A6.524,6.524,0,0,0,46.3-9.588Zm1.26,4.4q.036-.06.09-.156a.886.886,0,0,1,.1-.144.12.12,0,0,1,.09-.048.8.8,0,0,1,.312.2A4.533,4.533,0,0,1,48.7-5q.21.228.21.312a.931.931,0,0,1-.552.216v3.228a2.742,2.742,0,0,0,.852.714A3.248,3.248,0,0,0,50.3-.222a14.673,14.673,0,0,0,1.7.078q3.168,0,4.548-.048v.168a.671.671,0,0,0-.576.66H52.02A9.779,9.779,0,0,1,50.232.5,2.837,2.837,0,0,1,49.068.018,3.48,3.48,0,0,1,48.18-1.02q-.348.4-.846.876t-.846.768L46.5.7a.255.255,0,0,1-.144.228L45.828-.1q.744-.348,1.8-.948v-3.54h-.564a3.9,3.9,0,0,0-1.008.168l-.288-.624a10.415,10.415,0,0,0,1.152.1h.552ZM60.6-5.688A11.085,11.085,0,0,1,59.124-3.84l-.168-.12a17.259,17.259,0,0,0,1.9-3.624,11.518,11.518,0,0,0,.432-1.326,8.186,8.186,0,0,0,.252-1.242q1.224.384,1.224.552,0,.048-.108.084l-.228.084a18.753,18.753,0,0,1-1.392,3.048q.588.384.588.54,0,.072-.1.108l-.18.072v3.456q.024,1.488.1,2.82a1.386,1.386,0,0,1-.3.216.8.8,0,0,1-.4.108.287.287,0,0,1-.192-.072A.216.216,0,0,1,60.468.7q.048-.708.084-1.374T60.6-2.424Zm3.636-4.26a4.862,4.862,0,0,1,1.32.54,2.427,2.427,0,0,1,.744.666,1.159,1.159,0,0,1,.228.63.465.465,0,0,1-.1.312.324.324,0,0,1-.258.12.507.507,0,0,1-.276-.084,3.669,3.669,0,0,0-.708-1.086,6.984,6.984,0,0,0-1.068-.99Zm3.708,5.676.114-.15a1.6,1.6,0,0,1,.126-.15.138.138,0,0,1,.1-.048.783.783,0,0,1,.306.18,4.49,4.49,0,0,1,.438.384q.2.2.2.288-.036.192-.3.192h-2.94V.048h2.124l.264-.384Q68.424-.4,68.5-.5t.126-.162a.133.133,0,0,1,.1-.054.9.9,0,0,1,.33.2A4.939,4.939,0,0,1,69.54-.1q.228.228.228.312-.048.192-.3.192H63.852a12.159,12.159,0,0,0-1.8.168l-.3-.624q.66.072,1.6.1h1.86V-3.576h-.9a9.915,9.915,0,0,0-1.632.168l-.3-.612q.66.072,1.6.1h1.236V-6.972H64.116a12.159,12.159,0,0,0-1.8.168l-.3-.612q.66.072,1.6.1h4.3l.252-.36q.06-.072.12-.156a1.64,1.64,0,0,1,.12-.15.162.162,0,0,1,.108-.066.842.842,0,0,1,.318.186,4.436,4.436,0,0,1,.462.4q.216.216.216.3-.048.192-.312.192h-3.2v3.048H67.7ZM74.568-8.7a12.16,12.16,0,0,0-1.8.168l-.324-.624q.66.072,1.6.1h6.972l.264-.372q.048-.06.126-.162a1.62,1.62,0,0,1,.132-.156.151.151,0,0,1,.1-.054.9.9,0,0,1,.33.192,4.352,4.352,0,0,1,.48.414q.222.222.222.306-.036.192-.3.192Zm0,5.088a7.754,7.754,0,0,1-.624,2.538A5.04,5.04,0,0,1,72.276.948L72.132.816a5.806,5.806,0,0,0,1.356-2.484,12.587,12.587,0,0,0,.348-3.1V-6.12a9.73,9.73,0,0,0-.084-1.416l1.008.48h5.748l.18-.24q.036-.036.12-.138a.224.224,0,0,1,.156-.1.8.8,0,0,1,.3.15,3.118,3.118,0,0,1,.42.33q.192.18.192.264a.888.888,0,0,1-.48.252v1.164q.036,1.464.084,2.256a.742.742,0,0,1-.318.216,1.091,1.091,0,0,1-.426.108.137.137,0,0,1-.126-.072.327.327,0,0,1-.042-.168q0-.024.048-.3v-.276Zm.048-1.164q0,.528-.024.8h6.024V-6.7h-6Zm10.62,5.988a.151.151,0,0,1-.1-.036.12.12,0,0,1-.042-.1A.115.115,0,0,1,85.128,1a6.921,6.921,0,0,0,1.3-2.46,10.3,10.3,0,0,0,.462-3.1,10.3,10.3,0,0,0-.462-3.1,6.921,6.921,0,0,0-1.3-2.46.115.115,0,0,1-.036-.084.126.126,0,0,1,.042-.09.139.139,0,0,1,.1-.042.149.149,0,0,1,.108.048A8.157,8.157,0,0,1,87.27-7.776a7,7,0,0,1,.762,3.216,7,7,0,0,1-.762,3.216,8.157,8.157,0,0,1-1.926,2.508A.149.149,0,0,1,85.236,1.212Z" transform="translate(445.397 189.783)" fill="#333"/>
          </g>
        </g>
      </g>
      <path id="パス_1700" data-name="パス 1700" d="M-33.09-9.192l.36.36L-37-4.56l4.27,4.272-.36.36L-37.362-4.2-41.634.072l-.36-.36,4.272-4.272-4.272-4.272.36-.36,4.272,4.272Zm-4.272,2.316a1.006,1.006,0,0,1-.738-.306,1.006,1.006,0,0,1-.306-.738,1.006,1.006,0,0,1,.306-.738,1.006,1.006,0,0,1,.738-.306,1.006,1.006,0,0,1,.738.306,1.006,1.006,0,0,1,.306.738,1.006,1.006,0,0,1-.306.738,1.006,1.006,0,0,1-.738.306ZM-39.678-4.56a1.006,1.006,0,0,1-.306.738,1.006,1.006,0,0,1-.738.306,1.006,1.006,0,0,1-.738-.306,1.006,1.006,0,0,1-.306-.738,1.006,1.006,0,0,1,.306-.74,1.006,1.006,0,0,1,.738-.306,1.006,1.006,0,0,1,.738.306,1.006,1.006,0,0,1,.306.74Zm4.632,0a1.006,1.006,0,0,1,.306-.74A1.006,1.006,0,0,1-34-5.6a1.006,1.006,0,0,1,.738.306,1.006,1.006,0,0,1,.306.738,1.006,1.006,0,0,1-.306.738,1.006,1.006,0,0,1-.738.3,1.006,1.006,0,0,1-.738-.306,1.006,1.006,0,0,1-.308-.738Zm-2.316,2.316a1.006,1.006,0,0,1,.738.306,1.006,1.006,0,0,1,.306.738,1.006,1.006,0,0,1-.306.738,1.006,1.006,0,0,1-.738.306A1.006,1.006,0,0,1-38.1-.462a1.006,1.006,0,0,1-.306-.738,1.006,1.006,0,0,1,.306-.738A1.006,1.006,0,0,1-37.362-2.244ZM-29.082,0q-.084,0-.084-.168t.084-.18h.192a2.129,2.129,0,0,0,.948-.18.593.593,0,0,0,.36-.564V-6.84a1.191,1.191,0,0,0-.066-.486.4.4,0,0,0-.312-.168,6.517,6.517,0,0,0-.918-.042h-.2q-.084,0-.084-.18t.084-.168a3.788,3.788,0,0,0,1.344-.222,3.407,3.407,0,0,0,1.116-.714v7.728q0,.744,1.308.744h.18a.066.066,0,0,1,.066.042.38.38,0,0,1,.018.138q0,.168-.084.168Zm9.072.168a1.882,1.882,0,0,1-1.254-.5A3.476,3.476,0,0,1-22.2-1.848a7.473,7.473,0,0,1-.354-2.46,7.466,7.466,0,0,1,.36-2.472,3.567,3.567,0,0,1,.942-1.53,1.884,1.884,0,0,1,1.266-.51,1.87,1.87,0,0,1,1.254.51A3.523,3.523,0,0,1-17.8-6.78a7.583,7.583,0,0,1,.354,2.472,7.359,7.359,0,0,1-.36,2.46,3.519,3.519,0,0,1-.942,1.512,1.9,1.9,0,0,1-1.262.5Zm.024-.408q.7,0,1.1-1.014a8.761,8.761,0,0,0,.4-3.054,8.869,8.869,0,0,0-.4-3.066q-.4-1.026-1.1-1.026T-21.1-7.374a8.748,8.748,0,0,0-.408,3.066A8.642,8.642,0,0,0-21.1-1.254Q-20.694-.24-19.986-.24Zm7.416.408a1.882,1.882,0,0,1-1.254-.5,3.476,3.476,0,0,1-.936-1.512,7.473,7.473,0,0,1-.354-2.46,7.466,7.466,0,0,1,.36-2.472,3.567,3.567,0,0,1,.942-1.53,1.884,1.884,0,0,1,1.266-.51,1.87,1.87,0,0,1,1.254.51,3.523,3.523,0,0,1,.936,1.53A7.583,7.583,0,0,1-10-4.308a7.359,7.359,0,0,1-.36,2.46A3.519,3.519,0,0,1-11.3-.336a1.9,1.9,0,0,1-1.27.5Zm.024-.408q.7,0,1.1-1.014a8.761,8.761,0,0,0,.4-3.054,8.869,8.869,0,0,0-.4-3.066q-.4-1.026-1.1-1.026t-1.116,1.026a8.748,8.748,0,0,0-.408,3.066,8.642,8.642,0,0,0,.408,3.054Q-13.254-.24-12.546-.24ZM.462-6l.1-.132a.892.892,0,0,1,.108-.12.136.136,0,0,1,.09-.036q.108,0,.468.354t.36.486a.805.805,0,0,1-.492.18,27.547,27.547,0,0,1-.39,3.624A4,4,0,0,1-.006.288a1.98,1.98,0,0,1-1.4.48A.64.64,0,0,0-1.662.192a1.74,1.74,0,0,0-.522-.2q-.39-.1-.846-.174L-3.018-.4q.528.06,1.152.114t.828.054A.936.936,0,0,0-.75-.264a.731.731,0,0,0,.216-.12A3.344,3.344,0,0,0,.012-2.028,29.939,29.939,0,0,0,.354-5.364H-3.174a9.907,9.907,0,0,1-1.248,3.51A8.8,8.8,0,0,1-7.278.972l-.168-.2a8.708,8.708,0,0,0,2.382-2.76,9.443,9.443,0,0,0,1.008-2.95A25.785,25.785,0,0,0-3.8-8.328H-5.43a12.159,12.159,0,0,0-1.8.168l-.324-.6q.66.072,1.6.1h7.3l.264-.384.12-.162a1.552,1.552,0,0,1,.138-.168.151.151,0,0,1,.1-.054.862.862,0,0,1,.324.2,5.3,5.3,0,0,1,.474.42q.222.222.222.306-.012.18-.3.18H-2.934a23.376,23.376,0,0,1-.192,2.616H.246ZM7.314-2.28q.024,1.488.1,2.82A.745.745,0,0,1,7.128.8.84.84,0,0,1,6.7.912.287.287,0,0,1,6.51.84.216.216,0,0,1,6.426.672Q6.474-.036,6.51-.7t.048-1.746v-4.56A15.7,15.7,0,0,0,6.4-9.468L7.374-9h7.188l.168-.252q.036-.048.108-.15t.144-.1a.811.811,0,0,1,.306.162,4.182,4.182,0,0,1,.438.348q.2.186.2.27a.9.9,0,0,1-.2.144.881.881,0,0,1-.3.1V-.3a1.447,1.447,0,0,1-.1.57.786.786,0,0,1-.4.372,2.641,2.641,0,0,1-.876.21.928.928,0,0,0-.1-.336A.543.543,0,0,0,13.734.3a3.335,3.335,0,0,0-1.212-.312V-.2q1.524.12,1.8.12a.4.4,0,0,0,.27-.072A.315.315,0,0,0,14.67-.4V-4.344H7.314Zm3.252-6.36H7.314v3.96h3.252Zm.768,0v3.96H14.67V-8.64Zm15.924.864q.036-.048.09-.132a.563.563,0,0,1,.1-.12.136.136,0,0,1,.09-.036.734.734,0,0,1,.294.168,3.245,3.245,0,0,1,.408.366q.186.2.186.282a.849.849,0,0,1-.48.24v1.32q.036,1.644.084,2.568a.778.778,0,0,1-.312.222,1.006,1.006,0,0,1-.42.114H27.19v-.5H24.55V-1.82H27.8l.276-.384q.06-.072.126-.162a1.92,1.92,0,0,1,.132-.162.177.177,0,0,1,.114-.072.924.924,0,0,1,.336.2,5.134,5.134,0,0,1,.492.432q.228.228.228.312-.036.18-.3.18H24.546v.72l.012.444q.012.492.048.936a.486.486,0,0,1-.246.222,1.024,1.024,0,0,1-.474.1.166.166,0,0,1-.138-.072.272.272,0,0,1-.054-.168q.048-.552.072-1.368v-.816h-2.94a12.159,12.159,0,0,0-1.8.168l-.3-.612q.66.072,1.6.1H23.77V-3.288H21.13v.336q0,.072-.2.174a.929.929,0,0,1-.42.1.193.193,0,0,1-.156-.072.254.254,0,0,1-.06-.168q.048-.6.084-1.632V-5.5a15.7,15.7,0,0,0-.156-2.46l.972.456h4.3l.264-.384a10.3,10.3,0,0,0,.636-1.164,6.374,6.374,0,0,0,.432-1.14q1.128.6,1.128.744,0,.048-.12.072l-.228.036a11.157,11.157,0,0,1-.864,1,9.656,9.656,0,0,1-.924.84h1.26Zm-4.176-2.292a3.126,3.126,0,0,1,1.164.768,1.3,1.3,0,0,1,.372.828.577.577,0,0,1-.108.366.336.336,0,0,1-.276.138.507.507,0,0,1-.324-.144,2.94,2.94,0,0,0-.336-.966,4.411,4.411,0,0,0-.624-.906Zm-2.724.156a3.118,3.118,0,0,1,1.3.72,1.247,1.247,0,0,1,.414.84.533.533,0,0,1-.1.336.324.324,0,0,1-.27.132.479.479,0,0,1-.288-.108,3.14,3.14,0,0,0-.45-.948,4.549,4.549,0,0,0-.726-.864Zm3.408,4.32V-7.164h-2.64v1.572Zm3.42,0V-7.164h-2.64v1.572Zm-6.06.348v1.62h2.64v-1.62Zm3.42,0v1.62h2.64v-1.62ZM33.594-5.8a11.006,11.006,0,0,1-1.452,1.872l-.156-.12a16.681,16.681,0,0,0,1.8-3.552,11.113,11.113,0,0,0,.42-1.326,7.42,7.42,0,0,0,.228-1.23q1.212.384,1.212.552,0,.048-.108.084l-.216.072a21.14,21.14,0,0,1-1.092,2.56q.384.3.384.444,0,.06-.108.12l-.168.084v4.02q.024,1.488.1,2.82a.893.893,0,0,1-.288.216.865.865,0,0,1-.408.108A.287.287,0,0,1,33.55.852a.216.216,0,0,1-.084-.168q.048-.708.084-1.374t.05-1.746ZM41.13-7.78q.036-.048.108-.15a1.228,1.228,0,0,1,.126-.156.151.151,0,0,1,.1-.054.809.809,0,0,1,.312.186,4.3,4.3,0,0,1,.45.4q.21.216.21.3-.048.192-.3.192H37.23a12.159,12.159,0,0,0-1.8.168l-.312-.624q.66.072,1.6.1h1.5V-7.61a15.7,15.7,0,0,0-.156-2.46q1.236.336,1.236.5,0,.06-.108.12l-.216.132v1.9h1.908Zm.216,7.44q.06-.072.12-.156a1.642,1.642,0,0,1,.12-.15.162.162,0,0,1,.108-.066.835.835,0,0,1,.318.192,5.022,5.022,0,0,1,.462.408q.216.216.216.3Q42.654.38,42.4.38H36.9a12.159,12.159,0,0,0-1.8.168L34.818-.06q.66.072,1.6.1H38.95q.54-1.944.948-4.092A12.947,12.947,0,0,0,40.15-6.44q.732.168,1.026.27t.29.17q0,.048-.108.108l-.2.108q-.324,1.32-.858,2.916T39.19.032H41.1Zm-5-5.916a9.3,9.3,0,0,1,1.17,2.226,5.89,5.89,0,0,1,.366,1.89,2.287,2.287,0,0,1-.15.906q-.15.342-.354.342-.156,0-.3-.216a20.978,20.978,0,0,0-.228-2.628,8.918,8.918,0,0,0-.684-2.436Z" transform="translate(585.477 1952.767)" fill="#333"/>
    </g>
  </g>
</svg>
