<svg xmlns="http://www.w3.org/2000/svg" xmlns:xlink="http://www.w3.org/1999/xlink" width="500" height="280" viewBox="0 0 500 280">
  <defs>
    <clipPath id="clip-path">
      <rect id="長方形_13" data-name="長方形 13" width="500" height="280"/>
    </clipPath>
  </defs>
  <g id="price" transform="translate(-300 -1777)">
    <g id="price-2" data-name="price" transform="translate(300 1777)" clip-path="url(#clip-path)">
      <rect id="長方形_12" data-name="長方形 12" width="500" height="280" fill="#fff"/>
      <g id="グループ_277" data-name="グループ 277" transform="translate(-9.046 -7.233)">
        <path id="パス_1700" data-name="パス 1700" d="M-33.09-9.192l.36.36L-37-4.56l4.27,4.272-.36.36L-37.362-4.2-41.634.072l-.36-.36,4.272-4.272-4.272-4.272.36-.36,4.272,4.272Zm-4.272,2.316a1.006,1.006,0,0,1-.738-.306,1.006,1.006,0,0,1-.306-.738,1.006,1.006,0,0,1,.306-.738,1.006,1.006,0,0,1,.738-.306,1.006,1.006,0,0,1,.738.306,1.006,1.006,0,0,1,.306.738,1.006,1.006,0,0,1-.306.738,1.006,1.006,0,0,1-.738.306ZM-39.678-4.56a1.006,1.006,0,0,1-.306.738,1.006,1.006,0,0,1-.738.306,1.006,1.006,0,0,1-.738-.306,1.006,1.006,0,0,1-.306-.738,1.006,1.006,0,0,1,.306-.74,1.006,1.006,0,0,1,.738-.306,1.006,1.006,0,0,1,.738.306,1.006,1.006,0,0,1,.306.74Zm4.632,0a1.006,1.006,0,0,1,.306-.74A1.006,1.006,0,0,1-34-5.6a1.006,1.006,0,0,1,.738.306,1.006,1.006,0,0,1,.306.738,1.006,1.006,0,0,1-.306.738,1.006,1.006,0,0,1-.738.3,1.006,1.006,0,0,1-.738-.306,1.006,1.006,0,0,1-.308-.738Zm-2.316,2.316a1.006,1.006,0,0,1,.738.306,1.006,1.006,0,0,1,.306.738,1.006,1.006,0,0,1-.306.738,1.006,1.006,0,0,1-.738.306A1.006,1.006,0,0,1-38.1-.462a1.006,1.006,0,0,1-.306-.738,1.006,1.006,0,0,1,.306-.738A1.006,1.006,0,0,1-37.362-2.244ZM-29.082,0q-.084,0-.084-.168t.084-.18h.192a2.129,2.129,0,0,0,.948-.18.593.593,0,0,0,.36-.564V-6.84a1.191,1.191,0,0,0-.066-.486.4.4,0,0,0-.312-.168,6.517,6.517,0,0,0-.918-.042h-.2q-.084,0-.084-.18t.084-.168a3.788,3.788,0,0,0,1.344-.222,3.407,3.407,0,0,0,1.116-.714v7.728q0,.744,1.308.744h.18a.066.066,0,0,1,.066.042.38.38,0,0,1,.018.138q0,.168-.084.168Zm9.072.168a1.882,1.882,0,0,1-1.254-.5A3.476,3.476,0,0,1-22.2-1.848a7.473,7.473,0,0,1-.354-2.46,7.466,7.466,0,0,1,.36-2.472,3.567,3.567,0,0,1,.942-1.53,1.884,1.884,0,0,1,1.266-.51,1.87,1.87,0,0,1,1.254.51A3.523,3.523,0,0,1-17.8-6.78a7.583,7.583,0,0,1,.354,2.472,7.359,7.359,0,0,1-.36,2.46,3.519,3.519,0,0,1-.942,1.512,1.9,1.9,0,0,1-1.262.5Zm.024-.408q.7,0,1.1-1.014a8.761,8.761,0,0,0,.4-3.054,8.869,8.869,0,0,0-.4-3.066q-.4-1.026-1.1-1.026T-21.1-7.374a8.748,8.748,0,0,0-.408,3.066A8.642,8.642,0,0,0-21.1-1.254Q-20.694-.24-19.986-.24Zm7.416.408a1.882,1.882,0,0,1-1.254-.5,3.476,3.476,0,0,1-.936-1.512,7.473,7.473,0,0,1-.354-2.46,7.466,7.466,0,0,1,.36-2.472,3.567,3.567,0,0,1,.942-1.53,1.884,1.884,0,0,1,1.266-.51,1.87,1.87,0,0,1,1.254.51,3.523,3.523,0,0,1,.936,1.53A7.583,7.583,0,0,1-10-4.308a7.359,7.359,0,0,1-.36,2.46A3.519,3.519,0,0,1-11.3-.336a1.9,1.9,0,0,1-1.27.5Zm.024-.408q.7,0,1.1-1.014a8.761,8.761,0,0,0,.4-3.054,8.869,8.869,0,0,0-.4-3.066q-.4-1.026-1.1-1.026t-1.116,1.026a8.748,8.748,0,0,0-.408,3.066,8.642,8.642,0,0,0,.408,3.054Q-13.254-.24-12.546-.24ZM.462-6l.1-.132a.892.892,0,0,1,.108-.12.136.136,0,0,1,.09-.036q.108,0,.468.354t.36.486a.805.805,0,0,1-.492.18,27.547,27.547,0,0,1-.39,3.624A4,4,0,0,1-.006.288a1.98,1.98,0,0,1-1.4.48A.64.64,0,0,0-1.662.192a1.74,1.74,0,0,0-.522-.2q-.39-.1-.846-.174L-3.018-.4q.528.06,1.152.114t.828.054A.936.936,0,0,0-.75-.264a.731.731,0,0,0,.216-.12A3.344,3.344,0,0,0,.012-2.028,29.94,29.94,0,0,0,.354-5.364H-3.174a9.907,9.907,0,0,1-1.248,3.51A8.8,8.8,0,0,1-7.278.972l-.168-.2a8.708,8.708,0,0,0,2.382-2.76,9.443,9.443,0,0,0,1.008-2.95A25.785,25.785,0,0,0-3.8-8.328H-5.43a12.159,12.159,0,0,0-1.8.168l-.324-.6q.66.072,1.6.1h7.3l.264-.384.12-.162a1.552,1.552,0,0,1,.138-.168.151.151,0,0,1,.1-.054.862.862,0,0,1,.324.2,5.3,5.3,0,0,1,.474.42q.222.222.222.306-.012.18-.3.18H-2.934a23.376,23.376,0,0,1-.192,2.616H.246ZM7.314-2.28q.024,1.488.1,2.82A.745.745,0,0,1,7.128.8.84.84,0,0,1,6.7.912.287.287,0,0,1,6.51.84.216.216,0,0,1,6.426.672Q6.474-.036,6.51-.7t.048-1.746v-4.56A15.7,15.7,0,0,0,6.4-9.468L7.374-9h7.188l.168-.252q.036-.048.108-.15t.144-.1a.811.811,0,0,1,.306.162,4.182,4.182,0,0,1,.438.348q.2.186.2.27a.9.9,0,0,1-.2.144.881.881,0,0,1-.3.1V-.3a1.447,1.447,0,0,1-.1.57.786.786,0,0,1-.4.372,2.641,2.641,0,0,1-.876.21.928.928,0,0,0-.1-.336A.543.543,0,0,0,13.734.3a3.335,3.335,0,0,0-1.212-.312V-.2q1.524.12,1.8.12a.4.4,0,0,0,.27-.072A.315.315,0,0,0,14.67-.4V-4.344H7.314Zm3.252-6.36H7.314v3.96h3.252Zm.768,0v3.96H14.67V-8.64Zm15.924.864q.036-.048.09-.132a.563.563,0,0,1,.1-.12.136.136,0,0,1,.09-.036.734.734,0,0,1,.294.168,3.245,3.245,0,0,1,.408.366q.186.2.186.282a.849.849,0,0,1-.48.24v1.32q.036,1.644.084,2.568a.778.778,0,0,1-.312.222,1.006,1.006,0,0,1-.42.114H27.19v-.5H24.55V-1.82H27.8l.276-.384q.06-.072.126-.162a1.92,1.92,0,0,1,.132-.162.177.177,0,0,1,.114-.072.924.924,0,0,1,.336.2,5.134,5.134,0,0,1,.492.432q.228.228.228.312-.036.18-.3.18H24.546v.72l.012.444q.012.492.048.936a.486.486,0,0,1-.246.222,1.024,1.024,0,0,1-.474.1.166.166,0,0,1-.138-.072.272.272,0,0,1-.054-.168q.048-.552.072-1.368v-.816h-2.94a12.159,12.159,0,0,0-1.8.168l-.3-.612q.66.072,1.6.1H23.77V-3.288H21.13v.336q0,.072-.2.174a.929.929,0,0,1-.42.1.193.193,0,0,1-.156-.072.254.254,0,0,1-.06-.168q.048-.6.084-1.632V-5.5a15.7,15.7,0,0,0-.156-2.46l.972.456h4.3l.264-.384a10.3,10.3,0,0,0,.636-1.164,6.374,6.374,0,0,0,.432-1.14q1.128.6,1.128.744,0,.048-.12.072l-.228.036a11.157,11.157,0,0,1-.864,1,9.656,9.656,0,0,1-.924.84h1.26Zm-4.176-2.292a3.126,3.126,0,0,1,1.164.768,1.3,1.3,0,0,1,.372.828.577.577,0,0,1-.108.366.336.336,0,0,1-.276.138.507.507,0,0,1-.324-.144,2.94,2.94,0,0,0-.336-.966,4.411,4.411,0,0,0-.624-.906Zm-2.724.156a3.118,3.118,0,0,1,1.3.72,1.247,1.247,0,0,1,.414.84.533.533,0,0,1-.1.336.324.324,0,0,1-.27.132.479.479,0,0,1-.288-.108,3.14,3.14,0,0,0-.45-.948,4.549,4.549,0,0,0-.726-.864Zm3.408,4.32V-7.164h-2.64v1.572Zm3.42,0V-7.164h-2.64v1.572Zm-6.06.348v1.62h2.64v-1.62Zm3.42,0v1.62h2.64v-1.62ZM33.594-5.8a11.006,11.006,0,0,1-1.452,1.872l-.156-.12a16.681,16.681,0,0,0,1.8-3.552,11.113,11.113,0,0,0,.42-1.326,7.42,7.42,0,0,0,.228-1.23q1.212.384,1.212.552,0,.048-.108.084l-.216.072a21.139,21.139,0,0,1-1.092,2.56q.384.3.384.444,0,.06-.108.12l-.168.084v4.02q.024,1.488.1,2.82a.893.893,0,0,1-.288.216.865.865,0,0,1-.408.108A.287.287,0,0,1,33.55.852a.216.216,0,0,1-.084-.168q.048-.708.084-1.374T33.6-2.436ZM41.13-7.78q.036-.048.108-.15a1.228,1.228,0,0,1,.126-.156.151.151,0,0,1,.1-.054.809.809,0,0,1,.312.186,4.3,4.3,0,0,1,.45.4q.21.216.21.3-.048.192-.3.192H37.23a12.159,12.159,0,0,0-1.8.168l-.312-.624q.66.072,1.6.1h1.5V-7.61a15.7,15.7,0,0,0-.156-2.46q1.236.336,1.236.5,0,.06-.108.12l-.216.132v1.9h1.908Zm.216,7.44q.06-.072.12-.156a1.642,1.642,0,0,1,.12-.15.162.162,0,0,1,.108-.066.835.835,0,0,1,.318.192,5.023,5.023,0,0,1,.462.408q.216.216.216.3Q42.654.38,42.4.38H36.9a12.159,12.159,0,0,0-1.8.168L34.818-.06q.66.072,1.6.1H38.95q.54-1.944.948-4.092A12.947,12.947,0,0,0,40.15-6.44q.732.168,1.026.27t.29.17q0,.048-.108.108l-.2.108q-.324,1.32-.858,2.916T39.19.032H41.1Zm-5-5.916a9.3,9.3,0,0,1,1.17,2.226,5.89,5.89,0,0,1,.366,1.89,2.287,2.287,0,0,1-.15.906q-.15.342-.354.342-.156,0-.3-.216a20.978,20.978,0,0,0-.228-2.628,8.918,8.918,0,0,0-.684-2.436Z" transform="translate(259.04 255)" fill="#333"/>
        <g id="グループ_276" data-name="グループ 276" transform="translate(0.046)">
          <g id="グループ_275" data-name="グループ 275" transform="translate(-1 -0.088)">
            <path id="パス_1688" data-name="パス 1688" d="M-87.221,0Q-87.4,0-87.4-.364q0-.39.182-.39h.416a4.614,4.614,0,0,0,2.054-.39,1.285,1.285,0,0,0,.78-1.222V-14.82a2.58,2.58,0,0,0-.143-1.053.875.875,0,0,0-.676-.364,14.121,14.121,0,0,0-1.989-.091h-.442q-.182,0-.182-.39,0-.364.182-.364a8.207,8.207,0,0,0,2.912-.481,7.381,7.381,0,0,0,2.418-1.547V-2.366q0,1.612,2.834,1.612h.39a.143.143,0,0,1,.143.091.824.824,0,0,1,.039.3q0,.364-.182.364Zm14.286,0a.121.121,0,0,1-.121-.077.616.616,0,0,1-.033-.231q0-.33.154-.33h.352a2.684,2.684,0,0,0,1.452-.3A1.194,1.194,0,0,0-70.691-2V-13.97a1.2,1.2,0,0,0-.462-1.078,2.621,2.621,0,0,0-1.43-.308h-.352q-.154,0-.154-.308t.154-.308h6.248a.139.139,0,0,1,.143.077.616.616,0,0,1,.033.231q0,.308-.176.308h-.33a2.6,2.6,0,0,0-1.452.319,1.2,1.2,0,0,0-.462,1.067V-2A1.1,1.1,0,0,0-68.48-.979a3.2,3.2,0,0,0,1.463.319l.506.022.88-.022a5.6,5.6,0,0,0,3.146-.891,9.272,9.272,0,0,0,2.222-2.277.2.2,0,0,1,.176-.11.507.507,0,0,1,.2.066q.176.088.176.22l-.022.11q-.418,1.144-.638,1.672L-61.055,0Zm17.908,0Q-55.2,0-55.2-.308t.176-.308h.352a2.631,2.631,0,0,0,1.43-.3A1.194,1.194,0,0,0-52.8-1.98V-13.97a1.221,1.221,0,0,0-.44-1.089,2.631,2.631,0,0,0-1.43-.3h-.352q-.154,0-.154-.308t.154-.308L-52.558-16q2.376,0,4,.066a10.355,10.355,0,0,1,3.883.9,6.787,6.787,0,0,1,2.926,2.563,8.093,8.093,0,0,1,1.133,4.477,8.05,8.05,0,0,1-1.134,4.46A6.862,6.862,0,0,1-44.676-.957a10.225,10.225,0,0,1-3.883.913q-1.452.066-3.63.066Zm6.05-.66a6.929,6.929,0,0,0,2.717-.616,5.859,5.859,0,0,0,2.53-2.255,7.961,7.961,0,0,0,1.089-4.455,8.007,8.007,0,0,0-1.089-4.477,5.782,5.782,0,0,0-2.53-2.244,7.035,7.035,0,0,0-2.717-.6h-.176A2.547,2.547,0,0,0-50.594-15a1.239,1.239,0,0,0-.429,1.078v11.9a1.212,1.212,0,0,0,.429,1.056,2.547,2.547,0,0,0,1.441.308Zm29.436.022a.121.121,0,0,1,.121.077.616.616,0,0,1,.033.231q0,.33-.154.33h-6.578q-.154,0-.154-.33,0-.308.154-.308,1.782,0,1.782-.66a1.235,1.235,0,0,0-.33-.682l-5.1-6.05-1.892,1.87V-2a1.194,1.194,0,0,0,.44,1.067,2.631,2.631,0,0,0,1.43.3h.374q.154,0,.154.308,0,.33-.154.33h-6.248q-.154,0-.154-.33a.616.616,0,0,1,.033-.231.121.121,0,0,1,.121-.077h.33a2.6,2.6,0,0,0,1.452-.308A1.2,1.2,0,0,0-33.445-2V-13.97a1.207,1.207,0,0,0-.451-1.089,2.692,2.692,0,0,0-1.441-.3h-.33q-.154,0-.154-.308t.154-.308h6.248a.139.139,0,0,1,.143.077.616.616,0,0,1,.033.231q0,.308-.176.308h-.374a2.547,2.547,0,0,0-1.441.308,1.239,1.239,0,0,0-.429,1.078V-7.3q3.564-3.52,5.742-5.742l.77-.77a1.085,1.085,0,0,0,.33-.682.711.711,0,0,0-.4-.616,2.161,2.161,0,0,0-1.122-.242q-.154,0-.154-.308t.154-.308h5.7a.139.139,0,0,1,.143.077.616.616,0,0,1,.033.231q0,.308-.176.308a4.512,4.512,0,0,0-3.036,1.408q-.506.462-4.8,4.664l1.98,2.354q3.454,4.136,3.784,4.51a6.336,6.336,0,0,0,1.54,1.408,3.26,3.26,0,0,0,1.634.37Z" transform="translate(145.403 106.17)" fill="#333"/>
            <g id="グループ_268" data-name="グループ 268" transform="translate(-0.14 0.138)">
              <path id="パス_1695" data-name="パス 1695" d="M-77.1,0H-88.02l-.3-.66a18.82,18.82,0,0,1,2.13-4.2q1.29-1.89,3.45-4.5a32.258,32.258,0,0,0,3.18-4.215,6.587,6.587,0,0,0,.99-3.4,4.7,4.7,0,0,0-.9-2.85,3.261,3.261,0,0,0-2.82-1.23,4.029,4.029,0,0,0-2.4.7,2.07,2.07,0,0,0-.99,1.725,1.827,1.827,0,0,0,.1.66,2.74,2.74,0,0,0,.345.6,3.858,3.858,0,0,1,.315.585,1.614,1.614,0,0,1,.105.615,1.561,1.561,0,0,1-.435,1.155,1.522,1.522,0,0,1-1.125.435,1.427,1.427,0,0,1-1.1-.585,2.407,2.407,0,0,1-.495-1.6,4.879,4.879,0,0,1,.675-2.34,5.719,5.719,0,0,1,2.04-2.085A6.182,6.182,0,0,1-81.9-22.05a6.315,6.315,0,0,1,3.48.855,4.829,4.829,0,0,1,1.875,2.13,6.584,6.584,0,0,1,.555,2.655,5.388,5.388,0,0,1-.42,2.2,6.536,6.536,0,0,1-1.14,1.74q-.72.8-2.16,2.115-.33.33-.84.78t-1.17,1.11a22.329,22.329,0,0,0-4.5,6.27h3.57a15.408,15.408,0,0,0,3.27-.255,2.941,2.941,0,0,0,1.63-.91,7.359,7.359,0,0,0,1.1-2.13q.06-.18.21-.18a2.485,2.485,0,0,1,.27.06,1.176,1.176,0,0,1,.27.12.2.2,0,0,1,.09.18l-.03.15Zm8.25,3.21A.176.176,0,0,1-69,3.12a.292.292,0,0,1-.06-.15A.173.173,0,0,1-69,2.85a4.149,4.149,0,0,0,.825-.96,1.708,1.708,0,0,0,.285-.84.724.724,0,0,0-.39-.69,2.358,2.358,0,0,1-.795-.57,1.284,1.284,0,0,1-.285-.87,1.628,1.628,0,0,1,.48-1.2,1.592,1.592,0,0,1,1.17-.48,1.568,1.568,0,0,1,1.17.5,1.716,1.716,0,0,1,.48,1.245,4.072,4.072,0,0,1-.825,2.49,6.152,6.152,0,0,1-1.875,1.71Zm15.39-25.23a5.8,5.8,0,0,1,3.51,1.14,7.431,7.431,0,0,1,2.43,3.195,12.031,12.031,0,0,1,.87,4.725,20.017,20.017,0,0,1-1.2,7.335,11.1,11.1,0,0,1-3.015,4.56A5.606,5.606,0,0,1-54.425.45,6.366,6.366,0,0,1-56.81.05a3.522,3.522,0,0,1-1.515-1.07,2.227,2.227,0,0,1-.51-1.38A1.448,1.448,0,0,1-58.4-3.465,1.414,1.414,0,0,1-57.365-3.9a1.434,1.434,0,0,1,1.11.555,2.4,2.4,0,0,1,.54,1.455,1.71,1.71,0,0,0,.36,1.02,1.284,1.284,0,0,0,.99.33,3.127,3.127,0,0,0,2.64-1.635,12.533,12.533,0,0,0,1.65-4.02,30.308,30.308,0,0,0,.75-4.785,6.208,6.208,0,0,1-2.22,2.22,5.456,5.456,0,0,1-2.73.75,5.086,5.086,0,0,1-3-.885,5.673,5.673,0,0,1-1.92-2.325,7.327,7.327,0,0,1-.66-3.09,9.263,9.263,0,0,1,.795-3.84,6.862,6.862,0,0,1,2.25-2.82,5.569,5.569,0,0,1,3.345-1.05Zm.06,12.6a4,4,0,0,0,2.41-.88,5.042,5.042,0,0,0,1.725-2.745,16.233,16.233,0,0,0-.885-5.58,3.25,3.25,0,0,0-3.315-2.25,2.775,2.775,0,0,0-1.965.81,5.38,5.38,0,0,0-1.335,2.22,9.734,9.734,0,0,0-.48,3.15q0,3.18,1.215,4.23A3.942,3.942,0,0,0-53.4-9.42ZM-34.235.42A4.706,4.706,0,0,1-37.37-.84a8.69,8.69,0,0,1-2.34-3.78,18.683,18.683,0,0,1-.885-6.15,18.666,18.666,0,0,1,.9-6.18,8.917,8.917,0,0,1,2.355-3.825,4.71,4.71,0,0,1,3.165-1.275,4.676,4.676,0,0,1,3.135,1.275A8.808,8.808,0,0,1-28.7-16.95a18.958,18.958,0,0,1,.885,6.18,18.4,18.4,0,0,1-.9,6.15A8.8,8.8,0,0,1-31.07-.84,4.74,4.74,0,0,1-34.235.42Zm.06-1.02q1.74,0,2.745-2.535a21.9,21.9,0,0,0,1-7.635,22.173,22.173,0,0,0-1-7.665Q-32.435-21-34.175-21q-1.77,0-2.79,2.565a21.871,21.871,0,0,0-1.02,7.665,21.6,21.6,0,0,0,1.02,7.635Q-35.945-.6-34.175-.6ZM-15.635.42A4.706,4.706,0,0,1-18.77-.84a8.69,8.69,0,0,1-2.34-3.78A18.683,18.683,0,0,1-22-10.77a18.666,18.666,0,0,1,.9-6.18,8.917,8.917,0,0,1,2.355-3.825,4.71,4.71,0,0,1,3.165-1.275,4.676,4.676,0,0,1,3.135,1.275A8.808,8.808,0,0,1-10.1-16.95a18.958,18.958,0,0,1,.885,6.18,18.4,18.4,0,0,1-.9,6.15A8.8,8.8,0,0,1-12.47-.84,4.74,4.74,0,0,1-15.635.42Zm.06-1.02q1.74,0,2.745-2.535a21.9,21.9,0,0,0,1-7.635,22.173,22.173,0,0,0-1-7.665Q-13.835-21-15.575-21q-1.77,0-2.79,2.565a21.871,21.871,0,0,0-1.02,7.665,21.605,21.605,0,0,0,1.02,7.635Q-17.345-.6-15.575-.6Z" transform="translate(374 106)" fill="#952600"/>
              <path id="パス_1696" data-name="パス 1696" d="M11.145-11q.066-.088.187-.242a1.635,1.635,0,0,1,.2-.22.249.249,0,0,1,.165-.066q.2,0,.858.649t.66.891a1.476,1.476,0,0,1-.9.33A50.5,50.5,0,0,1,11.6-3.014,7.337,7.337,0,0,1,10.287.528a3.63,3.63,0,0,1-2.574.88A1.174,1.174,0,0,0,7.251.352a3.19,3.19,0,0,0-.957-.363A15.251,15.251,0,0,0,4.743-.33l.022-.4q.968.11,2.112.209t1.518.1a1.717,1.717,0,0,0,.528-.066,1.341,1.341,0,0,0,.4-.22q.572-.506,1-3.014a54.889,54.889,0,0,0,.627-6.116H4.479A18.162,18.162,0,0,1,2.191-3.4,16.128,16.128,0,0,1-3.045,1.782l-.308-.374a15.964,15.964,0,0,0,4.367-5.06,17.312,17.312,0,0,0,1.848-5.4,47.273,47.273,0,0,0,.473-6.215H.343a22.292,22.292,0,0,0-3.3.308l-.594-1.1q1.21.132,2.926.176h13.4l.484-.7.22-.3a2.845,2.845,0,0,1,.253-.308.278.278,0,0,1,.187-.1,1.58,1.58,0,0,1,.594.363,9.72,9.72,0,0,1,.869.77q.407.407.407.561-.022.33-.55.33H4.919a42.857,42.857,0,0,1-.352,4.8h6.182ZM23.707-4.18q.044,2.728.176,5.17a1.365,1.365,0,0,1-.517.473,1.539,1.539,0,0,1-.781.209.526.526,0,0,1-.352-.132.4.4,0,0,1-.154-.308q.088-1.3.154-2.519t.088-3.2v-8.36a28.781,28.781,0,0,0-.286-4.51l1.782.858H37l.308-.462q.066-.088.2-.275t.264-.187a1.487,1.487,0,0,1,.561.3,7.667,7.667,0,0,1,.8.638q.374.341.374.5a1.644,1.644,0,0,1-.374.264,1.616,1.616,0,0,1-.55.176v15A2.653,2.653,0,0,1,38.4.5a1.441,1.441,0,0,1-.726.682,4.842,4.842,0,0,1-1.606.385A1.7,1.7,0,0,0,35.9.946a1,1,0,0,0-.418-.4A6.114,6.114,0,0,0,33.26-.026V-.374q2.794.22,3.3.22a.728.728,0,0,0,.495-.132.577.577,0,0,0,.143-.44V-7.964H23.707Zm5.962-11.66H23.707v7.26h5.962Zm1.408,0v7.26h6.116v-7.26ZM49.8-11.286q3.058-.11,8.074-.374l2.552-.132a23.777,23.777,0,0,0-3.432-3.652l.242-.2a16.761,16.761,0,0,1,3.52,2.178,9,9,0,0,1,1.969,2.156,3.572,3.572,0,0,1,.605,1.76,1.1,1.1,0,0,1-.176.66.566.566,0,0,1-.484.242,1.074,1.074,0,0,1-.572-.2,9.437,9.437,0,0,0-1.342-2.464Q55.08-10.5,46.588-9.64a.9.9,0,0,1-.616.462l-.55-2q1.584,0,3.586-.088,1.122-1.958,1.848-3.432a19.756,19.756,0,0,0,.957-2.145,15.231,15.231,0,0,0,.627-2.013q2.354.88,2.354,1.166,0,.088-.2.176l-.418.132q-.858,1.43-2.035,3.091T49.8-11.286ZM49.557.264q.022.286.033.517a2.52,2.52,0,0,0,.033.341q-.044.2-.429.407a1.661,1.661,0,0,1-.8.209.355.355,0,0,1-.286-.132A.467.467,0,0,1,48,1.3q.11-1.166.154-3.1V-3.586a28.78,28.78,0,0,0-.286-4.51l1.8.858H59.48l.352-.462L60-7.92a1.265,1.265,0,0,1,.176-.2.249.249,0,0,1,.165-.066,1.487,1.487,0,0,1,.561.3,6.843,6.843,0,0,1,.792.638q.363.341.363.5a1.54,1.54,0,0,1-.946.44V-3.85q.066,3.08.154,4.774a1.358,1.358,0,0,1-.572.4,1.96,1.96,0,0,1-.792.2.251.251,0,0,1-.231-.132.6.6,0,0,1-.077-.308l.088-.7v-.6H49.557Zm0-6.864V-.88h10.12V-6.6Zm33.308.066a10.931,10.931,0,0,1-4.07-1.034Q77.079-8.294,76.1-8.613a6.457,6.457,0,0,0-2.013-.319,5.151,5.151,0,0,0-2.233.5,17.554,17.554,0,0,0-2.145,1.221.272.272,0,0,1-.154.066.228.228,0,0,1-.143-.066q-.077-.066-.077-.11a.214.214,0,0,1,.044-.11A7.769,7.769,0,0,1,71.5-9.317a5.824,5.824,0,0,1,3.2-.891,10.96,10.96,0,0,1,4.092,1.034l.484.2q1.5.616,2.376.9a5.87,5.87,0,0,0,1.826.286,5.08,5.08,0,0,0,2.222-.5,17.664,17.664,0,0,0,2.156-1.243.383.383,0,0,1,.154-.066.228.228,0,0,1,.143.066q.077.066.077.11a.214.214,0,0,1-.044.11,7.769,7.769,0,0,1-2.123,1.881,5.824,5.824,0,0,1-3.2.891Z" transform="translate(374 106)" fill="#333"/>
            </g>
            <path id="パス_1706" data-name="パス 1706" d="M18.193-9.984A6.725,6.725,0,0,1,21.7-8.32a4.18,4.18,0,0,1,1.352,3.172,6.232,6.232,0,0,1-.533,2.431A4.967,4.967,0,0,1,20.637-.546a6.378,6.378,0,0,1-3.614.91,5.766,5.766,0,0,1-2.9-.65,3.973,3.973,0,0,1-1.612-1.573A3.85,3.85,0,0,1,12.03-3.64a1.681,1.681,0,0,1,.4-1.235,1.27,1.27,0,0,1,.923-.4,1.628,1.628,0,0,1,.988.325,1.078,1.078,0,0,1,.442.923,1.584,1.584,0,0,1-.286.754,2.722,2.722,0,0,0-.221.364.918.918,0,0,0-.091.416,2,2,0,0,0,.572,1.378,2.677,2.677,0,0,0,2.028.624,3.547,3.547,0,0,0,2.054-.624,4.236,4.236,0,0,0,1.43-1.716,5.738,5.738,0,0,0,.52-2.5A4.446,4.446,0,0,0,19.753-8.4a3.661,3.661,0,0,0-2.886-1.17,4.237,4.237,0,0,0-.546.052,4.511,4.511,0,0,1-.624.052.791.791,0,0,1-.481-.143.471.471,0,0,1-.2-.4.48.48,0,0,1,.2-.39.746.746,0,0,1,.481-.156,2.782,2.782,0,0,1,.676.078,5.586,5.586,0,0,0,.65.052,3.564,3.564,0,0,0,2.106-.728q1.014-.728,1.014-3.12a4.154,4.154,0,0,0-.923-3.055,2.984,2.984,0,0,0-2.145-.9,3.3,3.3,0,0,0-1.469.351,1.325,1.325,0,0,0-.715,1.313,2.182,2.182,0,0,0,.208.884,1.318,1.318,0,0,1,.182.676,1.117,1.117,0,0,1-.3.806.985.985,0,0,1-.741.312,1.306,1.306,0,0,1-1.157-.507,1.942,1.942,0,0,1-.351-1.131,2.788,2.788,0,0,1,.585-1.547,4.837,4.837,0,0,1,1.651-1.443,4.91,4.91,0,0,1,2.444-.6,5.288,5.288,0,0,1,2.639.637,4.444,4.444,0,0,1,1.729,1.69,4.53,4.53,0,0,1,.6,2.275,4.363,4.363,0,0,1-1.053,2.925A5.108,5.108,0,0,1,18.193-9.984Zm16.562-1.794a4.408,4.408,0,0,1,2.6.767A4.916,4.916,0,0,1,39.019-9a6.35,6.35,0,0,1,.572,2.678A8.028,8.028,0,0,1,38.9-2.99,5.947,5.947,0,0,1,36.95-.546a4.827,4.827,0,0,1-2.9.91,5.029,5.029,0,0,1-3.042-.988A6.44,6.44,0,0,1,28.9-3.393a10.427,10.427,0,0,1-.754-4.095,17.348,17.348,0,0,1,1.04-6.357A9.623,9.623,0,0,1,31.8-17.8a4.858,4.858,0,0,1,3.081-1.313,5.517,5.517,0,0,1,2.067.351,3.052,3.052,0,0,1,1.313.923,1.93,1.93,0,0,1,.442,1.2,1.255,1.255,0,0,1-.377.923,1.225,1.225,0,0,1-.9.377,1.243,1.243,0,0,1-.962-.481A2.081,2.081,0,0,1,36-17.082a1.482,1.482,0,0,0-.312-.884,1.113,1.113,0,0,0-.858-.286,2.71,2.71,0,0,0-2.288,1.417,10.862,10.862,0,0,0-1.43,3.484,26.267,26.267,0,0,0-.65,4.147,5.38,5.38,0,0,1,1.924-1.924,4.729,4.729,0,0,1,2.369-.65Zm-.7,11.154a2.4,2.4,0,0,0,1.7-.7A4.663,4.663,0,0,0,36.913-3.25a8.436,8.436,0,0,0,.416-2.73q0-2.756-1.053-3.666A3.416,3.416,0,0,0,34-10.556a3.47,3.47,0,0,0-2.093.767A4.37,4.37,0,0,0,30.413-7.41a14.068,14.068,0,0,0,.767,4.836,2.817,2.817,0,0,0,2.873,1.95Zm27-7.164c0-2.992-1.122-4.2-3.3-4.2A4.484,4.484,0,0,0,54.1-9.834a2.8,2.8,0,0,0-2.97-2.156,4.369,4.369,0,0,0-3.564,2.134L47.5-11.682l-.308-.176-3.256.7v.7l1.76.044c.066,1.144.088,2.442.088,3.982V-5.17c0,1.188-.022,2.948-.044,4.224L44.065-.77V0h5.28V-.77L47.629-.946c-.022-1.276-.044-3.036-.044-4.224V-9A3.688,3.688,0,0,1,50.4-10.692c1.3,0,2.134.792,2.134,2.9V-5.17c0,1.232-.022,2.97-.044,4.224L50.819-.77V0h5.236V-.77L54.361-.946c-.022-1.276-.044-2.992-.044-4.224V-7.964a8.45,8.45,0,0,0-.066-1.1,3.871,3.871,0,0,1,2.9-1.628c1.21,0,2.09.77,2.09,3.036V-5.17c0,1.21-.022,2.97-.044,4.224l-1.69.176V0h5.324V-.77L61.093-.946c-.022-1.254-.044-3.014-.044-4.224Zm.88-5.764,1.144-.946c1.1-.9,1.716-1.562,1.716-2.42,0-.836-.594-1.5-1.738-1.5-1.012,0-1.782.462-1.892,1.408a.4.4,0,0,0,.418.286c.242,0,.484-.088.616-.616l.154-.594a2.391,2.391,0,0,1,.4-.022.944.944,0,0,1,.742.3.944.944,0,0,1,.248.759c0,.792-.462,1.3-1.254,2.156L61.1-13.336v.66h3.938v-.88Zm14.85,1.892q.088-.11.209-.275a2.251,2.251,0,0,1,.209-.253.254.254,0,0,1,.176-.088,1.39,1.39,0,0,1,.55.319,6.321,6.321,0,0,1,.77.693q.352.374.352.528-.088.352-.55.352H72.577a22.292,22.292,0,0,0-3.3.308l-.55-1.144q1.21.132,2.926.176h1.584v-3.41H72.093a8.267,8.267,0,0,0-2.024.308L69.5-15.29q1.056.132,2.552.176H73.24a21.641,21.641,0,0,0-.22-3.432q2.112.616,2.112.924,0,.11-.176.22l-.374.242v2.046h1.364l.4-.594q.066-.088.187-.264a1.94,1.94,0,0,1,.209-.264.254.254,0,0,1,.176-.088,1.331,1.331,0,0,1,.539.319,7.5,7.5,0,0,1,.759.682q.352.363.352.517-.088.352-.55.352H74.579v3.41h1.782Zm9.592-6.028q.044-.066.143-.209a1.123,1.123,0,0,1,.176-.209.249.249,0,0,1,.165-.066q.2,0,.836.594t.638.836a1.323,1.323,0,0,1-.792.308,24.219,24.219,0,0,1-.407,3.817,3.575,3.575,0,0,1-.825,1.859,2.821,2.821,0,0,1-1.914.594,1.211,1.211,0,0,0-.352-.99,4.632,4.632,0,0,0-1.694-.484l.022-.374q.616.066,1.3.11t1.122.044a2.06,2.06,0,0,0,.429-.033.624.624,0,0,0,.253-.121q.55-.506.748-4.576h-3.1A10.194,10.194,0,0,1,81.85-12.43a8.744,8.744,0,0,1-3.707,3.212l-.308-.33a8.061,8.061,0,0,0,2.9-3.19,10.835,10.835,0,0,0,.924-3.85H80.585a7.805,7.805,0,0,0-1.936.308l-.572-1.12q1.21.132,2.926.176h5.038ZM76.7-6.888q.066-.088.187-.275a1.742,1.742,0,0,1,.209-.275.254.254,0,0,1,.176-.088,1.265,1.265,0,0,1,.528.33,7.448,7.448,0,0,1,.737.7q.341.374.341.528-.066.352-.572.352H74.975V-.77A8.173,8.173,0,0,0,76.9-.352a26.3,26.3,0,0,0,2.629.11q6.864,0,8.954-.066v.286a1.021,1.021,0,0,0-.638.385,1.456,1.456,0,0,0-.264.737h-8.1a15.059,15.059,0,0,1-3.8-.4A5.389,5.389,0,0,1,73.16-.77a8.55,8.55,0,0,1-1.771-3.146,11.6,11.6,0,0,1-2.552,5.654l-.22-.264a14.322,14.322,0,0,0,1.672-5.588A16.493,16.493,0,0,0,70.4-6.27a14.307,14.307,0,0,0-.176-2.574q2.178.308,2.178.594,0,.088-.176.2l-.352.22q-.11,1.694-.352,3.168A7.041,7.041,0,0,0,73.678-1.45v-4.4a28.781,28.781,0,0,0-.286-4.51,15.458,15.458,0,0,1,1.683.561q.473.209.473.363,0,.132-.2.242l-.374.242V-6.27h1.3Zm9.064-2.42q.066-.088.231-.3t.3-.209a1.287,1.287,0,0,1,.528.308,5.746,5.746,0,0,1,.726.671q.33.363.33.517a1.006,1.006,0,0,1-.33.231A2.307,2.307,0,0,1,87-7.9v1.98q.066,2.486.154,3.85a1.429,1.429,0,0,1-.55.407,1.74,1.74,0,0,1-.77.209.234.234,0,0,1-.209-.132.6.6,0,0,1-.077-.308l.088-.528v-.506H80.8v.44q.022.242.033.451a1.768,1.768,0,0,0,.033.3q-.044.2-.429.385a1.771,1.771,0,0,1-.781.187A.3.3,0,0,1,79.4-1.3a.5.5,0,0,1-.1-.308q.088-.924.132-2.332V-5.324a28.79,28.79,0,0,0-.264-4.268l1.738.792H85.4ZM80.8-8.162v4.6h4.818v-4.6Z" transform="translate(166.403 106.17)" fill="#333"/>
            <path id="パス_1707" data-name="パス 1707" d="M16.8-18.546,7.978,2.178l-.792-.352L16.03-18.9Z" transform="translate(152.247 104.73)" fill="#333"/>
          </g>
          <g id="グループ_274" data-name="グループ 274" transform="translate(-1 2.022)">
            <path id="パス_1689" data-name="パス 1689" d="M-78.615,0h-9.464l-.26-.572a16.31,16.31,0,0,1,1.846-3.64q1.118-1.638,2.99-3.9a27.956,27.956,0,0,0,2.756-3.653,5.709,5.709,0,0,0,.858-2.951,4.072,4.072,0,0,0-.78-2.47,2.826,2.826,0,0,0-2.444-1.066,3.492,3.492,0,0,0-2.08.611,1.794,1.794,0,0,0-.858,1.5,1.583,1.583,0,0,0,.091.572,2.375,2.375,0,0,0,.3.52,3.344,3.344,0,0,1,.273.507,1.4,1.4,0,0,1,.091.533,1.353,1.353,0,0,1-.377,1,1.319,1.319,0,0,1-.975.377,1.237,1.237,0,0,1-.949-.507,2.086,2.086,0,0,1-.429-1.391,4.228,4.228,0,0,1,.585-2.028,4.956,4.956,0,0,1,1.768-1.807,5.358,5.358,0,0,1,2.9-.741,5.473,5.473,0,0,1,3.016.741,4.185,4.185,0,0,1,1.625,1.846,5.706,5.706,0,0,1,.481,2.3,4.669,4.669,0,0,1-.364,1.911A5.664,5.664,0,0,1-79-10.8q-.624.689-1.872,1.833-.286.286-.728.676t-1.014.962a19.352,19.352,0,0,0-3.9,5.434h3.094a13.353,13.353,0,0,0,2.834-.221,2.549,2.549,0,0,0,1.417-.793,6.378,6.378,0,0,0,.949-1.846q.052-.156.182-.156a2.153,2.153,0,0,1,.234.052,1.019,1.019,0,0,1,.234.1.175.175,0,0,1,.07.159l-.026.13Zm6.252,0a.121.121,0,0,1-.121-.077.616.616,0,0,1-.033-.231q0-.33.154-.33h.352a2.684,2.684,0,0,0,1.452-.3A1.194,1.194,0,0,0-70.119-2V-13.97a1.2,1.2,0,0,0-.462-1.078,2.621,2.621,0,0,0-1.43-.308h-.352q-.154,0-.154-.308t.154-.308h6.248a.139.139,0,0,1,.143.077.616.616,0,0,1,.033.231q0,.308-.176.308h-.33a2.6,2.6,0,0,0-1.452.319,1.2,1.2,0,0,0-.462,1.067V-2a1.1,1.1,0,0,0,.451,1.023,3.2,3.2,0,0,0,1.463.319l.506.022.88-.022a5.6,5.6,0,0,0,3.146-.891,9.272,9.272,0,0,0,2.222-2.277.2.2,0,0,1,.176-.11.507.507,0,0,1,.2.066q.176.088.176.22l-.022.11q-.42,1.14-.639,1.67L-60.483,0Zm17.908,0q-.176,0-.176-.308t.176-.308h.352a2.631,2.631,0,0,0,1.43-.3,1.194,1.194,0,0,0,.44-1.067V-13.97a1.221,1.221,0,0,0-.44-1.089,2.631,2.631,0,0,0-1.43-.3h-.352q-.154,0-.154-.308t.154-.308L-51.991-16q2.376,0,4,.066a10.355,10.355,0,0,1,3.883.9,6.787,6.787,0,0,1,2.926,2.563,8.093,8.093,0,0,1,1.133,4.477,8.05,8.05,0,0,1-1.133,4.455A6.862,6.862,0,0,1-44.1-.957a10.225,10.225,0,0,1-3.883.913q-1.452.066-3.63.066Zm6.05-.66a6.929,6.929,0,0,0,2.717-.616,5.859,5.859,0,0,0,2.53-2.255,7.961,7.961,0,0,0,1.089-4.455,8.007,8.007,0,0,0-1.089-4.477,5.782,5.782,0,0,0-2.53-2.244,7.035,7.035,0,0,0-2.717-.6h-.176A2.547,2.547,0,0,0-50.022-15a1.239,1.239,0,0,0-.429,1.078v11.9a1.212,1.212,0,0,0,.429,1.056,2.547,2.547,0,0,0,1.441.308Zm29.436.022a.121.121,0,0,1,.121.077.616.616,0,0,1,.033.231q0,.33-.154.33h-6.578Q-25.7,0-25.7-.33q0-.308.154-.308,1.782,0,1.782-.66a1.235,1.235,0,0,0-.33-.682l-5.1-6.05-1.892,1.87V-2a1.194,1.194,0,0,0,.44,1.067,2.631,2.631,0,0,0,1.43.3h.374q.154,0,.154.308,0,.33-.154.33H-35.1q-.154,0-.154-.33a.616.616,0,0,1,.033-.231A.121.121,0,0,1-35.1-.638h.33a2.605,2.605,0,0,0,1.452-.308A1.2,1.2,0,0,0-32.873-2V-13.97a1.207,1.207,0,0,0-.451-1.089,2.692,2.692,0,0,0-1.441-.3h-.33q-.154,0-.154-.308t.154-.308h6.248a.139.139,0,0,1,.143.077.616.616,0,0,1,.033.231q0,.308-.176.308h-.374a2.547,2.547,0,0,0-1.441.308,1.239,1.239,0,0,0-.429,1.078V-7.3q3.564-3.52,5.742-5.742l.77-.77a1.085,1.085,0,0,0,.33-.682.711.711,0,0,0-.4-.616,2.161,2.161,0,0,0-1.122-.242q-.154,0-.154-.308t.154-.308h5.7a.139.139,0,0,1,.143.077.616.616,0,0,1,.033.231q0,.308-.176.308a4.512,4.512,0,0,0-3.029,1.4q-.506.462-4.8,4.664l1.98,2.354q3.454,4.136,3.784,4.51A6.336,6.336,0,0,0-20.6-1.012a3.26,3.26,0,0,0,1.631.374Z" transform="translate(146.339 145.06)" fill="#333"/>
            <g id="グループ_269" data-name="グループ 269" transform="translate(0.46 -3.972)">
              <path id="パス_1694" data-name="パス 1694" d="M22.975-11q.066-.088.187-.242a1.635,1.635,0,0,1,.2-.22.249.249,0,0,1,.165-.066q.2,0,.858.649t.66.891a1.476,1.476,0,0,1-.9.33,50.5,50.5,0,0,1-.715,6.644A7.337,7.337,0,0,1,22.117.528a3.63,3.63,0,0,1-2.574.88A1.174,1.174,0,0,0,19.081.352a3.19,3.19,0,0,0-.957-.363A15.251,15.251,0,0,0,16.573-.33l.022-.4q.968.11,2.112.209t1.518.1a1.717,1.717,0,0,0,.528-.066,1.341,1.341,0,0,0,.4-.22q.572-.506,1-3.014a54.889,54.889,0,0,0,.627-6.116H16.309A18.162,18.162,0,0,1,14.021-3.4,16.128,16.128,0,0,1,8.785,1.782l-.308-.374a15.964,15.964,0,0,0,4.367-5.06,17.312,17.312,0,0,0,1.848-5.4,47.271,47.271,0,0,0,.473-6.215H12.173a22.292,22.292,0,0,0-3.3.308l-.594-1.1q1.21.132,2.926.176H24.6l.484-.7.22-.3a2.845,2.845,0,0,1,.253-.308.278.278,0,0,1,.187-.1,1.58,1.58,0,0,1,.594.363,9.72,9.72,0,0,1,.869.77q.407.407.407.561-.022.33-.55.33H16.749a42.857,42.857,0,0,1-.352,4.8h6.182ZM35.537-4.18q.044,2.728.176,5.17a1.365,1.365,0,0,1-.517.473,1.539,1.539,0,0,1-.781.209.526.526,0,0,1-.352-.132.4.4,0,0,1-.154-.308q.088-1.3.154-2.519t.088-3.2v-8.36a28.781,28.781,0,0,0-.286-4.51l1.782.858H48.825l.308-.462q.066-.088.2-.275t.264-.187a1.487,1.487,0,0,1,.561.3,7.668,7.668,0,0,1,.8.638q.374.341.374.5a1.644,1.644,0,0,1-.374.264,1.616,1.616,0,0,1-.55.176v15A2.653,2.653,0,0,1,50.233.5a1.441,1.441,0,0,1-.726.682,4.842,4.842,0,0,1-1.606.385,1.7,1.7,0,0,0-.176-.616,1,1,0,0,0-.418-.4,6.114,6.114,0,0,0-2.222-.572V-.374q2.794.22,3.3.22a.728.728,0,0,0,.495-.132.577.577,0,0,0,.143-.44V-7.964H35.537ZM41.5-15.84H35.537v7.26H41.5Zm1.408,0v7.26h6.116v-7.26ZM61.63-11.286q3.058-.11,8.074-.374l2.552-.132a23.777,23.777,0,0,0-3.432-3.652l.242-.2a16.761,16.761,0,0,1,3.52,2.178,9,9,0,0,1,1.969,2.156,3.572,3.572,0,0,1,.605,1.76,1.1,1.1,0,0,1-.176.66.566.566,0,0,1-.484.242,1.074,1.074,0,0,1-.572-.2,9.437,9.437,0,0,0-1.342-2.464Q66.91-10.5,58.418-9.64a.9.9,0,0,1-.616.462l-.55-2q1.584,0,3.586-.088,1.122-1.958,1.848-3.432a19.758,19.758,0,0,0,.957-2.145,15.231,15.231,0,0,0,.627-2.013q2.354.88,2.354,1.166,0,.088-.2.176l-.418.132q-.858,1.43-2.035,3.091t-2.342,3.005ZM61.387.264q.022.286.033.517a2.521,2.521,0,0,0,.033.341q-.044.2-.429.407a1.661,1.661,0,0,1-.8.209.355.355,0,0,1-.286-.132.467.467,0,0,1-.11-.308q.11-1.166.154-3.1V-3.586A28.78,28.78,0,0,0,59.7-8.1l1.8.858h9.812L71.66-7.7l.165-.22A1.266,1.266,0,0,1,72-8.12a.249.249,0,0,1,.165-.066,1.487,1.487,0,0,1,.561.3,6.842,6.842,0,0,1,.792.638q.363.341.363.495a1.54,1.54,0,0,1-.946.44V-3.85Q73-.77,73.091.924a1.358,1.358,0,0,1-.572.4,1.96,1.96,0,0,1-.792.2.251.251,0,0,1-.231-.132.6.6,0,0,1-.077-.308l.088-.7v-.6H61.387Zm0-6.864V-.88h10.12V-6.6Z" transform="translate(361 149)" fill="#333"/>
              <path id="パス_1697" data-name="パス 1697" d="M-68.815-11.52a7.759,7.759,0,0,1,4.05,1.92A4.823,4.823,0,0,1-63.2-5.94a7.191,7.191,0,0,1-.615,2.805A5.731,5.731,0,0,1-66-.63,7.359,7.359,0,0,1-70.165.42,6.653,6.653,0,0,1-73.51-.33a4.585,4.585,0,0,1-1.86-1.815A4.442,4.442,0,0,1-75.925-4.2a1.94,1.94,0,0,1,.465-1.425A1.465,1.465,0,0,1-74.4-6.09a1.878,1.878,0,0,1,1.14.375,1.243,1.243,0,0,1,.51,1.065,1.828,1.828,0,0,1-.33.87,3.14,3.14,0,0,0-.255.42,1.059,1.059,0,0,0-.105.48,2.3,2.3,0,0,0,.66,1.59,3.089,3.089,0,0,0,2.34.72,4.093,4.093,0,0,0,2.37-.72,4.888,4.888,0,0,0,1.65-1.98,6.621,6.621,0,0,0,.6-2.88,5.13,5.13,0,0,0-1.2-3.54,4.225,4.225,0,0,0-3.33-1.35,4.891,4.891,0,0,0-.63.06,5.205,5.205,0,0,1-.72.06.913.913,0,0,1-.555-.165.543.543,0,0,1-.225-.465.554.554,0,0,1,.23-.45.86.86,0,0,1,.555-.18,3.21,3.21,0,0,1,.78.09,6.446,6.446,0,0,0,.75.06,4.112,4.112,0,0,0,2.43-.84q1.17-.84,1.17-3.6a4.793,4.793,0,0,0-1.065-3.525,3.443,3.443,0,0,0-2.475-1.035,3.805,3.805,0,0,0-1.695.4,1.529,1.529,0,0,0-.825,1.515,2.517,2.517,0,0,0,.24,1.02,1.521,1.521,0,0,1,.21.78,1.289,1.289,0,0,1-.345.93,1.137,1.137,0,0,1-.855.36A1.507,1.507,0,0,1-74.71-16.6a2.241,2.241,0,0,1-.4-1.305,3.217,3.217,0,0,1,.675-1.785,5.581,5.581,0,0,1,1.9-1.665,5.665,5.665,0,0,1,2.82-.69,6.1,6.1,0,0,1,3.045.735,5.128,5.128,0,0,1,2,1.95,5.227,5.227,0,0,1,.69,2.625,5.035,5.035,0,0,1-1.22,3.37A5.894,5.894,0,0,1-68.815-11.52Zm12.69,14.73a.176.176,0,0,1-.15-.09.292.292,0,0,1-.06-.15.173.173,0,0,1,.06-.12,4.149,4.149,0,0,0,.825-.96,1.708,1.708,0,0,0,.285-.84.724.724,0,0,0-.39-.69,2.358,2.358,0,0,1-.8-.57,1.284,1.284,0,0,1-.285-.87,1.628,1.628,0,0,1,.48-1.2,1.592,1.592,0,0,1,1.17-.48,1.568,1.568,0,0,1,1.17.5,1.716,1.716,0,0,1,.48,1.245,4.072,4.072,0,0,1-.825,2.49,6.152,6.152,0,0,1-1.875,1.71Zm15.36-17.22a6.687,6.687,0,0,1,2.565.585,5.759,5.759,0,0,1,2.475,2.16,7.574,7.574,0,0,1,1.08,4.335,7.479,7.479,0,0,1-.99,3.87,7.1,7.1,0,0,1-2.52,2.58,6.038,6.038,0,0,1-3.09.9A7.552,7.552,0,0,1-43.96-.09a5.234,5.234,0,0,1-2.19-1.53A3.661,3.661,0,0,1-47-4.05a1.96,1.96,0,0,1,.435-1.425,1.348,1.348,0,0,1,.97-.435,1.989,1.989,0,0,1,1.14.345A1.2,1.2,0,0,1-43.95-4.5a3.018,3.018,0,0,1-.18.93l-.09.36a1.86,1.86,0,0,0-.06.45,1.825,1.825,0,0,0,.855,1.635,3.425,3.425,0,0,0,1.9.555,3.3,3.3,0,0,0,2.1-.765A5.32,5.32,0,0,0-37.875-3.5,8.285,8.285,0,0,0-37.29-6.72,7.725,7.725,0,0,0-38.4-11.1a3.419,3.419,0,0,0-2.97-1.65q-2.25,0-4.26,2.88l-.87-.57.42-11.34h10.53l-.42,2.25h-9.15l-.33,7.86a8.252,8.252,0,0,1,2.34-1.815,5.407,5.407,0,0,1,2.345-.525ZM-22.405.42A4.706,4.706,0,0,1-25.54-.84a8.69,8.69,0,0,1-2.34-3.78,18.683,18.683,0,0,1-.885-6.15,18.666,18.666,0,0,1,.9-6.18,8.917,8.917,0,0,1,2.355-3.825,4.71,4.71,0,0,1,3.165-1.275,4.676,4.676,0,0,1,3.135,1.275,8.808,8.808,0,0,1,2.34,3.825,18.958,18.958,0,0,1,.885,6.18,18.4,18.4,0,0,1-.9,6.15A8.8,8.8,0,0,1-19.24-.84,4.74,4.74,0,0,1-22.405.42Zm.06-1.02q1.74,0,2.745-2.535a21.9,21.9,0,0,0,1-7.635,22.173,22.173,0,0,0-1-7.665Q-20.6-21-22.345-21q-1.77,0-2.79,2.565a21.871,21.871,0,0,0-1.02,7.665,21.6,21.6,0,0,0,1.02,7.635Q-24.115-.6-22.345-.6ZM-3.805.42A4.706,4.706,0,0,1-6.94-.84,8.69,8.69,0,0,1-9.28-4.62a18.683,18.683,0,0,1-.885-6.15,18.666,18.666,0,0,1,.9-6.18A8.917,8.917,0,0,1-6.91-20.775,4.71,4.71,0,0,1-3.745-22.05,4.676,4.676,0,0,1-.61-20.775,8.808,8.808,0,0,1,1.73-16.95a18.958,18.958,0,0,1,.885,6.18,18.4,18.4,0,0,1-.9,6.15A8.8,8.8,0,0,1-.64-.84,4.74,4.74,0,0,1-3.8.42Zm.06-1.02Q-2-.6-1-3.135A21.9,21.9,0,0,0,0-10.77a22.173,22.173,0,0,0-1-7.665Q-2.005-21-3.745-21q-1.77,0-2.79,2.565a21.871,21.871,0,0,0-1.02,7.665,21.605,21.605,0,0,0,1.02,7.635Q-5.515-.6-3.745-.6Z" transform="translate(361 149)" fill="#952600"/>
            </g>
            <path id="パス_1708" data-name="パス 1708" d="M23.965-4.264H21.027V-1.69a.726.726,0,0,0,.494.754,3.838,3.838,0,0,0,1.3.182h.338q.234,0,.234.364,0,.39-.234.39h-6.24q-.208,0-.208-.39,0-.364.208-.364h.338a3.838,3.838,0,0,0,1.3-.182.726.726,0,0,0,.494-.754V-4.264H12.057V-5.356l7.93-13.754,1.04.234v13.52h2.938ZM19.051-15.34,13.305-5.356h5.746Zm15.756,3.562a4.408,4.408,0,0,1,2.6.767A4.916,4.916,0,0,1,39.071-9a6.35,6.35,0,0,1,.572,2.678,8.028,8.028,0,0,1-.689,3.328A5.947,5.947,0,0,1,37-.546a4.827,4.827,0,0,1-2.9.91,5.029,5.029,0,0,1-3.042-.988,6.44,6.44,0,0,1-2.106-2.769A10.427,10.427,0,0,1,28.2-7.488a17.348,17.348,0,0,1,1.04-6.357A9.623,9.623,0,0,1,31.856-17.8a4.858,4.858,0,0,1,3.081-1.313A5.517,5.517,0,0,1,37-18.759a3.052,3.052,0,0,1,1.313.923,1.93,1.93,0,0,1,.442,1.2,1.255,1.255,0,0,1-.377.923,1.225,1.225,0,0,1-.9.377,1.243,1.243,0,0,1-.962-.481,2.081,2.081,0,0,1-.468-1.261,1.482,1.482,0,0,0-.312-.884,1.113,1.113,0,0,0-.858-.286A2.71,2.71,0,0,0,32.6-16.835a10.862,10.862,0,0,0-1.43,3.484A26.267,26.267,0,0,0,30.52-9.2a5.38,5.38,0,0,1,1.924-1.924,4.729,4.729,0,0,1,2.363-.65Zm-.7,11.154a2.4,2.4,0,0,0,1.7-.7A4.663,4.663,0,0,0,36.965-3.25a8.436,8.436,0,0,0,.416-2.73q0-2.756-1.053-3.666a3.416,3.416,0,0,0-2.275-.91,3.47,3.47,0,0,0-2.093.767A4.37,4.37,0,0,0,30.465-7.41a14.068,14.068,0,0,0,.767,4.836,2.817,2.817,0,0,0,2.873,1.95Zm27-7.164c0-2.992-1.122-4.2-3.3-4.2a4.484,4.484,0,0,0-3.652,2.156,2.8,2.8,0,0,0-2.97-2.156,4.369,4.369,0,0,0-3.564,2.134l-.066-1.826-.308-.176-3.256.7v.7l1.76.044c.066,1.144.088,2.442.088,3.982v1.26c0,1.188-.022,2.948-.044,4.224L44.117-.77V0H49.4V-.77L47.681-.946c-.022-1.276-.044-3.036-.044-4.224V-9a3.688,3.688,0,0,1,2.816-1.694c1.3,0,2.134.792,2.134,2.9V-5.17c0,1.232-.022,2.97-.044,4.224L50.871-.77V0h5.236V-.77L54.413-.946c-.022-1.276-.044-2.992-.044-4.224V-7.964a8.448,8.448,0,0,0-.066-1.1,3.871,3.871,0,0,1,2.9-1.628c1.21,0,2.09.77,2.09,3.036V-5.17c0,1.21-.022,2.97-.044,4.224l-1.69.176V0h5.324V-.77L61.145-.946C61.123-2.2,61.1-3.96,61.1-5.17Zm.88-5.764,1.144-.946c1.1-.9,1.716-1.562,1.716-2.42,0-.836-.594-1.5-1.738-1.5-1.012,0-1.782.462-1.892,1.408a.4.4,0,0,0,.418.286c.242,0,.484-.088.616-.616l.154-.594a2.391,2.391,0,0,1,.4-.022.944.944,0,0,1,.742.3.944.944,0,0,1,.248.759c0,.792-.462,1.3-1.254,2.156l-1.386,1.408v.66h3.938v-.88Zm14.85,1.892q.088-.11.209-.275a2.25,2.25,0,0,1,.209-.253.254.254,0,0,1,.176-.088,1.39,1.39,0,0,1,.55.319,6.321,6.321,0,0,1,.77.693q.352.374.352.528-.088.352-.55.352H72.629a22.292,22.292,0,0,0-3.3.308l-.55-1.144q1.21.132,2.926.176h1.584v-3.41H72.145a8.267,8.267,0,0,0-2.024.308l-.572-1.144q1.056.132,2.552.176h1.188a21.64,21.64,0,0,0-.22-3.432q2.112.616,2.112.924,0,.11-.176.22l-.374.242v2.046h1.364l.4-.594q.066-.088.187-.264a1.94,1.94,0,0,1,.209-.264.254.254,0,0,1,.176-.088,1.331,1.331,0,0,1,.539.319,7.5,7.5,0,0,1,.759.682q.352.363.352.517-.088.352-.55.352H74.631v3.41h1.782Zm9.592-6.028q.044-.066.143-.209a1.123,1.123,0,0,1,.176-.209.249.249,0,0,1,.165-.066q.2,0,.836.594t.638.836a1.323,1.323,0,0,1-.792.308,24.22,24.22,0,0,1-.407,3.817,3.575,3.575,0,0,1-.825,1.859,2.821,2.821,0,0,1-1.914.594,1.211,1.211,0,0,0-.352-.99,4.632,4.632,0,0,0-1.694-.484l.022-.374q.616.066,1.3.11t1.122.044a2.06,2.06,0,0,0,.429-.033.624.624,0,0,0,.253-.121q.55-.506.748-4.576h-3.1A10.194,10.194,0,0,1,81.9-12.43a8.744,8.744,0,0,1-3.707,3.212l-.308-.33a8.061,8.061,0,0,0,2.9-3.19,10.835,10.835,0,0,0,.924-3.85H80.637a7.805,7.805,0,0,0-1.936.308l-.572-1.12q1.21.132,2.926.176h5.038Zm-9.68,10.8q.066-.088.187-.275a1.742,1.742,0,0,1,.209-.275.254.254,0,0,1,.176-.088,1.265,1.265,0,0,1,.528.33,7.449,7.449,0,0,1,.737.7q.341.374.341.528-.066.352-.572.352H75.027V-.77a8.173,8.173,0,0,0,1.925.418,26.3,26.3,0,0,0,2.629.11q6.864,0,8.954-.066v.286A1.021,1.021,0,0,0,87.9.363a1.456,1.456,0,0,0-.264.737h-8.1a15.059,15.059,0,0,1-3.8-.4A5.389,5.389,0,0,1,73.212-.77a8.55,8.55,0,0,1-1.771-3.146,11.6,11.6,0,0,1-2.552,5.654l-.22-.264a14.322,14.322,0,0,0,1.672-5.588,16.493,16.493,0,0,0,.11-2.156,14.307,14.307,0,0,0-.176-2.574q2.178.308,2.178.594,0,.088-.176.2l-.352.22q-.11,1.694-.352,3.168A7.041,7.041,0,0,0,73.729-1.45v-4.4a28.781,28.781,0,0,0-.286-4.51,15.458,15.458,0,0,1,1.683.561q.473.209.473.363,0,.132-.2.242l-.374.242V-6.27h1.3Zm9.064-2.42q.066-.088.231-.3t.3-.209a1.287,1.287,0,0,1,.528.308,5.746,5.746,0,0,1,.726.671q.33.363.33.517a1.006,1.006,0,0,1-.33.231,2.307,2.307,0,0,1-.55.187v1.98q.066,2.486.154,3.85a1.429,1.429,0,0,1-.55.407,1.74,1.74,0,0,1-.77.209.234.234,0,0,1-.209-.132A.6.6,0,0,1,85.6-1.9l.088-.528v-.506H80.857v.44q.022.242.033.451a1.769,1.769,0,0,0,.033.3q-.044.2-.429.385a1.771,1.771,0,0,1-.781.187A.3.3,0,0,1,79.46-1.3a.5.5,0,0,1-.1-.308q.088-.924.132-2.332V-5.324a28.789,28.789,0,0,0-.264-4.268l1.738.792h4.488Zm-4.95,1.144v4.6h4.818v-4.6Z" transform="translate(166.339 145.06)" fill="#333"/>
            <path id="パス_1709" data-name="パス 1709" d="M16.8-18.546,7.978,2.178l-.792-.352L16.03-18.9Z" transform="translate(152.247 142.904)" fill="#333"/>
          </g>
          <g id="グループ_272" data-name="グループ 272" transform="translate(-1 8.26)">
            <path id="パス_1690" data-name="パス 1690" d="M16.8-18.546,7.978,2.178l-.792-.352L16.03-18.9Z" transform="translate(152.246 177.67)" fill="#333"/>
            <g id="グループ_270" data-name="グループ 270" transform="translate(0.73 -1.21)">
              <path id="パス_1693" data-name="パス 1693" d="M22.975-11q.066-.088.187-.242a1.635,1.635,0,0,1,.2-.22.249.249,0,0,1,.165-.066q.2,0,.858.649t.66.891a1.476,1.476,0,0,1-.9.33,50.5,50.5,0,0,1-.715,6.644A7.337,7.337,0,0,1,22.117.528a3.63,3.63,0,0,1-2.574.88A1.174,1.174,0,0,0,19.081.352a3.19,3.19,0,0,0-.957-.363A15.251,15.251,0,0,0,16.573-.33l.022-.4q.968.11,2.112.209t1.518.1a1.717,1.717,0,0,0,.528-.066,1.341,1.341,0,0,0,.4-.22q.572-.506,1-3.014a54.889,54.889,0,0,0,.627-6.116H16.309A18.162,18.162,0,0,1,14.021-3.4,16.128,16.128,0,0,1,8.785,1.782l-.308-.374a15.964,15.964,0,0,0,4.367-5.06,17.312,17.312,0,0,0,1.848-5.4,47.271,47.271,0,0,0,.473-6.215H12.173a22.292,22.292,0,0,0-3.3.308l-.594-1.1q1.21.132,2.926.176H24.6l.484-.7.22-.3a2.845,2.845,0,0,1,.253-.308.278.278,0,0,1,.187-.1,1.58,1.58,0,0,1,.594.363,9.72,9.72,0,0,1,.869.77q.407.407.407.561-.022.33-.55.33H16.749a42.857,42.857,0,0,1-.352,4.8h6.182ZM35.537-4.18q.044,2.728.176,5.17a1.365,1.365,0,0,1-.517.473,1.539,1.539,0,0,1-.781.209.526.526,0,0,1-.352-.132.4.4,0,0,1-.154-.308q.088-1.3.154-2.519t.088-3.2v-8.36a28.781,28.781,0,0,0-.286-4.51l1.782.858H48.825l.308-.462q.066-.088.2-.275t.264-.187a1.487,1.487,0,0,1,.561.3,7.668,7.668,0,0,1,.8.638q.374.341.374.5a1.644,1.644,0,0,1-.374.264,1.616,1.616,0,0,1-.55.176v15A2.653,2.653,0,0,1,50.233.5a1.441,1.441,0,0,1-.726.682,4.842,4.842,0,0,1-1.606.385,1.7,1.7,0,0,0-.176-.616,1,1,0,0,0-.418-.4,6.114,6.114,0,0,0-2.222-.572V-.374q2.794.22,3.3.22a.728.728,0,0,0,.495-.132.577.577,0,0,0,.143-.44V-7.964H35.537ZM41.5-15.84H35.537v7.26H41.5Zm1.408,0v7.26h6.116v-7.26ZM61.63-11.286q3.058-.11,8.074-.374l2.552-.132a23.777,23.777,0,0,0-3.432-3.652l.242-.2a16.761,16.761,0,0,1,3.52,2.178,9,9,0,0,1,1.969,2.156,3.572,3.572,0,0,1,.605,1.76,1.1,1.1,0,0,1-.176.66.566.566,0,0,1-.484.242,1.074,1.074,0,0,1-.572-.2,9.437,9.437,0,0,0-1.342-2.464Q66.91-10.5,58.418-9.64a.9.9,0,0,1-.616.462l-.55-2q1.584,0,3.586-.088,1.122-1.958,1.848-3.432a19.758,19.758,0,0,0,.957-2.145,15.231,15.231,0,0,0,.627-2.013q2.354.88,2.354,1.166,0,.088-.2.176l-.418.132q-.858,1.43-2.035,3.091t-2.342,3.005ZM61.387.264q.022.286.033.517a2.521,2.521,0,0,0,.033.341q-.044.2-.429.407a1.661,1.661,0,0,1-.8.209.355.355,0,0,1-.286-.132.467.467,0,0,1-.11-.308q.11-1.166.154-3.1V-3.586A28.78,28.78,0,0,0,59.7-8.1l1.8.858h9.812L71.66-7.7l.165-.22A1.266,1.266,0,0,1,72-8.12a.249.249,0,0,1,.165-.066,1.487,1.487,0,0,1,.561.3,6.842,6.842,0,0,1,.792.638q.363.341.363.495a1.54,1.54,0,0,1-.946.44V-3.85Q73-.77,73.091.924a1.358,1.358,0,0,1-.572.4,1.96,1.96,0,0,1-.792.2.251.251,0,0,1-.231-.132.6.6,0,0,1-.077-.308l.088-.7v-.6H61.387Zm0-6.864V-.88h10.12V-6.6Z" transform="translate(361 181)" fill="#333"/>
              <path id="パス_1698" data-name="パス 1698" d="M-69.955-14.01a6.687,6.687,0,0,1,2.565.585,5.759,5.759,0,0,1,2.475,2.16,7.574,7.574,0,0,1,1.08,4.335,7.479,7.479,0,0,1-.99,3.87,7.1,7.1,0,0,1-2.52,2.58,6.038,6.038,0,0,1-3.09.9A7.552,7.552,0,0,1-73.15-.09a5.234,5.234,0,0,1-2.19-1.53A3.661,3.661,0,0,1-76.2-4.05a1.96,1.96,0,0,1,.435-1.425,1.348,1.348,0,0,1,.975-.435,1.989,1.989,0,0,1,1.14.345,1.2,1.2,0,0,1,.51,1.065,3.018,3.018,0,0,1-.18.93l-.09.36a1.86,1.86,0,0,0-.06.45,1.825,1.825,0,0,0,.855,1.635,3.425,3.425,0,0,0,1.9.555,3.3,3.3,0,0,0,2.1-.765A5.32,5.32,0,0,0-67.065-3.5,8.285,8.285,0,0,0-66.48-6.72a7.725,7.725,0,0,0-1.11-4.38,3.419,3.419,0,0,0-2.97-1.65q-2.25,0-4.26,2.88l-.87-.57.42-11.34h10.53l-.42,2.25h-9.15l-.33,7.86a8.252,8.252,0,0,1,2.34-1.815A5.407,5.407,0,0,1-69.955-14.01Zm13.2,17.22a.176.176,0,0,1-.15-.09.292.292,0,0,1-.06-.15.173.173,0,0,1,.06-.12,4.149,4.149,0,0,0,.825-.96,1.708,1.708,0,0,0,.285-.84.724.724,0,0,0-.39-.69,2.358,2.358,0,0,1-.8-.57,1.284,1.284,0,0,1-.285-.87,1.628,1.628,0,0,1,.48-1.2,1.592,1.592,0,0,1,1.17-.48,1.568,1.568,0,0,1,1.17.5,1.716,1.716,0,0,1,.48,1.245,4.072,4.072,0,0,1-.825,2.49,6.152,6.152,0,0,1-1.875,1.71Zm16.5-14.73a7.759,7.759,0,0,1,4.05,1.92,4.823,4.823,0,0,1,1.56,3.66,7.191,7.191,0,0,1-.615,2.8,5.731,5.731,0,0,1-2.175,2.5A7.359,7.359,0,0,1-41.6.42,6.653,6.653,0,0,1-44.95-.33a4.585,4.585,0,0,1-1.86-1.815A4.442,4.442,0,0,1-47.365-4.2,1.94,1.94,0,0,1-46.9-5.625a1.465,1.465,0,0,1,1.065-.465,1.878,1.878,0,0,1,1.14.375,1.243,1.243,0,0,1,.51,1.065,1.828,1.828,0,0,1-.33.87,3.141,3.141,0,0,0-.255.42,1.059,1.059,0,0,0-.1.48,2.3,2.3,0,0,0,.66,1.59,3.089,3.089,0,0,0,2.34.72,4.093,4.093,0,0,0,2.37-.72,4.888,4.888,0,0,0,1.65-1.98,6.621,6.621,0,0,0,.6-2.88,5.13,5.13,0,0,0-1.2-3.54,4.225,4.225,0,0,0-3.33-1.35,4.889,4.889,0,0,0-.63.06,5.206,5.206,0,0,1-.72.06.913.913,0,0,1-.555-.165.543.543,0,0,1-.225-.465.554.554,0,0,1,.22-.45.86.86,0,0,1,.555-.18,3.21,3.21,0,0,1,.78.09,6.446,6.446,0,0,0,.75.06,4.112,4.112,0,0,0,2.43-.84q1.17-.84,1.17-3.6a4.793,4.793,0,0,0-1.065-3.525,3.443,3.443,0,0,0-2.475-1.035,3.805,3.805,0,0,0-1.695.4,1.529,1.529,0,0,0-.825,1.515,2.517,2.517,0,0,0,.24,1.02,1.521,1.521,0,0,1,.21.78,1.289,1.289,0,0,1-.345.93,1.137,1.137,0,0,1-.855.36A1.507,1.507,0,0,1-46.15-16.6a2.241,2.241,0,0,1-.4-1.305,3.217,3.217,0,0,1,.675-1.785,5.581,5.581,0,0,1,1.9-1.665,5.665,5.665,0,0,1,2.82-.69,6.1,6.1,0,0,1,3.045.735,5.128,5.128,0,0,1,1.995,1.95,5.227,5.227,0,0,1,.69,2.625A5.035,5.035,0,0,1-36.64-13.36,5.894,5.894,0,0,1-40.255-11.52ZM-22.405.42A4.706,4.706,0,0,1-25.54-.84a8.69,8.69,0,0,1-2.34-3.78,18.683,18.683,0,0,1-.885-6.15,18.666,18.666,0,0,1,.9-6.18,8.917,8.917,0,0,1,2.355-3.825,4.71,4.71,0,0,1,3.165-1.275,4.676,4.676,0,0,1,3.135,1.275,8.808,8.808,0,0,1,2.34,3.825,18.958,18.958,0,0,1,.885,6.18,18.4,18.4,0,0,1-.9,6.15A8.8,8.8,0,0,1-19.24-.84,4.74,4.74,0,0,1-22.405.42Zm.06-1.02q1.74,0,2.745-2.535a21.9,21.9,0,0,0,1-7.635,22.173,22.173,0,0,0-1-7.665Q-20.6-21-22.345-21q-1.77,0-2.79,2.565a21.871,21.871,0,0,0-1.02,7.665,21.6,21.6,0,0,0,1.02,7.635Q-24.115-.6-22.345-.6ZM-3.805.42A4.706,4.706,0,0,1-6.94-.84,8.69,8.69,0,0,1-9.28-4.62a18.683,18.683,0,0,1-.885-6.15,18.666,18.666,0,0,1,.9-6.18A8.917,8.917,0,0,1-6.91-20.775,4.71,4.71,0,0,1-3.745-22.05,4.676,4.676,0,0,1-.61-20.775,8.808,8.808,0,0,1,1.73-16.95a18.958,18.958,0,0,1,.885,6.18,18.4,18.4,0,0,1-.9,6.15A8.8,8.8,0,0,1-.64-.84,4.74,4.74,0,0,1-3.8.42Zm.06-1.02Q-2-.6-1-3.135A21.9,21.9,0,0,0,0-10.77a22.173,22.173,0,0,0-1-7.665Q-2.005-21-3.745-21q-1.77,0-2.79,2.565a21.871,21.871,0,0,0-1.02,7.665,21.605,21.605,0,0,0,1.02,7.635Q-5.515-.6-3.745-.6Z" transform="translate(361 181)" fill="#952600"/>
            </g>
            <g id="グループ_278" data-name="グループ 278" transform="translate(0.046)">
              <path id="パス_1703" data-name="パス 1703" d="M-95.008,0h-9.464l-.26-.572a16.31,16.31,0,0,1,1.846-3.64q1.118-1.638,2.99-3.9a27.957,27.957,0,0,0,2.756-3.653,5.709,5.709,0,0,0,.858-2.951,4.072,4.072,0,0,0-.78-2.47,2.826,2.826,0,0,0-2.444-1.066,3.492,3.492,0,0,0-2.08.611,1.794,1.794,0,0,0-.858,1.5,1.583,1.583,0,0,0,.091.572,2.375,2.375,0,0,0,.3.52,3.344,3.344,0,0,1,.273.507,1.4,1.4,0,0,1,.091.533,1.353,1.353,0,0,1-.377,1,1.319,1.319,0,0,1-.975.377,1.237,1.237,0,0,1-.949-.507,2.086,2.086,0,0,1-.429-1.391,4.228,4.228,0,0,1,.585-2.028,4.956,4.956,0,0,1,1.768-1.807,5.358,5.358,0,0,1,2.9-.741,5.473,5.473,0,0,1,3.016.741,4.185,4.185,0,0,1,1.625,1.846,5.706,5.706,0,0,1,.481,2.3,4.669,4.669,0,0,1-.364,1.911A5.664,5.664,0,0,1-95.4-10.8q-.624.689-1.872,1.833-.286.286-.728.676t-1.014.962a19.352,19.352,0,0,0-3.9,5.434h3.094a13.353,13.353,0,0,0,2.834-.221,2.549,2.549,0,0,0,1.417-.793,6.378,6.378,0,0,0,.949-1.846q.052-.156.182-.156a2.153,2.153,0,0,1,.234.052,1.019,1.019,0,0,1,.234.1.175.175,0,0,1,.078.156l-.026.13Zm6.252,0a.121.121,0,0,1-.121-.077.616.616,0,0,1-.033-.231q0-.33.154-.33h.352a2.684,2.684,0,0,0,1.452-.3A1.194,1.194,0,0,0-86.512-2V-13.97a1.2,1.2,0,0,0-.462-1.078,2.621,2.621,0,0,0-1.43-.308h-.352q-.154,0-.154-.308t.154-.308h6.248a.139.139,0,0,1,.143.077.616.616,0,0,1,.033.231q0,.308-.176.308h-.33a2.6,2.6,0,0,0-1.452.319,1.2,1.2,0,0,0-.462,1.067V-2A1.1,1.1,0,0,0-84.3-.979a3.2,3.2,0,0,0,1.463.319l.506.022.88-.022a5.6,5.6,0,0,0,3.146-.891,9.272,9.272,0,0,0,2.222-2.277.2.2,0,0,1,.176-.11.507.507,0,0,1,.2.066q.176.088.176.22l-.022.11q-.418,1.144-.638,1.672L-76.876,0Zm17.908,0q-.176,0-.176-.308t.176-.308h.352a2.631,2.631,0,0,0,1.43-.3,1.194,1.194,0,0,0,.44-1.067V-13.97a1.221,1.221,0,0,0-.44-1.089,2.631,2.631,0,0,0-1.43-.3h-.352q-.154,0-.154-.308t.154-.308L-68.384-16q2.376,0,4,.066a10.355,10.355,0,0,1,3.883.9,6.787,6.787,0,0,1,2.926,2.563,8.093,8.093,0,0,1,1.133,4.477,8.05,8.05,0,0,1-1.133,4.455A6.862,6.862,0,0,1-60.5-.957a10.225,10.225,0,0,1-3.883.913q-1.452.066-3.63.066Zm6.05-.66a6.929,6.929,0,0,0,2.717-.616,5.859,5.859,0,0,0,2.53-2.255,7.961,7.961,0,0,0,1.089-4.455,8.007,8.007,0,0,0-1.089-4.477,5.782,5.782,0,0,0-2.53-2.244,7.035,7.035,0,0,0-2.717-.6h-.176A2.547,2.547,0,0,0-66.415-15a1.239,1.239,0,0,0-.429,1.078v11.9a1.212,1.212,0,0,0,.429,1.056,2.547,2.547,0,0,0,1.441.308Zm29.436.022a.121.121,0,0,1,.121.077.616.616,0,0,1,.033.231q0,.33-.154.33H-41.94q-.154,0-.154-.33,0-.308.154-.308,1.782,0,1.782-.66a1.235,1.235,0,0,0-.33-.682l-5.1-6.05L-47.48-6.16V-2a1.194,1.194,0,0,0,.44,1.067,2.631,2.631,0,0,0,1.43.3h.374q.154,0,.154.308,0,.33-.154.33h-6.248q-.154,0-.154-.33A.616.616,0,0,1-51.6-.556a.121.121,0,0,1,.121-.077h.33A2.605,2.605,0,0,0-49.7-.941,1.2,1.2,0,0,0-49.266-2V-13.97a1.207,1.207,0,0,0-.451-1.089,2.692,2.692,0,0,0-1.441-.3h-.33q-.154,0-.154-.308t.154-.308h6.248a.139.139,0,0,1,.143.077.616.616,0,0,1,.033.231q0,.308-.176.308h-.374a2.547,2.547,0,0,0-1.441.308,1.239,1.239,0,0,0-.429,1.078V-7.3q3.564-3.52,5.742-5.742l.77-.77a1.085,1.085,0,0,0,.33-.682.711.711,0,0,0-.4-.616,2.161,2.161,0,0,0-1.122-.242q-.154,0-.154-.308t.154-.308h5.7a.139.139,0,0,1,.143.077.616.616,0,0,1,.033.231q0,.308-.176.308a4.512,4.512,0,0,0-3.036,1.4q-.506.462-4.8,4.664l1.98,2.354q3.454,4.136,3.784,4.51A6.336,6.336,0,0,0-37-1.012,3.26,3.26,0,0,0-35.362-.638Z" transform="translate(162.732 180.11)" fill="#333"/>
              <path id="パス_1704" data-name="パス 1704" d="M-27.055-10.264h4.116v.847h-4.116V-5.3H-27.9V-9.417h-4.116v-.847H-27.9V-14.38h.847Zm12.4,6.758a7.647,7.647,0,0,1-1.445-.16,9,9,0,0,1-1.448-.4,1.33,1.33,0,0,0-.423-.068A.949.949,0,0,0-18.442-4a3.454,3.454,0,0,0-.584.449l-.779-3.3-.017-.1q0-.085.169-.152l.1-.017a.207.207,0,0,1,.186.136,4.987,4.987,0,0,0,4.539,2.9,4.091,4.091,0,0,0,2.075-.55A2,2,0,0,0-11.8-6.523a2.179,2.179,0,0,0-.339-1.16,2.471,2.471,0,0,0-.982-.889,7.691,7.691,0,0,0-1.016-.44q-.491-.169-1.2-.39a11.882,11.882,0,0,1-1.491-.508,4.171,4.171,0,0,1-1.787-1.355,2.96,2.96,0,0,1-.483-1.643,3.686,3.686,0,0,1,.3-1.389A3.01,3.01,0,0,1-17.7-15.6a3.608,3.608,0,0,1,2.126-.559,5.1,5.1,0,0,1,1.05.11,9.209,9.209,0,0,1,1.152.33,1.726,1.726,0,0,0,.457.085,1.226,1.226,0,0,0,.932-.542l.847,2.88.017.119q0,.1-.136.152a.538.538,0,0,1-.152.034.2.2,0,0,1-.169-.1A6.4,6.4,0,0,0-12.3-14a5.825,5.825,0,0,0-1.406-1.084,3.86,3.86,0,0,0-1.965-.508,2.324,2.324,0,0,0-1.592.483,2.232,2.232,0,0,0-.694.982,2.858,2.858,0,0,0-.152.754,2.181,2.181,0,0,0,1.44,1.931,14.064,14.064,0,0,0,1.9.678q.745.22,1.279.407a8.855,8.855,0,0,1,1.042.44,3.334,3.334,0,0,1,1.965,3.151,2.943,2.943,0,0,1-.5,1.677,3.37,3.37,0,0,1-1.448,1.177,5.31,5.31,0,0,1-2.22.41Z" transform="translate(160.732 183.637)" fill="#333"/>
            </g>
            <path id="パス_1705" data-name="パス 1705" d="M34.768-11.778a4.408,4.408,0,0,1,2.6.767A4.916,4.916,0,0,1,39.032-9,6.35,6.35,0,0,1,39.6-6.318a8.028,8.028,0,0,1-.689,3.328,5.947,5.947,0,0,1-1.95,2.444,4.827,4.827,0,0,1-2.9.91,5.029,5.029,0,0,1-3.042-.988,6.44,6.44,0,0,1-2.106-2.769,10.427,10.427,0,0,1-.754-4.095,17.348,17.348,0,0,1,1.04-6.357A9.623,9.623,0,0,1,31.817-17.8,4.858,4.858,0,0,1,34.9-19.11a5.517,5.517,0,0,1,2.067.351,3.052,3.052,0,0,1,1.313.923,1.93,1.93,0,0,1,.442,1.2,1.255,1.255,0,0,1-.377.923,1.225,1.225,0,0,1-.9.377,1.243,1.243,0,0,1-.962-.481,2.081,2.081,0,0,1-.468-1.261,1.482,1.482,0,0,0-.312-.884,1.113,1.113,0,0,0-.858-.286,2.71,2.71,0,0,0-2.288,1.417,10.862,10.862,0,0,0-1.43,3.484,26.267,26.267,0,0,0-.65,4.147A5.38,5.38,0,0,1,32.4-11.128,4.729,4.729,0,0,1,34.768-11.778Zm-.7,11.154a2.4,2.4,0,0,0,1.7-.7A4.663,4.663,0,0,0,36.926-3.25a8.436,8.436,0,0,0,.416-2.73q0-2.756-1.053-3.666a3.416,3.416,0,0,0-2.275-.91,3.47,3.47,0,0,0-2.093.767A4.37,4.37,0,0,0,30.426-7.41a14.068,14.068,0,0,0,.767,4.836,2.817,2.817,0,0,0,2.873,1.95ZM51.2-11.778a4.408,4.408,0,0,1,2.6.767A4.916,4.916,0,0,1,55.464-9a6.35,6.35,0,0,1,.572,2.678,8.028,8.028,0,0,1-.689,3.328A5.947,5.947,0,0,1,53.4-.546a4.827,4.827,0,0,1-2.9.91,5.029,5.029,0,0,1-3.042-.988A6.44,6.44,0,0,1,45.35-3.393a10.427,10.427,0,0,1-.75-4.095,17.348,17.348,0,0,1,1.04-6.357A9.623,9.623,0,0,1,48.249-17.8a4.858,4.858,0,0,1,3.081-1.31,5.517,5.517,0,0,1,2.067.351,3.052,3.052,0,0,1,1.313.923,1.93,1.93,0,0,1,.442,1.2,1.255,1.255,0,0,1-.377.923,1.225,1.225,0,0,1-.9.377,1.243,1.243,0,0,1-.962-.481,2.081,2.081,0,0,1-.468-1.261,1.482,1.482,0,0,0-.312-.884,1.113,1.113,0,0,0-.858-.286,2.71,2.71,0,0,0-2.288,1.417,10.862,10.862,0,0,0-1.43,3.484A26.267,26.267,0,0,0,46.91-9.2a5.38,5.38,0,0,1,1.924-1.924,4.729,4.729,0,0,1,2.366-.654ZM50.5-.624a2.4,2.4,0,0,0,1.7-.7A4.663,4.663,0,0,0,53.358-3.25a8.436,8.436,0,0,0,.416-2.73q0-2.756-1.053-3.666a3.416,3.416,0,0,0-2.275-.91,3.47,3.47,0,0,0-2.093.767,4.37,4.37,0,0,0-1.5,2.379,14.068,14.068,0,0,0,.767,4.836A2.817,2.817,0,0,0,50.5-.624Zm27-7.164c0-2.992-1.122-4.2-3.3-4.2a4.484,4.484,0,0,0-3.652,2.156,2.8,2.8,0,0,0-2.97-2.156,4.369,4.369,0,0,0-3.564,2.134l-.066-1.826-.308-.176-3.256.7v.7l1.76.044c.066,1.144.088,2.442.088,3.982v1.26c0,1.188-.022,2.948-.044,4.224L60.51-.77V0h5.28V-.77L64.074-.946c-.022-1.276-.044-3.036-.044-4.224V-9a3.688,3.688,0,0,1,2.816-1.694c1.3,0,2.134.792,2.134,2.9V-5.17c0,1.232-.022,2.97-.044,4.224L67.264-.77V0H72.5V-.77L70.806-.946c-.022-1.276-.044-2.992-.044-4.224V-7.964a8.449,8.449,0,0,0-.066-1.1,3.871,3.871,0,0,1,2.9-1.628c1.21,0,2.09.77,2.09,3.036V-5.17c0,1.21-.022,2.97-.044,4.224l-1.69.176V0h5.324V-.77L77.538-.946c-.022-1.254-.044-3.014-.044-4.224Zm.88-5.764,1.144-.946c1.1-.9,1.716-1.562,1.716-2.42,0-.836-.594-1.5-1.738-1.5-1.012,0-1.782.462-1.892,1.408a.4.4,0,0,0,.418.286c.242,0,.484-.088.616-.616l.154-.594a2.391,2.391,0,0,1,.4-.022.944.944,0,0,1,.742.3.944.944,0,0,1,.248.759c0,.792-.462,1.3-1.254,2.156l-1.386,1.408v.66h3.938v-.88ZM93.23-11.66q.088-.11.209-.275a2.251,2.251,0,0,1,.209-.253.254.254,0,0,1,.176-.088,1.39,1.39,0,0,1,.55.319,6.321,6.321,0,0,1,.77.693q.352.374.352.528-.088.352-.55.352H89.022a22.292,22.292,0,0,0-3.3.308l-.55-1.144q1.21.132,2.926.176h1.584v-3.41H88.538a8.267,8.267,0,0,0-2.024.308l-.572-1.144q1.056.132,2.552.176h1.188a21.64,21.64,0,0,0-.22-3.432q2.112.616,2.112.924,0,.11-.176.22l-.374.242v2.046h1.364l.4-.594q.066-.088.187-.264a1.941,1.941,0,0,1,.209-.264.254.254,0,0,1,.176-.088,1.331,1.331,0,0,1,.539.319,7.5,7.5,0,0,1,.759.682q.352.363.352.517-.088.352-.55.352H91.024v3.41h1.782Zm9.592-6.028q.044-.066.143-.209a1.123,1.123,0,0,1,.176-.209.249.249,0,0,1,.165-.066q.2,0,.836.594t.638.836a1.323,1.323,0,0,1-.792.308,24.22,24.22,0,0,1-.407,3.817,3.575,3.575,0,0,1-.825,1.859,2.821,2.821,0,0,1-1.914.594,1.211,1.211,0,0,0-.352-.99,4.632,4.632,0,0,0-1.694-.484l.022-.374q.616.066,1.3.11t1.122.044a2.06,2.06,0,0,0,.429-.033.624.624,0,0,0,.253-.121q.55-.506.748-4.576h-3.1a10.194,10.194,0,0,1-1.265,4.158A8.744,8.744,0,0,1,94.6-9.218l-.308-.33a8.061,8.061,0,0,0,2.9-3.19,10.835,10.835,0,0,0,.924-3.85H97.03a7.805,7.805,0,0,0-1.936.308l-.572-1.12q1.21.132,2.926.176h5.038Zm-9.68,10.8q.066-.088.187-.275a1.742,1.742,0,0,1,.209-.275.254.254,0,0,1,.176-.088,1.265,1.265,0,0,1,.528.33,7.45,7.45,0,0,1,.737.7q.341.374.341.528-.066.352-.572.352H91.42V-.77a8.173,8.173,0,0,0,1.925.418,26.3,26.3,0,0,0,2.629.11q6.864,0,8.954-.066v.286a1.021,1.021,0,0,0-.638.385,1.456,1.456,0,0,0-.264.737h-8.1a15.059,15.059,0,0,1-3.8-.4A5.389,5.389,0,0,1,89.6-.77a8.55,8.55,0,0,1-1.771-3.146,11.6,11.6,0,0,1-2.552,5.654l-.22-.264a14.322,14.322,0,0,0,1.672-5.588,16.494,16.494,0,0,0,.11-2.156,14.307,14.307,0,0,0-.176-2.574q2.178.308,2.178.594,0,.088-.176.2l-.352.22q-.11,1.694-.352,3.168A7.041,7.041,0,0,0,90.117-1.45v-4.4a28.781,28.781,0,0,0-.286-4.51,15.458,15.458,0,0,1,1.683.561q.473.209.473.363,0,.132-.2.242l-.374.242V-6.27h1.3Zm9.064-2.42q.066-.088.231-.3t.3-.209a1.287,1.287,0,0,1,.528.308,5.747,5.747,0,0,1,.726.671q.33.363.33.517a1.006,1.006,0,0,1-.33.231,2.307,2.307,0,0,1-.55.187v1.98q.066,2.486.154,3.85a1.429,1.429,0,0,1-.55.407,1.74,1.74,0,0,1-.77.209.234.234,0,0,1-.209-.132.6.6,0,0,1-.077-.308l.088-.528v-.506H97.25v.44q.022.242.033.451a1.769,1.769,0,0,0,.033.3q-.044.2-.429.385a1.771,1.771,0,0,1-.781.187.3.3,0,0,1-.253-.132.5.5,0,0,1-.1-.308q.088-.924.132-2.332V-5.324a28.789,28.789,0,0,0-.264-4.268L97.36-8.8h4.488ZM97.25-8.162v4.6h4.818v-4.6Z" transform="translate(149.882 180.11)" fill="#333"/>
          </g>
          <g id="グループ_273" data-name="グループ 273" transform="translate(-1 10.37)">
            <path id="パス_1691" data-name="パス 1691" d="M-82.268-9.984a6.725,6.725,0,0,1,3.51,1.664,4.18,4.18,0,0,1,1.352,3.172,6.232,6.232,0,0,1-.533,2.431A4.967,4.967,0,0,1-79.824-.546a6.377,6.377,0,0,1-3.614.91,5.766,5.766,0,0,1-2.9-.65A3.973,3.973,0,0,1-87.95-1.859a3.85,3.85,0,0,1-.48-1.781,1.681,1.681,0,0,1,.4-1.235,1.27,1.27,0,0,1,.923-.4,1.628,1.628,0,0,1,.988.325,1.078,1.078,0,0,1,.442.923,1.584,1.584,0,0,1-.286.754,2.721,2.721,0,0,0-.221.364.918.918,0,0,0-.091.416A2,2,0,0,0-85.7-1.118a2.677,2.677,0,0,0,2.028.624,3.547,3.547,0,0,0,2.054-.624,4.236,4.236,0,0,0,1.43-1.716,5.738,5.738,0,0,0,.52-2.5A4.446,4.446,0,0,0-80.708-8.4a3.661,3.661,0,0,0-2.886-1.17,4.237,4.237,0,0,0-.546.052,4.511,4.511,0,0,1-.624.052.791.791,0,0,1-.481-.143.471.471,0,0,1-.195-.4.48.48,0,0,1,.195-.39.746.746,0,0,1,.481-.156,2.782,2.782,0,0,1,.676.078,5.586,5.586,0,0,0,.65.052,3.564,3.564,0,0,0,2.106-.728q1.014-.728,1.014-3.12a4.154,4.154,0,0,0-.923-3.055,2.984,2.984,0,0,0-2.145-.9,3.3,3.3,0,0,0-1.469.351,1.325,1.325,0,0,0-.715,1.313,2.181,2.181,0,0,0,.208.884,1.318,1.318,0,0,1,.182.68,1.117,1.117,0,0,1-.3.806.985.985,0,0,1-.741.312,1.306,1.306,0,0,1-1.157-.507,1.942,1.942,0,0,1-.351-1.131,2.788,2.788,0,0,1,.585-1.547,4.837,4.837,0,0,1,1.651-1.443,4.91,4.91,0,0,1,2.444-.6,5.288,5.288,0,0,1,2.639.637,4.444,4.444,0,0,1,1.729,1.69,4.53,4.53,0,0,1,.6,2.275,4.363,4.363,0,0,1-1.053,2.925A5.108,5.108,0,0,1-82.268-9.984ZM-72.168,0a.121.121,0,0,1-.121-.077.616.616,0,0,1-.033-.231q0-.33.154-.33h.352a2.684,2.684,0,0,0,1.452-.3A1.194,1.194,0,0,0-69.924-2V-13.97a1.2,1.2,0,0,0-.462-1.078,2.621,2.621,0,0,0-1.43-.308h-.352q-.154,0-.154-.308t.154-.308h6.248a.139.139,0,0,1,.143.077.616.616,0,0,1,.033.231q0,.308-.176.308h-.33a2.6,2.6,0,0,0-1.452.319,1.2,1.2,0,0,0-.462,1.067V-2a1.1,1.1,0,0,0,.451,1.023A3.2,3.2,0,0,0-66.25-.66l.506.022.88-.022a5.6,5.6,0,0,0,3.146-.891A9.272,9.272,0,0,0-59.5-3.828a.2.2,0,0,1,.176-.11.507.507,0,0,1,.2.066q.176.088.176.22l-.022.11q-.418,1.144-.638,1.672L-60.288,0ZM-54.26,0q-.176,0-.176-.308t.176-.308h.352a2.631,2.631,0,0,0,1.43-.3,1.194,1.194,0,0,0,.44-1.067V-13.97a1.221,1.221,0,0,0-.44-1.089,2.631,2.631,0,0,0-1.43-.3h-.352q-.154,0-.154-.308t.154-.308L-51.8-16q2.376,0,4,.066a10.355,10.355,0,0,1,3.883.9,6.787,6.787,0,0,1,2.926,2.563A8.093,8.093,0,0,1-39.85-7.986a8.05,8.05,0,0,1-1.133,4.455A6.862,6.862,0,0,1-43.909-.957a10.225,10.225,0,0,1-3.883.913q-1.452.066-3.63.066Zm6.05-.66a6.929,6.929,0,0,0,2.717-.616,5.859,5.859,0,0,0,2.53-2.255,7.961,7.961,0,0,0,1.089-4.455,8.007,8.007,0,0,0-1.089-4.477,5.782,5.782,0,0,0-2.53-2.244,7.035,7.035,0,0,0-2.717-.6h-.176A2.547,2.547,0,0,0-49.827-15a1.239,1.239,0,0,0-.429,1.078v11.9a1.212,1.212,0,0,0,.429,1.056,2.547,2.547,0,0,0,1.441.308Zm29.436.022a.121.121,0,0,1,.121.077.616.616,0,0,1,.033.231q0,.33-.154.33h-6.578q-.154,0-.154-.33,0-.308.154-.308,1.782,0,1.782-.66a1.235,1.235,0,0,0-.33-.682L-29-8.03l-1.9,1.87V-2a1.194,1.194,0,0,0,.44,1.067,2.631,2.631,0,0,0,1.43.3h.374q.154,0,.154.308,0,.33-.154.33H-34.9q-.154,0-.154-.33a.616.616,0,0,1,.033-.231A.121.121,0,0,1-34.9-.638h.33a2.6,2.6,0,0,0,1.452-.308A1.2,1.2,0,0,0-32.678-2V-13.97a1.207,1.207,0,0,0-.451-1.089,2.692,2.692,0,0,0-1.441-.3h-.33q-.154,0-.154-.308t.154-.308h6.248a.139.139,0,0,1,.143.077.616.616,0,0,1,.033.231q0,.308-.176.308h-.374a2.547,2.547,0,0,0-1.441.308A1.239,1.239,0,0,0-30.9-13.97V-7.3q3.564-3.52,5.742-5.742l.77-.77a1.085,1.085,0,0,0,.33-.682.711.711,0,0,0-.4-.616,2.161,2.161,0,0,0-1.122-.242q-.154,0-.154-.308t.154-.308h5.7a.139.139,0,0,1,.143.077.616.616,0,0,1,.033.231q0,.308-.176.308a4.512,4.512,0,0,0-3.036,1.408q-.506.462-4.8,4.664l1.98,2.354q3.454,4.136,3.784,4.51a6.336,6.336,0,0,0,1.552,1.4,3.26,3.26,0,0,0,1.626.374Z" transform="translate(146.43 219)" fill="#333"/>
            <g id="グループ_271" data-name="グループ 271" transform="translate(0 -3.32)">
              <path id="パス_1692" data-name="パス 1692" d="M23.425-11q.066-.088.187-.242a1.635,1.635,0,0,1,.2-.22.249.249,0,0,1,.165-.066q.2,0,.858.649t.66.891a1.476,1.476,0,0,1-.9.33,50.5,50.5,0,0,1-.715,6.644A7.337,7.337,0,0,1,22.567.528a3.63,3.63,0,0,1-2.574.88A1.174,1.174,0,0,0,19.531.352a3.19,3.19,0,0,0-.957-.363A15.251,15.251,0,0,0,17.023-.33l.022-.4q.968.11,2.112.209t1.518.1A1.717,1.717,0,0,0,21.2-.484a1.341,1.341,0,0,0,.4-.22q.572-.506,1-3.014a54.887,54.887,0,0,0,.627-6.116H16.759A18.162,18.162,0,0,1,14.471-3.4,16.128,16.128,0,0,1,9.235,1.782l-.308-.374a15.964,15.964,0,0,0,4.367-5.06,17.312,17.312,0,0,0,1.848-5.4,47.272,47.272,0,0,0,.473-6.215H12.623a22.292,22.292,0,0,0-3.3.308l-.594-1.1q1.21.132,2.926.176h13.4l.484-.7.22-.3a2.845,2.845,0,0,1,.253-.308.278.278,0,0,1,.187-.1,1.58,1.58,0,0,1,.594.363,9.72,9.72,0,0,1,.869.77q.407.407.407.561-.022.33-.55.33H17.2a42.857,42.857,0,0,1-.352,4.8H23.03ZM35.987-4.18q.044,2.728.176,5.17a1.365,1.365,0,0,1-.517.473,1.539,1.539,0,0,1-.781.209.526.526,0,0,1-.352-.132.4.4,0,0,1-.154-.308q.088-1.3.154-2.519t.088-3.2v-8.36a28.781,28.781,0,0,0-.286-4.51L36.1-16.5H49.275l.308-.462q.066-.088.2-.275t.264-.187a1.487,1.487,0,0,1,.561.3,7.668,7.668,0,0,1,.8.638q.374.341.374.5a1.644,1.644,0,0,1-.374.264,1.616,1.616,0,0,1-.55.176v15A2.653,2.653,0,0,1,50.683.5a1.441,1.441,0,0,1-.726.682,4.842,4.842,0,0,1-1.606.385,1.7,1.7,0,0,0-.176-.616,1,1,0,0,0-.418-.4,6.114,6.114,0,0,0-2.222-.572V-.374q2.794.22,3.3.22a.728.728,0,0,0,.495-.132.577.577,0,0,0,.143-.44V-7.964H35.987Zm5.962-11.66H35.987v7.26h5.962Zm1.408,0v7.26h6.116v-7.26Zm18.722,4.554q3.058-.11,8.074-.374l2.552-.132a23.777,23.777,0,0,0-3.432-3.652l.242-.2a16.761,16.761,0,0,1,3.52,2.178A9,9,0,0,1,75-11.308a3.572,3.572,0,0,1,.605,1.76,1.1,1.1,0,0,1-.176.66.566.566,0,0,1-.484.242,1.074,1.074,0,0,1-.572-.2,9.437,9.437,0,0,0-1.342-2.464q-5.676.814-14.168,1.672a.9.9,0,0,1-.616.462l-.55-2q1.584,0,3.586-.088Q62.4-13.222,63.131-14.7a19.759,19.759,0,0,0,.957-2.145,15.233,15.233,0,0,0,.627-2.013q2.354.88,2.354,1.166,0,.088-.2.176l-.418.132q-.858,1.43-2.035,3.091T62.079-11.286ZM61.837.264q.022.286.033.517a2.521,2.521,0,0,0,.033.341q-.044.2-.429.407a1.661,1.661,0,0,1-.8.209.355.355,0,0,1-.286-.132.467.467,0,0,1-.11-.308q.11-1.166.154-3.1V-3.586a28.78,28.78,0,0,0-.286-4.51l1.8.858h9.812L72.11-7.7l.165-.22a1.266,1.266,0,0,1,.176-.2.249.249,0,0,1,.165-.066,1.487,1.487,0,0,1,.561.3,6.842,6.842,0,0,1,.792.638q.363.341.363.495a1.54,1.54,0,0,1-.946.44V-3.85q.066,3.08.154,4.774a1.358,1.358,0,0,1-.572.4,1.96,1.96,0,0,1-.792.2.251.251,0,0,1-.231-.132.6.6,0,0,1-.077-.308l.088-.7v-.6H61.837Zm0-6.864V-.88h10.12V-6.6Z" transform="translate(362 222)" fill="#333"/>
              <path id="パス_1699" data-name="パス 1699" d="M-68.845-13.59a5.086,5.086,0,0,1,3,.885,5.672,5.672,0,0,1,1.92,2.325,7.327,7.327,0,0,1,.66,3.09,9.263,9.263,0,0,1-.795,3.84A6.862,6.862,0,0,1-66.31-.63,5.569,5.569,0,0,1-69.655.42a5.8,5.8,0,0,1-3.51-1.14,7.431,7.431,0,0,1-2.43-3.2,12.031,12.031,0,0,1-.87-4.725,20.018,20.018,0,0,1,1.2-7.335,11.1,11.1,0,0,1,3.015-4.56A5.606,5.606,0,0,1-68.7-22.055a6.366,6.366,0,0,1,2.385.405A3.522,3.522,0,0,1-64.8-20.585a2.227,2.227,0,0,1,.51,1.38,1.448,1.448,0,0,1-.435,1.065,1.414,1.414,0,0,1-1.035.435,1.434,1.434,0,0,1-1.11-.555,2.4,2.4,0,0,1-.54-1.455,1.71,1.71,0,0,0-.36-1.02,1.284,1.284,0,0,0-.99-.33,3.127,3.127,0,0,0-2.64,1.635,12.533,12.533,0,0,0-1.65,4.02,30.309,30.309,0,0,0-.75,4.785,6.208,6.208,0,0,1,2.22-2.22,5.456,5.456,0,0,1,2.73-.745Zm-.81,12.87a2.775,2.775,0,0,0,1.965-.81,5.38,5.38,0,0,0,1.335-2.22,9.734,9.734,0,0,0,.48-3.15q0-3.18-1.215-4.23a3.942,3.942,0,0,0-2.625-1.05,4,4,0,0,0-2.415.885A5.042,5.042,0,0,0-73.855-8.55a16.233,16.233,0,0,0,.885,5.58A3.25,3.25,0,0,0-69.655-.72Zm13.35,3.93a.176.176,0,0,1-.15-.09.292.292,0,0,1-.06-.15.173.173,0,0,1,.06-.12,4.149,4.149,0,0,0,.825-.96,1.708,1.708,0,0,0,.285-.84.724.724,0,0,0-.39-.69,2.358,2.358,0,0,1-.8-.57,1.284,1.284,0,0,1-.285-.87,1.628,1.628,0,0,1,.48-1.2,1.592,1.592,0,0,1,1.17-.48,1.568,1.568,0,0,1,1.17.5,1.716,1.716,0,0,1,.48,1.245,4.072,4.072,0,0,1-.825,2.49,6.152,6.152,0,0,1-1.875,1.71Zm16.5-14.73a7.759,7.759,0,0,1,4.05,1.92A4.823,4.823,0,0,1-34.2-5.94a7.191,7.191,0,0,1-.615,2.8,5.731,5.731,0,0,1-2.175,2.5A7.359,7.359,0,0,1-41.155.42,6.653,6.653,0,0,1-44.5-.33a4.585,4.585,0,0,1-1.86-1.815A4.442,4.442,0,0,1-46.915-4.2a1.94,1.94,0,0,1,.465-1.425,1.465,1.465,0,0,1,1.065-.465,1.878,1.878,0,0,1,1.14.375,1.243,1.243,0,0,1,.51,1.065,1.828,1.828,0,0,1-.33.87,3.14,3.14,0,0,0-.255.42,1.059,1.059,0,0,0-.1.48,2.3,2.3,0,0,0,.66,1.59,3.089,3.089,0,0,0,2.34.72,4.093,4.093,0,0,0,2.37-.72A4.888,4.888,0,0,0-37.4-3.27a6.621,6.621,0,0,0,.6-2.88A5.13,5.13,0,0,0-38-9.69a4.225,4.225,0,0,0-3.33-1.35,4.889,4.889,0,0,0-.63.06,5.206,5.206,0,0,1-.72.06.913.913,0,0,1-.555-.165.543.543,0,0,1-.225-.465.554.554,0,0,1,.22-.45.86.86,0,0,1,.555-.18,3.21,3.21,0,0,1,.78.09,6.446,6.446,0,0,0,.75.06,4.112,4.112,0,0,0,2.43-.84q1.17-.84,1.17-3.6a4.793,4.793,0,0,0-1.065-3.525A3.443,3.443,0,0,0-41.1-21.03a3.805,3.805,0,0,0-1.695.4,1.529,1.529,0,0,0-.825,1.515,2.517,2.517,0,0,0,.24,1.02,1.521,1.521,0,0,1,.21.78,1.289,1.289,0,0,1-.345.93,1.137,1.137,0,0,1-.855.36A1.507,1.507,0,0,1-45.7-16.6a2.241,2.241,0,0,1-.4-1.305,3.217,3.217,0,0,1,.675-1.785,5.581,5.581,0,0,1,1.9-1.665,5.665,5.665,0,0,1,2.82-.69,6.1,6.1,0,0,1,3.045.735,5.128,5.128,0,0,1,1.995,1.95,5.227,5.227,0,0,1,.69,2.625A5.035,5.035,0,0,1-36.19-13.36a5.894,5.894,0,0,1-3.615,1.84ZM-21.955.42A4.706,4.706,0,0,1-25.09-.84a8.69,8.69,0,0,1-2.34-3.78,18.683,18.683,0,0,1-.885-6.15,18.666,18.666,0,0,1,.9-6.18,8.917,8.917,0,0,1,2.355-3.825A4.71,4.71,0,0,1-21.9-22.05a4.676,4.676,0,0,1,3.135,1.275,8.808,8.808,0,0,1,2.34,3.825,18.958,18.958,0,0,1,.885,6.18,18.4,18.4,0,0,1-.9,6.15A8.8,8.8,0,0,1-18.79-.84,4.74,4.74,0,0,1-21.955.42ZM-21.9-.6q1.74,0,2.745-2.535a21.9,21.9,0,0,0,1-7.635,22.173,22.173,0,0,0-1-7.665Q-20.155-21-21.9-21q-1.77,0-2.79,2.565A21.871,21.871,0,0,0-25.7-10.77a21.605,21.605,0,0,0,1.02,7.635Q-23.665-.6-21.9-.6ZM-3.355.42A4.706,4.706,0,0,1-6.49-.84,8.69,8.69,0,0,1-8.83-4.62a18.683,18.683,0,0,1-.885-6.15,18.666,18.666,0,0,1,.9-6.18A8.917,8.917,0,0,1-6.46-20.775,4.71,4.71,0,0,1-3.295-22.05,4.676,4.676,0,0,1-.16-20.775,8.808,8.808,0,0,1,2.18-16.95a18.958,18.958,0,0,1,.885,6.18,18.4,18.4,0,0,1-.9,6.15A8.8,8.8,0,0,1-.19-.84,4.74,4.74,0,0,1-3.355.42ZM-3.3-.6q1.74,0,2.745-2.535A21.9,21.9,0,0,0,.455-10.77,22.173,22.173,0,0,0-.55-18.435Q-1.555-21-3.3-21q-1.77,0-2.79,2.565a21.871,21.871,0,0,0-1.02,7.665,21.6,21.6,0,0,0,1.02,7.635Q-5.065-.6-3.3-.6Z" transform="translate(362 222)" fill="#952600"/>
            </g>
            <path id="パス_1710" data-name="パス 1710" d="M17.192.338a1.058,1.058,0,0,1-1-.663,3.475,3.475,0,0,1-.325-1.547,15.831,15.831,0,0,1,2.08-6.812q2.08-4.082,4.81-8.346h-4.6a6.371,6.371,0,0,0-2.4.351,2.579,2.579,0,0,0-1.222,1,11.89,11.89,0,0,0-.923,2.106.355.355,0,0,1-.091.13.213.213,0,0,1-.117.026l-.208-.052a1.019,1.019,0,0,1-.234-.1.153.153,0,0,1-.078-.13l.052-.286L14-18.925h10.14l.26.572q-2.548,4.342-3.783,6.994a22.245,22.245,0,0,0-1.677,4.784,24.538,24.538,0,0,0-.442,4.94Q18.492.338,17.192.338ZM30.608,0q-.182,0-.182-.364,0-.39.182-.39h.416a4.614,4.614,0,0,0,2.054-.39,1.285,1.285,0,0,0,.78-1.222V-14.82a2.58,2.58,0,0,0-.143-1.053.876.876,0,0,0-.676-.364,14.121,14.121,0,0,0-1.989-.091h-.442q-.182,0-.182-.39,0-.364.182-.364a8.207,8.207,0,0,0,2.912-.481,7.381,7.381,0,0,0,2.418-1.547V-2.366q0,1.612,2.834,1.612h.39a.143.143,0,0,1,.143.091.823.823,0,0,1,.039.3q0,.364-.182.364Zm30.61-7.788c0-2.992-1.122-4.2-3.3-4.2a4.484,4.484,0,0,0-3.652,2.156A2.8,2.8,0,0,0,51.3-11.99a4.369,4.369,0,0,0-3.564,2.134l-.066-1.826-.308-.176-3.256.7v.7l1.76.044c.066,1.144.088,2.442.088,3.982V-5.17c0,1.188-.022,2.948-.044,4.224L44.234-.77V0h5.28V-.77L47.8-.946c-.022-1.276-.044-3.036-.044-4.224V-9a3.688,3.688,0,0,1,2.816-1.694c1.3,0,2.134.792,2.134,2.9V-5.17c0,1.232-.022,2.97-.044,4.224L50.988-.77V0h5.236V-.77L54.53-.946c-.022-1.276-.044-2.992-.044-4.224V-7.964a8.449,8.449,0,0,0-.066-1.1,3.871,3.871,0,0,1,2.9-1.628c1.21,0,2.09.77,2.09,3.036V-5.17c0,1.21-.022,2.97-.044,4.224l-1.69.176V0H63V-.77L61.262-.946C61.24-2.2,61.218-3.96,61.218-5.17Zm.88-5.764,1.144-.946c1.1-.9,1.716-1.562,1.716-2.42,0-.836-.594-1.5-1.738-1.5-1.012,0-1.782.462-1.892,1.408a.4.4,0,0,0,.418.286c.242,0,.484-.088.616-.616l.154-.594a2.391,2.391,0,0,1,.4-.022.944.944,0,0,1,.737.3.944.944,0,0,1,.247.757c0,.792-.462,1.3-1.254,2.156L61.26-13.336v.66H65.2v-.88Zm14.85,1.892q.088-.11.209-.275a2.251,2.251,0,0,1,.209-.253.254.254,0,0,1,.176-.088,1.39,1.39,0,0,1,.55.319,6.321,6.321,0,0,1,.77.693q.352.374.352.528-.088.352-.55.352H72.746a22.292,22.292,0,0,0-3.3.308L68.9-11.22q1.21.132,2.926.176H73.41v-3.41H72.262a8.267,8.267,0,0,0-2.024.308l-.572-1.144q1.056.132,2.552.176h1.188a21.64,21.64,0,0,0-.22-3.432q2.112.616,2.112.924,0,.11-.176.22l-.374.242v2.046h1.364l.4-.594q.066-.088.187-.264a1.941,1.941,0,0,1,.209-.264.254.254,0,0,1,.176-.088,1.331,1.331,0,0,1,.539.319,7.5,7.5,0,0,1,.759.682q.352.363.352.517-.088.352-.55.352H74.748v3.41H76.53Zm9.592-6.028q.044-.066.143-.209a1.123,1.123,0,0,1,.176-.209.249.249,0,0,1,.165-.066q.2,0,.836.594t.638.836a1.323,1.323,0,0,1-.792.308,24.221,24.221,0,0,1-.407,3.817,3.575,3.575,0,0,1-.825,1.859,2.821,2.821,0,0,1-1.914.594,1.211,1.211,0,0,0-.352-.99,4.632,4.632,0,0,0-1.694-.484l.022-.374q.616.066,1.3.11t1.122.044a2.06,2.06,0,0,0,.429-.033.624.624,0,0,0,.253-.121q.55-.506.748-4.576h-3.1a10.194,10.194,0,0,1-1.265,4.158,8.744,8.744,0,0,1-3.707,3.212L78-9.548a8.061,8.061,0,0,0,2.9-3.19,10.835,10.835,0,0,0,.924-3.85h-1.07a7.8,7.8,0,0,0-1.936.308l-.572-1.12q1.21.132,2.926.176H86.21Zm-9.68,10.8q.066-.088.187-.275a1.742,1.742,0,0,1,.209-.275.254.254,0,0,1,.176-.088,1.265,1.265,0,0,1,.528.33,7.449,7.449,0,0,1,.737.7q.341.374.341.528-.066.352-.572.352H75.144V-.77a8.173,8.173,0,0,0,1.925.418,26.3,26.3,0,0,0,2.629.11q6.864,0,8.954-.066v.286a1.021,1.021,0,0,0-.638.385,1.456,1.456,0,0,0-.264.737h-8.1a15.059,15.059,0,0,1-3.8-.4A5.389,5.389,0,0,1,73.329-.77a8.55,8.55,0,0,1-1.771-3.146,11.6,11.6,0,0,1-2.552,5.654l-.22-.264a14.322,14.322,0,0,0,1.672-5.588,16.494,16.494,0,0,0,.11-2.156,14.306,14.306,0,0,0-.176-2.574q2.178.308,2.178.594,0,.088-.176.2l-.352.22q-.11,1.694-.352,3.168A7.041,7.041,0,0,0,73.846-1.45v-4.4a28.781,28.781,0,0,0-.286-4.51,15.458,15.458,0,0,1,1.683.561q.473.209.473.363,0,.132-.2.242l-.374.242V-6.27h1.3Zm9.064-2.42q.066-.088.231-.3t.3-.209a1.287,1.287,0,0,1,.528.308,5.746,5.746,0,0,1,.726.671q.33.363.33.517a1.006,1.006,0,0,1-.33.231,2.307,2.307,0,0,1-.55.187v1.98q.066,2.486.154,3.85a1.429,1.429,0,0,1-.55.407,1.74,1.74,0,0,1-.77.209.234.234,0,0,1-.209-.132.6.6,0,0,1-.077-.308l.088-.528v-.506H80.974v.44q.022.242.033.451a1.769,1.769,0,0,0,.033.3q-.044.2-.429.385a1.771,1.771,0,0,1-.781.187.3.3,0,0,1-.253-.132.5.5,0,0,1-.1-.308q.088-.924.132-2.332V-5.324a28.79,28.79,0,0,0-.264-4.268l1.738.792h4.488Zm-4.95,1.144v4.6h4.818v-4.6Z" transform="translate(165.43 219)" fill="#333"/>
            <path id="パス_1711" data-name="パス 1711" d="M16.8-18.546,7.978,2.178l-.792-.352L16.03-18.9Z" transform="translate(152.246 216.56)" fill="#333"/>
          </g>
        </g>
      </g>
      <g id="パス_1702" data-name="パス 1702">
        <path id="パス_125" data-name="パス 125" d="M0,0H500V280H0Z" fill="none"/>
        <path id="パス_126" data-name="パス 126" d="M1,1V279H499V1H1M0,0H500V280H0Z" fill="#333"/>
      </g>
    </g>
    <path id="パス_127" data-name="パス 127" d="M12.2-12.528a2.768,2.768,0,0,1,.954.8,1.485,1.485,0,0,1,.306.837.779.779,0,0,1-.162.5.5.5,0,0,1-.414.207.63.63,0,0,1-.432-.18,2.972,2.972,0,0,0-.333-1.116,4.508,4.508,0,0,0-.711-1.044h-.936A10.591,10.591,0,0,1,8.334-10.08L8.1-10.26a8.879,8.879,0,0,0,.846-1.35,10.9,10.9,0,0,0,.828-1.845,8.793,8.793,0,0,0,.468-1.827,11.682,11.682,0,0,1,1.287.567q.369.207.369.315,0,.072-.18.126l-.324.09q-.18.4-.612,1.152h3.924l.342-.5a2.593,2.593,0,0,0,.153-.216,1.292,1.292,0,0,1,.171-.216.248.248,0,0,1,.162-.09,1.137,1.137,0,0,1,.45.261,5.752,5.752,0,0,1,.639.567q.3.306.3.432-.054.27-.432.27ZM7.542-13.5q.072-.09.144-.2a1.729,1.729,0,0,1,.153-.2.22.22,0,0,1,.153-.09q.162,0,.693.5t.531.693q-.018.27-.432.27H5.22a3.057,3.057,0,0,1,.981.855,1.558,1.558,0,0,1,.315.873.875.875,0,0,1-.162.54.5.5,0,0,1-.414.216.7.7,0,0,1-.468-.216,2.827,2.827,0,0,0-.234-1.17,4.679,4.679,0,0,0-.63-1.1H4.014A12.031,12.031,0,0,1,1.1-9.2L.864-9.414a13.882,13.882,0,0,0,1.512-2.142,13.414,13.414,0,0,0,.846-1.89,9.472,9.472,0,0,0,.5-1.818q1.62.666,1.62.882,0,.054-.162.126l-.306.09q-.234.5-.576,1.134H7.218ZM13.9-10.1l.117-.171a.919.919,0,0,1,.144-.171.2.2,0,0,1,.135-.054,1.03,1.03,0,0,1,.423.234,4.288,4.288,0,0,1,.576.513q.261.279.261.4a1.045,1.045,0,0,1-.648.324v1.044l.018.63q.018.72.072,1.35a.949.949,0,0,1-.423.324,1.4,1.4,0,0,1-.6.162.205.205,0,0,1-.189-.108.491.491,0,0,1-.063-.252,1.506,1.506,0,0,0,.072-.306v-.342H9.558v2.088H14.49l.288-.342q.054-.072.18-.207a.344.344,0,0,1,.234-.135q.18,0,.693.45t.513.648a.869.869,0,0,1-.684.234q-.27,3.366-1.3,4.158a2.615,2.615,0,0,1-1.6.468,1.11,1.11,0,0,0-.252-.81,3.278,3.278,0,0,0-1.35-.414L11.232-.7q1.53.144,1.962.144a1.57,1.57,0,0,0,.333-.027A.692.692,0,0,0,13.77-.7a2,2,0,0,0,.5-1.035,13.482,13.482,0,0,0,.351-2.151H9.558v1.656Q9.612-.144,9.684.954a1.006,1.006,0,0,1-.4.306A1.513,1.513,0,0,1,8.6,1.4.273.273,0,0,1,8.388,1.3a.382.382,0,0,1-.09-.252q.072-.99.126-2.664V-3.132A14.857,14.857,0,0,1,5.265-.576,20.886,20.886,0,0,1,1.206,1.332l-.144-.288a19,19,0,0,0,3.6-2.2,15.51,15.51,0,0,0,2.79-2.736H3.762l-.162.63-.162.576a1.085,1.085,0,0,1-.486.126A2.65,2.65,0,0,1,2.268-2.7l.414-1.476q.252-.918.432-1.908a13.544,13.544,0,0,0,.216-1.71l1.458.756H8.424V-9.2H5.544a18.239,18.239,0,0,0-2.7.252l-.468-.918q.99.108,2.394.144h8.856Zm-.108.9H9.558v2.16h4.23Zm-9.4,2.682-.2.864L3.906-4.428H8.424V-6.516ZM21.42,0q-.126,0-.126-.252,0-.27.126-.27h.288a3.194,3.194,0,0,0,1.422-.27.89.89,0,0,0,.54-.846V-10.26a1.786,1.786,0,0,0-.1-.729.606.606,0,0,0-.468-.252,9.776,9.776,0,0,0-1.377-.063H21.42q-.126,0-.126-.27,0-.252.126-.252a5.682,5.682,0,0,0,2.016-.333A5.11,5.11,0,0,0,25.11-13.23V-1.638q0,1.116,1.962,1.116h.27a.1.1,0,0,1,.1.063.57.57,0,0,1,.027.207q0,.252-.126.252ZM39.186-4.68q.054-.09.153-.225t.162-.207a.18.18,0,0,1,.135-.072q.162,0,.684.522t.522.72q-.054.27-.45.27H34.326a18.239,18.239,0,0,0-2.7.252l-.45-.918a10.763,10.763,0,0,0,1.44.144h.666v-7.542h-.5a1.928,1.928,0,0,0-.828.252l-.468-.936a7.808,7.808,0,0,0,1.224.144h.576a18.388,18.388,0,0,0-.162-2.664q1.674.5,1.674.756,0,.09-.144.18l-.27.18v1.548h3.114a18.775,18.775,0,0,0-.162-2.682,11.547,11.547,0,0,1,1.323.459q.369.171.369.3,0,.09-.144.18l-.288.2v1.548h.252l.288-.45a2.235,2.235,0,0,1,.144-.207q.09-.117.144-.18a.162.162,0,0,1,.126-.063q.162,0,.639.477t.477.675q-.054.288-.432.288H38.592v7.542h.27Zm2.988-.684a11.777,11.777,0,0,1-.891,3.807A7.342,7.342,0,0,1,38.97,1.35l-.252-.2a8.173,8.173,0,0,0,1.989-3.744,22.924,22.924,0,0,0,.495-5.13v-3.42a23.555,23.555,0,0,0-.216-3.492l1.494.666h2.88l.234-.36q.054-.072.162-.225t.216-.153a1.181,1.181,0,0,1,.45.234,5.906,5.906,0,0,1,.639.5q.3.27.3.4a.994.994,0,0,1-.288.216,1.322,1.322,0,0,1-.45.144V-.36A2.607,2.607,0,0,1,46.5.5a1.035,1.035,0,0,1-.5.54,3.192,3.192,0,0,1-1.143.306A1.189,1.189,0,0,0,44.478.5a2.926,2.926,0,0,0-1.44-.45V-.252q1.746.144,2.088.144A.455.455,0,0,0,45.45-.2.424.424,0,0,0,45.54-.5v-4.86Zm3.366-4.644v-3.42H42.264v3.42Zm-8.046.288v-2.016H34.38V-9.72Zm4.77,1.98q0,.918-.054,1.836h3.33V-9.5H42.264Zm-4.77-1.44H34.38v2.16h3.114Zm0,2.682H34.38v2.3h3.114ZM34.866-2.79q.7.252.7.414,0,.09-.216.144l-.342.072A9.427,9.427,0,0,1,33.462-.081,8.917,8.917,0,0,1,31.554,1.4l-.216-.234a6.717,6.717,0,0,0,.9-.99,8.085,8.085,0,0,0,1-1.71,9.084,9.084,0,0,0,.621-1.8Zm1.926-.27a4.648,4.648,0,0,1,1.9,1.1,1.88,1.88,0,0,1,.6,1.242.771.771,0,0,1-.153.486.47.47,0,0,1-.387.2.747.747,0,0,1-.45-.18,3.986,3.986,0,0,0-.639-1.4,7.515,7.515,0,0,0-1.089-1.3ZM57.78,0H51.228l-.18-.4a11.292,11.292,0,0,1,1.278-2.52q.774-1.134,2.07-2.7A19.354,19.354,0,0,0,56.3-8.145a3.952,3.952,0,0,0,.594-2.043,2.819,2.819,0,0,0-.54-1.71,1.956,1.956,0,0,0-1.692-.738,2.418,2.418,0,0,0-1.44.423,1.242,1.242,0,0,0-.594,1.035,1.1,1.1,0,0,0,.063.4,1.644,1.644,0,0,0,.207.36,2.314,2.314,0,0,1,.189.351.968.968,0,0,1,.063.369.937.937,0,0,1-.261.693.913.913,0,0,1-.675.261.856.856,0,0,1-.657-.351,1.444,1.444,0,0,1-.3-.963,2.927,2.927,0,0,1,.4-1.4,3.431,3.431,0,0,1,1.224-1.251A3.709,3.709,0,0,1,54.9-13.23a3.789,3.789,0,0,1,2.088.513,2.9,2.9,0,0,1,1.125,1.278,3.951,3.951,0,0,1,.333,1.593,3.233,3.233,0,0,1-.252,1.323,3.921,3.921,0,0,1-.684,1.044q-.432.477-1.3,1.269-.2.2-.5.468t-.7.666a13.4,13.4,0,0,0-2.7,3.762H54.45a9.244,9.244,0,0,0,1.962-.153,1.765,1.765,0,0,0,.981-.549,4.416,4.416,0,0,0,.657-1.278q.036-.108.126-.108a1.491,1.491,0,0,1,.162.036.705.705,0,0,1,.162.072.121.121,0,0,1,.054.108l-.018.09ZM76.59-11.79q.054-.072.207-.243t.261-.171q.162,0,.729.585t.567.783a.516.516,0,0,1-.27.126,3.515,3.515,0,0,1-.4.054,14.852,14.852,0,0,1-1.2,1.818,13.638,13.638,0,0,1-1.467,1.674l-.216-.18a16.33,16.33,0,0,0,.837-1.71,18.054,18.054,0,0,0,.675-1.818H72.756v.072l.072-.018a24.759,24.759,0,0,0,.684,4.707,10.858,10.858,0,0,0,1.656,3.6A9.511,9.511,0,0,0,78.246.2l-.054.2a1.445,1.445,0,0,0-.7.3,1.243,1.243,0,0,0-.378.711,8.743,8.743,0,0,1-3.195-4.077,22.668,22.668,0,0,1-1.323-6.255A16.366,16.366,0,0,1,71.46-4.275a8.9,8.9,0,0,1-2.5,3.321,13.638,13.638,0,0,1-4.482,2.34l-.144-.252a13.072,13.072,0,0,0,4.3-2.88,9.608,9.608,0,0,0,2.205-3.825,21.5,21.5,0,0,0,.783-5.3h-2a12.793,12.793,0,0,1-3.078,3.8l-.234-.2a16.953,16.953,0,0,0,2.376-4.1,15.118,15.118,0,0,0,.63-2.007,9.176,9.176,0,0,0,.306-1.9q1.062.342,1.485.531t.423.3q0,.072-.162.144l-.324.126a19.058,19.058,0,0,1-1.134,2.79h6.354ZM63.216-13.536a7.523,7.523,0,0,1,2.079.693,3.459,3.459,0,0,1,1.179.936,1.606,1.606,0,0,1,.36.927.77.77,0,0,1-.162.5.53.53,0,0,1-.432.2.931.931,0,0,1-.45-.144,5.16,5.16,0,0,0-1.116-1.566,9.8,9.8,0,0,0-1.638-1.368ZM62.172-3.708q1.476-.63,6.138-3.258l.126.216q-2.628,2.214-5.058,4.014a.566.566,0,0,1-.081.3.57.57,0,0,1-.207.207l-.468-.738ZM84.906-2.466q.666.216.666.4,0,.072-.2.126l-.324.072A10.549,10.549,0,0,1,83.844-.1a7.9,7.9,0,0,1-1.6,1.485l-.2-.216q.18-.216.54-.72a9.03,9.03,0,0,0,.765-1.467,8.125,8.125,0,0,0,.495-1.575,1.3,1.3,0,0,1-.7.18.344.344,0,0,1-.243-.117.344.344,0,0,1-.117-.243q.072-1.062.126-2.061t.072-2.619v-3.51a23.548,23.548,0,0,0-.234-3.69l1.476.63H86.76l.27-.4.117-.171a1.335,1.335,0,0,1,.144-.18.189.189,0,0,1,.135-.063q.18,0,.693.468t.513.666a1.108,1.108,0,0,1-.7.342v6.012q.036,2.232.144,4.23a1.429,1.429,0,0,1-.432.306,1.389,1.389,0,0,1-.63.144.205.205,0,0,1-.189-.108.491.491,0,0,1-.063-.252l.072-.288v-.342H84.024v.72Zm9.468-.216a10.532,10.532,0,0,0,3.8,2.934l-.054.18a1.271,1.271,0,0,0-.648.252,1.424,1.424,0,0,0-.45.594,10.074,10.074,0,0,1-3.294-3.15,11.855,11.855,0,0,1-4.248,3.15l-.18-.27A11.936,11.936,0,0,0,93.24-2.664a18.244,18.244,0,0,1-1.89-6.372h-.684v.576a30.045,30.045,0,0,1-.207,3.672,12.368,12.368,0,0,1-.9,3.312A8.244,8.244,0,0,1,87.516,1.4l-.288-.2a10.119,10.119,0,0,0,1.9-4.2A27.7,27.7,0,0,0,89.6-8.46v-2.916a20.217,20.217,0,0,0-.18-3.006l1.44.666h4.842l.324-.486q.054-.072.153-.216a1.588,1.588,0,0,1,.171-.216.207.207,0,0,1,.144-.072,1.137,1.137,0,0,1,.45.261,5.651,5.651,0,0,1,.63.558q.288.3.288.423-.072.288-.45.288h-6.75v3.6H95.6l.306-.36q.054-.054.2-.207a.389.389,0,0,1,.252-.153q.162,0,.684.5t.522.693a.443.443,0,0,1-.243.171,2.964,2.964,0,0,1-.441.081A17.083,17.083,0,0,1,94.374-2.682Zm-7.542-10.8H84.024v2.664h2.808Zm0,3.2H84.024v2.736h2.808ZM91.71-9.036A14.73,14.73,0,0,0,93.762-3.51a17.468,17.468,0,0,0,1.926-5.526ZM86.832-7H84.024v2.826h2.808ZM88.02-.7a.78.78,0,0,1-.18.531.554.554,0,0,1-.432.207.7.7,0,0,1-.486-.2,4.494,4.494,0,0,0-.4-1.305,6.549,6.549,0,0,0-.7-1.215L86-2.808A3.94,3.94,0,0,1,87.534-1.8,1.742,1.742,0,0,1,88.02-.7Zm26.37-10.1a2.832,2.832,0,0,1,.171-.243q.117-.153.189-.234a.2.2,0,0,1,.144-.081,1.263,1.263,0,0,1,.477.279,5.993,5.993,0,0,1,.684.6q.315.324.315.45a.386.386,0,0,1-.432.288h-9.162a18.239,18.239,0,0,0-2.7.252l-.468-.918q.99.108,2.394.144h3.15v-2.214h-3.78a18.239,18.239,0,0,0-2.7.252l-.486-.918q.99.108,2.394.144h4.572a15.7,15.7,0,0,0-.126-2.2,12.648,12.648,0,0,1,1.377.459q.387.171.387.3,0,.108-.162.2l-.306.2V-13h4.806l.378-.558q.09-.108.18-.234a2.461,2.461,0,0,1,.18-.225.243.243,0,0,1,.162-.1,1.253,1.253,0,0,1,.477.288,6.821,6.821,0,0,1,.693.621q.324.333.324.459-.072.27-.468.27h-6.732v2.214h3.708ZM115.9-8.226q.054-.072.207-.243t.261-.171q.108,0,.432.3a7.584,7.584,0,0,1,.612.63q.288.333.288.459a1.029,1.029,0,0,1-.684.2,10.6,10.6,0,0,1-1.143,1.188A15.668,15.668,0,0,1,114.5-4.734l-.2-.162a19.223,19.223,0,0,0,1.224-2.394H104.4a3.4,3.4,0,0,1-.252,1.53,2.252,2.252,0,0,1-.72.954,1.2,1.2,0,0,1-.72.252.563.563,0,0,1-.54-.306.771.771,0,0,1-.054-.27.621.621,0,0,1,.135-.378,1.165,1.165,0,0,1,.351-.306,2.589,2.589,0,0,0,.963-1.125,3.289,3.289,0,0,0,.333-1.683l.288-.018a4.207,4.207,0,0,1,.18.81h11.2Zm-4.9,5.094a18.631,18.631,0,0,0-.2-3.06,10.106,10.106,0,0,1,1.323.468q.369.18.369.288,0,.072-.126.162l-.252.162v4.68a.3.3,0,0,0,.126.288,1.484,1.484,0,0,0,.594.072h1.764q1.4,0,1.62-.018a.507.507,0,0,0,.225-.063.542.542,0,0,0,.135-.171,18.65,18.65,0,0,0,.522-2.232h.216l.036,2.3a.94.94,0,0,1,.378.216.465.465,0,0,1,.09.306.493.493,0,0,1-.252.432,2.4,2.4,0,0,1-.954.234q-.7.072-2.052.072h-1.908A3.83,3.83,0,0,1,111.609.9a.74.74,0,0,1-.477-.36,1.648,1.648,0,0,1-.126-.72Zm-2.97-2.862q.828,0,.828.18,0,.108-.2.216l-.306.2a8.474,8.474,0,0,1-.585,3.015,5.288,5.288,0,0,1-1.926,2.25A11.2,11.2,0,0,1,101.9,1.422l-.126-.288a9.834,9.834,0,0,0,3.222-1.521,5.175,5.175,0,0,0,1.674-2.151,5.562,5.562,0,0,0,.36-2.106,7.37,7.37,0,0,0-.162-1.512ZM123.93-8.532a16.626,16.626,0,0,1-2.214,2.772l-.252-.18a25.888,25.888,0,0,0,2.844-5.436,17.278,17.278,0,0,0,.648-1.989,12.277,12.277,0,0,0,.378-1.863q1.836.576,1.836.828,0,.072-.162.126l-.342.126a28.13,28.13,0,0,1-2.088,4.572q.882.576.882.81,0,.108-.144.162l-.27.108v5.184q.036,2.232.144,4.23a2.08,2.08,0,0,1-.45.324,1.2,1.2,0,0,1-.594.162.43.43,0,0,1-.288-.108.324.324,0,0,1-.126-.252q.072-1.062.126-2.061t.072-2.619Zm5.454-6.39a7.293,7.293,0,0,1,1.98.81,3.641,3.641,0,0,1,1.116,1,1.739,1.739,0,0,1,.342.945.7.7,0,0,1-.153.468.486.486,0,0,1-.387.18.76.76,0,0,1-.414-.126,5.5,5.5,0,0,0-1.062-1.629,10.478,10.478,0,0,0-1.6-1.485Zm5.562,8.514.171-.225a2.393,2.393,0,0,1,.189-.225.207.207,0,0,1,.144-.072,1.175,1.175,0,0,1,.459.27,6.733,6.733,0,0,1,.657.576q.306.306.306.432-.054.288-.45.288h-4.41V.072H135.2l.4-.576q.072-.09.189-.252T135.972-1a.2.2,0,0,1,.144-.081,1.344,1.344,0,0,1,.5.3,7.407,7.407,0,0,1,.729.639q.342.342.342.468-.072.288-.45.288h-8.424a18.239,18.239,0,0,0-2.7.252l-.45-.936q.99.108,2.394.144h2.79V-5.364h-1.35a14.873,14.873,0,0,0-2.448.252l-.45-.918q.99.108,2.394.144h1.854v-4.572H129.2a18.239,18.239,0,0,0-2.7.252l-.45-.918q.99.108,2.394.144h6.444l.378-.54q.09-.108.18-.234a2.463,2.463,0,0,1,.18-.225.243.243,0,0,1,.162-.1,1.263,1.263,0,0,1,.477.279,6.654,6.654,0,0,1,.693.6q.324.324.324.45-.072.288-.468.288h-4.806v4.572h2.574Zm9.936-6.642a18.239,18.239,0,0,0-2.7.252l-.486-.936q.99.108,2.394.144h10.458l.4-.558q.072-.09.189-.243a2.432,2.432,0,0,1,.2-.234.227.227,0,0,1,.153-.081,1.355,1.355,0,0,1,.5.288,6.527,6.527,0,0,1,.72.621q.333.333.333.459-.054.288-.45.288Zm0,7.632a11.632,11.632,0,0,1-.936,3.807,7.56,7.56,0,0,1-2.5,3.033l-.216-.2A8.709,8.709,0,0,0,143.262-2.5a18.881,18.881,0,0,0,.522-4.644V-9.18a14.6,14.6,0,0,0-.126-2.124l1.512.72h8.622l.27-.36q.054-.054.18-.207a.336.336,0,0,1,.234-.153,1.2,1.2,0,0,1,.45.225,4.676,4.676,0,0,1,.63.495q.288.27.288.4a1.332,1.332,0,0,1-.72.378v1.746q.054,2.2.126,3.384a1.114,1.114,0,0,1-.477.324,1.637,1.637,0,0,1-.639.162.205.205,0,0,1-.189-.108.491.491,0,0,1-.063-.252q0-.036.072-.45v-.414Zm.072-1.746q0,.792-.036,1.206h9.036v-4.086h-9Z" transform="translate(471.052 1824)" fill="#333"/>
  </g>
</svg>
