<svg xmlns="http://www.w3.org/2000/svg" xmlns:xlink="http://www.w3.org/1999/xlink" width="500" height="280" viewBox="0 0 500 280">
  <defs>
    <clipPath id="clip-price">
      <rect width="500" height="280"/>
    </clipPath>
  </defs>
  <g id="price" clip-path="url(#clip-price)">
    <rect width="500" height="280" fill="#fff"/>
    <g id="グループ_277" data-name="グループ 277" transform="translate(-9.047 -6.506)">
      <path id="パス_1700" data-name="パス 1700" d="M-33.09-9.192l.36.36L-37-4.56-32.73-.288l-.36.36L-37.362-4.2-41.634.072l-.36-.36,4.272-4.272-4.272-4.272.36-.36,4.272,4.272Zm-4.272,2.316a1.006,1.006,0,0,1-.738-.306,1.006,1.006,0,0,1-.306-.738,1.006,1.006,0,0,1,.306-.738,1.006,1.006,0,0,1,.738-.306,1.006,1.006,0,0,1,.738.306,1.006,1.006,0,0,1,.306.738,1.006,1.006,0,0,1-.306.738A1.006,1.006,0,0,1-37.362-6.876ZM-39.678-4.56a1.006,1.006,0,0,1-.306.738,1.006,1.006,0,0,1-.738.306,1.006,1.006,0,0,1-.738-.306,1.006,1.006,0,0,1-.306-.738A1.006,1.006,0,0,1-41.46-5.3a1.006,1.006,0,0,1,.738-.306,1.006,1.006,0,0,1,.738.306A1.006,1.006,0,0,1-39.678-4.56Zm4.632,0A1.006,1.006,0,0,1-34.74-5.3,1.006,1.006,0,0,1-34-5.6a1.006,1.006,0,0,1,.738.306,1.006,1.006,0,0,1,.306.738,1.006,1.006,0,0,1-.306.738A1.006,1.006,0,0,1-34-3.516a1.006,1.006,0,0,1-.738-.306A1.006,1.006,0,0,1-35.046-4.56Zm-2.316,2.316a1.006,1.006,0,0,1,.738.306,1.006,1.006,0,0,1,.306.738,1.006,1.006,0,0,1-.306.738,1.006,1.006,0,0,1-.738.306A1.006,1.006,0,0,1-38.1-.462a1.006,1.006,0,0,1-.306-.738,1.006,1.006,0,0,1,.306-.738A1.006,1.006,0,0,1-37.362-2.244ZM-29.082,0q-.084,0-.084-.168t.084-.18h.192a2.129,2.129,0,0,0,.948-.18.593.593,0,0,0,.36-.564V-6.84a1.191,1.191,0,0,0-.066-.486.4.4,0,0,0-.312-.168,6.517,6.517,0,0,0-.918-.042h-.2q-.084,0-.084-.18t.084-.168a3.788,3.788,0,0,0,1.344-.222,3.407,3.407,0,0,0,1.116-.714v7.728q0,.744,1.308.744h.18a.066.066,0,0,1,.066.042.38.38,0,0,1,.018.138q0,.168-.084.168Zm9.072.168a1.882,1.882,0,0,1-1.254-.5A3.476,3.476,0,0,1-22.2-1.848a7.473,7.473,0,0,1-.354-2.46,7.466,7.466,0,0,1,.36-2.472,3.567,3.567,0,0,1,.942-1.53,1.884,1.884,0,0,1,1.266-.51,1.87,1.87,0,0,1,1.254.51A3.523,3.523,0,0,1-17.8-6.78a7.583,7.583,0,0,1,.354,2.472,7.359,7.359,0,0,1-.36,2.46,3.519,3.519,0,0,1-.942,1.512A1.9,1.9,0,0,1-20.01.168Zm.024-.408q.7,0,1.1-1.014a8.761,8.761,0,0,0,.4-3.054,8.869,8.869,0,0,0-.4-3.066q-.4-1.026-1.1-1.026T-21.1-7.374a8.748,8.748,0,0,0-.408,3.066A8.642,8.642,0,0,0-21.1-1.254Q-20.694-.24-19.986-.24Zm7.416.408a1.882,1.882,0,0,1-1.254-.5,3.476,3.476,0,0,1-.936-1.512,7.473,7.473,0,0,1-.354-2.46,7.466,7.466,0,0,1,.36-2.472,3.567,3.567,0,0,1,.942-1.53,1.884,1.884,0,0,1,1.266-.51,1.87,1.87,0,0,1,1.254.51,3.523,3.523,0,0,1,.936,1.53A7.583,7.583,0,0,1-10-4.308a7.359,7.359,0,0,1-.36,2.46A3.519,3.519,0,0,1-11.3-.336,1.9,1.9,0,0,1-12.57.168Zm.024-.408q.7,0,1.1-1.014a8.761,8.761,0,0,0,.4-3.054,8.869,8.869,0,0,0-.4-3.066q-.4-1.026-1.1-1.026t-1.116,1.026a8.748,8.748,0,0,0-.408,3.066,8.642,8.642,0,0,0,.408,3.054Q-13.254-.24-12.546-.24ZM.462-6l.1-.132a.892.892,0,0,1,.108-.12.136.136,0,0,1,.09-.036q.108,0,.468.354t.36.486a.805.805,0,0,1-.492.18,27.547,27.547,0,0,1-.39,3.624A4,4,0,0,1-.006.288a1.98,1.98,0,0,1-1.4.48A.64.64,0,0,0-1.662.192a1.74,1.74,0,0,0-.522-.2q-.39-.1-.846-.174L-3.018-.4q.528.06,1.152.114t.828.054A.936.936,0,0,0-.75-.264a.731.731,0,0,0,.216-.12A3.344,3.344,0,0,0,.012-2.028,29.939,29.939,0,0,0,.354-5.364H-3.174a9.907,9.907,0,0,1-1.248,3.51A8.8,8.8,0,0,1-7.278.972l-.168-.2a8.708,8.708,0,0,0,2.382-2.76A9.443,9.443,0,0,0-4.056-4.938,25.785,25.785,0,0,0-3.8-8.328H-5.43a12.159,12.159,0,0,0-1.8.168l-.324-.6q.66.072,1.6.1H1.35l.264-.384.12-.162a1.552,1.552,0,0,1,.138-.168.151.151,0,0,1,.1-.054.862.862,0,0,1,.324.2,5.3,5.3,0,0,1,.474.42q.222.222.222.306-.012.18-.3.18H-2.934a23.376,23.376,0,0,1-.192,2.616H.246ZM7.314-2.28q.024,1.488.1,2.82A.745.745,0,0,1,7.128.8.84.84,0,0,1,6.7.912.287.287,0,0,1,6.51.84.216.216,0,0,1,6.426.672Q6.474-.036,6.51-.7t.048-1.746v-4.56A15.7,15.7,0,0,0,6.4-9.468L7.374-9h7.188l.168-.252q.036-.048.108-.15t.144-.1a.811.811,0,0,1,.306.162,4.182,4.182,0,0,1,.438.348q.2.186.2.27a.9.9,0,0,1-.2.144.881.881,0,0,1-.3.1V-.3a1.447,1.447,0,0,1-.1.57.786.786,0,0,1-.4.372,2.641,2.641,0,0,1-.876.21.928.928,0,0,0-.1-.336A.543.543,0,0,0,13.734.3a3.335,3.335,0,0,0-1.212-.312V-.2q1.524.12,1.8.12a.4.4,0,0,0,.27-.072A.315.315,0,0,0,14.67-.4V-4.344H7.314Zm3.252-6.36H7.314v3.96h3.252Zm.768,0v3.96H14.67V-8.64Zm15.924.864q.036-.048.09-.132a.563.563,0,0,1,.1-.12.136.136,0,0,1,.09-.036.734.734,0,0,1,.294.168,3.245,3.245,0,0,1,.408.366q.186.2.186.282a.849.849,0,0,1-.48.24v1.32q.036,1.644.084,2.568a.778.778,0,0,1-.312.222,1.006,1.006,0,0,1-.42.114h-.108v-.5h-2.64v1.464H27.8l.276-.384q.06-.072.126-.162a1.92,1.92,0,0,1,.132-.162.177.177,0,0,1,.114-.072.924.924,0,0,1,.336.2,5.134,5.134,0,0,1,.492.432q.228.228.228.312-.036.18-.3.18H24.546v.72l.012.444q.012.492.048.936a.486.486,0,0,1-.246.222,1.024,1.024,0,0,1-.474.1.166.166,0,0,1-.138-.072.272.272,0,0,1-.054-.168q.048-.552.072-1.368v-.816h-2.94a12.159,12.159,0,0,0-1.8.168l-.3-.612q.66.072,1.6.1h3.444V-3.288h-2.64v.336q0,.072-.2.174a.929.929,0,0,1-.42.1.193.193,0,0,1-.156-.072.254.254,0,0,1-.06-.168q.048-.6.084-1.632V-5.5a15.7,15.7,0,0,0-.156-2.46l.972.456h4.3l.264-.384a10.3,10.3,0,0,0,.636-1.164,6.374,6.374,0,0,0,.432-1.14q1.128.6,1.128.744,0,.048-.12.072l-.228.036a11.157,11.157,0,0,1-.864,1,9.657,9.657,0,0,1-.924.84h1.26Zm-4.176-2.292a3.126,3.126,0,0,1,1.164.768,1.3,1.3,0,0,1,.372.828.577.577,0,0,1-.108.366.336.336,0,0,1-.276.138.507.507,0,0,1-.324-.144,2.94,2.94,0,0,0-.336-.966,4.411,4.411,0,0,0-.624-.906Zm-2.724.156a3.118,3.118,0,0,1,1.3.72,1.247,1.247,0,0,1,.414.84.533.533,0,0,1-.1.336.324.324,0,0,1-.27.132.479.479,0,0,1-.288-.108,3.14,3.14,0,0,0-.45-.948,4.549,4.549,0,0,0-.726-.864Zm3.408,4.32V-7.164h-2.64v1.572Zm3.42,0V-7.164h-2.64v1.572Zm-6.06.348v1.62h2.64v-1.62Zm3.42,0v1.62h2.64v-1.62ZM33.594-5.8a11.006,11.006,0,0,1-1.452,1.872l-.156-.12a16.681,16.681,0,0,0,1.8-3.552,11.113,11.113,0,0,0,.42-1.326,7.42,7.42,0,0,0,.228-1.23q1.212.384,1.212.552,0,.048-.108.084l-.216.072A21.139,21.139,0,0,1,34.23-6.888q.384.3.384.444,0,.06-.108.12l-.168.084v4.02q.024,1.488.1,2.82a.893.893,0,0,1-.288.216.865.865,0,0,1-.408.108.287.287,0,0,1-.192-.072.216.216,0,0,1-.084-.168q.048-.708.084-1.374t.048-1.746Zm7.536-1.98q.036-.048.108-.15a1.228,1.228,0,0,1,.126-.156.151.151,0,0,1,.1-.054.809.809,0,0,1,.312.186,4.3,4.3,0,0,1,.45.4q.21.216.21.3-.048.192-.3.192H37.23a12.159,12.159,0,0,0-1.8.168l-.312-.624q.66.072,1.6.1h1.5v-.192a15.7,15.7,0,0,0-.156-2.46q1.236.336,1.236.5,0,.06-.108.12l-.216.132v1.9h1.908Zm.216,7.44q.06-.072.12-.156a1.641,1.641,0,0,1,.12-.15.162.162,0,0,1,.108-.066.835.835,0,0,1,.318.192,5.024,5.024,0,0,1,.462.408q.216.216.216.3-.036.192-.288.192h-5.5a12.159,12.159,0,0,0-1.8.168L34.818-.06q.66.072,1.6.1h2.532q.54-1.944.948-4.092a12.947,12.947,0,0,0,.252-2.388q.732.168,1.026.27T41.466-6q0,.048-.108.108l-.2.108q-.324,1.32-.858,2.916t-1.11,2.9h1.908Zm-5-5.916a9.3,9.3,0,0,1,1.17,2.226,5.89,5.89,0,0,1,.366,1.89,2.287,2.287,0,0,1-.15.906q-.15.342-.354.342-.156,0-.3-.216a20.978,20.978,0,0,0-.228-2.628,8.918,8.918,0,0,0-.684-2.436Z" transform="translate(258.994 255)" fill="#333"/>
      <path id="パス_1701" data-name="パス 1701" d="M-60.824-3.654q.692.225.692.412,0,.075-.206.131l-.337.075a10.969,10.969,0,0,1-1.254,1.843A8.208,8.208,0,0,1-63.594.351L-63.8.126q.187-.225.561-.749a9.388,9.388,0,0,0,.8-1.525,8.448,8.448,0,0,0,.515-1.637,1.351,1.351,0,0,1-.73.187.358.358,0,0,1-.253-.122.358.358,0,0,1-.122-.253q.075-1.1.131-2.143t.075-2.723v-3.649a24.482,24.482,0,0,0-.243-3.836l1.535.655H-58.9l.281-.412.122-.178a1.388,1.388,0,0,1,.15-.187.2.2,0,0,1,.14-.066q.187,0,.72.487t.533.692a1.152,1.152,0,0,1-.73.356v6.251q.037,2.321.15,4.4a1.486,1.486,0,0,1-.449.318,1.444,1.444,0,0,1-.655.15.213.213,0,0,1-.2-.112.51.51,0,0,1-.066-.262l.075-.3v-.356h-2.919v.749Zm9.844-.225a10.95,10.95,0,0,0,3.949,3.05l-.056.187a1.321,1.321,0,0,0-.674.262,1.48,1.48,0,0,0-.468.618,10.474,10.474,0,0,1-3.425-3.275A12.325,12.325,0,0,1-56.071.238l-.187-.281a12.409,12.409,0,0,0,4.1-3.818,18.968,18.968,0,0,1-1.965-6.625h-.711v.6a31.237,31.237,0,0,1-.215,3.818,12.859,12.859,0,0,1-.936,3.443A8.572,8.572,0,0,1-58.111.369l-.3-.206a10.521,10.521,0,0,0,1.974-4.37,28.8,28.8,0,0,0,.5-5.68v-3.032a21.02,21.02,0,0,0-.187-3.125l1.5.692H-49.6l.337-.505q.056-.075.159-.225a1.651,1.651,0,0,1,.178-.225.216.216,0,0,1,.15-.075,1.182,1.182,0,0,1,.468.271,5.875,5.875,0,0,1,.655.58q.3.309.3.44-.075.3-.468.3h-7.018v3.743h5.128l.318-.374q.056-.056.206-.215a.4.4,0,0,1,.262-.159q.168,0,.711.515t.543.72a.461.461,0,0,1-.253.178,3.081,3.081,0,0,1-.458.084A17.761,17.761,0,0,1-50.981-3.879Zm-7.841-11.228h-2.919v2.77h2.919Zm0,3.331h-2.919v2.845h2.919Zm5.072,1.291A15.314,15.314,0,0,0-51.617-4.74a18.161,18.161,0,0,0,2-5.745ZM-58.822-8.37h-2.919v2.938h2.919Zm1.235,6.55a.811.811,0,0,1-.187.552.576.576,0,0,1-.449.215.729.729,0,0,1-.505-.206,4.672,4.672,0,0,0-.412-1.357,6.809,6.809,0,0,0-.73-1.263l.187-.131a4.1,4.1,0,0,1,1.591,1.048A1.811,1.811,0,0,1-57.587-1.82Zm27.416-10.5a2.943,2.943,0,0,1,.178-.253q.122-.159.2-.243a.208.208,0,0,1,.15-.084,1.313,1.313,0,0,1,.5.29,6.231,6.231,0,0,1,.711.627q.327.337.327.468a.4.4,0,0,1-.449.3h-9.526a18.963,18.963,0,0,0-2.807.262l-.487-.954q1.029.112,2.489.15h3.275v-2.3h-3.93a18.963,18.963,0,0,0-2.807.262l-.505-.954q1.029.112,2.489.15h4.753a16.322,16.322,0,0,0-.131-2.283,13.149,13.149,0,0,1,1.432.477q.4.178.4.309,0,.112-.168.206l-.318.206V-14.6h5l.393-.58q.094-.112.187-.243a2.558,2.558,0,0,1,.187-.234.252.252,0,0,1,.168-.1,1.3,1.3,0,0,1,.5.3,7.092,7.092,0,0,1,.72.646q.337.346.337.477-.075.281-.487.281h-7v2.3h3.855ZM-28.6-9.643q.056-.075.215-.253t.271-.178q.112,0,.449.309a7.884,7.884,0,0,1,.636.655q.3.346.3.477a1.07,1.07,0,0,1-.711.206,11.021,11.021,0,0,1-1.188,1.235,16.289,16.289,0,0,1-1.432,1.179l-.206-.168A19.985,19.985,0,0,0-28.992-8.67H-40.557a3.529,3.529,0,0,1-.262,1.591,2.342,2.342,0,0,1-.749.992,1.242,1.242,0,0,1-.749.262.585.585,0,0,1-.561-.318.8.8,0,0,1-.056-.281.645.645,0,0,1,.14-.393,1.211,1.211,0,0,1,.365-.318,2.692,2.692,0,0,0,1-1.17,3.419,3.419,0,0,0,.346-1.75l.3-.019a4.373,4.373,0,0,1,.187.842h11.64Zm-5.09,5.3a19.369,19.369,0,0,0-.206-3.181,10.508,10.508,0,0,1,1.375.487q.384.187.384.3,0,.075-.131.168l-.262.168V-1.54a.315.315,0,0,0,.131.3,1.543,1.543,0,0,0,.618.075h1.834q1.46,0,1.684-.019a.527.527,0,0,0,.234-.065.564.564,0,0,0,.14-.178,19.391,19.391,0,0,0,.543-2.321h.225l.037,2.4a.978.978,0,0,1,.393.225A.484.484,0,0,1-26.6-.81a.513.513,0,0,1-.262.449,2.49,2.49,0,0,1-.992.243q-.73.075-2.133.075h-1.984a3.982,3.982,0,0,1-1.095-.112.77.77,0,0,1-.5-.374,1.714,1.714,0,0,1-.131-.749Zm-3.088-2.976q.861,0,.861.187,0,.112-.206.225l-.318.206a8.81,8.81,0,0,1-.608,3.135,5.5,5.5,0,0,1-2,2.339A11.649,11.649,0,0,1-43.158.388l-.131-.3a10.224,10.224,0,0,0,3.35-1.581A5.381,5.381,0,0,0-38.2-3.729a5.783,5.783,0,0,0,.374-2.19,7.663,7.663,0,0,0-.168-1.572ZM-9.9-15.875q.094-.094.262-.281t.281-.187q.168,0,.749.655t.58.861a.656.656,0,0,1-.29.131,3.657,3.657,0,0,1-.515.056,18.883,18.883,0,0,1-2.255,1.282q-1.413.7-2.8,1.263a3.914,3.914,0,0,1,1.123.992,1.662,1.662,0,0,1,.356.936.615.615,0,0,1-.206.505h4.323l.374-.412q.056-.056.225-.234a.457.457,0,0,1,.3-.178q.168,0,.758.608t.589.814a1.1,1.1,0,0,1-.73.206A17.18,17.18,0,0,1-8.724-6.882,24.049,24.049,0,0,1-11.082-5.02l-.206-.15A22.679,22.679,0,0,0-9.744-7.06,24.038,24.038,0,0,0-8.369-9.1H-13.8v7.617a2.33,2.33,0,0,1-.159.926A1.287,1.287,0,0,1-14.6.051,4.191,4.191,0,0,1-16,.388a1.124,1.124,0,0,0-.487-.9,5.544,5.544,0,0,0-2.021-.524v-.281q2.545.187,2.994.187a.625.625,0,0,0,.393-.094.394.394,0,0,0,.112-.318V-9.1h-4.51a18.963,18.963,0,0,0-2.807.262l-.487-.973q1.029.112,2.489.15h7a7.685,7.685,0,0,0-1.684-1.8,12.7,12.7,0,0,0-2.77-1.722l.094-.3a12.978,12.978,0,0,1,3.443,1.16q.936-.58,1.909-1.263t1.666-1.282h-6.793a18.963,18.963,0,0,0-2.807.262l-.487-.954q1.029.112,2.489.15h7.954ZM9.971-1.24q3.425,0,4.566-.037v.262a.8.8,0,0,0-.5.337,1.381,1.381,0,0,0-.215.655H9.9A15.426,15.426,0,0,1,6.219-.389,5.511,5.511,0,0,1,3.73-1.736a7.612,7.612,0,0,1-1.75-2.8A9.893,9.893,0,0,1-2.006.369L-2.174.145A10.269,10.269,0,0,0,.839-4.534,11.713,11.713,0,0,0,1.307-6.48a9.38,9.38,0,0,0,.131-1.871q1.909.393,1.909.636,0,.056-.168.15L2.841-7.4A18.253,18.253,0,0,1,2.186-5,6.332,6.332,0,0,0,3.59-2.9a5.347,5.347,0,0,0,1.984,1.17v-8.515H3.1A18.963,18.963,0,0,0,.3-9.98l-.487-.954q1.029.112,2.489.15H9.99l.393-.505.168-.225a1.559,1.559,0,0,1,.2-.225.247.247,0,0,1,.159-.075,1.581,1.581,0,0,1,.543.3,12.22,12.22,0,0,0,.823-2.059H.577A3.661,3.661,0,0,1,.268-12a2.422,2.422,0,0,1-.758.973,1.267,1.267,0,0,1-.767.281.659.659,0,0,1-.44-.15.509.509,0,0,1-.178-.412.79.79,0,0,1,.131-.43,1.207,1.207,0,0,1,.356-.356A2.683,2.683,0,0,0-.331-13.3a3.446,3.446,0,0,0,.346-1.825l.318-.019a7.5,7.5,0,0,1,.206,1.029H5.573A19.842,19.842,0,0,0,5.4-16.941q1.853.505,1.853.786,0,.094-.15.187l-.318.206v1.647h5.465l.356-.449q.056-.075.159-.206a1.5,1.5,0,0,1,.178-.2.229.229,0,0,1,.15-.065q.168,0,.749.646t.58.851a.515.515,0,0,1-.253.131q-.159.037-.44.075a12.231,12.231,0,0,1-.964,1.048,12.014,12.014,0,0,1-1.076.954q.73.58.73.786-.075.3-.487.3H6.771v3.631h3.238l.374-.543q.056-.075.168-.234a1.916,1.916,0,0,1,.2-.243.236.236,0,0,1,.159-.084,1.273,1.273,0,0,1,.487.281,6.542,6.542,0,0,1,.7.608q.327.327.327.458-.075.3-.505.3H6.771v4.622A20.378,20.378,0,0,0,9.971-1.24Zm10.536-8.833A15.706,15.706,0,0,1,18.467-7.4l-.262-.187A27.028,27.028,0,0,0,20.844-12.9,21.385,21.385,0,0,0,21.48-15a11.845,11.845,0,0,0,.356-1.909q1.89.6,1.89.861,0,.075-.168.131l-.337.112a32.993,32.993,0,0,1-1.74,4.024q.58.449.58.674,0,.112-.168.206l-.281.112v6.251q.037,2.321.15,4.4a1.316,1.316,0,0,1-.44.327,1.321,1.321,0,0,1-.608.159.424.424,0,0,1-.281-.112A.337.337,0,0,1,20.3-.024q.075-1.1.131-2.143t.075-2.723Zm12.5-5.3.187-.253a2.421,2.421,0,0,1,.215-.262.236.236,0,0,1,.159-.084,1.409,1.409,0,0,1,.515.3,6.786,6.786,0,0,1,.749.646q.346.346.346.477-.075.281-.449.281H31.043v3.35H33.2l.243-.374a1.139,1.139,0,0,0,.131-.168.766.766,0,0,1,.131-.159.2.2,0,0,1,.131-.047,1.68,1.68,0,0,1,.72.44q.533.44.533.646a1.032,1.032,0,0,1-.692.318v5.408q.037,2.321.15,4.4a1.465,1.465,0,0,1-.458.318,1.462,1.462,0,0,1-.646.15A.2.2,0,0,1,33.261-.1.511.511,0,0,1,33.2-.361l.075-.674v-.524H24.643v.43q.056.692.075.767a.76.76,0,0,1-.337.318,1.3,1.3,0,0,1-.655.15.376.376,0,0,1-.271-.122.358.358,0,0,1-.122-.253q.075-1.1.131-2.143t.075-2.723v-2.62a24.482,24.482,0,0,0-.243-3.836l1.553.674h1.834v-3.35H25.6A8.971,8.971,0,0,0,23.689-14l-.468-.936q1.029.112,2.489.15H32.6Zm-5.221,4.454h2.152v-3.35H27.787Zm-1.1.543h-2.04v8.29h2.04Zm3.256,0H27.787v8.29h2.152Zm3.331,8.29v-8.29H31.043v8.29Zm9.675-2.489q.037,2.321.15,4.4a1.013,1.013,0,0,1-.421.4,1.213,1.213,0,0,1-.608.178.472.472,0,0,1-.318-.112.337.337,0,0,1-.131-.262q.075-1.1.131-2.143t.075-2.723V-8.426A15.633,15.633,0,0,1,39.184-3.8l-.262-.243a17.058,17.058,0,0,0,1.609-3.584,27.863,27.863,0,0,0,1.011-4.239h-.8a4.587,4.587,0,0,0-1.347.262l-.487-.954a19.665,19.665,0,0,0,1.984.15h.936v-.711a24.482,24.482,0,0,0-.243-3.836,14.743,14.743,0,0,1,1.45.5q.4.178.4.309,0,.112-.168.206l-.318.206v3.331h.767l.337-.524q.056-.075.159-.234a1.482,1.482,0,0,1,.178-.234.216.216,0,0,1,.15-.075,1.084,1.084,0,0,1,.449.271,5.607,5.607,0,0,1,.627.589q.29.318.29.449-.056.3-.449.3H42.946v1.591a5.116,5.116,0,0,1,1.862,1.216A1.979,1.979,0,0,1,45.4-7.809a.717.717,0,0,1-.15.477.47.47,0,0,1-.374.178.777.777,0,0,1-.468-.187,4.788,4.788,0,0,0-.561-1.235,11.642,11.642,0,0,0-.9-1.273Zm8.141-5.24A14.621,14.621,0,0,0,55.8-7.659l-.037.206a1.234,1.234,0,0,0-.973,1.011l-.9-.374q.505.468.505.655a.977.977,0,0,1-.655.3v1.909q.056,2.4.131,3.687a.981.981,0,0,1-.43.309,1.651,1.651,0,0,1-.674.14.213.213,0,0,1-.2-.112.511.511,0,0,1-.066-.262l.075-.374V-.941h-4.81v.9q0,.112-.271.243a1.52,1.52,0,0,1-.664.131A.329.329,0,0,1,46.595.21a.371.371,0,0,1-.112-.253q.075-.973.122-1.918t.065-2.4V-6.723a19.287,19.287,0,0,1-2.339.9l-.168-.3a16.948,16.948,0,0,0,5.577-3.668,13.618,13.618,0,0,1-2.059-2.938A11.551,11.551,0,0,1,45.3-9.849l-.281-.187a13.87,13.87,0,0,0,1.722-2.919,12.613,12.613,0,0,0,.739-2.03,9.132,9.132,0,0,0,.365-1.937q1.815.6,1.815.861,0,.056-.168.131l-.318.131q-.243.636-.561,1.31h3.949l.356-.374q.056-.056.206-.215a.411.411,0,0,1,.281-.159q.168,0,.683.515T54.6-14a.506.506,0,0,1-.262.159,3.467,3.467,0,0,1-.505.084A14.324,14.324,0,0,1,51.086-9.811Zm-3.144-3.331A10.837,10.837,0,0,0,50.3-10.41a12.95,12.95,0,0,0,2.227-3.518H48.373ZM52.789-6.91l.243-.337a14.344,14.344,0,0,1-2.657-1.89,14.746,14.746,0,0,1-3.312,2.208L48-6.5h4.529ZM47.774-1.5h4.81V-5.937h-4.81Z" transform="translate(263.046 55.193)" fill="#333"/>
      <g id="グループ_276" data-name="グループ 276">
        <g id="グループ_275" data-name="グループ 275" transform="translate(-1 -0.088)">
          <path id="パス_1688" data-name="パス 1688" d="M-87.221,0Q-87.4,0-87.4-.364q0-.39.182-.39h.416a4.614,4.614,0,0,0,2.054-.39,1.285,1.285,0,0,0,.78-1.222V-14.82a2.58,2.58,0,0,0-.143-1.053.875.875,0,0,0-.676-.364,14.121,14.121,0,0,0-1.989-.091h-.442q-.182,0-.182-.39,0-.364.182-.364a8.207,8.207,0,0,0,2.912-.481,7.381,7.381,0,0,0,2.418-1.547V-2.366q0,1.612,2.834,1.612h.39a.143.143,0,0,1,.143.091.824.824,0,0,1,.039.3q0,.364-.182.364Zm14.286,0a.121.121,0,0,1-.121-.077.616.616,0,0,1-.033-.231q0-.33.154-.33h.352a2.684,2.684,0,0,0,1.452-.3A1.194,1.194,0,0,0-70.691-2V-13.97a1.2,1.2,0,0,0-.462-1.078,2.621,2.621,0,0,0-1.43-.308h-.352q-.154,0-.154-.308t.154-.308h6.248a.139.139,0,0,1,.143.077.616.616,0,0,1,.033.231q0,.308-.176.308h-.33a2.6,2.6,0,0,0-1.452.319,1.2,1.2,0,0,0-.462,1.067V-2A1.1,1.1,0,0,0-68.48-.979a3.2,3.2,0,0,0,1.463.319l.506.022.88-.022a5.6,5.6,0,0,0,3.146-.891,9.272,9.272,0,0,0,2.222-2.277.2.2,0,0,1,.176-.11.507.507,0,0,1,.2.066q.176.088.176.22l-.022.11q-.418,1.144-.638,1.672L-61.055,0Zm17.908,0Q-55.2,0-55.2-.308t.176-.308h.352a2.631,2.631,0,0,0,1.43-.3A1.194,1.194,0,0,0-52.8-1.98V-13.97a1.221,1.221,0,0,0-.44-1.089,2.631,2.631,0,0,0-1.43-.3h-.352q-.154,0-.154-.308t.154-.308l2.464-.022q2.376,0,4,.066a10.355,10.355,0,0,1,3.883.9,6.787,6.787,0,0,1,2.926,2.563,8.093,8.093,0,0,1,1.133,4.477A8.05,8.05,0,0,1-41.75-3.531,6.862,6.862,0,0,1-44.676-.957a10.225,10.225,0,0,1-3.883.913q-1.452.066-3.63.066Zm6.05-.66a6.929,6.929,0,0,0,2.717-.616,5.859,5.859,0,0,0,2.53-2.255,7.961,7.961,0,0,0,1.089-4.455,8.007,8.007,0,0,0-1.089-4.477,5.782,5.782,0,0,0-2.53-2.244,7.035,7.035,0,0,0-2.717-.6h-.176A2.547,2.547,0,0,0-50.594-15a1.239,1.239,0,0,0-.429,1.078v11.9a1.212,1.212,0,0,0,.429,1.056,2.547,2.547,0,0,0,1.441.308Zm29.436.022a.121.121,0,0,1,.121.077.616.616,0,0,1,.033.231q0,.33-.154.33h-6.578q-.154,0-.154-.33,0-.308.154-.308,1.782,0,1.782-.66a1.235,1.235,0,0,0-.33-.682l-5.1-6.05-1.892,1.87V-2a1.194,1.194,0,0,0,.44,1.067,2.631,2.631,0,0,0,1.43.3h.374q.154,0,.154.308,0,.33-.154.33h-6.248q-.154,0-.154-.33a.616.616,0,0,1,.033-.231.121.121,0,0,1,.121-.077h.33a2.605,2.605,0,0,0,1.452-.308A1.2,1.2,0,0,0-33.445-2V-13.97a1.207,1.207,0,0,0-.451-1.089,2.692,2.692,0,0,0-1.441-.3h-.33q-.154,0-.154-.308t.154-.308h6.248a.139.139,0,0,1,.143.077.616.616,0,0,1,.033.231q0,.308-.176.308h-.374a2.547,2.547,0,0,0-1.441.308,1.239,1.239,0,0,0-.429,1.078V-7.3q3.564-3.52,5.742-5.742l.77-.77a1.085,1.085,0,0,0,.33-.682.711.711,0,0,0-.4-.616,2.161,2.161,0,0,0-1.122-.242q-.154,0-.154-.308t.154-.308h5.7a.139.139,0,0,1,.143.077.616.616,0,0,1,.033.231q0,.308-.176.308a4.512,4.512,0,0,0-3.036,1.408q-.506.462-4.8,4.664l1.98,2.354q3.454,4.136,3.784,4.51a6.336,6.336,0,0,0,1.54,1.408A3.26,3.26,0,0,0-19.541-.638ZM.589-18.546-8.233,2.178l-.792-.352L-.181-18.9Zm17.6,8.562A6.725,6.725,0,0,1,21.7-8.32a4.18,4.18,0,0,1,1.352,3.172,6.232,6.232,0,0,1-.533,2.431A4.967,4.967,0,0,1,20.637-.546a6.378,6.378,0,0,1-3.614.91,5.766,5.766,0,0,1-2.9-.65,3.973,3.973,0,0,1-1.612-1.573,3.85,3.85,0,0,1-.481-1.781,1.681,1.681,0,0,1,.4-1.235,1.27,1.27,0,0,1,.923-.4,1.628,1.628,0,0,1,.988.325,1.078,1.078,0,0,1,.442.923,1.584,1.584,0,0,1-.286.754,2.722,2.722,0,0,0-.221.364.918.918,0,0,0-.091.416,2,2,0,0,0,.572,1.378,2.677,2.677,0,0,0,2.028.624,3.547,3.547,0,0,0,2.054-.624,4.236,4.236,0,0,0,1.43-1.716,5.738,5.738,0,0,0,.52-2.5A4.446,4.446,0,0,0,19.753-8.4a3.661,3.661,0,0,0-2.886-1.17,4.237,4.237,0,0,0-.546.052,4.511,4.511,0,0,1-.624.052.791.791,0,0,1-.481-.143.471.471,0,0,1-.2-.4.48.48,0,0,1,.2-.39.746.746,0,0,1,.481-.156,2.782,2.782,0,0,1,.676.078,5.586,5.586,0,0,0,.65.052,3.564,3.564,0,0,0,2.106-.728q1.014-.728,1.014-3.12a4.154,4.154,0,0,0-.923-3.055,2.984,2.984,0,0,0-2.145-.9,3.3,3.3,0,0,0-1.469.351,1.325,1.325,0,0,0-.715,1.313,2.182,2.182,0,0,0,.208.884,1.318,1.318,0,0,1,.182.676,1.117,1.117,0,0,1-.3.806.985.985,0,0,1-.741.312,1.306,1.306,0,0,1-1.157-.507,1.942,1.942,0,0,1-.351-1.131,2.788,2.788,0,0,1,.585-1.547,4.837,4.837,0,0,1,1.651-1.443,4.91,4.91,0,0,1,2.444-.6,5.288,5.288,0,0,1,2.639.637,4.444,4.444,0,0,1,1.729,1.69,4.53,4.53,0,0,1,.6,2.275,4.363,4.363,0,0,1-1.053,2.925A5.108,5.108,0,0,1,18.193-9.984Zm16.562-1.794a4.408,4.408,0,0,1,2.6.767A4.916,4.916,0,0,1,39.019-9a6.35,6.35,0,0,1,.572,2.678A8.028,8.028,0,0,1,38.9-2.99a5.947,5.947,0,0,1-1.95,2.444,4.827,4.827,0,0,1-2.9.91,5.029,5.029,0,0,1-3.042-.988,6.44,6.44,0,0,1-2.106-2.769,10.427,10.427,0,0,1-.754-4.095,17.348,17.348,0,0,1,1.04-6.357A9.623,9.623,0,0,1,31.8-17.8a4.858,4.858,0,0,1,3.081-1.313,5.517,5.517,0,0,1,2.067.351,3.052,3.052,0,0,1,1.313.923,1.93,1.93,0,0,1,.442,1.2,1.255,1.255,0,0,1-.377.923,1.225,1.225,0,0,1-.9.377,1.243,1.243,0,0,1-.962-.481A2.081,2.081,0,0,1,36-17.082a1.482,1.482,0,0,0-.312-.884,1.113,1.113,0,0,0-.858-.286,2.71,2.71,0,0,0-2.288,1.417,10.862,10.862,0,0,0-1.43,3.484,26.267,26.267,0,0,0-.65,4.147,5.38,5.38,0,0,1,1.924-1.924A4.729,4.729,0,0,1,34.755-11.778Zm-.7,11.154a2.4,2.4,0,0,0,1.7-.7A4.663,4.663,0,0,0,36.913-3.25a8.436,8.436,0,0,0,.416-2.73q0-2.756-1.053-3.666A3.416,3.416,0,0,0,34-10.556a3.47,3.47,0,0,0-2.093.767A4.37,4.37,0,0,0,30.413-7.41a14.068,14.068,0,0,0,.767,4.836A2.817,2.817,0,0,0,34.053-.624Zm27-7.164c0-2.992-1.122-4.2-3.3-4.2A4.484,4.484,0,0,0,54.1-9.834a2.8,2.8,0,0,0-2.97-2.156,4.369,4.369,0,0,0-3.564,2.134L47.5-11.682l-.308-.176-3.256.7v.7l1.76.044c.066,1.144.088,2.442.088,3.982V-5.17c0,1.188-.022,2.948-.044,4.224L44.065-.77V0h5.28V-.77L47.629-.946c-.022-1.276-.044-3.036-.044-4.224V-9A3.688,3.688,0,0,1,50.4-10.692c1.3,0,2.134.792,2.134,2.9V-5.17c0,1.232-.022,2.97-.044,4.224L50.819-.77V0h5.236V-.77L54.361-.946c-.022-1.276-.044-2.992-.044-4.224V-7.964a8.449,8.449,0,0,0-.066-1.1,3.871,3.871,0,0,1,2.9-1.628c1.21,0,2.09.77,2.09,3.036V-5.17c0,1.21-.022,2.97-.044,4.224L57.507-.77V0h5.324V-.77L61.093-.946c-.022-1.254-.044-3.014-.044-4.224Zm.88-5.764,1.144-.946c1.1-.9,1.716-1.562,1.716-2.42,0-.836-.594-1.5-1.738-1.5-1.012,0-1.782.462-1.892,1.408a.4.4,0,0,0,.418.286c.242,0,.484-.088.616-.616l.154-.594a2.391,2.391,0,0,1,.4-.022.944.944,0,0,1,.99,1.056c0,.792-.462,1.3-1.254,2.156l-1.386,1.408v.66h3.938v-.88Zm14.85,1.892q.088-.11.209-.275a2.25,2.25,0,0,1,.209-.253.254.254,0,0,1,.176-.088,1.39,1.39,0,0,1,.55.319,6.321,6.321,0,0,1,.77.693q.352.374.352.528-.088.352-.55.352H72.577a22.292,22.292,0,0,0-3.3.308l-.55-1.144q1.21.132,2.926.176h1.584v-3.41H72.093a8.267,8.267,0,0,0-2.024.308L69.5-15.29q1.056.132,2.552.176h1.188a21.64,21.64,0,0,0-.22-3.432q2.112.616,2.112.924,0,.11-.176.22l-.374.242v2.046h1.364l.4-.594q.066-.088.187-.264a1.94,1.94,0,0,1,.209-.264.254.254,0,0,1,.176-.088,1.331,1.331,0,0,1,.539.319,7.5,7.5,0,0,1,.759.682q.352.363.352.517-.088.352-.55.352H74.579v3.41h1.782Zm9.592-6.028q.044-.066.143-.209a1.123,1.123,0,0,1,.176-.209.249.249,0,0,1,.165-.066q.2,0,.836.594t.638.836a1.323,1.323,0,0,1-.792.308,24.22,24.22,0,0,1-.407,3.817,3.575,3.575,0,0,1-.825,1.859,2.821,2.821,0,0,1-1.914.594,1.211,1.211,0,0,0-.352-.99,4.632,4.632,0,0,0-1.694-.484l.022-.374q.616.066,1.3.11t1.122.044a2.06,2.06,0,0,0,.429-.033.624.624,0,0,0,.253-.121q.55-.506.748-4.576h-3.1A10.194,10.194,0,0,1,81.85-12.43a8.744,8.744,0,0,1-3.707,3.212l-.308-.33a8.061,8.061,0,0,0,2.9-3.19,10.835,10.835,0,0,0,.924-3.85H80.585a7.805,7.805,0,0,0-1.936.308L78.077-17.4q1.21.132,2.926.176h5.038Zm-9.68,10.8q.066-.088.187-.275a1.742,1.742,0,0,1,.209-.275.254.254,0,0,1,.176-.088,1.265,1.265,0,0,1,.528.33,7.449,7.449,0,0,1,.737.7q.341.374.341.528-.066.352-.572.352H74.975V-.77A8.173,8.173,0,0,0,76.9-.352a26.3,26.3,0,0,0,2.629.11q6.864,0,8.954-.066v.286a1.021,1.021,0,0,0-.638.385,1.456,1.456,0,0,0-.264.737h-8.1A15.059,15.059,0,0,1,75.679.7,5.389,5.389,0,0,1,73.16-.77a8.55,8.55,0,0,1-1.771-3.146,11.6,11.6,0,0,1-2.552,5.654l-.22-.264a14.322,14.322,0,0,0,1.672-5.588A16.494,16.494,0,0,0,70.4-6.27a14.307,14.307,0,0,0-.176-2.574q2.178.308,2.178.594,0,.088-.176.2l-.352.22q-.11,1.694-.352,3.168a7.041,7.041,0,0,0,2.156,3.212v-4.4a28.781,28.781,0,0,0-.286-4.51,15.458,15.458,0,0,1,1.683.561q.473.209.473.363,0,.132-.2.242l-.374.242V-6.27h1.3Zm9.064-2.42q.066-.088.231-.3t.3-.209a1.287,1.287,0,0,1,.528.308,5.746,5.746,0,0,1,.726.671q.33.363.33.517a1.006,1.006,0,0,1-.33.231,2.307,2.307,0,0,1-.55.187v1.98q.066,2.486.154,3.85a1.429,1.429,0,0,1-.55.407,1.74,1.74,0,0,1-.77.209.234.234,0,0,1-.209-.132.6.6,0,0,1-.077-.308l.088-.528v-.506H80.8v.44q.022.242.033.451a1.768,1.768,0,0,0,.033.3q-.044.2-.429.385a1.771,1.771,0,0,1-.781.187.3.3,0,0,1-.253-.132.5.5,0,0,1-.1-.308q.088-.924.132-2.332V-5.324a28.789,28.789,0,0,0-.264-4.268l1.738.792H85.4ZM80.8-8.162v4.6h4.818v-4.6Z" transform="translate(145.403 106.17)" fill="#333"/>
          <g id="グループ_268" data-name="グループ 268" transform="translate(-0.14 0.138)">
            <path id="パス_1695" data-name="パス 1695" d="M-77.1,0h-10.92l-.3-.66a18.82,18.82,0,0,1,2.13-4.2q1.29-1.89,3.45-4.5a32.257,32.257,0,0,0,3.18-4.215,6.587,6.587,0,0,0,.99-3.4,4.7,4.7,0,0,0-.9-2.85,3.261,3.261,0,0,0-2.82-1.23,4.029,4.029,0,0,0-2.4.705,2.07,2.07,0,0,0-.99,1.725,1.827,1.827,0,0,0,.1.66,2.74,2.74,0,0,0,.345.6,3.857,3.857,0,0,1,.315.585,1.614,1.614,0,0,1,.105.615,1.561,1.561,0,0,1-.435,1.155,1.522,1.522,0,0,1-1.125.435,1.427,1.427,0,0,1-1.1-.585,2.407,2.407,0,0,1-.495-1.6,4.879,4.879,0,0,1,.675-2.34,5.719,5.719,0,0,1,2.04-2.085A6.182,6.182,0,0,1-81.9-22.05a6.315,6.315,0,0,1,3.48.855,4.829,4.829,0,0,1,1.875,2.13,6.584,6.584,0,0,1,.555,2.655,5.388,5.388,0,0,1-.42,2.2,6.536,6.536,0,0,1-1.14,1.74q-.72.795-2.16,2.115-.33.33-.84.78t-1.17,1.11a22.329,22.329,0,0,0-4.5,6.27h3.57a15.408,15.408,0,0,0,3.27-.255A2.941,2.941,0,0,0-77.75-3.36a7.359,7.359,0,0,0,1.1-2.13q.06-.18.21-.18a2.485,2.485,0,0,1,.27.06,1.176,1.176,0,0,1,.27.12.2.2,0,0,1,.09.18l-.03.15Zm8.25,3.21A.176.176,0,0,1-69,3.12a.292.292,0,0,1-.06-.15A.173.173,0,0,1-69,2.85a4.149,4.149,0,0,0,.825-.96,1.708,1.708,0,0,0,.285-.84.724.724,0,0,0-.39-.69,2.358,2.358,0,0,1-.795-.57,1.284,1.284,0,0,1-.285-.87,1.628,1.628,0,0,1,.48-1.2,1.592,1.592,0,0,1,1.17-.48,1.568,1.568,0,0,1,1.17.5,1.716,1.716,0,0,1,.48,1.245,4.072,4.072,0,0,1-.825,2.49,6.152,6.152,0,0,1-1.875,1.71Zm15.39-25.23a5.8,5.8,0,0,1,3.51,1.14,7.431,7.431,0,0,1,2.43,3.195,12.031,12.031,0,0,1,.87,4.725,20.017,20.017,0,0,1-1.2,7.335,11.1,11.1,0,0,1-3.015,4.56A5.606,5.606,0,0,1-54.425.45a6.366,6.366,0,0,1-2.385-.4A3.522,3.522,0,0,1-58.325-1.02a2.227,2.227,0,0,1-.51-1.38A1.448,1.448,0,0,1-58.4-3.465,1.414,1.414,0,0,1-57.365-3.9a1.434,1.434,0,0,1,1.11.555,2.4,2.4,0,0,1,.54,1.455,1.71,1.71,0,0,0,.36,1.02,1.284,1.284,0,0,0,.99.33,3.127,3.127,0,0,0,2.64-1.635,12.533,12.533,0,0,0,1.65-4.02,30.308,30.308,0,0,0,.75-4.785,6.208,6.208,0,0,1-2.22,2.22,5.456,5.456,0,0,1-2.73.75,5.086,5.086,0,0,1-3-.885,5.673,5.673,0,0,1-1.92-2.325,7.327,7.327,0,0,1-.66-3.09,9.263,9.263,0,0,1,.795-3.84,6.862,6.862,0,0,1,2.25-2.82A5.569,5.569,0,0,1-53.465-22.02Zm.06,12.6A4,4,0,0,0-50.99-10.3a5.042,5.042,0,0,0,1.725-2.745,16.233,16.233,0,0,0-.885-5.58,3.25,3.25,0,0,0-3.315-2.25,2.775,2.775,0,0,0-1.965.81,5.38,5.38,0,0,0-1.335,2.22,9.734,9.734,0,0,0-.48,3.15q0,3.18,1.215,4.23A3.942,3.942,0,0,0-53.4-9.42ZM-34.235.42A4.706,4.706,0,0,1-37.37-.84a8.69,8.69,0,0,1-2.34-3.78,18.683,18.683,0,0,1-.885-6.15,18.666,18.666,0,0,1,.9-6.18,8.917,8.917,0,0,1,2.355-3.825,4.71,4.71,0,0,1,3.165-1.275,4.676,4.676,0,0,1,3.135,1.275A8.808,8.808,0,0,1-28.7-16.95a18.958,18.958,0,0,1,.885,6.18,18.4,18.4,0,0,1-.9,6.15A8.8,8.8,0,0,1-31.07-.84,4.74,4.74,0,0,1-34.235.42Zm.06-1.02q1.74,0,2.745-2.535a21.9,21.9,0,0,0,1-7.635,22.173,22.173,0,0,0-1-7.665Q-32.435-21-34.175-21q-1.77,0-2.79,2.565a21.871,21.871,0,0,0-1.02,7.665,21.605,21.605,0,0,0,1.02,7.635Q-35.945-.6-34.175-.6ZM-15.635.42A4.706,4.706,0,0,1-18.77-.84a8.69,8.69,0,0,1-2.34-3.78,18.683,18.683,0,0,1-.885-6.15,18.666,18.666,0,0,1,.9-6.18,8.917,8.917,0,0,1,2.355-3.825,4.71,4.71,0,0,1,3.165-1.275,4.676,4.676,0,0,1,3.135,1.275A8.808,8.808,0,0,1-10.1-16.95a18.958,18.958,0,0,1,.885,6.18,18.4,18.4,0,0,1-.9,6.15A8.8,8.8,0,0,1-12.47-.84,4.74,4.74,0,0,1-15.635.42Zm.06-1.02q1.74,0,2.745-2.535a21.9,21.9,0,0,0,1.005-7.635,22.173,22.173,0,0,0-1.005-7.665Q-13.835-21-15.575-21q-1.77,0-2.79,2.565a21.871,21.871,0,0,0-1.02,7.665,21.605,21.605,0,0,0,1.02,7.635Q-17.345-.6-15.575-.6Z" transform="translate(374 106)" fill="#952600"/>
            <path id="パス_1696" data-name="パス 1696" d="M11.145-11q.066-.088.187-.242a1.635,1.635,0,0,1,.2-.22.249.249,0,0,1,.165-.066q.2,0,.858.649t.66.891a1.476,1.476,0,0,1-.9.33A50.5,50.5,0,0,1,11.6-3.014,7.337,7.337,0,0,1,10.287.528a3.63,3.63,0,0,1-2.574.88A1.174,1.174,0,0,0,7.251.352a3.19,3.19,0,0,0-.957-.363Q5.579-.2,4.743-.33l.022-.4q.968.11,2.112.209t1.518.1a1.717,1.717,0,0,0,.528-.066,1.341,1.341,0,0,0,.4-.22q.572-.506,1-3.014a54.889,54.889,0,0,0,.627-6.116H4.479A18.162,18.162,0,0,1,2.191-3.4,16.128,16.128,0,0,1-3.045,1.782l-.308-.374a15.964,15.964,0,0,0,4.367-5.06,17.312,17.312,0,0,0,1.848-5.4,47.272,47.272,0,0,0,.473-6.215H.343a22.292,22.292,0,0,0-3.3.308l-.594-1.1q1.21.132,2.926.176h13.4l.484-.7.22-.3a2.845,2.845,0,0,1,.253-.308.278.278,0,0,1,.187-.1,1.58,1.58,0,0,1,.594.363,9.72,9.72,0,0,1,.869.77q.407.407.407.561-.022.33-.55.33H4.919a42.856,42.856,0,0,1-.352,4.8h6.182ZM23.707-4.18q.044,2.728.176,5.17a1.365,1.365,0,0,1-.517.473,1.539,1.539,0,0,1-.781.209.526.526,0,0,1-.352-.132.4.4,0,0,1-.154-.308q.088-1.3.154-2.519t.088-3.2v-8.36a28.781,28.781,0,0,0-.286-4.51l1.782.858H37l.308-.462q.066-.088.2-.275t.264-.187a1.487,1.487,0,0,1,.561.3,7.668,7.668,0,0,1,.8.638q.374.341.374.5a1.644,1.644,0,0,1-.374.264,1.616,1.616,0,0,1-.55.176v15A2.653,2.653,0,0,1,38.4.5a1.441,1.441,0,0,1-.726.682,4.842,4.842,0,0,1-1.606.385A1.7,1.7,0,0,0,35.9.946a1,1,0,0,0-.418-.4,6.114,6.114,0,0,0-2.222-.572V-.374q2.794.22,3.3.22a.728.728,0,0,0,.495-.132.577.577,0,0,0,.143-.44V-7.964H23.707Zm5.962-11.66H23.707v7.26h5.962Zm1.408,0v7.26h6.116v-7.26ZM49.8-11.286q3.058-.11,8.074-.374l2.552-.132a23.777,23.777,0,0,0-3.432-3.652l.242-.2a16.761,16.761,0,0,1,3.52,2.178,9,9,0,0,1,1.969,2.156,3.572,3.572,0,0,1,.605,1.76,1.1,1.1,0,0,1-.176.66.566.566,0,0,1-.484.242,1.074,1.074,0,0,1-.572-.2,9.437,9.437,0,0,0-1.342-2.464q-5.676.814-14.168,1.672a.9.9,0,0,1-.616.462l-.55-2q1.584,0,3.586-.088,1.122-1.958,1.848-3.432a19.757,19.757,0,0,0,.957-2.145,15.231,15.231,0,0,0,.627-2.013q2.354.88,2.354,1.166,0,.088-.2.176l-.418.132q-.858,1.43-2.035,3.091T49.8-11.286ZM49.557.264q.022.286.033.517a2.521,2.521,0,0,0,.033.341q-.044.2-.429.407a1.661,1.661,0,0,1-.8.209.355.355,0,0,1-.286-.132A.467.467,0,0,1,48,1.3q.11-1.166.154-3.1V-3.586a28.781,28.781,0,0,0-.286-4.51l1.8.858h9.812l.352-.462L60-7.92a1.265,1.265,0,0,1,.176-.2.249.249,0,0,1,.165-.066,1.487,1.487,0,0,1,.561.3,6.843,6.843,0,0,1,.792.638q.363.341.363.495a1.54,1.54,0,0,1-.946.44V-3.85q.066,3.08.154,4.774a1.358,1.358,0,0,1-.572.4,1.96,1.96,0,0,1-.792.2.251.251,0,0,1-.231-.132.6.6,0,0,1-.077-.308l.088-.7V-.22H49.557Zm0-6.864V-.88h10.12V-6.6Zm33.308.066a10.931,10.931,0,0,1-4.07-1.034Q77.079-8.294,76.1-8.613a6.457,6.457,0,0,0-2.013-.319,5.151,5.151,0,0,0-2.233.495,17.554,17.554,0,0,0-2.145,1.221.272.272,0,0,1-.154.066.228.228,0,0,1-.143-.066q-.077-.066-.077-.11a.214.214,0,0,1,.044-.11A7.769,7.769,0,0,1,71.5-9.317a5.824,5.824,0,0,1,3.2-.891,10.96,10.96,0,0,1,4.092,1.034l.484.2q1.5.616,2.376.9a5.87,5.87,0,0,0,1.826.286A5.08,5.08,0,0,0,85.7-8.283a17.665,17.665,0,0,0,2.156-1.243.383.383,0,0,1,.154-.066.228.228,0,0,1,.143.066q.077.066.077.11a.214.214,0,0,1-.044.11,7.769,7.769,0,0,1-2.123,1.881A5.824,5.824,0,0,1,82.865-6.534Z" transform="translate(374 106)" fill="#333"/>
          </g>
        </g>
        <g id="グループ_274" data-name="グループ 274" transform="translate(-1 2.022)">
          <path id="パス_1689" data-name="パス 1689" d="M-78.615,0h-9.464l-.26-.572a16.31,16.31,0,0,1,1.846-3.64q1.118-1.638,2.99-3.9a27.956,27.956,0,0,0,2.756-3.653,5.709,5.709,0,0,0,.858-2.951,4.072,4.072,0,0,0-.78-2.47,2.826,2.826,0,0,0-2.444-1.066,3.492,3.492,0,0,0-2.08.611,1.794,1.794,0,0,0-.858,1.5,1.583,1.583,0,0,0,.091.572,2.375,2.375,0,0,0,.3.52,3.343,3.343,0,0,1,.273.507,1.4,1.4,0,0,1,.091.533,1.353,1.353,0,0,1-.377,1,1.319,1.319,0,0,1-.975.377,1.237,1.237,0,0,1-.949-.507,2.086,2.086,0,0,1-.429-1.391,4.228,4.228,0,0,1,.585-2.028,4.956,4.956,0,0,1,1.768-1.807,5.358,5.358,0,0,1,2.9-.741,5.473,5.473,0,0,1,3.016.741,4.185,4.185,0,0,1,1.625,1.846,5.706,5.706,0,0,1,.481,2.3,4.669,4.669,0,0,1-.364,1.911A5.664,5.664,0,0,1-79-10.8q-.624.689-1.872,1.833-.286.286-.728.676t-1.014.962a19.352,19.352,0,0,0-3.9,5.434h3.094a13.353,13.353,0,0,0,2.834-.221,2.549,2.549,0,0,0,1.417-.793,6.378,6.378,0,0,0,.949-1.846q.052-.156.182-.156a2.153,2.153,0,0,1,.234.052,1.019,1.019,0,0,1,.234.1A.175.175,0,0,1-77.5-4.6l-.026.13Zm6.252,0a.121.121,0,0,1-.121-.077.616.616,0,0,1-.033-.231q0-.33.154-.33h.352a2.684,2.684,0,0,0,1.452-.3A1.194,1.194,0,0,0-70.119-2V-13.97a1.2,1.2,0,0,0-.462-1.078,2.621,2.621,0,0,0-1.43-.308h-.352q-.154,0-.154-.308t.154-.308h6.248a.139.139,0,0,1,.143.077.616.616,0,0,1,.033.231q0,.308-.176.308h-.33a2.6,2.6,0,0,0-1.452.319,1.2,1.2,0,0,0-.462,1.067V-2a1.1,1.1,0,0,0,.451,1.023,3.2,3.2,0,0,0,1.463.319l.506.022.88-.022a5.6,5.6,0,0,0,3.146-.891,9.272,9.272,0,0,0,2.222-2.277.2.2,0,0,1,.176-.11.507.507,0,0,1,.2.066q.176.088.176.22l-.022.11Q-59.581-2.4-59.8-1.87L-60.483,0Zm17.908,0q-.176,0-.176-.308t.176-.308h.352a2.631,2.631,0,0,0,1.43-.3,1.194,1.194,0,0,0,.44-1.067V-13.97a1.221,1.221,0,0,0-.44-1.089,2.631,2.631,0,0,0-1.43-.3h-.352q-.154,0-.154-.308t.154-.308l2.464-.022q2.376,0,4,.066a10.355,10.355,0,0,1,3.883.9,6.787,6.787,0,0,1,2.926,2.563,8.093,8.093,0,0,1,1.133,4.477,8.05,8.05,0,0,1-1.133,4.455A6.862,6.862,0,0,1-44.1-.957a10.225,10.225,0,0,1-3.883.913q-1.452.066-3.63.066Zm6.05-.66a6.929,6.929,0,0,0,2.717-.616,5.859,5.859,0,0,0,2.53-2.255,7.961,7.961,0,0,0,1.089-4.455,8.007,8.007,0,0,0-1.089-4.477,5.782,5.782,0,0,0-2.53-2.244,7.035,7.035,0,0,0-2.717-.6h-.176A2.547,2.547,0,0,0-50.022-15a1.239,1.239,0,0,0-.429,1.078v11.9a1.212,1.212,0,0,0,.429,1.056,2.547,2.547,0,0,0,1.441.308Zm29.436.022a.121.121,0,0,1,.121.077.616.616,0,0,1,.033.231q0,.33-.154.33h-6.578Q-25.7,0-25.7-.33q0-.308.154-.308,1.782,0,1.782-.66a1.235,1.235,0,0,0-.33-.682l-5.1-6.05-1.892,1.87V-2a1.194,1.194,0,0,0,.44,1.067,2.631,2.631,0,0,0,1.43.3h.374q.154,0,.154.308,0,.33-.154.33H-35.1q-.154,0-.154-.33a.616.616,0,0,1,.033-.231A.121.121,0,0,1-35.1-.638h.33a2.605,2.605,0,0,0,1.452-.308A1.2,1.2,0,0,0-32.873-2V-13.97a1.207,1.207,0,0,0-.451-1.089,2.692,2.692,0,0,0-1.441-.3h-.33q-.154,0-.154-.308t.154-.308h6.248a.139.139,0,0,1,.143.077.616.616,0,0,1,.033.231q0,.308-.176.308h-.374a2.547,2.547,0,0,0-1.441.308,1.239,1.239,0,0,0-.429,1.078V-7.3q3.564-3.52,5.742-5.742l.77-.77a1.085,1.085,0,0,0,.33-.682.711.711,0,0,0-.4-.616,2.161,2.161,0,0,0-1.122-.242q-.154,0-.154-.308t.154-.308h5.7a.139.139,0,0,1,.143.077.616.616,0,0,1,.033.231q0,.308-.176.308A4.512,4.512,0,0,0-23.1-13.948q-.506.462-4.8,4.664l1.98,2.354q3.454,4.136,3.784,4.51A6.336,6.336,0,0,0-20.6-1.012,3.26,3.26,0,0,0-18.969-.638ZM1.161-18.546-7.661,2.178l-.792-.352L.391-18.9Zm22.8,14.282H21.027V-1.69a.726.726,0,0,0,.494.754,3.838,3.838,0,0,0,1.3.182h.338q.234,0,.234.364,0,.39-.234.39h-6.24q-.208,0-.208-.39,0-.364.208-.364h.338a3.838,3.838,0,0,0,1.3-.182.726.726,0,0,0,.494-.754V-4.264H12.057V-5.356l7.93-13.754,1.04.234v13.52h2.938ZM19.051-15.34,13.305-5.356h5.746Zm15.756,3.562a4.408,4.408,0,0,1,2.6.767A4.916,4.916,0,0,1,39.071-9a6.35,6.35,0,0,1,.572,2.678,8.028,8.028,0,0,1-.689,3.328A5.947,5.947,0,0,1,37-.546a4.827,4.827,0,0,1-2.9.91,5.029,5.029,0,0,1-3.042-.988,6.44,6.44,0,0,1-2.106-2.769A10.427,10.427,0,0,1,28.2-7.488a17.348,17.348,0,0,1,1.04-6.357A9.623,9.623,0,0,1,31.856-17.8a4.858,4.858,0,0,1,3.081-1.313A5.517,5.517,0,0,1,37-18.759a3.052,3.052,0,0,1,1.313.923,1.93,1.93,0,0,1,.442,1.2,1.255,1.255,0,0,1-.377.923,1.225,1.225,0,0,1-.9.377,1.243,1.243,0,0,1-.962-.481,2.081,2.081,0,0,1-.468-1.261,1.482,1.482,0,0,0-.312-.884,1.113,1.113,0,0,0-.858-.286A2.71,2.71,0,0,0,32.6-16.835a10.862,10.862,0,0,0-1.43,3.484,26.267,26.267,0,0,0-.65,4.147,5.38,5.38,0,0,1,1.924-1.924A4.729,4.729,0,0,1,34.807-11.778Zm-.7,11.154a2.4,2.4,0,0,0,1.7-.7A4.663,4.663,0,0,0,36.965-3.25a8.436,8.436,0,0,0,.416-2.73q0-2.756-1.053-3.666a3.416,3.416,0,0,0-2.275-.91,3.47,3.47,0,0,0-2.093.767A4.37,4.37,0,0,0,30.465-7.41a14.068,14.068,0,0,0,.767,4.836A2.817,2.817,0,0,0,34.105-.624Zm27-7.164c0-2.992-1.122-4.2-3.3-4.2a4.484,4.484,0,0,0-3.652,2.156,2.8,2.8,0,0,0-2.97-2.156,4.369,4.369,0,0,0-3.564,2.134l-.066-1.826-.308-.176-3.256.7v.7l1.76.044c.066,1.144.088,2.442.088,3.982V-5.17c0,1.188-.022,2.948-.044,4.224L44.117-.77V0H49.4V-.77L47.681-.946c-.022-1.276-.044-3.036-.044-4.224V-9a3.688,3.688,0,0,1,2.816-1.694c1.3,0,2.134.792,2.134,2.9V-5.17c0,1.232-.022,2.97-.044,4.224L50.871-.77V0h5.236V-.77L54.413-.946c-.022-1.276-.044-2.992-.044-4.224V-7.964a8.449,8.449,0,0,0-.066-1.1,3.871,3.871,0,0,1,2.9-1.628c1.21,0,2.09.77,2.09,3.036V-5.17c0,1.21-.022,2.97-.044,4.224L57.559-.77V0h5.324V-.77L61.145-.946C61.123-2.2,61.1-3.96,61.1-5.17Zm.88-5.764,1.144-.946c1.1-.9,1.716-1.562,1.716-2.42,0-.836-.594-1.5-1.738-1.5-1.012,0-1.782.462-1.892,1.408a.4.4,0,0,0,.418.286c.242,0,.484-.088.616-.616l.154-.594a2.391,2.391,0,0,1,.4-.022.944.944,0,0,1,.99,1.056c0,.792-.462,1.3-1.254,2.156l-1.386,1.408v.66h3.938v-.88Zm14.85,1.892q.088-.11.209-.275a2.25,2.25,0,0,1,.209-.253.254.254,0,0,1,.176-.088,1.39,1.39,0,0,1,.55.319,6.321,6.321,0,0,1,.77.693q.352.374.352.528-.088.352-.55.352H72.629a22.292,22.292,0,0,0-3.3.308l-.55-1.144q1.21.132,2.926.176h1.584v-3.41H72.145a8.267,8.267,0,0,0-2.024.308l-.572-1.144q1.056.132,2.552.176h1.188a21.64,21.64,0,0,0-.22-3.432q2.112.616,2.112.924,0,.11-.176.22l-.374.242v2.046h1.364l.4-.594q.066-.088.187-.264a1.94,1.94,0,0,1,.209-.264.254.254,0,0,1,.176-.088,1.331,1.331,0,0,1,.539.319,7.5,7.5,0,0,1,.759.682q.352.363.352.517-.088.352-.55.352H74.631v3.41h1.782Zm9.592-6.028q.044-.066.143-.209a1.123,1.123,0,0,1,.176-.209.249.249,0,0,1,.165-.066q.2,0,.836.594t.638.836a1.323,1.323,0,0,1-.792.308,24.22,24.22,0,0,1-.407,3.817,3.575,3.575,0,0,1-.825,1.859,2.821,2.821,0,0,1-1.914.594,1.211,1.211,0,0,0-.352-.99,4.632,4.632,0,0,0-1.694-.484l.022-.374q.616.066,1.3.11t1.122.044a2.06,2.06,0,0,0,.429-.033.624.624,0,0,0,.253-.121q.55-.506.748-4.576h-3.1A10.194,10.194,0,0,1,81.9-12.43a8.744,8.744,0,0,1-3.707,3.212l-.308-.33a8.061,8.061,0,0,0,2.9-3.19,10.835,10.835,0,0,0,.924-3.85H80.637a7.805,7.805,0,0,0-1.936.308L78.129-17.4q1.21.132,2.926.176h5.038Zm-9.68,10.8q.066-.088.187-.275a1.742,1.742,0,0,1,.209-.275.254.254,0,0,1,.176-.088,1.265,1.265,0,0,1,.528.33,7.449,7.449,0,0,1,.737.7q.341.374.341.528-.066.352-.572.352H75.027V-.77a8.173,8.173,0,0,0,1.925.418,26.3,26.3,0,0,0,2.629.11q6.864,0,8.954-.066v.286A1.021,1.021,0,0,0,87.9.363a1.456,1.456,0,0,0-.264.737h-8.1A15.059,15.059,0,0,1,75.731.7,5.389,5.389,0,0,1,73.212-.77a8.55,8.55,0,0,1-1.771-3.146,11.6,11.6,0,0,1-2.552,5.654l-.22-.264a14.322,14.322,0,0,0,1.672-5.588,16.494,16.494,0,0,0,.11-2.156,14.307,14.307,0,0,0-.176-2.574q2.178.308,2.178.594,0,.088-.176.2l-.352.22q-.11,1.694-.352,3.168a7.041,7.041,0,0,0,2.156,3.212v-4.4a28.781,28.781,0,0,0-.286-4.51,15.458,15.458,0,0,1,1.683.561q.473.209.473.363,0,.132-.2.242l-.374.242V-6.27h1.3Zm9.064-2.42q.066-.088.231-.3t.3-.209a1.287,1.287,0,0,1,.528.308,5.746,5.746,0,0,1,.726.671q.33.363.33.517a1.006,1.006,0,0,1-.33.231,2.307,2.307,0,0,1-.55.187v1.98q.066,2.486.154,3.85a1.429,1.429,0,0,1-.55.407,1.74,1.74,0,0,1-.77.209.234.234,0,0,1-.209-.132.6.6,0,0,1-.077-.308l.088-.528v-.506H80.857v.44q.022.242.033.451a1.768,1.768,0,0,0,.033.3q-.044.2-.429.385a1.771,1.771,0,0,1-.781.187A.3.3,0,0,1,79.46-1.3a.5.5,0,0,1-.1-.308q.088-.924.132-2.332V-5.324a28.789,28.789,0,0,0-.264-4.268l1.738.792h4.488Zm-4.95,1.144v4.6h4.818v-4.6Z" transform="translate(146.339 145.06)" fill="#333"/>
          <g id="グループ_269" data-name="グループ 269" transform="translate(0.46 -3.972)">
            <path id="パス_1694" data-name="パス 1694" d="M22.975-11q.066-.088.187-.242a1.635,1.635,0,0,1,.2-.22.249.249,0,0,1,.165-.066q.2,0,.858.649t.66.891a1.476,1.476,0,0,1-.9.33,50.5,50.5,0,0,1-.715,6.644A7.337,7.337,0,0,1,22.117.528a3.63,3.63,0,0,1-2.574.88A1.174,1.174,0,0,0,19.081.352a3.19,3.19,0,0,0-.957-.363Q17.409-.2,16.573-.33l.022-.4q.968.11,2.112.209t1.518.1a1.717,1.717,0,0,0,.528-.066,1.341,1.341,0,0,0,.4-.22q.572-.506,1-3.014a54.889,54.889,0,0,0,.627-6.116H16.309A18.162,18.162,0,0,1,14.021-3.4,16.128,16.128,0,0,1,8.785,1.782l-.308-.374a15.964,15.964,0,0,0,4.367-5.06,17.312,17.312,0,0,0,1.848-5.4,47.271,47.271,0,0,0,.473-6.215H12.173a22.292,22.292,0,0,0-3.3.308l-.594-1.1q1.21.132,2.926.176H24.6l.484-.7.22-.3a2.845,2.845,0,0,1,.253-.308.278.278,0,0,1,.187-.1,1.58,1.58,0,0,1,.594.363,9.72,9.72,0,0,1,.869.77q.407.407.407.561-.022.33-.55.33H16.749a42.856,42.856,0,0,1-.352,4.8h6.182ZM35.537-4.18q.044,2.728.176,5.17a1.365,1.365,0,0,1-.517.473,1.539,1.539,0,0,1-.781.209.526.526,0,0,1-.352-.132.4.4,0,0,1-.154-.308q.088-1.3.154-2.519t.088-3.2v-8.36a28.781,28.781,0,0,0-.286-4.51l1.782.858H48.825l.308-.462q.066-.088.2-.275t.264-.187a1.487,1.487,0,0,1,.561.3,7.668,7.668,0,0,1,.8.638q.374.341.374.5a1.644,1.644,0,0,1-.374.264,1.616,1.616,0,0,1-.55.176v15A2.653,2.653,0,0,1,50.233.5a1.441,1.441,0,0,1-.726.682,4.842,4.842,0,0,1-1.606.385,1.7,1.7,0,0,0-.176-.616,1,1,0,0,0-.418-.4,6.114,6.114,0,0,0-2.222-.572V-.374q2.794.22,3.3.22a.728.728,0,0,0,.495-.132.577.577,0,0,0,.143-.44V-7.964H35.537ZM41.5-15.84H35.537v7.26H41.5Zm1.408,0v7.26h6.116v-7.26Zm18.722,4.554q3.058-.11,8.074-.374l2.552-.132a23.777,23.777,0,0,0-3.432-3.652l.242-.2a16.761,16.761,0,0,1,3.52,2.178,9,9,0,0,1,1.969,2.156,3.572,3.572,0,0,1,.605,1.76,1.1,1.1,0,0,1-.176.66.566.566,0,0,1-.484.242,1.074,1.074,0,0,1-.572-.2,9.437,9.437,0,0,0-1.342-2.464q-5.676.814-14.168,1.672a.9.9,0,0,1-.616.462l-.55-2q1.584,0,3.586-.088,1.122-1.958,1.848-3.432a19.757,19.757,0,0,0,.957-2.145,15.232,15.232,0,0,0,.627-2.013q2.354.88,2.354,1.166,0,.088-.2.176l-.418.132q-.858,1.43-2.035,3.091T61.629-11.286ZM61.387.264q.022.286.033.517a2.521,2.521,0,0,0,.033.341q-.044.2-.429.407a1.661,1.661,0,0,1-.8.209.355.355,0,0,1-.286-.132.467.467,0,0,1-.11-.308q.11-1.166.154-3.1V-3.586a28.781,28.781,0,0,0-.286-4.51l1.8.858h9.812l.352-.462.165-.22a1.266,1.266,0,0,1,.176-.2.249.249,0,0,1,.165-.066,1.487,1.487,0,0,1,.561.3,6.842,6.842,0,0,1,.792.638q.363.341.363.495a1.54,1.54,0,0,1-.946.44V-3.85Q73-.77,73.091.924a1.358,1.358,0,0,1-.572.4,1.96,1.96,0,0,1-.792.2.251.251,0,0,1-.231-.132.6.6,0,0,1-.077-.308l.088-.7V-.22H61.387Zm0-6.864V-.88h10.12V-6.6Z" transform="translate(361 149)" fill="#333"/>
            <path id="パス_1697" data-name="パス 1697" d="M-68.815-11.52a7.759,7.759,0,0,1,4.05,1.92,4.823,4.823,0,0,1,1.56,3.66,7.191,7.191,0,0,1-.615,2.805A5.731,5.731,0,0,1-66-.63,7.359,7.359,0,0,1-70.165.42,6.653,6.653,0,0,1-73.51-.33a4.585,4.585,0,0,1-1.86-1.815A4.442,4.442,0,0,1-75.925-4.2a1.94,1.94,0,0,1,.465-1.425A1.465,1.465,0,0,1-74.4-6.09a1.878,1.878,0,0,1,1.14.375,1.243,1.243,0,0,1,.51,1.065,1.828,1.828,0,0,1-.33.87,3.141,3.141,0,0,0-.255.42,1.059,1.059,0,0,0-.105.48,2.3,2.3,0,0,0,.66,1.59,3.089,3.089,0,0,0,2.34.72,4.093,4.093,0,0,0,2.37-.72,4.888,4.888,0,0,0,1.65-1.98,6.621,6.621,0,0,0,.6-2.88,5.13,5.13,0,0,0-1.2-3.54,4.225,4.225,0,0,0-3.33-1.35,4.89,4.89,0,0,0-.63.06,5.205,5.205,0,0,1-.72.06.913.913,0,0,1-.555-.165.543.543,0,0,1-.225-.465A.554.554,0,0,1-72.25-12a.86.86,0,0,1,.555-.18,3.21,3.21,0,0,1,.78.09,6.446,6.446,0,0,0,.75.06,4.112,4.112,0,0,0,2.43-.84q1.17-.84,1.17-3.6a4.793,4.793,0,0,0-1.065-3.525,3.443,3.443,0,0,0-2.475-1.035,3.805,3.805,0,0,0-1.695.4,1.529,1.529,0,0,0-.825,1.515,2.517,2.517,0,0,0,.24,1.02,1.521,1.521,0,0,1,.21.78,1.289,1.289,0,0,1-.345.93,1.137,1.137,0,0,1-.855.36A1.507,1.507,0,0,1-74.71-16.6a2.241,2.241,0,0,1-.4-1.305,3.217,3.217,0,0,1,.675-1.785,5.581,5.581,0,0,1,1.9-1.665,5.665,5.665,0,0,1,2.82-.69,6.1,6.1,0,0,1,3.045.735,5.128,5.128,0,0,1,2,1.95,5.227,5.227,0,0,1,.69,2.625A5.035,5.035,0,0,1-65.2-13.365,5.894,5.894,0,0,1-68.815-11.52Zm12.69,14.73a.176.176,0,0,1-.15-.09.292.292,0,0,1-.06-.15.173.173,0,0,1,.06-.12,4.149,4.149,0,0,0,.825-.96,1.708,1.708,0,0,0,.285-.84.724.724,0,0,0-.39-.69,2.358,2.358,0,0,1-.8-.57,1.284,1.284,0,0,1-.285-.87,1.628,1.628,0,0,1,.48-1.2,1.592,1.592,0,0,1,1.17-.48,1.568,1.568,0,0,1,1.17.5,1.716,1.716,0,0,1,.48,1.245,4.072,4.072,0,0,1-.825,2.49,6.152,6.152,0,0,1-1.875,1.71Zm15.36-17.22a6.687,6.687,0,0,1,2.565.585,5.759,5.759,0,0,1,2.475,2.16,7.574,7.574,0,0,1,1.08,4.335,7.479,7.479,0,0,1-.99,3.87,7.1,7.1,0,0,1-2.52,2.58,6.038,6.038,0,0,1-3.09.9A7.552,7.552,0,0,1-43.96-.09a5.234,5.234,0,0,1-2.19-1.53,3.661,3.661,0,0,1-.855-2.43,1.96,1.96,0,0,1,.435-1.425A1.348,1.348,0,0,1-45.6-5.91a1.989,1.989,0,0,1,1.14.345,1.2,1.2,0,0,1,.51,1.065,3.018,3.018,0,0,1-.18.93l-.09.36a1.86,1.86,0,0,0-.06.45,1.825,1.825,0,0,0,.855,1.635,3.425,3.425,0,0,0,1.905.555,3.3,3.3,0,0,0,2.1-.765,5.32,5.32,0,0,0,1.545-2.16,8.285,8.285,0,0,0,.585-3.225A7.725,7.725,0,0,0-38.4-11.1a3.419,3.419,0,0,0-2.97-1.65q-2.25,0-4.26,2.88l-.87-.57.42-11.34h10.53l-.42,2.25h-9.15l-.33,7.86a8.252,8.252,0,0,1,2.34-1.815A5.407,5.407,0,0,1-40.765-14.01ZM-22.405.42A4.706,4.706,0,0,1-25.54-.84a8.69,8.69,0,0,1-2.34-3.78,18.683,18.683,0,0,1-.885-6.15,18.666,18.666,0,0,1,.9-6.18,8.917,8.917,0,0,1,2.355-3.825,4.71,4.71,0,0,1,3.165-1.275,4.676,4.676,0,0,1,3.135,1.275,8.808,8.808,0,0,1,2.34,3.825,18.958,18.958,0,0,1,.885,6.18,18.4,18.4,0,0,1-.9,6.15A8.8,8.8,0,0,1-19.24-.84,4.74,4.74,0,0,1-22.405.42Zm.06-1.02q1.74,0,2.745-2.535a21.9,21.9,0,0,0,1-7.635,22.173,22.173,0,0,0-1-7.665Q-20.605-21-22.345-21q-1.77,0-2.79,2.565a21.871,21.871,0,0,0-1.02,7.665,21.605,21.605,0,0,0,1.02,7.635Q-24.115-.6-22.345-.6ZM-3.805.42A4.706,4.706,0,0,1-6.94-.84,8.69,8.69,0,0,1-9.28-4.62a18.683,18.683,0,0,1-.885-6.15,18.666,18.666,0,0,1,.9-6.18A8.917,8.917,0,0,1-6.91-20.775,4.71,4.71,0,0,1-3.745-22.05,4.676,4.676,0,0,1-.61-20.775,8.808,8.808,0,0,1,1.73-16.95a18.958,18.958,0,0,1,.885,6.18,18.4,18.4,0,0,1-.9,6.15A8.8,8.8,0,0,1-.64-.84,4.74,4.74,0,0,1-3.805.42Zm.06-1.02Q-2.005-.6-1-3.135A21.9,21.9,0,0,0,0-10.77,22.173,22.173,0,0,0-1-18.435Q-2.005-21-3.745-21q-1.77,0-2.79,2.565a21.871,21.871,0,0,0-1.02,7.665,21.605,21.605,0,0,0,1.02,7.635Q-5.515-.6-3.745-.6Z" transform="translate(361 149)" fill="#952600"/>
          </g>
        </g>
        <g id="グループ_272" data-name="グループ 272" transform="translate(-1 8.26)">
          <path id="パス_1690" data-name="パス 1690" d="M-95.008,0h-9.464l-.26-.572a16.31,16.31,0,0,1,1.846-3.64q1.118-1.638,2.99-3.9a27.956,27.956,0,0,0,2.756-3.653,5.709,5.709,0,0,0,.858-2.951,4.072,4.072,0,0,0-.78-2.47,2.826,2.826,0,0,0-2.444-1.066,3.492,3.492,0,0,0-2.08.611,1.794,1.794,0,0,0-.858,1.5,1.583,1.583,0,0,0,.091.572,2.375,2.375,0,0,0,.3.52,3.343,3.343,0,0,1,.273.507,1.4,1.4,0,0,1,.091.533,1.353,1.353,0,0,1-.377,1,1.319,1.319,0,0,1-.975.377,1.237,1.237,0,0,1-.949-.507,2.086,2.086,0,0,1-.429-1.391,4.228,4.228,0,0,1,.585-2.028,4.956,4.956,0,0,1,1.768-1.807,5.358,5.358,0,0,1,2.9-.741,5.473,5.473,0,0,1,3.016.741,4.185,4.185,0,0,1,1.625,1.846,5.706,5.706,0,0,1,.481,2.3,4.669,4.669,0,0,1-.364,1.911A5.664,5.664,0,0,1-95.4-10.8q-.624.689-1.872,1.833-.286.286-.728.676t-1.014.962a19.352,19.352,0,0,0-3.9,5.434h3.094a13.353,13.353,0,0,0,2.834-.221,2.549,2.549,0,0,0,1.417-.793,6.378,6.378,0,0,0,.949-1.846q.052-.156.182-.156a2.153,2.153,0,0,1,.234.052,1.019,1.019,0,0,1,.234.1.175.175,0,0,1,.078.156l-.026.13Zm6.252,0a.121.121,0,0,1-.121-.077.616.616,0,0,1-.033-.231q0-.33.154-.33h.352a2.684,2.684,0,0,0,1.452-.3A1.194,1.194,0,0,0-86.512-2V-13.97a1.2,1.2,0,0,0-.462-1.078,2.621,2.621,0,0,0-1.43-.308h-.352q-.154,0-.154-.308t.154-.308h6.248a.139.139,0,0,1,.143.077.616.616,0,0,1,.033.231q0,.308-.176.308h-.33a2.6,2.6,0,0,0-1.452.319,1.2,1.2,0,0,0-.462,1.067V-2A1.1,1.1,0,0,0-84.3-.979a3.2,3.2,0,0,0,1.463.319l.506.022.88-.022a5.6,5.6,0,0,0,3.146-.891,9.272,9.272,0,0,0,2.222-2.277.2.2,0,0,1,.176-.11.507.507,0,0,1,.2.066q.176.088.176.22l-.022.11q-.418,1.144-.638,1.672L-76.876,0Zm17.908,0q-.176,0-.176-.308t.176-.308h.352a2.631,2.631,0,0,0,1.43-.3,1.194,1.194,0,0,0,.44-1.067V-13.97a1.221,1.221,0,0,0-.44-1.089,2.631,2.631,0,0,0-1.43-.3h-.352q-.154,0-.154-.308t.154-.308l2.464-.022q2.376,0,4,.066a10.355,10.355,0,0,1,3.883.9,6.787,6.787,0,0,1,2.926,2.563,8.093,8.093,0,0,1,1.133,4.477,8.05,8.05,0,0,1-1.133,4.455A6.862,6.862,0,0,1-60.5-.957a10.225,10.225,0,0,1-3.883.913q-1.452.066-3.63.066Zm6.05-.66a6.929,6.929,0,0,0,2.717-.616,5.859,5.859,0,0,0,2.53-2.255,7.961,7.961,0,0,0,1.089-4.455,8.007,8.007,0,0,0-1.089-4.477,5.782,5.782,0,0,0-2.53-2.244,7.035,7.035,0,0,0-2.717-.6h-.176A2.547,2.547,0,0,0-66.415-15a1.239,1.239,0,0,0-.429,1.078v11.9a1.212,1.212,0,0,0,.429,1.056,2.547,2.547,0,0,0,1.441.308Zm29.436.022a.121.121,0,0,1,.121.077.616.616,0,0,1,.033.231q0,.33-.154.33H-41.94q-.154,0-.154-.33,0-.308.154-.308,1.782,0,1.782-.66a1.235,1.235,0,0,0-.33-.682l-5.1-6.05-1.892,1.87V-2a1.194,1.194,0,0,0,.44,1.067,2.631,2.631,0,0,0,1.43.3h.374q.154,0,.154.308,0,.33-.154.33h-6.248q-.154,0-.154-.33a.616.616,0,0,1,.033-.231.121.121,0,0,1,.121-.077h.33a2.605,2.605,0,0,0,1.452-.308A1.2,1.2,0,0,0-49.266-2V-13.97a1.207,1.207,0,0,0-.451-1.089,2.692,2.692,0,0,0-1.441-.3h-.33q-.154,0-.154-.308t.154-.308h6.248a.139.139,0,0,1,.143.077.616.616,0,0,1,.033.231q0,.308-.176.308h-.374a2.547,2.547,0,0,0-1.441.308,1.239,1.239,0,0,0-.429,1.078V-7.3q3.564-3.52,5.742-5.742l.77-.77a1.085,1.085,0,0,0,.33-.682.711.711,0,0,0-.4-.616,2.161,2.161,0,0,0-1.122-.242q-.154,0-.154-.308t.154-.308h5.7a.139.139,0,0,1,.143.077.616.616,0,0,1,.033.231q0,.308-.176.308A4.512,4.512,0,0,0-39.5-13.948q-.506.462-4.8,4.664l1.98,2.354q3.454,4.136,3.784,4.51a6.336,6.336,0,0,0,1.54,1.408A3.26,3.26,0,0,0-35.362-.638Zm9.79-7.854h5.346v1.1h-5.346v5.346h-1.1V-7.392h-5.346v-1.1h5.346v-5.346h1.1ZM-9.468.286A9.932,9.932,0,0,1-11.349.077,11.692,11.692,0,0,1-13.23-.44a1.728,1.728,0,0,0-.55-.088,1.233,1.233,0,0,0-.605.165,4.486,4.486,0,0,0-.759.583l-1.012-4.29-.022-.132q0-.11.22-.2l.132-.022a.268.268,0,0,1,.242.176,6.477,6.477,0,0,0,5.9,3.762A5.313,5.313,0,0,0-6.993-1.2,2.6,2.6,0,0,0-5.75-3.652a2.831,2.831,0,0,0-.44-1.507A3.209,3.209,0,0,0-7.466-6.314a9.989,9.989,0,0,0-1.32-.572q-.638-.22-1.562-.506a15.432,15.432,0,0,1-1.936-.66A5.418,5.418,0,0,1-14.6-9.812a3.845,3.845,0,0,1-.627-2.134,4.787,4.787,0,0,1,.4-1.8,3.909,3.909,0,0,1,1.419-1.694,4.686,4.686,0,0,1,2.761-.726,6.63,6.63,0,0,1,1.364.143,11.96,11.96,0,0,1,1.5.429,2.242,2.242,0,0,0,.594.11,1.592,1.592,0,0,0,1.21-.7l1.1,3.74.022.154q0,.132-.176.2a.7.7,0,0,1-.2.044.259.259,0,0,1-.22-.132,8.319,8.319,0,0,0-.946-1.188,7.566,7.566,0,0,0-1.826-1.408,5.014,5.014,0,0,0-2.552-.66,3.019,3.019,0,0,0-2.068.627,2.9,2.9,0,0,0-.9,1.276,3.712,3.712,0,0,0-.2.979,2.832,2.832,0,0,0,1.87,2.508,18.267,18.267,0,0,0,2.464.88q.968.286,1.661.528a11.5,11.5,0,0,1,1.353.572A4.33,4.33,0,0,1-4.056-3.982,3.823,3.823,0,0,1-4.7-1.8,4.377,4.377,0,0,1-6.586-.275,6.9,6.9,0,0,1-9.468.286ZM16.8-18.546,7.978,2.178l-.792-.352L16.03-18.9Zm17.968,6.768a4.408,4.408,0,0,1,2.6.767A4.916,4.916,0,0,1,39.032-9,6.35,6.35,0,0,1,39.6-6.318a8.028,8.028,0,0,1-.689,3.328,5.947,5.947,0,0,1-1.95,2.444,4.827,4.827,0,0,1-2.9.91,5.029,5.029,0,0,1-3.042-.988,6.44,6.44,0,0,1-2.106-2.769,10.427,10.427,0,0,1-.754-4.095,17.348,17.348,0,0,1,1.04-6.357A9.623,9.623,0,0,1,31.817-17.8,4.858,4.858,0,0,1,34.9-19.11a5.517,5.517,0,0,1,2.067.351,3.052,3.052,0,0,1,1.313.923,1.93,1.93,0,0,1,.442,1.2,1.255,1.255,0,0,1-.377.923,1.225,1.225,0,0,1-.9.377,1.243,1.243,0,0,1-.962-.481,2.081,2.081,0,0,1-.468-1.261,1.482,1.482,0,0,0-.312-.884,1.113,1.113,0,0,0-.858-.286,2.71,2.71,0,0,0-2.288,1.417,10.862,10.862,0,0,0-1.43,3.484,26.267,26.267,0,0,0-.65,4.147A5.38,5.38,0,0,1,32.4-11.128,4.729,4.729,0,0,1,34.768-11.778Zm-.7,11.154a2.4,2.4,0,0,0,1.7-.7A4.663,4.663,0,0,0,36.926-3.25a8.436,8.436,0,0,0,.416-2.73q0-2.756-1.053-3.666a3.416,3.416,0,0,0-2.275-.91,3.47,3.47,0,0,0-2.093.767A4.37,4.37,0,0,0,30.426-7.41a14.068,14.068,0,0,0,.767,4.836A2.817,2.817,0,0,0,34.066-.624ZM51.2-11.778a4.408,4.408,0,0,1,2.6.767A4.916,4.916,0,0,1,55.464-9a6.35,6.35,0,0,1,.572,2.678,8.028,8.028,0,0,1-.689,3.328A5.947,5.947,0,0,1,53.4-.546a4.827,4.827,0,0,1-2.9.91,5.029,5.029,0,0,1-3.042-.988A6.44,6.44,0,0,1,45.35-3.393,10.427,10.427,0,0,1,44.6-7.488a17.348,17.348,0,0,1,1.04-6.357A9.623,9.623,0,0,1,48.249-17.8,4.858,4.858,0,0,1,51.33-19.11a5.517,5.517,0,0,1,2.067.351,3.052,3.052,0,0,1,1.313.923,1.93,1.93,0,0,1,.442,1.2,1.255,1.255,0,0,1-.377.923,1.225,1.225,0,0,1-.9.377,1.243,1.243,0,0,1-.962-.481,2.081,2.081,0,0,1-.468-1.261,1.482,1.482,0,0,0-.312-.884,1.113,1.113,0,0,0-.858-.286,2.71,2.71,0,0,0-2.288,1.417,10.862,10.862,0,0,0-1.43,3.484A26.267,26.267,0,0,0,46.91-9.2a5.38,5.38,0,0,1,1.924-1.924A4.729,4.729,0,0,1,51.2-11.778ZM50.5-.624a2.4,2.4,0,0,0,1.7-.7A4.663,4.663,0,0,0,53.358-3.25a8.436,8.436,0,0,0,.416-2.73q0-2.756-1.053-3.666a3.416,3.416,0,0,0-2.275-.91,3.47,3.47,0,0,0-2.093.767A4.37,4.37,0,0,0,46.858-7.41a14.068,14.068,0,0,0,.767,4.836A2.817,2.817,0,0,0,50.5-.624Zm27-7.164c0-2.992-1.122-4.2-3.3-4.2a4.484,4.484,0,0,0-3.652,2.156,2.8,2.8,0,0,0-2.97-2.156,4.369,4.369,0,0,0-3.564,2.134l-.066-1.826-.308-.176-3.256.7v.7l1.76.044c.066,1.144.088,2.442.088,3.982V-5.17c0,1.188-.022,2.948-.044,4.224L60.51-.77V0h5.28V-.77L64.074-.946c-.022-1.276-.044-3.036-.044-4.224V-9a3.688,3.688,0,0,1,2.816-1.694c1.3,0,2.134.792,2.134,2.9V-5.17c0,1.232-.022,2.97-.044,4.224L67.264-.77V0H72.5V-.77L70.806-.946c-.022-1.276-.044-2.992-.044-4.224V-7.964a8.449,8.449,0,0,0-.066-1.1,3.871,3.871,0,0,1,2.9-1.628c1.21,0,2.09.77,2.09,3.036V-5.17c0,1.21-.022,2.97-.044,4.224L73.952-.77V0h5.324V-.77L77.538-.946c-.022-1.254-.044-3.014-.044-4.224Zm.88-5.764,1.144-.946c1.1-.9,1.716-1.562,1.716-2.42,0-.836-.594-1.5-1.738-1.5-1.012,0-1.782.462-1.892,1.408a.4.4,0,0,0,.418.286c.242,0,.484-.088.616-.616l.154-.594a2.391,2.391,0,0,1,.4-.022.944.944,0,0,1,.99,1.056c0,.792-.462,1.3-1.254,2.156l-1.386,1.408v.66h3.938v-.88Zm14.85,1.892q.088-.11.209-.275a2.25,2.25,0,0,1,.209-.253.254.254,0,0,1,.176-.088,1.39,1.39,0,0,1,.55.319,6.321,6.321,0,0,1,.77.693q.352.374.352.528-.088.352-.55.352H89.022a22.292,22.292,0,0,0-3.3.308l-.55-1.144q1.21.132,2.926.176h1.584v-3.41H88.538a8.267,8.267,0,0,0-2.024.308l-.572-1.144q1.056.132,2.552.176h1.188a21.64,21.64,0,0,0-.22-3.432q2.112.616,2.112.924,0,.11-.176.22l-.374.242v2.046h1.364l.4-.594q.066-.088.187-.264a1.941,1.941,0,0,1,.209-.264.254.254,0,0,1,.176-.088,1.331,1.331,0,0,1,.539.319,7.5,7.5,0,0,1,.759.682q.352.363.352.517-.088.352-.55.352H91.024v3.41h1.782Zm9.592-6.028q.044-.066.143-.209a1.123,1.123,0,0,1,.176-.209.249.249,0,0,1,.165-.066q.2,0,.836.594t.638.836a1.323,1.323,0,0,1-.792.308,24.22,24.22,0,0,1-.407,3.817,3.575,3.575,0,0,1-.825,1.859,2.821,2.821,0,0,1-1.914.594,1.211,1.211,0,0,0-.352-.99,4.632,4.632,0,0,0-1.694-.484l.022-.374q.616.066,1.3.11t1.122.044a2.06,2.06,0,0,0,.429-.033.624.624,0,0,0,.253-.121q.55-.506.748-4.576h-3.1a10.194,10.194,0,0,1-1.265,4.158,8.744,8.744,0,0,1-3.707,3.212l-.308-.33a8.061,8.061,0,0,0,2.9-3.19,10.835,10.835,0,0,0,.924-3.85H97.03a7.805,7.805,0,0,0-1.936.308L94.522-17.4q1.21.132,2.926.176h5.038Zm-9.68,10.8q.066-.088.187-.275a1.742,1.742,0,0,1,.209-.275.254.254,0,0,1,.176-.088,1.265,1.265,0,0,1,.528.33,7.449,7.449,0,0,1,.737.7q.341.374.341.528-.066.352-.572.352H91.42V-.77a8.173,8.173,0,0,0,1.925.418,26.3,26.3,0,0,0,2.629.11q6.864,0,8.954-.066v.286a1.021,1.021,0,0,0-.638.385,1.456,1.456,0,0,0-.264.737h-8.1A15.059,15.059,0,0,1,92.124.7,5.389,5.389,0,0,1,89.6-.77a8.55,8.55,0,0,1-1.771-3.146,11.6,11.6,0,0,1-2.552,5.654l-.22-.264a14.322,14.322,0,0,0,1.672-5.588,16.494,16.494,0,0,0,.11-2.156,14.307,14.307,0,0,0-.176-2.574q2.178.308,2.178.594,0,.088-.176.2l-.352.22q-.11,1.694-.352,3.168a7.041,7.041,0,0,0,2.156,3.212v-4.4a28.781,28.781,0,0,0-.286-4.51,15.458,15.458,0,0,1,1.683.561q.473.209.473.363,0,.132-.2.242l-.374.242V-6.27h1.3Zm9.064-2.42q.066-.088.231-.3t.3-.209a1.287,1.287,0,0,1,.528.308,5.747,5.747,0,0,1,.726.671q.33.363.33.517a1.006,1.006,0,0,1-.33.231,2.307,2.307,0,0,1-.55.187v1.98q.066,2.486.154,3.85a1.429,1.429,0,0,1-.55.407,1.74,1.74,0,0,1-.77.209.234.234,0,0,1-.209-.132.6.6,0,0,1-.077-.308l.088-.528v-.506H97.25v.44q.022.242.033.451a1.768,1.768,0,0,0,.033.3q-.044.2-.429.385a1.771,1.771,0,0,1-.781.187.3.3,0,0,1-.253-.132.5.5,0,0,1-.1-.308q.088-.924.132-2.332V-5.324a28.789,28.789,0,0,0-.264-4.268L97.36-8.8h4.488ZM97.25-8.162v4.6h4.818v-4.6Z" transform="translate(162.732 180.11)" fill="#333"/>
          <g id="グループ_270" data-name="グループ 270" transform="translate(0.73 -1.21)">
            <path id="パス_1693" data-name="パス 1693" d="M22.975-11q.066-.088.187-.242a1.635,1.635,0,0,1,.2-.22.249.249,0,0,1,.165-.066q.2,0,.858.649t.66.891a1.476,1.476,0,0,1-.9.33,50.5,50.5,0,0,1-.715,6.644A7.337,7.337,0,0,1,22.117.528a3.63,3.63,0,0,1-2.574.88A1.174,1.174,0,0,0,19.081.352a3.19,3.19,0,0,0-.957-.363Q17.409-.2,16.573-.33l.022-.4q.968.11,2.112.209t1.518.1a1.717,1.717,0,0,0,.528-.066,1.341,1.341,0,0,0,.4-.22q.572-.506,1-3.014a54.889,54.889,0,0,0,.627-6.116H16.309A18.162,18.162,0,0,1,14.021-3.4,16.128,16.128,0,0,1,8.785,1.782l-.308-.374a15.964,15.964,0,0,0,4.367-5.06,17.312,17.312,0,0,0,1.848-5.4,47.271,47.271,0,0,0,.473-6.215H12.173a22.292,22.292,0,0,0-3.3.308l-.594-1.1q1.21.132,2.926.176H24.6l.484-.7.22-.3a2.845,2.845,0,0,1,.253-.308.278.278,0,0,1,.187-.1,1.58,1.58,0,0,1,.594.363,9.72,9.72,0,0,1,.869.77q.407.407.407.561-.022.33-.55.33H16.749a42.856,42.856,0,0,1-.352,4.8h6.182ZM35.537-4.18q.044,2.728.176,5.17a1.365,1.365,0,0,1-.517.473,1.539,1.539,0,0,1-.781.209.526.526,0,0,1-.352-.132.4.4,0,0,1-.154-.308q.088-1.3.154-2.519t.088-3.2v-8.36a28.781,28.781,0,0,0-.286-4.51l1.782.858H48.825l.308-.462q.066-.088.2-.275t.264-.187a1.487,1.487,0,0,1,.561.3,7.668,7.668,0,0,1,.8.638q.374.341.374.5a1.644,1.644,0,0,1-.374.264,1.616,1.616,0,0,1-.55.176v15A2.653,2.653,0,0,1,50.233.5a1.441,1.441,0,0,1-.726.682,4.842,4.842,0,0,1-1.606.385,1.7,1.7,0,0,0-.176-.616,1,1,0,0,0-.418-.4,6.114,6.114,0,0,0-2.222-.572V-.374q2.794.22,3.3.22a.728.728,0,0,0,.495-.132.577.577,0,0,0,.143-.44V-7.964H35.537ZM41.5-15.84H35.537v7.26H41.5Zm1.408,0v7.26h6.116v-7.26Zm18.722,4.554q3.058-.11,8.074-.374l2.552-.132a23.777,23.777,0,0,0-3.432-3.652l.242-.2a16.761,16.761,0,0,1,3.52,2.178,9,9,0,0,1,1.969,2.156,3.572,3.572,0,0,1,.605,1.76,1.1,1.1,0,0,1-.176.66.566.566,0,0,1-.484.242,1.074,1.074,0,0,1-.572-.2,9.437,9.437,0,0,0-1.342-2.464q-5.676.814-14.168,1.672a.9.9,0,0,1-.616.462l-.55-2q1.584,0,3.586-.088,1.122-1.958,1.848-3.432a19.757,19.757,0,0,0,.957-2.145,15.232,15.232,0,0,0,.627-2.013q2.354.88,2.354,1.166,0,.088-.2.176l-.418.132q-.858,1.43-2.035,3.091T61.629-11.286ZM61.387.264q.022.286.033.517a2.521,2.521,0,0,0,.033.341q-.044.2-.429.407a1.661,1.661,0,0,1-.8.209.355.355,0,0,1-.286-.132.467.467,0,0,1-.11-.308q.11-1.166.154-3.1V-3.586a28.781,28.781,0,0,0-.286-4.51l1.8.858h9.812l.352-.462.165-.22a1.266,1.266,0,0,1,.176-.2.249.249,0,0,1,.165-.066,1.487,1.487,0,0,1,.561.3,6.842,6.842,0,0,1,.792.638q.363.341.363.495a1.54,1.54,0,0,1-.946.44V-3.85Q73-.77,73.091.924a1.358,1.358,0,0,1-.572.4,1.96,1.96,0,0,1-.792.2.251.251,0,0,1-.231-.132.6.6,0,0,1-.077-.308l.088-.7V-.22H61.387Zm0-6.864V-.88h10.12V-6.6Z" transform="translate(361 181)" fill="#333"/>
            <path id="パス_1698" data-name="パス 1698" d="M-69.955-14.01a6.687,6.687,0,0,1,2.565.585,5.759,5.759,0,0,1,2.475,2.16,7.574,7.574,0,0,1,1.08,4.335,7.479,7.479,0,0,1-.99,3.87,7.1,7.1,0,0,1-2.52,2.58,6.038,6.038,0,0,1-3.09.9A7.552,7.552,0,0,1-73.15-.09a5.234,5.234,0,0,1-2.19-1.53,3.661,3.661,0,0,1-.855-2.43,1.96,1.96,0,0,1,.435-1.425,1.348,1.348,0,0,1,.975-.435,1.989,1.989,0,0,1,1.14.345,1.2,1.2,0,0,1,.51,1.065,3.018,3.018,0,0,1-.18.93l-.09.36a1.86,1.86,0,0,0-.06.45,1.825,1.825,0,0,0,.855,1.635,3.425,3.425,0,0,0,1.9.555,3.3,3.3,0,0,0,2.1-.765,5.32,5.32,0,0,0,1.545-2.16,8.285,8.285,0,0,0,.585-3.225,7.725,7.725,0,0,0-1.11-4.38,3.419,3.419,0,0,0-2.97-1.65q-2.25,0-4.26,2.88l-.87-.57.42-11.34h10.53l-.42,2.25h-9.15l-.33,7.86a8.252,8.252,0,0,1,2.34-1.815A5.407,5.407,0,0,1-69.955-14.01Zm13.2,17.22a.176.176,0,0,1-.15-.09.292.292,0,0,1-.06-.15.173.173,0,0,1,.06-.12,4.149,4.149,0,0,0,.825-.96,1.708,1.708,0,0,0,.285-.84.724.724,0,0,0-.39-.69,2.358,2.358,0,0,1-.8-.57,1.284,1.284,0,0,1-.285-.87,1.628,1.628,0,0,1,.48-1.2,1.592,1.592,0,0,1,1.17-.48,1.568,1.568,0,0,1,1.17.5,1.716,1.716,0,0,1,.48,1.245,4.072,4.072,0,0,1-.825,2.49,6.152,6.152,0,0,1-1.875,1.71Zm16.5-14.73a7.759,7.759,0,0,1,4.05,1.92,4.823,4.823,0,0,1,1.56,3.66,7.191,7.191,0,0,1-.615,2.805,5.731,5.731,0,0,1-2.175,2.5A7.359,7.359,0,0,1-41.605.42,6.653,6.653,0,0,1-44.95-.33a4.585,4.585,0,0,1-1.86-1.815A4.442,4.442,0,0,1-47.365-4.2,1.94,1.94,0,0,1-46.9-5.625a1.465,1.465,0,0,1,1.065-.465,1.878,1.878,0,0,1,1.14.375,1.243,1.243,0,0,1,.51,1.065,1.828,1.828,0,0,1-.33.87,3.141,3.141,0,0,0-.255.42,1.059,1.059,0,0,0-.1.48,2.3,2.3,0,0,0,.66,1.59,3.089,3.089,0,0,0,2.34.72,4.093,4.093,0,0,0,2.37-.72,4.888,4.888,0,0,0,1.65-1.98,6.621,6.621,0,0,0,.6-2.88,5.13,5.13,0,0,0-1.2-3.54,4.225,4.225,0,0,0-3.33-1.35,4.889,4.889,0,0,0-.63.06,5.206,5.206,0,0,1-.72.06.913.913,0,0,1-.555-.165.543.543,0,0,1-.225-.465A.554.554,0,0,1-43.69-12a.86.86,0,0,1,.555-.18,3.21,3.21,0,0,1,.78.09,6.446,6.446,0,0,0,.75.06,4.112,4.112,0,0,0,2.43-.84q1.17-.84,1.17-3.6a4.793,4.793,0,0,0-1.065-3.525,3.443,3.443,0,0,0-2.475-1.035,3.805,3.805,0,0,0-1.695.4,1.529,1.529,0,0,0-.825,1.515,2.517,2.517,0,0,0,.24,1.02,1.521,1.521,0,0,1,.21.78,1.289,1.289,0,0,1-.345.93,1.137,1.137,0,0,1-.855.36A1.507,1.507,0,0,1-46.15-16.6a2.241,2.241,0,0,1-.4-1.305,3.217,3.217,0,0,1,.675-1.785,5.581,5.581,0,0,1,1.9-1.665,5.665,5.665,0,0,1,2.82-.69,6.1,6.1,0,0,1,3.045.735,5.128,5.128,0,0,1,1.995,1.95,5.227,5.227,0,0,1,.69,2.625,5.035,5.035,0,0,1-1.215,3.375A5.894,5.894,0,0,1-40.255-11.52ZM-22.405.42A4.706,4.706,0,0,1-25.54-.84a8.69,8.69,0,0,1-2.34-3.78,18.683,18.683,0,0,1-.885-6.15,18.666,18.666,0,0,1,.9-6.18,8.917,8.917,0,0,1,2.355-3.825,4.71,4.71,0,0,1,3.165-1.275,4.676,4.676,0,0,1,3.135,1.275,8.808,8.808,0,0,1,2.34,3.825,18.958,18.958,0,0,1,.885,6.18,18.4,18.4,0,0,1-.9,6.15A8.8,8.8,0,0,1-19.24-.84,4.74,4.74,0,0,1-22.405.42Zm.06-1.02q1.74,0,2.745-2.535a21.9,21.9,0,0,0,1-7.635,22.173,22.173,0,0,0-1-7.665Q-20.605-21-22.345-21q-1.77,0-2.79,2.565a21.871,21.871,0,0,0-1.02,7.665,21.605,21.605,0,0,0,1.02,7.635Q-24.115-.6-22.345-.6ZM-3.805.42A4.706,4.706,0,0,1-6.94-.84,8.69,8.69,0,0,1-9.28-4.62a18.683,18.683,0,0,1-.885-6.15,18.666,18.666,0,0,1,.9-6.18A8.917,8.917,0,0,1-6.91-20.775,4.71,4.71,0,0,1-3.745-22.05,4.676,4.676,0,0,1-.61-20.775,8.808,8.808,0,0,1,1.73-16.95a18.958,18.958,0,0,1,.885,6.18,18.4,18.4,0,0,1-.9,6.15A8.8,8.8,0,0,1-.64-.84,4.74,4.74,0,0,1-3.805.42Zm.06-1.02Q-2.005-.6-1-3.135A21.9,21.9,0,0,0,0-10.77,22.173,22.173,0,0,0-1-18.435Q-2.005-21-3.745-21q-1.77,0-2.79,2.565a21.871,21.871,0,0,0-1.02,7.665,21.605,21.605,0,0,0,1.02,7.635Q-5.515-.6-3.745-.6Z" transform="translate(361 181)" fill="#952600"/>
          </g>
        </g>
        <g id="グループ_273" data-name="グループ 273" transform="translate(-1 10.37)">
          <path id="パス_1691" data-name="パス 1691" d="M-82.268-9.984a6.725,6.725,0,0,1,3.51,1.664,4.18,4.18,0,0,1,1.352,3.172,6.232,6.232,0,0,1-.533,2.431A4.967,4.967,0,0,1-79.824-.546a6.377,6.377,0,0,1-3.614.91,5.766,5.766,0,0,1-2.9-.65,3.973,3.973,0,0,1-1.612-1.573A3.85,3.85,0,0,1-88.43-3.64a1.681,1.681,0,0,1,.4-1.235,1.27,1.27,0,0,1,.923-.4,1.628,1.628,0,0,1,.988.325,1.078,1.078,0,0,1,.442.923,1.584,1.584,0,0,1-.286.754,2.722,2.722,0,0,0-.221.364.918.918,0,0,0-.091.416A2,2,0,0,0-85.7-1.118a2.677,2.677,0,0,0,2.028.624,3.547,3.547,0,0,0,2.054-.624,4.236,4.236,0,0,0,1.43-1.716,5.738,5.738,0,0,0,.52-2.5A4.446,4.446,0,0,0-80.708-8.4a3.661,3.661,0,0,0-2.886-1.17,4.237,4.237,0,0,0-.546.052,4.511,4.511,0,0,1-.624.052.791.791,0,0,1-.481-.143.471.471,0,0,1-.195-.4.48.48,0,0,1,.195-.39.746.746,0,0,1,.481-.156,2.782,2.782,0,0,1,.676.078,5.586,5.586,0,0,0,.65.052,3.564,3.564,0,0,0,2.106-.728q1.014-.728,1.014-3.12a4.154,4.154,0,0,0-.923-3.055,2.984,2.984,0,0,0-2.145-.9,3.3,3.3,0,0,0-1.469.351,1.325,1.325,0,0,0-.715,1.313,2.181,2.181,0,0,0,.208.884A1.318,1.318,0,0,1-85.18-15a1.117,1.117,0,0,1-.3.806.985.985,0,0,1-.741.312,1.306,1.306,0,0,1-1.157-.507,1.942,1.942,0,0,1-.351-1.131,2.788,2.788,0,0,1,.585-1.547,4.837,4.837,0,0,1,1.651-1.443,4.91,4.91,0,0,1,2.444-.6,5.288,5.288,0,0,1,2.639.637,4.444,4.444,0,0,1,1.729,1.69,4.53,4.53,0,0,1,.6,2.275,4.363,4.363,0,0,1-1.053,2.925A5.108,5.108,0,0,1-82.268-9.984ZM-72.168,0a.121.121,0,0,1-.121-.077.616.616,0,0,1-.033-.231q0-.33.154-.33h.352a2.684,2.684,0,0,0,1.452-.3A1.194,1.194,0,0,0-69.924-2V-13.97a1.2,1.2,0,0,0-.462-1.078,2.621,2.621,0,0,0-1.43-.308h-.352q-.154,0-.154-.308t.154-.308h6.248a.139.139,0,0,1,.143.077.616.616,0,0,1,.033.231q0,.308-.176.308h-.33a2.6,2.6,0,0,0-1.452.319,1.2,1.2,0,0,0-.462,1.067V-2a1.1,1.1,0,0,0,.451,1.023A3.2,3.2,0,0,0-66.25-.66l.506.022.88-.022a5.6,5.6,0,0,0,3.146-.891A9.272,9.272,0,0,0-59.5-3.828a.2.2,0,0,1,.176-.11.507.507,0,0,1,.2.066q.176.088.176.22l-.022.11q-.418,1.144-.638,1.672L-60.288,0ZM-54.26,0q-.176,0-.176-.308t.176-.308h.352a2.631,2.631,0,0,0,1.43-.3,1.194,1.194,0,0,0,.44-1.067V-13.97a1.221,1.221,0,0,0-.44-1.089,2.631,2.631,0,0,0-1.43-.3h-.352q-.154,0-.154-.308t.154-.308l2.464-.022q2.376,0,4,.066a10.355,10.355,0,0,1,3.883.9,6.787,6.787,0,0,1,2.926,2.563A8.093,8.093,0,0,1-39.85-7.986a8.05,8.05,0,0,1-1.133,4.455A6.862,6.862,0,0,1-43.909-.957a10.225,10.225,0,0,1-3.883.913q-1.452.066-3.63.066Zm6.05-.66a6.929,6.929,0,0,0,2.717-.616,5.859,5.859,0,0,0,2.53-2.255,7.961,7.961,0,0,0,1.089-4.455,8.007,8.007,0,0,0-1.089-4.477,5.782,5.782,0,0,0-2.53-2.244,7.035,7.035,0,0,0-2.717-.6h-.176A2.547,2.547,0,0,0-49.827-15a1.239,1.239,0,0,0-.429,1.078v11.9a1.212,1.212,0,0,0,.429,1.056,2.547,2.547,0,0,0,1.441.308Zm29.436.022a.121.121,0,0,1,.121.077.616.616,0,0,1,.033.231q0,.33-.154.33h-6.578q-.154,0-.154-.33,0-.308.154-.308,1.782,0,1.782-.66a1.235,1.235,0,0,0-.33-.682L-29-8.03-30.9-6.16V-2a1.194,1.194,0,0,0,.44,1.067,2.631,2.631,0,0,0,1.43.3h.374q.154,0,.154.308,0,.33-.154.33H-34.9q-.154,0-.154-.33a.616.616,0,0,1,.033-.231A.121.121,0,0,1-34.9-.638h.33a2.605,2.605,0,0,0,1.452-.308A1.2,1.2,0,0,0-32.678-2V-13.97a1.207,1.207,0,0,0-.451-1.089,2.692,2.692,0,0,0-1.441-.3h-.33q-.154,0-.154-.308t.154-.308h6.248a.139.139,0,0,1,.143.077.616.616,0,0,1,.033.231q0,.308-.176.308h-.374a2.547,2.547,0,0,0-1.441.308A1.239,1.239,0,0,0-30.9-13.97V-7.3q3.564-3.52,5.742-5.742l.77-.77a1.085,1.085,0,0,0,.33-.682.711.711,0,0,0-.4-.616,2.161,2.161,0,0,0-1.122-.242q-.154,0-.154-.308t.154-.308h5.7a.139.139,0,0,1,.143.077.616.616,0,0,1,.033.231q0,.308-.176.308a4.512,4.512,0,0,0-3.036,1.408q-.506.462-4.8,4.664l1.98,2.354q3.454,4.136,3.784,4.51A6.336,6.336,0,0,0-20.4-1.012,3.26,3.26,0,0,0-18.774-.638ZM1.356-18.546-7.466,2.178l-.792-.352L.586-18.9ZM17.192.338a1.058,1.058,0,0,1-1-.663,3.475,3.475,0,0,1-.325-1.547,15.831,15.831,0,0,1,2.08-6.812q2.08-4.082,4.81-8.346h-4.6a6.371,6.371,0,0,0-2.405.351,2.579,2.579,0,0,0-1.222,1,11.89,11.89,0,0,0-.923,2.106.355.355,0,0,1-.091.13.213.213,0,0,1-.117.026l-.208-.052a1.019,1.019,0,0,1-.234-.1.153.153,0,0,1-.078-.13l.052-.286,1.066-4.94h10.14l.26.572q-2.548,4.342-3.783,6.994a22.245,22.245,0,0,0-1.677,4.784,24.538,24.538,0,0,0-.442,4.94Q18.492.338,17.192.338ZM30.608,0q-.182,0-.182-.364,0-.39.182-.39h.416a4.614,4.614,0,0,0,2.054-.39,1.285,1.285,0,0,0,.78-1.222V-14.82a2.58,2.58,0,0,0-.143-1.053.876.876,0,0,0-.676-.364,14.121,14.121,0,0,0-1.989-.091h-.442q-.182,0-.182-.39,0-.364.182-.364a8.207,8.207,0,0,0,2.912-.481,7.381,7.381,0,0,0,2.418-1.547V-2.366q0,1.612,2.834,1.612h.39a.143.143,0,0,1,.143.091.823.823,0,0,1,.039.3q0,.364-.182.364Zm30.61-7.788c0-2.992-1.122-4.2-3.3-4.2a4.484,4.484,0,0,0-3.652,2.156A2.8,2.8,0,0,0,51.3-11.99a4.369,4.369,0,0,0-3.564,2.134l-.066-1.826-.308-.176-3.256.7v.7l1.76.044c.066,1.144.088,2.442.088,3.982V-5.17c0,1.188-.022,2.948-.044,4.224L44.234-.77V0h5.28V-.77L47.8-.946c-.022-1.276-.044-3.036-.044-4.224V-9a3.688,3.688,0,0,1,2.816-1.694c1.3,0,2.134.792,2.134,2.9V-5.17c0,1.232-.022,2.97-.044,4.224L50.988-.77V0h5.236V-.77L54.53-.946c-.022-1.276-.044-2.992-.044-4.224V-7.964a8.449,8.449,0,0,0-.066-1.1,3.871,3.871,0,0,1,2.9-1.628c1.21,0,2.09.77,2.09,3.036V-5.17c0,1.21-.022,2.97-.044,4.224L57.676-.77V0H63V-.77L61.262-.946C61.24-2.2,61.218-3.96,61.218-5.17Zm.88-5.764,1.144-.946c1.1-.9,1.716-1.562,1.716-2.42,0-.836-.594-1.5-1.738-1.5-1.012,0-1.782.462-1.892,1.408a.4.4,0,0,0,.418.286c.242,0,.484-.088.616-.616l.154-.594a2.391,2.391,0,0,1,.4-.022A.944.944,0,0,1,63.9-16.9c0,.792-.462,1.3-1.254,2.156l-1.386,1.408v.66H65.2v-.88Zm14.85,1.892q.088-.11.209-.275a2.25,2.25,0,0,1,.209-.253.254.254,0,0,1,.176-.088,1.39,1.39,0,0,1,.55.319,6.321,6.321,0,0,1,.77.693q.352.374.352.528-.088.352-.55.352H72.746a22.292,22.292,0,0,0-3.3.308L68.9-11.22q1.21.132,2.926.176h1.584v-3.41H72.262a8.267,8.267,0,0,0-2.024.308l-.572-1.144q1.056.132,2.552.176h1.188a21.64,21.64,0,0,0-.22-3.432q2.112.616,2.112.924,0,.11-.176.22l-.374.242v2.046h1.364l.4-.594q.066-.088.187-.264a1.94,1.94,0,0,1,.209-.264.254.254,0,0,1,.176-.088,1.331,1.331,0,0,1,.539.319,7.5,7.5,0,0,1,.759.682q.352.363.352.517-.088.352-.55.352H74.748v3.41H76.53Zm9.592-6.028q.044-.066.143-.209a1.123,1.123,0,0,1,.176-.209.249.249,0,0,1,.165-.066q.2,0,.836.594t.638.836a1.323,1.323,0,0,1-.792.308,24.22,24.22,0,0,1-.407,3.817,3.575,3.575,0,0,1-.825,1.859,2.821,2.821,0,0,1-1.914.594,1.211,1.211,0,0,0-.352-.99,4.632,4.632,0,0,0-1.694-.484l.022-.374q.616.066,1.3.11t1.122.044a2.06,2.06,0,0,0,.429-.033.624.624,0,0,0,.253-.121q.55-.506.748-4.576h-3.1a10.194,10.194,0,0,1-1.265,4.158,8.744,8.744,0,0,1-3.707,3.212L78-9.548a8.061,8.061,0,0,0,2.9-3.19,10.835,10.835,0,0,0,.924-3.85H80.754a7.805,7.805,0,0,0-1.936.308L78.246-17.4q1.21.132,2.926.176H86.21Zm-9.68,10.8q.066-.088.187-.275a1.742,1.742,0,0,1,.209-.275.254.254,0,0,1,.176-.088,1.265,1.265,0,0,1,.528.33,7.449,7.449,0,0,1,.737.7q.341.374.341.528-.066.352-.572.352H75.144V-.77a8.173,8.173,0,0,0,1.925.418,26.3,26.3,0,0,0,2.629.11q6.864,0,8.954-.066v.286a1.021,1.021,0,0,0-.638.385,1.456,1.456,0,0,0-.264.737h-8.1A15.059,15.059,0,0,1,75.848.7,5.389,5.389,0,0,1,73.329-.77a8.55,8.55,0,0,1-1.771-3.146,11.6,11.6,0,0,1-2.552,5.654l-.22-.264a14.322,14.322,0,0,0,1.672-5.588,16.494,16.494,0,0,0,.11-2.156,14.307,14.307,0,0,0-.176-2.574q2.178.308,2.178.594,0,.088-.176.2l-.352.22q-.11,1.694-.352,3.168a7.041,7.041,0,0,0,2.156,3.212v-4.4a28.781,28.781,0,0,0-.286-4.51,15.458,15.458,0,0,1,1.683.561q.473.209.473.363,0,.132-.2.242l-.374.242V-6.27h1.3Zm9.064-2.42q.066-.088.231-.3t.3-.209a1.287,1.287,0,0,1,.528.308,5.746,5.746,0,0,1,.726.671q.33.363.33.517a1.006,1.006,0,0,1-.33.231,2.307,2.307,0,0,1-.55.187v1.98q.066,2.486.154,3.85a1.429,1.429,0,0,1-.55.407,1.74,1.74,0,0,1-.77.209.234.234,0,0,1-.209-.132.6.6,0,0,1-.077-.308l.088-.528v-.506H80.974v.44q.022.242.033.451a1.768,1.768,0,0,0,.033.3q-.044.2-.429.385a1.771,1.771,0,0,1-.781.187.3.3,0,0,1-.253-.132.5.5,0,0,1-.1-.308q.088-.924.132-2.332V-5.324a28.789,28.789,0,0,0-.264-4.268l1.738.792h4.488Zm-4.95,1.144v4.6h4.818v-4.6Z" transform="translate(146.43 219)" fill="#333"/>
          <g id="グループ_271" data-name="グループ 271" transform="translate(0 -3.32)">
            <path id="パス_1692" data-name="パス 1692" d="M23.425-11q.066-.088.187-.242a1.635,1.635,0,0,1,.2-.22.249.249,0,0,1,.165-.066q.2,0,.858.649t.66.891a1.476,1.476,0,0,1-.9.33,50.5,50.5,0,0,1-.715,6.644A7.337,7.337,0,0,1,22.567.528a3.63,3.63,0,0,1-2.574.88A1.174,1.174,0,0,0,19.531.352a3.19,3.19,0,0,0-.957-.363Q17.859-.2,17.023-.33l.022-.4q.968.11,2.112.209t1.518.1A1.717,1.717,0,0,0,21.2-.484a1.341,1.341,0,0,0,.4-.22q.572-.506,1-3.014a54.889,54.889,0,0,0,.627-6.116H16.759A18.162,18.162,0,0,1,14.471-3.4,16.128,16.128,0,0,1,9.235,1.782l-.308-.374a15.964,15.964,0,0,0,4.367-5.06,17.312,17.312,0,0,0,1.848-5.4,47.271,47.271,0,0,0,.473-6.215H12.623a22.292,22.292,0,0,0-3.3.308l-.594-1.1q1.21.132,2.926.176h13.4l.484-.7.22-.3a2.845,2.845,0,0,1,.253-.308.278.278,0,0,1,.187-.1,1.58,1.58,0,0,1,.594.363,9.72,9.72,0,0,1,.869.77q.407.407.407.561-.022.33-.55.33H17.2a42.856,42.856,0,0,1-.352,4.8h6.182ZM35.987-4.18q.044,2.728.176,5.17a1.365,1.365,0,0,1-.517.473,1.539,1.539,0,0,1-.781.209.526.526,0,0,1-.352-.132.4.4,0,0,1-.154-.308q.088-1.3.154-2.519t.088-3.2v-8.36a28.781,28.781,0,0,0-.286-4.51L36.1-16.5H49.275l.308-.462q.066-.088.2-.275t.264-.187a1.487,1.487,0,0,1,.561.3,7.668,7.668,0,0,1,.8.638q.374.341.374.5a1.644,1.644,0,0,1-.374.264,1.616,1.616,0,0,1-.55.176v15A2.653,2.653,0,0,1,50.683.5a1.441,1.441,0,0,1-.726.682,4.842,4.842,0,0,1-1.606.385,1.7,1.7,0,0,0-.176-.616,1,1,0,0,0-.418-.4,6.114,6.114,0,0,0-2.222-.572V-.374q2.794.22,3.3.22a.728.728,0,0,0,.495-.132.577.577,0,0,0,.143-.44V-7.964H35.987Zm5.962-11.66H35.987v7.26h5.962Zm1.408,0v7.26h6.116v-7.26Zm18.722,4.554q3.058-.11,8.074-.374l2.552-.132a23.777,23.777,0,0,0-3.432-3.652l.242-.2a16.761,16.761,0,0,1,3.52,2.178A9,9,0,0,1,75-11.308a3.572,3.572,0,0,1,.605,1.76,1.1,1.1,0,0,1-.176.66.566.566,0,0,1-.484.242,1.074,1.074,0,0,1-.572-.2,9.437,9.437,0,0,0-1.342-2.464q-5.676.814-14.168,1.672a.9.9,0,0,1-.616.462l-.55-2q1.584,0,3.586-.088,1.122-1.958,1.848-3.432a19.757,19.757,0,0,0,.957-2.145,15.233,15.233,0,0,0,.627-2.013q2.354.88,2.354,1.166,0,.088-.2.176l-.418.132q-.858,1.43-2.035,3.091T62.079-11.286ZM61.837.264q.022.286.033.517a2.521,2.521,0,0,0,.033.341q-.044.2-.429.407a1.661,1.661,0,0,1-.8.209.355.355,0,0,1-.286-.132.467.467,0,0,1-.11-.308q.11-1.166.154-3.1V-3.586a28.781,28.781,0,0,0-.286-4.51l1.8.858h9.812l.352-.462.165-.22a1.266,1.266,0,0,1,.176-.2.249.249,0,0,1,.165-.066,1.487,1.487,0,0,1,.561.3,6.842,6.842,0,0,1,.792.638q.363.341.363.495a1.54,1.54,0,0,1-.946.44V-3.85q.066,3.08.154,4.774a1.358,1.358,0,0,1-.572.4,1.96,1.96,0,0,1-.792.2.251.251,0,0,1-.231-.132.6.6,0,0,1-.077-.308l.088-.7V-.22H61.837Zm0-6.864V-.88h10.12V-6.6Z" transform="translate(362 222)" fill="#333"/>
            <path id="パス_1699" data-name="パス 1699" d="M-68.845-13.59a5.086,5.086,0,0,1,3,.885,5.672,5.672,0,0,1,1.92,2.325,7.327,7.327,0,0,1,.66,3.09,9.263,9.263,0,0,1-.795,3.84A6.862,6.862,0,0,1-66.31-.63,5.569,5.569,0,0,1-69.655.42a5.8,5.8,0,0,1-3.51-1.14,7.431,7.431,0,0,1-2.43-3.2,12.031,12.031,0,0,1-.87-4.725,20.018,20.018,0,0,1,1.2-7.335,11.1,11.1,0,0,1,3.015-4.56,5.606,5.606,0,0,1,3.555-1.515,6.366,6.366,0,0,1,2.385.405,3.522,3.522,0,0,1,1.515,1.065,2.227,2.227,0,0,1,.51,1.38,1.448,1.448,0,0,1-.435,1.065,1.414,1.414,0,0,1-1.035.435,1.434,1.434,0,0,1-1.11-.555,2.4,2.4,0,0,1-.54-1.455,1.71,1.71,0,0,0-.36-1.02,1.284,1.284,0,0,0-.99-.33,3.127,3.127,0,0,0-2.64,1.635,12.533,12.533,0,0,0-1.65,4.02,30.308,30.308,0,0,0-.75,4.785,6.208,6.208,0,0,1,2.22-2.22A5.456,5.456,0,0,1-68.845-13.59Zm-.81,12.87a2.775,2.775,0,0,0,1.965-.81,5.38,5.38,0,0,0,1.335-2.22,9.734,9.734,0,0,0,.48-3.15q0-3.18-1.215-4.23a3.942,3.942,0,0,0-2.625-1.05,4,4,0,0,0-2.415.885A5.042,5.042,0,0,0-73.855-8.55a16.233,16.233,0,0,0,.885,5.58A3.25,3.25,0,0,0-69.655-.72Zm13.35,3.93a.176.176,0,0,1-.15-.09.292.292,0,0,1-.06-.15.173.173,0,0,1,.06-.12,4.149,4.149,0,0,0,.825-.96,1.708,1.708,0,0,0,.285-.84.724.724,0,0,0-.39-.69,2.358,2.358,0,0,1-.8-.57,1.284,1.284,0,0,1-.285-.87,1.628,1.628,0,0,1,.48-1.2,1.592,1.592,0,0,1,1.17-.48,1.568,1.568,0,0,1,1.17.5,1.716,1.716,0,0,1,.48,1.245,4.072,4.072,0,0,1-.825,2.49,6.152,6.152,0,0,1-1.875,1.71Zm16.5-14.73a7.759,7.759,0,0,1,4.05,1.92,4.823,4.823,0,0,1,1.56,3.66,7.191,7.191,0,0,1-.615,2.805,5.731,5.731,0,0,1-2.175,2.5A7.359,7.359,0,0,1-41.155.42,6.653,6.653,0,0,1-44.5-.33a4.585,4.585,0,0,1-1.86-1.815A4.442,4.442,0,0,1-46.915-4.2a1.94,1.94,0,0,1,.465-1.425,1.465,1.465,0,0,1,1.065-.465,1.878,1.878,0,0,1,1.14.375,1.243,1.243,0,0,1,.51,1.065,1.828,1.828,0,0,1-.33.87,3.141,3.141,0,0,0-.255.42,1.059,1.059,0,0,0-.1.48,2.3,2.3,0,0,0,.66,1.59,3.089,3.089,0,0,0,2.34.72,4.093,4.093,0,0,0,2.37-.72A4.888,4.888,0,0,0-37.4-3.27a6.621,6.621,0,0,0,.6-2.88,5.13,5.13,0,0,0-1.2-3.54,4.225,4.225,0,0,0-3.33-1.35,4.889,4.889,0,0,0-.63.06,5.206,5.206,0,0,1-.72.06.913.913,0,0,1-.555-.165.543.543,0,0,1-.225-.465A.554.554,0,0,1-43.24-12a.86.86,0,0,1,.555-.18,3.21,3.21,0,0,1,.78.09,6.446,6.446,0,0,0,.75.06,4.112,4.112,0,0,0,2.43-.84q1.17-.84,1.17-3.6a4.793,4.793,0,0,0-1.065-3.525A3.443,3.443,0,0,0-41.1-21.03a3.805,3.805,0,0,0-1.695.4,1.529,1.529,0,0,0-.825,1.515,2.517,2.517,0,0,0,.24,1.02,1.521,1.521,0,0,1,.21.78,1.289,1.289,0,0,1-.345.93,1.137,1.137,0,0,1-.855.36A1.507,1.507,0,0,1-45.7-16.6a2.241,2.241,0,0,1-.4-1.305,3.217,3.217,0,0,1,.675-1.785,5.581,5.581,0,0,1,1.9-1.665,5.665,5.665,0,0,1,2.82-.69,6.1,6.1,0,0,1,3.045.735,5.128,5.128,0,0,1,1.995,1.95,5.227,5.227,0,0,1,.69,2.625,5.035,5.035,0,0,1-1.215,3.375A5.894,5.894,0,0,1-39.805-11.52ZM-21.955.42A4.706,4.706,0,0,1-25.09-.84a8.69,8.69,0,0,1-2.34-3.78,18.683,18.683,0,0,1-.885-6.15,18.666,18.666,0,0,1,.9-6.18,8.917,8.917,0,0,1,2.355-3.825,4.71,4.71,0,0,1,3.165-1.275,4.676,4.676,0,0,1,3.135,1.275,8.808,8.808,0,0,1,2.34,3.825,18.958,18.958,0,0,1,.885,6.18,18.4,18.4,0,0,1-.9,6.15A8.8,8.8,0,0,1-18.79-.84,4.74,4.74,0,0,1-21.955.42Zm.06-1.02q1.74,0,2.745-2.535a21.9,21.9,0,0,0,1-7.635,22.173,22.173,0,0,0-1-7.665Q-20.155-21-21.895-21q-1.77,0-2.79,2.565A21.871,21.871,0,0,0-25.7-10.77a21.605,21.605,0,0,0,1.02,7.635Q-23.665-.6-21.895-.6ZM-3.355.42A4.706,4.706,0,0,1-6.49-.84,8.69,8.69,0,0,1-8.83-4.62a18.683,18.683,0,0,1-.885-6.15,18.666,18.666,0,0,1,.9-6.18A8.917,8.917,0,0,1-6.46-20.775,4.71,4.71,0,0,1-3.295-22.05,4.676,4.676,0,0,1-.16-20.775,8.808,8.808,0,0,1,2.18-16.95a18.958,18.958,0,0,1,.885,6.18,18.4,18.4,0,0,1-.9,6.15A8.8,8.8,0,0,1-.19-.84,4.74,4.74,0,0,1-3.355.42Zm.06-1.02q1.74,0,2.745-2.535A21.9,21.9,0,0,0,.455-10.77,22.173,22.173,0,0,0-.55-18.435Q-1.555-21-3.295-21q-1.77,0-2.79,2.565a21.871,21.871,0,0,0-1.02,7.665,21.605,21.605,0,0,0,1.02,7.635Q-5.065-.6-3.295-.6Z" transform="translate(362 222)" fill="#952600"/>
          </g>
        </g>
      </g>
    </g>
    <g id="パス_1702" data-name="パス 1702" fill="none">
      <path d="M0,0H500V280H0Z" stroke="none"/>
      <path d="M 1 1 L 1 279 L 499 279 L 499 1 L 1 1 M 0 0 L 500 0 L 500 280 L 0 280 L 0 0 Z" stroke="none" fill="#333"/>
    </g>
  </g>
</svg>
